**ABCDEFGHIJKLMNOPQRSTUVWXYZabcdefghijklmnopqrstuvwxyz**************************
**PARASOLID !"#$%&'()*+,-./:;<=>?@[\]^_`{|}~0123456789**************************
**PART1;
MC=x64/Windows NT;
MC_MODEL=authenticamd family 15 model 1 stepping 1, amd ryzen 7 1700x eight-core processor         ;
MC_ID=desktop-5gkgur5;
OS=windows nt (x64);
OS_RELEASE=6.3 windows 10 education (build 17763) ;
FRU=mdc_ugii_v7.0_djl_can_vrh;
APPL=unigraphics;
SITE=unknown;
USER=Jessie;
FORMAT=text;
GUISE=transmit;
KEY=MOUNTING_HINGE;
FILE=C:\Users\Jessie\Documents\ENG 4000\Hinge\MOUNTING_HINGE.x_t;
DATE=10-feb-2019;
**PART2;
SCH=SCH_2901224_28101;
USFLD_SIZE=0;
**PART3;
**END_OF_HEADER*****************************************************************
T51 : TRANSMIT FILE created by modeller version 290122423 SCH_2901224_28101_1300
6204 0 12 33 CCCCCCI4 mesh1006 0 I8 polyline1008 0 CCCCCCCDI5 owner1040 0 CCCCCC
I13 boundary_mesh1006 0 I17 boundary_polyline1008 0 CCCA16 index_map_offset0 0 1
 dA9 index_map82 0 A17 node_id_index_map82 0 A20 schema_embedding_map82 0 A5 chi
ld12 0 A14 lowest_node_id0 0 1 dZ1 2424 2 3 0 0 0 0 0 0 1e3 1e-8 0 0 0 1 0 1 1 4
 5 6 7 0 0 8 9 10 0 0 0 0 0 0 81 255 1 2 2424 11 1 12 0 0 0 13 70 11 CI9 list_ty
pe0 0 1 uI10 notransmit0 0 1 lCCCDCCDI12 finger_index0 0 1 dI12 finger_block1012
 0 CZ3 0 4 T1 0 0 6 20 1 14 14 13 255 4 181 0 1 0 15 0 0 16 0 51 255 5 2267 0 17
 18 0 0 +.000912499999999979 -.0035875 .006 0 0 -1 .0015875 -1 0 0 31 255 6 2170
 0 9 19 0 0 +.000912499999999979 -.0035875 .0015 0 2439454888092385e-31 1 0 -1 2
439454888092385e-31 .0015875 29 255 7 2043 0 10 20 0 .000912499999999979 -.002 .
0015 19 8 CCCCCCCA5 owner12 0 Z8 1 0 1 16 0 21 V0 16 255 9 2071 22 ?23 0 24 6 0
 0 1 18 255 10 2041 0 25 0 26 7 ?1 17 255 25 0 27 28 29 10 30 31 0 23 +18 26 203
8 0 32 10 33 20 ?1 17 32 0 34 35 36 26 37 24 0 38 +18 33 2025 0 29 26 39 40 ?1 2
9 20 2040 0 26 40 7 .0039125 -.002 .00070000000000001 29 40 2027 0 33 41 20 .003
9125 -.002 .0015 29 41 2014 0 39 42 40 .0055 -.0084125 .00070000000000001 18 39
 2012 0 43 33 44 41 ?1 29 42 2011 0 44 45 41 .0055 -.0035875 .000700000000000009
 18 44 2009 0 37 39 46 42 ?1 29 45 2008 0 46 47 42 .0055 -.0084125 .0015 18 46 2
006 0 48 44 49 45 ?1 29 47 2005 0 49 50 45 .0055 -.0035875 .0015 18 49 2003 0 51
 46 52 47 ?1 29 50 1994 0 52 53 47 .00091249999999997 -.01 .0015 18 52 1992 0 54
 49 55 50 ?1 29 53 1984 0 55 56 50 .0039125 -.01 .000700000000000011 18 55 1982
 0 57 52 58 53 ?1 29 56 1981 0 58 59 53 .0039125 -.01 .0015 18 58 1979 0 60 55 6
1 56 ?1 29 59 1968 0 61 62 56 .000912499999999979 -.002 .006 18 61 1966 0 63 58
 64 59 ?1 29 62 1965 0 64 65 59 .00091249999999997 -.01 .006 18 64 1963 0 66 61
 67 62 ?1 29 65 1952 0 67 68 62 .0025 -.0035875 .006 18 67 1950 0 69 64 70 65 ?1
 29 68 1949 0 70 71 65 .00249999999999997 -.0084125 .006 18 70 1947 0 72 67 73 6
8 ?1 29 71 1946 0 73 74 68 .0025 -.0035875 .0015 18 73 1944 0 75 70 76 71 ?1 29
 74 1943 0 76 77 71 .0025 -.0084125 .0015 18 76 1941 0 78 73 79 74 ?1 29 77 897
 0 79 80 74 -.000696152422706655 -.002 .006 18 79 894 0 81 76 82 77 ?1 29 80 128
 0 83 84 77 .0035 0 .003 18 83 101 0 85 86 87 80 ?1 29 84 129 0 87 88 80 .0187 0
 .003 18 87 103 0 89 83 90 84 ?1 29 88 37 0 82 91 84 .0035 -.012 .003 18 82 35 0
 92 79 86 88 ?1 29 91 32 0 86 93 88 .0187 -.012 .003 18 86 30 0 94 82 83 91 ?1 2
9 93 603 0 95 96 91 .0035 0 .007 18 95 555 0 97 98 99 93 ?1 29 96 606 0 99 100 9
3 -.0045 0 .007 18 99 556 0 101 95 102 96 ?1 29 100 607 0 90 103 96 .0035 -.012
 .007 18 90 558 0 104 87 98 100 ?1 29 103 610 0 98 105 100 -.0045 -.012 .007 18
 98 559 0 106 90 95 103 ?1 29 105 1199 0 102 107 103 -.0045 -.002 .007 18 102 11
00 0 108 99 109 105 ?1 29 107 1202 0 109 110 105 -.0045 -.01 .007 18 109 1103 0
 111 102 112 107 ?1 29 110 1205 0 112 113 107 -.00242820323027553 -.002 .007 18
 112 1101 0 114 109 115 110 ?1 29 113 1206 0 115 116 110 -.00242820323027553 -.0
1 .007 18 115 1104 0 117 112 118 113 ?1 29 116 1207 0 118 119 113 -.000696152422
706655 -.01 .006 18 118 1110 0 120 115 121 116 ?1 29 119 1678 0 121 122 116 .018
7 0 .000700000000000009 18 121 1559 0 123 118 124 119 ?1 29 122 1679 0 124 125 1
19 .0187 -.012 .000700000000000011 18 124 1557 0 126 121 127 122 ?1 29 125 1680
 0 127 128 122 -.0045 -.002 .000700000000000009 18 127 1573 0 35 124 129 125 ?1
 29 128 1681 0 129 130 125 -.0045 -.01 .00070000000000001 18 129 1555 0 131 127
 132 128 ?1 29 130 1689 0 132 133 128 -.0045 0 .000700000000000009 18 132 1561 0
 134 129 135 130 ?1 29 133 1690 0 135 0 130 -.0045 -.012 .000700000000000011 18
 135 1558 0 136 132 0 133 ?1 17 136 0 34 137 126 135 138 139 0 140 +15 255 34 17
59 0 36 141 142 17 137 0 34 143 136 129 140 144 0 145 +17 126 0 34 136 123 124 1
46 147 0 138 -17 138 0 148 94 149 124 136 139 0 150 -16 139 1536 151 ?136 152 15
3 154 0 0 1 17 140 0 155 106 145 135 137 144 0 149 -15 155 1376 0 140 156 0 17 1
06 0 155 157 140 98 149 158 0 159 -17 145 0 155 140 157 129 111 160 0 0 +16 144
 1453 161 ?137 153 162 163 162 162 1 17 149 0 148 138 159 135 106 158 0 0 +15 14
8 1370 0 138 164 165 17 159 0 148 149 104 98 166 167 0 168 +16 158 11 169 ?149 1
70 171 172 0 0 1 81 1 169 1722 173 158 0 0 174 175 176 16 170 31 174 ?94 177 158
 178 0 0 1 16 171 83 179 ?97 158 180 181 0 0 1 30 255 172 14 0 158 182 178 0 +-.
0045 -.012 .006 289120579329468e-30 0 -1 31 182 302 0 183 184 172 0 +-.0015 -.01
2 .003 0 -1 0 0 0 -1 .0016 30 178 34 0 170 172 185 0 +.0187 -.012 0 231296463463
574e-29 0 1 30 185 39 0 177 178 186 0 +.0187 -.012 .003 -1 0 -1711898167082375e-
31 16 177 36 187 ?92 188 170 185 0 0 1 30 186 44 0 188 185 189 0 +.0035 -.012 .0
03 -216840434497101e-29 0 1 16 188 41 190 ?104 191 177 186 0 0 1 30 189 124 0 19
2 186 193 0 +-.0045 0 .003 0 0 -1 16 192 93 194 ?195 196 183 189 0 0 1 30 193 12
1 0 196 189 197 0 +.0187 0 0 231296463463574e-29 0 1 16 196 87 175 ?89 180 192 1
93 0 0 1 30 197 120 0 180 193 181 0 +.0187 0 .003 -1 0 -1711898167082375e-31 16
 180 85 198 ?85 171 196 197 0 0 1 30 181 119 0 171 197 199 0 +.0035 0 .003 -2168
40434497101e-29 0 1 30 199 173 0 191 181 200 0 +.0035 -.012 .003 0 1 0 16 191 13
7 201 ?202 203 188 199 0 0 1 30 200 174 0 203 199 204 0 +.0187 -.012 .003 0 1 0
 16 203 138 205 ?206 207 191 200 0 0 1 31 204 249 0 208 200 209 0 +-.0015 0 .003
 0 -1 0 0 0 -1 .0016 16 208 267 210 ?211 183 212 204 0 0 1 31 209 654 0 213 204
 214 0 --.0015 -.01 .003 -247817639425258e-30 -1 0 1 -247817639425258e-30 0 .001
6 16 213 734 215 ?216 217 218 209 0 0 1 31 214 661 0 217 209 219 0 --.0015 -.002
 .003 619544098563145e-31 1 0 -1 619544098563145e-31 0 .0016 16 217 725 220 ?221
 222 213 214 0 0 1 30 219 904 0 207 214 223 0 +-.000696152422706657 -22101198615
7384e-33 .006 -3174764303743775e-31 1 0 16 207 902 224 ?225 226 203 219 0 0 1 30
 223 1955 0 226 219 227 0 -.0025 -.0035875 .0015 0 0 1 16 226 1953 228 ?75 229 2
07 223 0 0 1 30 227 1960 0 229 223 230 0 +.00249999999999997 -.0084125 .006 0 0
 1 16 229 1958 231 ?232 233 226 227 0 0 1 31 230 1971 0 233 227 234 0 +.00091249
9999999979 -.0035875 .006 0 0 -1 -1 0 0 .0015875 16 233 1969 235 ?69 236 229 230
 0 0 1 31 234 1976 0 236 230 237 0 +.00091249999999997 -.0084125 .006 0 0 -1 -1
 0 0 .0015875 16 236 1974 238 ?66 239 233 234 0 0 1 30 237 1987 0 239 234 240 0
 -.0039125 -.01 .006 0 0 1 16 239 1985 241 ?57 242 236 237 0 0 1 30 240 1998 0 2
42 237 243 0 -.00091249999999997 -.01 .0015 0 0 1 16 242 1996 244 ?245 246 239 2
40 0 0 1 30 243 2017 0 246 240 247 0 +.0055 -.0035875 0 0 0 -1 16 246 2015 248 ?
249 250 242 243 0 0 1 30 247 2022 0 250 243 251 0 +.0055 -.0084125 0 0 0 1 16 25
0 2020 252 ?253 254 246 247 0 0 1 31 251 2030 0 254 247 255 0 -.0039125 -.003587
5 .0015 0 2439454888092385e-31 1 0 -1 2439454888092385e-31 .0015875 16 254 2028
 256 ?51 257 250 251 0 0 1 31 255 2035 0 257 251 258 0 -.0039125 -.0084125 .0015
 0 2439454888092385e-31 1 0 -1 2439454888092385e-31 .0015875 16 257 2033 259 ?60
 260 254 255 0 0 1 30 258 2047 0 260 255 261 0 +.000912499999999979 -.002 .006 0
 0 1 16 260 2045 262 ?28 263 257 258 0 0 1 30 261 2054 0 263 258 264 0 -.0039125
 -.002 .006 0 0 -1 16 263 2052 265 ?29 266 260 261 0 0 1 31 264 2167 0 266 261 2
67 0 +.00091249999999997 -.0084125 .0015 0 2439454888092385e-31 1 0 -1 243945488
8092385e-31 .0015875 16 266 2059 268 ?78 269 263 264 0 0 1 31 267 2168 0 269 264
 19 0 +.0039125 -.0084125 .00070000000000001 0 1264902534566422e-31 1 0 -1 12649
02534566422e-31 .0015875 16 269 2063 270 ?43 24 266 267 0 0 1 31 19 2169 0 24 26
7 6 0 +.0039125 -.0035875 .00070000000000001 0 1264902534566422e-31 1 0 -1 12649
02534566422e-31 .0015875 16 24 2067 271 ?32 9 269 19 0 0 1 81 1 271 2298 173 24
 0 0 238 262 272 80 255 1 173 273 274 9000 1 1 1 1 1 1 1 1 0 FFFFTFTFFFFFFF3 81
 1 238 2297 173 236 0 0 235 271 275 81 1 262 2299 173 260 0 0 271 22 276 84 255
 32 272 dd4bdde5b0b1ef9e74801ae5167159ec81 1 22 2300 173 9 0 0 262 270 277 84 32
 276 aa07f2162062d179cda33207d595e4f981 1 270 2301 173 269 0 0 22 268 278 84 32
 277 11fadbe5c20d4d2cb73a459e3b4f9c8e81 1 268 2302 173 266 0 0 270 248 279 84 32
 278 e9715a2357dfa62d0496e366efc3d30181 1 248 2303 173 246 0 0 268 252 280 84 32
 279 3c1b0da9e54eacc5758b6c718401aa5a81 1 252 2304 173 250 0 0 248 259 281 84 32
 280 62b62e4d7ac1e24a337d24053c052ed081 1 259 2305 173 257 0 0 252 241 282 84 32
 281 441a35dd0b8463eba38769db490557b981 1 241 2306 173 239 0 0 259 256 283 84 32
 282 96ee141d472a771a3c19ec00aa4c9af581 1 256 2307 173 254 0 0 241 284 285 84 32
 283 c76604b6306a6cc35218083b19aa98b081 1 284 2308 173 286 0 287 256 288 289 84
 32 285 7bac11595f53af5277107ca6eaa3643514 255 286 787 290 ?291 292 27 4 293 -0
 0 291 292 21 81 1 287 2404 294 286 284 290 295 296 297 81 1 288 2309 173 291 0
 296 284 298 299 84 32 289 ea70ae669bcf1fef8c4049b60c59924e14 291 795 300 ?301 2
86 302 4 303 -0 0 301 286 21 81 1 296 2406 294 291 288 300 287 304 305 81 1 298
 2310 173 15 0 306 288 307 308 84 32 299 57a1f906dd545fb29b338a46ec2370b214 15 7
91 309 ?310 0 311 4 312 -0 0 310 0 21 81 1 306 2372 294 15 298 309 0 313 314 81
 1 307 2311 173 315 0 316 298 317 318 84 32 308 95eda9d94022a91d79228c5d018ad283
14 315 799 319 ?320 321 322 4 323 +0 0 320 321 21 81 1 316 2380 294 315 307 319
 324 325 326 81 1 317 2312 173 141 0 327 307 328 329 84 32 318 8ccae80109042b612
b9e197cd1d6d16c14 141 1630 330 ?331 301 34 4 332 -0 0 331 301 21 81 1 327 2410 2
94 141 317 330 304 333 334 81 1 328 2313 173 331 0 333 317 335 336 84 32 329 9c5
2e048c34a110eb5322b57179334c414 331 1849 337 ?338 141 339 4 340 -0 0 338 141 21
 81 1 333 2412 294 331 328 337 327 341 342 81 1 335 2314 173 338 0 341 328 343 3
44 84 32 336 a056a21dc28d1942f3152f4ff0f9976914 338 1861 345 ?346 331 347 4 348
 +0 0 346 331 21 81 1 341 2414 294 338 335 345 333 349 350 81 1 343 2315 173 351
 0 352 335 353 354 84 32 344 e07b56ab65af85a32ac600c9bf87201b14 351 2213 355 ?35
6 346 357 4 358 -0 0 356 346 21 81 1 352 2418 294 351 343 355 349 359 360 81 1 3
53 2316 173 346 0 349 343 361 362 84 32 354 84db7adffb52b283cf917a5668a7f76d14 3
46 2192 363 ?351 338 364 4 365 -0 0 351 338 21 81 1 349 2416 294 346 353 363 341
 352 366 81 1 361 2317 173 17 0 367 353 368 369 84 32 362 3dc9d412ec311dd435fee1
046c996ef814 17 2255 370 ?0 356 371 4 5 -0 0 0 356 21 81 1 367 2422 294 17 361 3
70 359 0 372 81 1 368 2318 173 356 0 359 361 0 373 84 32 369 2e37fd9b748fa3d1e91
6fe730bdde2e714 356 2234 374 ?17 351 375 4 18 -0 0 17 351 21 81 1 359 2420 294 3
56 368 374 352 367 376 84 32 373 386e55d3323479af15f360fce2afffd480 1 294 377 37
8 8015 0 0 0 0 3 5 0 0 0 FFFFTFFFFFFFFF2 81 1 374 2421 379 356 359 0 355 370 380
 83 255 1 376 0 80 1 379 0 381 8001 0 0 0 0 3 5 0 0 0 FFFFTFTFFFFFFF2 81 1 355 2
419 379 351 352 0 363 374 382 81 1 370 2423 379 17 367 0 374 0 383 83 3 380 .596
0784 .6666667 .6862745 83 3 383 .5960784 .6666667 .6862745 81 1 363 2417 379 346
 349 0 345 355 384 83 3 382 .5960784 .6666667 .6862745 81 1 345 2415 379 338 341
 0 337 363 385 83 3 384 .5960784 .6666667 .6862745 81 1 337 2413 379 331 333 0 3
30 345 386 83 3 385 .5960784 .6666667 .6862745 81 1 330 2411 379 141 327 0 387 3
37 388 83 3 386 .5960784 .6666667 .6862745 81 1 387 2409 379 301 304 0 300 330 3
89 83 3 388 .5960784 .6666667 .6862745 14 301 1169 387 ?141 291 390 4 391 +0 0 1
41 291 21 81 1 304 2408 294 301 392 387 296 327 393 81 1 300 2407 379 291 296 0
 290 387 394 83 3 389 .5960784 .6666667 .6862745 81 1 290 2405 379 286 287 0 395
 300 396 83 3 394 .5960784 .6666667 .6862745 81 1 395 2403 379 292 295 0 397 290
 398 83 3 396 .5960784 .6666667 .6862745 14 292 465 395 ?286 399 400 4 401 -0 0
 286 399 21 81 1 295 2402 294 292 402 395 403 287 404 81 1 397 2401 379 399 403
 0 405 395 406 83 3 398 .5960784 .6666667 .6862745 14 399 459 397 ?292 407 408 4
 409 -0 0 292 407 21 81 1 403 2400 294 399 410 397 411 295 412 81 1 405 2399 379
 407 411 0 413 397 414 83 3 406 .5960784 .6666667 .6862745 14 407 380 405 ?399 4
15 416 4 417 -0 0 399 415 21 81 1 411 2398 294 407 418 405 419 403 420 81 1 413
 2397 379 415 419 0 421 405 422 83 3 414 .5960784 .6666667 .6862745 14 415 374 4
13 ?407 423 424 4 425 -0 0 407 423 21 81 1 419 2396 294 415 426 413 427 411 428
 81 1 421 2395 379 423 427 0 429 413 430 83 3 422 .5960784 .6666667 .6862745 14
 423 284 421 ?415 431 432 4 433 -320 320 415 431 21 81 1 427 2394 294 423 434 42
1 435 419 436 81 1 429 2393 379 431 435 0 437 421 438 83 3 430 .5960784 .6666667
 .6862745 14 431 77 429 ?423 164 439 4 440 -0 0 423 164 21 81 1 435 2392 294 431
 441 429 442 427 443 81 1 437 2391 379 164 442 0 444 429 445 83 3 438 .5960784 .
6666667 .6862745 14 164 49 437 ?431 446 148 4 447 +0 0 431 446 21 81 1 442 2390
 294 164 448 437 449 435 450 81 1 444 2389 379 446 449 0 451 437 452 83 3 445 .5
960784 .6666667 .6862745 14 446 148 444 ?164 453 454 4 455 -0 0 164 453 21 81 1
 449 2388 294 446 456 444 457 442 458 81 1 451 2387 379 453 457 0 459 444 460 83
 3 452 .5960784 .6666667 .6862745 14 453 150 451 ?446 461 462 4 463 -0 0 446 461
 21 81 1 457 2386 294 453 464 451 465 449 466 81 1 459 2385 379 461 465 0 467 45
1 468 83 3 460 .5960784 .6666667 .6862745 14 461 152 459 ?453 320 469 4 470 -0 0
 453 320 21 81 1 465 2384 294 461 471 459 325 457 472 81 1 467 2383 379 320 325
 0 319 459 473 83 3 468 .5960784 .6666667 .6862745 14 320 655 467 ?461 315 474 4
 433 -423 423 461 315 21 81 1 325 2382 294 320 475 467 316 465 476 81 1 319 2381
 379 315 316 0 477 467 478 83 3 473 .5960784 .6666667 .6862745 81 1 477 2379 379
 321 324 0 479 319 480 83 3 478 .5960784 .6666667 .6862745 14 321 571 477 ?315 1
56 481 4 482 -0 0 315 156 21 81 1 324 2378 294 321 483 477 484 316 485 81 1 479
 2377 379 156 484 0 486 477 487 83 3 480 .5960784 .6666667 .6862745 14 156 158 4
79 ?321 310 155 4 488 -310 310 321 310 21 81 1 484 2376 294 156 489 479 313 324
 490 81 1 486 2375 379 310 313 0 309 479 491 83 3 487 .5960784 .6666667 .6862745
 14 310 971 486 ?156 15 492 4 488 -156 156 156 15 21 81 1 313 2374 294 310 493 4
86 306 484 494 81 1 309 2373 379 15 306 0 0 486 495 83 3 491 .5960784 .6666667 .
6862745 83 3 495 .5960784 .6666667 .6862745 81 1 493 1741 173 310 0 313 489 426
 496 83 1 494 0 81 1 489 1740 173 156 0 484 448 493 497 81 1 426 1742 173 415 0
 419 493 410 498 84 32 496 2a692ec06175ab23ccac1ea67be33a1881 1 410 1743 173 399
 0 403 426 499 500 84 32 498 5c48baccf4139c22da256cbe34cb153d81 1 499 2282 173 5
01 0 0 410 502 503 84 32 500 55cf44266e41b53e58c548b742c7ce9516 501 728 499 ?504
 160 505 506 0 0 1 81 1 502 2283 173 507 0 0 499 508 509 84 32 503 bdb28bd6e996f
a0cfbbae656eb2f93d516 507 1967 502 ?81 505 510 511 0 0 1 81 1 508 2284 173 505 0
 0 502 512 513 84 32 509 145b80c6fc97c44c8d6e16752b56b4bc16 505 1948 508 ?514 50
1 507 515 0 0 1 81 1 512 2285 173 516 0 0 508 517 518 84 32 513 316d36d9a9b8b304
c89bbc06ac98570816 516 1495 512 ?38 519 152 520 0 0 1 81 1 517 2286 173 152 0 0
 512 521 522 84 32 518 9a16bd77fb29a3fbf7bdb79945affdff16 152 1983 517 ?131 516
 139 523 0 0 1 81 1 521 2287 173 524 0 0 517 525 526 84 32 522 377ffb1cec8397c99
b2b368b33db151516 524 1942 521 ?527 528 0 529 0 0 1 81 1 525 2288 173 530 0 0 52
1 531 532 84 32 526 c7430c861ae627786b0d5e628dd51b5a16 530 2010 525 ?533 31 528
 534 0 0 1 81 1 531 2289 173 528 0 0 525 535 536 84 32 532 93401ce216dbc59cc5757
cb9cace399416 528 2004 531 ?537 530 524 538 0 0 1 81 1 535 2290 173 539 0 0 531
 540 541 84 32 536 570de227a5eac5089438acbda5fb7f0716 539 1980 535 ?54 162 31 54
2 0 0 1 81 1 540 2291 173 31 0 0 535 228 543 84 32 541 411b4622813052f3d4a942846
109a85716 31 2026 540 ?25 539 530 544 0 0 1 81 1 228 2292 173 226 0 0 540 231 54
5 84 32 543 f346b277ce47e4ec470c6b9e13be9f2681 1 231 2293 173 229 0 0 228 244 54
6 84 32 545 8ad12ab03192099dc6e52b7515af2fcd81 1 244 2294 173 242 0 0 231 265 54
7 84 32 546 12a837352e0b4dac2d5225e7d2e8427281 1 265 2295 173 263 0 0 244 235 54
8 84 32 547 24fbba781fbf8c8866f810ec147d303d81 1 235 2296 173 233 0 0 265 238 54
9 84 32 548 ddf4b6459d95fe039c3eab03c5f7b42084 32 549 a3857f85947a390f39c4362129
58fe5130 544 1879 0 31 529 542 0 +.0055 -.002 .0015 -1 0 0 30 529 1883 0 524 534
 544 0 +.0025 -.01 .0015 0 1 -2439454888092385e-31 30 542 1878 0 539 544 163 0 +
.0055 -.01 .0015 -1 0 0 30 163 1670 0 144 542 550 0 +-.0045 -.012 .0007000000000
00011 0 1 -1264902534566422e-31 30 550 1666 0 153 163 154 0 +.0235 0 .0007000000
00000009 -1 0 0 16 153 1506 551 ?552 139 144 550 0 0 1 30 154 1665 0 139 550 523
 0 +.0235 -.012 .000700000000000011 -1 0 0 30 523 1662 0 152 154 520 0 +.0024999
99999999965 -.01 .000700000000000011 -1 247817639425258e-30 -3134651602192765e-4
7 30 520 1661 0 516 523 553 0 +-.0045 -.002 .00070000000000001 1 -61954409856314
5e-31 783662900548192e-47 31 553 1660 0 519 520 554 0 -.014 -.006 .0007000000000
0001 0 1264902534566422e-31 1 0 -1 1264902534566422e-31 .0015 16 519 1482 555 ?5
56 557 516 553 0 0 1 31 554 1659 0 557 553 558 0 -.008 -.006 .00070000000000001
 0 1264902534566422e-31 1 0 -1 1264902534566422e-31 .0015 16 557 1485 559 ?560 1
47 519 554 0 0 1 30 558 1658 0 147 554 561 0 +.0187 -.012 .000700000000000011 -2
925674828713245e-46 1 -1264902534566422e-31 16 147 1488 562 ?146 563 557 558 0 0
 1 30 561 1192 0 563 558 564 0 +-.00453966080753322 -.002 .0082190506006122 .866
025403784439 -1384206249188692e-30 -.5 16 563 1062 565 ?566 567 147 561 0 0 1 30
 564 1190 0 567 561 568 0 +.00170096189432331 -.01 .00461602540378444 -.86602540
3784438 120365760799017e-29 .5 16 567 1043 569 ?570 571 563 564 0 0 1 30 568 118
5 0 571 564 572 0 +-.002428203230275525 -.012 .007 -3174764303743775e-31 1 -5990
87807746037e-46 16 571 1094 573 ?114 574 567 568 0 0 1 30 572 1184 0 574 568 575
 0 +.0035 -.01 .007 1 -10423980659779e-28 2168404344971005e-31 16 574 1028 576 ?
117 510 571 572 0 0 1 30 575 1182 0 510 572 511 0 +.0035 -.002 .007 -1 119875777
587458e-29 -2168404344971005e-31 16 510 1064 577 ?578 507 574 575 0 0 1 30 511 8
25 0 507 575 515 0 --.0045 -.002 .006 1 -619544098563145e-31 0 30 515 824 0 505
 511 506 0 -.0025 -.002 .006 -2005774019098185e-30 -1 0 30 506 823 0 501 515 579
 0 -.002499999999999965 -.01 .006 -1 247817639425258e-30 0 30 579 816 0 218 506
 580 0 +-.0045 -.002 .006 0 0 -1 16 218 741 581 ?582 213 160 579 0 0 1 30 580 81
5 0 160 579 583 0 +-.0045 -.01 .006 0 0 -1 16 160 730 584 ?145 218 501 580 0 0 1
 30 583 599 0 167 580 585 0 +.0035 -.012 .007 -1 0 -2168404344971005e-31 16 167
 551 586 ?159 587 222 583 0 0 1 30 585 595 0 222 583 588 0 +.0035 0 .007 -1 0 -2
168404344971005e-31 16 222 539 589 ?590 167 217 585 0 0 1 30 588 594 0 591 585 5
92 0 +.0035 -.012 .007 0 1 0 16 591 541 593 ?594 595 596 588 0 0 1 30 592 591 0
 596 588 597 0 +-.0045 -.012 .007 0 1 0 16 596 523 598 ?157 591 587 592 587 587
 1 31 597 479 0 595 592 599 0 +.014 -.006 .003 171189816708237e-30 0 -1 -1 0 -17
1189816708237e-30 .0028 16 595 443 600 ?601 602 591 597 0 0 1 31 599 478 0 602 5
97 603 0 -.014 -.006 .0017 171189816708237e-30 0 -1 -1 0 -171189816708237e-30 .0
015 16 602 441 604 ?605 606 595 599 0 0 1 31 603 394 0 606 599 184 0 +.008 -.006
 .003 171189816708237e-30 0 -1 -1 0 -171189816708237e-30 .0028 16 606 358 607 ?6
08 212 602 603 0 0 1 31 184 393 0 212 603 182 0 -.008 -.006 .0017 17118981670823
7e-30 0 -1 -1 0 -171189816708237e-30 .0015 16 212 356 609 ?610 208 606 184 0 0 1
 81 1 609 406 173 212 0 0 607 418 611 17 610 0 612 610 610 0 613 212 0 0 +15 612
 379 0 610 415 0 17 613 0 416 613 613 0 610 212 0 0 -15 416 384 0 613 407 614 15
 614 385 0 615 407 0 17 615 0 614 615 615 0 608 606 0 0 -17 608 0 616 608 608 0
 615 606 0 0 +15 616 329 0 608 453 617 15 617 149 0 85 453 0 17 85 0 617 618 206
 83 619 180 0 202 +17 618 0 617 620 85 82 202 191 0 621 -17 206 0 617 85 620 87
 622 203 0 619 +17 619 0 623 624 625 87 85 180 0 0 -17 202 0 454 97 621 83 618 1
91 0 625 +15 454 147 0 97 446 0 17 97 0 454 626 202 95 625 171 0 594 +17 621 0 4
54 202 626 82 104 188 0 0 -17 625 0 623 619 627 83 97 171 0 0 -15 623 80 0 624 4
31 0 17 627 0 623 625 628 95 590 222 0 0 -17 628 0 623 627 552 99 195 192 0 590
 -17 590 0 481 629 594 99 627 222 0 0 +15 481 958 0 630 321 0 17 629 0 481 630 5
90 102 101 587 0 0 -17 594 0 481 590 166 95 626 591 0 627 +17 166 0 481 594 168
 90 159 167 0 0 -17 626 0 454 621 97 90 594 591 0 166 -17 168 0 481 166 631 98 1
57 596 0 0 -17 631 0 481 168 632 109 117 574 0 157 -17 157 0 155 145 106 109 168
 596 0 0 +17 632 0 481 631 630 115 114 571 0 0 -17 117 0 302 633 111 115 631 574
 0 570 +15 302 1222 0 504 291 634 17 633 0 302 504 117 118 570 567 0 635 -17 111
 0 302 117 131 109 145 160 0 631 -17 570 0 390 114 120 115 633 567 0 632 +15 390
 1144 0 114 301 0 17 114 0 390 566 570 112 632 571 0 636 +17 120 0 390 570 566 1
18 225 207 0 633 -17 566 0 390 120 114 79 636 563 0 225 +17 225 0 322 637 635 79
 120 207 0 0 +15 322 802 0 638 315 0 17 637 0 322 69 225 61 81 507 0 0 -17 635 0
 322 225 66 118 504 501 0 0 -17 66 0 322 635 638 64 72 236 0 504 +17 504 0 302 2
45 633 64 635 501 0 639 +17 245 0 302 640 504 52 639 242 0 641 +17 639 0 364 72
 641 64 245 242 0 0 -15 364 2193 0 641 346 0 17 72 0 364 642 639 70 66 236 0 232
 -17 641 0 364 639 642 52 78 266 0 0 -17 642 0 364 641 72 76 232 229 0 0 -17 78
 0 339 527 54 76 641 266 0 643 +15 339 1852 0 537 331 0 17 527 0 339 23 78 73 64
3 524 0 644 +17 54 0 339 78 60 52 640 539 0 245 +17 643 0 311 232 75 76 527 524
 0 642 -15 311 1780 0 643 15 0 17 232 0 311 514 643 70 642 229 0 638 +17 75 0 31
1 643 514 73 645 226 0 527 +17 514 0 311 75 232 67 638 505 0 645 +17 645 0 371 6
3 644 67 75 226 0 0 -15 371 2256 0 644 17 0 17 63 0 371 646 645 61 69 233 0 28 -
17 644 0 371 645 646 73 23 9 0 0 -17 646 0 371 644 63 10 28 260 0 0 -17 23 0 339
 30 527 10 644 9 0 646 +17 30 0 339 51 23 33 25 31 0 647 -17 51 0 339 537 30 49
 647 254 0 648 +17 647 0 375 649 650 33 51 254 0 0 -15 375 2235 0 647 356 0 17 6
49 0 375 37 647 26 29 263 0 0 -17 650 0 375 647 37 49 249 246 0 0 -17 37 0 375 6
50 649 44 32 24 0 249 -17 249 0 347 533 648 44 650 246 0 36 +15 347 1864 0 533 3
38 0 17 533 0 347 253 249 39 36 530 0 651 +17 648 0 347 249 253 49 537 528 0 650
 -17 36 0 34 32 43 44 533 530 0 0 -17 43 0 34 36 143 39 652 269 0 533 +17 143 0
 34 43 137 55 131 152 0 652 -17 652 0 357 653 651 55 43 269 0 0 -15 357 2214 0 6
52 351 0 17 653 0 357 48 652 58 57 239 0 0 -17 651 0 357 652 48 39 253 250 0 0 -
17 48 0 357 651 653 46 60 257 0 253 -17 253 0 347 648 533 46 651 250 0 537 +17 5
37 0 339 60 51 46 648 528 0 0 +17 60 0 339 54 537 58 48 257 0 640 +17 640 0 302
 57 245 58 54 539 0 653 -17 57 0 302 131 640 55 653 239 0 143 +17 131 0 302 111
 57 129 143 152 0 137 +17 29 0 27 25 38 33 649 263 0 30 +15 27 776 0 38 286 654
 17 38 0 27 29 582 26 35 516 0 649 +17 582 0 27 38 578 127 108 218 0 0 +17 35 0
 34 134 32 127 38 516 0 655 -17 134 0 34 123 35 132 655 162 0 552 +17 655 0 492
 108 195 127 134 162 0 582 -15 492 1385 0 655 310 0 17 108 0 492 101 655 102 582
 218 0 578 -17 195 0 492 655 101 132 628 192 0 0 +16 162 1542 656 ?134 144 539 1
63 144 144 1 81 1 656 1735 173 162 0 0 151 161 657 81 1 151 1733 173 139 0 0 551
 656 658 81 1 161 1736 173 144 0 0 656 441 659 84 32 657 58945f9a685d886b49695c6
f1335299581 1 441 1737 173 431 0 435 161 471 660 84 32 659 8b99db309e1a30ec23490
5e47693030d81 1 471 1738 173 461 0 465 441 448 661 84 32 660 3b447195119d1a675c7
2da63070e8ce081 1 448 1739 173 164 0 442 471 489 662 84 32 661 6f3decbfd12c9b50b
43926bd0292389084 32 662 473834a1e48e2480b2a62f92540c259181 1 551 1732 173 153 0
 0 562 151 663 84 32 658 821a95f48bed39610d39a4d31b9bf08481 1 562 1730 173 147 0
 0 581 551 664 84 32 663 e4d85ec1b6e576a2760626cc2a79545181 1 581 1728 173 218 0
 0 584 562 665 84 32 664 ce3a6102c577f13a70a221f0c5c4cefb81 1 584 1726 173 160 0
 0 194 581 666 84 32 665 69f6ac5aade027aa1ea7b713bbfe552381 1 194 1724 173 192 0
 0 175 584 667 84 32 666 e8cb968f8288dfa5c801b4384102a51881 1 175 1723 173 196 0
 0 169 194 668 84 32 667 45c422655464b9c6fe836d993267854f84 32 668 cc547b916511f
2c92ce5f8303f66bca917 101 0 492 195 108 99 629 587 0 628 +16 587 947 669 ?101 59
6 167 592 596 596 1 81 1 669 1258 173 587 0 0 573 483 670 81 1 573 1257 173 571
 0 0 576 669 671 81 1 483 1261 173 321 0 324 669 392 672 84 32 670 48e73fed56035
caf7a8cd26fce5673f381 1 392 1265 173 301 0 304 483 555 673 84 32 672 623bc01af70
9337f2e22ad85ce3e253081 1 555 1719 173 519 0 0 392 559 674 84 32 673 01b4997c3d4
08b0f6b2534eed77d871381 1 559 1720 173 557 0 0 555 174 675 84 32 674 a21579f3dfa
a58c72c471f14270a8fce81 1 174 1721 173 170 0 0 559 169 676 84 32 675 6c934d80860
3fbdc54173ab4f54e3ad984 32 676 e6c4891ed8e4f416ac4e41871cb2f05f81 1 576 1256 173
 574 0 0 569 573 677 84 32 671 3c02f6ca4e64a1c7e258091a2d26170d81 1 569 1255 173
 567 0 0 577 576 678 84 32 677 a552ec5166e0e46f0512fb419020739981 1 577 1254 173
 510 0 0 224 569 679 84 32 678 3a1c5ce5fc9bfbb82541dc89e4f8db3481 1 224 1253 173
 207 0 0 565 577 680 84 32 679 89a857f85ead251db5c04edd2da6f6cc81 1 565 1252 173
 563 0 0 598 224 681 84 32 680 d16c770f482d44123caa5e9f0439fac181 1 598 1247 173
 596 0 0 434 565 682 84 32 681 19e6e5f36f34e953143de470f66b85ad81 1 434 873 173
 423 0 427 475 598 683 84 32 682 c2c8a9d37d8dc139712b369a331c17e081 1 475 872 17
3 320 0 325 215 434 684 84 32 683 70bcfaf991c5951ac6b1052c4586377081 1 215 856 1
73 213 0 0 220 475 685 84 32 684 1513ebb7bb7ac1f8841bc136205128ef81 1 220 855 17
3 217 0 0 456 215 686 84 32 685 e858a4fc2bcc36c74488334de514c6c681 1 456 644 173
 446 0 449 593 220 687 84 32 686 a88d99f89958c563c50cfe68e90d894781 1 593 640 17
3 591 0 0 586 456 688 84 32 687 b003d38c8fc88f00737af191afc4c54881 1 586 639 173
 167 0 0 589 593 689 84 32 688 2789b7bad07377b6c06e875bbe076c6881 1 589 638 173
 222 0 0 190 586 690 84 32 689 7ee0cc0467adcf535a430418c90b376781 1 190 635 173
 188 0 0 179 589 691 84 32 690 2feb6ec8c9ab822ae114f1a68238e29b81 1 179 633 173
 171 0 0 402 190 692 84 32 691 300d631fd97a21c5d1796d0a202ef8da81 1 402 495 173
 292 0 295 464 179 693 84 32 692 c9bb9d1f4af07ff2f2f3e3d54e18119481 1 464 492 17
3 453 0 457 604 402 694 84 32 693 0e416d733bd8fbb156cc22888e9089b481 1 604 491 1
73 602 0 0 600 464 695 84 32 694 cbe99341820f33d44eb37dea6285824181 1 600 490 17
3 595 0 0 418 604 696 84 32 695 43dc8d2ba923c72f96e8ab56cb55c92381 1 418 410 173
 407 0 411 609 600 697 84 32 696 3fca65b3c58daa107de32c86643dd0a784 32 697 4eb16
cf8d62447d05435434b6eb08ab917 578 0 27 582 636 102 630 510 0 629 +17 636 0 27 57
8 81 112 566 563 0 630 -17 630 0 481 632 629 112 578 510 0 0 -17 81 0 27 636 28
 79 637 507 0 566 +17 28 0 27 81 25 61 646 260 0 637 +17 123 0 34 126 134 121 55
2 153 0 146 -17 552 0 623 628 624 132 123 153 0 195 +17 624 0 623 552 619 121 89
 196 0 0 -17 89 0 469 622 146 87 624 196 0 206 +15 469 151 0 150 461 0 17 622 0
 469 150 89 86 206 203 0 620 -17 146 0 469 89 150 121 126 147 0 624 +17 150 0 46
9 146 622 124 94 170 0 0 -17 94 0 148 92 138 86 150 170 0 622 +17 92 0 148 104 9
4 82 620 177 0 618 +17 104 0 148 159 92 90 621 188 0 626 +17 620 0 617 206 618 8
6 92 177 0 0 -15 654 777 0 698 286 0 17 698 0 654 698 698 0 221 217 0 0 -17 221
 0 474 221 221 0 698 217 0 0 +15 474 659 0 221 320 699 15 699 283 0 700 320 0 17
 700 0 699 700 700 0 211 208 0 0 -17 211 0 439 211 211 0 700 208 0 0 +15 439 247
 0 211 431 623 17 69 0 322 638 637 67 63 233 0 514 +17 638 0 322 66 69 70 514 50
5 0 0 -15 634 782 0 701 291 0 17 701 0 634 701 701 0 216 213 0 0 -17 216 0 432 2
16 216 0 701 213 0 0 +15 432 652 0 216 423 702 15 702 282 0 703 423 0 17 703 0 7
02 703 703 0 704 183 0 0 +17 704 0 165 704 704 0 703 183 0 0 -16 183 264 705 ?70
3 192 208 182 0 0 1 81 1 705 317 173 183 0 0 210 607 706 81 1 210 316 173 208 0
 0 187 705 707 81 1 607 405 173 606 0 0 705 609 708 84 32 706 105d3a11ad380a432b
820405c510afe984 32 708 7e9534f470329fbffa1c993ce1370a3d81 1 187 229 173 177 0 0
 201 210 709 84 32 707 7d9fe6df5e9df33d278aa21368b27ad881 1 201 224 173 191 0 0
 198 187 710 84 32 709 15ab0fb39e3fe8051107c0fd5435d12e81 1 198 223 173 180 0 0
 205 201 711 84 32 710 fbfed97d255cc547d13752d72c29ce3781 1 205 217 173 203 0 0
 0 198 712 84 32 711 9b45f1d456f91fffe35c13224f0de2c184 32 712 c9c69f78749f45072
f549757ceb880dd15 165 255 0 704 164 0 84 32 611 f9920ab961e647b96e3c241971fa1ac7
17 605 0 713 605 605 0 714 602 0 0 +15 713 464 0 605 399 0 17 714 0 400 714 714
 0 605 602 0 0 -15 400 469 0 714 292 715 15 715 470 0 716 292 0 17 716 0 715 716
 716 0 601 595 0 0 -17 601 0 462 601 601 0 716 595 0 0 +15 462 414 0 601 453 616
 17 560 0 424 560 560 0 717 557 0 0 +15 424 1337 0 560 415 612 17 717 0 718 717
 717 0 560 557 0 0 -15 718 1594 0 717 141 0 17 556 0 408 556 556 0 719 519 0 0 +
15 408 1331 0 556 399 713 17 719 0 142 719 719 0 556 519 0 0 -15 142 1593 0 719
 141 718 30 534 1885 0 530 538 529 0 +.0055 -.002 .000700000000000009 0 -1 81315
1629364129e-31 30 538 1887 0 528 0 534 0 -.0055 -.01 .0015 0 1 -2439454888092385
e-31 84 32 497 18c6b11de38c873022362acb80e9d34050 255 488 169 0 310 470 365 0 +-
.0045 -.012 .003 1 0 0 0 0 -1 13 21 3 0 0 0 0 0 0 8 15 50 470 166 0 461 463 488
 0 +.0187 -.012 0 -1 0 231296463463574e-29 231296463463574e-29 0 1 51 365 2204 0
 346 488 358 0 +.00091249999999997 -.0084125 .006 0 0 -1 .0015875 -1 0 0 51 358
 2225 0 351 365 18 0 +.0039125 -.0084125 0 0 0 1 .0015875 1 0 0 51 18 2246 0 356
 358 5 0 +.0039125 -.0035875 0 0 0 -1 .0015875 -1 0 0 50 463 165 0 453 455 470 0
 +.0187 -.012 .003 1711898167082375e-31 0 -1 -1 0 -1711898167082375e-31 50 455 1
64 0 446 440 463 0 +.0035 -.012 .003 -1 0 -216840434497101e-29 -216840434497101e
-29 0 1 50 440 117 0 431 447 455 0 +0 0 0 0 -1 0 0 0 -1 50 447 50 0 164 433 440
 0 +0 -.012 0 0 -1 0 0 0 -1 51 433 299 0 423 417 447 0 +-.0015 .0024 .003 0 -1 0
 .0016 0 0 -1 52 255 417 388 0 407 425 433 0 +.008 -.006 .003 -171189816708237e-
30 0 1 .0028 .707106781186548 .707106781186548 1 0 171189816708237e-30 51 425 38
9 0 415 401 417 0 +.008 -.006 -1040834085586084e-32 171189816708237e-30 0 -1 .00
15 -1 0 -171189816708237e-30 52 401 473 0 292 409 425 0 +.014 -.006 .003 -171189
816708237e-30 0 1 .0028 .707106781186548 .707106781186548 1 0 171189816708237e-3
0 51 409 474 0 399 482 401 0 +.014 -.006 -1040834085586084e-32 171189816708237e-
30 0 -1 .0015 -1 0 -171189816708237e-30 50 482 588 0 321 293 409 0 +.0035 -.012
 .007 2168404344971005e-31 0 -1 -1 0 -2168404344971005e-31 50 293 810 0 286 312
 482 0 +-.0045 -.002 .006 619544098563145e-31 1 0 -1 619544098563145e-31 0 50 31
2 811 0 15 303 293 0 +.0025 -.002 .006 1 -2005774019098185e-30 0 200577401909818
5e-30 1 0 50 303 812 0 291 323 312 0 +.002499999999999965 -.01 .006 -24781763942
5258e-30 -1 0 1 -247817639425258e-30 0 50 323 814 0 315 391 303 0 +0 0 .006 0 0
 -1 -1 0 0 50 391 1179 0 301 332 323 0 +.00242403810567665 769574964881692e-33 .
00419855715851498 -.5 -158738215187189e-30 -.866025403784439 -.866025403784439 0
 .5 50 332 1653 0 141 340 391 0 +.0235 -.012 .000700000000000011 0 1264902534566
422e-31 1 0 -1 1264902534566422e-31 50 340 1872 0 331 348 332 0 +.0055 -.01 .001
5 0 2439454888092385e-31 1 0 -1 2439454888092385e-31 50 348 1876 0 338 0 340 0 +
.0055 0 0 -1 0 0 0 0 1 83 1 490 0 83 1 485 0 83 1 476 0 83 1 472 0 83 1 466 0 83
 1 458 0 83 1 450 0 83 1 443 0 83 1 436 0 83 1 428 0 83 1 420 0 83 1 412 0 83 1
 404 0 83 1 393 0 79 255 15 381 SDL/TYSA_COLOUR79 21 378 SDL/TYSA_TRANSLUCENCY83
 1 372 0 83 1 366 0 83 1 360 0 83 1 350 0 83 1 342 0 83 1 334 0 83 1 326 0 83 1
 314 0 83 1 305 0 83 1 297 0 84 32 275 043ac54d3934464a5ff4f94f476a51a279 15 274
 UGS/ObjectState84 32 176 bdd30ea5d346a84cfdeed6f9431d49f319 16 182 0 1 0 8 4 S0
 74 4 CI16 index_map_offset0 0 1 dCCZ20 14 6 0 0 368 720 12 367 370 2 0 0 0 0 0
 0 0 0 0 0 0 0 0 0 81 2 720 2281 721 1 0 12 0 0 722 723 81 1 12 2370 724 1 720 2
 0 0 725 80 1 724 726 727 9000 0 0 0 0 3 5 0 0 0 FFTFFFFFFFFFFF1 82 255 1 725 -1
 79 19 727 UG2/PMARK_ATTRIBUTE80 2 721 728 729 8004 0 0 0 0 3 5 0 0 0 FFTFFFFFFF
FFFF2 3 83 1 722 7830.64 84 8 723 Kg/Cu M 79 16 729 SDL/TYSA_DENSITY80 1 11 730
 731 9000 0 0 0 0 3 5 0 0 0 FFTFFFFFFFFFFF1 82 1 13 129 79 24 731 UG2/BODY_COLOR
_ATTRIBUTE1 0 
