**ABCDEFGHIJKLMNOPQRSTUVWXYZabcdefghijklmnopqrstuvwxyz**************************
**PARASOLID !"#$%&'()*+,-./:;<=>?@[\]^_`{|}~0123456789**************************
**PART1;
MC=x64/Windows NT;
MC_MODEL=authenticamd family 15 model 1 stepping 1, amd ryzen 7 1700x eight-core processor         ;
MC_ID=desktop-5gkgur5;
OS=windows nt (x64);
OS_RELEASE=6.3 windows 10 education (build 17763) ;
FRU=mdc_ugii_v7.0_djl_can_vrh;
APPL=unigraphics;
SITE=unknown;
USER=Jessie;
FORMAT=text;
GUISE=transmit;
KEY=ANTENNA_HINGE;
FILE=C:\Users\Jessie\Documents\ENG 4000\Hinge\ANTENNA_HINGE.x_t;
DATE=10-feb-2019;
**PART2;
SCH=SCH_2901224_28101;
USFLD_SIZE=0;
**PART3;
**END_OF_HEADER*****************************************************************
T51 : TRANSMIT FILE created by modeller version 290122423 SCH_2901224_28101_1300
6204 0 12 33 CCCCCCI4 mesh1006 0 I8 polyline1008 0 CCCCCCCDI5 owner1040 0 CCCCCC
I13 boundary_mesh1006 0 I17 boundary_polyline1008 0 CCCA16 index_map_offset0 0 1
 dA9 index_map82 0 A17 node_id_index_map82 0 A20 schema_embedding_map82 0 A5 chi
ld12 0 A14 lowest_node_id0 0 1 dZ1 1350 2 3 0 0 0 0 0 0 1e3 1e-8 0 0 0 1 0 1 1 4
 5 6 7 0 0 8 9 10 0 0 0 0 0 0 81 255 1 2 1350 11 1 12 0 0 0 13 70 11 CI9 list_ty
pe0 0 1 uI10 notransmit0 0 1 lCCCDCCDI12 finger_index0 0 1 dI12 finger_block1012
 0 CZ3 0 4 T1 0 0 6 20 1 14 14 13 255 4 3 0 1 0 15 0 0 16 0 51 255 5 1120 0 17 1
8 0 0 +.0054125 .0035875 .004 0 0 -1 .0015875 -1 0 0 31 255 6 1077 0 9 19 0 0 -.
0054125 .0035875 -.003 1334402673828312e-31 0 -1 -1 0 -1334402673828312e-31 .001
5875 29 255 7 1061 0 10 20 0 .0054125 .002 -.003 19 8 CCCCCCCA5 owner12 0 Z8 1 0
 1 16 0 21 V0 16 255 9 1072 22 ?23 0 24 6 0 0 1 18 255 10 1059 0 25 0 26 7 ?1 17
 255 25 0 27 28 29 10 23 9 0 30 -18 26 1046 0 31 10 32 20 ?1 17 31 0 33 34 35 26
 36 37 0 38 +18 32 1043 0 23 26 39 40 ?1 29 20 1048 0 26 40 7 .007 .0044125 -.00
3 29 40 1045 0 32 41 20 .007 .0035875 -.003 29 41 1032 0 39 42 40 .0054125 .002
 -.0022 18 39 1030 0 43 32 44 41 ?1 29 42 1029 0 44 45 41 .007 .0035875 -.0022 1
8 44 1027 0 46 39 47 42 ?1 29 45 1026 0 47 48 42 .007 .0044125 -.0022 18 47 1024
 0 49 44 50 45 ?1 29 48 1017 0 50 51 45 .0054125 .006 -.0022 18 50 1015 0 52 47
 53 48 ?1 29 51 1014 0 53 54 48 .0054125 .006 -.003 18 53 1012 0 55 50 56 51 ?1
 29 54 825 0 56 57 51 -828196266656394e-33 0 -.0023 18 56 823 0 58 53 59 54 ?1 2
9 57 822 0 59 60 54 367394039744206e-33 0 .0023 18 59 820 0 61 56 62 57 ?1 29 60
 802 0 62 63 57 -734788079488412e-33 7e-4 -.003 18 62 799 0 64 59 65 60 ?1 29 63
 798 0 65 66 60 -734788079488412e-33 .0071 -.003 18 65 795 0 67 62 68 63 ?1 29 6
6 774 0 68 69 63 .013 7e-4 -.003 18 68 772 0 70 65 71 66 ?1 29 69 771 0 71 72 66
 .013 .0071 -.003 18 71 769 0 73 68 74 69 ?1 29 72 768 0 74 75 69 .013 0 .0023 1
8 74 766 0 76 71 77 72 ?1 29 75 765 0 77 78 72 .013 0 -.0023 18 77 763 0 79 74 8
0 75 ?1 29 78 754 0 80 81 75 367394039744206e-33 .0078 .0023 18 80 752 0 82 77 8
3 78 ?1 29 81 751 0 83 84 78 -828196266656394e-33 .0078 -.0023 18 83 749 0 85 80
 86 81 ?1 29 84 748 0 86 87 81 .013 .0078 .0023 18 86 746 0 88 83 89 84 ?1 29 87
 745 0 89 90 84 .013 .0078 -.0023 18 89 743 0 91 86 92 87 ?1 29 90 732 0 92 93 8
7 367394039744206e-33 .0071 .003 18 92 729 0 94 89 95 90 ?1 29 93 728 0 95 96 90
 .013 7e-4 .003 18 95 726 0 97 92 98 93 ?1 29 96 725 0 98 99 93 .013 .0071 .003
 18 98 723 0 100 95 101 96 ?1 29 99 722 0 101 102 96 367394039744206e-33 7e-4 .0
03 18 101 719 0 103 98 104 99 ?1 29 102 236 0 104 105 99 367394039744206e-33 .00
2 .003 18 104 233 0 106 101 107 102 ?1 29 105 454 0 107 108 102 -734788079488412
e-33 .006 -.003 18 107 367 0 109 104 110 105 ?1 29 108 455 0 110 111 105 0 .006
 .003 18 110 368 0 112 107 113 108 ?1 29 111 457 0 113 114 108 .003 .006 .003 18
 113 363 0 115 110 116 111 ?1 29 114 458 0 116 117 111 -734788079488411e-33 .002
 -.003 18 116 369 0 118 113 119 114 ?1 29 117 461 0 119 120 114 .003 .002 .003 1
8 119 376 0 121 116 122 117 ?1 29 120 666 0 122 123 117 .003 .006 -.0022 18 122
 616 0 124 119 125 120 ?1 29 123 667 0 125 126 120 .003 .002 -.0022 18 125 614 0
 127 122 128 123 ?1 29 126 1205 0 128 0 123 .00354613376729375 .0039 17763568394
0025e-32 18 128 1180 0 129 125 0 126 ?1 17 129 0 130 129 129 128 0 0 0 0 ?15 255
 130 1186 0 129 131 0 14 255 131 1181 132 ?133 17 134 4 135 -0 0 133 17 21 81 1
 132 1347 136 131 137 0 138 139 140 14 133 1192 139 ?0 131 141 4 142 -0 0 0 131
 21 14 17 1108 138 ?131 143 27 4 5 -0 0 131 143 21 15 134 1185 0 144 131 130 52
 255 135 1202 0 131 0 142 0 +.0045 .0039 177635683940025e-32 1 0 0 .0015875 .857
167300702112 .515038074910054 0 0 -1 13 21 91 0 0 0 0 0 0 8 15 14 15 411 145 ?14
6 0 147 4 148 -0 0 146 0 21 81 1 145 1303 136 15 149 0 0 150 151 14 146 80 150 ?
152 15 153 4 154 +0 0 152 15 21 15 147 556 0 155 15 0 50 255 148 431 0 15 156 15
7 0 +.003 .006 .004 1 0 0 0 0 -1 50 156 432 0 158 159 148 0 +.003 .002 .004 5337
61069531325e-30 -1 0 1 533761069531325e-30 0 50 157 430 0 160 148 161 0 +-.0035
 .006 .004 -2668805347656625e-31 1 0 -1 -2668805347656625e-31 0 14 160 407 162 ?
158 163 164 4 157 -0 0 158 163 21 51 161 185 0 163 157 165 0 +0 .009 0 0 -1 0 .0
016 0 0 -1 14 163 170 166 ?160 167 168 4 161 -169 169 160 167 21 50 165 25 0 170
 161 171 0 +0 .0078 0 0 -1 0 0 0 -1 14 170 24 172 ?167 173 174 4 165 -0 0 167 17
3 21 50 171 62 0 167 165 175 0 +0 0 0 0 -1 0 0 0 -1 14 167 42 176 ?163 170 177 4
 171 +0 0 163 170 21 50 175 83 0 173 171 178 0 +.013 .0078 .003 0 0 1 1 0 0 14 1
73 76 179 ?170 180 181 4 175 +0 0 170 180 21 50 178 84 0 180 175 154 0 +.013 .00
78 -.003 1 0 0 0 0 -1 14 180 78 182 ?173 183 184 4 178 +0 0 173 183 21 50 154 85
 0 146 178 185 0 +0 .0078 -.003 1334402673828312e-31 0 -1 -1 0 -1334402673828312
e-31 51 185 86 0 183 154 186 0 +0 .0078 0 0 -1 0 .003 0 0 -1 14 183 82 187 ?180
 169 188 4 185 +152 152 180 169 21 50 186 885 0 189 185 190 0 +.013 .0071 .003 0
 .707106781186547 .707106781186547 1 0 0 14 189 861 191 ?192 193 194 4 186 +0 0
 192 193 21 52 190 884 0 193 186 195 0 +0 .0071 0 0 -1 0 .003 .707106781186548 .
707106781186548 0 0 -1 14 193 859 196 ?189 197 198 4 190 +0 0 189 197 21 50 195
 883 0 197 190 199 0 +0 .0071 -.003 943565179497461e-31 .707106781186547 -.70710
6781186547 -1 0 -1334402673828312e-31 14 197 857 200 ?193 201 202 4 195 +0 0 193
 201 21 50 199 928 0 203 195 204 0 -0 0 .0023 0 .707106781186547 -.7071067811865
47 -1 0 0 14 203 904 205 ?143 206 207 4 199 +0 0 143 206 21 52 204 927 0 206 199
 208 0 +0 0 0 0 1 0 .0023 .707106781186548 .707106781186548 0 0 1 14 206 902 209
 ?203 192 210 4 204 +0 0 203 192 21 50 208 926 0 192 204 18 0 -306912614980512e-
33 0 -.0023 -943565179497461e-31 .707106781186547 .707106781186547 1 0 133440267
3828312e-31 14 192 900 211 ?206 189 212 4 208 +0 0 206 189 21 51 18 1099 0 143 2
08 5 0 +.0054125 .0044125 .004 0 0 1 .0015875 1 0 0 14 143 1087 213 ?17 203 214
 4 18 -0 0 17 203 21 81 1 213 1343 136 143 215 0 205 138 216 15 214 1088 0 217 1
43 0 17 217 0 214 36 218 26 55 24 0 0 -17 36 0 214 52 217 47 31 37 0 0 -17 218 0
 214 217 52 53 219 220 0 0 -17 55 0 153 221 38 53 217 24 0 222 +16 24 1068 223 ?
55 9 224 19 0 0 1 81 1 223 1139 225 24 0 0 226 227 228 16 224 1062 227 ?30 24 37
 229 0 0 1 31 19 1076 0 24 229 6 0 -.0054125 .0044125 -.003 1334402673828312e-31
 0 -1 -1 0 -1334402673828312e-31 .0015875 30 255 229 1064 0 224 230 19 0 +.00541
25 .002 .004 0 0 -1 30 230 1056 0 37 231 229 0 -.007 .0044125 0 0 0 1 16 37 1054
 232 ?31 224 233 230 0 0 1 30 231 1051 0 233 234 230 0 -.007 .0035875 0 0 0 -1 1
6 233 1049 235 ?46 37 236 231 0 0 1 31 234 1040 0 236 237 231 0 -.0054125 .00441
25 -.0022 0 0 1 1 0 0 .0015875 16 236 1038 238 ?49 233 239 234 0 0 1 31 237 1035
 0 239 240 234 0 -.0054125 .0035875 -.0022 0 0 1 1 0 0 .0015875 16 239 1033 241
 ?43 236 220 237 0 0 1 30 240 1020 0 220 242 237 0 +.0054125 .006 .004 0 0 1 16
 220 1018 243 ?219 239 244 240 0 0 1 30 242 929 0 245 246 240 0 +-73478807948841
2e-33 7e-4 -.003 -94356517949746e-30 -.707106781186547 .707106781186547 16 245 9
12 247 ?248 249 250 242 0 0 1 30 246 930 0 250 251 242 0 +367394039744206e-33 7e
-4 .003 0 -.707106781186547 -.707106781186547 16 250 917 252 ?61 245 253 246 0 0
 1 30 251 886 0 254 255 246 0 +-828196266656394e-33 .0078 -.0023 94356517949746e
-30 -.707106781186547 -.707106781186547 16 254 869 256 ?257 258 249 251 0 0 1 30
 255 887 0 249 259 251 0 +367394039744206e-33 .0078 .0023 0 -.707106781186547 .7
07106781186547 16 249 874 260 ?94 254 245 255 0 0 1 31 259 836 0 244 261 255 0 -
0 7e-4 0 0 -1 0 0 0 -1 .003 16 244 834 262 ?103 220 263 259 0 0 1 30 261 831 0 2
63 264 259 0 +0 0 .0023 -1 0 0 16 263 829 265 ?266 244 267 261 0 0 1 30 264 828
 0 267 268 261 0 +306912614980512e-33 0 -.0023 1 0 1334402673828312e-31 16 267 8
27 269 ?79 263 270 264 0 0 1 31 268 826 0 270 271 264 0 +0 0 0 0 -1 0 0 0 -1 .00
23 16 270 824 272 ?58 267 273 268 0 0 1 31 271 815 0 273 274 268 0 +0 .0071 0 0
 -1 0 0 0 -1 .003 16 273 813 275 ?67 270 276 271 0 0 1 30 274 810 0 276 277 271
 0 +.013 .0071 -.003 1 0 1334402673828312e-31 16 276 808 278 ?73 273 279 274 0 0
 1 30 277 805 0 279 280 274 0 +0 7e-4 -.003 -1 0 -1334402673828312e-31 16 279 80
3 281 ?64 276 282 277 0 0 1 30 280 792 0 282 283 277 0 +.013 .01045 -35e-5 0 -.7
07106781186548 .707106781186548 16 282 790 284 ?100 279 285 280 0 0 1 30 283 787
 0 285 286 280 0 +.013 .00745 -.00265 0 .707106781186548 .707106781186548 16 285
 785 287 ?91 282 288 283 0 0 1 30 286 782 0 288 289 283 0 -.013 .00125 .00355 0
 .707106781186548 .707106781186548 16 288 780 290 ?76 285 291 286 0 0 1 30 289 7
77 0 291 292 286 0 -.013 .00425 -.00655 0 -.707106781186548 .707106781186548 16
 291 775 293 ?70 288 294 289 0 0 1 30 292 760 0 294 295 289 0 +.013 .0078 .0023
 1 0 0 16 294 758 296 ?88 291 297 292 0 0 1 30 295 757 0 297 298 292 0 +-8281962
66656394e-33 .0078 -.0023 -1 0 -1334402673828312e-31 16 297 756 299 ?85 294 300
 295 0 0 1 31 298 755 0 300 301 295 0 -0 .0078 0 0 -1 0 0 0 -1 .0023 16 300 753
 302 ?82 297 303 298 0 0 1 30 301 740 0 303 304 298 0 +367394039744206e-33 .0071
 .003 -1 0 0 16 303 738 305 ?306 300 307 301 0 0 1 30 304 735 0 307 308 301 0 +.
013 7e-4 .003 1 0 0 16 307 733 309 ?97 303 310 304 0 0 1 30 308 243 0 310 311 30
4 0 +.003 .0078 .003 0 1 0 16 310 241 312 ?313 307 314 308 0 0 1 31 311 225 0 31
5 316 308 0 -0 .006 0 -2668805347656625e-31 1 0 -1 -2668805347656625e-31 0 .0016
 16 315 328 317 ?318 319 320 311 0 0 1 31 316 218 0 321 322 311 0 -0 .002 0 5337
61069531325e-30 -1 0 1 533761069531325e-30 0 .0016 16 321 344 323 ?324 325 326 3
16 0 0 1 31 322 141 0 327 328 316 0 +0 .0078 0 0 -1 0 0 0 -1 .0016 16 327 156 32
9 ?330 331 332 322 0 0 1 30 328 90 0 333 334 322 0 +367394039744206e-33 .0078 .0
03 0 -1 0 16 333 730 335 ?112 336 337 328 337 337 1 30 334 89 0 314 338 328 0 +-
734788079488412e-33 .0078 -.003 0 -1 0 16 314 796 339 ?109 310 340 334 340 340 1
 30 338 88 0 341 342 334 0 +.013 .0078 -.003 0 -1 0 16 341 770 343 ?344 340 336
 338 0 0 1 30 342 87 0 336 345 338 0 +.013 .0078 .003 0 -1 0 16 336 724 346 ?347
 341 333 342 0 0 1 30 345 64 0 331 348 342 0 +.013 0 -.003 0 0 1 16 331 764 349
 ?350 351 327 345 0 0 1 30 348 19 0 351 352 345 0 +.013 .0078 -.003 0 0 1 16 351
 744 353 ?354 337 331 348 0 0 1 31 352 188 0 332 355 348 0 +0 0 0 0 -1 0 1 0 -61
2323399573677e-31 .0016 16 332 161 356 ?357 327 358 352 0 0 1 30 355 436 0 358 3
59 352 0 +480384962578193e-33 .006 -.003 1 2668805347656625e-31 1334402673828312
e-31 16 358 314 360 ?222 332 361 355 0 0 1 31 359 437 0 361 362 355 0 -0 .006 0
 -2668805347656625e-31 1 0 -1 -2668805347656625e-31 0 .003 16 361 311 363 ?364 3
58 319 359 0 0 1 30 362 438 0 319 365 359 0 +.013 .006 .003 -1 -2668805347656625
e-31 0 16 319 323 366 ?367 361 315 362 0 0 1 30 365 439 0 320 368 362 0 +3095814
20328169e-32 .002 -.003 -1 -533761069531325e-30 -1334402673828312e-31 16 320 106
0 369 ?118 315 370 365 0 0 1 31 368 440 0 370 371 365 0 -0 .002 0 53376106953132
5e-30 -1 0 1 533761069531325e-30 0 .003 16 370 334 372 ?106 320 325 368 0 0 1 30
 371 441 0 325 373 368 0 +.013 .002 .003 1 533761069531325e-30 0 16 325 337 374
 ?375 370 321 371 0 0 1 30 373 444 0 326 376 371 0 -.003 .006 .004 0 0 -1 16 326
 321 377 ?115 321 378 373 0 0 1 30 376 445 0 378 379 373 0 -.003 .002 .004 0 0 -
1 16 378 304 380 ?121 326 381 376 0 0 1 30 379 654 0 381 382 376 0 +.007 .002 -.
0022 -1 0 0 16 381 1031 226 ?127 378 383 379 0 0 1 30 382 655 0 383 384 379 0 +.
007 .006 -.0022 -1 0 0 16 383 1016 385 ?124 381 386 382 0 0 1 30 384 659 0 258 3
87 382 0 +.003 .002 -.0022 0 1 0 16 258 601 388 ?389 390 254 384 0 0 1 30 387 66
1 0 386 391 384 0 -.007 .006 -.003 0 -1 0 16 386 1044 392 ?38 383 390 387 0 0 1
 30 391 663 0 390 393 387 0 -.007 .002 -.0022 0 1 0 16 390 1025 394 ?395 386 258
 391 0 0 1 31 393 1203 0 396 397 391 0 +.013 .0039 177635683940025e-32 -1 0 0 0
 0 1 .0015875 16 396 1176 398 ?399 253 0 393 0 0 1 31 397 1204 0 253 0 393 0 -.0
045 .0039 177635683940025e-32 -1 0 0 0 0 1 .0015875 16 253 1174 400 ?144 250 396
 397 0 0 1 81 1 400 1213 225 253 0 0 401 398 402 17 144 0 134 144 144 0 403 253
 0 0 +17 403 0 141 403 403 0 144 253 0 0 -15 141 1196 0 403 133 404 15 404 1197
 0 405 133 0 17 405 0 404 405 405 0 399 396 0 0 -17 399 0 184 399 399 0 405 396
 0 0 +15 184 1162 0 399 180 406 15 406 77 0 354 180 0 17 354 0 406 100 91 86 407
 351 0 408 +17 100 0 406 347 354 98 408 282 0 409 +17 91 0 406 354 410 89 411 28
5 0 407 +17 407 0 412 85 88 89 354 351 0 413 -17 408 0 194 414 415 86 100 282 0
 0 -15 194 862 0 408 189 0 17 414 0 194 94 408 80 88 294 0 416 -17 415 0 194 408
 94 98 306 303 0 0 -17 94 0 194 415 414 92 416 249 0 417 +17 306 0 181 112 409 9
2 415 303 0 418 +15 181 245 0 409 173 0 17 112 0 181 419 306 110 418 333 0 367 +
17 409 0 181 306 97 98 347 336 0 415 -17 418 0 420 67 421 92 112 333 0 0 -15 420
 274 0 418 152 0 17 67 0 420 109 418 65 417 273 0 422 +17 421 0 420 418 109 110
 364 361 0 0 -17 109 0 420 421 67 107 422 314 0 364 +17 364 0 164 222 367 107 42
1 361 0 221 +15 164 392 0 222 160 423 17 222 0 164 219 364 53 221 358 0 218 +17
 367 0 164 364 115 110 419 319 0 421 +17 221 0 153 422 55 107 222 358 0 0 -15 15
3 535 0 422 146 0 17 422 0 153 73 221 65 109 314 0 424 -17 73 0 153 344 422 71 4
24 276 0 410 +17 424 0 202 425 411 65 73 276 0 257 -15 202 858 0 411 197 0 17 42
5 0 202 413 424 83 257 254 0 426 -17 411 0 202 424 413 71 91 285 0 0 -17 257 0 1
98 417 426 65 425 254 0 0 +15 198 860 0 257 193 0 17 417 0 198 416 257 92 67 273
 0 306 -17 426 0 198 257 416 83 82 300 0 0 -17 416 0 198 426 417 80 94 249 0 0 -
17 82 0 412 88 85 80 426 300 0 414 +15 412 23 0 82 170 0 17 88 0 412 407 82 86 4
14 294 0 354 +17 85 0 412 82 407 83 413 297 0 425 +17 413 0 202 411 425 89 85 29
7 0 0 -17 344 0 153 64 73 68 410 341 0 427 +17 410 0 406 91 70 71 344 341 0 411
 -17 70 0 406 410 428 68 429 291 0 344 +17 428 0 406 70 76 77 350 331 0 429 -17
 429 0 212 430 427 77 70 291 0 0 -15 212 901 0 429 192 0 17 430 0 212 431 429 56
 79 267 0 248 -17 427 0 212 429 431 68 64 279 0 0 -17 431 0 212 427 430 62 248 2
45 0 432 -17 64 0 153 433 344 62 427 279 0 434 +17 433 0 153 435 64 116 434 340
 0 0 -17 434 0 188 103 436 62 433 340 0 431 +15 188 269 0 434 183 0 17 103 0 188
 437 434 101 432 244 0 438 +17 436 0 188 434 437 116 106 370 0 433 -16 340 254 4
39 ?434 314 341 334 314 314 1 81 1 439 969 225 340 0 0 440 441 442 80 255 1 225
 443 444 9000 1 1 1 1 1 1 1 1 0 FFFFTFTFFFFFFF3 81 1 440 710 225 15 0 149 388 43
9 445 81 1 441 970 225 337 0 0 439 353 446 84 255 32 442 8ff42bbb373b9b81c685e78
a56dabb1816 337 234 441 ?438 333 351 328 333 333 1 81 1 353 971 225 351 0 0 441
 349 447 84 32 446 d52c95c6e3e31ae797ca5bd2e1cfad1381 1 349 972 225 331 0 0 353
 346 448 84 32 447 e7c45205ac7299f76425a744a68891e581 1 346 973 225 336 0 0 349
 343 449 84 32 448 843382b80a902d2e2f70bedf458c9a3481 1 343 974 225 341 0 0 346
 339 450 84 32 449 699f6d129570a8cf7071119263be173c81 1 339 975 225 314 0 0 343
 335 451 84 32 450 7c6ac2fbeab7315d49edc4800a4bbb4281 1 335 976 225 333 0 0 339
 269 452 84 32 451 2b41182b19e923c8f2438cf00bba7cbb81 1 269 977 225 267 0 0 335
 256 453 84 32 452 67921f157b4dbc06c24c2c438606c95981 1 256 978 225 254 0 0 269
 302 454 84 32 453 6a50b6524a182de4e913b1d8eb5c578b81 1 302 979 225 300 0 0 256
 293 455 84 32 454 30e3c7171ef7be873671ca74b270654e81 1 293 980 225 291 0 0 302
 290 456 84 32 455 48b0ad7e575e296f0bd96ef7338faf9081 1 290 981 225 288 0 0 293
 287 457 84 32 456 74ed10f1681965ad6419fdc50549f82c81 1 287 982 225 285 0 0 290
 284 458 84 32 457 4ec83fd0d987de59ce47080ff74b518a81 1 284 983 225 282 0 0 287
 281 459 84 32 458 87511ca19ca33875b279cff4f097044081 1 281 984 225 279 0 0 284
 278 460 84 32 459 bf06c17898f3d45d6c8279e7610fb32981 1 278 985 225 276 0 0 281
 275 461 84 32 460 4cbcba5e3376fefe9901b62442780f0c81 1 275 986 225 273 0 0 278
 272 462 84 32 461 91b5863ffa22dbebf75d6b176c1c345681 1 272 987 225 270 0 0 275
 260 463 84 32 462 18acadc23799132f3b63af0dc381b17781 1 260 988 225 249 0 0 272
 296 464 84 32 463 d78e9150394be6cabe39e91b16aa174881 1 296 989 225 294 0 0 260
 247 465 84 32 464 33e40b45aa3411cd17e05f0546a85ea381 1 247 990 225 245 0 0 296
 309 466 84 32 465 6abaa060f287b07ca25d204d6680e1d781 1 309 991 225 307 0 0 247
 305 467 84 32 466 a56965da51269d234f40481de15a173781 1 305 992 225 303 0 0 309
 265 468 84 32 467 17aa5af300df453f5cd9ec6a2ddf502781 1 265 993 225 263 0 0 305
 262 469 84 32 468 4e031e90d3ae2b9cc773043321751a7d81 1 262 994 225 244 0 0 265
 299 470 84 32 469 69282e7641aae90825e31128ebc3dd0981 1 299 995 225 297 0 0 262
 252 471 84 32 470 5fc37e72f6234a0f5715cda9b2295a6581 1 252 996 225 250 0 0 299
 472 473 84 32 471 d73659eb1d43035225d201db0fe2127c81 1 472 997 225 167 0 474 25
2 475 476 84 32 473 25c2e2aedd2ca4082372e12927f6236f81 1 474 1318 477 167 472 17
6 478 479 480 81 1 475 999 225 173 0 481 472 482 483 84 32 476 dc4bc478fcdf2db9d
26afab18a4a6a4381 1 481 1314 477 173 475 179 484 478 485 81 1 482 1001 225 170 0
 478 475 486 487 84 32 483 1f07ebc31b416e2a15d6b705a9e496dd81 1 478 1316 477 170
 482 172 481 474 488 81 1 486 1002 225 183 0 489 482 490 491 84 32 487 c658b455a
4a224c45482f51721c4f7ea81 1 489 1310 477 183 486 187 492 484 493 81 1 490 1003 2
25 152 0 494 486 495 496 84 32 491 920eba161ba430b8158d41bc2dc4e64b14 152 270 49
7 ?169 146 420 4 185 +183 183 169 146 21 81 1 494 1306 477 152 490 497 498 492 4
99 81 1 495 1004 225 193 0 500 490 501 502 84 32 496 e3a4a8f8c2f440ae1034dbe74a9
17bf781 1 500 1332 477 193 495 196 503 504 505 81 1 501 1005 225 192 0 506 495 5
07 508 84 32 502 19f88ccec5bb739db334c699b032e5ac81 1 506 1336 477 192 501 211 5
04 509 510 81 1 507 1006 225 206 0 509 501 511 512 84 32 508 395fe5fd818e3be7e78
9b2d756516e5981 1 509 1338 477 206 507 209 506 513 514 81 1 511 1007 225 203 0 5
13 507 515 516 84 32 512 cf3a2a8dfb8a51358005ed03bf7357b681 1 513 1340 477 203 5
11 205 509 215 517 81 1 515 1008 225 189 0 504 511 518 519 84 32 516 d84749b994d
6a8189af40ac08ac8c39a81 1 504 1334 477 189 515 191 500 506 520 81 1 518 1009 225
 197 0 503 515 369 521 84 32 519 2dce9f3601656c2bed7adc25efeb3bd981 1 503 1330 4
77 197 518 200 522 500 523 81 1 369 1133 225 320 0 0 518 360 524 84 32 521 a4401
bf47e05da2c1047e4cd6cf78e6481 1 360 1134 225 358 0 0 369 392 525 84 32 524 451c4
1e1636611cb40b66f151b0ed18881 1 392 1135 225 386 0 0 360 394 526 84 32 525 c6566
a8fa9ffd4ac45b8a05ac2feb6da81 1 394 1136 225 390 0 0 392 385 527 84 32 526 64a34
65a33d3ad45b48d43fd1a588c9781 1 385 1137 225 383 0 0 394 226 528 84 32 527 540f2
5f327475c94366cb4696ad5d73881 1 226 1138 225 381 0 0 385 223 529 84 32 528 32bbf
865cfd445cb8c76c7c0fa87866e84 32 529 b6911a93ee1cdb7a76ecaf6f031243c680 1 477 53
0 531 8015 0 0 0 0 3 5 0 0 0 FFFFTFFFFFFFFF2 81 1 200 1331 136 197 503 0 532 196
 533 81 1 522 1328 477 201 534 532 535 503 536 83 255 1 523 0 14 201 637 532 ?19
7 537 33 4 538 +0 0 197 537 21 81 1 534 1150 225 201 0 522 539 540 541 81 1 532
 1329 136 201 522 0 542 200 543 81 1 535 1326 477 537 540 542 544 522 545 83 1 5
36 0 14 537 625 542 ?201 158 546 4 159 -0 0 201 158 21 81 1 540 1151 225 537 0 5
35 534 547 548 81 1 542 1327 136 537 535 0 549 532 550 81 1 544 1324 477 158 539
 549 551 535 552 83 1 545 0 14 158 415 549 ?537 160 553 4 156 -0 0 537 160 21 81
 1 539 1149 225 158 0 544 554 534 555 81 1 549 1325 136 158 544 0 162 542 556 81
 1 551 1322 477 160 554 162 479 544 557 83 1 552 0 81 1 554 1148 225 160 0 551 5
58 539 559 81 1 162 1323 136 160 551 0 166 549 560 81 1 479 1320 477 163 561 166
 474 551 562 83 1 557 0 81 1 561 518 225 163 0 479 366 563 564 81 1 166 1321 136
 163 479 0 176 162 565 83 1 562 0 80 1 136 0 566 8001 0 0 0 0 3 5 0 0 0 FFFFTFTF
FFFFFF2 81 1 176 1319 136 167 474 0 172 166 567 83 3 565 .5960784 .6666667 .6862
745 81 1 172 1317 136 170 478 0 179 176 568 83 3 567 .5960784 .6666667 .6862745
 81 1 179 1315 136 173 481 0 182 172 569 83 3 568 .5960784 .6666667 .6862745 81
 1 182 1313 136 180 484 0 187 179 570 83 3 569 .5960784 .6666667 .6862745 81 1 4
84 1312 477 180 571 182 489 481 572 81 1 187 1311 136 183 489 0 573 182 574 83 3
 570 .5960784 .6666667 .6862745 81 1 573 1309 136 169 492 0 497 187 575 83 3 574
 .5960784 .6666667 .6862745 14 169 219 573 ?183 152 576 4 161 -163 163 183 152 2
1 81 1 492 1308 477 169 563 573 494 489 577 81 1 497 1307 136 152 494 0 150 573
 578 83 3 575 .5960784 .6666667 .6862745 81 1 150 1305 136 146 498 0 145 497 579
 83 3 578 .5960784 .6666667 .6862745 81 1 498 1304 477 146 558 150 149 494 580 8
3 3 579 .5960784 .6666667 .6862745 81 1 558 1147 225 146 0 498 232 554 581 81 1
 149 1302 477 15 440 145 0 498 582 83 1 580 0 83 1 582 0 81 1 232 1146 225 37 0
 0 235 558 583 84 32 581 32d4ec9cb4bcd2ec6745d621e138006881 1 235 1145 225 233 0
 0 243 232 584 84 32 583 9ae371136cdd1d43283d6dda197470da81 1 243 1144 225 220 0
 0 238 235 585 84 32 584 a13834ac42417f944352d6654d49f4c181 1 238 1143 225 236 0
 0 241 243 586 84 32 585 6837772c26a07fc867b0b6f14a3d98ea81 1 241 1142 225 239 0
 0 22 238 587 84 32 586 a1dee314425bfa1750b69832cbaefc6a81 1 22 1141 225 9 0 0 2
27 241 588 84 32 587 0aed2b404382daf33f8f9ca3d1247b7b81 1 227 1140 225 224 0 0 2
23 22 589 84 32 588 01011695491ba16327ba3c533bfb936c84 32 589 7f0c7f9f0acfcc1f22
f3f7f4435c8e4e81 1 563 521 225 169 0 492 561 377 590 83 1 577 0 81 1 377 697 225
 326 0 0 563 380 591 84 32 590 e7f4e4c7d2c980c0e4e094c7a289397681 1 380 698 225
 378 0 0 377 388 592 84 32 591 d0f789daf32442caa850fd96e21ad4e681 1 388 704 225
 258 0 0 380 440 593 84 32 592 1b3a9c9e4ed7f66a32b5b00615ad366a84 32 593 6427d17
43e332480175b9a6a8002c82015 576 223 0 318 169 594 17 318 0 576 318 318 0 595 315
 0 0 +15 594 169 0 596 169 0 17 596 0 594 596 596 0 330 327 0 0 -17 330 0 174 33
0 330 0 596 327 0 0 +15 174 139 0 330 170 412 17 595 0 423 595 595 0 318 315 0 0
 -15 423 393 0 595 160 0 81 1 571 1215 225 180 0 484 398 597 598 83 1 572 0 81 1
 398 1214 225 396 0 0 400 571 599 81 1 597 1216 225 131 0 137 571 600 601 84 32
 598 b324f7474b63467b20fb550d7afae0cf81 1 137 1346 477 131 597 132 602 603 604 8
1 1 600 1217 225 133 0 603 597 0 605 84 32 601 dc8eadc2be7604628dbd0dc27c869f568
1 1 603 1348 477 133 600 139 137 0 606 84 32 605 5f920223b58c393ce33c1683fd17f46
281 1 139 1349 136 133 603 0 132 0 607 83 1 606 0 83 3 607 .5960784 .6666667 .68
62745 81 1 602 1344 477 17 547 138 215 137 608 83 1 604 0 81 1 547 1152 225 17 0
 602 540 401 609 81 1 138 1345 136 17 602 0 213 132 610 81 1 215 1342 477 143 40
1 213 513 602 611 83 1 608 0 81 1 401 1153 225 143 0 215 547 400 612 83 1 611 0
 84 32 612 3ab20985d10cb401387c16c0dea0462883 3 610 .5960784 .6666667 .6862745 8
4 32 609 fb9df0ffb075a69582d21166d2e4dc8884 32 599 a224591bdf5391a2c8f1b5cbe04ec
0f979 255 15 566 SDL/TYSA_COLOUR81 1 366 514 225 319 0 0 312 561 613 84 32 564 1
1e60c0862d3e81a37696a3d9064e94e81 1 312 511 225 310 0 0 374 366 614 84 32 613 96
a35ba825fae56ef824655d8aa1c3dc81 1 374 508 225 325 0 0 372 312 615 84 32 614 f21
56d20c79bb68b999d95b47685a4e181 1 372 507 225 370 0 0 363 374 616 84 32 615 dfaf
06b5feb7857204812617561481dc81 1 363 505 225 361 0 0 317 372 617 84 32 616 0b903
95951d9f0d0ef4cc097daa1667981 1 317 500 225 315 0 0 323 363 618 84 32 617 a0488a
920284f2a4ebabdc1f8755755681 1 323 499 225 321 0 0 329 317 619 84 32 618 bc409fb
af1eb5493c38e384e5a66cbd981 1 329 202 225 327 0 0 356 323 620 84 32 619 12023c98
dc2739fed0d9e8d259f7ce0981 1 356 201 225 332 0 0 0 329 621 84 32 620 09e3dd2dac8
d6f1ae130642c4f12ee5684 32 621 a3ec34c4b3ec4359da27f5ed12ef5f3083 3 560 .5960784
 .6666667 .6862745 84 32 559 6ea05189316f5f9c526878ac39013ce583 3 556 .5960784 .
6666667 .6862745 84 32 555 b026f330480a77d51ca0d8ef9d871c5515 553 401 0 622 158
 623 17 622 0 553 30 624 39 127 381 0 28 -15 623 402 0 625 158 0 17 625 0 623 62
5 625 0 324 321 0 0 -17 324 0 168 324 324 0 625 321 0 0 +15 168 216 0 324 163 62
6 15 626 168 0 357 163 0 17 357 0 626 357 357 0 627 332 0 0 +17 627 0 628 627 62
7 0 357 332 0 0 -15 628 147 0 627 167 0 17 30 0 553 118 622 10 28 224 0 435 +17
 624 0 553 622 375 125 121 378 0 0 -17 127 0 546 389 43 125 622 381 0 155 +17 28
 0 27 629 25 39 30 224 0 0 -15 27 1109 0 629 17 0 17 629 0 27 29 28 44 43 239 0
 0 -17 29 0 27 25 629 32 46 233 0 0 -17 43 0 546 127 395 39 629 239 0 622 +15 54
6 628 0 630 537 0 17 395 0 546 43 49 44 35 390 0 629 +17 49 0 546 395 630 47 52
 236 0 35 +17 35 0 33 31 46 47 395 390 0 36 -15 33 640 0 35 201 0 17 46 0 33 35
 34 44 29 233 0 395 +17 34 0 33 46 31 32 38 386 0 29 -17 38 0 153 55 23 26 34 38
6 0 217 +17 23 0 153 38 435 32 25 9 0 34 +17 435 0 153 23 433 10 118 320 0 0 -17
 118 0 553 106 30 116 435 320 0 436 +17 106 0 553 375 118 104 436 370 0 631 +17
 375 0 553 624 106 119 631 325 0 632 +17 631 0 181 438 632 104 375 325 0 437 -17
 438 0 181 97 631 101 437 337 0 633 +17 632 0 181 631 419 119 313 310 0 0 -17 43
7 0 188 436 103 104 438 337 0 0 -17 419 0 181 632 112 113 367 319 0 0 -17 313 0
 147 634 121 113 632 310 0 419 +17 634 0 147 155 313 122 115 326 0 0 -17 121 0 1
47 313 155 119 624 378 0 375 +17 155 0 147 121 634 125 389 258 0 624 -17 389 0 5
46 630 127 122 155 258 0 634 +17 630 0 546 49 389 50 124 383 0 0 -17 124 0 164 1
15 219 122 630 383 0 389 +17 115 0 164 367 124 113 634 326 0 313 +17 219 0 164 1
24 222 50 218 220 0 630 +17 97 0 181 409 438 95 633 307 0 347 +17 633 0 207 61 6
35 101 97 307 0 636 -15 207 905 0 635 203 0 17 61 0 207 637 633 59 636 250 0 638
 +17 635 0 207 633 637 95 76 288 0 0 -17 636 0 210 432 638 101 61 250 0 0 -15 21
0 903 0 248 206 0 17 432 0 210 248 636 62 103 244 0 0 -17 638 0 210 636 248 59 5
8 270 0 266 -17 248 0 210 638 432 56 431 245 0 0 +17 58 0 177 79 266 56 638 270
 0 430 +17 266 0 177 58 350 59 637 263 0 0 +15 177 821 0 350 167 628 17 350 0 17
7 266 79 74 428 331 0 637 +17 637 0 207 635 61 74 266 263 0 0 -17 79 0 177 350 5
8 77 430 267 0 428 +17 76 0 406 428 347 74 635 288 0 350 +17 347 0 406 76 100 95
 409 336 0 635 +17 52 0 214 218 36 50 49 236 0 219 -83 3 550 .5960784 .6666667 .
6862745 84 32 548 578582e58b257fa7b6535eca14bd8aa050 159 648 0 537 538 156 0 +.0
07 .002 -.0022 0 0 1 1 0 0 50 538 652 0 201 142 159 0 +.007 0 0 -1 0 0 0 0 1 51
 142 1200 0 133 135 538 0 +.013 .0039 177635683940025e-32 -1 0 0 .0015875 0 0 1
 83 3 543 .5960784 .6666667 .6862745 84 32 541 53610d84e29364029c2cafa3670449158
1 1 196 1333 136 193 500 0 200 191 639 83 3 533 .5960784 .6666667 .6862745 81 1
 191 1335 136 189 504 0 196 211 640 83 3 639 .5960784 .6666667 .6862745 81 1 211
 1337 136 192 506 0 191 209 641 83 3 640 .5960784 .6666667 .6862745 81 1 209 133
9 136 206 509 0 211 205 642 83 3 641 .5960784 .6666667 .6862745 81 1 205 1341 13
6 203 513 0 209 213 643 83 3 642 .5960784 .6666667 .6862745 83 3 643 .5960784 .6
666667 .6862745 79 21 531 SDL/TYSA_TRANSLUCENCY83 1 520 0 83 1 517 0 83 1 514 0
 83 1 510 0 83 1 505 0 83 1 499 0 83 1 493 0 83 1 488 0 83 1 485 0 83 1 480 0 84
 32 445 264df89905d4c393f480c19bbf4aba4579 15 444 UGS/ObjectState84 32 402 28f65
ccb94c71d1fce1b2c346cb637ff84 32 228 d64828772891b9d5befc76932a91496283 3 216 .5
960784 .6666667 .6862745 83 3 151 .5960784 .6666667 .6862745 83 3 140 .5960784 .
6666667 .6862745 19 16 92 0 1 0 8 4 S0 74 4 CI16 index_map_offset0 0 1 dCCZ20 14
 6 0 0 600 644 12 603 139 2 0 0 0 0 0 0 0 0 0 0 0 0 0 0 81 2 644 1212 645 1 0 12
 0 0 646 647 81 1 12 1300 648 1 644 2 0 0 649 80 1 648 650 651 9000 0 0 0 0 3 5
 0 0 0 FFTFFFFFFFFFFF1 82 255 1 649 -1 79 19 651 UG2/PMARK_ATTRIBUTE80 2 645 652
 653 8004 0 0 0 0 3 5 0 0 0 FFTFFFFFFFFFFF2 3 83 1 646 12e2 84 8 647 Kg/Cu M 79
 16 653 SDL/TYSA_DENSITY80 1 11 654 655 9000 0 0 0 0 3 5 0 0 0 FFTFFFFFFFFFFF1 8
2 1 13 129 79 24 655 UG2/BODY_COLOR_ATTRIBUTE1 0 
