%FSLAX44Y44*%
%MOMM*%
G71*
G01*
G75*
G04 Layer_Color=32896*
%ADD10R,2.5000X6.0000*%
%ADD11R,6.9850X4.0000*%
%ADD12R,6.0000X2.5000*%
%ADD13R,4.0000X6.9850*%
%ADD14C,1.0000*%
%ADD15C,0.2540*%
%ADD16C,4.0000*%
%ADD17C,1.2700*%
%ADD18R,1.2192X0.8128*%
%ADD19R,1.0200X3.8000*%
%ADD20R,0.3556X0.7620*%
%ADD21R,0.7620X0.3556*%
%ADD22R,2.7940X2.7940*%
%ADD23R,2.7032X6.2032*%
%ADD24R,7.1882X4.2032*%
%ADD25R,6.2032X2.7032*%
%ADD26R,4.2032X7.1882*%
%ADD27C,4.2032*%
%ADD28C,1.4732*%
%ADD29R,1.4224X1.0160*%
%ADD30R,1.1200X3.9000*%
%ADD31R,0.5588X0.9652*%
%ADD32R,0.9652X0.5588*%
%ADD33R,2.9972X2.9972*%
%ADD34R,0.0254X0.0254*%
%ADD35C,0.1524*%
%ADD36C,0.0762*%
G36*
X468655Y501035D02*
X464845D01*
Y503575D01*
X468655D01*
Y501035D01*
D02*
G37*
D15*
X532897Y290850D02*
X550923D01*
Y302650D01*
X568645D01*
Y375230D01*
X532897D02*
X568645D01*
X532897D02*
Y381914D01*
X437658D02*
X532897D01*
X437658Y375230D02*
Y381914D01*
X401910Y375230D02*
X437658D01*
X401910Y302650D02*
Y375230D01*
Y302650D02*
X419632D01*
Y290850D02*
Y302650D01*
Y290850D02*
X437658D01*
Y288086D02*
Y290850D01*
Y288086D02*
X532897D01*
Y290850D01*
X493622Y581167D02*
Y568471D01*
X491083Y565932D01*
X486004D01*
X483465Y568471D01*
Y581167D01*
X478387Y565932D02*
X473309D01*
X475848D01*
Y581167D01*
X478387Y578628D01*
X440000Y455000D02*
Y470235D01*
X432383D01*
X429843Y467696D01*
Y462617D01*
X432383Y460078D01*
X440000D01*
X434922D02*
X429843Y455000D01*
X417147D02*
Y470235D01*
X424765Y462617D01*
X414608D01*
X423000Y387000D02*
Y402235D01*
X415382D01*
X412843Y399696D01*
Y394618D01*
X415382Y392078D01*
X423000D01*
X417922D02*
X412843Y387000D01*
X407765Y399696D02*
X405226Y402235D01*
X400147D01*
X397608Y399696D01*
Y397157D01*
X400147Y394618D01*
X402687D01*
X400147D01*
X397608Y392078D01*
Y389539D01*
X400147Y387000D01*
X405226D01*
X407765Y389539D01*
X400000Y455000D02*
Y470235D01*
X392383D01*
X389843Y467696D01*
Y462617D01*
X392383Y460078D01*
X400000D01*
X394922D02*
X389843Y455000D01*
X374608D02*
X384765D01*
X374608Y465157D01*
Y467696D01*
X377147Y470235D01*
X382226D01*
X384765Y467696D01*
X384000Y388000D02*
Y403235D01*
X376382D01*
X373843Y400696D01*
Y395617D01*
X376382Y393078D01*
X384000D01*
X378922D02*
X373843Y388000D01*
X368765D02*
X363687D01*
X366226D01*
Y403235D01*
X368765Y400696D01*
X344471Y449442D02*
X347010Y451981D01*
X352089D01*
X354628Y449442D01*
Y439285D01*
X352089Y436746D01*
X347010D01*
X344471Y439285D01*
X339393Y436746D02*
X334315D01*
X336854D01*
Y451981D01*
X339393Y449442D01*
X577304Y369843D02*
X574765Y372383D01*
Y377461D01*
X577304Y380000D01*
X587461D01*
X590000Y377461D01*
Y372383D01*
X587461Y369843D01*
X590000Y362226D02*
Y357147D01*
X587461Y354608D01*
X582383D01*
X579843Y357147D01*
Y362226D01*
X582383Y364765D01*
X587461D01*
X590000Y362226D01*
Y349530D02*
X579843D01*
Y341912D01*
X582383Y339373D01*
X590000D01*
Y334295D02*
X579843D01*
Y326677D01*
X582383Y324138D01*
X590000D01*
Y311442D02*
Y316521D01*
X587461Y319060D01*
X582383D01*
X579843Y316521D01*
Y311442D01*
X582383Y308903D01*
X584922D01*
Y319060D01*
X579843Y293668D02*
Y301285D01*
X582383Y303825D01*
X587461D01*
X590000Y301285D01*
Y293668D01*
X577304Y286050D02*
X579843D01*
Y288590D01*
Y283511D01*
Y286050D01*
X587461D01*
X590000Y283511D01*
Y273354D02*
Y268276D01*
X587461Y265737D01*
X582383D01*
X579843Y268276D01*
Y273354D01*
X582383Y275894D01*
X587461D01*
X590000Y273354D01*
X579843Y260659D02*
X590000D01*
X584922D01*
X582383Y258119D01*
X579843Y255580D01*
Y253041D01*
D35*
X343904Y411952D02*
Y418000D01*
X356000Y411952D02*
Y418000D01*
X363904Y421952D02*
Y428000D01*
X376000Y421952D02*
Y428000D01*
X383904Y431952D02*
Y438000D01*
X396000Y431952D02*
Y438000D01*
X403904Y421952D02*
Y428000D01*
X416000Y421952D02*
Y428000D01*
X423904Y431952D02*
Y438000D01*
X436000Y431952D02*
Y438000D01*
X491717Y453283D02*
Y460145D01*
X484855Y496717D02*
X491717D01*
X448283Y453283D02*
Y460145D01*
Y496717D02*
X455145D01*
X491717Y489855D02*
Y496717D01*
X484855Y453283D02*
X491717D01*
X448283D02*
X455145D01*
X448283Y489855D02*
Y496717D01*
D36*
X493580Y445155D02*
X485116Y453619D01*
Y445155D02*
X493580Y453619D01*
X489348Y445155D02*
Y453619D01*
X485116Y449387D02*
X493580D01*
X470000Y475000D02*
X482696D01*
Y481348D01*
X480580Y483464D01*
X476348D01*
X474232Y481348D01*
Y475000D01*
X470000Y487696D02*
X482696D01*
X470000Y496160D01*
X482696D01*
Y475000D02*
X470000D01*
Y481348D01*
X472116Y483464D01*
X480580D01*
X482696Y481348D01*
Y475000D01*
Y496160D02*
Y487696D01*
X470000D01*
Y496160D01*
X476348Y487696D02*
Y491928D01*
X482696Y500392D02*
X474232D01*
X470000Y504624D01*
X474232Y508856D01*
X482696D01*
Y475000D02*
X474232D01*
X470000Y479232D01*
X474232Y483464D01*
X482696D01*
X470000Y487696D02*
X478464D01*
X482696Y491928D01*
X478464Y496160D01*
X470000D01*
X476348D01*
Y487696D01*
X482696Y500392D02*
X470000D01*
Y508856D01*
X482696Y475000D02*
Y483464D01*
Y479232D01*
X470000D01*
X482696Y494044D02*
Y489812D01*
X480580Y487696D01*
X472116D01*
X470000Y489812D01*
Y494044D01*
X472116Y496160D01*
X480580D01*
X482696Y494044D01*
Y500392D02*
X470000D01*
Y508856D01*
M02*
