%FSLAX44Y44*%
%MOMM*%
G71*
G01*
G75*
G04 Layer_Color=32768*
%ADD10R,2.5000X6.0000*%
%ADD11R,6.9850X4.0000*%
%ADD12R,6.0000X2.5000*%
%ADD13R,4.0000X6.9850*%
%ADD14C,1.0000*%
%ADD15C,0.2540*%
%ADD16C,4.0000*%
%ADD17C,1.2700*%
%ADD18R,1.2192X0.8128*%
%ADD19R,1.0200X3.8000*%
%ADD20R,0.3556X0.7620*%
%ADD21R,0.7620X0.3556*%
%ADD22R,2.7940X2.7940*%
%ADD23R,2.7032X6.2032*%
%ADD24R,7.1882X4.2032*%
%ADD25R,6.2032X2.7032*%
%ADD26R,4.2032X7.1882*%
%ADD27C,4.2032*%
%ADD28C,1.4732*%
%ADD29R,1.4224X1.0160*%
%ADD30R,1.1200X3.9000*%
%ADD31R,0.5588X0.9652*%
%ADD32R,0.9652X0.5588*%
%ADD33R,2.9972X2.9972*%
%ADD34R,0.0254X0.0254*%
%ADD35C,0.1524*%
%ADD36C,0.0762*%
%ADD37C,0.1270*%
G36*
X483000Y497987D02*
X492987D01*
Y488000D01*
X495273D01*
Y462000D01*
X492987D01*
Y452013D01*
X483000D01*
Y449727D01*
X457000D01*
Y452013D01*
X447013D01*
Y462000D01*
X444727D01*
Y488000D01*
X447013D01*
Y497987D01*
X457000D01*
Y500273D01*
X483000D01*
Y497987D01*
D02*
G37*
D35*
X447013Y452013D02*
X457000D01*
Y449727D02*
Y452013D01*
Y449727D02*
X483000D01*
Y452013D01*
X492987D01*
Y462000D01*
X495273D01*
Y488000D01*
X492987D02*
X495273D01*
X492987D02*
Y497987D01*
X483000D02*
X492987D01*
X483000D02*
Y500273D01*
X457000D02*
X483000D01*
X457000Y497987D02*
Y500273D01*
X447013Y497987D02*
X457000D01*
X447013Y488000D02*
Y497987D01*
X444727Y488000D02*
X447013D01*
X444727Y462000D02*
Y488000D01*
Y462000D02*
X447013D01*
Y452013D02*
Y462000D01*
M02*
