%FSLAX44Y44*%
%MOMM*%
G71*
G01*
G75*
G04 Layer_Color=16711935*
%ADD10R,2.5000X6.0000*%
%ADD11R,6.9850X4.0000*%
%ADD12R,6.0000X2.5000*%
%ADD13R,4.0000X6.9850*%
%ADD14C,1.0000*%
%ADD15C,0.2540*%
%ADD16C,4.0000*%
%ADD17C,1.2700*%
%ADD18R,1.2192X0.8128*%
%ADD19R,1.0200X3.8000*%
%ADD20R,0.3556X0.7620*%
%ADD21R,0.7620X0.3556*%
%ADD22R,2.7940X2.7940*%
%ADD23R,2.7032X6.2032*%
%ADD24R,7.1882X4.2032*%
%ADD25R,6.2032X2.7032*%
%ADD26R,4.2032X7.1882*%
%ADD27C,4.2032*%
%ADD28C,1.4732*%
%ADD29R,1.4224X1.0160*%
%ADD30R,1.1200X3.9000*%
%ADD31R,0.5588X0.9652*%
%ADD32R,0.9652X0.5588*%
%ADD33R,2.9972X2.9972*%
%ADD34R,0.0254X0.0254*%
%ADD35C,0.1524*%
%ADD36C,0.0762*%
%ADD37C,0.1270*%
D15*
X537033Y370230D02*
X563645D01*
Y307650D02*
Y370230D01*
X545923Y307650D02*
X563645D01*
X545923Y295850D02*
Y307650D01*
X495113Y295850D02*
X545923D01*
X495113D02*
Y304850D01*
X475443D02*
X495113D01*
X475443Y295850D02*
Y304850D01*
X424632Y295850D02*
X475443D01*
X424632D02*
Y307650D01*
X406910D02*
X424632D01*
X406910D02*
Y370230D01*
X433522D01*
Y365150D02*
Y370230D01*
Y365150D02*
X472578D01*
Y370230D01*
X497977D01*
Y365150D02*
Y370230D01*
Y365150D02*
X537033D01*
Y370230D01*
D37*
X486343Y337539D02*
Y331735D01*
X486705Y330646D01*
X487068Y330284D01*
X487794Y329921D01*
X488519D01*
X489245Y330284D01*
X489608Y330646D01*
X489970Y331735D01*
Y332460D01*
X484384Y336088D02*
X483658Y336451D01*
X482570Y337539D01*
Y329921D01*
M02*
