G04*
G04 #@! TF.GenerationSoftware,Altium Limited,Altium Designer,19.0.10 (269)*
G04*
G04 Layer_Physical_Order=1*
G04 Layer_Color=255*
%FSLAX42Y42*%
%MOMM*%
G71*
G01*
G75*
%ADD11C,0.25*%
%ADD12R,1.50X7.50*%
%ADD13R,1.10X3.62*%
%ADD14R,0.80X0.90*%
%ADD15R,0.90X0.70*%
%ADD16R,1.40X1.20*%
%ADD17R,2.41X0.76*%
%ADD18R,1.00X1.00*%
%ADD19R,1.00X2.20*%
%ADD30C,1.12*%
%ADD31C,1.00*%
%ADD32C,0.75*%
%ADD33C,0.50*%
%ADD34C,0.01*%
%ADD35R,2.54X5.59*%
%ADD36C,1.27*%
D11*
X10020Y10620D02*
X10620Y10020D01*
X4620D02*
X5220Y10620D01*
D12*
X7370Y3721D02*
D03*
X7870D02*
D03*
D13*
X7620Y3912D02*
D03*
D14*
X3715Y8323D02*
D03*
X3575D02*
D03*
X11678Y7068D02*
D03*
X11538D02*
D03*
X3715Y7137D02*
D03*
X3575D02*
D03*
X11641Y8192D02*
D03*
X11501D02*
D03*
D15*
X3931Y8205D02*
D03*
Y8355D02*
D03*
X8572Y3212D02*
D03*
Y3062D02*
D03*
X11290Y6987D02*
D03*
Y7137D02*
D03*
D16*
X11900Y8188D02*
D03*
Y8348D02*
D03*
Y7065D02*
D03*
Y6905D02*
D03*
X3334Y6981D02*
D03*
Y7141D02*
D03*
D17*
X9176Y3467D02*
D03*
Y3594D02*
D03*
Y3721D02*
D03*
Y3848D02*
D03*
Y3975D02*
D03*
X8579D02*
D03*
Y3848D02*
D03*
Y3721D02*
D03*
Y3594D02*
D03*
Y3467D02*
D03*
X11297Y7366D02*
D03*
Y7493D02*
D03*
Y7620D02*
D03*
Y7747D02*
D03*
Y7874D02*
D03*
X11894D02*
D03*
Y7747D02*
D03*
Y7620D02*
D03*
Y7493D02*
D03*
Y7366D02*
D03*
X3931Y7976D02*
D03*
Y7849D02*
D03*
Y7722D02*
D03*
Y7595D02*
D03*
Y7468D02*
D03*
X3334D02*
D03*
Y7595D02*
D03*
Y7722D02*
D03*
Y7849D02*
D03*
Y7976D02*
D03*
D18*
X11571Y5295D02*
D03*
X3537Y5319D02*
D03*
X3900Y9935D02*
D03*
X11568Y9954D02*
D03*
D19*
X11471Y5095D02*
D03*
X11671D02*
D03*
X3437Y5119D02*
D03*
X3637D02*
D03*
X4000Y10135D02*
D03*
X3800D02*
D03*
X11468Y10154D02*
D03*
X11668D02*
D03*
D30*
X3313Y9446D02*
X3801Y9935D01*
X3900D01*
X3313Y8487D02*
Y9446D01*
X5048Y3981D02*
X5088Y3942D01*
X5029Y4547D02*
X5048Y3981D01*
X4314Y5261D02*
X5029Y4547D01*
X7620Y3912D02*
Y3988D01*
Y3236D02*
Y3912D01*
X11892Y8190D02*
X11897Y8185D01*
X10858Y5180D02*
Y7772D01*
X9653Y3975D02*
X10858Y5180D01*
X9176Y3975D02*
X9653D01*
X9176Y3058D02*
Y3467D01*
X9000Y2883D02*
X9176Y3058D01*
X6236Y2883D02*
X9000D01*
X6147D02*
X6236D01*
X6074Y2956D02*
X6147Y2883D01*
X5956Y3074D02*
X6074Y2956D01*
X5956Y3074D02*
Y3153D01*
X6341Y3539D01*
Y3617D01*
X6262Y3696D02*
X6341Y3617D01*
X6184Y3696D02*
X6262D01*
X5798Y3311D02*
X6184Y3696D01*
X5719Y3311D02*
X5798Y3311D01*
X5640Y3390D02*
X5719Y3311D01*
X5640Y3390D02*
Y3469D01*
X6026Y3854D01*
Y3933D01*
X5947Y4012D02*
X6026Y3933D01*
X5868Y4012D02*
X5947D01*
X5482Y3626D02*
X5868Y4012D01*
X5403Y3626D02*
X5482Y3626D01*
X5324Y3705D02*
X5403Y3626D01*
X5324Y3705D02*
Y3784D01*
X5710Y4170D01*
Y4249D01*
X5631Y4328D02*
X5710Y4249D01*
X5552Y4328D02*
X5631D01*
X5167Y3942D02*
X5552Y4328D01*
X5088Y3942D02*
X5167D01*
X4314Y5261D02*
Y5524D01*
X11890Y8192D02*
X11892Y8190D01*
X11897Y7068D02*
X11898Y7067D01*
X10858Y7772D02*
X10960Y7874D01*
X11297D01*
X3334Y5522D02*
Y6981D01*
Y5522D02*
X3537Y5319D01*
X3334Y7141D02*
Y7449D01*
X3334Y7468D02*
X3334Y7468D01*
X3315Y7993D02*
Y8288D01*
Y7993D02*
X3333Y7976D01*
X3334D01*
X3931Y7029D02*
Y7468D01*
Y7029D02*
X4077Y6883D01*
X4078Y6882D01*
X4236Y6725D01*
X4314Y6646D01*
Y6529D02*
Y6646D01*
Y6362D02*
Y6529D01*
X4259Y6306D02*
X4314Y6362D01*
X3795Y6306D02*
X4259D01*
X3739Y6250D02*
X3795Y6306D01*
X3739Y6138D02*
Y6250D01*
Y6138D02*
X3795Y6083D01*
X4259D01*
X4314Y6027D01*
Y5915D02*
Y6027D01*
X4259Y5859D02*
X4314Y5915D01*
X3795Y5859D02*
X4259D01*
X3739Y5803D02*
X3795Y5859D01*
X3739Y5692D02*
Y5803D01*
Y5692D02*
X3795Y5636D01*
X4259D01*
X4314Y5580D01*
Y5524D02*
Y5580D01*
X11897Y7877D02*
Y8185D01*
X11894Y7874D02*
X11897Y7877D01*
Y7068D02*
Y7363D01*
X11894Y7366D02*
X11897Y7363D01*
X11900Y5623D02*
Y6905D01*
X11571Y5295D02*
X11900Y5623D01*
Y8348D02*
Y9622D01*
X11568Y9954D02*
X11900Y9622D01*
X8231Y3975D02*
X8579D01*
X8166Y3910D02*
X8231Y3975D01*
X8166Y3161D02*
Y3910D01*
X8101Y3096D02*
X8166Y3161D01*
X7760Y3096D02*
X8101D01*
X7620Y3236D02*
X7760Y3096D01*
D31*
X7366Y3717D02*
Y4013D01*
X7861Y3730D02*
Y4013D01*
Y3730D02*
X7870Y3721D01*
X7366Y3717D02*
X7370Y3721D01*
Y3658D02*
Y3721D01*
D32*
X3715Y6992D02*
Y7137D01*
X3556Y6833D02*
X3715Y6992D01*
X3531Y6833D02*
X3556D01*
X3573Y7139D02*
X3575Y7137D01*
X3336Y7139D02*
X3573D01*
X3334Y7141D02*
X3336Y7139D01*
X3518Y8623D02*
X3712Y8429D01*
Y8325D02*
Y8429D01*
Y8325D02*
X3715Y8323D01*
X3992Y8353D02*
X4204Y8141D01*
X3933Y8353D02*
X3992D01*
X3313Y8327D02*
X3317Y8323D01*
X3537Y8318D02*
Y8320D01*
X3534Y8323D02*
X3537Y8320D01*
X3317Y8323D02*
X3534D01*
X3931Y8355D02*
X3933Y8353D01*
X3931Y7976D02*
Y8205D01*
Y7976D02*
X3931Y7976D01*
X11501Y8158D02*
X11658Y8001D01*
X11671D01*
X11501Y8158D02*
Y8192D01*
X11892Y8190D02*
X11898D01*
X11643D02*
X11892D01*
X11641Y8192D02*
X11643Y8190D01*
X11898D02*
X11900Y8188D01*
X8572Y3212D02*
Y3467D01*
X8573Y3467D01*
X8579D01*
X8707Y3062D02*
X8852Y3207D01*
X8598Y3062D02*
X8707D01*
X11898Y7067D02*
X11900Y7065D01*
X11679Y7067D02*
X11898D01*
X11678Y7068D02*
X11679Y7067D01*
X11540Y7027D02*
X11709Y6858D01*
X11540Y7027D02*
Y7066D01*
X11538Y7068D02*
X11540Y7066D01*
X11290Y7137D02*
Y7365D01*
X11291Y7366D01*
X11297D01*
X11062Y7137D02*
X11209Y6990D01*
X11288D01*
X11290Y6987D01*
D33*
X8877Y3721D02*
X9176D01*
Y3594D02*
Y3721D01*
Y3848D01*
X8579Y3594D02*
Y3721D01*
X8877D01*
X8579D02*
Y3848D01*
X3334Y7722D02*
Y7849D01*
Y7595D02*
Y7722D01*
X3632D01*
X3931Y7595D02*
Y7722D01*
Y7849D01*
X3632Y7722D02*
X3931D01*
X11297Y7620D02*
X11595D01*
X11297Y7493D02*
Y7620D01*
Y7747D01*
X11894Y7493D02*
Y7620D01*
X11595D02*
X11894D01*
Y7747D01*
D34*
X4420Y3370D02*
G03*
X4420Y3370I-150J0D01*
G01*
D02*
G03*
X4420Y3370I-150J0D01*
G01*
Y3970D02*
G03*
X4420Y3970I-150J0D01*
G01*
D02*
G03*
X4420Y3970I-150J0D01*
G01*
X7745Y4120D02*
G03*
X7845Y4220I0J100D01*
G01*
X7395D02*
G03*
X7495Y4120I100J0D01*
G01*
X2845Y11745D02*
G03*
X2745Y11645I0J-100D01*
G01*
X3395Y11745D02*
G03*
X3495Y11845I0J100D01*
G01*
X3595Y12495D02*
G03*
X3495Y12395I0J-100D01*
G01*
X11745D02*
G03*
X11645Y12495I-100J0D01*
G01*
X11845Y3495D02*
G03*
X11745Y3395I0J-100D01*
G01*
X11645Y2745D02*
G03*
X11745Y2845I0J100D01*
G01*
X3495D02*
G03*
X3595Y2745I100J0D01*
G01*
X3495Y3395D02*
G03*
X3395Y3495I-100J0D01*
G01*
X2745Y3595D02*
G03*
X2845Y3495I100J0D01*
G01*
X11745Y11845D02*
G03*
X11845Y11745I100J0D01*
G01*
X12495Y11645D02*
G03*
X12395Y11745I-100J0D01*
G01*
Y3495D02*
G03*
X12495Y3595I0J100D01*
G01*
X11420Y4270D02*
G03*
X11420Y4270I-150J0D01*
G01*
X12020D02*
G03*
X12020Y4270I-150J0D01*
G01*
X11120Y11270D02*
G03*
X11120Y11270I-150J0D01*
G01*
Y11870D02*
G03*
X11120Y11870I-150J0D01*
G01*
X12370Y10145D02*
G03*
X12370Y10145I-175J0D01*
G01*
X10320Y12195D02*
G03*
X10320Y12195I-175J0D01*
G01*
X3220Y10145D02*
G03*
X3220Y10145I-175J0D01*
G01*
X10320Y3045D02*
G03*
X10320Y3045I-175J0D01*
G01*
X3220Y5095D02*
G03*
X3220Y5095I-175J0D01*
G01*
X5270Y3045D02*
G03*
X5270Y3045I-175J0D01*
G01*
Y12195D02*
G03*
X5270Y12195I-175J0D01*
G01*
X12370Y5095D02*
G03*
X12370Y5095I-175J0D01*
G01*
X4120Y10970D02*
G03*
X4120Y10970I-150J0D01*
G01*
X3520D02*
G03*
X3520Y10970I-150J0D01*
G01*
X5270Y12195D02*
G03*
X5270Y12195I-175J0D01*
G01*
X12370Y5095D02*
G03*
X12370Y5095I-175J0D01*
G01*
X11745Y11845D02*
G03*
X11845Y11745I100J0D01*
G01*
X12495Y11645D02*
G03*
X12395Y11745I-100J0D01*
G01*
Y3495D02*
G03*
X12495Y3595I0J100D01*
G01*
X11845Y3495D02*
G03*
X11745Y3395I0J-100D01*
G01*
X11645Y2745D02*
G03*
X11745Y2845I0J100D01*
G01*
X3495D02*
G03*
X3595Y2745I100J0D01*
G01*
X3495Y3395D02*
G03*
X3395Y3495I-100J0D01*
G01*
X2745Y3595D02*
G03*
X2845Y3495I100J0D01*
G01*
Y11745D02*
G03*
X2745Y11645I0J-100D01*
G01*
X3395Y11745D02*
G03*
X3495Y11845I0J100D01*
G01*
X3595Y12495D02*
G03*
X3495Y12395I0J-100D01*
G01*
X11745D02*
G03*
X11645Y12495I-100J0D01*
G01*
X5270Y3045D02*
G03*
X5270Y3045I-175J0D01*
G01*
X3220Y5095D02*
G03*
X3220Y5095I-175J0D01*
G01*
X10320Y3045D02*
G03*
X10320Y3045I-175J0D01*
G01*
X3220Y10145D02*
G03*
X3220Y10145I-175J0D01*
G01*
X10320Y12195D02*
G03*
X10320Y12195I-175J0D01*
G01*
X12370Y10145D02*
G03*
X12370Y10145I-175J0D01*
G01*
X11420Y4270D02*
G03*
X11420Y4270I-150J0D01*
G01*
X12020D02*
G03*
X12020Y4270I-150J0D01*
G01*
X3520Y10970D02*
G03*
X3520Y10970I-150J0D01*
G01*
X4120D02*
G03*
X4120Y10970I-150J0D01*
G01*
X11120Y11270D02*
G03*
X11120Y11270I-150J0D01*
G01*
Y11870D02*
G03*
X11120Y11870I-150J0D01*
G01*
X7395Y4220D02*
G03*
X7495Y4120I100J0D01*
G01*
X7745D02*
G03*
X7845Y4220I0J100D01*
G01*
X5220Y10620D02*
X10020Y10620D01*
X4620Y5220D02*
X5220Y4620D01*
X7395D01*
X4620Y5232D02*
Y10020D01*
X7845Y4620D02*
X10020D01*
X10620Y5220D01*
X4620D02*
Y5232D01*
X7845Y4220D02*
Y4620D01*
X7495Y4120D02*
X7745D01*
X7395Y4220D02*
Y4620D01*
X2845Y11745D02*
X3395D01*
X3495Y11845D02*
Y12395D01*
X11570Y12495D02*
X11645D01*
X3595D02*
X10370D01*
X11745Y11845D02*
Y12395D01*
Y2845D02*
Y3395D01*
X4870Y2745D02*
X11645D01*
X3595D02*
X3670D01*
X3495Y2845D02*
Y3395D01*
X2845Y3495D02*
X3395D01*
X2745Y3595D02*
Y10370D01*
Y11570D02*
Y11645D01*
X11845Y11745D02*
X12395D01*
X12495Y3595D02*
Y3670D01*
Y4870D02*
Y11645D01*
X11845Y3495D02*
X12395D01*
X11845Y11745D02*
X12395D01*
X12495Y3595D02*
Y11645D01*
X11845Y3495D02*
X12395D01*
X11745Y2845D02*
Y3395D01*
X3595Y2745D02*
X11645D01*
X3495Y2845D02*
Y3395D01*
X2845Y3495D02*
X3395D01*
X2745Y3595D02*
Y11645D01*
X2845Y11745D02*
X3395D01*
X3495Y11845D02*
Y12395D01*
X3595Y12495D02*
X11645D01*
X11745Y11845D02*
Y12395D01*
X7845Y4620D02*
X10020D01*
X10620Y10020D02*
X10620Y5220D01*
X4620Y10020D02*
X4620Y5220D01*
X5220Y4620D02*
X7395Y4620D01*
Y4220D02*
Y4620D01*
X7495Y4120D02*
X7745D01*
X7845Y4220D02*
Y4620D01*
D35*
X8877Y3721D02*
D03*
X11595Y7620D02*
D03*
X3632Y7722D02*
D03*
D36*
X3531Y6833D02*
D03*
X3518Y8623D02*
D03*
X4204Y8141D02*
D03*
X11671Y8001D02*
D03*
X8852Y3207D02*
D03*
X11062Y7137D02*
D03*
X7861Y4013D02*
D03*
X7366D02*
D03*
X11709Y6858D02*
D03*
M02*
