G04*
G04 #@! TF.GenerationSoftware,Altium Limited,Altium Designer,19.0.10 (269)*
G04*
G04 Layer_Color=65535*
%FSLAX42Y42*%
%MOMM*%
G71*
G01*
G75*
%ADD10C,0.20*%
%ADD11C,0.25*%
D10*
X3896Y8260D02*
Y8300D01*
X3966Y8260D02*
Y8300D01*
X8607Y3117D02*
Y3157D01*
X8538Y3117D02*
Y3157D01*
X11255Y7042D02*
Y7082D01*
X11325Y7042D02*
Y7082D01*
D11*
X4620Y10020D02*
Y10020D01*
X5436Y11359D02*
Y11207D01*
X5512D01*
X5537Y11232D01*
Y11334D01*
X5512Y11359D01*
X5436D01*
X5664Y11207D02*
X5613D01*
X5588Y11232D01*
Y11283D01*
X5613Y11308D01*
X5664D01*
X5690Y11283D01*
Y11257D01*
X5588D01*
X5740Y11156D02*
Y11308D01*
X5816D01*
X5842Y11283D01*
Y11232D01*
X5816Y11207D01*
X5740D01*
X5893D02*
X5943D01*
X5918D01*
Y11359D01*
X5893D01*
X6045Y11207D02*
X6096D01*
X6121Y11232D01*
Y11283D01*
X6096Y11308D01*
X6045D01*
X6020Y11283D01*
Y11232D01*
X6045Y11207D01*
X6172Y11308D02*
Y11232D01*
X6197Y11207D01*
X6274D01*
Y11181D01*
X6248Y11156D01*
X6223D01*
X6274Y11207D02*
Y11308D01*
X6350D02*
X6400D01*
X6426Y11283D01*
Y11207D01*
X6350D01*
X6324Y11232D01*
X6350Y11257D01*
X6426D01*
X6477Y11359D02*
Y11207D01*
X6553D01*
X6578Y11232D01*
Y11257D01*
Y11283D01*
X6553Y11308D01*
X6477D01*
X6629Y11207D02*
X6680D01*
X6654D01*
Y11359D01*
X6629D01*
X6832Y11207D02*
X6781D01*
X6756Y11232D01*
Y11283D01*
X6781Y11308D01*
X6832D01*
X6858Y11283D01*
Y11257D01*
X6756D01*
X7162Y11334D02*
X7137Y11359D01*
X7086D01*
X7061Y11334D01*
Y11232D01*
X7086Y11207D01*
X7137D01*
X7162Y11232D01*
X7213Y11308D02*
Y11232D01*
X7238Y11207D01*
X7315D01*
Y11308D01*
X7365Y11359D02*
Y11207D01*
X7442D01*
X7467Y11232D01*
Y11257D01*
Y11283D01*
X7442Y11308D01*
X7365D01*
X7594Y11207D02*
X7543D01*
X7518Y11232D01*
Y11283D01*
X7543Y11308D01*
X7594D01*
X7619Y11283D01*
Y11257D01*
X7518D01*
X7670Y11207D02*
X7746D01*
X7772Y11232D01*
X7746Y11257D01*
X7695D01*
X7670Y11283D01*
X7695Y11308D01*
X7772D01*
X7848D02*
X7899D01*
X7924Y11283D01*
Y11207D01*
X7848D01*
X7822Y11232D01*
X7848Y11257D01*
X7924D01*
X8000Y11334D02*
Y11308D01*
X7975D01*
X8026D01*
X8000D01*
Y11232D01*
X8026Y11207D01*
X8254D02*
Y11308D01*
X8305Y11359D01*
X8356Y11308D01*
Y11207D01*
Y11283D01*
X8254D01*
X8406Y11207D02*
Y11308D01*
X8483D01*
X8508Y11283D01*
Y11207D01*
X8584Y11334D02*
Y11308D01*
X8559D01*
X8610D01*
X8584D01*
Y11232D01*
X8610Y11207D01*
X8762D02*
X8711D01*
X8686Y11232D01*
Y11283D01*
X8711Y11308D01*
X8762D01*
X8787Y11283D01*
Y11257D01*
X8686D01*
X8838Y11207D02*
Y11308D01*
X8914D01*
X8940Y11283D01*
Y11207D01*
X8990D02*
Y11308D01*
X9067D01*
X9092Y11283D01*
Y11207D01*
X9168Y11308D02*
X9219D01*
X9244Y11283D01*
Y11207D01*
X9168D01*
X9143Y11232D01*
X9168Y11257D01*
X9244D01*
X9448Y11207D02*
Y11359D01*
X9524D01*
X9549Y11334D01*
Y11283D01*
X9524Y11257D01*
X9448D01*
X9701Y11334D02*
X9676Y11359D01*
X9625D01*
X9600Y11334D01*
Y11232D01*
X9625Y11207D01*
X9676D01*
X9701Y11232D01*
X9752Y11359D02*
Y11207D01*
X9828D01*
X9854Y11232D01*
Y11257D01*
X9828Y11283D01*
X9752D01*
X9828D01*
X9854Y11308D01*
Y11334D01*
X9828Y11359D01*
X9752D01*
X7111Y10912D02*
Y11064D01*
X7188D01*
X7213Y11039D01*
Y10988D01*
X7188Y10963D01*
X7111D01*
X7162D02*
X7213Y10912D01*
X7340D02*
X7289D01*
X7264Y10937D01*
Y10988D01*
X7289Y11014D01*
X7340D01*
X7365Y10988D01*
Y10963D01*
X7264D01*
X7416Y11014D02*
X7467Y10912D01*
X7518Y11014D01*
X7721Y10912D02*
X7772D01*
X7746D01*
Y11064D01*
X7721Y11039D01*
X7848Y10912D02*
Y10937D01*
X7873D01*
Y10912D01*
X7848D01*
X7975Y11039D02*
X8000Y11064D01*
X8051D01*
X8076Y11039D01*
Y10937D01*
X8051Y10912D01*
X8000D01*
X7975Y10937D01*
Y11039D01*
X4331Y7810D02*
X4356Y7836D01*
X4407D01*
X4432Y7810D01*
Y7785D01*
X4407Y7760D01*
X4381D01*
X4407D01*
X4432Y7734D01*
Y7709D01*
X4407Y7683D01*
X4356D01*
X4331Y7709D01*
X3607Y8209D02*
X3581Y8234D01*
X3531D01*
X3505Y8209D01*
Y8107D01*
X3531Y8082D01*
X3581D01*
X3607Y8107D01*
X3734Y8082D02*
Y8234D01*
X3658Y8158D01*
X3759D01*
X3874Y8547D02*
Y8699D01*
X3951D01*
X3976Y8674D01*
Y8623D01*
X3951Y8598D01*
X3874D01*
X3925D02*
X3976Y8547D01*
X4027Y8674D02*
X4052Y8699D01*
X4103D01*
X4128Y8674D01*
Y8649D01*
X4103Y8623D01*
X4078D01*
X4103D01*
X4128Y8598D01*
Y8572D01*
X4103Y8547D01*
X4052D01*
X4027Y8572D01*
X8255Y3061D02*
Y3213D01*
X8331D01*
X8357Y3188D01*
Y3137D01*
X8331Y3111D01*
X8255D01*
X8306D02*
X8357Y3061D01*
X8407D02*
X8458D01*
X8433D01*
Y3213D01*
X8407Y3188D01*
X12178Y8357D02*
Y8204D01*
X12279D01*
X12330D02*
X12381D01*
X12356D01*
Y8357D01*
X12330Y8331D01*
X3874Y9715D02*
Y9588D01*
X3900Y9563D01*
X3951D01*
X3976Y9588D01*
Y9715D01*
X4103Y9563D02*
Y9715D01*
X4027Y9639D01*
X4128D01*
X3397Y4837D02*
Y4710D01*
X3422Y4684D01*
X3473D01*
X3499Y4710D01*
Y4837D01*
X3549Y4811D02*
X3575Y4837D01*
X3626D01*
X3651Y4811D01*
Y4786D01*
X3626Y4760D01*
X3600D01*
X3626D01*
X3651Y4735D01*
Y4710D01*
X3626Y4684D01*
X3575D01*
X3549Y4710D01*
X11265Y5778D02*
Y5651D01*
X11290Y5626D01*
X11341D01*
X11366Y5651D01*
Y5778D01*
X11519Y5626D02*
X11417D01*
X11519Y5728D01*
Y5753D01*
X11493Y5778D01*
X11443D01*
X11417Y5753D01*
X11433Y10501D02*
Y10375D01*
X11458Y10349D01*
X11509D01*
X11534Y10375D01*
Y10501D01*
X11585Y10349D02*
X11636D01*
X11610D01*
Y10501D01*
X11585Y10476D01*
X11087Y6604D02*
Y6756D01*
X11163D01*
X11189Y6731D01*
Y6680D01*
X11163Y6655D01*
X11087D01*
X11138D02*
X11189Y6604D01*
X11341D02*
X11239D01*
X11341Y6706D01*
Y6731D01*
X11316Y6756D01*
X11265D01*
X11239Y6731D01*
X6477Y4242D02*
Y4394D01*
X6528Y4343D01*
X6579Y4394D01*
Y4242D01*
X6629D02*
Y4394D01*
X6680Y4343D01*
X6731Y4394D01*
Y4242D01*
X6883Y4369D02*
X6858Y4394D01*
X6807D01*
X6782Y4369D01*
Y4267D01*
X6807Y4242D01*
X6858D01*
X6883Y4267D01*
X6934Y4394D02*
X7036Y4242D01*
Y4394D02*
X6934Y4242D01*
X2921Y6858D02*
Y6706D01*
X3023D01*
X3074Y6833D02*
X3099Y6858D01*
X3150D01*
X3175Y6833D01*
Y6807D01*
X3150Y6782D01*
X3124D01*
X3150D01*
X3175Y6756D01*
Y6731D01*
X3150Y6706D01*
X3099D01*
X3074Y6731D01*
X12179Y7134D02*
Y6981D01*
X12281D01*
X12433D02*
X12332D01*
X12433Y7083D01*
Y7108D01*
X12408Y7134D01*
X12357D01*
X12332Y7108D01*
X3814Y6807D02*
X3789Y6833D01*
X3738D01*
X3712Y6807D01*
Y6706D01*
X3738Y6680D01*
X3789D01*
X3814Y6706D01*
X3865Y6807D02*
X3890Y6833D01*
X3941D01*
X3966Y6807D01*
Y6782D01*
X3941Y6756D01*
X3916D01*
X3941D01*
X3966Y6731D01*
Y6706D01*
X3941Y6680D01*
X3890D01*
X3865Y6706D01*
X11573Y6718D02*
X11548Y6744D01*
X11497D01*
X11471Y6718D01*
Y6617D01*
X11497Y6591D01*
X11548D01*
X11573Y6617D01*
X11725Y6591D02*
X11624D01*
X11725Y6693D01*
Y6718D01*
X11700Y6744D01*
X11649D01*
X11624Y6718D01*
X11572Y8456D02*
X11547Y8481D01*
X11496D01*
X11471Y8456D01*
Y8354D01*
X11496Y8329D01*
X11547D01*
X11572Y8354D01*
X11623Y8329D02*
X11674D01*
X11648D01*
Y8481D01*
X11623Y8456D01*
X11100Y7518D02*
X10998D01*
X11100Y7620D01*
Y7645D01*
X11074Y7671D01*
X11024D01*
X10998Y7645D01*
X8865Y4174D02*
X8915D01*
X8890D01*
Y4327D01*
X8865Y4301D01*
M02*
