%FSLAX44Y44*%
%MOMM*%
G71*
G01*
G75*
G04 Layer_Color=8388736*
%ADD10C,1.0160*%
%ADD11C,0.2540*%
%ADD12C,3.0000*%
%ADD13C,1.1000*%
%ADD14C,1.7000*%
%ADD15C,1.2000*%
%ADD16C,1.5240*%
%ADD17C,2.0320*%
%ADD18C,1.2700*%
%ADD19R,5.8420X37.4650*%
%ADD20R,28.8290X6.6040*%
%ADD21R,11.3030X8.2550*%
%ADD22R,11.5570X8.2550*%
%ADD23R,2.5400X2.2860*%
%ADD24C,3.2032*%
%ADD25C,1.3032*%
%ADD26C,1.9032*%
%ADD27C,1.4032*%
%ADD28C,1.7272*%
%ADD29C,2.2352*%
%ADD30C,1.4732*%
D24*
X1163839Y732689D02*
D03*
X751839Y320689D02*
D03*
Y1144689D02*
D03*
X339839Y732689D02*
D03*
D25*
X680954Y618389D02*
D03*
X679440Y846989D02*
D03*
X645954Y669189D02*
D03*
Y796189D02*
D03*
X611196Y846989D02*
D03*
X610954Y618389D02*
D03*
D26*
X342639Y512289D02*
D03*
Y563089D02*
D03*
X291839Y512289D02*
D03*
Y563089D02*
D03*
D27*
X317239Y537689D02*
D03*
D28*
X680954Y618389D02*
D03*
X645954Y669189D02*
D03*
X610954Y618389D02*
D03*
X611196Y846989D02*
D03*
X645954Y796189D02*
D03*
X679440Y846989D02*
D03*
X317239Y537689D02*
D03*
D29*
X342639Y563089D02*
D03*
Y512289D02*
D03*
X291839D02*
D03*
Y563089D02*
D03*
D30*
X925828Y748030D02*
D03*
X928368Y808990D02*
D03*
X966468Y704850D02*
D03*
Y638810D02*
D03*
X946148Y814070D02*
D03*
X935353Y639445D02*
D03*
M02*
