%FSLAX44Y44*%
%MOMM*%
G71*
G01*
G75*
G04 Layer_Physical_Order=1*
G04 Layer_Color=255*
%ADD10C,1.0160*%
%ADD11C,0.2540*%
%ADD12C,3.0000*%
%ADD13C,1.1000*%
%ADD14C,1.7000*%
%ADD15C,1.2000*%
%ADD16C,1.5240*%
%ADD17C,2.0320*%
%ADD18C,1.2700*%
D10*
X1078228Y537689D02*
Y734060D01*
Y537689D02*
X317239D01*
X317250Y538447D02*
X314958Y538480D01*
X1078228Y734060D02*
X949958D01*
X966468Y637540D02*
Y638810D01*
Y704850D01*
X928368Y750570D02*
Y808990D01*
X949958Y734060D02*
Y812800D01*
Y654050D02*
Y734060D01*
Y654050D02*
X935353Y639445D01*
D11*
X928368Y750570D02*
X925828Y748030D01*
X951228Y814070D02*
X946148D01*
X951228D02*
X949958Y812800D01*
D12*
X1163839Y732689D02*
D03*
X751839Y320689D02*
D03*
Y1144689D02*
D03*
X339839Y732689D02*
D03*
D13*
X680954Y618389D02*
D03*
X679440Y846989D02*
D03*
X645954Y669189D02*
D03*
Y796189D02*
D03*
X611196Y846989D02*
D03*
X610954Y618389D02*
D03*
D14*
X342639Y512289D02*
D03*
Y563089D02*
D03*
X291839Y512289D02*
D03*
Y563089D02*
D03*
D15*
X317239Y537689D02*
D03*
D16*
X680954Y618389D02*
D03*
X645954Y669189D02*
D03*
X610954Y618389D02*
D03*
X611196Y846989D02*
D03*
X645954Y796189D02*
D03*
X679440Y846989D02*
D03*
X317239Y537689D02*
D03*
D17*
X342639Y563089D02*
D03*
Y512289D02*
D03*
X291839D02*
D03*
Y563089D02*
D03*
D18*
X925828Y748030D02*
D03*
X928368Y808990D02*
D03*
X966468Y704850D02*
D03*
Y638810D02*
D03*
X946148Y814070D02*
D03*
X935353Y639445D02*
D03*
M02*
