%FSLAX44Y44*%
%MOMM*%
G71*
G01*
G75*
G04 Layer_Physical_Order=2*
G04 Layer_Color=16711680*
%ADD10C,1.0160*%
%ADD11C,0.2540*%
%ADD12C,3.0000*%
%ADD13C,1.1000*%
%ADD14C,1.7000*%
%ADD15C,1.2000*%
%ADD16C,1.5240*%
%ADD17C,2.0320*%
%ADD18C,1.2700*%
%ADD19R,5.8420X37.4650*%
%ADD20R,28.8290X6.6040*%
%ADD21R,11.3030X8.2550*%
%ADD22R,11.5570X8.2550*%
%ADD23R,2.5400X2.2860*%
G36*
X278128Y565970D02*
X279398Y565887D01*
X279466Y566404D01*
X280746Y569494D01*
X282781Y572146D01*
X285434Y574182D01*
X288524Y575462D01*
X290569Y575731D01*
Y563089D01*
Y550446D01*
X288524Y550716D01*
X285434Y551995D01*
X282781Y554031D01*
X280746Y556684D01*
X279466Y559773D01*
X279398Y560291D01*
X278128Y560208D01*
Y548640D01*
X332738D01*
Y527050D01*
X278128D01*
Y515170D01*
X279398Y515087D01*
X279466Y515604D01*
X280746Y518694D01*
X282781Y521347D01*
X285434Y523382D01*
X288524Y524662D01*
X290569Y524931D01*
Y512289D01*
Y499646D01*
X288524Y499916D01*
X285434Y501195D01*
X282781Y503231D01*
X280746Y505884D01*
X279466Y508973D01*
X279398Y509491D01*
X278128Y509408D01*
Y495300D01*
X1087118D01*
Y548640D01*
Y577850D01*
X278128D01*
Y565970D01*
D02*
G37*
%LPC*%
G36*
X343909Y524931D02*
X345954Y524662D01*
X349044Y523382D01*
X351697Y521347D01*
X353732Y518694D01*
X355012Y515604D01*
X355281Y513559D01*
X343909D01*
Y524931D01*
D02*
G37*
G36*
X293109D02*
X295154Y524662D01*
X298244Y523382D01*
X300897Y521347D01*
X302932Y518694D01*
X304212Y515604D01*
X304481Y513559D01*
X293109D01*
Y524931D01*
D02*
G37*
G36*
X341369D02*
Y513559D01*
X329996D01*
X330266Y515604D01*
X331545Y518694D01*
X333581Y521347D01*
X336234Y523382D01*
X339324Y524662D01*
X341369Y524931D01*
D02*
G37*
G36*
X343909Y511019D02*
X355281D01*
X355012Y508973D01*
X353732Y505884D01*
X351697Y503231D01*
X349044Y501195D01*
X345954Y499916D01*
X343909Y499646D01*
Y511019D01*
D02*
G37*
G36*
X293109D02*
X304481D01*
X304212Y508973D01*
X302932Y505884D01*
X300897Y503231D01*
X298244Y501195D01*
X295154Y499916D01*
X293109Y499646D01*
Y511019D01*
D02*
G37*
G36*
X329996D02*
X341369D01*
Y499646D01*
X339324Y499916D01*
X336234Y501195D01*
X333581Y503231D01*
X331545Y505884D01*
X330266Y508973D01*
X329996Y511019D01*
D02*
G37*
G36*
X343909Y575731D02*
X345954Y575462D01*
X349044Y574182D01*
X351697Y572146D01*
X353732Y569494D01*
X355012Y566404D01*
X355281Y564359D01*
X343909D01*
Y575731D01*
D02*
G37*
G36*
X293109D02*
X295154Y575462D01*
X298244Y574182D01*
X300897Y572146D01*
X302932Y569494D01*
X304212Y566404D01*
X304481Y564359D01*
X293109D01*
Y575731D01*
D02*
G37*
G36*
X341369D02*
Y564359D01*
X329996D01*
X330266Y566404D01*
X331545Y569494D01*
X333581Y572146D01*
X336234Y574182D01*
X339324Y575462D01*
X341369Y575731D01*
D02*
G37*
G36*
X343909Y561819D02*
X355281D01*
X355012Y559773D01*
X353732Y556684D01*
X351697Y554031D01*
X349044Y551995D01*
X345954Y550716D01*
X343909Y550446D01*
Y561819D01*
D02*
G37*
G36*
X293109D02*
X304481D01*
X304212Y559773D01*
X302932Y556684D01*
X300897Y554031D01*
X298244Y551995D01*
X295154Y550716D01*
X293109Y550446D01*
Y561819D01*
D02*
G37*
G36*
X329996D02*
X341369D01*
Y550446D01*
X339324Y550716D01*
X336234Y551995D01*
X333581Y554031D01*
X331545Y556684D01*
X330266Y559773D01*
X329996Y561819D01*
D02*
G37*
%LPD*%
D11*
X1010918Y805180D02*
Y839470D01*
X825498D01*
X830578Y800100D02*
Y834390D01*
X1015998Y800100D02*
Y844550D01*
X825498Y795020D02*
Y839470D01*
X1021078Y795020D02*
Y849630D01*
X692148D01*
X678178Y863600D01*
X820418Y749300D02*
X806448D01*
X820418D02*
Y844550D01*
X1015998D02*
X820418D01*
X1009648Y614680D02*
X824228D01*
X1004568Y619760D02*
X829308D01*
X824228Y614680D02*
Y699770D01*
X1021078Y795020D02*
X825498D01*
X932178Y805180D02*
X928368Y808990D01*
X1014728Y659130D02*
X829308D01*
Y619760D02*
Y659130D01*
X834388Y624840D02*
Y654050D01*
X999488Y624840D02*
X834388D01*
X1005838Y834390D02*
X830578D01*
X999488Y624840D02*
Y643890D01*
X966468D01*
X1009648Y614680D02*
Y654050D01*
X834388D01*
X1004568Y619760D02*
Y648970D01*
X948688D01*
X1014728Y609600D02*
Y659130D01*
Y609600D02*
X698498D01*
X1015998Y800100D02*
X830578D01*
X1010918Y805180D02*
X932178D01*
X1005838Y810260D02*
Y834390D01*
Y810260D02*
X948688D01*
X946148Y812800D01*
Y814070D01*
X948688Y648970D02*
X937258Y637540D01*
X935353Y639445D01*
D12*
X1163839Y732689D02*
D03*
X751839Y320689D02*
D03*
Y1144689D02*
D03*
X339839Y732689D02*
D03*
D13*
X680954Y618389D02*
D03*
X679440Y846989D02*
D03*
X645954Y669189D02*
D03*
Y796189D02*
D03*
X611196Y846989D02*
D03*
X610954Y618389D02*
D03*
D14*
X342639Y512289D02*
D03*
Y563089D02*
D03*
X291839Y512289D02*
D03*
Y563089D02*
D03*
D15*
X317239Y537689D02*
D03*
D16*
X680954Y618389D02*
D03*
X645954Y669189D02*
D03*
X610954Y618389D02*
D03*
X611196Y846989D02*
D03*
X645954Y796189D02*
D03*
X679440Y846989D02*
D03*
X317239Y537689D02*
D03*
D17*
X342639Y563089D02*
D03*
Y512289D02*
D03*
X291839D02*
D03*
Y563089D02*
D03*
D18*
X925828Y748030D02*
D03*
X928368Y808990D02*
D03*
X966468Y704850D02*
D03*
Y638810D02*
D03*
X946148Y814070D02*
D03*
X935353Y639445D02*
D03*
D19*
X1084578Y682625D02*
D03*
D20*
X925193Y727710D02*
D03*
D21*
X647063Y643255D02*
D03*
D22*
X645793Y822325D02*
D03*
D23*
X290828Y538480D02*
D03*
M02*
