M48
;Layer_Color=9474304
;FILE_FORMAT=4:4
METRIC,LZ
;TYPE=PLATED
T1F00S00C0.7112
T2F00S00C1.1000
T3F00S00C1.1700
T4F00S00C1.1938
T5F00S00C1.2000
T6F00S00C1.7000
T7F00S00C1.7018
T8F00S00C3.0000
%
T01
X0053721Y0063881
X00568325Y00639445
X0053721Y0070485
X0057785Y0074803
X0057531Y0080899
X0055753Y0081407
T02
X00822724Y00618389
X00892724
X00857724Y00669189
Y00796189
X00824238Y00846989
X00892482
T03
X00822724Y00618389
X00892724
X00857724Y00669189
Y00796189
X00824238Y00846989
X00892482
T04
X01186439Y00537689
T05
X01186439Y00537689
T06
X01211839Y00512289
Y00563089
X01161039
Y00512289
T07
X01211839Y00512289
Y00563089
X01161039
Y00512289
T08
X00751839Y00320689
X01163839Y00732689
X00339839
X00751839Y01144689
M30
