%FSLAX44Y44*%
%MOMM*%
G71*
G01*
G75*
G04 Layer_Color=16711935*
%ADD10R,2.5000X6.0000*%
%ADD11R,6.9850X4.0000*%
%ADD12R,6.0000X2.5000*%
%ADD13R,4.0000X6.9850*%
%ADD14C,1.0000*%
%ADD15C,0.2540*%
%ADD16C,4.0000*%
%ADD17C,1.2700*%
%ADD18R,1.2192X0.8128*%
%ADD19R,1.0200X3.8000*%
%ADD20R,0.3556X0.7620*%
%ADD21R,0.7620X0.3556*%
%ADD22R,2.7940X2.7940*%
%ADD23R,2.7032X6.2032*%
%ADD24R,7.1882X4.2032*%
%ADD25R,6.2032X2.7032*%
%ADD26R,4.2032X7.1882*%
%ADD27C,4.2032*%
%ADD28C,1.4732*%
%ADD29R,1.4224X1.0160*%
%ADD30R,1.1200X3.9000*%
%ADD31R,0.5588X0.9652*%
%ADD32R,0.9652X0.5588*%
%ADD33R,2.9972X2.9972*%
D27*
X58710Y470880D02*
D03*
X470709Y882880D02*
D03*
X882710Y470880D02*
D03*
X470709Y58880D02*
D03*
D28*
X525000Y390000D02*
D03*
X515000Y410000D02*
D03*
D29*
X350000Y424000D02*
D03*
Y405856D02*
D03*
X370000Y434000D02*
D03*
Y415856D02*
D03*
X390000Y444000D02*
D03*
Y425856D02*
D03*
X410000Y434000D02*
D03*
Y415856D02*
D03*
X430000Y444000D02*
D03*
Y425856D02*
D03*
D30*
X445000Y360350D02*
D03*
Y309650D02*
D03*
X465000Y360350D02*
D03*
Y309650D02*
D03*
X485000Y360350D02*
D03*
Y309650D02*
D03*
X505000Y360350D02*
D03*
Y309650D02*
D03*
X525000Y360350D02*
D03*
Y309650D02*
D03*
D31*
X479750Y455315D02*
D03*
X473250D02*
D03*
X466750D02*
D03*
X460250D02*
D03*
Y494685D02*
D03*
X466750D02*
D03*
X473250D02*
D03*
X479750D02*
D03*
D32*
X450315Y465250D02*
D03*
Y471750D02*
D03*
Y478250D02*
D03*
Y484750D02*
D03*
X489685D02*
D03*
Y478250D02*
D03*
Y471750D02*
D03*
Y465250D02*
D03*
D33*
X470000Y475000D02*
D03*
M02*
