%FSLAX44Y44*%
%MOMM*%
G71*
G01*
G75*
%ADD10R,2.5000X6.0000*%
%ADD11R,6.9850X4.0000*%
%ADD12R,6.0000X2.5000*%
%ADD13R,4.0000X6.9850*%
%ADD14C,1.0000*%
%ADD15C,0.2540*%
%ADD16C,4.0000*%
%ADD17C,1.2700*%
%ADD18R,1.2192X0.8128*%
%ADD19R,1.0200X3.8000*%
%ADD20R,0.3556X0.7620*%
%ADD21R,0.7620X0.3556*%
%ADD22R,2.7940X2.7940*%
D15*
X786000Y785000D02*
X791078D01*
X788539D01*
Y800235D01*
X786000Y797696D01*
X808853Y800235D02*
X803774Y797696D01*
X798696Y792617D01*
Y787539D01*
X801235Y785000D01*
X806313D01*
X808853Y787539D01*
Y790078D01*
X806313Y792617D01*
X798696D01*
X789000Y473000D02*
X794078D01*
X791539D01*
Y488235D01*
X789000Y485696D01*
X811853Y488235D02*
X801696D01*
Y480617D01*
X806774Y483157D01*
X809313D01*
X811853Y480617D01*
Y475539D01*
X809313Y473000D01*
X804235D01*
X801696Y475539D01*
X414000Y857000D02*
X419078D01*
X416539D01*
Y872235D01*
X414000Y869696D01*
X434313Y857000D02*
Y872235D01*
X426696Y864617D01*
X436853D01*
X429260Y726948D02*
X434338D01*
X431799D01*
Y742183D01*
X429260Y739644D01*
X441956D02*
X444495Y742183D01*
X449573D01*
X452113Y739644D01*
Y737105D01*
X449573Y734566D01*
X447034D01*
X449573D01*
X452113Y732026D01*
Y729487D01*
X449573Y726948D01*
X444495D01*
X441956Y729487D01*
X429260Y586994D02*
X434338D01*
X431799D01*
Y602229D01*
X429260Y599690D01*
X452113Y586994D02*
X441956D01*
X452113Y597151D01*
Y599690D01*
X449573Y602229D01*
X444495D01*
X441956Y599690D01*
X429260Y447040D02*
X434338D01*
X431799D01*
Y462275D01*
X429260Y459736D01*
X441956Y447040D02*
X447034D01*
X444495D01*
Y462275D01*
X441956Y459736D01*
X429260Y307086D02*
X434338D01*
X431799D01*
Y322321D01*
X429260Y319782D01*
X441956D02*
X444495Y322321D01*
X449573D01*
X452113Y319782D01*
Y309625D01*
X449573Y307086D01*
X444495D01*
X441956Y309625D01*
Y319782D01*
X404368Y154177D02*
X406907Y151638D01*
X411986D01*
X414525Y154177D01*
Y164334D01*
X411986Y166873D01*
X406907D01*
X404368Y164334D01*
Y161795D01*
X406907Y159256D01*
X414525D01*
X191262Y198878D02*
X193801Y201417D01*
X198880D01*
X201419Y198878D01*
Y196339D01*
X198880Y193799D01*
X201419Y191260D01*
Y188721D01*
X198880Y186182D01*
X193801D01*
X191262Y188721D01*
Y191260D01*
X193801Y193799D01*
X191262Y196339D01*
Y198878D01*
X193801Y193799D02*
X198880D01*
X191262Y331465D02*
X201419D01*
Y328926D01*
X191262Y318769D01*
Y316230D01*
X201419Y471419D02*
X196340Y468880D01*
X191262Y463801D01*
Y458723D01*
X193801Y456184D01*
X198880D01*
X201419Y458723D01*
Y461262D01*
X198880Y463801D01*
X191262D01*
X201419Y611373D02*
X191262D01*
Y603755D01*
X196340Y606295D01*
X198880D01*
X201419Y603755D01*
Y598677D01*
X198880Y596138D01*
X193801D01*
X191262Y598677D01*
X198880Y736346D02*
Y751581D01*
X191262Y743963D01*
X201419D01*
X190000Y850696D02*
X192539Y853235D01*
X197617D01*
X200157Y850696D01*
Y848157D01*
X197617Y845618D01*
X195078D01*
X197617D01*
X200157Y843078D01*
Y840539D01*
X197617Y838000D01*
X192539D01*
X190000Y840539D01*
X87881Y758190D02*
X77724D01*
X87881Y768347D01*
Y770886D01*
X85342Y773425D01*
X80263D01*
X77724Y770886D01*
X70000Y435000D02*
X75078D01*
X72539D01*
Y450235D01*
X70000Y447696D01*
M02*
