%FSLAX44Y44*%
%MOMM*%
G71*
G01*
G75*
G04 Layer_Color=2752767*
%ADD10R,6.0000X2.5000*%
%ADD11R,4.0000X6.9850*%
%ADD12R,2.5000X6.0000*%
%ADD13R,6.9850X4.0000*%
%ADD14C,1.0000*%
%ADD15C,0.2540*%
%ADD16C,5.0000*%
%ADD17C,1.0000*%
%ADD18C,1.8000*%
%ADD19C,4.0000*%
%ADD20C,1.2700*%
%ADD21R,1.0200X3.8000*%
%ADD22R,1.2192X0.8128*%
%ADD23R,0.3556X0.7620*%
%ADD24R,0.7620X0.3556*%
%ADD25R,2.7940X2.7940*%
%ADD26C,0.2730*%
%ADD27R,6.2032X2.7032*%
%ADD28R,4.2032X7.1882*%
%ADD29R,2.7032X6.2032*%
%ADD30R,7.1882X4.2032*%
%ADD31C,5.2032*%
%ADD32C,1.2032*%
%ADD33C,2.0032*%
%ADD34C,4.2032*%
%ADD35C,1.4732*%
%ADD36R,1.1200X3.9000*%
%ADD37R,1.4224X1.0160*%
%ADD38R,0.5588X0.9652*%
%ADD39R,0.9652X0.5588*%
%ADD40R,2.9972X2.9972*%
%ADD41R,0.0254X0.0254*%
%ADD42C,0.1524*%
%ADD43C,0.0762*%
%ADD44C,0.1270*%
%ADD45C,0.1693*%
D44*
X159920Y1740920D02*
Y1751080D01*
X170080D01*
Y1740920D01*
X159920D01*
X172771Y2203048D02*
X167691Y2213208D01*
X177851D01*
X172771Y2203048D01*
X177475Y2253827D02*
X172395Y2263987D01*
X182555D01*
X177475Y2253827D01*
X402148Y2308404D02*
X397068Y2318564D01*
X407228D01*
X402148Y2308404D01*
X427205Y2253921D02*
X422125Y2264081D01*
X432285D01*
X427205Y2253921D01*
Y2150918D02*
X422125Y2161078D01*
X432285D01*
X427205Y2150918D01*
X402148Y2098181D02*
X397068Y2108341D01*
X407228D01*
X402148Y2098181D01*
X177475Y2151827D02*
X172395Y2161987D01*
X182555D01*
X177475Y2151827D01*
X30000Y1094920D02*
X32540Y1097460D01*
X35080D01*
X32540Y1100000D01*
X35080Y1102540D01*
X32540D01*
X30000Y1105080D01*
X27460Y1102540D01*
X24920D01*
X27460Y1100000D01*
X24920Y1097460D01*
X27460D01*
X30000Y1094920D01*
X52000Y121420D02*
X54540Y123960D01*
X57080D01*
X54540Y126500D01*
X57080Y129040D01*
X54540D01*
X52000Y131580D01*
X49460Y129040D01*
X46920D01*
X49460Y126500D01*
X46920Y123960D01*
X49460D01*
X52000Y121420D01*
X768000D02*
X770540Y123960D01*
X773080D01*
X770540Y126500D01*
X773080Y129040D01*
X770540D01*
X768000Y131580D01*
X765460Y129040D01*
X762920D01*
X765460Y126500D01*
X762920Y123960D01*
X765460D01*
X768000Y121420D01*
X790000Y1094920D02*
X792540Y1097460D01*
X795080D01*
X792540Y1100000D01*
X795080Y1102540D01*
X792540D01*
X790000Y1105080D01*
X787460Y1102540D01*
X784920D01*
X787460Y1100000D01*
X784920Y1097460D01*
X787460D01*
X790000Y1094920D01*
Y2094920D02*
X792540Y2097460D01*
X795080D01*
X792540Y2100000D01*
X795080Y2102540D01*
X792540D01*
X790000Y2105080D01*
X787460Y2102540D01*
X784920D01*
X787460Y2100000D01*
X784920Y2097460D01*
X787460D01*
X790000Y2094920D01*
X768000Y3094920D02*
X770540Y3097460D01*
X773080D01*
X770540Y3100000D01*
X773080Y3102540D01*
X770540D01*
X768000Y3105080D01*
X765460Y3102540D01*
X762920D01*
X765460Y3100000D01*
X762920Y3097460D01*
X765460D01*
X768000Y3094920D01*
X52000D02*
X54540Y3097460D01*
X57080D01*
X54540Y3100000D01*
X57080Y3102540D01*
X54540D01*
X52000Y3105080D01*
X49460Y3102540D01*
X46920D01*
X49460Y3100000D01*
X46920Y3097460D01*
X49460D01*
X52000Y3094920D01*
X30000Y2094920D02*
X32540Y2097460D01*
X35080D01*
X32540Y2100000D01*
X35080Y2102540D01*
X32540D01*
X30000Y2105080D01*
X27460Y2102540D01*
X24920D01*
X27460Y2100000D01*
X24920Y2097460D01*
X27460D01*
X30000Y2094920D01*
X434920Y1394920D02*
X437460Y1400000D01*
X434920Y1405080D01*
X440000Y1402540D01*
X445080Y1405080D01*
X442540Y1400000D01*
X445080Y1394920D01*
X440000Y1397460D01*
X434920Y1394920D01*
X374920Y1224920D02*
X377460Y1230000D01*
X374920Y1235080D01*
X380000Y1232540D01*
X385080Y1235080D01*
X382540Y1230000D01*
X385080Y1224920D01*
X380000Y1227460D01*
X374920Y1224920D01*
D45*
X243132Y2138133D02*
G03*
X243132Y2138133I-5080J0D01*
G01*
Y2258029D02*
G03*
X243132Y2258029I-5080J0D01*
G01*
X371132Y2138133D02*
G03*
X371132Y2138133I-5080J0D01*
G01*
Y2258133D02*
G03*
X371132Y2258133I-5080J0D01*
G01*
Y2278889D02*
G03*
X371132Y2278889I-5080J0D01*
G01*
Y2158889D02*
G03*
X371132Y2158889I-5080J0D01*
G01*
X243132Y2278785D02*
G03*
X243132Y2278785I-5080J0D01*
G01*
Y2158889D02*
G03*
X243132Y2158889I-5080J0D01*
G01*
M02*
