%FSLAX44Y44*%
%MOMM*%
G71*
G01*
G75*
G04 Layer_Physical_Order=2*
G04 Layer_Color=16711680*
%ADD10R,2.5000X6.0000*%
%ADD11R,6.9850X4.0000*%
%ADD12R,6.0000X2.5000*%
%ADD13R,4.0000X6.9850*%
%ADD14C,0.2540*%
%ADD15C,1.0000*%
%ADD16C,4.0000*%
%ADD17C,1.8000*%
%ADD18C,1.0000*%
%ADD19C,1.2700*%
%ADD20R,1.0200X3.8000*%
%ADD21R,1.2192X0.8128*%
%ADD22R,0.3556X0.7620*%
%ADD23R,0.7620X0.3556*%
%ADD24R,2.7940X2.7940*%
G36*
X810000Y2113045D02*
X808804Y2112617D01*
X806015Y2116015D01*
X802583Y2118832D01*
X798667Y2120925D01*
X794419Y2122214D01*
X791270Y2122524D01*
Y2100000D01*
Y2077476D01*
X794419Y2077786D01*
X798667Y2079075D01*
X802583Y2081168D01*
X806015Y2083985D01*
X808804Y2087383D01*
X810000Y2086955D01*
Y1113045D01*
X808804Y1112617D01*
X806015Y1116015D01*
X802583Y1118832D01*
X798667Y1120925D01*
X794419Y1122214D01*
X791270Y1122524D01*
Y1100000D01*
Y1077476D01*
X794419Y1077786D01*
X798667Y1079075D01*
X802583Y1081168D01*
X806015Y1083985D01*
X808804Y1087383D01*
X810000Y1086955D01*
Y10000D01*
X10000D01*
Y1086955D01*
X11196Y1087383D01*
X13985Y1083985D01*
X17417Y1081168D01*
X21332Y1079075D01*
X25581Y1077786D01*
X28730Y1077476D01*
Y1100000D01*
Y1122524D01*
X25581Y1122214D01*
X21332Y1120925D01*
X17417Y1118832D01*
X13985Y1116015D01*
X11196Y1112617D01*
X10000Y1113045D01*
Y2086955D01*
X11196Y2087383D01*
X13985Y2083985D01*
X17417Y2081168D01*
X21332Y2079075D01*
X25581Y2077786D01*
X28730Y2077476D01*
Y2100000D01*
Y2122524D01*
X25581Y2122214D01*
X21332Y2120925D01*
X17417Y2118832D01*
X13985Y2116015D01*
X11196Y2112617D01*
X10000Y2113045D01*
Y3190000D01*
X810000D01*
Y2113045D01*
D02*
G37*
%LPC*%
G36*
X410106Y1511190D02*
X314305D01*
X312818Y1510894D01*
X311558Y1510052D01*
X277253Y1475747D01*
X276411Y1474487D01*
X276115Y1473000D01*
Y1425604D01*
X271364D01*
Y1420270D01*
X280000D01*
Y1417730D01*
X271364D01*
Y1415670D01*
X267347Y1411653D01*
X266505Y1410393D01*
X266209Y1408906D01*
Y1395214D01*
X266505Y1393727D01*
X267347Y1392467D01*
X331035Y1328779D01*
Y1275873D01*
X331331Y1274387D01*
X332173Y1273127D01*
X346367Y1258933D01*
X347627Y1258091D01*
X349113Y1257795D01*
X396518D01*
X398005Y1258091D01*
X399265Y1258933D01*
X413442Y1273110D01*
X418730D01*
Y1293380D01*
X412360D01*
Y1283016D01*
X408813Y1279469D01*
X407640Y1279955D01*
Y1316190D01*
X403885D01*
Y1323810D01*
X407640D01*
Y1366890D01*
X403885D01*
Y1391207D01*
X411222Y1398544D01*
X412395Y1398058D01*
Y1366890D01*
X412360D01*
Y1346620D01*
X427640D01*
Y1366890D01*
X427605D01*
Y1396850D01*
X452060Y1421304D01*
X452321Y1421339D01*
X454483Y1422235D01*
X456340Y1423660D01*
X457765Y1425517D01*
X458661Y1427679D01*
X458800Y1428730D01*
X450000D01*
Y1430000D01*
X448730D01*
Y1438799D01*
X447679Y1438661D01*
X445517Y1437765D01*
X443660Y1436340D01*
X442392Y1434689D01*
X441190Y1435097D01*
Y1493106D01*
X440894Y1494593D01*
X440052Y1495853D01*
X434385Y1501520D01*
X433125Y1502362D01*
X431638Y1502658D01*
X424068D01*
Y1506035D01*
X416031D01*
X415927Y1506560D01*
X415085Y1507820D01*
X412853Y1510052D01*
X411593Y1510894D01*
X410106Y1511190D01*
D02*
G37*
G36*
X427640Y1344080D02*
X412360D01*
Y1323810D01*
X412395D01*
Y1316190D01*
X412360D01*
Y1295920D01*
X427640D01*
Y1316190D01*
X427605D01*
Y1323810D01*
X427640D01*
Y1344080D01*
D02*
G37*
G36*
Y1293380D02*
X421270D01*
Y1273110D01*
X427640D01*
Y1293380D01*
D02*
G37*
G36*
X447640Y1366890D02*
X432360D01*
Y1323810D01*
X432395D01*
Y1316190D01*
X432360D01*
Y1273110D01*
X447640D01*
Y1316190D01*
X447605D01*
Y1323810D01*
X447640D01*
Y1337745D01*
X455350D01*
X457318Y1338004D01*
X457855Y1338227D01*
X459152Y1338764D01*
X460728Y1339972D01*
X462060Y1341304D01*
X462321Y1341339D01*
X464483Y1342235D01*
X466340Y1343660D01*
X467765Y1345517D01*
X468661Y1347679D01*
X468967Y1350000D01*
X468661Y1352321D01*
X467765Y1354483D01*
X466340Y1356340D01*
X464483Y1357765D01*
X462321Y1358661D01*
X460000Y1358967D01*
X457679Y1358661D01*
X455517Y1357765D01*
X453660Y1356340D01*
X452235Y1354483D01*
X451602Y1352955D01*
X447640D01*
Y1366890D01*
D02*
G37*
G36*
X451270Y1438799D02*
Y1431270D01*
X458800D01*
X458661Y1432321D01*
X457765Y1434483D01*
X456340Y1436340D01*
X454483Y1437765D01*
X452321Y1438661D01*
X451270Y1438799D01*
D02*
G37*
G36*
X788730Y2098730D02*
X767476D01*
X767786Y2095582D01*
X769075Y2091333D01*
X771168Y2087417D01*
X773985Y2083985D01*
X777417Y2081168D01*
X781332Y2079075D01*
X785581Y2077786D01*
X788730Y2077476D01*
Y2098730D01*
D02*
G37*
G36*
X451951Y2092724D02*
X449983Y2092465D01*
X448148Y2091705D01*
X446573Y2090497D01*
X445365Y2088922D01*
X444605Y2087087D01*
X444346Y2085119D01*
X444605Y2083151D01*
X445365Y2081316D01*
X446573Y2079741D01*
X448148Y2078533D01*
X449983Y2077773D01*
X451951Y2077514D01*
X453919Y2077773D01*
X455754Y2078533D01*
X457328Y2079741D01*
X458537Y2081316D01*
X459297Y2083151D01*
X459556Y2085119D01*
X459297Y2087087D01*
X458537Y2088922D01*
X457328Y2090497D01*
X455754Y2091705D01*
X453919Y2092465D01*
X451951Y2092724D01*
D02*
G37*
G36*
X52524Y2098730D02*
X31270D01*
Y2077476D01*
X34418Y2077786D01*
X38667Y2079075D01*
X42583Y2081168D01*
X46015Y2083985D01*
X48832Y2087417D01*
X50925Y2091333D01*
X52214Y2095582D01*
X52524Y2098730D01*
D02*
G37*
G36*
X417856Y2061060D02*
X414843Y2060663D01*
X412036Y2059500D01*
X409626Y2057650D01*
X407776Y2055240D01*
X406613Y2052433D01*
X406216Y2049420D01*
X406613Y2046407D01*
X407776Y2043600D01*
X409626Y2041190D01*
X412036Y2039340D01*
X414843Y2038177D01*
X417856Y2037780D01*
X420869Y2038177D01*
X423676Y2039340D01*
X426086Y2041190D01*
X427936Y2043600D01*
X429099Y2046407D01*
X429496Y2049420D01*
X429099Y2052433D01*
X427936Y2055240D01*
X426086Y2057650D01*
X423676Y2059500D01*
X420869Y2060663D01*
X417856Y2061060D01*
D02*
G37*
G36*
X552797Y2268490D02*
X482797D01*
X481806Y2268293D01*
X480966Y2267731D01*
X480404Y2266891D01*
X480207Y2265900D01*
Y2055900D01*
X480404Y2054909D01*
X480966Y2054069D01*
X481806Y2053507D01*
X482797Y2053310D01*
X552797D01*
X553788Y2053507D01*
X554628Y2054069D01*
X555190Y2054909D01*
X555387Y2055900D01*
Y2265900D01*
X555190Y2266891D01*
X554628Y2267731D01*
X553788Y2268293D01*
X552797Y2268490D01*
D02*
G37*
G36*
X788730Y1122524D02*
X785581Y1122214D01*
X781332Y1120925D01*
X777417Y1118832D01*
X773985Y1116015D01*
X771168Y1112583D01*
X769075Y1108668D01*
X767786Y1104419D01*
X767476Y1101270D01*
X788730D01*
Y1122524D01*
D02*
G37*
G36*
X751524Y125230D02*
X730270D01*
Y103976D01*
X733419Y104286D01*
X737667Y105575D01*
X741583Y107668D01*
X745015Y110485D01*
X747832Y113917D01*
X749925Y117833D01*
X751214Y122081D01*
X751524Y125230D01*
D02*
G37*
G36*
X89730Y149024D02*
X86581Y148714D01*
X82333Y147425D01*
X78417Y145332D01*
X74985Y142515D01*
X72168Y139083D01*
X70075Y135167D01*
X68786Y130919D01*
X68476Y127770D01*
X89730D01*
Y149024D01*
D02*
G37*
G36*
X727730Y125230D02*
X706476D01*
X706786Y122081D01*
X708075Y117833D01*
X710168Y113917D01*
X712985Y110485D01*
X716417Y107668D01*
X720333Y105575D01*
X724581Y104286D01*
X727730Y103976D01*
Y125230D01*
D02*
G37*
G36*
X89730D02*
X68476D01*
X68786Y122081D01*
X70075Y117833D01*
X72168Y113917D01*
X74985Y110485D01*
X78417Y107668D01*
X82333Y105575D01*
X86581Y104286D01*
X89730Y103976D01*
Y125230D01*
D02*
G37*
G36*
X113524D02*
X92270D01*
Y103976D01*
X95419Y104286D01*
X99667Y105575D01*
X103583Y107668D01*
X107015Y110485D01*
X109832Y113917D01*
X111925Y117833D01*
X113214Y122081D01*
X113524Y125230D01*
D02*
G37*
G36*
X92270Y149024D02*
Y127770D01*
X113524D01*
X113214Y130919D01*
X111925Y135167D01*
X109832Y139083D01*
X107015Y142515D01*
X103583Y145332D01*
X99667Y147425D01*
X95419Y148714D01*
X92270Y149024D01*
D02*
G37*
G36*
X788730Y1098730D02*
X767476D01*
X767786Y1095582D01*
X769075Y1091333D01*
X771168Y1087417D01*
X773985Y1083985D01*
X777417Y1081168D01*
X781332Y1079075D01*
X785581Y1077786D01*
X788730Y1077476D01*
Y1098730D01*
D02*
G37*
G36*
X31270Y1122524D02*
Y1101270D01*
X52524D01*
X52214Y1104419D01*
X50925Y1108668D01*
X48832Y1112583D01*
X46015Y1116015D01*
X42583Y1118832D01*
X38667Y1120925D01*
X34418Y1122214D01*
X31270Y1122524D01*
D02*
G37*
G36*
X52524Y1098730D02*
X31270D01*
Y1077476D01*
X34418Y1077786D01*
X38667Y1079075D01*
X42583Y1081168D01*
X46015Y1083985D01*
X48832Y1087417D01*
X50925Y1091333D01*
X52214Y1095582D01*
X52524Y1098730D01*
D02*
G37*
G36*
X727730Y149024D02*
X724581Y148714D01*
X720333Y147425D01*
X716417Y145332D01*
X712985Y142515D01*
X710168Y139083D01*
X708075Y135167D01*
X706786Y130919D01*
X706476Y127770D01*
X727730D01*
Y149024D01*
D02*
G37*
G36*
X730270D02*
Y127770D01*
X751524D01*
X751214Y130919D01*
X749925Y135167D01*
X747832Y139083D01*
X745015Y142515D01*
X741583Y145332D01*
X737667Y147425D01*
X733419Y148714D01*
X730270Y149024D01*
D02*
G37*
G36*
X581951Y2092724D02*
X579983Y2092465D01*
X578148Y2091705D01*
X576573Y2090497D01*
X575365Y2088922D01*
X574605Y2087087D01*
X574346Y2085119D01*
X574605Y2083151D01*
X575365Y2081316D01*
X576573Y2079741D01*
X578148Y2078533D01*
X579983Y2077773D01*
X581951Y2077514D01*
X583919Y2077773D01*
X585754Y2078533D01*
X587329Y2079741D01*
X588537Y2081316D01*
X589297Y2083151D01*
X589556Y2085119D01*
X589297Y2087087D01*
X588537Y2088922D01*
X587329Y2090497D01*
X585754Y2091705D01*
X583919Y2092465D01*
X581951Y2092724D01*
D02*
G37*
G36*
X113524Y3098730D02*
X92270D01*
Y3077476D01*
X95419Y3077786D01*
X99667Y3079075D01*
X103583Y3081168D01*
X107015Y3083985D01*
X109832Y3087417D01*
X111925Y3091333D01*
X113214Y3095581D01*
X113524Y3098730D01*
D02*
G37*
G36*
X89730D02*
X68476D01*
X68786Y3095581D01*
X70075Y3091333D01*
X72168Y3087417D01*
X74985Y3083985D01*
X78417Y3081168D01*
X82333Y3079075D01*
X86581Y3077786D01*
X89730Y3077476D01*
Y3098730D01*
D02*
G37*
G36*
X642526Y2217637D02*
X639514Y2217240D01*
X636706Y2216077D01*
X634296Y2214227D01*
X632446Y2211817D01*
X631283Y2209010D01*
X630886Y2205997D01*
X631283Y2202984D01*
X632446Y2200177D01*
X634296Y2197767D01*
X636706Y2195917D01*
X639514Y2194754D01*
X642526Y2194357D01*
X645539Y2194754D01*
X648346Y2195917D01*
X650756Y2197767D01*
X652606Y2200177D01*
X653769Y2202984D01*
X654166Y2205997D01*
X653769Y2209010D01*
X652606Y2211817D01*
X650756Y2214227D01*
X648346Y2216077D01*
X645539Y2217240D01*
X642526Y2217637D01*
D02*
G37*
G36*
X647232Y2166637D02*
X644219Y2166240D01*
X641412Y2165077D01*
X639002Y2163227D01*
X637152Y2160817D01*
X635989Y2158010D01*
X635592Y2154997D01*
X635989Y2151985D01*
X637152Y2149177D01*
X639002Y2146767D01*
X641412Y2144917D01*
X644219Y2143754D01*
X647232Y2143357D01*
X650245Y2143754D01*
X653052Y2144917D01*
X655462Y2146767D01*
X657312Y2149177D01*
X658475Y2151985D01*
X658872Y2154997D01*
X658475Y2158010D01*
X657312Y2160817D01*
X655462Y2163227D01*
X653052Y2165077D01*
X650245Y2166240D01*
X647232Y2166637D01*
D02*
G37*
G36*
X727730Y3098730D02*
X706476D01*
X706786Y3095581D01*
X708075Y3091333D01*
X710168Y3087417D01*
X712985Y3083985D01*
X716417Y3081168D01*
X720333Y3079075D01*
X724581Y3077786D01*
X727730Y3077476D01*
Y3098730D01*
D02*
G37*
G36*
X392796Y2218546D02*
X389783Y2218149D01*
X386976Y2216986D01*
X384566Y2215137D01*
X382716Y2212726D01*
X381553Y2209919D01*
X381156Y2206906D01*
X381553Y2203893D01*
X382716Y2201086D01*
X384566Y2198676D01*
X386976Y2196826D01*
X389783Y2195663D01*
X392796Y2195267D01*
X395808Y2195663D01*
X398616Y2196826D01*
X401026Y2198676D01*
X402876Y2201086D01*
X404039Y2203893D01*
X404436Y2206906D01*
X404039Y2209919D01*
X402876Y2212726D01*
X401026Y2215137D01*
X398616Y2216986D01*
X395808Y2218149D01*
X392796Y2218546D01*
D02*
G37*
G36*
X451951Y2233480D02*
X449983Y2233221D01*
X448148Y2232461D01*
X446573Y2231253D01*
X445365Y2229677D01*
X444605Y2227843D01*
X444346Y2225875D01*
X444605Y2223907D01*
X445365Y2222072D01*
X446573Y2220497D01*
X448148Y2219289D01*
X449983Y2218529D01*
X451951Y2218270D01*
X453919Y2218529D01*
X455754Y2219289D01*
X457328Y2220497D01*
X458537Y2222072D01*
X459297Y2223907D01*
X459556Y2225875D01*
X459297Y2227843D01*
X458537Y2229677D01*
X457328Y2231253D01*
X455754Y2232461D01*
X453919Y2233221D01*
X451951Y2233480D01*
D02*
G37*
G36*
X417856Y2271283D02*
X414843Y2270886D01*
X412036Y2269723D01*
X409626Y2267873D01*
X407776Y2265463D01*
X406613Y2262655D01*
X406216Y2259643D01*
X406613Y2256630D01*
X407776Y2253823D01*
X409626Y2251413D01*
X412036Y2249563D01*
X414843Y2248400D01*
X417856Y2248003D01*
X420869Y2248400D01*
X423676Y2249563D01*
X426086Y2251413D01*
X427936Y2253823D01*
X429099Y2256630D01*
X429496Y2259643D01*
X429099Y2262655D01*
X427936Y2265463D01*
X426086Y2267873D01*
X423676Y2269723D01*
X420869Y2270886D01*
X417856Y2271283D01*
D02*
G37*
G36*
X581951Y2233478D02*
X579983Y2233219D01*
X578148Y2232459D01*
X576573Y2231251D01*
X575365Y2229675D01*
X574605Y2227841D01*
X574346Y2225873D01*
X574605Y2223905D01*
X575365Y2222070D01*
X576573Y2220495D01*
X578148Y2219287D01*
X579983Y2218527D01*
X581951Y2218268D01*
X583919Y2218527D01*
X585754Y2219287D01*
X587329Y2220495D01*
X588537Y2222070D01*
X589297Y2223905D01*
X589556Y2225873D01*
X589297Y2227841D01*
X588537Y2229675D01*
X587329Y2231251D01*
X585754Y2232459D01*
X583919Y2233219D01*
X581951Y2233478D01*
D02*
G37*
G36*
X451951Y2212724D02*
X449983Y2212465D01*
X448148Y2211705D01*
X446573Y2210497D01*
X445365Y2208922D01*
X444605Y2207088D01*
X444346Y2205119D01*
X444605Y2203151D01*
X445365Y2201317D01*
X446573Y2199742D01*
X448148Y2198533D01*
X449983Y2197773D01*
X451951Y2197514D01*
X453919Y2197773D01*
X455754Y2198533D01*
X457328Y2199742D01*
X458537Y2201317D01*
X459297Y2203151D01*
X459556Y2205119D01*
X459297Y2207088D01*
X458537Y2208922D01*
X457328Y2210497D01*
X455754Y2211705D01*
X453919Y2212465D01*
X451951Y2212724D01*
D02*
G37*
G36*
X581951D02*
X579983Y2212465D01*
X578148Y2211705D01*
X576573Y2210497D01*
X575365Y2208922D01*
X574605Y2207088D01*
X574346Y2205119D01*
X574605Y2203151D01*
X575365Y2201317D01*
X576573Y2199742D01*
X578148Y2198533D01*
X579983Y2197773D01*
X581951Y2197514D01*
X583919Y2197773D01*
X585754Y2198533D01*
X587329Y2199742D01*
X588537Y2201317D01*
X589297Y2203151D01*
X589556Y2205119D01*
X589297Y2207088D01*
X588537Y2208922D01*
X587329Y2210497D01*
X585754Y2211705D01*
X583919Y2212465D01*
X581951Y2212724D01*
D02*
G37*
G36*
Y2113480D02*
X579983Y2113221D01*
X578148Y2112461D01*
X576573Y2111253D01*
X575365Y2109678D01*
X574605Y2107843D01*
X574346Y2105875D01*
X574605Y2103907D01*
X575365Y2102072D01*
X576573Y2100497D01*
X578148Y2099289D01*
X579983Y2098529D01*
X581951Y2098270D01*
X583919Y2098529D01*
X585754Y2099289D01*
X587329Y2100497D01*
X588537Y2102072D01*
X589297Y2103907D01*
X589556Y2105875D01*
X589297Y2107843D01*
X588537Y2109678D01*
X587329Y2111253D01*
X585754Y2112461D01*
X583919Y2113221D01*
X581951Y2113480D01*
D02*
G37*
G36*
X31270Y2122524D02*
Y2101270D01*
X52524D01*
X52214Y2104419D01*
X50925Y2108667D01*
X48832Y2112583D01*
X46015Y2116015D01*
X42583Y2118832D01*
X38667Y2120925D01*
X34418Y2122214D01*
X31270Y2122524D01*
D02*
G37*
G36*
X451951Y2113480D02*
X449983Y2113221D01*
X448148Y2112461D01*
X446573Y2111253D01*
X445365Y2109678D01*
X444605Y2107843D01*
X444346Y2105875D01*
X444605Y2103907D01*
X445365Y2102072D01*
X446573Y2100497D01*
X448148Y2099289D01*
X449983Y2098529D01*
X451951Y2098270D01*
X453919Y2098529D01*
X455754Y2099289D01*
X457328Y2100497D01*
X458537Y2102072D01*
X459297Y2103907D01*
X459556Y2105875D01*
X459297Y2107843D01*
X458537Y2109678D01*
X457328Y2111253D01*
X455754Y2112461D01*
X453919Y2113221D01*
X451951Y2113480D01*
D02*
G37*
G36*
X392760Y2115543D02*
X389748Y2115146D01*
X386940Y2113983D01*
X384530Y2112133D01*
X382680Y2109723D01*
X381517Y2106915D01*
X381120Y2103903D01*
X381517Y2100890D01*
X382680Y2098083D01*
X384530Y2095673D01*
X386940Y2093823D01*
X389748Y2092660D01*
X392760Y2092263D01*
X395773Y2092660D01*
X398580Y2093823D01*
X400990Y2095673D01*
X402840Y2098083D01*
X404003Y2100890D01*
X404400Y2103903D01*
X404003Y2106915D01*
X402840Y2109723D01*
X400990Y2112133D01*
X398580Y2113983D01*
X395773Y2115146D01*
X392760Y2115543D01*
D02*
G37*
G36*
X642526Y2115637D02*
X639514Y2115240D01*
X636706Y2114077D01*
X634296Y2112227D01*
X632446Y2109817D01*
X631283Y2107010D01*
X630886Y2103997D01*
X631283Y2100984D01*
X632446Y2098177D01*
X634296Y2095767D01*
X636706Y2093917D01*
X639514Y2092754D01*
X642526Y2092357D01*
X645539Y2092754D01*
X648346Y2093917D01*
X650756Y2095767D01*
X652606Y2098177D01*
X653769Y2100984D01*
X654166Y2103997D01*
X653769Y2107010D01*
X652606Y2109817D01*
X650756Y2112227D01*
X648346Y2114077D01*
X645539Y2115240D01*
X642526Y2115637D01*
D02*
G37*
G36*
X730270Y3122524D02*
Y3101270D01*
X751524D01*
X751214Y3104419D01*
X749925Y3108668D01*
X747832Y3112583D01*
X745015Y3116016D01*
X741583Y3118832D01*
X737667Y3120925D01*
X733419Y3122214D01*
X730270Y3122524D01*
D02*
G37*
G36*
X89730D02*
X86581Y3122214D01*
X82333Y3120925D01*
X78417Y3118832D01*
X74985Y3116016D01*
X72168Y3112583D01*
X70075Y3108668D01*
X68786Y3104419D01*
X68476Y3101270D01*
X89730D01*
Y3122524D01*
D02*
G37*
G36*
X751524Y3098730D02*
X730270D01*
Y3077476D01*
X733419Y3077786D01*
X737667Y3079075D01*
X741583Y3081168D01*
X745015Y3083985D01*
X747832Y3087417D01*
X749925Y3091333D01*
X751214Y3095581D01*
X751524Y3098730D01*
D02*
G37*
G36*
X92270Y3122524D02*
Y3101270D01*
X113524D01*
X113214Y3104419D01*
X111925Y3108668D01*
X109832Y3112583D01*
X107015Y3116016D01*
X103583Y3118832D01*
X99667Y3120925D01*
X95419Y3122214D01*
X92270Y3122524D01*
D02*
G37*
G36*
X788730Y2122524D02*
X785581Y2122214D01*
X781332Y2120925D01*
X777417Y2118832D01*
X773985Y2116015D01*
X771168Y2112583D01*
X769075Y2108667D01*
X767786Y2104419D01*
X767476Y2101270D01*
X788730D01*
Y2122524D01*
D02*
G37*
G36*
X727730Y3122524D02*
X724581Y3122214D01*
X720333Y3120925D01*
X716417Y3118832D01*
X712985Y3116016D01*
X710168Y3112583D01*
X708075Y3108668D01*
X706786Y3104419D01*
X706476Y3101270D01*
X727730D01*
Y3122524D01*
D02*
G37*
%LPD*%
G36*
X408453Y1450389D02*
Y1423947D01*
X356551Y1372045D01*
X353322D01*
X351835Y1371749D01*
X350575Y1370907D01*
X348343Y1368675D01*
X347501Y1367415D01*
X347205Y1365928D01*
Y1277925D01*
X346032Y1277439D01*
X343885Y1279587D01*
Y1404252D01*
X348636D01*
Y1415115D01*
X351364D01*
Y1414252D01*
X358730D01*
Y1420856D01*
Y1427460D01*
X355613D01*
X355127Y1428633D01*
X356529Y1430035D01*
X384831D01*
X386318Y1430331D01*
X387578Y1431173D01*
X407280Y1450875D01*
X408453Y1450389D01*
D02*
G37*
G36*
X433420Y1431730D02*
X423896Y1422206D01*
X422723Y1422691D01*
Y1453965D01*
X424068D01*
Y1463490D01*
X426510D01*
Y1465932D01*
X433420D01*
Y1431730D01*
D02*
G37*
G36*
X395932Y1496510D02*
X393490D01*
Y1494068D01*
X383965D01*
Y1485432D01*
Y1478932D01*
Y1472432D01*
Y1465932D01*
X393490D01*
Y1463490D01*
X395932D01*
Y1461491D01*
X385326Y1450885D01*
X352452D01*
X350965Y1450589D01*
X349705Y1449747D01*
X342843Y1442885D01*
X328636D01*
Y1445604D01*
X311364D01*
Y1435858D01*
X309809Y1434303D01*
X308636Y1434789D01*
Y1435604D01*
X291364D01*
Y1422885D01*
X288636D01*
Y1425604D01*
X283885D01*
Y1471391D01*
X315914Y1503420D01*
X395932D01*
Y1496510D01*
D02*
G37*
G36*
X396115Y1388962D02*
Y1366890D01*
X392360D01*
Y1323810D01*
X396115D01*
Y1316190D01*
X392360D01*
Y1283016D01*
X388813Y1279469D01*
X387640Y1279955D01*
Y1316190D01*
X383885D01*
Y1323810D01*
X387640D01*
Y1366890D01*
X374043D01*
X373557Y1368063D01*
X394942Y1389448D01*
X396115Y1388962D01*
D02*
G37*
G36*
X372360Y1365207D02*
Y1323810D01*
X376115D01*
Y1316190D01*
X372360D01*
Y1283015D01*
X368813Y1279469D01*
X367640Y1279955D01*
Y1316190D01*
X363885D01*
Y1323810D01*
X367640D01*
Y1362146D01*
X371187Y1365693D01*
X372360Y1365207D01*
D02*
G37*
G36*
X331364Y1404252D02*
X336115D01*
Y1336346D01*
X334942Y1335860D01*
X277723Y1393079D01*
X278209Y1394252D01*
X288636D01*
Y1396971D01*
X290000D01*
X291487Y1397267D01*
X292747Y1398109D01*
X298890Y1404252D01*
X308636D01*
Y1406971D01*
X331364D01*
Y1404252D01*
D02*
G37*
%LPC*%
G36*
X368636Y1419586D02*
X361270D01*
Y1414252D01*
X368636D01*
Y1419586D01*
D02*
G37*
G36*
Y1427460D02*
X361270D01*
Y1422126D01*
X368636D01*
Y1427460D01*
D02*
G37*
%LPD*%
D14*
X354920Y1433920D02*
X384831D01*
X320000Y1439000D02*
X344452D01*
X352452Y1447000D01*
X386935D02*
X400250Y1460315D01*
X352452Y1447000D02*
X386935D01*
X350000Y1429000D02*
X354920Y1433920D01*
X384831D02*
X405838Y1454927D01*
X340000Y1429000D02*
X350000D01*
X314305Y1507305D02*
X410106D01*
X280000Y1473000D02*
X314305Y1507305D01*
X280000Y1419000D02*
Y1473000D01*
X300000Y1429000D02*
X310000D01*
X320000Y1439000D01*
X358144Y1419000D02*
X360000Y1420856D01*
X405838Y1454927D02*
Y1459403D01*
X406750Y1460315D01*
X280000Y1400856D02*
X290000D01*
X300000Y1410856D01*
X340000D01*
X360000Y1294650D02*
Y1345350D01*
X418838Y1459403D02*
X419750Y1460315D01*
X360000Y1345350D02*
Y1360000D01*
X418838Y1418838D01*
Y1459403D01*
X380000Y1294650D02*
Y1345350D01*
Y1285162D02*
Y1294650D01*
X366678Y1271840D02*
X380000Y1285162D01*
X353322Y1271840D02*
X366678D01*
X351090Y1274072D02*
X353322Y1271840D01*
X412338Y1459403D02*
X413250Y1460315D01*
X412338Y1422338D02*
Y1459403D01*
X351090Y1365928D02*
X353322Y1368160D01*
X358160D01*
X412338Y1422338D01*
X351090Y1274072D02*
Y1365928D01*
X400000Y1294650D02*
Y1345350D01*
X351218Y1266760D02*
X381598D01*
X400000Y1285162D02*
Y1294650D01*
X381598Y1266760D02*
X400000Y1285162D01*
X340000Y1277978D02*
X351218Y1266760D01*
X340000Y1277978D02*
Y1410856D01*
X349113Y1261680D02*
X396518D01*
X334920Y1275873D02*
X349113Y1261680D01*
X334920Y1275873D02*
Y1330388D01*
X270094Y1395214D02*
X334920Y1330388D01*
X270094Y1395214D02*
Y1408906D01*
X280000Y1418812D01*
X420000Y1285162D02*
Y1294650D01*
X396518Y1261680D02*
X420000Y1285162D01*
X280000Y1418812D02*
Y1419000D01*
X410106Y1507305D02*
X412338Y1505073D01*
Y1500597D02*
Y1505073D01*
Y1500597D02*
X413250Y1499685D01*
X280000Y1419000D02*
X358144D01*
X400000Y1345350D02*
Y1392816D01*
X431638Y1498773D02*
X437305Y1493106D01*
X420662Y1498773D02*
X431638D01*
X400000Y1392816D02*
X437305Y1430121D01*
Y1493106D01*
X419750Y1499685D02*
X420662Y1498773D01*
D15*
X420000Y1294650D02*
Y1345350D01*
X440000Y1294650D02*
Y1345350D01*
X455350D01*
X460000Y1350000D01*
X420000Y1345350D02*
Y1400000D01*
X450000Y1430000D01*
D16*
X30000Y2100000D02*
D03*
X91000Y3100000D02*
D03*
X729000D02*
D03*
X790000Y2100000D02*
D03*
Y1100000D02*
D03*
X729000Y126500D02*
D03*
X91000D02*
D03*
X30000Y1100000D02*
D03*
D17*
X392796Y2206906D02*
D03*
X417856Y2259643D02*
D03*
X642526Y2205997D02*
D03*
X647232Y2154997D02*
D03*
X642526Y2103997D02*
D03*
X417856Y2049420D02*
D03*
X392760Y2103903D02*
D03*
D18*
X451951Y2105875D02*
D03*
Y2225875D02*
D03*
X581951Y2105875D02*
D03*
Y2225873D02*
D03*
Y2205119D02*
D03*
Y2085119D02*
D03*
X451951Y2205119D02*
D03*
Y2085119D02*
D03*
D19*
X460000Y1350000D02*
D03*
X450000Y1430000D02*
D03*
D20*
X440000Y1294650D02*
D03*
Y1345350D02*
D03*
X420000Y1294650D02*
D03*
Y1345350D02*
D03*
X400000Y1294650D02*
D03*
Y1345350D02*
D03*
X380000Y1294650D02*
D03*
Y1345350D02*
D03*
X360000Y1294650D02*
D03*
Y1345350D02*
D03*
D21*
Y1420856D02*
D03*
Y1439000D02*
D03*
X340000Y1410856D02*
D03*
Y1429000D02*
D03*
X300000Y1410856D02*
D03*
Y1429000D02*
D03*
X280000Y1400856D02*
D03*
Y1419000D02*
D03*
X320000Y1420856D02*
D03*
Y1439000D02*
D03*
D22*
X419750Y1460315D02*
D03*
X413250D02*
D03*
X406750D02*
D03*
X400250D02*
D03*
Y1499685D02*
D03*
X406750D02*
D03*
X413250D02*
D03*
X419750D02*
D03*
D23*
X390315Y1470250D02*
D03*
Y1476750D02*
D03*
Y1483250D02*
D03*
Y1489750D02*
D03*
X429685D02*
D03*
Y1483250D02*
D03*
Y1476750D02*
D03*
Y1470250D02*
D03*
D24*
X410000Y1480000D02*
D03*
M02*
