%FSLAX44Y44*%
%MOMM*%
G71*
G01*
G75*
G04 Layer_Color=16711935*
%ADD10R,2.5000X6.0000*%
%ADD11R,6.9850X4.0000*%
%ADD12R,6.0000X2.5000*%
%ADD13R,4.0000X6.9850*%
%ADD14C,0.2540*%
%ADD15C,1.0000*%
%ADD16C,4.0000*%
%ADD17C,1.8000*%
%ADD18C,1.0000*%
%ADD19C,1.2700*%
%ADD20R,1.0200X3.8000*%
%ADD21R,1.2192X0.8128*%
%ADD22R,0.3556X0.7620*%
%ADD23R,0.7620X0.3556*%
%ADD24R,2.7940X2.7940*%
%ADD25R,2.7032X6.2032*%
%ADD26R,7.1882X4.2032*%
%ADD27R,6.2032X2.7032*%
%ADD28R,4.2032X7.1882*%
%ADD29C,4.2032*%
%ADD30C,2.0032*%
%ADD31C,1.2032*%
%ADD32C,1.4732*%
%ADD33R,1.1200X3.9000*%
%ADD34R,1.4224X1.0160*%
%ADD35R,0.5588X0.9652*%
%ADD36R,0.9652X0.5588*%
%ADD37R,2.9972X2.9972*%
%ADD38R,0.0254X0.0254*%
%ADD39C,0.1524*%
%ADD40C,0.0762*%
%ADD41C,0.1270*%
D40*
X433580Y1464125D02*
X425116Y1472589D01*
Y1464125D02*
X433580Y1472589D01*
X429348Y1464125D02*
Y1472589D01*
X425116Y1468357D02*
X433580D01*
X410000Y1480000D02*
X422696D01*
Y1486348D01*
X420580Y1488464D01*
X416348D01*
X414232Y1486348D01*
Y1480000D01*
Y1484232D02*
X410000Y1488464D01*
Y1499044D02*
Y1494812D01*
X412116Y1492696D01*
X416348D01*
X418464Y1494812D01*
Y1499044D01*
X416348Y1501160D01*
X414232D01*
Y1492696D01*
X410000Y1507508D02*
X420580D01*
X416348D01*
Y1505392D01*
Y1509624D01*
Y1507508D01*
X420580D01*
X422696Y1509624D01*
Y1515972D02*
X410000D01*
Y1522320D01*
X412116Y1524436D01*
X420580D01*
X422696Y1522320D01*
Y1515972D01*
X410000Y1535016D02*
Y1530784D01*
X412116Y1528668D01*
X416348D01*
X418464Y1530784D01*
Y1535016D01*
X416348Y1537132D01*
X414232D01*
Y1528668D01*
X410000Y1541364D02*
Y1547711D01*
X412116Y1549827D01*
X414232Y1547711D01*
Y1543479D01*
X416348Y1541364D01*
X418464Y1543479D01*
Y1549827D01*
X410000Y1562523D02*
Y1554059D01*
X418464Y1562523D01*
X420580D01*
X422696Y1560407D01*
Y1556175D01*
X420580Y1554059D01*
M02*
