%FSLAX44Y44*%
%MOMM*%
G71*
G01*
G75*
%ADD10R,2.5000X6.0000*%
%ADD11R,6.9850X4.0000*%
%ADD12R,6.0000X2.5000*%
%ADD13R,4.0000X6.9850*%
%ADD14C,0.2540*%
%ADD15C,1.0000*%
%ADD16C,4.0000*%
%ADD17C,1.8000*%
%ADD18C,1.0000*%
%ADD19C,1.2700*%
%ADD20R,1.0200X3.8000*%
%ADD21R,1.2192X0.8128*%
%ADD22R,0.3556X0.7620*%
%ADD23R,0.7620X0.3556*%
%ADD24R,2.7940X2.7940*%
%ADD25R,2.7032X6.2032*%
%ADD26R,7.1882X4.2032*%
%ADD27R,6.2032X2.7032*%
%ADD28R,4.2032X7.1882*%
%ADD29C,4.2032*%
%ADD30C,2.0032*%
%ADD31C,1.2032*%
%ADD32C,1.4732*%
%ADD33R,1.1200X3.9000*%
%ADD34R,1.4224X1.0160*%
%ADD35R,0.5588X0.9652*%
%ADD36R,0.9652X0.5588*%
%ADD37R,2.9972X2.9972*%
%ADD38R,0.0254X0.0254*%
%ADD39C,0.1524*%
%ADD40C,0.0762*%
%ADD41C,0.1270*%
%ADD42C,0.1693*%
D41*
X15000Y2100000D02*
X45000D01*
X30000Y2085000D02*
Y2115000D01*
X76000Y3100000D02*
X106000D01*
X91000Y3085000D02*
Y3115000D01*
X714000Y3100000D02*
X744000D01*
X729000Y3085000D02*
Y3115000D01*
X775000Y2100000D02*
X805000D01*
X790000Y2085000D02*
Y2115000D01*
X775000Y1100000D02*
X805000D01*
X790000Y1085000D02*
Y1115000D01*
X714000Y126500D02*
X744000D01*
X729000Y111500D02*
Y141500D01*
X76000Y126500D02*
X106000D01*
X91000Y111500D02*
Y141500D01*
X15000Y1100000D02*
X45000D01*
X30000Y1085000D02*
Y1115000D01*
X383796Y2206906D02*
X401796D01*
X392796Y2197906D02*
Y2215906D01*
X408856Y2259643D02*
X426856D01*
X417856Y2250643D02*
Y2268643D01*
X633526Y2205997D02*
X651526D01*
X642526Y2196997D02*
Y2214997D01*
X638232Y2154997D02*
X656232D01*
X647232Y2145997D02*
Y2163997D01*
X633526Y2103997D02*
X651526D01*
X642526Y2094997D02*
Y2112997D01*
X408856Y2049420D02*
X426856D01*
X417856Y2040420D02*
Y2058420D01*
X383760Y2103903D02*
X401760D01*
X392760Y2094903D02*
Y2112903D01*
X446951Y2105875D02*
X456951D01*
X451951Y2100875D02*
Y2110875D01*
X446951Y2225875D02*
X456951D01*
X451951Y2220875D02*
Y2230875D01*
X576951Y2105875D02*
X586951D01*
X581951Y2100875D02*
Y2110875D01*
X576951Y2225873D02*
X586951D01*
X581951Y2220873D02*
Y2230873D01*
X576951Y2205119D02*
X586951D01*
X581951Y2200119D02*
Y2210119D01*
X576951Y2085119D02*
X586951D01*
X581951Y2080119D02*
Y2090119D01*
X446951Y2205119D02*
X456951D01*
X451951Y2200119D02*
Y2210119D01*
X446951Y2085119D02*
X456951D01*
X451951Y2080119D02*
Y2090119D01*
X456444Y1350000D02*
X463556D01*
X460000Y1346444D02*
Y1353556D01*
X446444Y1430000D02*
X453556D01*
X450000Y1426444D02*
Y1433556D01*
M02*
