%FSLAX44Y44*%
%MOMM*%
G71*
G01*
G75*
G04 Layer_Color=32896*
%ADD10R,2.5000X6.0000*%
%ADD11R,6.9850X4.0000*%
%ADD12R,6.0000X2.5000*%
%ADD13R,4.0000X6.9850*%
%ADD14C,0.2540*%
%ADD15C,1.0000*%
%ADD16C,4.0000*%
%ADD17C,1.8000*%
%ADD18C,1.0000*%
%ADD19C,1.2700*%
%ADD20R,1.0200X3.8000*%
%ADD21R,1.2192X0.8128*%
%ADD22R,0.3556X0.7620*%
%ADD23R,0.7620X0.3556*%
%ADD24R,2.7940X2.7940*%
%ADD25R,2.7032X6.2032*%
%ADD26R,7.1882X4.2032*%
%ADD27R,6.2032X2.7032*%
%ADD28R,4.2032X7.1882*%
%ADD29C,4.2032*%
%ADD30C,2.0032*%
%ADD31C,1.2032*%
%ADD32C,1.4732*%
%ADD33R,1.1200X3.9000*%
%ADD34R,1.4224X1.0160*%
%ADD35R,0.5588X0.9652*%
%ADD36R,0.9652X0.5588*%
%ADD37R,2.9972X2.9972*%
%ADD38R,0.0254X0.0254*%
%ADD39C,0.1524*%
%ADD40C,0.0762*%
G36*
X408655Y1506035D02*
X404845D01*
Y1508575D01*
X408655D01*
Y1506035D01*
D02*
G37*
D14*
X447897Y1273086D02*
Y1275850D01*
X352658Y1273086D02*
X447897D01*
X352658D02*
Y1275850D01*
X334632D02*
X352658D01*
X334632D02*
Y1287650D01*
X316910D02*
X334632D01*
X316910D02*
Y1360230D01*
X352658D01*
Y1366914D01*
X447897D01*
Y1360230D02*
Y1366914D01*
Y1360230D02*
X483645D01*
Y1287650D02*
Y1360230D01*
X465923Y1287650D02*
X483645D01*
X465923Y1275850D02*
Y1287650D01*
X447897Y1275850D02*
X465923D01*
X497304Y1389843D02*
X494765Y1392383D01*
Y1397461D01*
X497304Y1400000D01*
X507461D01*
X510000Y1397461D01*
Y1392383D01*
X507461Y1389843D01*
X510000Y1382226D02*
Y1377147D01*
X507461Y1374608D01*
X502383D01*
X499843Y1377147D01*
Y1382226D01*
X502383Y1384765D01*
X507461D01*
X510000Y1382226D01*
Y1369530D02*
X499843D01*
Y1361912D01*
X502383Y1359373D01*
X510000D01*
Y1354295D02*
X499843D01*
Y1346677D01*
X502383Y1344138D01*
X510000D01*
Y1331442D02*
Y1336521D01*
X507461Y1339060D01*
X502383D01*
X499843Y1336521D01*
Y1331442D01*
X502383Y1328903D01*
X504922D01*
Y1339060D01*
X499843Y1313668D02*
Y1321285D01*
X502383Y1323825D01*
X507461D01*
X510000Y1321285D01*
Y1313668D01*
X497304Y1306050D02*
X499843D01*
Y1308590D01*
Y1303511D01*
Y1306050D01*
X507461D01*
X510000Y1303511D01*
Y1293354D02*
Y1288276D01*
X507461Y1285737D01*
X502383D01*
X499843Y1288276D01*
Y1293354D01*
X502383Y1295894D01*
X507461D01*
X510000Y1293354D01*
X499843Y1280659D02*
X510000D01*
X504922D01*
X502383Y1278119D01*
X499843Y1275580D01*
Y1273041D01*
X274411Y1444294D02*
X276951Y1446833D01*
X282029D01*
X284568Y1444294D01*
Y1434137D01*
X282029Y1431598D01*
X276951D01*
X274411Y1434137D01*
X269333Y1431598D02*
X264255D01*
X266794D01*
Y1446833D01*
X269333Y1444294D01*
X322000Y1384000D02*
Y1399235D01*
X314382D01*
X311843Y1396696D01*
Y1391617D01*
X314382Y1389078D01*
X322000D01*
X316922D02*
X311843Y1384000D01*
X306765D02*
X301687D01*
X304226D01*
Y1399235D01*
X306765Y1396696D01*
X331000Y1453000D02*
Y1468235D01*
X323382D01*
X320843Y1465696D01*
Y1460618D01*
X323382Y1458078D01*
X331000D01*
X325922D02*
X320843Y1453000D01*
X305608D02*
X315765D01*
X305608Y1463157D01*
Y1465696D01*
X308147Y1468235D01*
X313226D01*
X315765Y1465696D01*
X378000Y1394000D02*
Y1409235D01*
X370382D01*
X367843Y1406696D01*
Y1401617D01*
X370382Y1399078D01*
X378000D01*
X372922D02*
X367843Y1394000D01*
X362765Y1406696D02*
X360226Y1409235D01*
X355147D01*
X352608Y1406696D01*
Y1404157D01*
X355147Y1401617D01*
X357687D01*
X355147D01*
X352608Y1399078D01*
Y1396539D01*
X355147Y1394000D01*
X360226D01*
X362765Y1396539D01*
X371000Y1454000D02*
Y1469235D01*
X363382D01*
X360843Y1466696D01*
Y1461617D01*
X363382Y1459078D01*
X371000D01*
X365922D02*
X360843Y1454000D01*
X348147D02*
Y1469235D01*
X355765Y1461617D01*
X345608D01*
X410000Y1565235D02*
Y1552539D01*
X407461Y1550000D01*
X402383D01*
X399843Y1552539D01*
Y1565235D01*
X394765Y1550000D02*
X389687D01*
X392226D01*
Y1565235D01*
X394765Y1562696D01*
X610000Y3163000D02*
Y3173157D01*
X604922Y3178235D01*
X599843Y3173157D01*
Y3163000D01*
Y3170617D01*
X610000D01*
X594765Y3173157D02*
Y3165539D01*
X592226Y3163000D01*
X584608D01*
Y3173157D01*
X576991Y3175696D02*
Y3173157D01*
X579530D01*
X574451D01*
X576991D01*
Y3165539D01*
X574451Y3163000D01*
X566834Y3178235D02*
Y3163000D01*
Y3170617D01*
X564295Y3173157D01*
X559216D01*
X556677Y3170617D01*
Y3163000D01*
X549060D02*
X543981D01*
X541442Y3165539D01*
Y3170617D01*
X543981Y3173157D01*
X549060D01*
X551599Y3170617D01*
Y3165539D01*
X549060Y3163000D01*
X536364Y3173157D02*
Y3163000D01*
Y3168078D01*
X533825Y3170617D01*
X531286Y3173157D01*
X528746D01*
X521129D02*
X518590D01*
Y3170617D01*
X521129D01*
Y3173157D01*
Y3165539D02*
X518590D01*
Y3163000D01*
X521129D01*
Y3165539D01*
X493198Y3178235D02*
Y3163000D01*
Y3168078D01*
X483041Y3178235D01*
X490659Y3170617D01*
X483041Y3163000D01*
X477963Y3173157D02*
Y3165539D01*
X475424Y3163000D01*
X467806D01*
Y3173157D01*
X460188D02*
X455110D01*
X452571Y3170617D01*
Y3163000D01*
X460188D01*
X462728Y3165539D01*
X460188Y3168078D01*
X452571D01*
X447493Y3163000D02*
Y3173157D01*
X439875D01*
X437336Y3170617D01*
Y3163000D01*
X427179Y3157921D02*
X424640D01*
X422101Y3160461D01*
Y3173157D01*
X429718D01*
X432257Y3170617D01*
Y3165539D01*
X429718Y3163000D01*
X422101D01*
X417022Y3178235D02*
Y3163000D01*
Y3170617D01*
X414483Y3173157D01*
X409405D01*
X406866Y3170617D01*
Y3163000D01*
X401787Y3173157D02*
Y3165539D01*
X399248Y3163000D01*
X391631D01*
Y3173157D01*
X384013D02*
X378935D01*
X376396Y3170617D01*
Y3163000D01*
X384013D01*
X386552Y3165539D01*
X384013Y3168078D01*
X376396D01*
X345925Y3165539D02*
Y3175696D01*
X348465Y3178235D01*
X353543D01*
X356082Y3175696D01*
Y3165539D01*
X353543Y3163000D01*
X348465D01*
X351004Y3168078D02*
X345925Y3163000D01*
X348465D02*
X345925Y3165539D01*
X340847Y3163000D02*
X335769D01*
X338308D01*
Y3173157D01*
X340847D01*
X325612D02*
X320534D01*
X317994Y3170617D01*
Y3163000D01*
X325612D01*
X328151Y3165539D01*
X325612Y3168078D01*
X317994D01*
X310377Y3163000D02*
X305299D01*
X302759Y3165539D01*
Y3170617D01*
X305299Y3173157D01*
X310377D01*
X312916Y3170617D01*
Y3165539D01*
X310377Y3163000D01*
X279907Y3173157D02*
X274828D01*
X272289Y3170617D01*
Y3163000D01*
X279907D01*
X282446Y3165539D01*
X279907Y3168078D01*
X272289D01*
X267211Y3163000D02*
Y3173157D01*
X259593D01*
X257054Y3170617D01*
Y3163000D01*
X241819Y3178235D02*
Y3163000D01*
X249437D01*
X251976Y3165539D01*
Y3170617D01*
X249437Y3173157D01*
X241819D01*
X221506Y3178235D02*
Y3163000D01*
Y3168078D01*
X211349Y3178235D01*
X218967Y3170617D01*
X211349Y3163000D01*
X198653D02*
X203731D01*
X206271Y3165539D01*
Y3170617D01*
X203731Y3173157D01*
X198653D01*
X196114Y3170617D01*
Y3168078D01*
X206271D01*
X191035Y3163000D02*
X185957D01*
X188496D01*
Y3173157D01*
X191035D01*
X175800Y3175696D02*
Y3173157D01*
X178340D01*
X173261D01*
X175800D01*
Y3165539D01*
X173261Y3163000D01*
X165644Y3178235D02*
Y3163000D01*
Y3170617D01*
X163105Y3173157D01*
X158026D01*
X155487Y3170617D01*
Y3163000D01*
X135174D02*
Y3178235D01*
X130095Y3173157D01*
X125017Y3178235D01*
Y3163000D01*
X112321D02*
X117399D01*
X119938Y3165539D01*
Y3170617D01*
X117399Y3173157D01*
X112321D01*
X109782Y3170617D01*
Y3168078D01*
X119938D01*
X104704Y3163000D02*
Y3173157D01*
X97086D01*
X94547Y3170617D01*
Y3163000D01*
X81851D02*
X86929D01*
X89468Y3165539D01*
Y3170617D01*
X86929Y3173157D01*
X81851D01*
X79312Y3170617D01*
Y3168078D01*
X89468D01*
X74233Y3173157D02*
X64077D01*
X74233Y3163000D01*
X64077D01*
X51381D02*
X56459D01*
X58998Y3165539D01*
Y3170617D01*
X56459Y3173157D01*
X51381D01*
X48842Y3170617D01*
Y3168078D01*
X58998D01*
X43763Y3163000D02*
X36146D01*
X33607Y3165539D01*
X36146Y3168078D01*
X41224D01*
X43763Y3170617D01*
X41224Y3173157D01*
X33607D01*
D39*
X366000Y1426952D02*
Y1433000D01*
X353904Y1426952D02*
Y1433000D01*
X346000Y1416952D02*
Y1423000D01*
X333904Y1416952D02*
Y1423000D01*
X306000Y1416952D02*
Y1423000D01*
X293904Y1416952D02*
Y1423000D01*
X286000Y1406952D02*
Y1413000D01*
X273904Y1406952D02*
Y1413000D01*
X326000Y1426952D02*
Y1433000D01*
X313904Y1426952D02*
Y1433000D01*
X431717Y1458283D02*
Y1465145D01*
X424855Y1501717D02*
X431717D01*
X388283Y1458283D02*
Y1465145D01*
Y1501717D02*
X395145D01*
X431717Y1494855D02*
Y1501717D01*
X424855Y1458283D02*
X431717D01*
X388283D02*
X395145D01*
X388283Y1494855D02*
Y1501717D01*
D40*
X433580Y1450155D02*
X425116Y1458619D01*
Y1450155D02*
X433580Y1458619D01*
X429348Y1450155D02*
Y1458619D01*
X425116Y1454387D02*
X433580D01*
X410000Y1480000D02*
X422696D01*
Y1486348D01*
X420580Y1488464D01*
X416348D01*
X414232Y1486348D01*
Y1480000D01*
X410000Y1492696D02*
X422696D01*
X410000Y1501160D01*
X422696D01*
Y1480000D02*
X410000D01*
Y1486348D01*
X412116Y1488464D01*
X420580D01*
X422696Y1486348D01*
Y1480000D01*
Y1501160D02*
Y1492696D01*
X410000D01*
Y1501160D01*
X416348Y1492696D02*
Y1496928D01*
X422696Y1505392D02*
X414232D01*
X410000Y1509624D01*
X414232Y1513856D01*
X422696D01*
Y1480000D02*
X414232D01*
X410000Y1484232D01*
X414232Y1488464D01*
X422696D01*
X410000Y1492696D02*
X418464D01*
X422696Y1496928D01*
X418464Y1501160D01*
X410000D01*
X416348D01*
Y1492696D01*
X422696Y1505392D02*
X410000D01*
Y1513856D01*
X422696Y1480000D02*
Y1488464D01*
Y1484232D01*
X410000D01*
X422696Y1499044D02*
Y1494812D01*
X420580Y1492696D01*
X412116D01*
X410000Y1494812D01*
Y1499044D01*
X412116Y1501160D01*
X420580D01*
X422696Y1499044D01*
Y1505392D02*
X410000D01*
Y1513856D01*
M02*
