%FSLAX44Y44*%
%MOMM*%
G71*
G01*
G75*
G04 Layer_Color=32896*
%ADD10R,6.0000X2.5000*%
%ADD11R,4.0000X6.9850*%
%ADD12R,2.5000X6.0000*%
%ADD13R,6.9850X4.0000*%
%ADD14C,1.0000*%
%ADD15C,0.2540*%
%ADD16C,5.0000*%
%ADD17C,1.0000*%
%ADD18C,1.8000*%
%ADD19C,4.0000*%
%ADD20C,1.2700*%
%ADD21R,1.0200X3.8000*%
%ADD22R,1.2192X0.8128*%
%ADD23R,0.3556X0.7620*%
%ADD24R,0.7620X0.3556*%
%ADD25R,2.7940X2.7940*%
%ADD26C,0.2730*%
%ADD27R,6.2032X2.7032*%
%ADD28R,4.2032X7.1882*%
%ADD29R,2.7032X6.2032*%
%ADD30R,7.1882X4.2032*%
%ADD31C,5.2032*%
%ADD32C,1.2032*%
%ADD33C,2.0032*%
%ADD34C,4.2032*%
%ADD35C,1.4732*%
%ADD36R,1.1200X3.9000*%
%ADD37R,1.4224X1.0160*%
%ADD38R,0.5588X0.9652*%
%ADD39R,0.9652X0.5588*%
%ADD40R,2.9972X2.9972*%
%ADD41R,0.0254X0.0254*%
%ADD42C,0.1524*%
%ADD43C,0.0762*%
G36*
X408655Y1506035D02*
X404845D01*
Y1508575D01*
X408655D01*
Y1506035D01*
D02*
G37*
D15*
X447897Y1275850D02*
X465923D01*
Y1287650D01*
X483645D01*
Y1360230D01*
X447897D02*
X483645D01*
X447897D02*
Y1366914D01*
X352658D02*
X447897D01*
X352658Y1360230D02*
Y1366914D01*
X316910Y1360230D02*
X352658D01*
X316910Y1287650D02*
Y1360230D01*
Y1287650D02*
X334632D01*
Y1275850D02*
Y1287650D01*
Y1275850D02*
X352658D01*
Y1273086D02*
Y1275850D01*
Y1273086D02*
X447897D01*
Y1275850D01*
X279843Y1452696D02*
X282383Y1455235D01*
X287461D01*
X290000Y1452696D01*
Y1442539D01*
X287461Y1440000D01*
X282383D01*
X279843Y1442539D01*
X274765Y1440000D02*
X269687D01*
X272226D01*
Y1455235D01*
X274765Y1452696D01*
X314000Y1377000D02*
Y1392235D01*
X306383D01*
X303843Y1389696D01*
Y1384617D01*
X306383Y1382078D01*
X314000D01*
X308922D02*
X303843Y1377000D01*
X298765D02*
X293687D01*
X296226D01*
Y1392235D01*
X298765Y1389696D01*
X330000Y1460000D02*
Y1475235D01*
X322383D01*
X319843Y1472696D01*
Y1467617D01*
X322383Y1465078D01*
X330000D01*
X324922D02*
X319843Y1460000D01*
X304608D02*
X314765D01*
X304608Y1470157D01*
Y1472696D01*
X307147Y1475235D01*
X312226D01*
X314765Y1472696D01*
X347000Y1384000D02*
Y1399235D01*
X339383D01*
X336843Y1396696D01*
Y1391617D01*
X339383Y1389078D01*
X347000D01*
X341922D02*
X336843Y1384000D01*
X331765Y1396696D02*
X329226Y1399235D01*
X324147D01*
X321608Y1396696D01*
Y1394157D01*
X324147Y1391617D01*
X326687D01*
X324147D01*
X321608Y1389078D01*
Y1386539D01*
X324147Y1384000D01*
X329226D01*
X331765Y1386539D01*
X370000Y1460000D02*
Y1475235D01*
X362383D01*
X359843Y1472696D01*
Y1467617D01*
X362383Y1465078D01*
X370000D01*
X364922D02*
X359843Y1460000D01*
X347147D02*
Y1475235D01*
X354765Y1467617D01*
X344608D01*
X400000Y1585235D02*
Y1572539D01*
X397461Y1570000D01*
X392383D01*
X389843Y1572539D01*
Y1585235D01*
X384765Y1570000D02*
X379687D01*
X382226D01*
Y1585235D01*
X384765Y1582696D01*
X497304Y1359843D02*
X494765Y1362383D01*
Y1367461D01*
X497304Y1370000D01*
X507461D01*
X510000Y1367461D01*
Y1362383D01*
X507461Y1359843D01*
X510000Y1352226D02*
Y1347147D01*
X507461Y1344608D01*
X502383D01*
X499843Y1347147D01*
Y1352226D01*
X502383Y1354765D01*
X507461D01*
X510000Y1352226D01*
Y1339530D02*
X499843D01*
Y1331912D01*
X502383Y1329373D01*
X510000D01*
Y1324295D02*
X499843D01*
Y1316677D01*
X502383Y1314138D01*
X510000D01*
Y1301442D02*
Y1306521D01*
X507461Y1309060D01*
X502383D01*
X499843Y1306521D01*
Y1301442D01*
X502383Y1298903D01*
X504922D01*
Y1309060D01*
X499843Y1283668D02*
Y1291286D01*
X502383Y1293825D01*
X507461D01*
X510000Y1291286D01*
Y1283668D01*
X497304Y1276050D02*
X499843D01*
Y1278590D01*
Y1273511D01*
Y1276050D01*
X507461D01*
X510000Y1273511D01*
Y1263354D02*
Y1258276D01*
X507461Y1255737D01*
X502383D01*
X499843Y1258276D01*
Y1263354D01*
X502383Y1265894D01*
X507461D01*
X510000Y1263354D01*
X499843Y1250659D02*
X510000D01*
X504922D01*
X502383Y1248119D01*
X499843Y1245580D01*
Y1243041D01*
X620000Y3160000D02*
Y3170157D01*
X614922Y3175235D01*
X609843Y3170157D01*
Y3160000D01*
Y3167617D01*
X620000D01*
X604765Y3170157D02*
Y3162539D01*
X602226Y3160000D01*
X594608D01*
Y3170157D01*
X586991Y3172696D02*
Y3170157D01*
X589530D01*
X584451D01*
X586991D01*
Y3162539D01*
X584451Y3160000D01*
X576834Y3175235D02*
Y3160000D01*
Y3167617D01*
X574295Y3170157D01*
X569216D01*
X566677Y3167617D01*
Y3160000D01*
X559060D02*
X553981D01*
X551442Y3162539D01*
Y3167617D01*
X553981Y3170157D01*
X559060D01*
X561599Y3167617D01*
Y3162539D01*
X559060Y3160000D01*
X546364Y3170157D02*
Y3160000D01*
Y3165078D01*
X543825Y3167617D01*
X541286Y3170157D01*
X538746D01*
X531129D02*
X528590D01*
Y3167617D01*
X531129D01*
Y3170157D01*
Y3162539D02*
X528590D01*
Y3160000D01*
X531129D01*
Y3162539D01*
X503198Y3175235D02*
Y3160000D01*
Y3165078D01*
X493041Y3175235D01*
X500659Y3167617D01*
X493041Y3160000D01*
X487963Y3170157D02*
Y3162539D01*
X485424Y3160000D01*
X477806D01*
Y3170157D01*
X470188D02*
X465110D01*
X462571Y3167617D01*
Y3160000D01*
X470188D01*
X472728Y3162539D01*
X470188Y3165078D01*
X462571D01*
X457493Y3160000D02*
Y3170157D01*
X449875D01*
X447336Y3167617D01*
Y3160000D01*
X437179Y3154922D02*
X434640D01*
X432101Y3157461D01*
Y3170157D01*
X439718D01*
X442257Y3167617D01*
Y3162539D01*
X439718Y3160000D01*
X432101D01*
X427022Y3175235D02*
Y3160000D01*
Y3167617D01*
X424483Y3170157D01*
X419405D01*
X416866Y3167617D01*
Y3160000D01*
X411787Y3170157D02*
Y3162539D01*
X409248Y3160000D01*
X401631D01*
Y3170157D01*
X394013D02*
X388935D01*
X386396Y3167617D01*
Y3160000D01*
X394013D01*
X396552Y3162539D01*
X394013Y3165078D01*
X386396D01*
X355925Y3162539D02*
Y3172696D01*
X358465Y3175235D01*
X363543D01*
X366082Y3172696D01*
Y3162539D01*
X363543Y3160000D01*
X358465D01*
X361004Y3165078D02*
X355925Y3160000D01*
X358465D02*
X355925Y3162539D01*
X350847Y3160000D02*
X345769D01*
X348308D01*
Y3170157D01*
X350847D01*
X335612D02*
X330534D01*
X327994Y3167617D01*
Y3160000D01*
X335612D01*
X338151Y3162539D01*
X335612Y3165078D01*
X327994D01*
X320377Y3160000D02*
X315299D01*
X312759Y3162539D01*
Y3167617D01*
X315299Y3170157D01*
X320377D01*
X322916Y3167617D01*
Y3162539D01*
X320377Y3160000D01*
X289907Y3170157D02*
X284828D01*
X282289Y3167617D01*
Y3160000D01*
X289907D01*
X292446Y3162539D01*
X289907Y3165078D01*
X282289D01*
X277211Y3160000D02*
Y3170157D01*
X269593D01*
X267054Y3167617D01*
Y3160000D01*
X251819Y3175235D02*
Y3160000D01*
X259437D01*
X261976Y3162539D01*
Y3167617D01*
X259437Y3170157D01*
X251819D01*
X231506Y3175235D02*
Y3160000D01*
Y3165078D01*
X221349Y3175235D01*
X228967Y3167617D01*
X221349Y3160000D01*
X208653D02*
X213731D01*
X216271Y3162539D01*
Y3167617D01*
X213731Y3170157D01*
X208653D01*
X206114Y3167617D01*
Y3165078D01*
X216271D01*
X201035Y3160000D02*
X195957D01*
X198496D01*
Y3170157D01*
X201035D01*
X185800Y3172696D02*
Y3170157D01*
X188340D01*
X183261D01*
X185800D01*
Y3162539D01*
X183261Y3160000D01*
X175644Y3175235D02*
Y3160000D01*
Y3167617D01*
X173105Y3170157D01*
X168026D01*
X165487Y3167617D01*
Y3160000D01*
X145174D02*
Y3175235D01*
X140095Y3170157D01*
X135017Y3175235D01*
Y3160000D01*
X122321D02*
X127399D01*
X129939Y3162539D01*
Y3167617D01*
X127399Y3170157D01*
X122321D01*
X119782Y3167617D01*
Y3165078D01*
X129939D01*
X114704Y3160000D02*
Y3170157D01*
X107086D01*
X104547Y3167617D01*
Y3160000D01*
X91851D02*
X96929D01*
X99468Y3162539D01*
Y3167617D01*
X96929Y3170157D01*
X91851D01*
X89312Y3167617D01*
Y3165078D01*
X99468D01*
X84233Y3170157D02*
X74077D01*
X84233Y3160000D01*
X74077D01*
X61381D02*
X66459D01*
X68998Y3162539D01*
Y3167617D01*
X66459Y3170157D01*
X61381D01*
X58842Y3167617D01*
Y3165078D01*
X68998D01*
X53763Y3160000D02*
X46146D01*
X43607Y3162539D01*
X46146Y3165078D01*
X51224D01*
X53763Y3167617D01*
X51224Y3170157D01*
X43607D01*
D42*
X293904Y1416952D02*
Y1423000D01*
X306000Y1416952D02*
Y1423000D01*
X313904Y1426952D02*
Y1433000D01*
X326000Y1426952D02*
Y1433000D01*
X333904Y1416952D02*
Y1423000D01*
X346000Y1416952D02*
Y1423000D01*
X353904Y1426952D02*
Y1433000D01*
X366000Y1426952D02*
Y1433000D01*
X273904Y1406952D02*
Y1413000D01*
X286000Y1406952D02*
Y1413000D01*
X431717Y1458283D02*
Y1465145D01*
X424855Y1501717D02*
X431717D01*
X388283Y1458283D02*
Y1465145D01*
Y1501717D02*
X395145D01*
X431717Y1494855D02*
Y1501717D01*
X424855Y1458283D02*
X431717D01*
X388283D02*
X395145D01*
X388283Y1494855D02*
Y1501717D01*
D43*
X433580Y1450155D02*
X425116Y1458619D01*
Y1450155D02*
X433580Y1458619D01*
X429348Y1450155D02*
Y1458619D01*
X425116Y1454387D02*
X433580D01*
X410000Y1480000D02*
X422696D01*
Y1486348D01*
X420580Y1488464D01*
X416348D01*
X414232Y1486348D01*
Y1480000D01*
X410000Y1492696D02*
X422696D01*
X410000Y1501160D01*
X422696D01*
Y1480000D02*
X410000D01*
Y1486348D01*
X412116Y1488464D01*
X420580D01*
X422696Y1486348D01*
Y1480000D01*
Y1501160D02*
Y1492696D01*
X410000D01*
Y1501160D01*
X416348Y1492696D02*
Y1496928D01*
X422696Y1505392D02*
X414232D01*
X410000Y1509624D01*
X414232Y1513856D01*
X422696D01*
Y1480000D02*
X414232D01*
X410000Y1484232D01*
X414232Y1488464D01*
X422696D01*
X410000Y1492696D02*
X418464D01*
X422696Y1496928D01*
X418464Y1501160D01*
X410000D01*
X416348D01*
Y1492696D01*
X422696Y1505392D02*
X410000D01*
Y1513856D01*
X422696Y1480000D02*
Y1488464D01*
Y1484232D01*
X410000D01*
X422696Y1499044D02*
Y1494812D01*
X420580Y1492696D01*
X412116D01*
X410000Y1494812D01*
Y1499044D01*
X412116Y1501160D01*
X420580D01*
X422696Y1499044D01*
Y1505392D02*
X410000D01*
Y1513856D01*
M02*
