%FSLAX44Y44*%
%MOMM*%
G71*
G01*
G75*
G04 Layer_Physical_Order=2*
G04 Layer_Color=16711680*
%ADD10R,6.0000X2.5000*%
%ADD11R,4.0000X6.9850*%
%ADD12R,2.5000X6.0000*%
%ADD13R,6.9850X4.0000*%
%ADD14C,1.0000*%
%ADD15C,0.2540*%
%ADD16C,5.0000*%
%ADD17C,1.0000*%
%ADD18C,1.8000*%
%ADD19C,4.0000*%
%ADD20C,1.2700*%
%ADD21R,1.0200X3.8000*%
%ADD22R,1.2192X0.8128*%
%ADD23R,0.3556X0.7620*%
%ADD24R,0.7620X0.3556*%
%ADD25R,2.7940X2.7940*%
%ADD26C,0.2730*%
G36*
X810000Y2113045D02*
X808804Y2112617D01*
X806015Y2116015D01*
X802583Y2118832D01*
X798667Y2120925D01*
X794419Y2122214D01*
X791270Y2122524D01*
Y2100000D01*
Y2077476D01*
X794419Y2077786D01*
X798667Y2079075D01*
X802583Y2081168D01*
X806015Y2083985D01*
X808804Y2087383D01*
X810000Y2086955D01*
Y1113045D01*
X808804Y1112617D01*
X806015Y1116015D01*
X802583Y1118832D01*
X798667Y1120925D01*
X794419Y1122214D01*
X791270Y1122524D01*
Y1100000D01*
Y1077476D01*
X794419Y1077786D01*
X798667Y1079075D01*
X802583Y1081168D01*
X806015Y1083985D01*
X808804Y1087383D01*
X810000Y1086955D01*
Y10000D01*
X10000D01*
Y1086955D01*
X11196Y1087383D01*
X13985Y1083985D01*
X17417Y1081168D01*
X21332Y1079075D01*
X25581Y1077786D01*
X28730Y1077476D01*
Y1100000D01*
Y1122524D01*
X25581Y1122214D01*
X21332Y1120925D01*
X17417Y1118832D01*
X13985Y1116015D01*
X11196Y1112617D01*
X10000Y1113045D01*
Y2086955D01*
X11196Y2087383D01*
X13985Y2083985D01*
X17417Y2081168D01*
X21332Y2079075D01*
X25581Y2077786D01*
X28730Y2077476D01*
Y2100000D01*
Y2122524D01*
X25581Y2122214D01*
X21332Y2120925D01*
X17417Y2118832D01*
X13985Y2116015D01*
X11196Y2112617D01*
X10000Y2113045D01*
Y3190000D01*
X810000D01*
Y2113045D01*
D02*
G37*
%LPC*%
G36*
X278730Y1425604D02*
X271364D01*
Y1420270D01*
X278730D01*
Y1425604D01*
D02*
G37*
G36*
X165000Y1773625D02*
X160678Y1773285D01*
X156463Y1772273D01*
X152458Y1770614D01*
X148762Y1768349D01*
X145466Y1765534D01*
X142651Y1762238D01*
X140386Y1758542D01*
X138727Y1754537D01*
X137715Y1750322D01*
X137375Y1746000D01*
X137715Y1741678D01*
X138727Y1737463D01*
X140386Y1733458D01*
X142651Y1729762D01*
X145466Y1726466D01*
X148762Y1723651D01*
X152458Y1721386D01*
X156463Y1719727D01*
X160678Y1718715D01*
X165000Y1718375D01*
X169321Y1718715D01*
X173537Y1719727D01*
X177542Y1721386D01*
X181238Y1723651D01*
X184534Y1726466D01*
X187349Y1729762D01*
X189614Y1733458D01*
X191273Y1737463D01*
X192285Y1741678D01*
X192625Y1746000D01*
X192285Y1750322D01*
X191273Y1754537D01*
X189614Y1758542D01*
X187349Y1762238D01*
X184534Y1765534D01*
X181238Y1768349D01*
X177542Y1770614D01*
X173537Y1772273D01*
X169321Y1773285D01*
X165000Y1773625D01*
D02*
G37*
G36*
X430330Y1511285D02*
X416354D01*
X414868Y1510989D01*
X413608Y1510147D01*
X410916Y1507455D01*
X410074Y1506195D01*
X410042Y1506035D01*
X395932D01*
Y1496510D01*
X393490D01*
Y1494068D01*
X383965D01*
Y1485432D01*
Y1478932D01*
Y1472432D01*
Y1465932D01*
X393490D01*
Y1463490D01*
X395932D01*
Y1461491D01*
X388326Y1453885D01*
X331000D01*
X329760Y1453638D01*
X329513Y1453589D01*
X328253Y1452747D01*
X321110Y1445604D01*
X311364D01*
Y1442885D01*
X310000D01*
X308513Y1442589D01*
X307253Y1441747D01*
X301110Y1435604D01*
X291364D01*
Y1424741D01*
X288636D01*
Y1425604D01*
X281270D01*
Y1419000D01*
X280000D01*
Y1417730D01*
X271364D01*
Y1413396D01*
X267252Y1409284D01*
X266410Y1408024D01*
X266114Y1406537D01*
Y1310001D01*
X266410Y1308514D01*
X267252Y1307254D01*
X347253Y1227253D01*
X348513Y1226411D01*
X350000Y1226115D01*
X371987D01*
X372235Y1225517D01*
X373660Y1223660D01*
X375517Y1222235D01*
X377679Y1221339D01*
X378730Y1221200D01*
Y1230000D01*
X381270D01*
Y1221200D01*
X382321Y1221339D01*
X384483Y1222235D01*
X386340Y1223660D01*
X387765Y1225517D01*
X388661Y1227679D01*
X388695Y1227940D01*
X425378Y1264622D01*
X426586Y1266198D01*
X427123Y1267494D01*
X427346Y1268032D01*
X427605Y1270000D01*
Y1273110D01*
X427640D01*
Y1293380D01*
X412360D01*
Y1273115D01*
X377940Y1238696D01*
X377679Y1238661D01*
X375517Y1237765D01*
X373660Y1236340D01*
X372235Y1234483D01*
X371987Y1233885D01*
X351609D01*
X273884Y1311610D01*
Y1394252D01*
X276115D01*
Y1330000D01*
X276411Y1328513D01*
X277253Y1327253D01*
X335364Y1269142D01*
X336624Y1268300D01*
X338111Y1268004D01*
X344211D01*
X348392Y1263823D01*
X349652Y1262981D01*
X351139Y1262685D01*
X381408D01*
X382895Y1262981D01*
X384155Y1263823D01*
X391657Y1271325D01*
X392499Y1272585D01*
X392603Y1273110D01*
X407640D01*
Y1316190D01*
X403885D01*
Y1323810D01*
X407640D01*
Y1366890D01*
X403885D01*
Y1421072D01*
X414942Y1432130D01*
X416115Y1431644D01*
Y1366890D01*
X412360D01*
Y1346620D01*
X427640D01*
Y1366890D01*
X423885D01*
Y1433754D01*
X445227Y1455096D01*
X446069Y1456356D01*
X446365Y1457843D01*
Y1495250D01*
X446069Y1496736D01*
X445227Y1497997D01*
X433077Y1510147D01*
X431816Y1510989D01*
X430330Y1511285D01*
D02*
G37*
G36*
X440000Y1408967D02*
X437679Y1408661D01*
X435517Y1407765D01*
X433660Y1406340D01*
X432235Y1404483D01*
X431339Y1402321D01*
X431033Y1400000D01*
X431339Y1397679D01*
X432235Y1395517D01*
X432395Y1395308D01*
Y1366890D01*
X432360D01*
Y1323810D01*
X432395D01*
Y1316190D01*
X432360D01*
Y1273110D01*
X447640D01*
Y1316190D01*
X447605D01*
Y1323810D01*
X447640D01*
Y1366890D01*
X447605D01*
Y1395308D01*
X447765Y1395517D01*
X448661Y1397679D01*
X448967Y1400000D01*
X448661Y1402321D01*
X447765Y1404483D01*
X446340Y1406340D01*
X444483Y1407765D01*
X442321Y1408661D01*
X440000Y1408967D01*
D02*
G37*
G36*
X427640Y1344080D02*
X412360D01*
Y1323810D01*
X412395D01*
Y1316190D01*
X412360D01*
Y1295920D01*
X427640D01*
Y1316190D01*
X427605D01*
Y1323810D01*
X427640D01*
Y1344080D01*
D02*
G37*
G36*
X337206Y2316404D02*
X267206D01*
X266215Y2316207D01*
X265375Y2315645D01*
X264813Y2314805D01*
X264616Y2313814D01*
Y2103814D01*
X264813Y2102823D01*
X265375Y2101983D01*
X266215Y2101421D01*
X267206Y2101224D01*
X337206D01*
X338197Y2101421D01*
X339037Y2101983D01*
X339599Y2102823D01*
X339796Y2103814D01*
Y2313814D01*
X339599Y2314805D01*
X339037Y2315645D01*
X338197Y2316207D01*
X337206Y2316404D01*
D02*
G37*
G36*
X31270Y2122524D02*
Y2101270D01*
X52524D01*
X52214Y2104419D01*
X50925Y2108667D01*
X48832Y2112583D01*
X46015Y2116015D01*
X42583Y2118832D01*
X38667Y2120925D01*
X34418Y2122214D01*
X31270Y2122524D01*
D02*
G37*
G36*
X402148Y2114901D02*
X399135Y2114504D01*
X396328Y2113341D01*
X393918Y2111491D01*
X392068Y2109081D01*
X390905Y2106273D01*
X390508Y2103261D01*
X390905Y2100248D01*
X392068Y2097441D01*
X393918Y2095031D01*
X396328Y2093181D01*
X399135Y2092018D01*
X402148Y2091621D01*
X405160Y2092018D01*
X407968Y2093181D01*
X410378Y2095031D01*
X412228Y2097441D01*
X413391Y2100248D01*
X413787Y2103261D01*
X413391Y2106273D01*
X412228Y2109081D01*
X410378Y2111491D01*
X407968Y2113341D01*
X405160Y2114504D01*
X402148Y2114901D01*
D02*
G37*
G36*
X52524Y2098730D02*
X31270D01*
Y2077476D01*
X34418Y2077786D01*
X38667Y2079075D01*
X42583Y2081168D01*
X46015Y2083985D01*
X48832Y2087417D01*
X50925Y2091333D01*
X52214Y2095581D01*
X52524Y2098730D01*
D02*
G37*
G36*
X788730D02*
X767476D01*
X767786Y2095581D01*
X769075Y2091333D01*
X771168Y2087417D01*
X773985Y2083985D01*
X777417Y2081168D01*
X781332Y2079075D01*
X785581Y2077786D01*
X788730Y2077476D01*
Y2098730D01*
D02*
G37*
G36*
Y1122524D02*
X785581Y1122214D01*
X781332Y1120925D01*
X777417Y1118832D01*
X773985Y1116015D01*
X771168Y1112583D01*
X769075Y1108668D01*
X767786Y1104419D01*
X767476Y1101270D01*
X788730D01*
Y1122524D01*
D02*
G37*
G36*
X790524Y125230D02*
X769270D01*
Y103976D01*
X772419Y104286D01*
X776667Y105575D01*
X780583Y107668D01*
X784015Y110485D01*
X786832Y113917D01*
X788925Y117833D01*
X790214Y122081D01*
X790524Y125230D01*
D02*
G37*
G36*
X50730Y149024D02*
X47581Y148714D01*
X43333Y147425D01*
X39417Y145332D01*
X35985Y142515D01*
X33168Y139083D01*
X31075Y135167D01*
X29786Y130919D01*
X29476Y127770D01*
X50730D01*
Y149024D01*
D02*
G37*
G36*
X766730Y125230D02*
X745476D01*
X745786Y122081D01*
X747075Y117833D01*
X749168Y113917D01*
X751985Y110485D01*
X755417Y107668D01*
X759333Y105575D01*
X763581Y104286D01*
X766730Y103976D01*
Y125230D01*
D02*
G37*
G36*
X50730D02*
X29476D01*
X29786Y122081D01*
X31075Y117833D01*
X33168Y113917D01*
X35985Y110485D01*
X39417Y107668D01*
X43333Y105575D01*
X47581Y104286D01*
X50730Y103976D01*
Y125230D01*
D02*
G37*
G36*
X74524D02*
X53270D01*
Y103976D01*
X56419Y104286D01*
X60667Y105575D01*
X64583Y107668D01*
X68015Y110485D01*
X70832Y113917D01*
X72925Y117833D01*
X74214Y122081D01*
X74524Y125230D01*
D02*
G37*
G36*
X53270Y149024D02*
Y127770D01*
X74524D01*
X74214Y130919D01*
X72925Y135167D01*
X70832Y139083D01*
X68015Y142515D01*
X64583Y145332D01*
X60667Y147425D01*
X56419Y148714D01*
X53270Y149024D01*
D02*
G37*
G36*
X788730Y1098730D02*
X767476D01*
X767786Y1095582D01*
X769075Y1091333D01*
X771168Y1087417D01*
X773985Y1083985D01*
X777417Y1081168D01*
X781332Y1079075D01*
X785581Y1077786D01*
X788730Y1077476D01*
Y1098730D01*
D02*
G37*
G36*
X31270Y1122524D02*
Y1101270D01*
X52524D01*
X52214Y1104419D01*
X50925Y1108668D01*
X48832Y1112583D01*
X46015Y1116015D01*
X42583Y1118832D01*
X38667Y1120925D01*
X34418Y1122214D01*
X31270Y1122524D01*
D02*
G37*
G36*
X52524Y1098730D02*
X31270D01*
Y1077476D01*
X34418Y1077786D01*
X38667Y1079075D01*
X42583Y1081168D01*
X46015Y1083985D01*
X48832Y1087417D01*
X50925Y1091333D01*
X52214Y1095582D01*
X52524Y1098730D01*
D02*
G37*
G36*
X766730Y149024D02*
X763581Y148714D01*
X759333Y147425D01*
X755417Y145332D01*
X751985Y142515D01*
X749168Y139083D01*
X747075Y135167D01*
X745786Y130919D01*
X745476Y127770D01*
X766730D01*
Y149024D01*
D02*
G37*
G36*
X769270D02*
Y127770D01*
X790524D01*
X790214Y130919D01*
X788925Y135167D01*
X786832Y139083D01*
X784015Y142515D01*
X780583Y145332D01*
X776667Y147425D01*
X772419Y148714D01*
X769270Y149024D01*
D02*
G37*
G36*
X788730Y2122524D02*
X785581Y2122214D01*
X781332Y2120925D01*
X777417Y2118832D01*
X773985Y2116015D01*
X771168Y2112583D01*
X769075Y2108667D01*
X767786Y2104419D01*
X767476Y2101270D01*
X788730D01*
Y2122524D01*
D02*
G37*
G36*
X366052Y2265738D02*
X364084Y2265479D01*
X362249Y2264719D01*
X360674Y2263510D01*
X359466Y2261935D01*
X358706Y2260101D01*
X358447Y2258133D01*
X358706Y2256165D01*
X359466Y2254330D01*
X360674Y2252755D01*
X362249Y2251547D01*
X364084Y2250787D01*
X366052Y2250528D01*
X368020Y2250787D01*
X369855Y2251547D01*
X371430Y2252755D01*
X372638Y2254330D01*
X373398Y2256165D01*
X373657Y2258133D01*
X373398Y2260101D01*
X372638Y2261935D01*
X371430Y2263510D01*
X369855Y2264719D01*
X368020Y2265479D01*
X366052Y2265738D01*
D02*
G37*
G36*
X238052Y2286390D02*
X236084Y2286131D01*
X234249Y2285371D01*
X232674Y2284162D01*
X231466Y2282587D01*
X230706Y2280753D01*
X230447Y2278785D01*
X230706Y2276817D01*
X231466Y2274982D01*
X232674Y2273407D01*
X234249Y2272199D01*
X236084Y2271439D01*
X238052Y2271180D01*
X240020Y2271439D01*
X241854Y2272199D01*
X243430Y2273407D01*
X244638Y2274982D01*
X245398Y2276817D01*
X245657Y2278785D01*
X245398Y2280753D01*
X244638Y2282587D01*
X243430Y2284162D01*
X241854Y2285371D01*
X240020Y2286131D01*
X238052Y2286390D01*
D02*
G37*
G36*
Y2265634D02*
X236084Y2265375D01*
X234249Y2264615D01*
X232674Y2263407D01*
X231466Y2261832D01*
X230706Y2259997D01*
X230447Y2258029D01*
X230706Y2256061D01*
X231466Y2254227D01*
X232674Y2252652D01*
X234249Y2251443D01*
X236084Y2250683D01*
X238052Y2250424D01*
X240020Y2250683D01*
X241854Y2251443D01*
X243430Y2252652D01*
X244638Y2254227D01*
X245398Y2256061D01*
X245657Y2258029D01*
X245398Y2259997D01*
X244638Y2261832D01*
X243430Y2263407D01*
X241854Y2264615D01*
X240020Y2265375D01*
X238052Y2265634D01*
D02*
G37*
G36*
X427205Y2270641D02*
X424192Y2270244D01*
X421385Y2269081D01*
X418974Y2267231D01*
X417125Y2264821D01*
X415962Y2262014D01*
X415565Y2259001D01*
X415962Y2255988D01*
X417125Y2253181D01*
X418974Y2250771D01*
X421385Y2248921D01*
X424192Y2247758D01*
X427205Y2247361D01*
X430218Y2247758D01*
X433025Y2248921D01*
X435435Y2250771D01*
X437285Y2253181D01*
X438448Y2255988D01*
X438844Y2259001D01*
X438448Y2262014D01*
X437285Y2264821D01*
X435435Y2267231D01*
X433025Y2269081D01*
X430218Y2270244D01*
X427205Y2270641D01*
D02*
G37*
G36*
X50730Y3122524D02*
X47581Y3122214D01*
X43333Y3120925D01*
X39417Y3118832D01*
X35985Y3116016D01*
X33168Y3112583D01*
X31075Y3108668D01*
X29786Y3104419D01*
X29476Y3101270D01*
X50730D01*
Y3122524D01*
D02*
G37*
G36*
X366052Y2286494D02*
X364084Y2286235D01*
X362249Y2285475D01*
X360674Y2284267D01*
X359466Y2282691D01*
X358706Y2280857D01*
X358447Y2278889D01*
X358706Y2276921D01*
X359466Y2275086D01*
X360674Y2273511D01*
X362249Y2272303D01*
X364084Y2271543D01*
X366052Y2271284D01*
X368020Y2271543D01*
X369855Y2272303D01*
X371430Y2273511D01*
X372638Y2275086D01*
X373398Y2276921D01*
X373657Y2278889D01*
X373398Y2280857D01*
X372638Y2282691D01*
X371430Y2284267D01*
X369855Y2285475D01*
X368020Y2286235D01*
X366052Y2286494D01*
D02*
G37*
G36*
X766730Y3098730D02*
X745476D01*
X745786Y3095582D01*
X747075Y3091333D01*
X749168Y3087417D01*
X751985Y3083985D01*
X755417Y3081168D01*
X759333Y3079075D01*
X763581Y3077786D01*
X766730Y3077476D01*
Y3098730D01*
D02*
G37*
G36*
X790524D02*
X769270D01*
Y3077476D01*
X772419Y3077786D01*
X776667Y3079075D01*
X780583Y3081168D01*
X784015Y3083985D01*
X786832Y3087417D01*
X788925Y3091333D01*
X790214Y3095582D01*
X790524Y3098730D01*
D02*
G37*
G36*
X74524D02*
X53270D01*
Y3077476D01*
X56419Y3077786D01*
X60667Y3079075D01*
X64583Y3081168D01*
X68015Y3083985D01*
X70832Y3087417D01*
X72925Y3091333D01*
X74214Y3095582D01*
X74524Y3098730D01*
D02*
G37*
G36*
X402148Y2325123D02*
X399135Y2324727D01*
X396328Y2323564D01*
X393918Y2321714D01*
X392068Y2319304D01*
X390905Y2316496D01*
X390508Y2313484D01*
X390905Y2310471D01*
X392068Y2307664D01*
X393918Y2305253D01*
X396328Y2303404D01*
X399135Y2302241D01*
X402148Y2301844D01*
X405160Y2302241D01*
X407968Y2303404D01*
X410378Y2305253D01*
X412228Y2307664D01*
X413391Y2310471D01*
X413787Y2313484D01*
X413391Y2316496D01*
X412228Y2319304D01*
X410378Y2321714D01*
X407968Y2323564D01*
X405160Y2324727D01*
X402148Y2325123D01*
D02*
G37*
G36*
X50730Y3098730D02*
X29476D01*
X29786Y3095582D01*
X31075Y3091333D01*
X33168Y3087417D01*
X35985Y3083985D01*
X39417Y3081168D01*
X43333Y3079075D01*
X47581Y3077786D01*
X50730Y3077476D01*
Y3098730D01*
D02*
G37*
G36*
X177475Y2168546D02*
X174462Y2168150D01*
X171655Y2166987D01*
X169245Y2165137D01*
X167395Y2162727D01*
X166232Y2159919D01*
X165835Y2156907D01*
X166232Y2153894D01*
X167395Y2151087D01*
X169245Y2148677D01*
X171655Y2146827D01*
X174462Y2145664D01*
X177475Y2145267D01*
X180487Y2145664D01*
X183295Y2146827D01*
X185705Y2148677D01*
X187555Y2151087D01*
X188718Y2153894D01*
X189115Y2156907D01*
X188718Y2159919D01*
X187555Y2162727D01*
X185705Y2165137D01*
X183295Y2166987D01*
X180487Y2168150D01*
X177475Y2168546D01*
D02*
G37*
G36*
X238052Y2166494D02*
X236084Y2166235D01*
X234249Y2165475D01*
X232674Y2164267D01*
X231466Y2162691D01*
X230706Y2160857D01*
X230447Y2158889D01*
X230706Y2156921D01*
X231466Y2155086D01*
X232674Y2153511D01*
X234249Y2152303D01*
X236084Y2151543D01*
X238052Y2151284D01*
X240020Y2151543D01*
X241854Y2152303D01*
X243430Y2153511D01*
X244638Y2155086D01*
X245398Y2156921D01*
X245657Y2158889D01*
X245398Y2160857D01*
X244638Y2162691D01*
X243430Y2164267D01*
X241854Y2165475D01*
X240020Y2166235D01*
X238052Y2166494D01*
D02*
G37*
G36*
X427205Y2167637D02*
X424192Y2167241D01*
X421385Y2166078D01*
X418974Y2164228D01*
X417125Y2161818D01*
X415962Y2159010D01*
X415565Y2155998D01*
X415962Y2152985D01*
X417125Y2150178D01*
X418974Y2147767D01*
X421385Y2145918D01*
X424192Y2144755D01*
X427205Y2144358D01*
X430218Y2144755D01*
X433025Y2145918D01*
X435435Y2147767D01*
X437285Y2150178D01*
X438448Y2152985D01*
X438844Y2155998D01*
X438448Y2159010D01*
X437285Y2161818D01*
X435435Y2164228D01*
X433025Y2166078D01*
X430218Y2167241D01*
X427205Y2167637D01*
D02*
G37*
G36*
X238052Y2145738D02*
X236084Y2145479D01*
X234249Y2144719D01*
X232674Y2143510D01*
X231466Y2141935D01*
X230706Y2140101D01*
X230447Y2138133D01*
X230706Y2136165D01*
X231466Y2134330D01*
X232674Y2132755D01*
X234249Y2131547D01*
X236084Y2130787D01*
X238052Y2130528D01*
X240020Y2130787D01*
X241854Y2131547D01*
X243430Y2132755D01*
X244638Y2134330D01*
X245398Y2136165D01*
X245657Y2138133D01*
X245398Y2140101D01*
X244638Y2141935D01*
X243430Y2143510D01*
X241854Y2144719D01*
X240020Y2145479D01*
X238052Y2145738D01*
D02*
G37*
G36*
X366052D02*
X364084Y2145479D01*
X362249Y2144719D01*
X360674Y2143510D01*
X359466Y2141935D01*
X358706Y2140101D01*
X358447Y2138133D01*
X358706Y2136165D01*
X359466Y2134330D01*
X360674Y2132755D01*
X362249Y2131547D01*
X364084Y2130787D01*
X366052Y2130528D01*
X368020Y2130787D01*
X369855Y2131547D01*
X371430Y2132755D01*
X372638Y2134330D01*
X373398Y2136165D01*
X373657Y2138133D01*
X373398Y2140101D01*
X372638Y2141935D01*
X371430Y2143510D01*
X369855Y2144719D01*
X368020Y2145479D01*
X366052Y2145738D01*
D02*
G37*
G36*
Y2166494D02*
X364084Y2166235D01*
X362249Y2165475D01*
X360674Y2164267D01*
X359466Y2162691D01*
X358706Y2160857D01*
X358447Y2158889D01*
X358706Y2156921D01*
X359466Y2155086D01*
X360674Y2153511D01*
X362249Y2152303D01*
X364084Y2151543D01*
X366052Y2151284D01*
X368020Y2151543D01*
X369855Y2152303D01*
X371430Y2153511D01*
X372638Y2155086D01*
X373398Y2156921D01*
X373657Y2158889D01*
X373398Y2160857D01*
X372638Y2162691D01*
X371430Y2164267D01*
X369855Y2165475D01*
X368020Y2166235D01*
X366052Y2166494D01*
D02*
G37*
G36*
X172771Y2219768D02*
X169758Y2219371D01*
X166951Y2218208D01*
X164541Y2216358D01*
X162691Y2213948D01*
X161528Y2211140D01*
X161131Y2208128D01*
X161528Y2205116D01*
X162691Y2202308D01*
X164541Y2199898D01*
X166951Y2198048D01*
X169758Y2196885D01*
X172771Y2196488D01*
X175784Y2196885D01*
X178591Y2198048D01*
X181001Y2199898D01*
X182851Y2202308D01*
X184014Y2205116D01*
X184411Y2208128D01*
X184014Y2211140D01*
X182851Y2213948D01*
X181001Y2216358D01*
X178591Y2218208D01*
X175784Y2219371D01*
X172771Y2219768D01*
D02*
G37*
G36*
X177475Y2270546D02*
X174462Y2270150D01*
X171655Y2268987D01*
X169245Y2267137D01*
X167395Y2264727D01*
X166232Y2261919D01*
X165835Y2258907D01*
X166232Y2255894D01*
X167395Y2253087D01*
X169245Y2250676D01*
X171655Y2248827D01*
X174462Y2247664D01*
X177475Y2247267D01*
X180487Y2247664D01*
X183295Y2248827D01*
X185705Y2250676D01*
X187555Y2253087D01*
X188718Y2255894D01*
X189115Y2258907D01*
X188718Y2261919D01*
X187555Y2264727D01*
X185705Y2267137D01*
X183295Y2268987D01*
X180487Y2270150D01*
X177475Y2270546D01*
D02*
G37*
G36*
X53270Y3122524D02*
Y3101270D01*
X74524D01*
X74214Y3104419D01*
X72925Y3108668D01*
X70832Y3112583D01*
X68015Y3116016D01*
X64583Y3118832D01*
X60667Y3120925D01*
X56419Y3122214D01*
X53270Y3122524D01*
D02*
G37*
G36*
X769270D02*
Y3101270D01*
X790524D01*
X790214Y3104419D01*
X788925Y3108668D01*
X786832Y3112583D01*
X784015Y3116016D01*
X780583Y3118832D01*
X776667Y3120925D01*
X772419Y3122214D01*
X769270Y3122524D01*
D02*
G37*
G36*
X766730D02*
X763581Y3122214D01*
X759333Y3120925D01*
X755417Y3118832D01*
X751985Y3116016D01*
X749168Y3112583D01*
X747075Y3108668D01*
X745786Y3104419D01*
X745476Y3101270D01*
X766730D01*
Y3122524D01*
D02*
G37*
%LPD*%
G36*
X351364Y1445604D02*
X351364D01*
Y1442885D01*
X350000D01*
X348513Y1442589D01*
X347253Y1441747D01*
X341110Y1435604D01*
X331364D01*
Y1424741D01*
X328636D01*
Y1427460D01*
X321270D01*
Y1420856D01*
X318730D01*
Y1427460D01*
X311364D01*
Y1424741D01*
X308636D01*
Y1432142D01*
X310191Y1433697D01*
X311364Y1433211D01*
Y1432396D01*
X328636D01*
Y1442142D01*
X332609Y1446115D01*
X351364D01*
Y1445604D01*
D02*
G37*
G36*
X386678Y1433942D02*
X369809Y1417073D01*
X368636Y1417559D01*
Y1419586D01*
X361270D01*
Y1414252D01*
X365329D01*
X365815Y1413079D01*
X357597Y1404861D01*
X357185Y1404586D01*
X356322Y1403294D01*
X356018Y1401770D01*
Y1398968D01*
X352010Y1394959D01*
X351147Y1393667D01*
X351096Y1393414D01*
X350844Y1392144D01*
Y1371447D01*
X348180Y1368783D01*
X347317Y1367491D01*
X347266Y1367238D01*
X347014Y1365968D01*
Y1324733D01*
X347266Y1323462D01*
X347317Y1323209D01*
X348180Y1321917D01*
X350097Y1320000D01*
X348180Y1318083D01*
X347317Y1316791D01*
X347266Y1316538D01*
X347014Y1315267D01*
Y1276537D01*
X346032Y1275732D01*
X345820Y1275774D01*
X339720D01*
X283885Y1331609D01*
Y1394252D01*
X288636D01*
Y1396971D01*
X290000D01*
X291487Y1397267D01*
X292747Y1398109D01*
X298890Y1404252D01*
X308636D01*
Y1406971D01*
X331364D01*
Y1404252D01*
X348636D01*
Y1416971D01*
X351364D01*
Y1414252D01*
X358730D01*
Y1420856D01*
Y1427460D01*
X351364D01*
Y1424741D01*
X348636D01*
Y1432142D01*
X350191Y1433697D01*
X351364Y1433211D01*
Y1432396D01*
X368636D01*
Y1435115D01*
X386192D01*
X386678Y1433942D01*
D02*
G37*
G36*
X396115Y1418962D02*
Y1366890D01*
X392360D01*
Y1323810D01*
X396115D01*
Y1316190D01*
X392360D01*
Y1292504D01*
X388813Y1288957D01*
X387640Y1289443D01*
Y1316190D01*
X383885D01*
Y1323810D01*
X387640D01*
Y1366890D01*
X372360D01*
Y1323810D01*
X376115D01*
Y1316190D01*
X372360D01*
Y1283018D01*
X368813Y1279472D01*
X367640Y1279958D01*
Y1316190D01*
X363885D01*
Y1323810D01*
X367640D01*
Y1366890D01*
X363885D01*
Y1388391D01*
X394942Y1419448D01*
X396115Y1418962D01*
D02*
G37*
%LPC*%
G36*
X368636Y1427460D02*
X361270D01*
Y1422126D01*
X368636D01*
Y1427460D01*
D02*
G37*
%LPD*%
D14*
X440000Y1400000D02*
X440000Y1400000D01*
X440000Y1345350D02*
Y1400000D01*
X420000Y1270000D02*
Y1294650D01*
X380000Y1230000D02*
X420000Y1270000D01*
Y1294650D02*
Y1345350D01*
X440000Y1294650D02*
Y1345350D01*
D15*
X360000Y1401770D02*
X412433Y1454203D01*
X338111Y1271889D02*
X345820D01*
X280000Y1330000D02*
X338111Y1271889D01*
X280000Y1330000D02*
Y1400856D01*
X350000Y1230000D02*
X380000D01*
X269999Y1310001D02*
X350000Y1230000D01*
X269999Y1310001D02*
Y1406537D01*
X280000Y1416539D01*
X388910Y1283560D02*
X400000Y1294650D01*
X381408Y1266570D02*
X388910Y1274072D01*
X351139Y1266570D02*
X381408D01*
X388910Y1274072D02*
Y1283560D01*
X345820Y1271889D02*
X351139Y1266570D01*
X280000Y1400856D02*
X290000D01*
X300000Y1410856D01*
X340000D01*
X350000Y1439000D02*
X360000D01*
X340000Y1429000D02*
X350000Y1439000D01*
X310000D02*
X320000D01*
X300000Y1429000D02*
X310000Y1439000D01*
X418838Y1500597D02*
X419750Y1499685D01*
X405838Y1454927D02*
Y1459403D01*
X360000Y1439000D02*
X389911D01*
X405838Y1454927D01*
Y1459403D02*
X406750Y1460315D01*
X320000Y1420856D02*
X360000D01*
X320000Y1439000D02*
X331000Y1450000D01*
X389935D01*
X400250Y1460315D01*
X380000Y1294650D02*
Y1345350D01*
X360000Y1294650D02*
Y1345350D01*
X400000Y1294650D02*
Y1345350D01*
X360000D02*
Y1390000D01*
X419750Y1449750D01*
X400000Y1345350D02*
Y1422681D01*
X431638Y1498773D02*
X437305Y1493106D01*
X420662Y1498773D02*
X431638D01*
X400000Y1422681D02*
X437305Y1459987D01*
Y1493106D01*
X419750Y1499685D02*
X420662Y1498773D01*
X420000Y1345350D02*
Y1435363D01*
X442480Y1457843D01*
Y1495250D01*
X430330Y1507400D02*
X442480Y1495250D01*
X416354Y1507400D02*
X430330D01*
X413663Y1504709D02*
X416354Y1507400D01*
X413663Y1500098D02*
Y1504709D01*
X281856Y1420856D02*
X320000D01*
D16*
X165000Y1746000D02*
D03*
D17*
X238052Y2138133D02*
D03*
Y2258029D02*
D03*
X366052Y2138133D02*
D03*
Y2258133D02*
D03*
Y2278889D02*
D03*
Y2158889D02*
D03*
X238052Y2278785D02*
D03*
Y2158889D02*
D03*
D18*
X172771Y2208128D02*
D03*
X177475Y2258907D02*
D03*
X402148Y2313484D02*
D03*
X427205Y2259001D02*
D03*
Y2155998D02*
D03*
X402148Y2103261D02*
D03*
X177475Y2156907D02*
D03*
D19*
X30000Y1100000D02*
D03*
X52000Y126500D02*
D03*
X768000D02*
D03*
X790000Y1100000D02*
D03*
Y2100000D02*
D03*
X768000Y3100000D02*
D03*
X52000D02*
D03*
X30000Y2100000D02*
D03*
D20*
X440000Y1400000D02*
D03*
X380000Y1230000D02*
D03*
D21*
X360000Y1345350D02*
D03*
Y1294650D02*
D03*
X380000Y1345350D02*
D03*
Y1294650D02*
D03*
X400000Y1345350D02*
D03*
Y1294650D02*
D03*
X420000Y1345350D02*
D03*
Y1294650D02*
D03*
X440000Y1345350D02*
D03*
Y1294650D02*
D03*
D22*
X300000Y1429000D02*
D03*
Y1410856D02*
D03*
X320000Y1439000D02*
D03*
Y1420856D02*
D03*
X340000Y1429000D02*
D03*
Y1410856D02*
D03*
X360000Y1439000D02*
D03*
Y1420856D02*
D03*
X280000Y1419000D02*
D03*
Y1400856D02*
D03*
D23*
X419750Y1460315D02*
D03*
X413250D02*
D03*
X406750D02*
D03*
X400250D02*
D03*
Y1499685D02*
D03*
X406750D02*
D03*
X413250D02*
D03*
X419750D02*
D03*
D24*
X390315Y1470250D02*
D03*
Y1476750D02*
D03*
Y1483250D02*
D03*
Y1489750D02*
D03*
X429685D02*
D03*
Y1483250D02*
D03*
Y1476750D02*
D03*
Y1470250D02*
D03*
D25*
X410000Y1480000D02*
D03*
D26*
X350995Y1365968D02*
X354825Y1369798D01*
X350995Y1324733D02*
X354825Y1320903D01*
X350995Y1315267D02*
X354825Y1319097D01*
Y1320903D01*
Y1369798D02*
Y1392144D01*
X360000Y1397319D02*
Y1401770D01*
X354825Y1392144D02*
X360000Y1397319D01*
X350995Y1324733D02*
Y1365968D01*
Y1274033D02*
Y1315267D01*
Y1274033D02*
X353283Y1271745D01*
X280000Y1416539D02*
Y1419000D01*
X380000Y1285027D02*
Y1294650D01*
X366717Y1271745D02*
X380000Y1285027D01*
X353283Y1271745D02*
X366717D01*
X412433Y1454203D02*
Y1459498D01*
X413250Y1460315D01*
X419750Y1449750D02*
Y1460315D01*
X280000Y1419000D02*
X281856Y1420856D01*
M02*
