%FSLAX44Y44*%
%MOMM*%
G71*
G01*
G75*
%ADD10R,6.0000X2.5000*%
%ADD11R,4.0000X6.9850*%
%ADD12R,2.5000X6.0000*%
%ADD13R,6.9850X4.0000*%
%ADD14C,1.0000*%
%ADD15C,0.2540*%
%ADD16C,5.0000*%
%ADD17C,1.0000*%
%ADD18C,1.8000*%
%ADD19C,4.0000*%
%ADD20C,1.2700*%
%ADD21R,1.0200X3.8000*%
%ADD22R,1.2192X0.8128*%
%ADD23R,0.3556X0.7620*%
%ADD24R,0.7620X0.3556*%
%ADD25R,2.7940X2.7940*%
%ADD26C,0.2730*%
D15*
X124460Y3103172D02*
X129539D01*
X126999D01*
Y3118407D01*
X124460Y3115868D01*
X377187Y3101648D02*
X367030D01*
X377187Y3111805D01*
Y3114344D01*
X374648Y3116883D01*
X369569D01*
X367030Y3114344D01*
X651256Y2983026D02*
X653795Y2985565D01*
X658874D01*
X661413Y2983026D01*
Y2980487D01*
X658874Y2977948D01*
X656335D01*
X658874D01*
X661413Y2975409D01*
Y2972869D01*
X658874Y2970330D01*
X653795D01*
X651256Y2972869D01*
X508760Y2970330D02*
Y2985565D01*
X501142Y2977948D01*
X511299D01*
X361439Y2985565D02*
X351282D01*
Y2977948D01*
X356361Y2980487D01*
X358900D01*
X361439Y2977948D01*
Y2972869D01*
X358900Y2970330D01*
X353821D01*
X351282Y2972869D01*
X211325Y2985565D02*
X206247Y2983026D01*
X201168Y2977948D01*
Y2972869D01*
X203707Y2970330D01*
X208786D01*
X211325Y2972869D01*
Y2975409D01*
X208786Y2977948D01*
X201168D01*
X51308Y2985565D02*
X61465D01*
Y2983026D01*
X51308Y2972869D01*
Y2970330D01*
X42672Y2675940D02*
X45211Y2678479D01*
X50290D01*
X52829Y2675940D01*
Y2673401D01*
X50290Y2670862D01*
X52829Y2668322D01*
Y2665783D01*
X50290Y2663244D01*
X45211D01*
X42672Y2665783D01*
Y2668322D01*
X45211Y2670862D01*
X42672Y2673401D01*
Y2675940D01*
X45211Y2670862D02*
X50290D01*
X192786Y2665783D02*
X195325Y2663244D01*
X200404D01*
X202943Y2665783D01*
Y2675940D01*
X200404Y2678479D01*
X195325D01*
X192786Y2675940D01*
Y2673401D01*
X195325Y2670862D01*
X202943D01*
X363220Y2688644D02*
X368299D01*
X365759D01*
Y2703879D01*
X363220Y2701340D01*
X375916D02*
X378455Y2703879D01*
X383534D01*
X386073Y2701340D01*
Y2691183D01*
X383534Y2688644D01*
X378455D01*
X375916Y2691183D01*
Y2701340D01*
X513080Y2688644D02*
X518159D01*
X515619D01*
Y2703879D01*
X513080Y2701340D01*
X525776Y2688644D02*
X530854D01*
X528315D01*
Y2703879D01*
X525776Y2701340D01*
X663194Y2688644D02*
X668273D01*
X665733D01*
Y2703879D01*
X663194Y2701340D01*
X686047Y2688644D02*
X675890D01*
X686047Y2698801D01*
Y2701340D01*
X683508Y2703879D01*
X678429D01*
X675890Y2701340D01*
X671576Y2465886D02*
X676655D01*
X674115D01*
Y2481121D01*
X671576Y2478582D01*
X684272D02*
X686811Y2481121D01*
X691890D01*
X694429Y2478582D01*
Y2476043D01*
X691890Y2473504D01*
X689350D01*
X691890D01*
X694429Y2470965D01*
Y2468425D01*
X691890Y2465886D01*
X686811D01*
X684272Y2468425D01*
X521462Y2465886D02*
X526541D01*
X524001D01*
Y2481121D01*
X521462Y2478582D01*
X541776Y2465886D02*
Y2481121D01*
X534158Y2473504D01*
X544315D01*
X513080Y2158546D02*
X518159D01*
X515619D01*
Y2173781D01*
X513080Y2171242D01*
X535933Y2173781D02*
X525776D01*
Y2166164D01*
X530854Y2168703D01*
X533394D01*
X535933Y2166164D01*
Y2161085D01*
X533394Y2158546D01*
X528315D01*
X525776Y2161085D01*
X653034Y2158546D02*
X658113D01*
X655573D01*
Y2173781D01*
X653034Y2171242D01*
X675887Y2173781D02*
X670808Y2171242D01*
X665730Y2166164D01*
Y2161085D01*
X668269Y2158546D01*
X673348D01*
X675887Y2161085D01*
Y2163625D01*
X673348Y2166164D01*
X665730D01*
X671576Y1930708D02*
X676655D01*
X674115D01*
Y1945943D01*
X671576Y1943404D01*
X684272Y1945943D02*
X694429D01*
Y1943404D01*
X684272Y1933247D01*
Y1930708D01*
X521462D02*
X526541D01*
X524001D01*
Y1945943D01*
X521462Y1943404D01*
X534158D02*
X536697Y1945943D01*
X541776D01*
X544315Y1943404D01*
Y1940865D01*
X541776Y1938326D01*
X544315Y1935786D01*
Y1933247D01*
X541776Y1930708D01*
X536697D01*
X534158Y1933247D01*
Y1935786D01*
X536697Y1938326D01*
X534158Y1940865D01*
Y1943404D01*
X536697Y1938326D02*
X541776D01*
X371602Y1930708D02*
X376681D01*
X374141D01*
Y1945943D01*
X371602Y1943404D01*
X384298Y1933247D02*
X386837Y1930708D01*
X391916D01*
X394455Y1933247D01*
Y1943404D01*
X391916Y1945943D01*
X386837D01*
X384298Y1943404D01*
Y1940865D01*
X386837Y1938326D01*
X394455D01*
X231645Y1930708D02*
X221488D01*
X231645Y1940865D01*
Y1943404D01*
X229106Y1945943D01*
X224027D01*
X221488Y1943404D01*
X236723D02*
X239263Y1945943D01*
X244341D01*
X246880Y1943404D01*
Y1933247D01*
X244341Y1930708D01*
X239263D01*
X236723Y1933247D01*
Y1943404D01*
X192529Y2062026D02*
X182372D01*
X192529Y2072183D01*
Y2074722D01*
X189990Y2077261D01*
X184911D01*
X182372Y2074722D01*
X197607Y2062026D02*
X202686D01*
X200147D01*
Y2077261D01*
X197607Y2074722D01*
X86357Y2043484D02*
X76200D01*
X86357Y2053641D01*
Y2056180D01*
X83818Y2058719D01*
X78739D01*
X76200Y2056180D01*
X101592Y2043484D02*
X91435D01*
X101592Y2053641D01*
Y2056180D01*
X99053Y2058719D01*
X93975D01*
X91435Y2056180D01*
X73149Y1623622D02*
X62992D01*
X73149Y1633779D01*
Y1636318D01*
X70610Y1638857D01*
X65531D01*
X62992Y1636318D01*
X78227D02*
X80766Y1638857D01*
X85845D01*
X88384Y1636318D01*
Y1633779D01*
X85845Y1631240D01*
X83306D01*
X85845D01*
X88384Y1628701D01*
Y1626161D01*
X85845Y1623622D01*
X80766D01*
X78227Y1626161D01*
X223263Y1623622D02*
X213106D01*
X223263Y1633779D01*
Y1636318D01*
X220724Y1638857D01*
X215645D01*
X213106Y1636318D01*
X235959Y1623622D02*
Y1638857D01*
X228341Y1631240D01*
X238498D01*
X373377Y1623622D02*
X363220D01*
X373377Y1633779D01*
Y1636318D01*
X370838Y1638857D01*
X365759D01*
X363220Y1636318D01*
X388612Y1638857D02*
X378455D01*
Y1631240D01*
X383534Y1633779D01*
X386073D01*
X388612Y1631240D01*
Y1626161D01*
X386073Y1623622D01*
X380994D01*
X378455Y1626161D01*
X523237Y1623622D02*
X513080D01*
X523237Y1633779D01*
Y1636318D01*
X520698Y1638857D01*
X515619D01*
X513080Y1636318D01*
X538472Y1638857D02*
X533394Y1636318D01*
X528315Y1631240D01*
Y1626161D01*
X530854Y1623622D01*
X535933D01*
X538472Y1626161D01*
Y1628701D01*
X535933Y1631240D01*
X528315D01*
X673351Y1623622D02*
X663194D01*
X673351Y1633779D01*
Y1636318D01*
X670812Y1638857D01*
X665733D01*
X663194Y1636318D01*
X678429Y1638857D02*
X688586D01*
Y1636318D01*
X678429Y1626161D01*
Y1623622D01*
X651761Y1395784D02*
X641604D01*
X651761Y1405941D01*
Y1408480D01*
X649222Y1411019D01*
X644143D01*
X641604Y1408480D01*
X656839D02*
X659379Y1411019D01*
X664457D01*
X666996Y1408480D01*
Y1405941D01*
X664457Y1403402D01*
X666996Y1400862D01*
Y1398323D01*
X664457Y1395784D01*
X659379D01*
X656839Y1398323D01*
Y1400862D01*
X659379Y1403402D01*
X656839Y1405941D01*
Y1408480D01*
X659379Y1403402D02*
X664457D01*
X531619Y1395784D02*
X521462D01*
X531619Y1405941D01*
Y1408480D01*
X529080Y1411019D01*
X524001D01*
X521462Y1408480D01*
X536697Y1398323D02*
X539236Y1395784D01*
X544315D01*
X546854Y1398323D01*
Y1408480D01*
X544315Y1411019D01*
X539236D01*
X536697Y1408480D01*
Y1405941D01*
X539236Y1403402D01*
X546854D01*
X371602Y1408480D02*
X374141Y1411019D01*
X379220D01*
X381759Y1408480D01*
Y1405941D01*
X379220Y1403402D01*
X376681D01*
X379220D01*
X381759Y1400862D01*
Y1398323D01*
X379220Y1395784D01*
X374141D01*
X371602Y1398323D01*
X386837Y1408480D02*
X389376Y1411019D01*
X394455D01*
X396994Y1408480D01*
Y1398323D01*
X394455Y1395784D01*
X389376D01*
X386837Y1398323D01*
Y1408480D01*
X221488D02*
X224027Y1411019D01*
X229106D01*
X231645Y1408480D01*
Y1405941D01*
X229106Y1403402D01*
X226567D01*
X229106D01*
X231645Y1400862D01*
Y1398323D01*
X229106Y1395784D01*
X224027D01*
X221488Y1398323D01*
X236723Y1395784D02*
X241802D01*
X239263D01*
Y1411019D01*
X236723Y1408480D01*
X91440D02*
X93979Y1411019D01*
X99058D01*
X101597Y1408480D01*
Y1405941D01*
X99058Y1403402D01*
X96519D01*
X99058D01*
X101597Y1400862D01*
Y1398323D01*
X99058Y1395784D01*
X93979D01*
X91440Y1398323D01*
X116832Y1395784D02*
X106675D01*
X116832Y1405941D01*
Y1408480D01*
X114293Y1411019D01*
X109214D01*
X106675Y1408480D01*
X83058Y1101140D02*
X85597Y1103679D01*
X90676D01*
X93215Y1101140D01*
Y1098601D01*
X90676Y1096062D01*
X88137D01*
X90676D01*
X93215Y1093522D01*
Y1090983D01*
X90676Y1088444D01*
X85597D01*
X83058Y1090983D01*
X98293Y1101140D02*
X100833Y1103679D01*
X105911D01*
X108450Y1101140D01*
Y1098601D01*
X105911Y1096062D01*
X103372D01*
X105911D01*
X108450Y1093522D01*
Y1090983D01*
X105911Y1088444D01*
X100833D01*
X98293Y1090983D01*
X213106Y1101140D02*
X215645Y1103679D01*
X220724D01*
X223263Y1101140D01*
Y1098601D01*
X220724Y1096062D01*
X218185D01*
X220724D01*
X223263Y1093522D01*
Y1090983D01*
X220724Y1088444D01*
X215645D01*
X213106Y1090983D01*
X235959Y1088444D02*
Y1103679D01*
X228341Y1096062D01*
X238498D01*
X363220Y1101140D02*
X365759Y1103679D01*
X370838D01*
X373377Y1101140D01*
Y1098601D01*
X370838Y1096062D01*
X368299D01*
X370838D01*
X373377Y1093522D01*
Y1090983D01*
X370838Y1088444D01*
X365759D01*
X363220Y1090983D01*
X388612Y1103679D02*
X378455D01*
Y1096062D01*
X383534Y1098601D01*
X386073D01*
X388612Y1096062D01*
Y1090983D01*
X386073Y1088444D01*
X380994D01*
X378455Y1090983D01*
X513080Y1101140D02*
X515619Y1103679D01*
X520698D01*
X523237Y1101140D01*
Y1098601D01*
X520698Y1096062D01*
X518159D01*
X520698D01*
X523237Y1093522D01*
Y1090983D01*
X520698Y1088444D01*
X515619D01*
X513080Y1090983D01*
X538472Y1103679D02*
X533394Y1101140D01*
X528315Y1096062D01*
Y1090983D01*
X530854Y1088444D01*
X535933D01*
X538472Y1090983D01*
Y1093522D01*
X535933Y1096062D01*
X528315D01*
X663194Y1101140D02*
X665733Y1103679D01*
X670812D01*
X673351Y1101140D01*
Y1098601D01*
X670812Y1096062D01*
X668273D01*
X670812D01*
X673351Y1093522D01*
Y1090983D01*
X670812Y1088444D01*
X665733D01*
X663194Y1090983D01*
X678429Y1103679D02*
X688586D01*
Y1101140D01*
X678429Y1090983D01*
Y1088444D01*
X671576Y873556D02*
X674115Y876095D01*
X679194D01*
X681733Y873556D01*
Y871017D01*
X679194Y868478D01*
X676655D01*
X679194D01*
X681733Y865938D01*
Y863399D01*
X679194Y860860D01*
X674115D01*
X671576Y863399D01*
X686811Y873556D02*
X689351Y876095D01*
X694429D01*
X696968Y873556D01*
Y871017D01*
X694429Y868478D01*
X696968Y865938D01*
Y863399D01*
X694429Y860860D01*
X689351D01*
X686811Y863399D01*
Y865938D01*
X689351Y868478D01*
X686811Y871017D01*
Y873556D01*
X689351Y868478D02*
X694429D01*
X521462Y873556D02*
X524001Y876095D01*
X529080D01*
X531619Y873556D01*
Y871017D01*
X529080Y868478D01*
X526541D01*
X529080D01*
X531619Y865938D01*
Y863399D01*
X529080Y860860D01*
X524001D01*
X521462Y863399D01*
X536697D02*
X539236Y860860D01*
X544315D01*
X546854Y863399D01*
Y873556D01*
X544315Y876095D01*
X539236D01*
X536697Y873556D01*
Y871017D01*
X539236Y868478D01*
X546854D01*
X379220Y860860D02*
Y876095D01*
X371602Y868478D01*
X381759D01*
X386837Y873556D02*
X389376Y876095D01*
X394455D01*
X396994Y873556D01*
Y863399D01*
X394455Y860860D01*
X389376D01*
X386837Y863399D01*
Y873556D01*
X229106Y860860D02*
Y876095D01*
X221488Y868478D01*
X231645D01*
X236723Y860860D02*
X241802D01*
X239263D01*
Y876095D01*
X236723Y873556D01*
X79246Y860860D02*
Y876095D01*
X71628Y868478D01*
X81785D01*
X97020Y860860D02*
X86863D01*
X97020Y871017D01*
Y873556D01*
X94481Y876095D01*
X89403D01*
X86863Y873556D01*
X70610Y553520D02*
Y568755D01*
X62992Y561138D01*
X73149D01*
X78227Y566216D02*
X80766Y568755D01*
X85845D01*
X88384Y566216D01*
Y563677D01*
X85845Y561138D01*
X83306D01*
X85845D01*
X88384Y558599D01*
Y556059D01*
X85845Y553520D01*
X80766D01*
X78227Y556059D01*
X220724Y553520D02*
Y568755D01*
X213106Y561138D01*
X223263D01*
X235959Y553520D02*
Y568755D01*
X228341Y561138D01*
X238498D01*
X370838Y553520D02*
Y568755D01*
X363220Y561138D01*
X373377D01*
X388612Y568755D02*
X378455D01*
Y561138D01*
X383534Y563677D01*
X386073D01*
X388612Y561138D01*
Y556059D01*
X386073Y553520D01*
X380994D01*
X378455Y556059D01*
X520698Y553520D02*
Y568755D01*
X513080Y561138D01*
X523237D01*
X538472Y568755D02*
X533394Y566216D01*
X528315Y561138D01*
Y556059D01*
X530854Y553520D01*
X535933D01*
X538472Y556059D01*
Y558599D01*
X535933Y561138D01*
X528315D01*
X670812Y553520D02*
Y568755D01*
X663194Y561138D01*
X673351D01*
X678429Y568755D02*
X688586D01*
Y566216D01*
X678429Y556059D01*
Y553520D01*
X639062Y325936D02*
Y341171D01*
X631444Y333554D01*
X641601D01*
X646679Y338632D02*
X649219Y341171D01*
X654297D01*
X656836Y338632D01*
Y336093D01*
X654297Y333554D01*
X656836Y331015D01*
Y328475D01*
X654297Y325936D01*
X649219D01*
X646679Y328475D01*
Y331015D01*
X649219Y333554D01*
X646679Y336093D01*
Y338632D01*
X649219Y333554D02*
X654297D01*
X529080Y325936D02*
Y341171D01*
X521462Y333554D01*
X531619D01*
X536697Y328475D02*
X539236Y325936D01*
X544315D01*
X546854Y328475D01*
Y338632D01*
X544315Y341171D01*
X539236D01*
X536697Y338632D01*
Y336093D01*
X539236Y333554D01*
X546854D01*
X381759Y341171D02*
X371602D01*
Y333554D01*
X376681Y336093D01*
X379220D01*
X381759Y333554D01*
Y328475D01*
X379220Y325936D01*
X374141D01*
X371602Y328475D01*
X386837Y338632D02*
X389376Y341171D01*
X394455D01*
X396994Y338632D01*
Y328475D01*
X394455Y325936D01*
X389376D01*
X386837Y328475D01*
Y338632D01*
X231645Y341171D02*
X221488D01*
Y333554D01*
X226567Y336093D01*
X229106D01*
X231645Y333554D01*
Y328475D01*
X229106Y325936D01*
X224027D01*
X221488Y328475D01*
X236723Y325936D02*
X241802D01*
X239263D01*
Y341171D01*
X236723Y338632D01*
X111757Y341171D02*
X101600D01*
Y333554D01*
X106679Y336093D01*
X109218D01*
X111757Y333554D01*
Y328475D01*
X109218Y325936D01*
X104139D01*
X101600Y328475D01*
X126992Y325936D02*
X116835D01*
X126992Y336093D01*
Y338632D01*
X124453Y341171D01*
X119375D01*
X116835Y338632D01*
M02*
