%FSLAX44Y44*%
%MOMM*%
G71*
G01*
G75*
G04 Layer_Color=32768*
%ADD10R,6.0000X2.5000*%
%ADD11R,4.0000X6.9850*%
%ADD12R,2.5000X6.0000*%
%ADD13R,6.9850X4.0000*%
%ADD14C,1.0000*%
%ADD15C,0.2540*%
%ADD16C,5.0000*%
%ADD17C,1.0000*%
%ADD18C,1.8000*%
%ADD19C,4.0000*%
%ADD20C,1.2700*%
%ADD21R,1.0200X3.8000*%
%ADD22R,1.2192X0.8128*%
%ADD23R,0.3556X0.7620*%
%ADD24R,0.7620X0.3556*%
%ADD25R,2.7940X2.7940*%
%ADD26C,0.2730*%
%ADD27R,6.2032X2.7032*%
%ADD28R,4.2032X7.1882*%
%ADD29R,2.7032X6.2032*%
%ADD30R,7.1882X4.2032*%
%ADD31C,5.2032*%
%ADD32C,1.2032*%
%ADD33C,2.0032*%
%ADD34C,4.2032*%
%ADD35C,1.4732*%
%ADD36R,1.1200X3.9000*%
%ADD37R,1.4224X1.0160*%
%ADD38R,0.5588X0.9652*%
%ADD39R,0.9652X0.5588*%
%ADD40R,2.9972X2.9972*%
%ADD41R,0.0254X0.0254*%
%ADD42C,0.1524*%
%ADD43C,0.0762*%
%ADD44C,0.1270*%
G36*
X423000Y1502987D02*
X432987D01*
Y1493000D01*
X435273D01*
Y1467000D01*
X432987D01*
Y1457013D01*
X423000D01*
Y1454727D01*
X397000D01*
Y1457013D01*
X387013D01*
Y1467000D01*
X384727D01*
Y1493000D01*
X387013D01*
Y1502987D01*
X397000D01*
Y1505273D01*
X423000D01*
Y1502987D01*
D02*
G37*
D42*
X387013Y1457013D02*
X397000D01*
Y1454727D02*
Y1457013D01*
Y1454727D02*
X423000D01*
Y1457013D01*
X432987D01*
Y1467000D01*
X435273D01*
Y1493000D01*
X432987D02*
X435273D01*
X432987D02*
Y1502987D01*
X423000D02*
X432987D01*
X423000D02*
Y1505273D01*
X397000D02*
X423000D01*
X397000Y1502987D02*
Y1505273D01*
X387013Y1502987D02*
X397000D01*
X387013Y1493000D02*
Y1502987D01*
X384727Y1493000D02*
X387013D01*
X384727Y1467000D02*
Y1493000D01*
Y1467000D02*
X387013D01*
Y1457013D02*
Y1467000D01*
M02*
