%FSLAX44Y44*%
%MOMM*%
G71*
G01*
G75*
G04 Layer_Color=2752767*
%ADD10R,2.5000X6.0000*%
%ADD11R,6.9850X4.0000*%
%ADD12C,1.0000*%
%ADD13C,4.0000*%
%ADD14C,1.2700*%
%ADD15R,1.0200X3.8000*%
%ADD16R,1.2192X0.8128*%
%ADD17R,0.3556X0.7620*%
%ADD18R,0.7620X0.3556*%
%ADD19R,2.7940X2.7940*%
%ADD20C,0.2540*%
%ADD21R,2.7032X6.2032*%
%ADD22R,7.1882X4.2032*%
%ADD23C,4.2032*%
%ADD24C,1.4732*%
%ADD25R,1.1200X3.9000*%
%ADD26R,1.4224X1.0160*%
%ADD27R,0.5588X0.9652*%
%ADD28R,0.9652X0.5588*%
%ADD29R,2.9972X2.9972*%
%ADD30R,0.0254X0.0254*%
%ADD31C,0.1524*%
%ADD32C,0.0762*%
%ADD33C,0.1270*%
%ADD34C,0.1693*%
D33*
X19920Y3068419D02*
Y3078579D01*
X30080D01*
Y3068419D01*
X19920D01*
Y2262919D02*
Y2273079D01*
X30080D01*
Y2262919D01*
X19920D01*
Y1389919D02*
Y1400079D01*
X30080D01*
Y1389919D01*
X19920D01*
Y94919D02*
Y105079D01*
X30080D01*
Y94919D01*
X19920D01*
X789920Y3068419D02*
Y3078579D01*
X800080D01*
Y3068419D01*
X789920D01*
Y2262919D02*
Y2273079D01*
X800080D01*
Y2262919D01*
X789920D01*
Y1389919D02*
Y1400079D01*
X800080D01*
Y1389919D01*
X789920D01*
Y94919D02*
Y105079D01*
X800080D01*
Y94919D01*
X789920D01*
D34*
X455080Y1470000D02*
G03*
X455080Y1470000I-5080J0D01*
G01*
X459080Y1346250D02*
G03*
X459080Y1346250I-5080J0D01*
G01*
M02*
