%FSLAX44Y44*%
%MOMM*%
G71*
G01*
G75*
%ADD10R,2.5000X6.0000*%
%ADD11R,6.9850X4.0000*%
%ADD12C,1.0000*%
%ADD13C,4.0000*%
%ADD14C,1.2700*%
%ADD15R,1.0200X3.8000*%
%ADD16R,1.2192X0.8128*%
%ADD17R,0.3556X0.7620*%
%ADD18R,0.7620X0.3556*%
%ADD19R,2.7940X2.7940*%
%ADD20C,0.2540*%
D20*
X651665Y401044D02*
X646586Y398505D01*
X641508Y393426D01*
Y388348D01*
X644047Y385809D01*
X649126D01*
X651665Y388348D01*
Y390887D01*
X649126Y393426D01*
X641508D01*
X656743Y398505D02*
X659282Y401044D01*
X664361D01*
X666900Y398505D01*
Y388348D01*
X664361Y385809D01*
X659282D01*
X656743Y388348D01*
Y398505D01*
X531777Y401044D02*
X521620D01*
Y393426D01*
X526698Y395965D01*
X529238D01*
X531777Y393426D01*
Y388348D01*
X529238Y385809D01*
X524159D01*
X521620Y388348D01*
X536855D02*
X539394Y385809D01*
X544473D01*
X547012Y388348D01*
Y398505D01*
X544473Y401044D01*
X539394D01*
X536855Y398505D01*
Y395965D01*
X539394Y393426D01*
X547012D01*
X381663Y401044D02*
X371506D01*
Y393426D01*
X376584Y395965D01*
X379123D01*
X381663Y393426D01*
Y388348D01*
X379123Y385809D01*
X374045D01*
X371506Y388348D01*
X386741Y398505D02*
X389280Y401044D01*
X394359D01*
X396898Y398505D01*
Y395965D01*
X394359Y393426D01*
X396898Y390887D01*
Y388348D01*
X394359Y385809D01*
X389280D01*
X386741Y388348D01*
Y390887D01*
X389280Y393426D01*
X386741Y395965D01*
Y398505D01*
X389280Y393426D02*
X394359D01*
X231549Y401044D02*
X221392D01*
Y393426D01*
X226470Y395965D01*
X229009D01*
X231549Y393426D01*
Y388348D01*
X229009Y385809D01*
X223931D01*
X221392Y388348D01*
X236627Y401044D02*
X246784D01*
Y398505D01*
X236627Y388348D01*
Y385809D01*
X81689Y401044D02*
X71532D01*
Y393426D01*
X76610Y395965D01*
X79149D01*
X81689Y393426D01*
Y388348D01*
X79149Y385809D01*
X74071D01*
X71532Y388348D01*
X96924Y401044D02*
X91845Y398505D01*
X86767Y393426D01*
Y388348D01*
X89306Y385809D01*
X94385D01*
X96924Y388348D01*
Y390887D01*
X94385Y393426D01*
X86767D01*
X73307Y603736D02*
X63150D01*
Y596118D01*
X68228Y598657D01*
X70767D01*
X73307Y596118D01*
Y591040D01*
X70767Y588501D01*
X65689D01*
X63150Y591040D01*
X88542Y603736D02*
X78385D01*
Y596118D01*
X83463Y598657D01*
X86003D01*
X88542Y596118D01*
Y591040D01*
X86003Y588501D01*
X80924D01*
X78385Y591040D01*
X223167Y603736D02*
X213010D01*
Y596118D01*
X218088Y598657D01*
X220627D01*
X223167Y596118D01*
Y591040D01*
X220627Y588501D01*
X215549D01*
X213010Y591040D01*
X235863Y588501D02*
Y603736D01*
X228245Y596118D01*
X238402D01*
X373281Y603736D02*
X363124D01*
Y596118D01*
X368202Y598657D01*
X370742D01*
X373281Y596118D01*
Y591040D01*
X370742Y588501D01*
X365663D01*
X363124Y591040D01*
X378359Y601197D02*
X380898Y603736D01*
X385977D01*
X388516Y601197D01*
Y598657D01*
X385977Y596118D01*
X383437D01*
X385977D01*
X388516Y593579D01*
Y591040D01*
X385977Y588501D01*
X380898D01*
X378359Y591040D01*
X523395Y603736D02*
X513238D01*
Y596118D01*
X518316Y598657D01*
X520855D01*
X523395Y596118D01*
Y591040D01*
X520855Y588501D01*
X515777D01*
X513238Y591040D01*
X538630Y588501D02*
X528473D01*
X538630Y598657D01*
Y601197D01*
X536091Y603736D01*
X531012D01*
X528473Y601197D01*
X673255Y603736D02*
X663098D01*
Y596118D01*
X668176Y598657D01*
X670715D01*
X673255Y596118D01*
Y591040D01*
X670715Y588501D01*
X665637D01*
X663098Y591040D01*
X678333Y588501D02*
X683411D01*
X680872D01*
Y603736D01*
X678333Y601197D01*
X681637Y920982D02*
X671480D01*
Y913364D01*
X676558Y915903D01*
X679098D01*
X681637Y913364D01*
Y908286D01*
X679098Y905747D01*
X674019D01*
X671480Y908286D01*
X686715Y918443D02*
X689254Y920982D01*
X694333D01*
X696872Y918443D01*
Y908286D01*
X694333Y905747D01*
X689254D01*
X686715Y908286D01*
Y918443D01*
X529238Y905747D02*
Y920982D01*
X521620Y913364D01*
X531777D01*
X536855Y908286D02*
X539394Y905747D01*
X544473D01*
X547012Y908286D01*
Y918443D01*
X544473Y920982D01*
X539394D01*
X536855Y918443D01*
Y915903D01*
X539394Y913364D01*
X547012D01*
X379123Y905747D02*
Y920982D01*
X371506Y913364D01*
X381663D01*
X386741Y918443D02*
X389280Y920982D01*
X394359D01*
X396898Y918443D01*
Y915903D01*
X394359Y913364D01*
X396898Y910825D01*
Y908286D01*
X394359Y905747D01*
X389280D01*
X386741Y908286D01*
Y910825D01*
X389280Y913364D01*
X386741Y915903D01*
Y918443D01*
X389280Y913364D02*
X394359D01*
X229009Y905747D02*
Y920982D01*
X221392Y913364D01*
X231549D01*
X236627Y920982D02*
X246784D01*
Y918443D01*
X236627Y908286D01*
Y905747D01*
X79149D02*
Y920982D01*
X71532Y913364D01*
X81689D01*
X96924Y920982D02*
X91845Y918443D01*
X86767Y913364D01*
Y908286D01*
X89306Y905747D01*
X94385D01*
X96924Y908286D01*
Y910825D01*
X94385Y913364D01*
X86767D01*
X70767Y1108439D02*
Y1123674D01*
X63150Y1116056D01*
X73307D01*
X88542Y1123674D02*
X78385D01*
Y1116056D01*
X83463Y1118596D01*
X86003D01*
X88542Y1116056D01*
Y1110978D01*
X86003Y1108439D01*
X80924D01*
X78385Y1110978D01*
X220627Y1108439D02*
Y1123674D01*
X213010Y1116056D01*
X223167D01*
X235863Y1108439D02*
Y1123674D01*
X228245Y1116056D01*
X238402D01*
X370742Y1108439D02*
Y1123674D01*
X363124Y1116056D01*
X373281D01*
X378359Y1121135D02*
X380898Y1123674D01*
X385977D01*
X388516Y1121135D01*
Y1118596D01*
X385977Y1116056D01*
X383437D01*
X385977D01*
X388516Y1113517D01*
Y1110978D01*
X385977Y1108439D01*
X380898D01*
X378359Y1110978D01*
X520855Y1108439D02*
Y1123674D01*
X513238Y1116056D01*
X523395D01*
X538630Y1108439D02*
X528473D01*
X538630Y1118596D01*
Y1121135D01*
X536091Y1123674D01*
X531012D01*
X528473Y1121135D01*
X670715Y1108439D02*
Y1123674D01*
X663098Y1116056D01*
X673255D01*
X678333Y1108439D02*
X683411D01*
X680872D01*
Y1123674D01*
X678333Y1121135D01*
X649126Y1425939D02*
Y1441174D01*
X641508Y1433556D01*
X651665D01*
X656743Y1438635D02*
X659282Y1441174D01*
X664361D01*
X666900Y1438635D01*
Y1428478D01*
X664361Y1425939D01*
X659282D01*
X656743Y1428478D01*
Y1438635D01*
X521620D02*
X524159Y1441174D01*
X529238D01*
X531777Y1438635D01*
Y1436095D01*
X529238Y1433556D01*
X526698D01*
X529238D01*
X531777Y1431017D01*
Y1428478D01*
X529238Y1425939D01*
X524159D01*
X521620Y1428478D01*
X536855D02*
X539394Y1425939D01*
X544473D01*
X547012Y1428478D01*
Y1438635D01*
X544473Y1441174D01*
X539394D01*
X536855Y1438635D01*
Y1436095D01*
X539394Y1433556D01*
X547012D01*
X371506Y1438635D02*
X374045Y1441174D01*
X379123D01*
X381663Y1438635D01*
Y1436095D01*
X379123Y1433556D01*
X376584D01*
X379123D01*
X381663Y1431017D01*
Y1428478D01*
X379123Y1425939D01*
X374045D01*
X371506Y1428478D01*
X386741Y1438635D02*
X389280Y1441174D01*
X394359D01*
X396898Y1438635D01*
Y1436095D01*
X394359Y1433556D01*
X396898Y1431017D01*
Y1428478D01*
X394359Y1425939D01*
X389280D01*
X386741Y1428478D01*
Y1431017D01*
X389280Y1433556D01*
X386741Y1436095D01*
Y1438635D01*
X389280Y1433556D02*
X394359D01*
X221392Y1438635D02*
X223931Y1441174D01*
X229009D01*
X231549Y1438635D01*
Y1436095D01*
X229009Y1433556D01*
X226470D01*
X229009D01*
X231549Y1431017D01*
Y1428478D01*
X229009Y1425939D01*
X223931D01*
X221392Y1428478D01*
X236627Y1441174D02*
X246784D01*
Y1438635D01*
X236627Y1428478D01*
Y1425939D01*
X71532Y1438635D02*
X74071Y1441174D01*
X79149D01*
X81689Y1438635D01*
Y1436095D01*
X79149Y1433556D01*
X76610D01*
X79149D01*
X81689Y1431017D01*
Y1428478D01*
X79149Y1425939D01*
X74071D01*
X71532Y1428478D01*
X96924Y1441174D02*
X91845Y1438635D01*
X86767Y1433556D01*
Y1428478D01*
X89306Y1425939D01*
X94385D01*
X96924Y1428478D01*
Y1431017D01*
X94385Y1433556D01*
X86767D01*
X63150Y1641327D02*
X65689Y1643866D01*
X70767D01*
X73307Y1641327D01*
Y1638788D01*
X70767Y1636248D01*
X68228D01*
X70767D01*
X73307Y1633709D01*
Y1631170D01*
X70767Y1628631D01*
X65689D01*
X63150Y1631170D01*
X88542Y1643866D02*
X78385D01*
Y1636248D01*
X83463Y1638788D01*
X86003D01*
X88542Y1636248D01*
Y1631170D01*
X86003Y1628631D01*
X80924D01*
X78385Y1631170D01*
X213010Y1641327D02*
X215549Y1643866D01*
X220627D01*
X223167Y1641327D01*
Y1638788D01*
X220627Y1636248D01*
X218088D01*
X220627D01*
X223167Y1633709D01*
Y1631170D01*
X220627Y1628631D01*
X215549D01*
X213010Y1631170D01*
X235863Y1628631D02*
Y1643866D01*
X228245Y1636248D01*
X238402D01*
X363124Y1641327D02*
X365663Y1643866D01*
X370742D01*
X373281Y1641327D01*
Y1638788D01*
X370742Y1636248D01*
X368202D01*
X370742D01*
X373281Y1633709D01*
Y1631170D01*
X370742Y1628631D01*
X365663D01*
X363124Y1631170D01*
X378359Y1641327D02*
X380898Y1643866D01*
X385977D01*
X388516Y1641327D01*
Y1638788D01*
X385977Y1636248D01*
X383437D01*
X385977D01*
X388516Y1633709D01*
Y1631170D01*
X385977Y1628631D01*
X380898D01*
X378359Y1631170D01*
X513238Y1641327D02*
X515777Y1643866D01*
X520855D01*
X523395Y1641327D01*
Y1638788D01*
X520855Y1636248D01*
X518316D01*
X520855D01*
X523395Y1633709D01*
Y1631170D01*
X520855Y1628631D01*
X515777D01*
X513238Y1631170D01*
X538630Y1628631D02*
X528473D01*
X538630Y1638788D01*
Y1641327D01*
X536091Y1643866D01*
X531012D01*
X528473Y1641327D01*
X663098D02*
X665637Y1643866D01*
X670715D01*
X673255Y1641327D01*
Y1638788D01*
X670715Y1636248D01*
X668176D01*
X670715D01*
X673255Y1633709D01*
Y1631170D01*
X670715Y1628631D01*
X665637D01*
X663098Y1631170D01*
X678333Y1628631D02*
X683411D01*
X680872D01*
Y1643866D01*
X678333Y1641327D01*
X671480Y1958573D02*
X674019Y1961112D01*
X679098D01*
X681637Y1958573D01*
Y1956033D01*
X679098Y1953494D01*
X676558D01*
X679098D01*
X681637Y1950955D01*
Y1948416D01*
X679098Y1945877D01*
X674019D01*
X671480Y1948416D01*
X686715Y1958573D02*
X689254Y1961112D01*
X694333D01*
X696872Y1958573D01*
Y1948416D01*
X694333Y1945877D01*
X689254D01*
X686715Y1948416D01*
Y1958573D01*
X531777Y1945877D02*
X521620D01*
X531777Y1956033D01*
Y1958573D01*
X529238Y1961112D01*
X524159D01*
X521620Y1958573D01*
X536855Y1948416D02*
X539394Y1945877D01*
X544473D01*
X547012Y1948416D01*
Y1958573D01*
X544473Y1961112D01*
X539394D01*
X536855Y1958573D01*
Y1956033D01*
X539394Y1953494D01*
X547012D01*
X381663Y1945877D02*
X371506D01*
X381663Y1956033D01*
Y1958573D01*
X379123Y1961112D01*
X374045D01*
X371506Y1958573D01*
X386741D02*
X389280Y1961112D01*
X394359D01*
X396898Y1958573D01*
Y1956033D01*
X394359Y1953494D01*
X396898Y1950955D01*
Y1948416D01*
X394359Y1945877D01*
X389280D01*
X386741Y1948416D01*
Y1950955D01*
X389280Y1953494D01*
X386741Y1956033D01*
Y1958573D01*
X389280Y1953494D02*
X394359D01*
X231549Y1945877D02*
X221392D01*
X231549Y1956033D01*
Y1958573D01*
X229009Y1961112D01*
X223931D01*
X221392Y1958573D01*
X236627Y1961112D02*
X246784D01*
Y1958573D01*
X236627Y1948416D01*
Y1945877D01*
X81689D02*
X71532D01*
X81689Y1956033D01*
Y1958573D01*
X79149Y1961112D01*
X74071D01*
X71532Y1958573D01*
X96924Y1961112D02*
X91845Y1958573D01*
X86767Y1953494D01*
Y1948416D01*
X89306Y1945877D01*
X94385D01*
X96924Y1948416D01*
Y1950955D01*
X94385Y1953494D01*
X86767D01*
X73307Y2148569D02*
X63150D01*
X73307Y2158725D01*
Y2161265D01*
X70767Y2163804D01*
X65689D01*
X63150Y2161265D01*
X88542Y2163804D02*
X78385D01*
Y2156186D01*
X83463Y2158725D01*
X86003D01*
X88542Y2156186D01*
Y2151108D01*
X86003Y2148569D01*
X80924D01*
X78385Y2151108D01*
X223167Y2148569D02*
X213010D01*
X223167Y2158725D01*
Y2161265D01*
X220627Y2163804D01*
X215549D01*
X213010Y2161265D01*
X235863Y2148569D02*
Y2163804D01*
X228245Y2156186D01*
X238402D01*
X373281Y2148569D02*
X363124D01*
X373281Y2158725D01*
Y2161265D01*
X370742Y2163804D01*
X365663D01*
X363124Y2161265D01*
X378359D02*
X380898Y2163804D01*
X385977D01*
X388516Y2161265D01*
Y2158725D01*
X385977Y2156186D01*
X383437D01*
X385977D01*
X388516Y2153647D01*
Y2151108D01*
X385977Y2148569D01*
X380898D01*
X378359Y2151108D01*
X523395Y2148569D02*
X513238D01*
X523395Y2158725D01*
Y2161265D01*
X520855Y2163804D01*
X515777D01*
X513238Y2161265D01*
X538630Y2148569D02*
X528473D01*
X538630Y2158725D01*
Y2161265D01*
X536091Y2163804D01*
X531012D01*
X528473Y2161265D01*
X673255Y2148569D02*
X663098D01*
X673255Y2158725D01*
Y2161265D01*
X670715Y2163804D01*
X665637D01*
X663098Y2161265D01*
X678333Y2148569D02*
X683411D01*
X680872D01*
Y2163804D01*
X678333Y2161265D01*
X651665Y2465815D02*
X641508D01*
X651665Y2475972D01*
Y2478511D01*
X649126Y2481050D01*
X644047D01*
X641508Y2478511D01*
X656743D02*
X659282Y2481050D01*
X664361D01*
X666900Y2478511D01*
Y2468354D01*
X664361Y2465815D01*
X659282D01*
X656743Y2468354D01*
Y2478511D01*
X521620Y2465815D02*
X526698D01*
X524159D01*
Y2481050D01*
X521620Y2478511D01*
X534316Y2468354D02*
X536855Y2465815D01*
X541933D01*
X544473Y2468354D01*
Y2478511D01*
X541933Y2481050D01*
X536855D01*
X534316Y2478511D01*
Y2475972D01*
X536855Y2473432D01*
X544473D01*
X371506Y2465815D02*
X376584D01*
X374045D01*
Y2481050D01*
X371506Y2478511D01*
X384202D02*
X386741Y2481050D01*
X391819D01*
X394359Y2478511D01*
Y2475972D01*
X391819Y2473432D01*
X394359Y2470893D01*
Y2468354D01*
X391819Y2465815D01*
X386741D01*
X384202Y2468354D01*
Y2470893D01*
X386741Y2473432D01*
X384202Y2475972D01*
Y2478511D01*
X386741Y2473432D02*
X391819D01*
X221392Y2465815D02*
X226470D01*
X223931D01*
Y2481050D01*
X221392Y2478511D01*
X234088Y2481050D02*
X244245D01*
Y2478511D01*
X234088Y2468354D01*
Y2465815D01*
X71532D02*
X76610D01*
X74071D01*
Y2481050D01*
X71532Y2478511D01*
X94385Y2481050D02*
X89306Y2478511D01*
X84228Y2473432D01*
Y2468354D01*
X86767Y2465815D01*
X91845D01*
X94385Y2468354D01*
Y2470893D01*
X91845Y2473432D01*
X84228D01*
X63150Y2668507D02*
X68228D01*
X65689D01*
Y2683742D01*
X63150Y2681203D01*
X86003Y2683742D02*
X75846D01*
Y2676124D01*
X80924Y2678664D01*
X83463D01*
X86003Y2676124D01*
Y2671046D01*
X83463Y2668507D01*
X78385D01*
X75846Y2671046D01*
X213010Y2668507D02*
X218088D01*
X215549D01*
Y2683742D01*
X213010Y2681203D01*
X233323Y2668507D02*
Y2683742D01*
X225706Y2676124D01*
X235863D01*
X363124Y2668507D02*
X368202D01*
X365663D01*
Y2683742D01*
X363124Y2681203D01*
X375820D02*
X378359Y2683742D01*
X383437D01*
X385977Y2681203D01*
Y2678664D01*
X383437Y2676124D01*
X380898D01*
X383437D01*
X385977Y2673585D01*
Y2671046D01*
X383437Y2668507D01*
X378359D01*
X375820Y2671046D01*
X513238Y2668507D02*
X518316D01*
X515777D01*
Y2683742D01*
X513238Y2681203D01*
X536091Y2668507D02*
X525934D01*
X536091Y2678664D01*
Y2681203D01*
X533551Y2683742D01*
X528473D01*
X525934Y2681203D01*
X663098Y2668507D02*
X668176D01*
X665637D01*
Y2683742D01*
X663098Y2681203D01*
X675794Y2668507D02*
X680872D01*
X678333D01*
Y2683742D01*
X675794Y2681203D01*
X671480Y2985753D02*
X676558D01*
X674019D01*
Y3000988D01*
X671480Y2998448D01*
X684176D02*
X686715Y3000988D01*
X691793D01*
X694333Y2998448D01*
Y2988292D01*
X691793Y2985753D01*
X686715D01*
X684176Y2988292D01*
Y2998448D01*
X490000Y2942539D02*
X492539Y2940000D01*
X497617D01*
X500157Y2942539D01*
Y2952696D01*
X497617Y2955235D01*
X492539D01*
X490000Y2952696D01*
Y2950157D01*
X492539Y2947617D01*
X500157D01*
X340000Y2952696D02*
X342539Y2955235D01*
X347617D01*
X350157Y2952696D01*
Y2950157D01*
X347617Y2947617D01*
X350157Y2945078D01*
Y2942539D01*
X347617Y2940000D01*
X342539D01*
X340000Y2942539D01*
Y2945078D01*
X342539Y2947617D01*
X340000Y2950157D01*
Y2952696D01*
X342539Y2947617D02*
X347617D01*
X190000Y2955235D02*
X200157D01*
Y2952696D01*
X190000Y2942539D01*
Y2940000D01*
X61369Y2975588D02*
X56290Y2973049D01*
X51212Y2967970D01*
Y2962892D01*
X53751Y2960353D01*
X58829D01*
X61369Y2962892D01*
Y2965431D01*
X58829Y2967970D01*
X51212D01*
X52987Y3178280D02*
X42830D01*
Y3170662D01*
X47908Y3173202D01*
X50448D01*
X52987Y3170662D01*
Y3165584D01*
X50448Y3163045D01*
X45369D01*
X42830Y3165584D01*
X197617Y3140000D02*
Y3155235D01*
X190000Y3147617D01*
X200157D01*
X340000Y3152696D02*
X342539Y3155235D01*
X347617D01*
X350157Y3152696D01*
Y3150157D01*
X347617Y3147617D01*
X345078D01*
X347617D01*
X350157Y3145078D01*
Y3142539D01*
X347617Y3140000D01*
X342539D01*
X340000Y3142539D01*
X510157Y3140000D02*
X500000D01*
X510157Y3150157D01*
Y3152696D01*
X507617Y3155235D01*
X502539D01*
X500000Y3152696D01*
X650000Y3140000D02*
X655078D01*
X652539D01*
Y3155235D01*
X650000Y3152696D01*
M02*
