%FSLAX44Y44*%
%MOMM*%
G71*
G01*
G75*
G04 Layer_Color=32768*
%ADD10R,2.5000X6.0000*%
%ADD11R,6.9850X4.0000*%
%ADD12C,1.0000*%
%ADD13C,4.0000*%
%ADD14C,1.2700*%
%ADD15R,1.0200X3.8000*%
%ADD16R,1.2192X0.8128*%
%ADD17R,0.3556X0.7620*%
%ADD18R,0.7620X0.3556*%
%ADD19R,2.7940X2.7940*%
%ADD20C,0.2540*%
%ADD21R,2.7032X6.2032*%
%ADD22R,7.1882X4.2032*%
%ADD23C,4.2032*%
%ADD24C,1.4732*%
%ADD25R,1.1200X3.9000*%
%ADD26R,1.4224X1.0160*%
%ADD27R,0.5588X0.9652*%
%ADD28R,0.9652X0.5588*%
%ADD29R,2.9972X2.9972*%
%ADD30R,0.0254X0.0254*%
%ADD31C,0.1524*%
%ADD32C,0.0762*%
%ADD33C,0.1270*%
G36*
X423000Y1502987D02*
X432987D01*
Y1493000D01*
X435273D01*
Y1467000D01*
X432987D01*
Y1457013D01*
X423000D01*
Y1454727D01*
X397000D01*
Y1457013D01*
X387013D01*
Y1467000D01*
X384727D01*
Y1493000D01*
X387013D01*
Y1502987D01*
X397000D01*
Y1505273D01*
X423000D01*
Y1502987D01*
D02*
G37*
D31*
X387013Y1457013D02*
X397000D01*
Y1454727D02*
Y1457013D01*
Y1454727D02*
X423000D01*
Y1457013D01*
X432987D01*
Y1467000D01*
X435273D01*
Y1493000D01*
X432987D02*
X435273D01*
X432987D02*
Y1502987D01*
X423000D02*
X432987D01*
X423000D02*
Y1505273D01*
X397000D02*
X423000D01*
X397000Y1502987D02*
Y1505273D01*
X387013Y1502987D02*
X397000D01*
X387013Y1493000D02*
Y1502987D01*
X384727Y1493000D02*
X387013D01*
X384727Y1467000D02*
Y1493000D01*
Y1467000D02*
X387013D01*
Y1457013D02*
Y1467000D01*
M02*
