%FSLAX44Y44*%
%MOMM*%
G71*
G01*
G75*
G04 Layer_Color=32896*
%ADD10R,2.5000X6.0000*%
%ADD11R,6.9850X4.0000*%
%ADD12C,1.0000*%
%ADD13C,4.0000*%
%ADD14C,1.2700*%
%ADD15R,1.0200X3.8000*%
%ADD16R,1.2192X0.8128*%
%ADD17R,0.3556X0.7620*%
%ADD18R,0.7620X0.3556*%
%ADD19R,2.7940X2.7940*%
%ADD20C,0.2540*%
%ADD21R,2.7032X6.2032*%
%ADD22R,7.1882X4.2032*%
%ADD23C,4.2032*%
%ADD24C,1.4732*%
%ADD25R,1.1200X3.9000*%
%ADD26R,1.4224X1.0160*%
%ADD27R,0.5588X0.9652*%
%ADD28R,0.9652X0.5588*%
%ADD29R,2.9972X2.9972*%
%ADD30R,0.0254X0.0254*%
%ADD31C,0.1524*%
%ADD32C,0.0762*%
G36*
X408655Y1506035D02*
X404845D01*
Y1508575D01*
X408655D01*
Y1506035D01*
D02*
G37*
D20*
X448452Y1223086D02*
Y1225850D01*
X353213Y1223086D02*
X448452D01*
X353213D02*
Y1225850D01*
X335187D02*
X353213D01*
X335187D02*
Y1237650D01*
X317465D02*
X335187D01*
X317465D02*
Y1310230D01*
X353213D01*
Y1316914D01*
X448452D01*
Y1310230D02*
Y1316914D01*
Y1310230D02*
X484200D01*
Y1237650D02*
Y1310230D01*
X466478Y1237650D02*
X484200D01*
X466478Y1225850D02*
Y1237650D01*
X448452Y1225850D02*
X466478D01*
X469843Y1362696D02*
X472383Y1365235D01*
X477461D01*
X480000Y1362696D01*
Y1352539D01*
X477461Y1350000D01*
X472383D01*
X469843Y1352539D01*
X462226Y1350000D02*
X457147D01*
X454608Y1352539D01*
Y1357617D01*
X457147Y1360157D01*
X462226D01*
X464765Y1357617D01*
Y1352539D01*
X462226Y1350000D01*
X449530D02*
Y1360157D01*
X441912D01*
X439373Y1357617D01*
Y1350000D01*
X434295D02*
Y1360157D01*
X426677D01*
X424138Y1357617D01*
Y1350000D01*
X411442D02*
X416521D01*
X419060Y1352539D01*
Y1357617D01*
X416521Y1360157D01*
X411442D01*
X408903Y1357617D01*
Y1355078D01*
X419060D01*
X393668Y1360157D02*
X401286D01*
X403825Y1357617D01*
Y1352539D01*
X401286Y1350000D01*
X393668D01*
X386050Y1362696D02*
Y1360157D01*
X388590D01*
X383511D01*
X386050D01*
Y1352539D01*
X383511Y1350000D01*
X373354D02*
X368276D01*
X365737Y1352539D01*
Y1357617D01*
X368276Y1360157D01*
X373354D01*
X375894Y1357617D01*
Y1352539D01*
X373354Y1350000D01*
X360659Y1360157D02*
Y1350000D01*
Y1355078D01*
X358119Y1357617D01*
X355580Y1360157D01*
X353041D01*
X433482Y1586208D02*
Y1573512D01*
X430943Y1570973D01*
X425864D01*
X423325Y1573512D01*
Y1586208D01*
X418247Y1570973D02*
X413169D01*
X415708D01*
Y1586208D01*
X418247Y1583669D01*
X370000Y1460000D02*
Y1475235D01*
X362383D01*
X359843Y1472696D01*
Y1467617D01*
X362383Y1465078D01*
X370000D01*
X364922D02*
X359843Y1460000D01*
X347147D02*
Y1475235D01*
X354765Y1467617D01*
X344608D01*
X350000Y1380000D02*
Y1395235D01*
X342383D01*
X339843Y1392696D01*
Y1387617D01*
X342383Y1385078D01*
X350000D01*
X344922D02*
X339843Y1380000D01*
X334765Y1392696D02*
X332226Y1395235D01*
X327147D01*
X324608Y1392696D01*
Y1390157D01*
X327147Y1387617D01*
X329687D01*
X327147D01*
X324608Y1385078D01*
Y1382539D01*
X327147Y1380000D01*
X332226D01*
X334765Y1382539D01*
X330000Y1460000D02*
Y1475235D01*
X322383D01*
X319843Y1472696D01*
Y1467617D01*
X322383Y1465078D01*
X330000D01*
X324922D02*
X319843Y1460000D01*
X304608D02*
X314765D01*
X304608Y1470157D01*
Y1472696D01*
X307147Y1475235D01*
X312226D01*
X314765Y1472696D01*
X310000Y1380000D02*
Y1395235D01*
X302383D01*
X299843Y1392696D01*
Y1387617D01*
X302383Y1385078D01*
X310000D01*
X304922D02*
X299843Y1380000D01*
X294765D02*
X289687D01*
X292226D01*
Y1395235D01*
X294765Y1392696D01*
X274481Y1444477D02*
X277020Y1447016D01*
X282099D01*
X284638Y1444477D01*
Y1434320D01*
X282099Y1431781D01*
X277020D01*
X274481Y1434320D01*
X269403Y1431781D02*
X264325D01*
X266864D01*
Y1447016D01*
X269403Y1444477D01*
X645500Y3166000D02*
Y3176157D01*
X640422Y3181235D01*
X635343Y3176157D01*
Y3166000D01*
Y3173618D01*
X645500D01*
X630265Y3176157D02*
Y3168539D01*
X627726Y3166000D01*
X620108D01*
Y3176157D01*
X612491Y3178696D02*
Y3176157D01*
X615030D01*
X609952D01*
X612491D01*
Y3168539D01*
X609952Y3166000D01*
X602334Y3181235D02*
Y3166000D01*
Y3173618D01*
X599795Y3176157D01*
X594716D01*
X592177Y3173618D01*
Y3166000D01*
X584560D02*
X579481D01*
X576942Y3168539D01*
Y3173618D01*
X579481Y3176157D01*
X584560D01*
X587099Y3173618D01*
Y3168539D01*
X584560Y3166000D01*
X571864Y3176157D02*
Y3166000D01*
Y3171078D01*
X569325Y3173618D01*
X566786Y3176157D01*
X564246D01*
X556629D02*
X554090D01*
Y3173618D01*
X556629D01*
Y3176157D01*
Y3168539D02*
X554090D01*
Y3166000D01*
X556629D01*
Y3168539D01*
X528698Y3181235D02*
Y3166000D01*
Y3171078D01*
X518541Y3181235D01*
X526159Y3173618D01*
X518541Y3166000D01*
X513463Y3176157D02*
Y3168539D01*
X510924Y3166000D01*
X503306D01*
Y3176157D01*
X495689D02*
X490610D01*
X488071Y3173618D01*
Y3166000D01*
X495689D01*
X498228Y3168539D01*
X495689Y3171078D01*
X488071D01*
X482993Y3166000D02*
Y3176157D01*
X475375D01*
X472836Y3173618D01*
Y3166000D01*
X462679Y3160922D02*
X460140D01*
X457601Y3163461D01*
Y3176157D01*
X465218D01*
X467757Y3173618D01*
Y3168539D01*
X465218Y3166000D01*
X457601D01*
X452522Y3181235D02*
Y3166000D01*
Y3173618D01*
X449983Y3176157D01*
X444905D01*
X442366Y3173618D01*
Y3166000D01*
X437287Y3176157D02*
Y3168539D01*
X434748Y3166000D01*
X427131D01*
Y3176157D01*
X419513D02*
X414435D01*
X411896Y3173618D01*
Y3166000D01*
X419513D01*
X422052Y3168539D01*
X419513Y3171078D01*
X411896D01*
X381425Y3168539D02*
Y3178696D01*
X383965Y3181235D01*
X389043D01*
X391582Y3178696D01*
Y3168539D01*
X389043Y3166000D01*
X383965D01*
X386504Y3171078D02*
X381425Y3166000D01*
X383965D02*
X381425Y3168539D01*
X376347Y3166000D02*
X371269D01*
X373808D01*
Y3176157D01*
X376347D01*
X361112D02*
X356034D01*
X353494Y3173618D01*
Y3166000D01*
X361112D01*
X363651Y3168539D01*
X361112Y3171078D01*
X353494D01*
X345877Y3166000D02*
X340799D01*
X338259Y3168539D01*
Y3173618D01*
X340799Y3176157D01*
X345877D01*
X348416Y3173618D01*
Y3168539D01*
X345877Y3166000D01*
X315407Y3176157D02*
X310328D01*
X307789Y3173618D01*
Y3166000D01*
X315407D01*
X317946Y3168539D01*
X315407Y3171078D01*
X307789D01*
X302711Y3166000D02*
Y3176157D01*
X295093D01*
X292554Y3173618D01*
Y3166000D01*
X277319Y3181235D02*
Y3166000D01*
X284937D01*
X287476Y3168539D01*
Y3173618D01*
X284937Y3176157D01*
X277319D01*
X257006Y3181235D02*
Y3166000D01*
Y3171078D01*
X246849Y3181235D01*
X254466Y3173618D01*
X246849Y3166000D01*
X234153D02*
X239231D01*
X241771Y3168539D01*
Y3173618D01*
X239231Y3176157D01*
X234153D01*
X231614Y3173618D01*
Y3171078D01*
X241771D01*
X226535Y3166000D02*
X221457D01*
X223996D01*
Y3176157D01*
X226535D01*
X211301Y3178696D02*
Y3176157D01*
X213840D01*
X208761D01*
X211301D01*
Y3168539D01*
X208761Y3166000D01*
X201144Y3181235D02*
Y3166000D01*
Y3173618D01*
X198605Y3176157D01*
X193526D01*
X190987Y3173618D01*
Y3166000D01*
X170674D02*
Y3181235D01*
X165595Y3176157D01*
X160517Y3181235D01*
Y3166000D01*
X147821D02*
X152899D01*
X155439Y3168539D01*
Y3173618D01*
X152899Y3176157D01*
X147821D01*
X145282Y3173618D01*
Y3171078D01*
X155439D01*
X140204Y3166000D02*
Y3176157D01*
X132586D01*
X130047Y3173618D01*
Y3166000D01*
X117351D02*
X122429D01*
X124968Y3168539D01*
Y3173618D01*
X122429Y3176157D01*
X117351D01*
X114812Y3173618D01*
Y3171078D01*
X124968D01*
X109733Y3176157D02*
X99577D01*
X109733Y3166000D01*
X99577D01*
X86881D02*
X91959D01*
X94498Y3168539D01*
Y3173618D01*
X91959Y3176157D01*
X86881D01*
X84341Y3173618D01*
Y3171078D01*
X94498D01*
X79263Y3166000D02*
X71646D01*
X69106Y3168539D01*
X71646Y3171078D01*
X76724D01*
X79263Y3173618D01*
X76724Y3176157D01*
X69106D01*
D31*
X313904Y1426952D02*
Y1433000D01*
X326000Y1426952D02*
Y1433000D01*
X273904Y1406952D02*
Y1413000D01*
X286000Y1406952D02*
Y1413000D01*
X293904Y1416952D02*
Y1423000D01*
X306000Y1416952D02*
Y1423000D01*
X333904Y1416952D02*
Y1423000D01*
X346000Y1416952D02*
Y1423000D01*
X353904Y1426952D02*
Y1433000D01*
X366000Y1426952D02*
Y1433000D01*
X431717Y1458283D02*
Y1465145D01*
X424855Y1501717D02*
X431717D01*
X388283Y1458283D02*
Y1465145D01*
Y1501717D02*
X395145D01*
X431717Y1494855D02*
Y1501717D01*
X424855Y1458283D02*
X431717D01*
X388283D02*
X395145D01*
X388283Y1494855D02*
Y1501717D01*
D32*
X433580Y1450155D02*
X425116Y1458619D01*
Y1450155D02*
X433580Y1458619D01*
X429348Y1450155D02*
Y1458619D01*
X425116Y1454387D02*
X433580D01*
X410000Y1480000D02*
X422696D01*
Y1486348D01*
X420580Y1488464D01*
X416348D01*
X414232Y1486348D01*
Y1480000D01*
X410000Y1492696D02*
X422696D01*
X410000Y1501160D01*
X422696D01*
Y1480000D02*
X410000D01*
Y1486348D01*
X412116Y1488464D01*
X420580D01*
X422696Y1486348D01*
Y1480000D01*
Y1501160D02*
Y1492696D01*
X410000D01*
Y1501160D01*
X416348Y1492696D02*
Y1496928D01*
X422696Y1505392D02*
X414232D01*
X410000Y1509624D01*
X414232Y1513856D01*
X422696D01*
Y1480000D02*
X414232D01*
X410000Y1484232D01*
X414232Y1488464D01*
X422696D01*
X410000Y1492696D02*
X418464D01*
X422696Y1496928D01*
X418464Y1501160D01*
X410000D01*
X416348D01*
Y1492696D01*
X422696Y1505392D02*
X410000D01*
Y1513856D01*
X422696Y1480000D02*
Y1488464D01*
Y1484232D01*
X410000D01*
X422696Y1499044D02*
Y1494812D01*
X420580Y1492696D01*
X412116D01*
X410000Y1494812D01*
Y1499044D01*
X412116Y1501160D01*
X420580D01*
X422696Y1499044D01*
Y1505392D02*
X410000D01*
Y1513856D01*
M02*
