%FSLAX44Y44*%
%MOMM*%
G71*
G01*
G75*
%ADD10R,2.5000X6.0000*%
%ADD11R,6.9850X4.0000*%
%ADD12C,1.0000*%
%ADD13C,16.0000*%
%ADD14C,4.0000*%
%ADD15C,1.2700*%
%ADD16R,1.2192X0.8128*%
%ADD17R,1.0200X3.8000*%
%ADD18R,0.3556X0.7620*%
%ADD19R,0.7620X0.3556*%
%ADD20R,2.7940X2.7940*%
%ADD21C,0.2540*%
%ADD22R,2.7032X6.2032*%
%ADD23R,7.1882X4.2032*%
%ADD24C,16.2032*%
%ADD25C,4.2032*%
%ADD26C,1.4732*%
%ADD27R,1.4224X1.0160*%
%ADD28R,1.1200X3.9000*%
%ADD29R,0.5588X0.9652*%
%ADD30R,0.9652X0.5588*%
%ADD31R,2.9972X2.9972*%
%ADD32R,0.0254X0.0254*%
%ADD33C,0.1524*%
%ADD34C,0.0762*%
%ADD35C,0.1270*%
%ADD36C,0.1693*%
D35*
X280000Y2483000D02*
X440000D01*
X360000Y2403000D02*
Y2563000D01*
X780000Y100000D02*
X810000D01*
X795000Y85000D02*
Y115000D01*
X780000Y1355000D02*
X810000D01*
X795000Y1340000D02*
Y1370000D01*
X780000Y2228000D02*
X810000D01*
X795000Y2213000D02*
Y2243000D01*
X780000Y3073500D02*
X810000D01*
X795000Y3058500D02*
Y3088500D01*
X10000Y100000D02*
X40000D01*
X25000Y85000D02*
Y115000D01*
X10000Y1355000D02*
X40000D01*
X25000Y1340000D02*
Y1370000D01*
X10000Y2228000D02*
X40000D01*
X25000Y2213000D02*
Y2243000D01*
X10000Y3073500D02*
X40000D01*
X25000Y3058500D02*
Y3088500D01*
X446444Y1450000D02*
X453556D01*
X450000Y1446444D02*
Y1453556D01*
X446444Y1380000D02*
X453556D01*
X450000Y1376444D02*
Y1383556D01*
X670444Y2425000D02*
X677556D01*
X674000Y2421444D02*
Y2428556D01*
X752171Y2425000D02*
X759284D01*
X755727Y2421444D02*
Y2428556D01*
M02*
