%FSLAX44Y44*%
%MOMM*%
G71*
G01*
G75*
%ADD10R,0.7000X0.9000*%
%ADD11R,1.5000X1.3000*%
%ADD12R,2.2000X2.6000*%
%ADD13R,1.2000X1.5000*%
%ADD14R,1.2000X1.4000*%
%ADD15R,1.4000X1.2000*%
%ADD16R,1.1000X1.0000*%
%ADD17R,2.6000X2.2000*%
%ADD18R,0.3500X1.5500*%
%ADD19O,0.3500X1.5500*%
%ADD20R,4.2000X3.1000*%
%ADD21R,0.6000X1.4000*%
%ADD22O,1.0000X0.4000*%
%ADD23R,1.0000X0.4000*%
%ADD24R,1.9000X1.3000*%
%ADD25R,2.8000X1.0000*%
%ADD26R,0.8000X1.0000*%
%ADD27R,1.2000X1.0000*%
%ADD28R,1.2000X0.7000*%
%ADD29O,0.5500X1.5500*%
%ADD30C,0.3500*%
%ADD31R,1.0000X0.3000*%
%ADD32R,1.0500X0.4000*%
%ADD33R,2.5000X0.5000*%
%ADD34R,2.5000X2.0000*%
%ADD35R,1.5000X1.2000*%
%ADD36C,0.1778*%
%ADD37C,0.3048*%
%ADD38C,0.2540*%
%ADD39R,1.5000X1.5000*%
%ADD40C,1.5000*%
%ADD41R,1.5000X1.5000*%
%ADD42C,6.3500*%
%ADD43C,1.3000*%
%ADD44C,0.5080*%
%ADD45C,0.5588*%
%ADD46C,1.0160*%
%ADD47C,1.9160*%
%ADD48C,1.0160*%
%ADD49C,1.0668*%
%ADD50C,0.3810*%
%ADD51C,4.1910*%
%ADD52R,0.9000X0.7000*%
%ADD53R,1.0500X1.3000*%
%ADD54R,1.4000X3.3000*%
%ADD55R,1.3000X1.9000*%
%ADD56C,0.2500*%
%ADD57C,0.2000*%
%ADD58C,0.6000*%
%ADD59C,0.3000*%
%ADD60C,0.2032*%
%ADD61C,0.1000*%
%ADD62C,0.1270*%
%ADD63R,0.9032X1.1032*%
%ADD64R,1.7032X1.5032*%
%ADD65R,2.4032X2.8032*%
%ADD66R,1.4032X1.7032*%
%ADD67R,1.4032X1.6032*%
%ADD68R,1.6032X1.4032*%
%ADD69R,1.3032X1.2032*%
%ADD70R,2.8032X2.4032*%
%ADD71R,0.5532X1.7532*%
%ADD72O,0.5532X1.7532*%
%ADD73R,4.4032X3.3032*%
%ADD74R,0.8032X1.6032*%
%ADD75O,1.2032X0.6032*%
%ADD76R,1.2032X0.6032*%
%ADD77R,2.1032X1.5032*%
%ADD78R,3.0032X1.2032*%
%ADD79R,1.0032X1.2032*%
%ADD80R,1.4032X1.2032*%
%ADD81R,1.4032X0.9032*%
%ADD82O,0.7532X1.7532*%
%ADD83C,0.5532*%
%ADD84R,1.2032X0.5032*%
%ADD85R,1.2532X0.6032*%
%ADD86R,2.7032X0.7032*%
%ADD87R,2.7032X2.2032*%
%ADD88R,1.7032X1.4032*%
%ADD89R,1.7032X1.7032*%
%ADD90C,1.7032*%
%ADD91R,1.7032X1.7032*%
%ADD92C,6.5532*%
%ADD93C,1.5032*%
%ADD94C,0.7112*%
%ADD95C,0.7620*%
%ADD96R,1.1032X0.9032*%
%ADD97R,1.2532X1.5032*%
%ADD98R,1.6032X3.5032*%
%ADD99R,1.5032X2.1032*%
%ADD100C,0.0254*%
%ADD101C,0.1693*%
%ADD102C,0.4064*%
D38*
X0Y0D02*
X81280D01*
Y29210D01*
X170180D01*
Y0D02*
Y29210D01*
Y0D02*
X351790D01*
Y29210D01*
X554990D01*
Y0D02*
Y29210D01*
Y0D02*
X892810D01*
Y679450D01*
X847090D02*
X892810D01*
X847090D02*
Y958850D01*
X554990D02*
X847090D01*
X554990Y929640D02*
Y958850D01*
X351790Y929640D02*
X554990D01*
X351790D02*
Y958850D01*
X46990D02*
X351790D01*
X0Y0D02*
Y165100D01*
X-8890D02*
X0D01*
X-8890D02*
Y377825D01*
X7620D01*
Y581025D01*
X-8890D02*
X7620D01*
X-8890D02*
Y825500D01*
X46990Y897890D02*
Y958850D01*
X-8890Y825500D02*
Y842010D01*
X46990Y897890D01*
D62*
X843098Y510540D02*
X852098D01*
X847598Y506040D02*
Y515040D01*
X843098Y535940D02*
X852098D01*
X847598Y531440D02*
Y540440D01*
X843098Y561340D02*
X852098D01*
X847598Y556840D02*
Y565840D01*
X756484Y583438D02*
X765484D01*
X760984Y578938D02*
Y587938D01*
X781884Y583438D02*
X790884D01*
X786384Y578938D02*
Y587938D01*
X756484Y558038D02*
X765484D01*
X760984Y553538D02*
Y562538D01*
X781884Y558038D02*
X790884D01*
X786384Y553538D02*
Y562538D01*
X756484Y532638D02*
X765484D01*
X760984Y528138D02*
Y537138D01*
X781884Y532638D02*
X790884D01*
X786384Y528138D02*
Y537138D01*
X756484Y507238D02*
X765484D01*
X760984Y502738D02*
Y511738D01*
X781884Y507238D02*
X790884D01*
X786384Y502738D02*
Y511738D01*
X756484Y481838D02*
X765484D01*
X760984Y477338D02*
Y486338D01*
X781884Y481838D02*
X790884D01*
X786384Y477338D02*
Y486338D01*
X756484Y456438D02*
X765484D01*
X760984Y451938D02*
Y460938D01*
X781884Y456438D02*
X790884D01*
X786384Y451938D02*
Y460938D01*
X756484Y431038D02*
X765484D01*
X760984Y426538D02*
Y435538D01*
X781884Y431038D02*
X790884D01*
X786384Y426538D02*
Y435538D01*
X756484Y405638D02*
X765484D01*
X760984Y401138D02*
Y410138D01*
X781884Y405638D02*
X790884D01*
X786384Y401138D02*
Y410138D01*
X756484Y380238D02*
X765484D01*
X760984Y375738D02*
Y384738D01*
X781884Y380238D02*
X790884D01*
X786384Y375738D02*
Y384738D01*
X756484Y354838D02*
X765484D01*
X760984Y350338D02*
Y359338D01*
X781884Y354838D02*
X790884D01*
X786384Y350338D02*
Y359338D01*
X705938Y452628D02*
X714938D01*
X710438Y448128D02*
Y457128D01*
X705938Y478028D02*
X714938D01*
X710438Y473528D02*
Y482528D01*
X848178Y316992D02*
X857178D01*
X852678Y312492D02*
Y321492D01*
X822778Y316992D02*
X831778D01*
X827278Y312492D02*
Y321492D01*
X797378Y316992D02*
X806378D01*
X801878Y312492D02*
Y321492D01*
X843098Y425958D02*
X852098D01*
X847598Y421458D02*
Y430458D01*
X843098Y451358D02*
X852098D01*
X847598Y446858D02*
Y455858D01*
X843098Y476758D02*
X852098D01*
X847598Y472258D02*
Y481258D01*
X567000Y128016D02*
X576000D01*
X571500Y123516D02*
Y132516D01*
X567000Y102616D02*
X576000D01*
X571500Y98116D02*
Y107116D01*
X115896Y88392D02*
X124896D01*
X120396Y83892D02*
Y92892D01*
X115896Y113792D02*
X124896D01*
X120396Y109292D02*
Y118292D01*
X662758Y314452D02*
X671758D01*
X667258Y309952D02*
Y318952D01*
X637358Y314452D02*
X646358D01*
X641858Y309952D02*
Y318952D01*
X611958Y314452D02*
X620958D01*
X616458Y309952D02*
Y318952D01*
X586558Y314452D02*
X595558D01*
X591058Y309952D02*
Y318952D01*
X561158Y314452D02*
X570158D01*
X565658Y309952D02*
Y318952D01*
X800555Y908100D02*
X832305D01*
X816430Y892225D02*
Y923975D01*
X63955Y908100D02*
X95705D01*
X79830Y892225D02*
Y923975D01*
X825956Y50800D02*
X857706D01*
X841831Y34925D02*
Y66675D01*
X25856Y50800D02*
X57606D01*
X41731Y34925D02*
Y66675D01*
X821092Y204624D02*
X830092D01*
X825592Y200124D02*
Y209124D01*
X821092Y160624D02*
X830092D01*
X825592Y156124D02*
Y165124D01*
X843098Y597154D02*
X852098D01*
X847598Y592654D02*
Y601654D01*
X843098Y622554D02*
X852098D01*
X847598Y618054D02*
Y627054D01*
X843098Y647954D02*
X852098D01*
X847598Y643454D02*
Y652454D01*
X685872Y367030D02*
X694872D01*
X690372Y362530D02*
Y371530D01*
X711272Y367030D02*
X720272D01*
X715772Y362530D02*
Y371530D01*
X126310Y857280D02*
X135310D01*
X130810Y852780D02*
Y861780D01*
X126310Y831880D02*
X135310D01*
X130810Y827380D02*
Y836380D01*
X151710Y831880D02*
X160710D01*
X156210Y827380D02*
Y836380D01*
X177110Y831880D02*
X186110D01*
X181610Y827380D02*
Y836380D01*
X202510Y831880D02*
X211510D01*
X207010Y827380D02*
Y836380D01*
X227910Y831880D02*
X236910D01*
X232410Y827380D02*
Y836380D01*
X253310Y831880D02*
X262310D01*
X257810Y827380D02*
Y836380D01*
X278710Y831880D02*
X287710D01*
X283210Y827380D02*
Y836380D01*
X304110Y831880D02*
X313110D01*
X308610Y827380D02*
Y836380D01*
X329510Y831880D02*
X338510D01*
X334010Y827380D02*
Y836380D01*
X354910Y831880D02*
X363910D01*
X359410Y827380D02*
Y836380D01*
X380310Y831880D02*
X389310D01*
X384810Y827380D02*
Y836380D01*
X405710Y831880D02*
X414710D01*
X410210Y827380D02*
Y836380D01*
X431110Y831880D02*
X440110D01*
X435610Y827380D02*
Y836380D01*
X456510Y831880D02*
X465510D01*
X461010Y827380D02*
Y836380D01*
X481910Y831880D02*
X490910D01*
X486410Y827380D02*
Y836380D01*
X507310Y831880D02*
X516310D01*
X511810Y827380D02*
Y836380D01*
X532710Y831880D02*
X541710D01*
X537210Y827380D02*
Y836380D01*
X558110Y831880D02*
X567110D01*
X562610Y827380D02*
Y836380D01*
X583510Y831880D02*
X592510D01*
X588010Y827380D02*
Y836380D01*
X608910Y831880D02*
X617910D01*
X613410Y827380D02*
Y836380D01*
X634310Y831880D02*
X643310D01*
X638810Y827380D02*
Y836380D01*
X659710Y831880D02*
X668710D01*
X664210Y827380D02*
Y836380D01*
X685110Y831880D02*
X694110D01*
X689610Y827380D02*
Y836380D01*
X710510Y831880D02*
X719510D01*
X715010Y827380D02*
Y836380D01*
X735910Y831880D02*
X744910D01*
X740410Y827380D02*
Y836380D01*
X761310Y831880D02*
X770310D01*
X765810Y827380D02*
Y836380D01*
X151710Y857280D02*
X160710D01*
X156210Y852780D02*
Y861780D01*
X177110Y857280D02*
X186110D01*
X181610Y852780D02*
Y861780D01*
X202510Y857280D02*
X211510D01*
X207010Y852780D02*
Y861780D01*
X227910Y857280D02*
X236910D01*
X232410Y852780D02*
Y861780D01*
X253310Y857280D02*
X262310D01*
X257810Y852780D02*
Y861780D01*
X278710Y857280D02*
X287710D01*
X283210Y852780D02*
Y861780D01*
X304110Y857280D02*
X313110D01*
X308610Y852780D02*
Y861780D01*
X329510Y857280D02*
X338510D01*
X334010Y852780D02*
Y861780D01*
X354910Y857280D02*
X363910D01*
X359410Y852780D02*
Y861780D01*
X380310Y857280D02*
X389310D01*
X384810Y852780D02*
Y861780D01*
X405710Y857280D02*
X414710D01*
X410210Y852780D02*
Y861780D01*
X431110Y857280D02*
X440110D01*
X435610Y852780D02*
Y861780D01*
X456510Y857280D02*
X465510D01*
X461010Y852780D02*
Y861780D01*
X481910Y857280D02*
X490910D01*
X486410Y852780D02*
Y861780D01*
X507310Y857280D02*
X516310D01*
X511810Y852780D02*
Y861780D01*
X532710Y857280D02*
X541710D01*
X537210Y852780D02*
Y861780D01*
X558110Y857280D02*
X567110D01*
X562610Y852780D02*
Y861780D01*
X583510Y857280D02*
X592510D01*
X588010Y852780D02*
Y861780D01*
X608910Y857280D02*
X617910D01*
X613410Y852780D02*
Y861780D01*
X634310Y857280D02*
X643310D01*
X638810Y852780D02*
Y861780D01*
X659710Y857280D02*
X668710D01*
X664210Y852780D02*
Y861780D01*
X685110Y857280D02*
X694110D01*
X689610Y852780D02*
Y861780D01*
X710510Y857280D02*
X719510D01*
X715010Y852780D02*
Y861780D01*
X735910Y857280D02*
X744910D01*
X740410Y852780D02*
Y861780D01*
X761310Y857280D02*
X770310D01*
X765810Y852780D02*
Y861780D01*
X126310Y908080D02*
X135310D01*
X130810Y903580D02*
Y912580D01*
X126310Y882680D02*
X135310D01*
X130810Y878180D02*
Y887180D01*
X151710Y882680D02*
X160710D01*
X156210Y878180D02*
Y887180D01*
X177110Y882680D02*
X186110D01*
X181610Y878180D02*
Y887180D01*
X202510Y882680D02*
X211510D01*
X207010Y878180D02*
Y887180D01*
X227910Y882680D02*
X236910D01*
X232410Y878180D02*
Y887180D01*
X253310Y882680D02*
X262310D01*
X257810Y878180D02*
Y887180D01*
X278710Y882680D02*
X287710D01*
X283210Y878180D02*
Y887180D01*
X304110Y882680D02*
X313110D01*
X308610Y878180D02*
Y887180D01*
X329510Y882680D02*
X338510D01*
X334010Y878180D02*
Y887180D01*
X354910Y882680D02*
X363910D01*
X359410Y878180D02*
Y887180D01*
X380310Y882680D02*
X389310D01*
X384810Y878180D02*
Y887180D01*
X405710Y882680D02*
X414710D01*
X410210Y878180D02*
Y887180D01*
X431110Y882680D02*
X440110D01*
X435610Y878180D02*
Y887180D01*
X456510Y882680D02*
X465510D01*
X461010Y878180D02*
Y887180D01*
X481910Y882680D02*
X490910D01*
X486410Y878180D02*
Y887180D01*
X507310Y882680D02*
X516310D01*
X511810Y878180D02*
Y887180D01*
X532710Y882680D02*
X541710D01*
X537210Y878180D02*
Y887180D01*
X558110Y882680D02*
X567110D01*
X562610Y878180D02*
Y887180D01*
X583510Y882680D02*
X592510D01*
X588010Y878180D02*
Y887180D01*
X608910Y882680D02*
X617910D01*
X613410Y878180D02*
Y887180D01*
X634310Y882680D02*
X643310D01*
X638810Y878180D02*
Y887180D01*
X659710Y882680D02*
X668710D01*
X664210Y878180D02*
Y887180D01*
X685110Y882680D02*
X694110D01*
X689610Y878180D02*
Y887180D01*
X710510Y882680D02*
X719510D01*
X715010Y878180D02*
Y887180D01*
X735910Y882680D02*
X744910D01*
X740410Y878180D02*
Y887180D01*
X761310Y882680D02*
X770310D01*
X765810Y878180D02*
Y887180D01*
X151710Y908080D02*
X160710D01*
X156210Y903580D02*
Y912580D01*
X177110Y908080D02*
X186110D01*
X181610Y903580D02*
Y912580D01*
X202510Y908080D02*
X211510D01*
X207010Y903580D02*
Y912580D01*
X227910Y908080D02*
X236910D01*
X232410Y903580D02*
Y912580D01*
X253310Y908080D02*
X262310D01*
X257810Y903580D02*
Y912580D01*
X278710Y908080D02*
X287710D01*
X283210Y903580D02*
Y912580D01*
X304110Y908080D02*
X313110D01*
X308610Y903580D02*
Y912580D01*
X329510Y908080D02*
X338510D01*
X334010Y903580D02*
Y912580D01*
X354910Y908080D02*
X363910D01*
X359410Y903580D02*
Y912580D01*
X380310Y908080D02*
X389310D01*
X384810Y903580D02*
Y912580D01*
X405710Y908080D02*
X414710D01*
X410210Y903580D02*
Y912580D01*
X431110Y908080D02*
X440110D01*
X435610Y903580D02*
Y912580D01*
X456510Y908080D02*
X465510D01*
X461010Y903580D02*
Y912580D01*
X481910Y908080D02*
X490910D01*
X486410Y903580D02*
Y912580D01*
X507310Y908080D02*
X516310D01*
X511810Y903580D02*
Y912580D01*
X532710Y908080D02*
X541710D01*
X537210Y903580D02*
Y912580D01*
X558110Y908080D02*
X567110D01*
X562610Y903580D02*
Y912580D01*
X583510Y908080D02*
X592510D01*
X588010Y903580D02*
Y912580D01*
X608910Y908080D02*
X617910D01*
X613410Y903580D02*
Y912580D01*
X634310Y908080D02*
X643310D01*
X638810Y903580D02*
Y912580D01*
X659710Y908080D02*
X668710D01*
X664210Y903580D02*
Y912580D01*
X685110Y908080D02*
X694110D01*
X689610Y903580D02*
Y912580D01*
X710510Y908080D02*
X719510D01*
X715010Y903580D02*
Y912580D01*
X735910Y908080D02*
X744910D01*
X740410Y903580D02*
Y912580D01*
X761310Y908080D02*
X770310D01*
X765810Y903580D02*
Y912580D01*
X390249Y625780D02*
X392789D01*
X391519Y624510D02*
Y627051D01*
X415250Y600529D02*
X417790D01*
X416520Y599259D02*
Y601799D01*
X456942Y755000D02*
X459482D01*
X458212Y753730D02*
Y756270D01*
X488942Y755000D02*
X491482D01*
X490212Y753730D02*
Y756270D01*
X268480Y756500D02*
X271020D01*
X269750Y755230D02*
Y757770D01*
X388249Y798789D02*
X390789D01*
X389519Y797519D02*
Y800059D01*
X370730Y796500D02*
X373270D01*
X372000Y795230D02*
Y797770D01*
X336942Y755000D02*
X339482D01*
X338212Y753730D02*
Y756270D01*
X344942Y755000D02*
X347482D01*
X346212Y753730D02*
Y756270D01*
X328942Y755000D02*
X331482D01*
X330212Y753730D02*
Y756270D01*
X594995Y713326D02*
X597535D01*
X596265Y712056D02*
Y714596D01*
X592328Y718202D02*
X594868D01*
X593598Y716932D02*
Y719472D01*
X526230Y751461D02*
X528770D01*
X527500Y750191D02*
Y752731D01*
X532980Y753750D02*
X535520D01*
X534250Y752480D02*
Y755020D01*
X465582Y605536D02*
X468122D01*
X466852Y604266D02*
Y606806D01*
X730758Y497840D02*
X733806D01*
X732282Y496316D02*
Y499364D01*
X568640Y477454D02*
X571688D01*
X570164Y475930D02*
Y478978D01*
X594576Y668528D02*
X597116D01*
X595846Y667258D02*
Y669798D01*
X491998Y325628D02*
X494538D01*
X493268Y324358D02*
Y326898D01*
X419354Y324612D02*
X421894D01*
X420624Y323342D02*
Y325882D01*
X678942Y468122D02*
X681482D01*
X680212Y466852D02*
Y469392D01*
X612140Y235712D02*
X615188D01*
X613664Y234188D02*
Y237236D01*
X659892Y225806D02*
X662432D01*
X661162Y224536D02*
Y227076D01*
X286152Y437282D02*
X289200D01*
X287676Y435758D02*
Y438806D01*
X304652Y389530D02*
X307700D01*
X306176Y388006D02*
Y391054D01*
X324612Y404264D02*
X327152D01*
X325882Y402994D02*
Y405534D01*
X324612Y423522D02*
X327152D01*
X325882Y422252D02*
Y424792D01*
X451166Y501200D02*
X454214D01*
X452690Y499676D02*
Y502724D01*
X404882Y225298D02*
X407930D01*
X406406Y223774D02*
Y226822D01*
X415186Y444650D02*
X418234D01*
X416710Y443126D02*
Y446174D01*
X357736Y399900D02*
X360784D01*
X359260Y398376D02*
Y401424D01*
X357736Y414124D02*
X360784D01*
X359260Y412600D02*
Y415648D01*
X505620Y537464D02*
X508668D01*
X507144Y535940D02*
Y538988D01*
X52578Y326390D02*
X55626D01*
X54102Y324866D02*
Y327914D01*
X628396Y477520D02*
X630936D01*
X629666Y476250D02*
Y478790D01*
X598678Y456438D02*
X601218D01*
X599948Y455168D02*
Y457708D01*
X578358Y490474D02*
X580898D01*
X579628Y489204D02*
Y491744D01*
X510918Y482470D02*
X513458D01*
X512188Y481200D02*
Y483740D01*
X716534Y464566D02*
X719074D01*
X717804Y463296D02*
Y465836D01*
X727964Y424180D02*
X730504D01*
X729234Y422910D02*
Y425450D01*
X796544Y760052D02*
X799084D01*
X797814Y758782D02*
Y761322D01*
X776318Y799940D02*
X779366D01*
X777842Y798416D02*
Y801464D01*
X812546Y647954D02*
X815086D01*
X813816Y646684D02*
Y649224D01*
X772160Y654812D02*
X775208D01*
X773684Y653288D02*
Y656336D01*
X147066Y611124D02*
X150114D01*
X148590Y609600D02*
Y612648D01*
X474472Y437388D02*
X477012D01*
X475742Y436118D02*
Y438658D01*
X756412Y803656D02*
X758952D01*
X757682Y802386D02*
Y804926D01*
X751332Y807974D02*
X753872D01*
X752602Y806704D02*
Y809244D01*
X745998Y812546D02*
X748538D01*
X747268Y811276D02*
Y813816D01*
X735076Y806196D02*
X737616D01*
X736346Y804926D02*
Y807466D01*
X730250Y809752D02*
X732790D01*
X731520Y808482D02*
Y811022D01*
X725170Y813054D02*
X727710D01*
X726440Y811784D02*
Y814324D01*
X719074Y810006D02*
X721614D01*
X720344Y808736D02*
Y811276D01*
X531368Y601218D02*
X533908D01*
X532638Y599948D02*
Y602488D01*
X580644Y589788D02*
X583184D01*
X581914Y588518D02*
Y591058D01*
X585470Y586486D02*
X588010D01*
X586740Y585216D02*
Y587756D01*
X594576Y698956D02*
X597116D01*
X595846Y697686D02*
Y700226D01*
X387420Y445200D02*
X389960D01*
X388690Y443930D02*
Y446470D01*
X334264Y383286D02*
X336804D01*
X335534Y382016D02*
Y384556D01*
X538226Y590296D02*
X540766D01*
X539496Y589026D02*
Y591566D01*
X395420Y493200D02*
X397960D01*
X396690Y491930D02*
Y494470D01*
X403420Y493200D02*
X405960D01*
X404690Y491930D02*
Y494470D01*
X269748Y490220D02*
X272288D01*
X271018Y488950D02*
Y491490D01*
X297200Y503192D02*
X299740D01*
X298470Y501922D02*
Y504463D01*
X574044Y533908D02*
X576584D01*
X575314Y532638D02*
Y535178D01*
X583246Y494092D02*
X585786D01*
X584516Y492822D02*
Y495362D01*
X554736Y389636D02*
X557276D01*
X556006Y388366D02*
Y390906D01*
X601726Y396748D02*
X604266D01*
X602996Y395478D02*
Y398018D01*
X138430Y811784D02*
X140970D01*
X139700Y810514D02*
Y813054D01*
X481584Y295910D02*
X484124D01*
X482854Y294640D02*
Y297180D01*
X474726Y295910D02*
X477266D01*
X475996Y294640D02*
Y297180D01*
X67056Y393192D02*
X69596D01*
X68326Y391922D02*
Y394462D01*
X159258Y364998D02*
X161798D01*
X160528Y363728D02*
Y366268D01*
X402590Y357124D02*
X405130D01*
X403860Y355854D02*
Y358394D01*
X468249Y295910D02*
X470789D01*
X469519Y294640D02*
Y297180D01*
X459740Y295910D02*
X462280D01*
X461010Y294640D02*
Y297180D01*
X554736Y632460D02*
X557276D01*
X556006Y631190D02*
Y633730D01*
X453390Y295910D02*
X455930D01*
X454660Y294640D02*
Y297180D01*
X446532Y295910D02*
X449072D01*
X447802Y294640D02*
Y297180D01*
X586740Y533908D02*
X589280D01*
X588010Y532638D02*
Y535178D01*
X557149Y450469D02*
X559689D01*
X558419Y449199D02*
Y451739D01*
X532130Y591312D02*
X534670D01*
X533400Y590042D02*
Y592582D01*
X545338Y518414D02*
X547878D01*
X546608Y517144D02*
Y519684D01*
X539750Y455168D02*
X542290D01*
X541020Y453898D02*
Y456438D01*
X487577Y343916D02*
X490117D01*
X488847Y342646D02*
Y345186D01*
X125984Y320040D02*
X128524D01*
X127254Y318770D02*
Y321310D01*
X118491Y425577D02*
X121031D01*
X119761Y424307D02*
Y426847D01*
X446024Y342392D02*
X448564D01*
X447294Y341122D02*
Y343662D01*
X134620Y427482D02*
X137160D01*
X135890Y426212D02*
Y428752D01*
X140208Y404876D02*
X142748D01*
X141478Y403606D02*
Y406146D01*
X371348Y347218D02*
X373888D01*
X372618Y345948D02*
Y348488D01*
X146304Y414528D02*
X148844D01*
X147574Y413258D02*
Y415798D01*
X146304Y309880D02*
X148844D01*
X147574Y308610D02*
Y311150D01*
X152400Y414274D02*
X154940D01*
X153670Y413004D02*
Y415544D01*
X152400Y336550D02*
X154940D01*
X153670Y335280D02*
Y337820D01*
X542798Y596138D02*
X545338D01*
X544068Y594868D02*
Y597408D01*
X534924Y518414D02*
X537464D01*
X536194Y517144D02*
Y519684D01*
X568452Y596900D02*
X570992D01*
X569722Y595630D02*
Y598170D01*
X549910Y493776D02*
X552450D01*
X551180Y492506D02*
Y495046D01*
X541528Y446278D02*
X544068D01*
X542798Y445008D02*
Y447548D01*
X552450Y456692D02*
X554990D01*
X553720Y455422D02*
Y457962D01*
X519684Y547878D02*
X522224D01*
X520954Y546608D02*
Y549148D01*
X455930Y472440D02*
X458470D01*
X457200Y471170D02*
Y473710D01*
X465074Y564896D02*
X467614D01*
X466344Y563626D02*
Y566166D01*
X464312Y557530D02*
X466852D01*
X465582Y556260D02*
Y558800D01*
X550164Y431292D02*
X552704D01*
X551434Y430022D02*
Y432562D01*
X556768Y422402D02*
X559308D01*
X558038Y421132D02*
Y423672D01*
X580898Y533908D02*
X583438D01*
X582168Y532638D02*
Y535178D01*
X591566Y559308D02*
X594106D01*
X592836Y558038D02*
Y560578D01*
X568706Y490474D02*
X571246D01*
X569976Y489204D02*
Y491744D01*
X600456Y557530D02*
X602996D01*
X601726Y556260D02*
Y558800D01*
X396626Y371094D02*
X399166D01*
X397896Y369824D02*
Y372364D01*
X386080Y375412D02*
X388620D01*
X387350Y374142D02*
Y376682D01*
X391668Y346710D02*
X394208D01*
X392938Y345440D02*
Y347980D01*
X429514Y354076D02*
X432054D01*
X430784Y352806D02*
Y355346D01*
X502412Y302006D02*
X504952D01*
X503682Y300736D02*
Y303276D01*
X556260Y519550D02*
X558800D01*
X557530Y518280D02*
Y520820D01*
X313436Y480060D02*
X315976D01*
X314706Y478790D02*
Y481330D01*
X322834Y462788D02*
X325374D01*
X324104Y461518D02*
Y464058D01*
X401574Y346710D02*
X404114D01*
X402844Y345440D02*
Y347980D01*
X427736Y359156D02*
X430276D01*
X429006Y357886D02*
Y360426D01*
X474726Y485394D02*
X477266D01*
X475996Y484124D02*
Y486664D01*
X379420Y445200D02*
X381960D01*
X380690Y443930D02*
Y446470D01*
X415036Y426720D02*
X417576D01*
X416306Y425450D02*
Y427990D01*
X418136Y135636D02*
X420676D01*
X419406Y134366D02*
Y136906D01*
X450636Y225298D02*
X453176D01*
X451906Y224028D02*
Y226568D01*
X468480Y247246D02*
X471020D01*
X469750Y245976D02*
Y248516D01*
X279654Y569214D02*
X282194D01*
X280924Y567944D02*
Y570484D01*
X504952Y617982D02*
X507492D01*
X506222Y616712D02*
Y619252D01*
X504952Y626110D02*
X507492D01*
X506222Y624840D02*
Y627380D01*
X475488Y617982D02*
X478028D01*
X476758Y616712D02*
Y619252D01*
X470535Y622046D02*
X473075D01*
X471805Y620776D02*
Y623316D01*
X466344Y580136D02*
X468884D01*
X467614Y578866D02*
Y581406D01*
X520446Y711708D02*
X522986D01*
X521716Y710438D02*
Y712978D01*
X525526Y716788D02*
X528066D01*
X526796Y715518D02*
Y718058D01*
X530606Y721868D02*
X533146D01*
X531876Y720598D02*
Y723138D01*
X509641Y688340D02*
X512181D01*
X510911Y687070D02*
Y689610D01*
X339344Y557276D02*
X341884D01*
X340614Y556006D02*
Y558546D01*
X368808Y551434D02*
X371348D01*
X370078Y550164D02*
Y552704D01*
X481330Y631190D02*
X483870D01*
X482600Y629920D02*
Y632460D01*
X435420Y509200D02*
X437960D01*
X436690Y507930D02*
Y510470D01*
X440942Y691896D02*
X443482D01*
X442212Y690626D02*
Y693166D01*
X432942Y691896D02*
X435482D01*
X434212Y690626D02*
Y693166D01*
X408942Y691896D02*
X411482D01*
X410212Y690626D02*
Y693166D01*
X400942Y691896D02*
X403482D01*
X402212Y690626D02*
Y693166D01*
X392942Y691896D02*
X395482D01*
X394212Y690626D02*
Y693166D01*
X384942Y691896D02*
X387482D01*
X386212Y690626D02*
Y693166D01*
X360942Y691896D02*
X363482D01*
X362212Y690626D02*
Y693166D01*
X400942Y755000D02*
X403482D01*
X402212Y753730D02*
Y756270D01*
X392942Y755000D02*
X395482D01*
X394212Y753730D02*
Y756270D01*
X384942Y755000D02*
X387482D01*
X386212Y753730D02*
Y756270D01*
X376942Y755000D02*
X379482D01*
X378212Y753730D02*
Y756270D01*
X368942Y755000D02*
X371482D01*
X370212Y753730D02*
Y756270D01*
X360942Y755000D02*
X363482D01*
X362212Y753730D02*
Y756270D01*
X352942Y755000D02*
X355482D01*
X354212Y753730D02*
Y756270D01*
X438150Y554990D02*
X440690D01*
X439420Y553720D02*
Y556260D01*
X254508Y482854D02*
X257048D01*
X255778Y481584D02*
Y484124D01*
X123698Y394462D02*
X126238D01*
X124968Y393192D02*
Y395732D01*
X256286Y574294D02*
X258826D01*
X257556Y573024D02*
Y575564D01*
X322580Y484124D02*
X325120D01*
X323850Y482854D02*
Y485394D01*
X309880Y461518D02*
X312420D01*
X311150Y460248D02*
Y462788D01*
X51308Y692252D02*
X53848D01*
X52578Y690982D02*
Y693522D01*
X51308Y684252D02*
X53848D01*
X52578Y682982D02*
Y685522D01*
X51308Y676252D02*
X53848D01*
X52578Y674982D02*
Y677522D01*
X51308Y668252D02*
X53848D01*
X52578Y666982D02*
Y669522D01*
X51308Y660252D02*
X53848D01*
X52578Y658982D02*
Y661522D01*
X51308Y652252D02*
X53848D01*
X52578Y650982D02*
Y653522D01*
X51308Y644252D02*
X53848D01*
X52578Y642982D02*
Y645522D01*
X51308Y636252D02*
X53848D01*
X52578Y634982D02*
Y637522D01*
X187452Y628252D02*
X189992D01*
X188722Y626982D02*
Y629522D01*
X187452Y620252D02*
X189992D01*
X188722Y618982D02*
Y621522D01*
X187452Y612252D02*
X189992D01*
X188722Y610982D02*
Y613522D01*
X147548Y552958D02*
X150088D01*
X148818Y551688D02*
Y554228D01*
X379420Y389200D02*
X381960D01*
X380690Y387930D02*
Y390470D01*
X475166Y469200D02*
X478214D01*
X476690Y467676D02*
Y470724D01*
X437642Y140462D02*
X440182D01*
X438912Y139192D02*
Y141732D01*
X413404Y61360D02*
X416452D01*
X414928Y59836D02*
Y62884D01*
X448920Y102260D02*
X451968D01*
X450444Y100736D02*
Y103784D01*
X314706Y81280D02*
X317754D01*
X316230Y79756D02*
Y82804D01*
X386334Y129286D02*
X388874D01*
X387604Y128016D02*
Y130556D01*
X599186Y184150D02*
X601726D01*
X600456Y182880D02*
Y185420D01*
X436132Y182880D02*
X439180D01*
X437656Y181356D02*
Y184404D01*
X406132Y182880D02*
X409180D01*
X407656Y181356D02*
Y184404D01*
X421132Y182880D02*
X424180D01*
X422656Y181356D02*
Y184404D01*
X211836Y204724D02*
X214376D01*
X213106Y203454D02*
Y205994D01*
X477266Y132588D02*
X479806D01*
X478536Y131318D02*
Y133858D01*
X463654Y209700D02*
X466194D01*
X464924Y208430D02*
Y210970D01*
X418136Y225298D02*
X420676D01*
X419406Y224028D02*
Y226568D01*
X319786Y224686D02*
X322326D01*
X321056Y223416D02*
Y225956D01*
X398636Y140462D02*
X401176D01*
X399906Y139192D02*
Y141732D01*
X424636Y225298D02*
X427176D01*
X425906Y224028D02*
Y226568D01*
X398636Y225298D02*
X401176D01*
X399906Y224028D02*
Y226568D01*
X431136Y225298D02*
X433676D01*
X432406Y224028D02*
Y226568D01*
X411636Y225298D02*
X414176D01*
X412906Y224028D02*
Y226568D01*
X392136Y140462D02*
X394676D01*
X393406Y139192D02*
Y141732D01*
X395732Y258318D02*
X398780D01*
X397256Y256794D02*
Y259842D01*
X422250Y258420D02*
X425298D01*
X423774Y256896D02*
Y259944D01*
X405136Y140462D02*
X407676D01*
X406406Y139192D02*
Y141732D01*
X444136Y140462D02*
X446676D01*
X445406Y139192D02*
Y141732D01*
X233680Y492252D02*
X236728D01*
X235204Y490728D02*
Y493776D01*
X237490Y596252D02*
X240538D01*
X239014Y594728D02*
Y597776D01*
X238760Y700278D02*
X241808D01*
X240284Y698754D02*
Y701802D01*
X235966Y508252D02*
X239014D01*
X237490Y506728D02*
Y509776D01*
X236220Y556252D02*
X239268D01*
X237744Y554728D02*
Y557776D01*
X188468Y532252D02*
X191516D01*
X189992Y530728D02*
Y533776D01*
X188468Y580252D02*
X191516D01*
X189992Y578728D02*
Y581776D01*
X51054Y700252D02*
X54102D01*
X52578Y698728D02*
Y701776D01*
X51054Y596252D02*
X54102D01*
X52578Y594728D02*
Y597776D01*
X51054Y556252D02*
X54102D01*
X52578Y554728D02*
Y557776D01*
X51054Y508252D02*
X54102D01*
X52578Y506728D02*
Y509776D01*
X51054Y492252D02*
X54102D01*
X52578Y490728D02*
Y493776D01*
X51562Y376428D02*
X54610D01*
X53086Y374904D02*
Y377952D01*
X427484Y461264D02*
X430024D01*
X428754Y459994D02*
Y462534D01*
X435612Y461264D02*
X438152D01*
X436882Y459994D02*
Y462534D01*
X427484Y453136D02*
X430024D01*
X428754Y451866D02*
Y454406D01*
X435612Y453136D02*
X438152D01*
X436882Y451866D02*
Y454406D01*
X427484Y445264D02*
X430024D01*
X428754Y443994D02*
Y446534D01*
X435612Y445264D02*
X438152D01*
X436882Y443994D02*
Y446534D01*
X443484Y445264D02*
X446024D01*
X444754Y443994D02*
Y446534D01*
X443484Y453264D02*
X446024D01*
X444754Y451994D02*
Y454534D01*
X443484Y461264D02*
X446024D01*
X444754Y459994D02*
Y462534D01*
X427166Y493200D02*
X430214D01*
X428690Y491676D02*
Y494724D01*
X458404Y492438D02*
X461452D01*
X459928Y490914D02*
Y493962D01*
X411166Y493200D02*
X414214D01*
X412690Y491676D02*
Y494724D01*
X412564Y471612D02*
X415104D01*
X413834Y470342D02*
Y472882D01*
X187452Y684252D02*
X189992D01*
X188722Y682982D02*
Y685522D01*
X403420Y509200D02*
X405960D01*
X404690Y507930D02*
Y510470D01*
X187452Y676252D02*
X189992D01*
X188722Y674982D02*
Y677522D01*
X187452Y668252D02*
X189992D01*
X188722Y666982D02*
Y669522D01*
X187452Y660252D02*
X189992D01*
X188722Y658982D02*
Y661522D01*
X411420Y501200D02*
X413960D01*
X412690Y499930D02*
Y502470D01*
X387420Y501200D02*
X389960D01*
X388690Y499930D02*
Y502470D01*
X403166Y469200D02*
X406214D01*
X404690Y467676D02*
Y470724D01*
X395420Y469200D02*
X397960D01*
X396690Y467930D02*
Y470470D01*
X387166Y461200D02*
X390214D01*
X388690Y459676D02*
Y462724D01*
X395420Y461200D02*
X397960D01*
X396690Y459930D02*
Y462470D01*
X395166Y437200D02*
X398214D01*
X396690Y435676D02*
Y438724D01*
X395420Y429200D02*
X397960D01*
X396690Y427930D02*
Y430470D01*
X387420Y429200D02*
X389960D01*
X388690Y427930D02*
Y430470D01*
X395420Y421200D02*
X397960D01*
X396690Y419930D02*
Y422470D01*
X379166Y421200D02*
X382214D01*
X380690Y419676D02*
Y422724D01*
X395420Y413200D02*
X397960D01*
X396690Y411930D02*
Y414470D01*
X403420Y405200D02*
X405960D01*
X404690Y403930D02*
Y406470D01*
X411420Y413200D02*
X413960D01*
X412690Y411930D02*
Y414470D01*
X419420Y413200D02*
X421960D01*
X420690Y411930D02*
Y414470D01*
X427420Y397200D02*
X429960D01*
X428690Y395930D02*
Y398470D01*
X427420Y405200D02*
X429960D01*
X428690Y403930D02*
Y406470D01*
X427420Y413200D02*
X429960D01*
X428690Y411930D02*
Y414470D01*
X435420Y405200D02*
X437960D01*
X436690Y403930D02*
Y406470D01*
X435420Y413200D02*
X437960D01*
X436690Y411930D02*
Y414470D01*
X451420Y405200D02*
X453960D01*
X452690Y403930D02*
Y406470D01*
X459420Y413200D02*
X461960D01*
X460690Y411930D02*
Y414470D01*
X467420Y413200D02*
X469960D01*
X468690Y411930D02*
Y414470D01*
X475420Y405200D02*
X477960D01*
X476690Y403930D02*
Y406470D01*
X491420Y420946D02*
X493960D01*
X492690Y419676D02*
Y422216D01*
X491420Y437200D02*
X493960D01*
X492690Y435930D02*
Y438470D01*
X483420Y437200D02*
X485960D01*
X484690Y435930D02*
Y438470D01*
X491420Y445200D02*
X493960D01*
X492690Y443930D02*
Y446470D01*
X483420Y445200D02*
X485960D01*
X484690Y443930D02*
Y446470D01*
X499420Y453200D02*
X501960D01*
X500690Y451930D02*
Y454470D01*
X491420Y453200D02*
X493960D01*
X492690Y451930D02*
Y454470D01*
X483420Y453200D02*
X485960D01*
X484690Y451930D02*
Y454470D01*
X483420Y461200D02*
X485960D01*
X484690Y459930D02*
Y462470D01*
X491420Y469200D02*
X493960D01*
X492690Y467930D02*
Y470470D01*
X483166Y469200D02*
X486214D01*
X484690Y467676D02*
Y470724D01*
X499420Y493200D02*
X501960D01*
X500690Y491930D02*
Y494470D01*
X499420Y501200D02*
X501960D01*
X500690Y499930D02*
Y502470D01*
X459166Y501200D02*
X462214D01*
X460690Y499676D02*
Y502724D01*
X451420Y509200D02*
X453960D01*
X452690Y507930D02*
Y510470D01*
X443420Y509200D02*
X445960D01*
X444690Y507930D02*
Y510470D01*
X443166Y501200D02*
X446214D01*
X444690Y499676D02*
Y502724D01*
X427420Y509200D02*
X429960D01*
X428690Y507930D02*
Y510470D01*
X419420Y501200D02*
X421960D01*
X420690Y499930D02*
Y502470D01*
X387420Y397200D02*
X389960D01*
X388690Y395930D02*
Y398470D01*
X379166Y413200D02*
X382214D01*
X380690Y411676D02*
Y414724D01*
X370658Y437200D02*
X373706D01*
X372182Y435676D02*
Y438724D01*
X379166Y405200D02*
X382214D01*
X380690Y403676D02*
Y406724D01*
X371166Y389200D02*
X374214D01*
X372690Y387676D02*
Y390724D01*
X491420Y397200D02*
X493960D01*
X492690Y395930D02*
Y398470D01*
X475166Y397200D02*
X478214D01*
X476690Y395676D02*
Y398724D01*
X475420Y413200D02*
X477960D01*
X476690Y411930D02*
Y414470D01*
X499420Y509200D02*
X501960D01*
X500690Y507930D02*
Y510470D01*
X51308Y500252D02*
X53848D01*
X52578Y498982D02*
Y501522D01*
X51308Y516252D02*
X53848D01*
X52578Y514982D02*
Y517522D01*
X51308Y524252D02*
X53848D01*
X52578Y522982D02*
Y525522D01*
X51308Y540252D02*
X53848D01*
X52578Y538982D02*
Y541522D01*
X51308Y548252D02*
X53848D01*
X52578Y546982D02*
Y549522D01*
X51308Y564252D02*
X53848D01*
X52578Y562982D02*
Y565522D01*
X51308Y572252D02*
X53848D01*
X52578Y570982D02*
Y573522D01*
X303784Y480060D02*
X306324D01*
X305054Y478790D02*
Y481330D01*
X189230Y500252D02*
X191770D01*
X190500Y498982D02*
Y501522D01*
X189230Y516252D02*
X191770D01*
X190500Y514982D02*
Y517522D01*
X189230Y524252D02*
X191770D01*
X190500Y522982D02*
Y525522D01*
X189230Y540252D02*
X191770D01*
X190500Y538982D02*
Y541522D01*
X189230Y548252D02*
X191770D01*
X190500Y546982D02*
Y549522D01*
X305308Y516252D02*
X307848D01*
X306578Y514982D02*
Y517522D01*
X288040Y524252D02*
X290580D01*
X289310Y522982D02*
Y525522D01*
X260090Y540252D02*
X262630D01*
X261360Y538982D02*
Y541522D01*
X277114Y501650D02*
X279654D01*
X278384Y500380D02*
Y502920D01*
X314452Y507492D02*
X316992D01*
X315722Y506222D02*
Y508762D01*
X51308Y588252D02*
X53848D01*
X52578Y586982D02*
Y589522D01*
X51308Y612252D02*
X53848D01*
X52578Y610982D02*
Y613522D01*
X51308Y620252D02*
X53848D01*
X52578Y618982D02*
Y621522D01*
X51308Y628252D02*
X53848D01*
X52578Y626982D02*
Y629522D01*
X413896Y589534D02*
X416436D01*
X415166Y588264D02*
Y590804D01*
X383540Y604520D02*
X386080D01*
X384810Y603250D02*
Y605790D01*
X386080Y609600D02*
X388620D01*
X387350Y608330D02*
Y610870D01*
X345440Y614680D02*
X347980D01*
X346710Y613410D02*
Y615950D01*
X388874Y571500D02*
X391414D01*
X390144Y570230D02*
Y572770D01*
X320040Y624840D02*
X322580D01*
X321310Y623570D02*
Y626110D01*
X307340Y620014D02*
X309880D01*
X308610Y618744D02*
Y621284D01*
X787654Y698956D02*
X790194D01*
X788924Y697686D02*
Y700226D01*
X787654Y738956D02*
X790194D01*
X788924Y737686D02*
Y740226D01*
X49276Y308982D02*
X52324D01*
X50800Y307458D02*
Y310506D01*
X51308Y319982D02*
X53848D01*
X52578Y318712D02*
Y321252D01*
X568960Y441962D02*
X571500D01*
X570230Y440692D02*
Y443232D01*
X568960Y448692D02*
X571500D01*
X570230Y447422D02*
Y449962D01*
X431546Y612648D02*
X434086D01*
X432816Y611378D02*
Y613918D01*
X464942Y691896D02*
X467482D01*
X466212Y690626D02*
Y693166D01*
X472942Y691896D02*
X475482D01*
X474212Y690626D02*
Y693166D01*
X480942Y691896D02*
X483482D01*
X482212Y690626D02*
Y693166D01*
X496942Y691896D02*
X499482D01*
X498212Y690626D02*
Y693166D01*
X408942Y755000D02*
X411482D01*
X410212Y753730D02*
Y756270D01*
X472942Y755000D02*
X475482D01*
X474212Y753730D02*
Y756270D01*
X480942Y755000D02*
X483482D01*
X482212Y753730D02*
Y756270D01*
X419420Y594868D02*
X421960D01*
X420690Y593598D02*
Y596138D01*
X399288Y604520D02*
X401828D01*
X400558Y603250D02*
Y605790D01*
X258064Y599694D02*
X260604D01*
X259334Y598424D02*
Y600964D01*
X364490Y629666D02*
X367030D01*
X365760Y628396D02*
Y630936D01*
X371094Y635254D02*
X373634D01*
X372364Y633984D02*
Y636524D01*
X356108Y630428D02*
X358648D01*
X357378Y629158D02*
Y631698D01*
X436118Y605536D02*
X438658D01*
X437388Y604266D02*
Y606806D01*
X391535Y619373D02*
X394075D01*
X392805Y618103D02*
Y620643D01*
X422783Y622681D02*
X425323D01*
X424053Y621411D02*
Y623951D01*
X481330Y587502D02*
X483870D01*
X482600Y586232D02*
Y588772D01*
X469646Y635508D02*
X472186D01*
X470916Y634238D02*
Y636778D01*
X511810Y593344D02*
X514350D01*
X513080Y592074D02*
Y594614D01*
X461518Y656336D02*
X464058D01*
X462788Y655066D02*
Y657606D01*
X504444Y641096D02*
X506984D01*
X505714Y639826D02*
Y642366D01*
X613664Y703580D02*
X616204D01*
X614934Y702310D02*
Y704850D01*
X147548Y636252D02*
X150088D01*
X148818Y634982D02*
Y637522D01*
X299466Y166220D02*
X302006D01*
X300736Y164950D02*
Y167490D01*
X423926Y706628D02*
X426466D01*
X425196Y705358D02*
Y707898D01*
X416942Y691896D02*
X419482D01*
X418212Y690626D02*
Y693166D01*
X377952Y626110D02*
X380492D01*
X379222Y624840D02*
Y627380D01*
X348992Y524252D02*
X351532D01*
X350262Y522982D02*
Y525522D01*
X160020Y432308D02*
X162560D01*
X161290Y431038D02*
Y433578D01*
X166878Y437388D02*
X169418D01*
X168148Y436118D02*
Y438658D01*
X174498Y442468D02*
X177038D01*
X175768Y441198D02*
Y443738D01*
X192024Y447548D02*
X194564D01*
X193294Y446278D02*
Y448818D01*
X198882Y452628D02*
X201422D01*
X200152Y451358D02*
Y453898D01*
X209042Y457708D02*
X211582D01*
X210312Y456438D02*
Y458978D01*
X223520Y462788D02*
X226060D01*
X224790Y461518D02*
Y464058D01*
X241808Y484886D02*
X244348D01*
X243078Y483616D02*
Y486156D01*
X262890Y579374D02*
X265430D01*
X264160Y578104D02*
Y580644D01*
X326136Y653542D02*
X328676D01*
X327406Y652272D02*
Y654812D01*
X254000Y533400D02*
X256540D01*
X255270Y532130D02*
Y534670D01*
X342138Y653796D02*
X344678D01*
X343408Y652526D02*
Y655066D01*
X448942Y691896D02*
X451482D01*
X450212Y690626D02*
Y693166D01*
X238252Y467868D02*
X240792D01*
X239522Y466598D02*
Y469138D01*
X456942Y691896D02*
X459482D01*
X458212Y690626D02*
Y693166D01*
X187452Y692252D02*
X189992D01*
X188722Y690982D02*
Y693522D01*
X228854Y627888D02*
X231394D01*
X230124Y626618D02*
Y629158D01*
X292220Y546354D02*
X294760D01*
X293490Y545084D02*
Y547624D01*
X243732Y297434D02*
X246780D01*
X245256Y295910D02*
Y298958D01*
X296418Y600202D02*
X298958D01*
X297688Y598932D02*
Y601472D01*
X188976Y508252D02*
X192024D01*
X190500Y506728D02*
Y509776D01*
X160274Y556252D02*
X163322D01*
X161798Y554728D02*
Y557776D01*
X259588Y511683D02*
X262128D01*
X260858Y510413D02*
Y512953D01*
X787654Y748956D02*
X790194D01*
X788924Y747686D02*
Y750226D01*
X481330Y564642D02*
X483870D01*
X482600Y563372D02*
Y565912D01*
X594576Y634238D02*
X597116D01*
X595846Y632968D02*
Y635508D01*
X613664Y743204D02*
X616204D01*
X614934Y741934D02*
Y744474D01*
X613664Y651764D02*
X616204D01*
X614934Y650494D02*
Y653034D01*
X441706Y355346D02*
X444246D01*
X442976Y354076D02*
Y356616D01*
X464058Y343662D02*
X466598D01*
X465328Y342392D02*
Y344932D01*
X523494Y340614D02*
X526034D01*
X524764Y339344D02*
Y341884D01*
X497452Y576580D02*
X499992D01*
X498722Y575310D02*
Y577850D01*
X465390Y445200D02*
X467930D01*
X466660Y443930D02*
Y446470D01*
X461772Y449580D02*
X464312D01*
X463042Y448310D02*
Y450850D01*
X529336Y574421D02*
X531876D01*
X530606Y573151D02*
Y575691D01*
X627380Y460248D02*
X629920D01*
X628650Y458978D02*
Y461518D01*
X483420Y429200D02*
X485960D01*
X484690Y427930D02*
Y430470D01*
X627380Y486724D02*
X629920D01*
X628650Y485454D02*
Y487994D01*
X589280Y422402D02*
X591820D01*
X590550Y421132D02*
Y423672D01*
X563372Y456946D02*
X565912D01*
X564642Y455676D02*
Y458216D01*
X84582Y568960D02*
X87122D01*
X85852Y567690D02*
Y570230D01*
X112014Y298196D02*
X114554D01*
X113284Y296926D02*
Y299466D01*
X218440Y813562D02*
X220980D01*
X219710Y812292D02*
Y814832D01*
X249174Y814578D02*
X251714D01*
X250444Y813308D02*
Y815848D01*
X124714Y420370D02*
X127254D01*
X125984Y419100D02*
Y421640D01*
X163576Y352425D02*
X166116D01*
X164846Y351155D02*
Y353695D01*
X413004Y352425D02*
X415544D01*
X414274Y351155D02*
Y353695D01*
X130302Y521716D02*
X132842D01*
X131572Y520446D02*
Y522986D01*
X117094Y304038D02*
X119634D01*
X118364Y302768D02*
Y305308D01*
X691395Y385833D02*
X693935D01*
X692665Y384563D02*
Y387103D01*
X564896Y342646D02*
X567436D01*
X566166Y341376D02*
Y343916D01*
X552450Y365760D02*
X554990D01*
X553720Y364490D02*
Y367030D01*
X541020Y177546D02*
X543560D01*
X542290Y176276D02*
Y178816D01*
X261620Y95504D02*
X264668D01*
X263144Y93980D02*
Y97028D01*
X504698Y589788D02*
X507238D01*
X505968Y588518D02*
Y591058D01*
X340360Y38100D02*
X342900D01*
X341630Y36830D02*
Y39370D01*
X591566Y592836D02*
X594106D01*
X592836Y591566D02*
Y594106D01*
X602234Y580898D02*
X604774D01*
X603504Y579628D02*
Y582168D01*
X525145Y569087D02*
X527685D01*
X526415Y567817D02*
Y570357D01*
X638302Y462280D02*
X640842D01*
X639572Y461010D02*
Y463550D01*
X531114Y449072D02*
X533654D01*
X532384Y447802D02*
Y450342D01*
X629666Y812800D02*
X632206D01*
X630936Y811530D02*
Y814070D01*
X550418Y385064D02*
X552958D01*
X551688Y383794D02*
Y386334D01*
X640080Y156718D02*
X643128D01*
X641604Y155194D02*
Y158242D01*
X766572Y209042D02*
X769620D01*
X768096Y207518D02*
Y210566D01*
X748942Y219306D02*
X751990D01*
X750466Y217782D02*
Y220830D01*
X688998Y219306D02*
X692046D01*
X690522Y217782D02*
Y220830D01*
X460756Y441960D02*
X463296D01*
X462026Y440690D02*
Y443230D01*
X680466Y212806D02*
X683006D01*
X681736Y211536D02*
Y214076D01*
X395420Y453200D02*
X397960D01*
X396690Y451930D02*
Y454470D01*
X451612Y441960D02*
X454152D01*
X452882Y440690D02*
Y443230D01*
X423926Y691896D02*
X426466D01*
X425196Y690626D02*
Y693166D01*
X427228Y552958D02*
X429768D01*
X428498Y551688D02*
Y554228D01*
X488942Y691896D02*
X491482D01*
X490212Y690626D02*
Y693166D01*
X387420Y421200D02*
X389960D01*
X388690Y419930D02*
Y422470D01*
X271018Y67564D02*
X273558D01*
X272288Y66294D02*
Y68834D01*
X331978Y653542D02*
X334518D01*
X333248Y652272D02*
Y654812D01*
X311404Y648716D02*
X313944D01*
X312674Y647446D02*
Y649986D01*
X347980Y630079D02*
X350520D01*
X349250Y628809D02*
Y631349D01*
X618490Y476758D02*
X621030D01*
X619760Y475488D02*
Y478028D01*
X333248Y297434D02*
X335788D01*
X334518Y296164D02*
Y298704D01*
X710946Y390652D02*
X713486D01*
X712216Y389382D02*
Y391922D01*
X711708Y400050D02*
X714248D01*
X712978Y398780D02*
Y401320D01*
X711858Y409852D02*
X714906D01*
X713382Y408328D02*
Y411376D01*
X731520Y483616D02*
X734568D01*
X733044Y482092D02*
Y485140D01*
X740918Y434340D02*
X743458D01*
X742188Y433070D02*
Y435610D01*
X556006Y501200D02*
X559054D01*
X557530Y499676D02*
Y502724D01*
X803148Y615442D02*
X805688D01*
X804418Y614172D02*
Y616712D01*
X595630Y536448D02*
X598170D01*
X596900Y535178D02*
Y537718D01*
X803148Y623062D02*
X805688D01*
X804418Y621792D02*
Y624332D01*
X732282Y548282D02*
X734822D01*
X733552Y547012D02*
Y549552D01*
X732282Y526392D02*
X734822D01*
X733552Y525122D02*
Y527662D01*
X700278Y296164D02*
X703326D01*
X701802Y294640D02*
Y297688D01*
X502252Y154592D02*
X505300D01*
X503776Y153068D02*
Y156116D01*
X164338Y55880D02*
X166878D01*
X165608Y54610D02*
Y57150D01*
X215900Y160274D02*
X218948D01*
X217424Y158750D02*
Y161798D01*
X222918Y48674D02*
X225966D01*
X224442Y47150D02*
Y50198D01*
X253652Y204630D02*
X256700D01*
X255176Y203106D02*
Y206154D01*
X213106Y106172D02*
X216154D01*
X214630Y104648D02*
Y107696D01*
X730250Y566166D02*
X733298D01*
X731774Y564642D02*
Y567690D01*
X732282Y517652D02*
X734822D01*
X733552Y516382D02*
Y518922D01*
X719406Y110158D02*
X722454D01*
X720930Y108634D02*
Y111682D01*
X187198Y700252D02*
X190246D01*
X188722Y698728D02*
Y701776D01*
X811784Y713232D02*
X814832D01*
X813308Y711708D02*
Y714756D01*
X816610Y767842D02*
X819658D01*
X818134Y766318D02*
Y769366D01*
X541020Y734392D02*
X544068D01*
X542544Y732868D02*
Y735916D01*
X541020Y712392D02*
X544068D01*
X542544Y710868D02*
Y713916D01*
X791972Y743956D02*
X794512D01*
X793242Y742686D02*
Y745226D01*
X328942Y691896D02*
X331482D01*
X330212Y690626D02*
Y693166D01*
X421386Y643382D02*
X423926D01*
X422656Y642112D02*
Y644652D01*
X432308Y641350D02*
X435356D01*
X433832Y639826D02*
Y642874D01*
X506857Y389509D02*
X509905D01*
X508381Y387985D02*
Y391033D01*
X513588Y360172D02*
X516636D01*
X515112Y358648D02*
Y361696D01*
X456438Y425196D02*
X459486D01*
X457962Y423672D02*
Y426720D01*
X354584Y459486D02*
X357632D01*
X356108Y457962D02*
Y461010D01*
X466344Y536448D02*
X469392D01*
X467868Y534924D02*
Y537972D01*
X370658Y429454D02*
X373706D01*
X372182Y427930D02*
Y430978D01*
X336550Y434340D02*
X339598D01*
X338074Y432816D02*
Y435864D01*
X529336Y529082D02*
X531876D01*
X530606Y527812D02*
Y530352D01*
X294132Y372364D02*
X297180D01*
X295656Y370840D02*
Y373888D01*
X51054Y580252D02*
X54102D01*
X52578Y578728D02*
Y581776D01*
X51054Y532252D02*
X54102D01*
X52578Y530728D02*
Y533776D01*
X187198Y596252D02*
X190246D01*
X188722Y594728D02*
Y597776D01*
X188976Y492252D02*
X192024D01*
X190500Y490728D02*
Y493776D01*
X370912Y445200D02*
X373452D01*
X372182Y443930D02*
Y446470D01*
X352298Y442976D02*
X354838D01*
X353568Y441706D02*
Y444246D01*
X358140Y448310D02*
X360680D01*
X359410Y447040D02*
Y449580D01*
X346456Y459232D02*
X348996D01*
X347726Y457962D02*
Y460502D01*
X26162Y363982D02*
X28702D01*
X27432Y362712D02*
Y365252D01*
X26162Y352982D02*
X28702D01*
X27432Y351712D02*
Y354252D01*
X49530Y468122D02*
X52578D01*
X51054Y466598D02*
Y469646D01*
X104648Y445262D02*
X107188D01*
X105918Y443992D02*
Y446532D01*
X104648Y431800D02*
X107188D01*
X105918Y430530D02*
Y433070D01*
X135382Y312674D02*
X137922D01*
X136652Y311404D02*
Y313944D01*
X49022Y297982D02*
X51562D01*
X50292Y296712D02*
Y299252D01*
X140462Y328676D02*
X143002D01*
X141732Y327406D02*
Y329946D01*
X49022Y286982D02*
X51562D01*
X50292Y285712D02*
Y288252D01*
X582930Y439166D02*
X585470D01*
X584200Y437896D02*
Y440436D01*
X243078Y781050D02*
X245618D01*
X244348Y779780D02*
Y782320D01*
X459486Y325628D02*
X462026D01*
X460756Y324358D02*
Y326898D01*
X815594Y823214D02*
X818642D01*
X817118Y821690D02*
Y824738D01*
X339730Y811000D02*
X342270D01*
X341000Y809730D02*
Y812270D01*
X468730Y812250D02*
X471270D01*
X470000Y810980D02*
Y813520D01*
X616458Y820674D02*
X618998D01*
X617728Y819404D02*
Y821944D01*
X519980Y749000D02*
X522520D01*
X521250Y747730D02*
Y750270D01*
X497230Y739250D02*
X499770D01*
X498500Y737980D02*
Y740520D01*
X513255Y730286D02*
X515795D01*
X514525Y729016D02*
Y731556D01*
X496942Y755000D02*
X499482D01*
X498212Y753730D02*
Y756270D01*
X432942Y755000D02*
X435482D01*
X434212Y753730D02*
Y756270D01*
X440942Y755000D02*
X443482D01*
X442212Y753730D02*
Y756270D01*
X448942Y755000D02*
X451482D01*
X450212Y753730D02*
Y756270D01*
X291226Y803000D02*
X294274D01*
X292750Y801476D02*
Y804524D01*
M02*
