M48
;Layer_Color=9474304
;FILE_FORMAT=4:4
METRIC,LZ
;TYPE=PLATED
T1F00S00C0.2540
T2F00S00C0.3048
T3F00S00C0.9000
T4F00S00C3.1750
%
T01
X00165608Y0005588
X00272288Y00067564
X00213106Y00204724
X00147574Y0030988
X00136652Y00312674
X00127254Y0032004
X00141732Y00328676
X0015367Y0033655
X00164846Y00352425
X00160528Y00364998
X0015367Y00414274
X00147574Y00414528
X00141478Y00404876
X00124968Y00394462
X00125984Y0042037
X00119761Y00425577
X0013589Y00427482
X00068326Y00393192
X00027432Y00363982
Y00352982
X00052578Y00319982
X00050292Y00297982
Y00286982
X00113284Y00298196
X00118364Y00304038
X00334518Y00297434
X00321056Y00224686
X00300736Y0016622
X00393406Y00140462
X00399906
X00406406
X00419406Y00135636
X00438912Y00140462
X00445406
X00478536Y00132588
X00464924Y002097
X00451906Y00225298
X00432406
X00425906
X00419406
X00412906
X00399906
X0046975Y00247246
X00469519Y0029591
X00475996
X00482854
X0046101
X0045466
X00447802
X00460756Y00325628
X00465328Y00343662
X00447294Y00342392
X00442976Y00355346
X00430784Y00354076
X00429006Y00359156
X00414274Y00352425
X0040386Y00357124
X00402844Y0034671
X00392938
X00372618Y00347218
X0038735Y00375412
X00397896Y00371094
X0038069Y003892
X0038869Y003972
X0039669Y004132
Y004212
X0038869
X0040469Y004052
X0041269Y004132
X0042069
X0042869
Y004052
Y003972
X0043669Y004052
Y004132
X0045269Y004052
X0046069Y004132
X0046869
X0047669
Y004052
X0049269Y003972
Y00420946
X00558038Y00422402
X0059055
X00602996Y00396748
X00556006Y00389636
X00551688Y00385064
X0055372Y0036576
X00566166Y00342646
X00524764Y00340614
X00488847Y00343916
X00493268Y00325628
X00503682Y00302006
X00420624Y00324612
X00416306Y0042672
X00325882Y00423522
Y00404264
X00335534Y00383286
X00387604Y00129286
X0034163Y000381
X0054229Y00177546
X00600456Y0018415
X00661162Y00225806
X00681736Y00212806
X00692665Y00385833
X00712216Y00390652
X00712978Y0040005
X00729234Y0042418
X00742188Y0043434
X00717804Y00464566
X00680212Y00468122
X00733552Y00517652
Y00526392
Y00548282
X00804418Y00615442
Y00623062
X00813816Y00647954
X00788924Y00698956
Y00738956
X00793242Y00743956
X00788924Y00748956
X00797814Y00760052
X00757682Y00803656
X00752602Y00807974
X00747268Y00812546
X00736346Y00806196
X0073152Y00809752
X0072644Y00813054
X00720344Y00810006
X00630936Y008128
X00617728Y00820674
X00614934Y00743204
Y0070358
X00595846Y00698956
X00596265Y00713326
X00593598Y00718202
X00595846Y00668528
Y00634238
X00614934Y00651764
X00556006Y0063246
X00544068Y00596138
X00539496Y00590296
X005334Y00591312
X00532638Y00601218
X0051308Y00593344
X00505968Y00589788
X00498722Y0057658
X004826Y00587502
X00467614Y00580136
X00466344Y00564896
X00465582Y0055753
X004826Y00564642
X00526415Y00569087
X00530606Y00574421
X00520954Y00547878
X00530606Y00529082
X00536194Y00518414
X00546608
X0055753Y0051955
X0055118Y00493776
X00569976Y00490474
X00579628
X00584516Y00494092
X00582168Y00533908
X0058801
X005969Y00536448
X00575314Y00533908
X00592836Y00559308
X00601726Y0055753
X00603504Y00580898
X0058674Y00586486
X00581914Y00589788
X00592836Y00592836
X00569722Y005969
X00506222Y00617982
Y0062611
X00505714Y00641096
X004826Y0063119
X00470916Y00635508
X00471805Y00622046
X00476758Y00617982
X00466852Y00605536
X00437388
X00432816Y00612648
X00424053Y00622681
X00422656Y00643382
X00391519Y0062578
X00392805Y00619373
X0038735Y006096
X0038481Y0060452
X00400558
X0041652Y00600529
X0042069Y00594868
X00415166Y00589534
X00390144Y005715
X00370078Y00551434
X00340614Y00557276
X00350262Y00524252
X00315722Y00507492
X00306578Y00516252
X0029847Y00503192
X00278384Y0050165
X0028931Y00524252
X0029349Y00546354
X00280924Y00569214
X00297688Y00600202
X0030861Y00620014
X0032131Y0062484
X00312674Y00648716
X00327406Y00653542
X00333248
X00343408Y00653796
X0034925Y00630079
X00357378Y00630428
X0036576Y00629666
X00372364Y00635254
X00379222Y0062611
X0034671Y0061468
X00362212Y00691896
X00386212
X00394212
X00402212
X00410212
X00418212
X00425196
X00434212
X00442212
X00450212
X00458212
X00466212
X00474212
X00482212
X00490212
X00498212
X00510911Y0068834
X00521716Y00711708
X00526796Y00716788
X00531876Y00721868
X00514525Y00730286
X004985Y0073925
X00498212Y00755
X00490212
X00482212
X00474212
X00458212Y00755
X00450212Y00755
X00442212
X00434212
X00410212
X00402212
X00394212
X00386212
X00378212
X00370212
X00362212
X00354212
X00346212
X00338212
X00330212
Y00691896
X00425196Y00706628
X00462788Y00656336
X0043942Y0055499
X00428498Y00552958
X0042869Y005092
X0043669
X0044469
X0045269
X0042069Y005012
X0041269
X0040469Y004932
X0039669
X0038869Y005012
X0040469Y005092
X00413834Y00471612
X0039669Y004692
Y004612
Y004532
X0038869Y004452
X0038069
X00372182
X0035941Y0044831
X00353568Y00442976
X00347726Y00459232
X00324104Y00462788
X0031115Y00461518
X00314706Y0048006
X00305054
X0032385Y00484124
X0038869Y004292
X0039669
X00428754Y00445264
Y00453136
Y00461264
X00436882
X00444754
Y00453264
X00436882Y00453136
Y00445264
X00444754
X00452882Y0044196
X00462026
X0046666Y004452
X00463042Y0044958
X00475742Y00437388
X0048469Y004372
X0049269
Y004452
X0048469
Y004532
X0049269
X0050069
X0048469Y004612
X0049269Y004692
X0050069Y004932
Y005012
Y005092
X00512188Y0048247
X00475996Y00485394
X004572Y0047244
X0048469Y004292
X00532384Y00449072
X00542798Y00446278
X0054102Y00455168
X0055372Y00456692
X00558419Y00450469
X00564642Y00456946
X0057023Y00448692
Y00441962
X005842Y00439166
X00599948Y00456438
X0062865Y00460248
X00639572Y0046228
X00629666Y0047752
X0062865Y00486724
X0061976Y00476758
X00551434Y00431292
X0053425Y0075375
X005275Y00751461
X0052125Y00749
X0047Y0081225
X00389519Y00798789
X00372Y007965
X00341Y00811
X00250444Y00814578
X0021971Y00813562
X00244348Y0078105
X0026975Y007565
X00188722Y00692252
Y00684252
Y00676252
Y00668252
Y00660252
Y00628252
Y00620252
Y00612252
X00230124Y00627888
X00259334Y00599694
X0026416Y00579374
X00257556Y00574294
X0026136Y00540252
X0025527Y005334
X00260858Y00511683
X00271018Y0049022
X00255778Y00482854
X00243078Y00484886
X00239522Y00467868
X0022479Y00462788
X00210312Y00457708
X00200152Y00452628
X00193294Y00447548
X00175768Y00442468
X00168148Y00437388
X0016129Y00432308
X00105918Y004318
Y00445262
X00131572Y00521716
X00148818Y00552958
X001905Y00548252
Y00540252
Y00524252
Y00516252
Y00500252
X00052578
Y00516252
Y00524252
Y00540252
Y00548252
Y00564252
Y00572252
Y00588252
Y00612252
Y00620252
Y00628252
Y00636252
Y00644252
Y00652252
Y00660252
Y00668252
Y00676252
Y00684252
Y00692252
X00148818Y00636252
X00085852Y0056896
X001397Y00811784
T02
X00224442Y00048674
X0021463Y00106172
X00217424Y00160274
X00255176Y0020463
X00245256Y00297434
X000508Y00308982
X00054102Y0032639
X00053086Y00376428
X00263144Y00095504
X0031623Y0008128
X00414928Y0006136
X00450444Y0010226
X00437656Y0018288
X00422656
X00407656
X00406406Y00225298
X00397256Y00258318
X00423774Y0025842
X0037269Y003892
X0038069Y004052
Y004132
Y004212
X0035926Y00414124
Y003999
X00306176Y0038953
X00295656Y00372364
X0047669Y003972
X00508381Y00389509
X00515112Y00360172
X00457962Y00425196
X00503776Y00154592
X00641604Y00156718
X00613664Y00235712
X00690522Y00219306
X00750466
X00768096Y00209042
X0072093Y00110158
X00701802Y00296164
X00713382Y00409852
X00733044Y00483616
X00732282Y0049784
X00731774Y00566166
X00773684Y00654812
X00813308Y00713232
X00818134Y00767842
X00817118Y00823214
X00777842Y0079994
X00542544Y00734392
Y00712392
X00433832Y0064135
X00467868Y00536448
X00507144Y00537464
X0046069Y005012
X0045269
X0044469
X0042869Y004932
X0041269
X0040469Y004692
X0038869Y004612
X0039669Y004372
X00372182
Y00429454
X00338074Y0043434
X00356108Y00459486
X0041671Y0044465
X0047669Y004692
X0048469
X00459928Y00492438
X0055753Y005012
X00570164Y00477454
X00287676Y00437282
X0029275Y00803
X00240284Y00700278
X00188722Y00700252
Y00596252
X00189992Y00580252
Y00532252
X001905Y00508252
Y00492252
X00235204
X0023749Y00508252
X00237744Y00556252
X00239014Y00596252
X0014859Y00611124
X00161798Y00556252
X00052578
Y00580252
Y00596252
Y00532252
Y00508252
Y00492252
X00051054Y00468122
X00052578Y00700252
T03
X00120396Y00088392
Y00113792
X005715Y00102616
Y00128016
X00565658Y00314452
X00591058
X00616458
X00641858
X00667258
X00690372Y0036703
X00715772
X00760984Y00354838
Y00380238
Y00405638
X00786384
Y00380238
Y00354838
X00801878Y00316992
X00827278
X00852678
X00847598Y00425958
X00825592Y00204624
Y00160624
X00786384Y00431038
Y00456438
Y00481838
Y00507238
Y00532638
Y00558038
Y00583438
X00760984
Y00558038
Y00532638
Y00507238
Y00481838
Y00456438
Y00431038
X00710438Y00452628
Y00478028
X00847598Y00476758
Y00451358
Y0051054
Y0053594
Y0056134
Y00597154
Y00622554
Y00647954
X0025781Y0083188
X0023241
X0020701
X0018161
X0015621
X0013081
Y0085728
X0015621
X0018161
X0020701
X0023241
X0025781
Y0088268
X0023241
X0020701
X0018161
X0015621
X0013081
Y0090808
X0015621
X0018161
X0020701
X0023241
X0025781
X0028321
Y0088268
Y0085728
Y0083188
X0030861
X0033401
X0035941
X0038481
X0041021
X0043561
X0046101
X0048641
X0051181
X0053721
X0056261
X0058801
X0061341
X0063881
X0066421
Y0085728
X0063881
X0061341
X0058801
X0056261
X0053721
X0051181
X0048641
X0046101
X0043561
X0041021
X0038481
X0035941
X0033401
X0030861
Y0088268
X0033401
X0035941
X0038481
X0041021
X0043561
X0046101
X0048641
X0051181
X0053721
X0056261
X0058801
X0061341
X0063881
X0066421
Y0090808
X0063881
X0061341
X0058801
X0056261
X0053721
X0051181
X0048641
X0046101
X0043561
X0041021
X0038481
X0035941
X0033401
X0030861
X0068961
Y0088268
Y0085728
Y0083188
X0071501
X0074041
X0076581
Y0085728
X0074041
X0071501
Y0088268
X0074041
X0076581
Y0090808
X0074041
X0071501
T04
X00041731Y000508
X00841831Y000508
X0007983Y009081
X0081643
M30
