%FSLAX44Y44*%
%MOMM*%
G71*
G01*
G75*
G04 Layer_Color=8421504*
%ADD10R,0.7000X0.9000*%
%ADD11R,1.5000X1.3000*%
%ADD12R,2.2000X2.6000*%
%ADD13R,1.2000X1.5000*%
%ADD14R,1.2000X1.4000*%
%ADD15R,1.4000X1.2000*%
%ADD16R,1.1000X1.0000*%
%ADD17R,2.6000X2.2000*%
%ADD18R,0.3500X1.5500*%
%ADD19O,0.3500X1.5500*%
%ADD20R,4.2000X3.1000*%
%ADD21R,0.6000X1.4000*%
%ADD22O,1.0000X0.4000*%
%ADD23R,1.0000X0.4000*%
%ADD24R,1.9000X1.3000*%
%ADD25R,2.8000X1.0000*%
%ADD26R,0.8000X1.0000*%
%ADD27R,1.2000X1.0000*%
%ADD28R,1.2000X0.7000*%
%ADD29O,0.5500X1.5500*%
%ADD30C,0.3500*%
%ADD31R,1.0000X0.3000*%
%ADD32R,1.0500X0.4000*%
%ADD33R,2.5000X0.5000*%
%ADD34R,2.5000X2.0000*%
%ADD35R,1.5000X1.2000*%
%ADD36C,0.1778*%
%ADD37C,0.3048*%
%ADD38C,0.2540*%
%ADD39R,1.5000X1.5000*%
%ADD40C,1.5000*%
%ADD41R,1.5000X1.5000*%
%ADD42C,6.3500*%
%ADD43C,1.3000*%
%ADD44C,0.5080*%
%ADD45C,0.5588*%
%ADD46C,1.0160*%
%ADD47C,1.9160*%
%ADD48C,1.0160*%
%ADD49C,1.0668*%
%ADD50C,0.3810*%
%ADD51C,4.1910*%
%ADD52R,0.9000X0.7000*%
%ADD53R,1.0500X1.3000*%
%ADD54R,1.4000X3.3000*%
%ADD55R,1.3000X1.9000*%
%ADD56C,0.2500*%
%ADD57C,0.2000*%
%ADD58C,0.6000*%
%ADD59C,0.3000*%
%ADD60C,0.2032*%
%ADD61C,0.1000*%
%ADD62C,0.1270*%
D10*
X316992Y404264D02*
D03*
Y391264D02*
D03*
Y423522D02*
D03*
Y436522D02*
D03*
X701802Y313794D02*
D03*
Y326794D02*
D03*
X699770Y535074D02*
D03*
Y522074D02*
D03*
X677418Y535282D02*
D03*
Y548282D02*
D03*
D11*
X432816Y102260D02*
D03*
Y121260D02*
D03*
X300736Y222860D02*
D03*
Y203860D02*
D03*
X382016Y258420D02*
D03*
Y239420D02*
D03*
X437896Y258420D02*
D03*
Y239420D02*
D03*
X529336Y207620D02*
D03*
Y188620D02*
D03*
D12*
X387096Y61360D02*
D03*
Y111360D02*
D03*
X672338Y141840D02*
D03*
Y91840D02*
D03*
D13*
X270500Y786250D02*
D03*
X292500D02*
D03*
X202614Y556252D02*
D03*
X224614D02*
D03*
X202614Y524000D02*
D03*
X224614D02*
D03*
X202614Y700252D02*
D03*
X224614D02*
D03*
X202614Y596252D02*
D03*
X224614D02*
D03*
X202614Y492252D02*
D03*
X224614D02*
D03*
D14*
X712884Y174498D02*
D03*
X732884D02*
D03*
X224442Y81280D02*
D03*
X244442D02*
D03*
X206662Y177292D02*
D03*
X226662D02*
D03*
X224442Y30988D02*
D03*
X244442D02*
D03*
X275176Y223520D02*
D03*
X255176D02*
D03*
D15*
X796798Y683100D02*
D03*
Y663100D02*
D03*
X625348Y569054D02*
D03*
Y549054D02*
D03*
X478536Y142400D02*
D03*
Y162400D02*
D03*
X479298Y193200D02*
D03*
Y213200D02*
D03*
X205740Y141826D02*
D03*
Y121826D02*
D03*
X670306Y484030D02*
D03*
Y504030D02*
D03*
X797814Y779940D02*
D03*
Y799940D02*
D03*
X522224Y122776D02*
D03*
Y102776D02*
D03*
X74930Y451706D02*
D03*
Y431706D02*
D03*
D16*
X304156Y81280D02*
D03*
X287156D02*
D03*
X304156Y55880D02*
D03*
X287156D02*
D03*
X304156Y30480D02*
D03*
X287156D02*
D03*
D17*
X295256Y137160D02*
D03*
X245256D02*
D03*
D18*
X393406Y154130D02*
D03*
D19*
X399906D02*
D03*
X406406D02*
D03*
X412906D02*
D03*
X419406D02*
D03*
X425906D02*
D03*
X432406D02*
D03*
X438906D02*
D03*
X445406D02*
D03*
X451906D02*
D03*
X393406Y211630D02*
D03*
X399906D02*
D03*
X406406D02*
D03*
X412906D02*
D03*
X419406D02*
D03*
X425906D02*
D03*
X432406D02*
D03*
X438906D02*
D03*
X445406D02*
D03*
X451906D02*
D03*
D20*
X422656Y182880D02*
D03*
D21*
X204876Y203860D02*
D03*
X223876D02*
D03*
X214376Y222860D02*
D03*
D22*
X66422Y700252D02*
D03*
Y692252D02*
D03*
Y684252D02*
D03*
Y676252D02*
D03*
Y668252D02*
D03*
Y660252D02*
D03*
Y652252D02*
D03*
Y644252D02*
D03*
Y636252D02*
D03*
Y628252D02*
D03*
Y620252D02*
D03*
Y612252D02*
D03*
Y604252D02*
D03*
Y596252D02*
D03*
Y588252D02*
D03*
Y580252D02*
D03*
Y572252D02*
D03*
Y564252D02*
D03*
Y556252D02*
D03*
Y548252D02*
D03*
Y540252D02*
D03*
Y532252D02*
D03*
Y524252D02*
D03*
Y516252D02*
D03*
Y508252D02*
D03*
Y500252D02*
D03*
Y492252D02*
D03*
X176022Y700252D02*
D03*
Y692252D02*
D03*
Y684252D02*
D03*
Y676252D02*
D03*
Y668252D02*
D03*
Y660252D02*
D03*
Y652252D02*
D03*
Y644252D02*
D03*
Y636252D02*
D03*
Y628252D02*
D03*
Y620252D02*
D03*
Y612252D02*
D03*
Y604252D02*
D03*
Y596252D02*
D03*
Y588252D02*
D03*
Y580252D02*
D03*
Y572252D02*
D03*
Y564252D02*
D03*
Y556252D02*
D03*
Y548252D02*
D03*
Y540252D02*
D03*
Y532252D02*
D03*
Y524252D02*
D03*
Y516252D02*
D03*
Y508252D02*
D03*
Y500252D02*
D03*
D23*
Y492252D02*
D03*
D24*
X190370Y402982D02*
D03*
D25*
X185870Y267982D02*
D03*
D26*
X144370D02*
D03*
D27*
X39370Y379482D02*
D03*
X82370Y267982D02*
D03*
D28*
X39370Y363982D02*
D03*
Y352982D02*
D03*
Y341982D02*
D03*
Y330982D02*
D03*
Y319982D02*
D03*
Y308982D02*
D03*
Y297982D02*
D03*
Y286982D02*
D03*
Y277482D02*
D03*
D29*
X490212Y784472D02*
D03*
X498212D02*
D03*
X474212D02*
D03*
X482212D02*
D03*
X522212D02*
D03*
X530212D02*
D03*
X506212D02*
D03*
X514212D02*
D03*
X434212D02*
D03*
X442212D02*
D03*
X418212D02*
D03*
X426212D02*
D03*
X458212D02*
D03*
X466212D02*
D03*
X450212D02*
D03*
X530212Y672472D02*
D03*
X514212D02*
D03*
X522212D02*
D03*
X498212D02*
D03*
X506212D02*
D03*
X482212D02*
D03*
X490212D02*
D03*
X442212D02*
D03*
X450212D02*
D03*
X426212D02*
D03*
X434212D02*
D03*
X466212D02*
D03*
X474212D02*
D03*
X458212D02*
D03*
X378212Y784472D02*
D03*
X386212D02*
D03*
X362212D02*
D03*
X370212D02*
D03*
X402212D02*
D03*
X410212D02*
D03*
X394212D02*
D03*
X346212D02*
D03*
X354212D02*
D03*
X330212D02*
D03*
X338212D02*
D03*
X322212D02*
D03*
X410212Y672472D02*
D03*
X418212D02*
D03*
X402212D02*
D03*
X386212D02*
D03*
X394212D02*
D03*
X370212D02*
D03*
X378212D02*
D03*
X354212D02*
D03*
X362212D02*
D03*
X338212D02*
D03*
X346212D02*
D03*
X322212D02*
D03*
X330212D02*
D03*
D30*
X504690Y393200D02*
D03*
X496690D02*
D03*
X488690D02*
D03*
X480690D02*
D03*
X472690D02*
D03*
X464690D02*
D03*
X456690D02*
D03*
X448690D02*
D03*
X440690D02*
D03*
X432690D02*
D03*
X424690D02*
D03*
X416690D02*
D03*
X408690D02*
D03*
X400690D02*
D03*
X392690D02*
D03*
X384690D02*
D03*
X376690D02*
D03*
X504690Y401200D02*
D03*
X496690D02*
D03*
X488690D02*
D03*
X480690D02*
D03*
X472690D02*
D03*
X464690D02*
D03*
X456690D02*
D03*
X448690D02*
D03*
X440690D02*
D03*
X432690D02*
D03*
X424690D02*
D03*
X416690D02*
D03*
X408690D02*
D03*
X400690D02*
D03*
X392690D02*
D03*
X384690D02*
D03*
X376690D02*
D03*
X504690Y409200D02*
D03*
X496690D02*
D03*
X488690D02*
D03*
X480690D02*
D03*
X472690D02*
D03*
X464690D02*
D03*
X456690D02*
D03*
X448690D02*
D03*
X440690D02*
D03*
X432690D02*
D03*
X424690D02*
D03*
X416690D02*
D03*
X408690D02*
D03*
X400690D02*
D03*
X392690D02*
D03*
X384690D02*
D03*
X376690D02*
D03*
X504690Y417200D02*
D03*
X496690D02*
D03*
X488690D02*
D03*
X480690D02*
D03*
X472690D02*
D03*
X464690D02*
D03*
X456690D02*
D03*
X448690D02*
D03*
X440690D02*
D03*
X432690D02*
D03*
X424690D02*
D03*
X416690D02*
D03*
X408690D02*
D03*
X400690D02*
D03*
X392690D02*
D03*
X384690D02*
D03*
X376690D02*
D03*
X504690Y425200D02*
D03*
X496690D02*
D03*
X488690D02*
D03*
X480690D02*
D03*
X400690D02*
D03*
X392690D02*
D03*
X384690D02*
D03*
X376690D02*
D03*
X504690Y433200D02*
D03*
X496690D02*
D03*
X488690D02*
D03*
X480690D02*
D03*
X400690D02*
D03*
X392690D02*
D03*
X384690D02*
D03*
X376690D02*
D03*
X504690Y441200D02*
D03*
X496690D02*
D03*
X488690D02*
D03*
X480690D02*
D03*
X400690D02*
D03*
X392690D02*
D03*
X384690D02*
D03*
X376690D02*
D03*
X504690Y449200D02*
D03*
X496690D02*
D03*
X488690D02*
D03*
X480690D02*
D03*
X448690D02*
D03*
X440690D02*
D03*
X432690D02*
D03*
X400690D02*
D03*
X392690D02*
D03*
X384690D02*
D03*
X376690D02*
D03*
X504690Y457200D02*
D03*
X496690D02*
D03*
X488690D02*
D03*
X480690D02*
D03*
X448690D02*
D03*
X440690D02*
D03*
X432690D02*
D03*
X400690D02*
D03*
X392690D02*
D03*
X384690D02*
D03*
X376690D02*
D03*
X504690Y465200D02*
D03*
X496690D02*
D03*
X488690D02*
D03*
X480690D02*
D03*
X448690D02*
D03*
X440690D02*
D03*
X432690D02*
D03*
X400690D02*
D03*
X392690D02*
D03*
X384690D02*
D03*
X376690D02*
D03*
X504690Y473200D02*
D03*
X496690D02*
D03*
X488690D02*
D03*
X480690D02*
D03*
X400690D02*
D03*
X392690D02*
D03*
X384690D02*
D03*
X376690D02*
D03*
X504690Y481200D02*
D03*
X496690D02*
D03*
X488690D02*
D03*
X480690D02*
D03*
X400690D02*
D03*
X392690D02*
D03*
X384690D02*
D03*
X376690D02*
D03*
X504690Y489200D02*
D03*
X496690D02*
D03*
X488690D02*
D03*
X480690D02*
D03*
X400690D02*
D03*
X392690D02*
D03*
X384690D02*
D03*
X376690D02*
D03*
X504690Y497200D02*
D03*
X496690D02*
D03*
X488690D02*
D03*
X480690D02*
D03*
X472690D02*
D03*
X464690D02*
D03*
X456690D02*
D03*
X448690D02*
D03*
X440690D02*
D03*
X432690D02*
D03*
X424690D02*
D03*
X416690D02*
D03*
X408690D02*
D03*
X400690D02*
D03*
X392690D02*
D03*
X384690D02*
D03*
X376690D02*
D03*
X504690Y505200D02*
D03*
X496690D02*
D03*
X488690D02*
D03*
X480690D02*
D03*
X472690D02*
D03*
X464690D02*
D03*
X456690D02*
D03*
X448690D02*
D03*
X440690D02*
D03*
X432690D02*
D03*
X424690D02*
D03*
X416690D02*
D03*
X408690D02*
D03*
X400690D02*
D03*
X392690D02*
D03*
X384690D02*
D03*
X376690D02*
D03*
X504690Y513200D02*
D03*
X496690D02*
D03*
X488690D02*
D03*
X480690D02*
D03*
X472690D02*
D03*
X464690D02*
D03*
X456690D02*
D03*
X448690D02*
D03*
X440690D02*
D03*
X432690D02*
D03*
X424690D02*
D03*
X416690D02*
D03*
X408690D02*
D03*
X400690D02*
D03*
X392690D02*
D03*
X384690D02*
D03*
X376690D02*
D03*
X504690Y521200D02*
D03*
X496690D02*
D03*
X488690D02*
D03*
X480690D02*
D03*
X472690D02*
D03*
X464690D02*
D03*
X456690D02*
D03*
X448690D02*
D03*
X440690D02*
D03*
X432690D02*
D03*
X424690D02*
D03*
X416690D02*
D03*
X408690D02*
D03*
X400690D02*
D03*
X392690D02*
D03*
X384690D02*
D03*
X376690D02*
D03*
D31*
X773160Y778956D02*
D03*
Y773956D02*
D03*
Y768956D02*
D03*
Y763956D02*
D03*
Y758956D02*
D03*
Y753956D02*
D03*
Y748956D02*
D03*
Y743956D02*
D03*
Y738956D02*
D03*
Y733956D02*
D03*
Y728956D02*
D03*
Y723956D02*
D03*
Y718956D02*
D03*
Y713956D02*
D03*
Y708956D02*
D03*
Y703956D02*
D03*
Y698956D02*
D03*
Y693956D02*
D03*
Y688956D02*
D03*
Y683956D02*
D03*
Y678956D02*
D03*
Y673956D02*
D03*
Y668956D02*
D03*
Y663956D02*
D03*
X579160Y778956D02*
D03*
Y773956D02*
D03*
Y768956D02*
D03*
Y763956D02*
D03*
Y758956D02*
D03*
Y753956D02*
D03*
Y748956D02*
D03*
Y743956D02*
D03*
Y738956D02*
D03*
Y733956D02*
D03*
Y728956D02*
D03*
Y723956D02*
D03*
Y718956D02*
D03*
Y713956D02*
D03*
Y708956D02*
D03*
Y703956D02*
D03*
Y698956D02*
D03*
Y693956D02*
D03*
Y688956D02*
D03*
Y683956D02*
D03*
Y678956D02*
D03*
Y673956D02*
D03*
Y668956D02*
D03*
Y663956D02*
D03*
D32*
X731478Y212806D02*
D03*
Y225806D02*
D03*
Y219306D02*
D03*
X712978D02*
D03*
Y225806D02*
D03*
Y212806D02*
D03*
D33*
X798592Y166624D02*
D03*
Y174624D02*
D03*
Y182624D02*
D03*
Y190624D02*
D03*
Y198624D02*
D03*
D34*
X800592Y138124D02*
D03*
Y227124D02*
D03*
X855592D02*
D03*
Y138124D02*
D03*
D35*
X751586Y132158D02*
D03*
Y110158D02*
D03*
X30734Y532208D02*
D03*
Y510208D02*
D03*
Y580312D02*
D03*
Y602312D02*
D03*
X813308Y751410D02*
D03*
Y729410D02*
D03*
X556260Y712392D02*
D03*
Y734392D02*
D03*
D38*
X0Y0D02*
X81280D01*
Y29210D01*
X170180D01*
Y0D02*
Y29210D01*
Y0D02*
X351790D01*
Y29210D01*
X554990D01*
Y0D02*
Y29210D01*
Y0D02*
X892810D01*
Y679450D01*
X847090D02*
X892810D01*
X847090D02*
Y958850D01*
X554990D02*
X847090D01*
X554990Y929640D02*
Y958850D01*
X351790Y929640D02*
X554990D01*
X351790D02*
Y958850D01*
X46990D02*
X351790D01*
X0Y0D02*
Y165100D01*
X-8890D02*
X0D01*
X-8890D02*
Y377825D01*
X7620D01*
Y581025D01*
X-8890D02*
X7620D01*
X-8890D02*
Y825500D01*
X46990Y897890D02*
Y958850D01*
X-8890Y825500D02*
Y842010D01*
X46990Y897890D01*
M02*
