%FSLAX44Y44*%
%MOMM*%
G71*
G01*
G75*
G04 Layer_Color=32896*
%ADD10R,0.7000X0.9000*%
%ADD11R,1.5000X1.3000*%
%ADD12R,2.2000X2.6000*%
%ADD13R,1.2000X1.5000*%
%ADD14R,1.2000X1.4000*%
%ADD15R,1.4000X1.2000*%
%ADD16R,1.1000X1.0000*%
%ADD17R,2.6000X2.2000*%
%ADD18R,0.3500X1.5500*%
%ADD19O,0.3500X1.5500*%
%ADD20R,4.2000X3.1000*%
%ADD21R,0.6000X1.4000*%
%ADD22O,1.0000X0.4000*%
%ADD23R,1.0000X0.4000*%
%ADD24R,1.9000X1.3000*%
%ADD25R,2.8000X1.0000*%
%ADD26R,0.8000X1.0000*%
%ADD27R,1.2000X1.0000*%
%ADD28R,1.2000X0.7000*%
%ADD29O,0.5500X1.5500*%
%ADD30C,0.3500*%
%ADD31R,1.0000X0.3000*%
%ADD32R,1.0500X0.4000*%
%ADD33R,2.5000X0.5000*%
%ADD34R,2.5000X2.0000*%
%ADD35R,1.5000X1.2000*%
%ADD36C,0.1778*%
%ADD37C,0.3048*%
%ADD38C,0.2540*%
%ADD39R,1.5000X1.5000*%
%ADD40C,1.5000*%
%ADD41R,1.5000X1.5000*%
%ADD42C,6.3500*%
%ADD43C,1.3000*%
%ADD44C,0.5080*%
%ADD45C,0.5588*%
%ADD46C,1.0160*%
%ADD47C,1.9160*%
%ADD48C,1.0160*%
%ADD49C,1.0668*%
%ADD50C,0.3810*%
%ADD51C,4.1910*%
%ADD52R,0.9000X0.7000*%
%ADD53R,1.0500X1.3000*%
%ADD54R,1.4000X3.3000*%
%ADD55R,1.3000X1.9000*%
%ADD56C,0.2500*%
%ADD57C,0.2000*%
%ADD58C,0.6000*%
%ADD59C,0.3000*%
%ADD60C,0.2032*%
%ADD61C,0.1000*%
%ADD62C,0.1270*%
%ADD63R,0.9032X1.1032*%
%ADD64R,1.7032X1.5032*%
%ADD65R,2.4032X2.8032*%
%ADD66R,1.4032X1.7032*%
%ADD67R,1.4032X1.6032*%
%ADD68R,1.6032X1.4032*%
%ADD69R,1.3032X1.2032*%
%ADD70R,2.8032X2.4032*%
%ADD71R,0.5532X1.7532*%
%ADD72O,0.5532X1.7532*%
%ADD73R,4.4032X3.3032*%
%ADD74R,0.8032X1.6032*%
%ADD75O,1.2032X0.6032*%
%ADD76R,1.2032X0.6032*%
%ADD77R,2.1032X1.5032*%
%ADD78R,3.0032X1.2032*%
%ADD79R,1.0032X1.2032*%
%ADD80R,1.4032X1.2032*%
%ADD81R,1.4032X0.9032*%
%ADD82O,0.7532X1.7532*%
%ADD83C,0.5532*%
%ADD84R,1.2032X0.5032*%
%ADD85R,1.2532X0.6032*%
%ADD86R,2.7032X0.7032*%
%ADD87R,2.7032X2.2032*%
%ADD88R,1.7032X1.4032*%
%ADD89R,1.7032X1.7032*%
%ADD90C,1.7032*%
%ADD91R,1.7032X1.7032*%
%ADD92C,6.5532*%
%ADD93C,1.5032*%
%ADD94C,0.7112*%
%ADD95C,0.7620*%
%ADD96R,1.1032X0.9032*%
%ADD97R,1.2532X1.5032*%
%ADD98R,1.6032X3.5032*%
%ADD99R,1.5032X2.1032*%
%ADD100C,0.0254*%
D38*
X314426Y437238D02*
G03*
X314426Y437238I-500J0D01*
G01*
X0Y0D02*
X81280D01*
Y29210D01*
X170180D01*
Y0D02*
Y29210D01*
Y0D02*
X351790D01*
Y29210D01*
X554990D01*
Y0D02*
Y29210D01*
Y0D02*
X892810D01*
Y679450D01*
X847090D02*
X892810D01*
X847090D02*
Y958850D01*
X554990D02*
X847090D01*
X554990Y929640D02*
Y958850D01*
X351790Y929640D02*
X554990D01*
X351790D02*
Y958850D01*
X46990D02*
X351790D01*
X0Y0D02*
Y165100D01*
X-8890D02*
X0D01*
X-8890D02*
Y377825D01*
X7620D01*
Y581025D01*
X-8890D02*
X7620D01*
X-8890D02*
Y825500D01*
X46990Y897890D02*
Y958850D01*
X-8890Y825500D02*
Y842010D01*
X46990Y897890D01*
D56*
X350146Y103860D02*
G03*
X350146Y103860I-1250J0D01*
G01*
X114180Y411962D02*
G03*
X114180Y411962I-1250J0D01*
G01*
D57*
X425226Y434888D02*
Y439888D01*
X351760Y418632D02*
Y423632D01*
Y404408D02*
Y409408D01*
X498190Y538510D02*
X503190D01*
X486242Y487200D02*
X491242D01*
X72336Y317082D02*
X97336D01*
X72336Y360082D02*
X97336D01*
X40586Y329788D02*
X65586D01*
X40586Y371760D02*
X65586D01*
X330872Y38046D02*
Y63046D01*
X287872Y38046D02*
Y63046D01*
X230976Y38808D02*
Y63808D01*
X273976Y38808D02*
Y63808D01*
X509106Y521408D02*
Y546408D01*
X552106Y521408D02*
Y546408D01*
X642530Y703742D02*
Y728742D01*
X599530Y703742D02*
Y728742D01*
X680810Y411680D02*
Y436680D01*
X723810Y411680D02*
Y436680D01*
X720544Y484288D02*
X745544D01*
X720544Y441288D02*
X745544D01*
X805380Y448146D02*
X830380D01*
X805380Y491146D02*
X830380D01*
X333194Y143600D02*
X358194D01*
X333194Y186600D02*
X358194D01*
X511756Y191860D02*
X536756D01*
X511756Y234860D02*
X536756D01*
X512010Y143092D02*
X537010D01*
X512010Y186092D02*
X537010D01*
X373036Y210766D02*
Y235766D01*
X330036Y210766D02*
Y235766D01*
X519122Y473292D02*
X544122D01*
X519122Y516292D02*
X544122D01*
X779436Y304238D02*
Y329238D01*
X736436Y304238D02*
Y329238D01*
X820874Y371438D02*
X845874D01*
X820874Y414438D02*
X845874D01*
X804618Y775298D02*
X829618D01*
X804618Y818298D02*
X829618D01*
X788616Y654140D02*
X813616D01*
X788616Y697140D02*
X813616D01*
X146250Y642530D02*
X171250D01*
X146250Y599530D02*
X171250D01*
X279396Y68860D02*
X342396D01*
X279396Y103860D02*
X342396D01*
X279396Y103360D02*
Y103860D01*
Y68860D02*
Y69360D01*
X318896Y68860D02*
Y103860D01*
X342396Y103360D02*
Y103860D01*
Y68860D02*
Y69360D01*
X43430Y376962D02*
X106430D01*
X43430Y411962D02*
X106430D01*
X43430Y411462D02*
Y411962D01*
Y376962D02*
Y377462D01*
X82930Y376962D02*
Y411962D01*
X106430Y411462D02*
Y411962D01*
Y376962D02*
Y377462D01*
X419736Y274580D02*
X435736D01*
X419736Y243580D02*
X435736D01*
X343536Y274580D02*
X359536D01*
X343536Y243580D02*
X359536D01*
X495936Y243580D02*
X511936D01*
X495936Y274580D02*
X511936D01*
X557476Y191860D02*
X582476D01*
X557476Y233832D02*
X582476D01*
X296618Y176118D02*
X321618D01*
X296618Y218090D02*
X321618D01*
X593956Y189280D02*
X606956D01*
X405838Y687482D02*
X430838D01*
X405838Y645510D02*
X430838D01*
X505754Y359888D02*
X510754D01*
X457230Y419394D02*
Y424394D01*
X359126Y458764D02*
Y463764D01*
X425226Y477306D02*
Y482306D01*
X458256Y530636D02*
X463256D01*
X499140Y386628D02*
Y391628D01*
X341600Y431840D02*
Y436840D01*
X454630Y458510D02*
Y463510D01*
X458500Y490260D02*
Y495260D01*
X384272Y387644D02*
Y392644D01*
X356840Y375706D02*
Y380706D01*
X350684Y359864D02*
Y384864D01*
X307684Y359864D02*
Y384864D01*
D60*
X97336Y317082D02*
Y324832D01*
X72336Y317082D02*
Y324832D01*
X97336Y352332D02*
Y360082D01*
X72336Y352332D02*
Y360082D01*
X65586Y329788D02*
Y338038D01*
X40586Y329788D02*
Y338038D01*
X65586Y363510D02*
Y371760D01*
X40586Y363510D02*
Y371760D01*
X323122Y63046D02*
X330872D01*
X323122Y38046D02*
X330872D01*
X287872Y63046D02*
X295622D01*
X287872Y38046D02*
X295622D01*
X230976Y38808D02*
X238726D01*
X230976Y63808D02*
X238726D01*
X266226Y38808D02*
X273976D01*
X266226Y63808D02*
X273976D01*
X509106Y521408D02*
X516856D01*
X509106Y546408D02*
X516856D01*
X544356Y521408D02*
X552106D01*
X544356Y546408D02*
X552106D01*
X634780Y728742D02*
X642530D01*
X634780Y703742D02*
X642530D01*
X599530Y728742D02*
X607280D01*
X599530Y703742D02*
X607280D01*
X680810Y411680D02*
X688560D01*
X680810Y436680D02*
X688560D01*
X716060Y411680D02*
X723810D01*
X716060Y436680D02*
X723810D01*
X720544Y476538D02*
Y484288D01*
X745544Y476538D02*
Y484288D01*
X720544Y441288D02*
Y449038D01*
X745544Y441288D02*
Y449038D01*
X830380Y448146D02*
Y455896D01*
X805380Y448146D02*
Y455896D01*
X830380Y483396D02*
Y491146D01*
X805380Y483396D02*
Y491146D01*
X358194Y143600D02*
Y151350D01*
X333194Y143600D02*
Y151350D01*
X358194Y178850D02*
Y186600D01*
X333194Y178850D02*
Y186600D01*
X536756Y191860D02*
Y199610D01*
X511756Y191860D02*
Y199610D01*
X536756Y227110D02*
Y234860D01*
X511756Y227110D02*
Y234860D01*
X537010Y143092D02*
Y150842D01*
X512010Y143092D02*
Y150842D01*
X537010Y178342D02*
Y186092D01*
X512010Y178342D02*
Y186092D01*
X365286Y235766D02*
X373036D01*
X365286Y210766D02*
X373036D01*
X330036Y235766D02*
X337786D01*
X330036Y210766D02*
X337786D01*
X544122Y473292D02*
Y481042D01*
X519122Y473292D02*
Y481042D01*
X544122Y508542D02*
Y516292D01*
X519122Y508542D02*
Y516292D01*
X771686Y329238D02*
X779436D01*
X771686Y304238D02*
X779436D01*
X736436Y329238D02*
X744186D01*
X736436Y304238D02*
X744186D01*
X845874Y371438D02*
Y379188D01*
X820874Y371438D02*
Y379188D01*
X845874Y406688D02*
Y414438D01*
X820874Y406688D02*
Y414438D01*
X829618Y775298D02*
Y783048D01*
X804618Y775298D02*
Y783048D01*
X829618Y810548D02*
Y818298D01*
X804618Y810548D02*
Y818298D01*
X813616Y654140D02*
Y661890D01*
X788616Y654140D02*
Y661890D01*
X813616Y689390D02*
Y697140D01*
X788616Y689390D02*
Y697140D01*
X146250Y634780D02*
Y642530D01*
X171250Y634780D02*
Y642530D01*
X146250Y599530D02*
Y607280D01*
X171250Y599530D02*
Y607280D01*
X278926Y390488D02*
Y433488D01*
Y390488D02*
X314926D01*
Y433488D01*
X278926D02*
X314926D01*
X291426Y411988D02*
X302426D01*
X296926Y406488D02*
Y417488D01*
X685680Y553176D02*
X695930D01*
X685680Y548676D02*
X695930D01*
X718180Y534926D02*
Y566926D01*
X638180D02*
X718180D01*
X638180Y534926D02*
Y566926D01*
Y534926D02*
X718180D01*
X691180Y540926D02*
Y544926D01*
Y556926D02*
Y560926D01*
X686180Y544926D02*
X696180D01*
X685680Y548676D02*
Y553176D01*
X686180Y556926D02*
X696180D01*
X695930Y548676D02*
Y553176D01*
X582476Y191860D02*
Y200110D01*
X557476Y191860D02*
Y200110D01*
X582476Y225582D02*
Y233832D01*
X557476Y225582D02*
Y233832D01*
X321618Y176118D02*
Y184368D01*
X296618Y176118D02*
Y184368D01*
X321618Y209840D02*
Y218090D01*
X296618Y209840D02*
Y218090D01*
X405838Y679232D02*
Y687482D01*
X430838Y679232D02*
Y687482D01*
X405838Y645510D02*
Y653760D01*
X430838Y645510D02*
Y653760D01*
X342934Y384864D02*
X350684D01*
X342934Y359864D02*
X350684D01*
X307684Y384864D02*
X315434D01*
X307684Y359864D02*
X315434D01*
X701430Y514176D02*
Y517138D01*
Y515657D01*
X710317D01*
X708836Y514176D01*
X646680Y520101D02*
Y514176D01*
X652605Y520101D01*
X654086D01*
X655567Y518620D01*
Y515657D01*
X654086Y514176D01*
X653836Y581926D02*
X655317Y583407D01*
Y586370D01*
X653836Y587851D01*
X652355D01*
X650874Y586370D01*
Y584888D01*
Y586370D01*
X649392Y587851D01*
X647911D01*
X646430Y586370D01*
Y583407D01*
X647911Y581926D01*
X701430Y586370D02*
X710317D01*
X705873Y581926D01*
Y587851D01*
D62*
X326390Y22860D02*
Y33017D01*
X321312D01*
X319619Y31324D01*
Y27938D01*
X321312Y26246D01*
X326390D01*
X323004D02*
X319619Y22860D01*
X316233D02*
X312848D01*
X314541D01*
Y33017D01*
X316233Y31324D01*
X307769Y22860D02*
X304384D01*
X306077D01*
Y33017D01*
X307769Y31324D01*
X299305D02*
X297613Y33017D01*
X294227D01*
X292534Y31324D01*
Y24553D01*
X294227Y22860D01*
X297613D01*
X299305Y24553D01*
Y31324D01*
X267716Y23368D02*
Y33525D01*
X262638D01*
X260945Y31832D01*
Y28446D01*
X262638Y26754D01*
X267716D01*
X264330D02*
X260945Y23368D01*
X257559D02*
X254174D01*
X255867D01*
Y33525D01*
X257559Y31832D01*
X249095Y23368D02*
X245710D01*
X247403D01*
Y33525D01*
X249095Y31832D01*
X240631Y23368D02*
X237246D01*
X238939D01*
Y33525D01*
X240631Y31832D01*
X572259Y527217D02*
Y520446D01*
X567180D01*
Y523832D01*
Y520446D01*
X562102D01*
X572259Y530603D02*
X562102D01*
Y535681D01*
X563795Y537374D01*
X565488D01*
X567180Y535681D01*
Y530603D01*
Y535681D01*
X568873Y537374D01*
X570566D01*
X572259Y535681D01*
Y530603D01*
Y547531D02*
X570566Y544145D01*
X567180Y540759D01*
X563795D01*
X562102Y542452D01*
Y545838D01*
X563795Y547531D01*
X565488D01*
X567180Y545838D01*
Y540759D01*
X659635Y716447D02*
Y713062D01*
Y714754D01*
X651171D01*
X649478Y713062D01*
Y711369D01*
X651171Y709676D01*
X649478Y719833D02*
Y723218D01*
Y721525D01*
X659635D01*
X657942Y719833D01*
X674624Y437134D02*
X664467D01*
Y432056D01*
X666160Y430363D01*
X669546D01*
X671238Y432056D01*
Y437134D01*
Y433748D02*
X674624Y430363D01*
Y420206D02*
Y426977D01*
X667853Y420206D01*
X666160D01*
X664467Y421899D01*
Y425285D01*
X666160Y426977D01*
X674624Y411742D02*
X664467D01*
X669546Y416821D01*
Y410049D01*
X715264Y476504D02*
X705107D01*
Y471426D01*
X706800Y469733D01*
X710186D01*
X711878Y471426D01*
Y476504D01*
Y473118D02*
X715264Y469733D01*
Y459576D02*
Y466347D01*
X708493Y459576D01*
X706800D01*
X705107Y461269D01*
Y464655D01*
X706800Y466347D01*
X705107Y449419D02*
Y456191D01*
X710186D01*
X708493Y452805D01*
Y451112D01*
X710186Y449419D01*
X713571D01*
X715264Y451112D01*
Y454498D01*
X713571Y456191D01*
X832358Y497078D02*
Y507235D01*
X827280D01*
X825587Y505542D01*
Y502156D01*
X827280Y500464D01*
X832358D01*
X828972D02*
X825587Y497078D01*
X822201Y505542D02*
X820508Y507235D01*
X817123D01*
X815430Y505542D01*
Y503849D01*
X817123Y502156D01*
X818816D01*
X817123D01*
X815430Y500464D01*
Y498771D01*
X817123Y497078D01*
X820508D01*
X822201Y498771D01*
X805273Y507235D02*
X808659Y505542D01*
X812045Y502156D01*
Y498771D01*
X810352Y497078D01*
X806966D01*
X805273Y498771D01*
Y500464D01*
X806966Y502156D01*
X812045D01*
X375920Y182372D02*
X365763D01*
Y177294D01*
X367456Y175601D01*
X370842D01*
X372534Y177294D01*
Y182372D01*
Y178986D02*
X375920Y175601D01*
Y172215D02*
Y168830D01*
Y170522D01*
X365763D01*
X367456Y172215D01*
Y163751D02*
X365763Y162059D01*
Y158673D01*
X367456Y156980D01*
X374227D01*
X375920Y158673D01*
Y162059D01*
X374227Y163751D01*
X367456D01*
X375920Y146824D02*
Y153595D01*
X369149Y146824D01*
X367456D01*
X365763Y148516D01*
Y151902D01*
X367456Y153595D01*
X504444Y230124D02*
X494287D01*
Y225046D01*
X495980Y223353D01*
X499366D01*
X501058Y225046D01*
Y230124D01*
Y226738D02*
X504444Y223353D01*
Y219967D02*
Y216582D01*
Y218274D01*
X494287D01*
X495980Y219967D01*
Y211503D02*
X494287Y209811D01*
Y206425D01*
X495980Y204732D01*
X502751D01*
X504444Y206425D01*
Y209811D01*
X502751Y211503D01*
X495980D01*
Y201347D02*
X494287Y199654D01*
Y196268D01*
X495980Y194576D01*
X497673D01*
X499366Y196268D01*
Y197961D01*
Y196268D01*
X501058Y194576D01*
X502751D01*
X504444Y196268D01*
Y199654D01*
X502751Y201347D01*
X559054Y178562D02*
X548897D01*
Y173484D01*
X550590Y171791D01*
X553976D01*
X555668Y173484D01*
Y178562D01*
Y175176D02*
X559054Y171791D01*
Y168405D02*
Y165020D01*
Y166712D01*
X548897D01*
X550590Y168405D01*
Y159941D02*
X548897Y158249D01*
Y154863D01*
X550590Y153170D01*
X557361D01*
X559054Y154863D01*
Y158249D01*
X557361Y159941D01*
X550590D01*
X559054Y144706D02*
X548897D01*
X553976Y149785D01*
Y143013D01*
X368808Y195834D02*
Y205991D01*
X363730D01*
X362037Y204298D01*
Y200912D01*
X363730Y199220D01*
X368808D01*
X365422D02*
X362037Y195834D01*
X358651D02*
X355266D01*
X356959D01*
Y205991D01*
X358651Y204298D01*
X350187D02*
X348495Y205991D01*
X345109D01*
X343416Y204298D01*
Y197527D01*
X345109Y195834D01*
X348495D01*
X350187Y197527D01*
Y204298D01*
X333260Y205991D02*
X336645Y204298D01*
X340031Y200912D01*
Y197527D01*
X338338Y195834D01*
X334952D01*
X333260Y197527D01*
Y199220D01*
X334952Y200912D01*
X340031D01*
X854630Y378020D02*
X864787D01*
Y383098D01*
X863094Y384791D01*
X859708D01*
X858016Y383098D01*
Y378020D01*
Y381406D02*
X854630Y384791D01*
Y394948D02*
Y388177D01*
X861401Y394948D01*
X863094D01*
X864787Y393255D01*
Y389869D01*
X863094Y388177D01*
Y398333D02*
X864787Y400026D01*
Y403412D01*
X863094Y405105D01*
X861401D01*
X859708Y403412D01*
Y401719D01*
Y403412D01*
X858016Y405105D01*
X856323D01*
X854630Y403412D01*
Y400026D01*
X856323Y398333D01*
X391840Y674457D02*
X390147Y676150D01*
Y679535D01*
X391840Y681228D01*
X398611D01*
X400304Y679535D01*
Y676150D01*
X398611Y674457D01*
X400304Y664300D02*
Y671071D01*
X393533Y664300D01*
X391840D01*
X390147Y665993D01*
Y669379D01*
X391840Y671071D01*
Y660915D02*
X390147Y659222D01*
Y655836D01*
X391840Y654143D01*
X398611D01*
X400304Y655836D01*
Y659222D01*
X398611Y660915D01*
X391840D01*
X400304Y650758D02*
Y647372D01*
Y649065D01*
X390147D01*
X391840Y650758D01*
X303784Y455419D02*
X297013Y445262D01*
Y455419D02*
X303784Y445262D01*
X293627D02*
X290242D01*
X291935D01*
Y455419D01*
X293627Y453726D01*
X781304Y688340D02*
X771147D01*
Y683262D01*
X772840Y681569D01*
X776226D01*
X777918Y683262D01*
Y688340D01*
Y684954D02*
X781304Y681569D01*
Y678183D02*
Y674798D01*
Y676490D01*
X771147D01*
X772840Y678183D01*
Y669719D02*
X771147Y668027D01*
Y664641D01*
X772840Y662948D01*
X779611D01*
X781304Y664641D01*
Y668027D01*
X779611Y669719D01*
X772840D01*
X145034Y615950D02*
Y626107D01*
X139956D01*
X138263Y624414D01*
Y621028D01*
X139956Y619336D01*
X145034D01*
X141648D02*
X138263Y615950D01*
X128106Y626107D02*
X134877D01*
Y621028D01*
X131492Y622721D01*
X129799D01*
X128106Y621028D01*
Y617643D01*
X129799Y615950D01*
X133184D01*
X134877Y617643D01*
X825500Y828294D02*
Y838451D01*
X820422D01*
X818729Y836758D01*
Y833372D01*
X820422Y831680D01*
X825500D01*
X822114D02*
X818729Y828294D01*
X808572D02*
X815343D01*
X808572Y835065D01*
Y836758D01*
X810265Y838451D01*
X813651D01*
X815343Y836758D01*
X512318Y293621D02*
Y283464D01*
X505547D01*
X502161Y291928D02*
X500468Y293621D01*
X497083D01*
X495390Y291928D01*
Y290235D01*
X497083Y288542D01*
X498776D01*
X497083D01*
X495390Y286850D01*
Y285157D01*
X497083Y283464D01*
X500468D01*
X502161Y285157D01*
X359918Y293621D02*
Y283464D01*
X353147D01*
X342990D02*
X349761D01*
X342990Y290235D01*
Y291928D01*
X344683Y293621D01*
X348069D01*
X349761Y291928D01*
X434848Y293621D02*
Y283464D01*
X428077D01*
X424691D02*
X421306D01*
X422999D01*
Y293621D01*
X424691Y291928D01*
X91781Y311401D02*
X98552D01*
Y306322D01*
X95166D01*
X98552D01*
Y301244D01*
X88395Y311401D02*
Y301244D01*
X83317D01*
X81624Y302937D01*
Y304630D01*
X83317Y306322D01*
X88395D01*
X83317D01*
X81624Y308015D01*
Y309708D01*
X83317Y311401D01*
X88395D01*
X78239Y309708D02*
X76546Y311401D01*
X73160D01*
X71467Y309708D01*
Y308015D01*
X73160Y306322D01*
X74853D01*
X73160D01*
X71467Y304630D01*
Y302937D01*
X73160Y301244D01*
X76546D01*
X78239Y302937D01*
X85939Y429342D02*
X87632Y431035D01*
X91017D01*
X92710Y429342D01*
Y422571D01*
X91017Y420878D01*
X87632D01*
X85939Y422571D01*
X82553Y420878D02*
X79168D01*
X80861D01*
Y431035D01*
X82553Y429342D01*
X74089Y420878D02*
X70704D01*
X72397D01*
Y431035D01*
X74089Y429342D01*
X65625D02*
X63933Y431035D01*
X60547D01*
X58854Y429342D01*
Y427649D01*
X60547Y425956D01*
X62240D01*
X60547D01*
X58854Y424264D01*
Y422571D01*
X60547Y420878D01*
X63933D01*
X65625Y422571D01*
X320127Y121240D02*
X321820Y122933D01*
X325205D01*
X326898Y121240D01*
Y114469D01*
X325205Y112776D01*
X321820D01*
X320127Y114469D01*
X316741Y112776D02*
X313356D01*
X315049D01*
Y122933D01*
X316741Y121240D01*
X308277Y112776D02*
X304892D01*
X306585D01*
Y122933D01*
X308277Y121240D01*
X299813Y112776D02*
X296428D01*
X298121D01*
Y122933D01*
X299813Y121240D01*
X617900Y217511D02*
X616207Y219204D01*
Y222589D01*
X617900Y224282D01*
X624671D01*
X626364Y222589D01*
Y219204D01*
X624671Y217511D01*
X626364Y214125D02*
Y210740D01*
Y212432D01*
X616207D01*
X617900Y214125D01*
Y205661D02*
X616207Y203969D01*
Y200583D01*
X617900Y198890D01*
X624671D01*
X626364Y200583D01*
Y203969D01*
X624671Y205661D01*
X617900D01*
X616207Y195505D02*
Y188734D01*
X617900D01*
X624671Y195505D01*
X626364D01*
X581747Y249250D02*
X583440Y250943D01*
X586825D01*
X588518Y249250D01*
Y242479D01*
X586825Y240786D01*
X583440D01*
X581747Y242479D01*
X578361Y240786D02*
X574976D01*
X576669D01*
Y250943D01*
X578361Y249250D01*
X569897D02*
X568205Y250943D01*
X564819D01*
X563126Y249250D01*
Y242479D01*
X564819Y240786D01*
X568205D01*
X569897Y242479D01*
Y249250D01*
X552970Y250943D02*
X556355Y249250D01*
X559741Y245864D01*
Y242479D01*
X558048Y240786D01*
X554662D01*
X552970Y242479D01*
Y244172D01*
X554662Y245864D01*
X559741D01*
X281350Y206589D02*
X279657Y208282D01*
Y211667D01*
X281350Y213360D01*
X288121D01*
X289814Y211667D01*
Y208282D01*
X288121Y206589D01*
X289814Y203203D02*
Y199818D01*
Y201511D01*
X279657D01*
X281350Y203203D01*
Y194739D02*
X279657Y193047D01*
Y189661D01*
X281350Y187968D01*
X288121D01*
X289814Y189661D01*
Y193047D01*
X288121Y194739D01*
X281350D01*
X289814Y179504D02*
X279657D01*
X284736Y184583D01*
Y177812D01*
X25826Y356195D02*
X24133Y357888D01*
Y361273D01*
X25826Y362966D01*
X32597D01*
X34290Y361273D01*
Y357888D01*
X32597Y356195D01*
X24133Y346038D02*
Y352809D01*
X29212D01*
X27519Y349424D01*
Y347731D01*
X29212Y346038D01*
X32597D01*
X34290Y347731D01*
Y351116D01*
X32597Y352809D01*
X25826Y342653D02*
X24133Y340960D01*
Y337574D01*
X25826Y335881D01*
X32597D01*
X34290Y337574D01*
Y340960D01*
X32597Y342653D01*
X25826D01*
X435189Y393528D02*
X436882Y395221D01*
X440267D01*
X441960Y393528D01*
Y386757D01*
X440267Y385064D01*
X436882D01*
X435189Y386757D01*
X431803Y385064D02*
X428418D01*
X430111D01*
Y395221D01*
X431803Y393528D01*
X416568Y395221D02*
X419954Y393528D01*
X423339Y390142D01*
Y386757D01*
X421647Y385064D01*
X418261D01*
X416568Y386757D01*
Y388450D01*
X418261Y390142D01*
X423339D01*
X374737Y368128D02*
X376430Y369821D01*
X379815D01*
X381508Y368128D01*
Y361357D01*
X379815Y359664D01*
X376430D01*
X374737Y361357D01*
X371351Y359664D02*
X367966D01*
X369659D01*
Y369821D01*
X371351Y368128D01*
X356116Y369821D02*
X362887D01*
Y364742D01*
X359502Y366435D01*
X357809D01*
X356116Y364742D01*
Y361357D01*
X357809Y359664D01*
X361195D01*
X362887Y361357D01*
X506096Y495017D02*
X507789Y493324D01*
Y489939D01*
X506096Y488246D01*
X499325D01*
X497632Y489939D01*
Y493324D01*
X499325Y495017D01*
X497632Y498403D02*
Y501788D01*
Y500095D01*
X507789D01*
X506096Y498403D01*
X497632Y511945D02*
X507789D01*
X502710Y506867D01*
Y513638D01*
X452461Y508590D02*
X454154Y510283D01*
X457539D01*
X459232Y508590D01*
Y501819D01*
X457539Y500126D01*
X454154D01*
X452461Y501819D01*
X449075Y500126D02*
X445690D01*
X447383D01*
Y510283D01*
X449075Y508590D01*
X440611D02*
X438919Y510283D01*
X435533D01*
X433840Y508590D01*
Y506897D01*
X435533Y505204D01*
X437226D01*
X435533D01*
X433840Y503512D01*
Y501819D01*
X435533Y500126D01*
X438919D01*
X440611Y501819D01*
X475321Y449154D02*
X477014Y450847D01*
X480399D01*
X482092Y449154D01*
Y442383D01*
X480399Y440690D01*
X477014D01*
X475321Y442383D01*
X471935Y440690D02*
X468550D01*
X470243D01*
Y450847D01*
X471935Y449154D01*
X456700Y440690D02*
X463471D01*
X456700Y447461D01*
Y449154D01*
X458393Y450847D01*
X461779D01*
X463471Y449154D01*
X342733Y449408D02*
X344426Y451101D01*
X347811D01*
X349504Y449408D01*
Y442637D01*
X347811Y440944D01*
X344426D01*
X342733Y442637D01*
X339347Y440944D02*
X335962D01*
X337654D01*
Y451101D01*
X339347Y449408D01*
X330883Y440944D02*
X327498D01*
X329191D01*
Y451101D01*
X330883Y449408D01*
X490561Y381336D02*
X492254Y383029D01*
X495639D01*
X497332Y381336D01*
Y374565D01*
X495639Y372872D01*
X492254D01*
X490561Y374565D01*
X487175Y372872D02*
X483790D01*
X485482D01*
Y383029D01*
X487175Y381336D01*
X478711D02*
X477019Y383029D01*
X473633D01*
X471940Y381336D01*
Y374565D01*
X473633Y372872D01*
X477019D01*
X478711Y374565D01*
Y381336D01*
X464140Y544743D02*
X465833Y543050D01*
Y539665D01*
X464140Y537972D01*
X457369D01*
X455676Y539665D01*
Y543050D01*
X457369Y544743D01*
Y548129D02*
X455676Y549822D01*
Y553207D01*
X457369Y554900D01*
X464140D01*
X465833Y553207D01*
Y549822D01*
X464140Y548129D01*
X462447D01*
X460754Y549822D01*
Y554900D01*
X389469Y483698D02*
X391162Y485391D01*
X394547D01*
X396240Y483698D01*
Y476927D01*
X394547Y475234D01*
X391162D01*
X389469Y476927D01*
X386083Y483698D02*
X384390Y485391D01*
X381005D01*
X379312Y483698D01*
Y482005D01*
X381005Y480312D01*
X379312Y478620D01*
Y476927D01*
X381005Y475234D01*
X384390D01*
X386083Y476927D01*
Y478620D01*
X384390Y480312D01*
X386083Y482005D01*
Y483698D01*
X384390Y480312D02*
X381005D01*
X369483Y444672D02*
X367790Y442979D01*
X364405D01*
X362712Y444672D01*
Y451443D01*
X364405Y453136D01*
X367790D01*
X369483Y451443D01*
X372869Y442979D02*
X379640D01*
Y444672D01*
X372869Y451443D01*
Y453136D01*
X449667Y413848D02*
X451360Y415541D01*
X454745D01*
X456438Y413848D01*
Y407077D01*
X454745Y405384D01*
X451360D01*
X449667Y407077D01*
X439510Y415541D02*
X442896Y413848D01*
X446281Y410462D01*
Y407077D01*
X444589Y405384D01*
X441203D01*
X439510Y407077D01*
Y408770D01*
X441203Y410462D01*
X446281D01*
X511638Y343321D02*
X513331Y341628D01*
Y338243D01*
X511638Y336550D01*
X504867D01*
X503174Y338243D01*
Y341628D01*
X504867Y343321D01*
X513331Y353478D02*
Y346707D01*
X508252D01*
X509945Y350092D01*
Y351785D01*
X508252Y353478D01*
X504867D01*
X503174Y351785D01*
Y348400D01*
X504867Y346707D01*
X439761Y441026D02*
X441454Y442719D01*
X444839D01*
X446532Y441026D01*
Y434255D01*
X444839Y432562D01*
X441454D01*
X439761Y434255D01*
X431297Y432562D02*
Y442719D01*
X436375Y437640D01*
X429604D01*
X339685Y425278D02*
X341378Y426971D01*
X344763D01*
X346456Y425278D01*
Y418507D01*
X344763Y416814D01*
X341378D01*
X339685Y418507D01*
X336299Y425278D02*
X334607Y426971D01*
X331221D01*
X329528Y425278D01*
Y423585D01*
X331221Y421892D01*
X332914D01*
X331221D01*
X329528Y420200D01*
Y418507D01*
X331221Y416814D01*
X334607D01*
X336299Y418507D01*
X339685Y411054D02*
X341378Y412747D01*
X344763D01*
X346456Y411054D01*
Y404283D01*
X344763Y402590D01*
X341378D01*
X339685Y404283D01*
X329528Y402590D02*
X336299D01*
X329528Y409361D01*
Y411054D01*
X331221Y412747D01*
X334607D01*
X336299Y411054D01*
X491064Y531281D02*
X492757Y529588D01*
Y526203D01*
X491064Y524510D01*
X484293D01*
X482600Y526203D01*
Y529588D01*
X484293Y531281D01*
X482600Y534667D02*
Y538052D01*
Y536359D01*
X492757D01*
X491064Y534667D01*
X337145Y349755D02*
X343916D01*
Y344676D01*
X340530D01*
X343916D01*
Y339598D01*
X333759Y349755D02*
Y339598D01*
X328681D01*
X326988Y341291D01*
Y342984D01*
X328681Y344676D01*
X333759D01*
X328681D01*
X326988Y346369D01*
Y348062D01*
X328681Y349755D01*
X333759D01*
X318524Y339598D02*
Y349755D01*
X323603Y344676D01*
X316831D01*
X750824Y297942D02*
Y287785D01*
X755902D01*
X757595Y289478D01*
Y292864D01*
X755902Y294556D01*
X750824D01*
X754210D02*
X757595Y297942D01*
X767752Y287785D02*
X764366Y289478D01*
X760981Y292864D01*
Y296249D01*
X762673Y297942D01*
X766059D01*
X767752Y296249D01*
Y294556D01*
X766059Y292864D01*
X760981D01*
X538988Y455676D02*
Y465833D01*
X533910D01*
X532217Y464140D01*
Y460754D01*
X533910Y459062D01*
X538988D01*
X535602D02*
X532217Y455676D01*
X528831Y464140D02*
X527138Y465833D01*
X523753D01*
X522060Y464140D01*
Y462447D01*
X523753Y460754D01*
X522060Y459062D01*
Y457369D01*
X523753Y455676D01*
X527138D01*
X528831Y457369D01*
Y459062D01*
X527138Y460754D01*
X528831Y462447D01*
Y464140D01*
X527138Y460754D02*
X523753D01*
X734565Y543560D02*
X724408Y550331D01*
X734565D02*
X724408Y543560D01*
Y560488D02*
Y553717D01*
X731179Y560488D01*
X732872D01*
X734565Y558795D01*
Y555410D01*
X732872Y553717D01*
D100*
X313926Y433488D02*
X314176Y433238D01*
M02*
