%FSLAX44Y44*%
%MOMM*%
G71*
G01*
G75*
G04 Layer_Color=65535*
%ADD10R,0.7000X0.9000*%
%ADD11R,1.5000X1.3000*%
%ADD12R,2.2000X2.6000*%
%ADD13R,1.2000X1.5000*%
%ADD14R,1.2000X1.4000*%
%ADD15R,1.4000X1.2000*%
%ADD16R,1.1000X1.0000*%
%ADD17R,2.6000X2.2000*%
%ADD18R,0.3500X1.5500*%
%ADD19O,0.3500X1.5500*%
%ADD20R,4.2000X3.1000*%
%ADD21R,0.6000X1.4000*%
%ADD22O,1.0000X0.4000*%
%ADD23R,1.0000X0.4000*%
%ADD24R,1.9000X1.3000*%
%ADD25R,2.8000X1.0000*%
%ADD26R,0.8000X1.0000*%
%ADD27R,1.2000X1.0000*%
%ADD28R,1.2000X0.7000*%
%ADD29O,0.5500X1.5500*%
%ADD30C,0.3500*%
%ADD31R,1.0000X0.3000*%
%ADD32R,1.0500X0.4000*%
%ADD33R,2.5000X0.5000*%
%ADD34R,2.5000X2.0000*%
%ADD35R,1.5000X1.2000*%
%ADD36C,0.1778*%
%ADD37C,0.3048*%
%ADD38C,0.2540*%
%ADD39R,1.5000X1.5000*%
%ADD40C,1.5000*%
%ADD41R,1.5000X1.5000*%
%ADD42C,6.3500*%
%ADD43C,1.3000*%
%ADD44C,0.5080*%
%ADD45C,0.5588*%
%ADD46C,1.0160*%
%ADD47C,1.9160*%
%ADD48C,1.0160*%
%ADD49C,1.0668*%
%ADD50C,0.3810*%
%ADD51C,4.1910*%
%ADD52R,0.9000X0.7000*%
%ADD53R,1.0500X1.3000*%
%ADD54R,1.4000X3.3000*%
%ADD55R,1.3000X1.9000*%
%ADD56C,0.2500*%
%ADD57C,0.2000*%
%ADD58C,0.6000*%
%ADD59C,0.3000*%
%ADD60C,0.2032*%
%ADD61C,0.1000*%
%ADD62C,0.1270*%
G36*
X365690Y522200D02*
Y532200D01*
X375690D01*
X365690Y522200D01*
D02*
G37*
D36*
X768160Y661156D02*
Y781156D01*
X584160D02*
X768160D01*
X584160Y661156D02*
Y781156D01*
Y661156D02*
X768160D01*
D38*
X156436Y496752D02*
G03*
X156436Y496752I-1414J0D01*
G01*
X762061Y667706D02*
G03*
X762061Y667706I-901J0D01*
G01*
X741478Y205806D02*
Y232806D01*
X702978D02*
X741478D01*
X702978Y205806D02*
X741478D01*
X702978D02*
Y232806D01*
X774592Y113624D02*
X874592D01*
X774592Y113624D02*
Y251624D01*
X874592D01*
X764029Y617469D02*
X758950D01*
X761489D01*
Y604773D01*
X758950Y602234D01*
X756411D01*
X753872Y604773D01*
X769107Y602234D02*
Y617469D01*
X776725D01*
X779264Y614930D01*
Y609851D01*
X776725Y607312D01*
X769107D01*
X791960Y602234D02*
Y617469D01*
X784342Y609851D01*
X794499D01*
X357759Y565526D02*
Y552830D01*
X360298Y550291D01*
X365377D01*
X367916Y552830D01*
Y565526D01*
X372994Y550291D02*
X378072D01*
X375533D01*
Y565526D01*
X372994Y562987D01*
X360812Y145923D02*
X373508D01*
X376047Y148462D01*
Y153540D01*
X373508Y156080D01*
X360812D01*
Y161158D02*
Y171315D01*
X363351D01*
X373508Y161158D01*
X376047D01*
X650494Y805683D02*
Y792987D01*
X653033Y790448D01*
X658111D01*
X660651Y792987D01*
Y805683D01*
X665729Y803144D02*
X668268Y805683D01*
X673347D01*
X675886Y803144D01*
Y800605D01*
X673347Y798065D01*
X670807D01*
X673347D01*
X675886Y795526D01*
Y792987D01*
X673347Y790448D01*
X668268D01*
X665729Y792987D01*
X62992Y728213D02*
Y715517D01*
X65531Y712978D01*
X70609D01*
X73149Y715517D01*
Y728213D01*
X88384Y712978D02*
X78227D01*
X88384Y723135D01*
Y725674D01*
X85845Y728213D01*
X80766D01*
X78227Y725674D01*
X99446Y876711D02*
X114681D01*
X107064D01*
Y886868D01*
X99446D01*
X114681D01*
Y902103D02*
Y891946D01*
X104524Y902103D01*
X101985D01*
X99446Y899564D01*
Y894485D01*
X101985Y891946D01*
X99446Y825911D02*
X114681D01*
X107064D01*
Y836068D01*
X99446D01*
X114681D01*
Y841146D02*
Y846224D01*
Y843685D01*
X99446D01*
X101985Y841146D01*
X9530Y270634D02*
Y265555D01*
Y268095D01*
X22226D01*
X24765Y265555D01*
Y263016D01*
X22226Y260477D01*
X24765Y275712D02*
X9530D01*
Y283330D01*
X12069Y285869D01*
X17148D01*
X19687Y283330D01*
Y275712D01*
X24765Y290947D02*
Y296026D01*
Y293486D01*
X9530D01*
X12069Y290947D01*
X283977Y740664D02*
X296673D01*
X299212Y743203D01*
Y748281D01*
X296673Y750821D01*
X283977D01*
X286516Y755899D02*
X283977Y758438D01*
Y763517D01*
X286516Y766056D01*
X289055D01*
X291595Y763517D01*
X294134Y766056D01*
X296673D01*
X299212Y763517D01*
Y758438D01*
X296673Y755899D01*
X294134D01*
X291595Y758438D01*
X289055Y755899D01*
X286516D01*
X291595Y758438D02*
Y763517D01*
X812035Y104643D02*
X806956D01*
X809495D01*
Y91947D01*
X806956Y89408D01*
X804417D01*
X801878Y91947D01*
X817113Y89408D02*
Y104643D01*
X824731D01*
X827270Y102104D01*
Y97025D01*
X824731Y94486D01*
X817113D01*
X842505Y104643D02*
X837427Y102104D01*
X832348Y97025D01*
Y91947D01*
X834887Y89408D01*
X839966D01*
X842505Y91947D01*
Y94486D01*
X839966Y97025D01*
X832348D01*
X704215Y258186D02*
Y245490D01*
X706754Y242951D01*
X711833D01*
X714372Y245490D01*
Y258186D01*
X719450Y245490D02*
X721989Y242951D01*
X727068D01*
X729607Y245490D01*
Y255647D01*
X727068Y258186D01*
X721989D01*
X719450Y255647D01*
Y253108D01*
X721989Y250569D01*
X729607D01*
X0Y0D02*
X81280D01*
Y29210D01*
X170180D01*
Y0D02*
Y29210D01*
Y0D02*
X351790D01*
Y29210D01*
X554990D01*
Y0D02*
Y29210D01*
Y0D02*
X892810D01*
Y679450D01*
X847090D02*
X892810D01*
X847090D02*
Y958850D01*
X554990D02*
X847090D01*
X554990Y929640D02*
Y958850D01*
X351790Y929640D02*
X554990D01*
X351790D02*
Y958850D01*
X46990D02*
X351790D01*
X0Y0D02*
Y165100D01*
X-8890D02*
X0D01*
X-8890D02*
Y377825D01*
X7620D01*
Y581025D01*
X-8890D02*
X7620D01*
X-8890D02*
Y825500D01*
X46990Y897890D02*
Y958850D01*
X-8890Y825500D02*
Y842010D01*
X46990Y897890D01*
D56*
X405846Y124360D02*
G03*
X405846Y124360I-1250J0D01*
G01*
X233506Y154660D02*
G03*
X233506Y154660I-1250J0D01*
G01*
X387406Y154130D02*
G03*
X387406Y154130I-1250J0D01*
G01*
X197626Y203860D02*
G03*
X197626Y203860I-1250J0D01*
G01*
X315212Y672472D02*
G03*
X315212Y672472I-1250J0D01*
G01*
X360440Y521200D02*
G03*
X360440Y521200I-1250J0D01*
G01*
X691088Y154840D02*
G03*
X691088Y154840I-1250J0D01*
G01*
D57*
X123222Y488252D02*
G03*
X119222Y488252I-2000J0D01*
G01*
X314492Y383764D02*
X319492D01*
X314492Y444022D02*
X319492D01*
X426316Y130760D02*
X439316D01*
X369596Y54860D02*
Y117860D01*
X404596Y54860D02*
Y117860D01*
X404096Y54860D02*
X404596D01*
X369596D02*
X370096D01*
X369596Y94360D02*
X404596D01*
X404096Y117860D02*
X404596D01*
X369596D02*
X370096D01*
X302486Y773750D02*
Y798750D01*
X260514Y773750D02*
Y798750D01*
X701384Y161998D02*
Y186998D01*
X744384Y161998D02*
Y186998D01*
X784298Y694600D02*
X809298D01*
X784298Y651600D02*
X809298D01*
X612848Y580554D02*
X637848D01*
X612848Y537554D02*
X637848D01*
X466036Y130900D02*
X491036D01*
X466036Y173900D02*
X491036D01*
X466798Y181700D02*
X491798D01*
X466798Y224700D02*
X491798D01*
X212942Y68780D02*
Y93780D01*
X255942Y68780D02*
Y93780D01*
X195162Y164792D02*
Y189792D01*
X238162Y164792D02*
Y189792D01*
X212942Y18488D02*
Y43488D01*
X255942Y18488D02*
Y43488D01*
X286676Y211020D02*
Y236020D01*
X243676Y211020D02*
Y236020D01*
X193240Y153326D02*
X218240D01*
X193240Y110326D02*
X218240D01*
X860298Y497840D02*
Y574040D01*
X834898D02*
X860298D01*
X834898Y497840D02*
Y574040D01*
Y497840D02*
X860298D01*
X799084Y361188D02*
Y596138D01*
X748284Y361188D02*
Y596138D01*
Y342138D02*
Y361188D01*
Y342138D02*
X799084D01*
Y361188D01*
X748284Y596138D02*
X799084D01*
X657806Y472530D02*
X682806D01*
X657806Y515530D02*
X682806D01*
X697738Y490728D02*
X723138D01*
Y439928D02*
Y490728D01*
X697738Y439928D02*
X723138D01*
X697738D02*
Y490728D01*
X785314Y768440D02*
X810314D01*
X785314Y811440D02*
X810314D01*
X789178Y329692D02*
X865378D01*
X789178Y304292D02*
Y329692D01*
Y304292D02*
X865378D01*
Y329692D01*
X860298Y413258D02*
Y489458D01*
X834898D02*
X860298D01*
X834898Y413258D02*
Y489458D01*
Y413258D02*
X860298D01*
X558800Y89916D02*
X584200D01*
X558800D02*
Y140716D01*
X584200D01*
Y89916D02*
Y140716D01*
X107696Y126492D02*
X133096D01*
Y75692D02*
Y126492D01*
X107696Y75692D02*
X133096D01*
X107696D02*
Y126492D01*
X238756Y119660D02*
X301756D01*
X238756Y154660D02*
X301756D01*
Y154160D02*
Y154660D01*
Y119660D02*
Y120160D01*
X262256Y119660D02*
Y154660D01*
X238756Y154160D02*
Y154660D01*
Y119660D02*
Y120160D01*
X294236Y194360D02*
X307236D01*
X552958Y301752D02*
Y327152D01*
X679958D01*
X552958Y301752D02*
X679958D01*
Y327152D01*
X375516Y229920D02*
X388516D01*
X431396D02*
X444396D01*
X389656Y165880D02*
Y199880D01*
X455656Y165880D02*
Y199880D01*
X522836Y179120D02*
X535836D01*
X199376Y215360D02*
Y220360D01*
X207376D01*
X229376Y215360D02*
Y220360D01*
X221376D02*
X229376D01*
X163172Y488252D02*
Y704252D01*
X79272D02*
X163172D01*
X79272Y488252D02*
Y704252D01*
Y488252D02*
X119222D01*
X123222D02*
X163172D01*
X538212Y684222D02*
Y772722D01*
X314212D02*
X538212D01*
X314212Y684222D02*
Y772722D01*
Y684222D02*
X538212D01*
X365690Y382200D02*
X515690D01*
X365690Y532200D02*
X515690D01*
Y382200D02*
Y532200D01*
X365690Y382200D02*
Y532200D01*
Y522200D02*
X375690Y532200D01*
X654838Y148340D02*
X655338D01*
X689338D02*
X689838D01*
X654838Y124840D02*
X689838D01*
X654838Y85340D02*
X655338D01*
X689338D02*
X689838D01*
Y148340D01*
X654838Y85340D02*
Y148340D01*
X699302Y306294D02*
X704302D01*
X697270Y542574D02*
X702270D01*
X674918Y527782D02*
X679918D01*
X834898Y660654D02*
X860298D01*
Y584454D02*
Y660654D01*
X834898Y584454D02*
X860298D01*
X834898D02*
Y660654D01*
X509724Y134276D02*
X534724D01*
X509724Y91276D02*
X534724D01*
X62430Y463206D02*
X87430D01*
X62430Y420206D02*
X87430D01*
X739086Y100172D02*
X764086D01*
X739086Y142144D02*
X764086D01*
X18234Y500222D02*
X43234D01*
X18234Y542194D02*
X43234D01*
X18234Y612298D02*
X43234D01*
X18234Y570326D02*
X43234D01*
X234600Y543752D02*
Y568752D01*
X192628Y543752D02*
Y568752D01*
X234600Y511500D02*
Y536500D01*
X192628Y511500D02*
Y536500D01*
X234600Y687752D02*
Y712752D01*
X192628Y687752D02*
Y712752D01*
X234600Y583752D02*
Y608752D01*
X192628Y583752D02*
Y608752D01*
X234600Y479752D02*
Y504752D01*
X192628Y479752D02*
Y504752D01*
X800808Y719424D02*
X825808D01*
X800808Y761396D02*
X825808D01*
X543760Y744378D02*
X568760D01*
X543760Y702406D02*
X568760D01*
X677672Y354330D02*
X728472D01*
Y379730D01*
X677672D02*
X728472D01*
X677672Y354330D02*
Y379730D01*
D58*
X327212Y694222D02*
G03*
X327212Y694222I-3000J0D01*
G01*
X777592Y166624D02*
G03*
X777592Y166624I-3000J0D01*
G01*
D59*
X713978Y232806D02*
G03*
X713978Y232806I-1000J0D01*
G01*
D60*
X294236Y773750D02*
X302486D01*
X294236Y798750D02*
X302486D01*
X260514Y773750D02*
X268764D01*
X260514Y798750D02*
X268764D01*
X701384Y186998D02*
X709134D01*
X701384Y161998D02*
X709134D01*
X736634Y186998D02*
X744384D01*
X736634Y161998D02*
X744384D01*
X809298Y686850D02*
Y694600D01*
X784298Y686850D02*
Y694600D01*
X809298Y651600D02*
Y659350D01*
X784298Y651600D02*
Y659350D01*
X637848Y572804D02*
Y580554D01*
X612848Y572804D02*
Y580554D01*
X637848Y537554D02*
Y545304D01*
X612848Y537554D02*
Y545304D01*
X466036Y130900D02*
Y138650D01*
X491036Y130900D02*
Y138650D01*
X466036Y166150D02*
Y173900D01*
X491036Y166150D02*
Y173900D01*
X466798Y181700D02*
Y189450D01*
X491798Y181700D02*
Y189450D01*
X466798Y216950D02*
Y224700D01*
X491798Y216950D02*
Y224700D01*
X212942Y93780D02*
X220692D01*
X212942Y68780D02*
X220692D01*
X248192Y93780D02*
X255942D01*
X248192Y68780D02*
X255942D01*
X195162Y189792D02*
X202912D01*
X195162Y164792D02*
X202912D01*
X230412Y189792D02*
X238162D01*
X230412Y164792D02*
X238162D01*
X212942Y43488D02*
X220692D01*
X212942Y18488D02*
X220692D01*
X248192Y43488D02*
X255942D01*
X248192Y18488D02*
X255942D01*
X278926Y211020D02*
X286676D01*
X278926Y236020D02*
X286676D01*
X243676Y211020D02*
X251426D01*
X243676Y236020D02*
X251426D01*
X218240Y145576D02*
Y153326D01*
X193240Y145576D02*
Y153326D01*
X218240Y110326D02*
Y118076D01*
X193240Y110326D02*
Y118076D01*
X657806Y472530D02*
Y480280D01*
X682806Y472530D02*
Y480280D01*
X657806Y507780D02*
Y515530D01*
X682806Y507780D02*
Y515530D01*
X785314Y768440D02*
Y776190D01*
X810314Y768440D02*
Y776190D01*
X785314Y803690D02*
Y811440D01*
X810314Y803690D02*
Y811440D01*
X277656Y89780D02*
X287156D01*
X277656Y72780D02*
X287156D01*
X277656Y72780D02*
Y89780D01*
X304156D02*
X313656D01*
X304156Y72780D02*
X313656D01*
Y89780D01*
X277656Y64380D02*
X287156D01*
X277656Y47380D02*
X287156D01*
X277656Y47380D02*
Y64380D01*
X304156D02*
X313656D01*
X304156Y47380D02*
X313656D01*
Y64380D01*
X277656Y38980D02*
X287156D01*
X277656Y21980D02*
X287156D01*
X277656Y21980D02*
Y38980D01*
X304156D02*
X313656D01*
X304156Y21980D02*
X313656D01*
Y38980D01*
X40370Y258982D02*
X199370D01*
Y275732D02*
Y361732D01*
X40370Y413982D02*
X199370D01*
X40370Y388232D02*
Y413982D01*
X534724Y126526D02*
Y134276D01*
X509724Y126526D02*
Y134276D01*
X534724Y91276D02*
Y99026D01*
X509724Y91276D02*
Y99026D01*
X87430Y455456D02*
Y463206D01*
X62430Y455456D02*
Y463206D01*
X87430Y420206D02*
Y427956D01*
X62430Y420206D02*
Y427956D01*
X739086Y100172D02*
Y108422D01*
X764086Y100172D02*
Y108422D01*
X739086Y133894D02*
Y142144D01*
X764086Y133894D02*
Y142144D01*
X18234Y500222D02*
Y508472D01*
X43234Y500222D02*
Y508472D01*
X18234Y533944D02*
Y542194D01*
X43234Y533944D02*
Y542194D01*
Y604048D02*
Y612298D01*
X18234Y604048D02*
Y612298D01*
X43234Y570326D02*
Y578576D01*
X18234Y570326D02*
Y578576D01*
X226350Y543752D02*
X234600D01*
X226350Y568752D02*
X234600D01*
X192628Y543752D02*
X200878D01*
X192628Y568752D02*
X200878D01*
X226350Y511500D02*
X234600D01*
X226350Y536500D02*
X234600D01*
X192628Y511500D02*
X200878D01*
X192628Y536500D02*
X200878D01*
X226350Y687752D02*
X234600D01*
X226350Y712752D02*
X234600D01*
X192628Y687752D02*
X200878D01*
X192628Y712752D02*
X200878D01*
X226350Y583752D02*
X234600D01*
X226350Y608752D02*
X234600D01*
X192628Y583752D02*
X200878D01*
X192628Y608752D02*
X200878D01*
X226350Y479752D02*
X234600D01*
X226350Y504752D02*
X234600D01*
X192628Y479752D02*
X200878D01*
X192628Y504752D02*
X200878D01*
X800808Y719424D02*
Y727674D01*
X825808Y719424D02*
Y727674D01*
X800808Y753146D02*
Y761396D01*
X825808Y753146D02*
Y761396D01*
X568760Y736128D02*
Y744378D01*
X543760Y736128D02*
Y744378D01*
X568760Y702406D02*
Y710656D01*
X543760Y702406D02*
Y710656D01*
X318516Y71882D02*
Y77807D01*
X321478Y80769D01*
X324441Y77807D01*
Y71882D01*
Y76326D01*
X318516D01*
X272879Y79288D02*
X271398Y80769D01*
X268435D01*
X266954Y79288D01*
Y73363D01*
X268435Y71882D01*
X271398D01*
X272879Y73363D01*
X318516Y45466D02*
Y51391D01*
X321478Y54353D01*
X324441Y51391D01*
Y45466D01*
Y49910D01*
X318516D01*
X272879Y52872D02*
X271398Y54353D01*
X268435D01*
X266954Y52872D01*
Y46947D01*
X268435Y45466D01*
X271398D01*
X272879Y46947D01*
X318516Y21590D02*
Y27515D01*
X321478Y30477D01*
X324441Y27515D01*
Y21590D01*
Y26034D01*
X318516D01*
X272879Y28996D02*
X271398Y30477D01*
X268435D01*
X266954Y28996D01*
Y23071D01*
X268435Y21590D01*
X271398D01*
X272879Y23071D01*
D61*
X387156Y143880D02*
X458156D01*
X387156Y221880D02*
X458156D01*
X387156Y143880D02*
Y221880D01*
X458156Y143880D02*
Y221880D01*
X196876Y194610D02*
X231876D01*
X196876Y232110D02*
X231876D01*
X196876Y194610D02*
Y232110D01*
X231876Y194610D02*
Y232110D01*
X214376Y208360D02*
Y218360D01*
X209376Y213360D02*
X219376D01*
D62*
X716193Y154683D02*
X709422D01*
Y149604D01*
X712808D01*
X709422D01*
Y144526D01*
X719579Y154683D02*
Y144526D01*
X724657D01*
X726350Y146219D01*
Y147912D01*
X724657Y149604D01*
X719579D01*
X724657D01*
X726350Y151297D01*
Y152990D01*
X724657Y154683D01*
X719579D01*
X736507D02*
X729735D01*
Y149604D01*
X733121Y151297D01*
X734814D01*
X736507Y149604D01*
Y146219D01*
X734814Y144526D01*
X731428D01*
X729735Y146219D01*
X783844Y634746D02*
Y644903D01*
X788922D01*
X790615Y643210D01*
Y639824D01*
X788922Y638132D01*
X783844D01*
X787230D02*
X790615Y634746D01*
X800772D02*
X794001D01*
X800772Y641517D01*
Y643210D01*
X799079Y644903D01*
X795694D01*
X794001Y643210D01*
X804157Y636439D02*
X805850Y634746D01*
X809236D01*
X810929Y636439D01*
Y643210D01*
X809236Y644903D01*
X805850D01*
X804157Y643210D01*
Y641517D01*
X805850Y639824D01*
X810929D01*
X611886Y587248D02*
Y597405D01*
X616964D01*
X618657Y595712D01*
Y592326D01*
X616964Y590634D01*
X611886D01*
X615272D02*
X618657Y587248D01*
X622043Y595712D02*
X623736Y597405D01*
X627121D01*
X628814Y595712D01*
Y594019D01*
X627121Y592326D01*
X625428D01*
X627121D01*
X628814Y590634D01*
Y588941D01*
X627121Y587248D01*
X623736D01*
X622043Y588941D01*
X632199Y595712D02*
X633892Y597405D01*
X637278D01*
X638971Y595712D01*
Y588941D01*
X637278Y587248D01*
X633892D01*
X632199Y588941D01*
Y595712D01*
X506222Y137160D02*
X496065D01*
Y142238D01*
X497758Y143931D01*
X501144D01*
X502836Y142238D01*
Y137160D01*
Y140546D02*
X506222Y143931D01*
Y147317D02*
Y150702D01*
Y149010D01*
X496065D01*
X497758Y147317D01*
Y155781D02*
X496065Y157473D01*
Y160859D01*
X497758Y162552D01*
X504529D01*
X506222Y160859D01*
Y157473D01*
X504529Y155781D01*
X497758D01*
X506222Y165937D02*
Y169323D01*
Y167630D01*
X496065D01*
X497758Y165937D01*
X508000Y184912D02*
X497843D01*
Y189990D01*
X499536Y191683D01*
X502922D01*
X504614Y189990D01*
Y184912D01*
Y188298D02*
X508000Y191683D01*
Y195069D02*
Y198454D01*
Y196761D01*
X497843D01*
X499536Y195069D01*
Y203533D02*
X497843Y205225D01*
Y208611D01*
X499536Y210304D01*
X506307D01*
X508000Y208611D01*
Y205225D01*
X506307Y203533D01*
X499536D01*
X497843Y220460D02*
Y213689D01*
X502922D01*
X501229Y217075D01*
Y218768D01*
X502922Y220460D01*
X506307D01*
X508000Y218768D01*
Y215382D01*
X506307Y213689D01*
X205740Y66040D02*
X195583D01*
Y71118D01*
X197276Y72811D01*
X200662D01*
X202354Y71118D01*
Y66040D01*
Y69426D02*
X205740Y72811D01*
Y76197D02*
Y79582D01*
Y77889D01*
X195583D01*
X197276Y76197D01*
Y84661D02*
X195583Y86353D01*
Y89739D01*
X197276Y91432D01*
X204047D01*
X205740Y89739D01*
Y86353D01*
X204047Y84661D01*
X197276D01*
X195583Y94817D02*
Y101588D01*
X197276D01*
X204047Y94817D01*
X205740D01*
X183134Y159258D02*
X172977D01*
Y164336D01*
X174670Y166029D01*
X178056D01*
X179748Y164336D01*
Y159258D01*
Y162644D02*
X183134Y166029D01*
Y169415D02*
Y172800D01*
Y171108D01*
X172977D01*
X174670Y169415D01*
Y177879D02*
X172977Y179571D01*
Y182957D01*
X174670Y184650D01*
X181441D01*
X183134Y182957D01*
Y179571D01*
X181441Y177879D01*
X174670D01*
Y188035D02*
X172977Y189728D01*
Y193114D01*
X174670Y194806D01*
X176363D01*
X178056Y193114D01*
X179748Y194806D01*
X181441D01*
X183134Y193114D01*
Y189728D01*
X181441Y188035D01*
X179748D01*
X178056Y189728D01*
X176363Y188035D01*
X174670D01*
X178056Y189728D02*
Y193114D01*
X205740Y11938D02*
X195583D01*
Y17016D01*
X197276Y18709D01*
X200662D01*
X202354Y17016D01*
Y11938D01*
Y15324D02*
X205740Y18709D01*
Y22095D02*
Y25480D01*
Y23788D01*
X195583D01*
X197276Y22095D01*
Y30559D02*
X195583Y32251D01*
Y35637D01*
X197276Y37330D01*
X204047D01*
X205740Y35637D01*
Y32251D01*
X204047Y30559D01*
X197276D01*
X204047Y40715D02*
X205740Y42408D01*
Y45794D01*
X204047Y47487D01*
X197276D01*
X195583Y45794D01*
Y42408D01*
X197276Y40715D01*
X198969D01*
X200662Y42408D01*
Y47487D01*
X249174Y241300D02*
Y251457D01*
X254252D01*
X255945Y249764D01*
Y246378D01*
X254252Y244686D01*
X249174D01*
X252560D02*
X255945Y241300D01*
X259331D02*
X262716D01*
X261024D01*
Y251457D01*
X259331Y249764D01*
X267795Y241300D02*
X271180D01*
X269487D01*
Y251457D01*
X267795Y249764D01*
X283030Y241300D02*
X276259D01*
X283030Y248071D01*
Y249764D01*
X281337Y251457D01*
X277951D01*
X276259Y249764D01*
X183134Y114554D02*
X172977D01*
Y119632D01*
X174670Y121325D01*
X178056D01*
X179748Y119632D01*
Y114554D01*
Y117940D02*
X183134Y121325D01*
Y124711D02*
Y128096D01*
Y126404D01*
X172977D01*
X174670Y124711D01*
X183134Y133175D02*
Y136560D01*
Y134867D01*
X172977D01*
X174670Y133175D01*
Y141639D02*
X172977Y143331D01*
Y146717D01*
X174670Y148410D01*
X176363D01*
X178056Y146717D01*
Y145024D01*
Y146717D01*
X179748Y148410D01*
X181441D01*
X183134Y146717D01*
Y143331D01*
X181441Y141639D01*
X334010Y85341D02*
Y75184D01*
X339088D01*
X340781Y76877D01*
Y83648D01*
X339088Y85341D01*
X334010D01*
X344167Y75184D02*
X347552D01*
X345859D01*
Y85341D01*
X344167Y83648D01*
X332740Y59433D02*
Y49276D01*
X337818D01*
X339511Y50969D01*
Y57740D01*
X337818Y59433D01*
X332740D01*
X349668Y49276D02*
X342897D01*
X349668Y56047D01*
Y57740D01*
X347975Y59433D01*
X344590D01*
X342897Y57740D01*
X333502Y34033D02*
Y23876D01*
X338580D01*
X340273Y25569D01*
Y32340D01*
X338580Y34033D01*
X333502D01*
X343659Y32340D02*
X345351Y34033D01*
X348737D01*
X350430Y32340D01*
Y30647D01*
X348737Y28954D01*
X347044D01*
X348737D01*
X350430Y27262D01*
Y25569D01*
X348737Y23876D01*
X345351D01*
X343659Y25569D01*
X316719Y789634D02*
X315026Y791327D01*
X311641D01*
X309948Y789634D01*
Y782863D01*
X311641Y781170D01*
X315026D01*
X316719Y782863D01*
X326876Y781170D02*
X320105D01*
X326876Y787941D01*
Y789634D01*
X325183Y791327D01*
X321797D01*
X320105Y789634D01*
X330261D02*
X331954Y791327D01*
X335340D01*
X337033Y789634D01*
Y782863D01*
X335340Y781170D01*
X331954D01*
X330261Y782863D01*
Y789634D01*
X347189Y781170D02*
X340418D01*
X347189Y787941D01*
Y789634D01*
X345496Y791327D01*
X342111D01*
X340418Y789634D01*
X52578Y430784D02*
X42421D01*
Y435862D01*
X44114Y437555D01*
X47500D01*
X49192Y435862D01*
Y430784D01*
Y434170D02*
X52578Y437555D01*
Y440941D02*
X42421D01*
X45807Y444326D01*
X42421Y447712D01*
X52578D01*
Y451097D02*
Y454483D01*
Y452790D01*
X42421D01*
X44114Y451097D01*
X790956Y821436D02*
Y831593D01*
X796034D01*
X797727Y829900D01*
Y826514D01*
X796034Y824822D01*
X790956D01*
X794342D02*
X797727Y821436D01*
X801113D02*
X804498D01*
X802805D01*
Y831593D01*
X801113Y829900D01*
X213019Y240707D02*
Y247478D01*
X211326Y249171D01*
X207941D01*
X206248Y247478D01*
Y240707D01*
X207941Y239014D01*
X211326D01*
X209634Y242400D02*
X213019Y239014D01*
X211326D02*
X213019Y240707D01*
X216405Y239014D02*
X219790D01*
X218097D01*
Y249171D01*
X216405Y247478D01*
X259247Y172040D02*
X257554Y173733D01*
X254169D01*
X252476Y172040D01*
Y165269D01*
X254169Y163576D01*
X257554D01*
X259247Y165269D01*
X262633Y163576D02*
X266018D01*
X264326D01*
Y173733D01*
X262633Y172040D01*
X271097Y163576D02*
X274482D01*
X272789D01*
Y173733D01*
X271097Y172040D01*
X279561D02*
X281253Y173733D01*
X284639D01*
X286332Y172040D01*
Y165269D01*
X284639Y163576D01*
X281253D01*
X279561Y165269D01*
Y172040D01*
X356280Y71795D02*
X354587Y70102D01*
Y66717D01*
X356280Y65024D01*
X363051D01*
X364744Y66717D01*
Y70102D01*
X363051Y71795D01*
X364744Y75181D02*
Y78566D01*
Y76873D01*
X354587D01*
X356280Y75181D01*
Y83645D02*
X354587Y85337D01*
Y88723D01*
X356280Y90416D01*
X363051D01*
X364744Y88723D01*
Y85337D01*
X363051Y83645D01*
X356280D01*
X363051Y93801D02*
X364744Y95494D01*
Y98880D01*
X363051Y100573D01*
X356280D01*
X354587Y98880D01*
Y95494D01*
X356280Y93801D01*
X357973D01*
X359666Y95494D01*
Y100573D01*
X518835Y227158D02*
X517142Y228851D01*
X513757D01*
X512064Y227158D01*
Y220387D01*
X513757Y218694D01*
X517142D01*
X518835Y220387D01*
X522221Y218694D02*
X525606D01*
X523913D01*
Y228851D01*
X522221Y227158D01*
X530685D02*
X532377Y228851D01*
X535763D01*
X537456Y227158D01*
Y220387D01*
X535763Y218694D01*
X532377D01*
X530685Y220387D01*
Y227158D01*
X540841D02*
X542534Y228851D01*
X545920D01*
X547612Y227158D01*
Y225465D01*
X545920Y223772D01*
X547612Y222080D01*
Y220387D01*
X545920Y218694D01*
X542534D01*
X540841Y220387D01*
Y222080D01*
X542534Y223772D01*
X540841Y225465D01*
Y227158D01*
X542534Y223772D02*
X545920D01*
X315640Y201335D02*
X313947Y199642D01*
Y196257D01*
X315640Y194564D01*
X322411D01*
X324104Y196257D01*
Y199642D01*
X322411Y201335D01*
X324104Y204721D02*
Y208106D01*
Y206413D01*
X313947D01*
X315640Y204721D01*
Y213185D02*
X313947Y214877D01*
Y218263D01*
X315640Y219956D01*
X322411D01*
X324104Y218263D01*
Y214877D01*
X322411Y213185D01*
X315640D01*
X313947Y230112D02*
Y223341D01*
X319026D01*
X317333Y226727D01*
Y228420D01*
X319026Y230112D01*
X322411D01*
X324104Y228420D01*
Y225034D01*
X322411Y223341D01*
X361106Y236387D02*
X359413Y234694D01*
Y231309D01*
X361106Y229616D01*
X367877D01*
X369570Y231309D01*
Y234694D01*
X367877Y236387D01*
X369570Y239773D02*
Y243158D01*
Y241465D01*
X359413D01*
X361106Y239773D01*
Y248237D02*
X359413Y249929D01*
Y253315D01*
X361106Y255008D01*
X367877D01*
X369570Y253315D01*
Y249929D01*
X367877Y248237D01*
X361106D01*
Y258393D02*
X359413Y260086D01*
Y263472D01*
X361106Y265165D01*
X362799D01*
X364492Y263472D01*
Y261779D01*
Y263472D01*
X366184Y265165D01*
X367877D01*
X369570Y263472D01*
Y260086D01*
X367877Y258393D01*
X428919Y282530D02*
X427226Y284223D01*
X423841D01*
X422148Y282530D01*
Y275759D01*
X423841Y274066D01*
X427226D01*
X428919Y275759D01*
X432305Y274066D02*
X435690D01*
X433997D01*
Y284223D01*
X432305Y282530D01*
X440769D02*
X442461Y284223D01*
X445847D01*
X447540Y282530D01*
Y275759D01*
X445847Y274066D01*
X442461D01*
X440769Y275759D01*
Y282530D01*
X457696Y274066D02*
X450925D01*
X457696Y280837D01*
Y282530D01*
X456004Y284223D01*
X452618D01*
X450925Y282530D01*
X412668Y103037D02*
X410975Y101344D01*
Y97959D01*
X412668Y96266D01*
X419439D01*
X421132Y97959D01*
Y101344D01*
X419439Y103037D01*
X421132Y106423D02*
Y109808D01*
Y108116D01*
X410975D01*
X412668Y106423D01*
Y114887D02*
X410975Y116579D01*
Y119965D01*
X412668Y121658D01*
X419439D01*
X421132Y119965D01*
Y116579D01*
X419439Y114887D01*
X412668D01*
X421132Y125043D02*
Y128429D01*
Y126736D01*
X410975D01*
X412668Y125043D01*
X300400Y424347D02*
X298707Y422654D01*
Y419269D01*
X300400Y417576D01*
X307171D01*
X308864Y419269D01*
Y422654D01*
X307171Y424347D01*
X308864Y434504D02*
Y427733D01*
X302093Y434504D01*
X300400D01*
X298707Y432811D01*
Y429426D01*
X300400Y427733D01*
X298707Y437889D02*
Y444661D01*
X300400D01*
X307171Y437889D01*
X308864D01*
X300400Y390565D02*
X298707Y388872D01*
Y385487D01*
X300400Y383794D01*
X307171D01*
X308864Y385487D01*
Y388872D01*
X307171Y390565D01*
X308864Y400722D02*
Y393951D01*
X302093Y400722D01*
X300400D01*
X298707Y399029D01*
Y395644D01*
X300400Y393951D01*
X298707Y410879D02*
X300400Y407493D01*
X303786Y404107D01*
X307171D01*
X308864Y405800D01*
Y409186D01*
X307171Y410879D01*
X305478D01*
X303786Y409186D01*
Y404107D01*
X550077Y693248D02*
X548384Y694941D01*
X544999D01*
X543306Y693248D01*
Y686477D01*
X544999Y684784D01*
X548384D01*
X550077Y686477D01*
X560234Y684784D02*
X553463D01*
X560234Y691555D01*
Y693248D01*
X558541Y694941D01*
X555155D01*
X553463Y693248D01*
X570391Y694941D02*
X563619D01*
Y689862D01*
X567005Y691555D01*
X568698D01*
X570391Y689862D01*
Y686477D01*
X568698Y684784D01*
X565312D01*
X563619Y686477D01*
X807125Y710520D02*
X805432Y712213D01*
X802047D01*
X800354Y710520D01*
Y703749D01*
X802047Y702056D01*
X805432D01*
X807125Y703749D01*
X817282Y702056D02*
X810511D01*
X817282Y708827D01*
Y710520D01*
X815589Y712213D01*
X812204D01*
X810511Y710520D01*
X825746Y702056D02*
Y712213D01*
X820667Y707134D01*
X827439D01*
X253066Y499451D02*
X254759Y501144D01*
Y504529D01*
X253066Y506222D01*
X246295D01*
X244602Y504529D01*
Y501144D01*
X246295Y499451D01*
X244602Y489294D02*
Y496065D01*
X251373Y489294D01*
X253066D01*
X254759Y490987D01*
Y494372D01*
X253066Y496065D01*
Y485909D02*
X254759Y484216D01*
Y480830D01*
X253066Y479137D01*
X251373D01*
X249680Y480830D01*
Y482523D01*
Y480830D01*
X247988Y479137D01*
X246295D01*
X244602Y480830D01*
Y484216D01*
X246295Y485909D01*
X252558Y603337D02*
X254251Y605030D01*
Y608415D01*
X252558Y610108D01*
X245787D01*
X244094Y608415D01*
Y605030D01*
X245787Y603337D01*
X244094Y593180D02*
Y599951D01*
X250865Y593180D01*
X252558D01*
X254251Y594873D01*
Y598259D01*
X252558Y599951D01*
X244094Y583023D02*
Y589795D01*
X250865Y583023D01*
X252558D01*
X254251Y584716D01*
Y588102D01*
X252558Y589795D01*
X254590Y705445D02*
X256283Y707138D01*
Y710523D01*
X254590Y712216D01*
X247819D01*
X246126Y710523D01*
Y707138D01*
X247819Y705445D01*
X246126Y695288D02*
Y702059D01*
X252897Y695288D01*
X254590D01*
X256283Y696981D01*
Y700367D01*
X254590Y702059D01*
X246126Y691903D02*
Y688517D01*
Y690210D01*
X256283D01*
X254590Y691903D01*
X252558Y531201D02*
X254251Y532894D01*
Y536279D01*
X252558Y537972D01*
X245787D01*
X244094Y536279D01*
Y532894D01*
X245787Y531201D01*
X244094Y521044D02*
Y527815D01*
X250865Y521044D01*
X252558D01*
X254251Y522737D01*
Y526123D01*
X252558Y527815D01*
Y517659D02*
X254251Y515966D01*
Y512580D01*
X252558Y510887D01*
X245787D01*
X244094Y512580D01*
Y515966D01*
X245787Y517659D01*
X252558D01*
Y562443D02*
X254251Y564136D01*
Y567521D01*
X252558Y569214D01*
X245787D01*
X244094Y567521D01*
Y564136D01*
X245787Y562443D01*
X244094Y559057D02*
Y555672D01*
Y557365D01*
X254251D01*
X252558Y559057D01*
X245787Y550593D02*
X244094Y548901D01*
Y545515D01*
X245787Y543822D01*
X252558D01*
X254251Y545515D01*
Y548901D01*
X252558Y550593D01*
X250865D01*
X249172Y548901D01*
Y543822D01*
X24805Y628224D02*
X23112Y629917D01*
X19727D01*
X18034Y628224D01*
Y621453D01*
X19727Y619760D01*
X23112D01*
X24805Y621453D01*
X28191Y619760D02*
X31576D01*
X29883D01*
Y629917D01*
X28191Y628224D01*
X36655D02*
X38347Y629917D01*
X41733D01*
X43426Y628224D01*
Y626531D01*
X41733Y624838D01*
X43426Y623146D01*
Y621453D01*
X41733Y619760D01*
X38347D01*
X36655Y621453D01*
Y623146D01*
X38347Y624838D01*
X36655Y626531D01*
Y628224D01*
X38347Y624838D02*
X41733D01*
X24805Y558120D02*
X23112Y559813D01*
X19727D01*
X18034Y558120D01*
Y551349D01*
X19727Y549656D01*
X23112D01*
X24805Y551349D01*
X28191Y549656D02*
X31576D01*
X29883D01*
Y559813D01*
X28191Y558120D01*
X36655Y559813D02*
X43426D01*
Y558120D01*
X36655Y551349D01*
Y549656D01*
X744895Y91014D02*
X743202Y92707D01*
X739817D01*
X738124Y91014D01*
Y84243D01*
X739817Y82550D01*
X743202D01*
X744895Y84243D01*
X753359Y82550D02*
Y92707D01*
X748281Y87628D01*
X755052D01*
X758437Y91014D02*
X760130Y92707D01*
X763516D01*
X765209Y91014D01*
Y89321D01*
X763516Y87628D01*
X765209Y85936D01*
Y84243D01*
X763516Y82550D01*
X760130D01*
X758437Y84243D01*
Y85936D01*
X760130Y87628D01*
X758437Y89321D01*
Y91014D01*
X760130Y87628D02*
X763516D01*
X662853Y69678D02*
X661160Y71371D01*
X657775D01*
X656082Y69678D01*
Y62907D01*
X657775Y61214D01*
X661160D01*
X662853Y62907D01*
X666239Y61214D02*
X669624D01*
X667932D01*
Y71371D01*
X666239Y69678D01*
X674703Y61214D02*
X678088D01*
X676395D01*
Y71371D01*
X674703Y69678D01*
X689938Y61214D02*
X683167D01*
X689938Y67985D01*
Y69678D01*
X688245Y71371D01*
X684859D01*
X683167Y69678D01*
X709848Y521883D02*
X708155Y520190D01*
Y516805D01*
X709848Y515112D01*
X716619D01*
X718312Y516805D01*
Y520190D01*
X716619Y521883D01*
X709848Y525269D02*
X708155Y526962D01*
Y530347D01*
X709848Y532040D01*
X711541D01*
X713234Y530347D01*
Y528654D01*
Y530347D01*
X714926Y532040D01*
X716619D01*
X718312Y530347D01*
Y526962D01*
X716619Y525269D01*
X709848Y535425D02*
X708155Y537118D01*
Y540504D01*
X709848Y542197D01*
X716619D01*
X718312Y540504D01*
Y537118D01*
X716619Y535425D01*
X709848D01*
X660318Y535091D02*
X658625Y533398D01*
Y530013D01*
X660318Y528320D01*
X667089D01*
X668782Y530013D01*
Y533398D01*
X667089Y535091D01*
X660318Y538477D02*
X658625Y540169D01*
Y543555D01*
X660318Y545248D01*
X662011D01*
X663704Y543555D01*
Y541862D01*
Y543555D01*
X665396Y545248D01*
X667089D01*
X668782Y543555D01*
Y540169D01*
X667089Y538477D01*
X668782Y548633D02*
Y552019D01*
Y550326D01*
X658625D01*
X660318Y548633D01*
X712896Y311571D02*
X711203Y309878D01*
Y306493D01*
X712896Y304800D01*
X719667D01*
X721360Y306493D01*
Y309878D01*
X719667Y311571D01*
X721360Y320035D02*
X711203D01*
X716282Y314957D01*
Y321728D01*
X711203Y331885D02*
X712896Y328499D01*
X716282Y325113D01*
X719667D01*
X721360Y326806D01*
Y330192D01*
X719667Y331885D01*
X717974D01*
X716282Y330192D01*
Y325113D01*
X662178Y457200D02*
Y467357D01*
X667256D01*
X668949Y465664D01*
Y462278D01*
X667256Y460586D01*
X662178D01*
X665564D02*
X668949Y457200D01*
X672335Y458893D02*
X674027Y457200D01*
X677413D01*
X679106Y458893D01*
Y465664D01*
X677413Y467357D01*
X674027D01*
X672335Y465664D01*
Y463971D01*
X674027Y462278D01*
X679106D01*
X493017Y105577D02*
Y98806D01*
X498096D01*
Y102192D01*
Y98806D01*
X503174D01*
X493017Y108963D02*
X503174D01*
Y114041D01*
X501481Y115734D01*
X499788D01*
X498096Y114041D01*
Y108963D01*
Y114041D01*
X496403Y115734D01*
X494710D01*
X493017Y114041D01*
Y108963D01*
X503174Y125891D02*
Y119119D01*
X496403Y125891D01*
X494710D01*
X493017Y124198D01*
Y120812D01*
X494710Y119119D01*
X702056Y496062D02*
Y502410D01*
X705230D01*
X706288Y501352D01*
Y499236D01*
X705230Y498178D01*
X702056D01*
X704172D02*
X706288Y496062D01*
X708404Y502410D02*
X712636D01*
X710520D01*
Y496062D01*
X714752Y502410D02*
Y496062D01*
Y498178D01*
X718984Y502410D01*
X715810Y499236D01*
X718984Y496062D01*
X41402Y183642D02*
Y192529D01*
X45846D01*
X47327Y191048D01*
Y188086D01*
X45846Y186604D01*
X41402D01*
X44364D02*
X47327Y183642D01*
X54733D02*
X51770D01*
X50289Y185123D01*
Y188086D01*
X51770Y189567D01*
X54733D01*
X56214Y188086D01*
Y186604D01*
X50289D01*
X59176Y189567D02*
X62139Y183642D01*
X65101Y189567D01*
X68063Y183642D02*
X71026D01*
X69545D01*
Y189567D01*
X68063D01*
X75469Y183642D02*
X79913D01*
X81394Y185123D01*
X79913Y186604D01*
X76950D01*
X75469Y188086D01*
X76950Y189567D01*
X81394D01*
X84356Y183642D02*
X87319D01*
X85838D01*
Y189567D01*
X84356D01*
X93244Y183642D02*
X96206D01*
X97687Y185123D01*
Y188086D01*
X96206Y189567D01*
X93244D01*
X91762Y188086D01*
Y185123D01*
X93244Y183642D01*
X100649D02*
Y189567D01*
X105093D01*
X106574Y188086D01*
Y183642D01*
X118424Y192529D02*
Y183642D01*
X122867D01*
X124348Y185123D01*
Y186604D01*
X122867Y188086D01*
X118424D01*
X122867D01*
X124348Y189567D01*
Y191048D01*
X122867Y192529D01*
X118424D01*
X866142Y638556D02*
X870374D01*
X872490Y640672D01*
X870374Y642788D01*
X866142D01*
Y644904D02*
X872490D01*
Y648078D01*
X871432Y649136D01*
X867200D01*
X866142Y648078D01*
Y644904D01*
Y651252D02*
X872490D01*
Y654426D01*
X871432Y655484D01*
X867200D01*
X866142Y654426D01*
Y651252D01*
Y657600D02*
X872490D01*
Y660774D01*
X871432Y661832D01*
X870374D01*
X869316Y660774D01*
Y657600D01*
Y660774D01*
X868258Y661832D01*
X867200D01*
X866142Y660774D01*
Y657600D01*
Y663948D02*
X871432D01*
X872490Y665006D01*
Y667122D01*
X871432Y668180D01*
X866142D01*
X867200Y590718D02*
X866142Y589660D01*
Y587544D01*
X867200Y586486D01*
X871432D01*
X872490Y587544D01*
Y589660D01*
X871432Y590718D01*
X869316D01*
Y588602D01*
X872490Y592834D02*
X866142D01*
X872490Y597066D01*
X866142D01*
Y599182D02*
X872490D01*
Y602356D01*
X871432Y603414D01*
X867200D01*
X866142Y602356D01*
Y599182D01*
Y610616D02*
X872490D01*
X870374Y612732D01*
X872490Y614848D01*
X866142D01*
Y616964D02*
X872490D01*
X870374D01*
X866142Y621196D01*
X869316Y618022D01*
X872490Y621196D01*
X866142Y623312D02*
X871432D01*
X872490Y624370D01*
Y626486D01*
X871432Y627544D01*
X866142D01*
X872490Y629660D02*
X866142D01*
Y632834D01*
X867200Y633892D01*
X869316D01*
X870374Y632834D01*
Y629660D01*
X866142Y443652D02*
Y441536D01*
Y442594D01*
X871432D01*
X872490Y441536D01*
Y440478D01*
X871432Y439420D01*
X866142Y445768D02*
Y450000D01*
Y447884D01*
X872490D01*
Y452116D02*
X868258D01*
X866142Y454232D01*
X868258Y456348D01*
X872490D01*
X869316D01*
Y452116D01*
X867200Y462696D02*
X866142Y461638D01*
Y459522D01*
X867200Y458464D01*
X871432D01*
X872490Y459522D01*
Y461638D01*
X871432Y462696D01*
X869316D01*
Y460580D01*
X601726Y92964D02*
X591569D01*
Y98042D01*
X593262Y99735D01*
X596648D01*
X598340Y98042D01*
Y92964D01*
X601726Y104813D02*
Y108199D01*
X600033Y109892D01*
X596648D01*
X594955Y108199D01*
Y104813D01*
X596648Y103121D01*
X600033D01*
X601726Y104813D01*
X594955Y113277D02*
X600033D01*
X601726Y114970D01*
X600033Y116663D01*
X601726Y118356D01*
X600033Y120049D01*
X594955D01*
X601726Y128512D02*
Y125127D01*
X600033Y123434D01*
X596648D01*
X594955Y125127D01*
Y128512D01*
X596648Y130205D01*
X598340D01*
Y123434D01*
X594955Y133591D02*
X601726D01*
X598340D01*
X596648Y135284D01*
X594955Y136976D01*
Y138669D01*
X101092Y79248D02*
X90935D01*
Y84326D01*
X92628Y86019D01*
X96014D01*
X97706Y84326D01*
Y79248D01*
Y82634D02*
X101092Y86019D01*
Y94483D02*
Y91097D01*
X99399Y89405D01*
X96014D01*
X94321Y91097D01*
Y94483D01*
X96014Y96176D01*
X97706D01*
Y89405D01*
X101092Y99561D02*
Y104640D01*
X99399Y106333D01*
X97706Y104640D01*
Y101254D01*
X96014Y99561D01*
X94321Y101254D01*
Y106333D01*
X101092Y114796D02*
Y111411D01*
X99399Y109718D01*
X96014D01*
X94321Y111411D01*
Y114796D01*
X96014Y116489D01*
X97706D01*
Y109718D01*
X92628Y121568D02*
X94321D01*
Y119875D01*
Y123260D01*
Y121568D01*
X99399D01*
X101092Y123260D01*
X804418Y358391D02*
Y352466D01*
X807380Y349504D01*
X810343Y352466D01*
Y358391D01*
X813305Y355429D02*
Y349504D01*
Y352466D01*
X814786Y353948D01*
X816267Y355429D01*
X817749D01*
X826636Y349504D02*
X823673D01*
X822192Y350985D01*
Y353948D01*
X823673Y355429D01*
X826636D01*
X828117Y353948D01*
Y352466D01*
X822192D01*
X832561Y349504D02*
Y356910D01*
Y353948D01*
X831079D01*
X834042D01*
X832561D01*
Y356910D01*
X834042Y358391D01*
X804418Y375412D02*
Y384299D01*
X810343Y375412D01*
Y384299D01*
X813305D02*
X819230D01*
X816267D01*
Y375412D01*
X822192D02*
Y384299D01*
X826636D01*
X828117Y382818D01*
Y379856D01*
X826636Y378374D01*
X822192D01*
X825155D02*
X828117Y375412D01*
X837004Y382818D02*
X835523Y384299D01*
X832561D01*
X831079Y382818D01*
Y381337D01*
X832561Y379856D01*
X835523D01*
X837004Y378374D01*
Y376893D01*
X835523Y375412D01*
X832561D01*
X831079Y376893D01*
X839967Y384299D02*
X845891D01*
X842929D01*
Y375412D01*
X804418Y528828D02*
Y537715D01*
X808862D01*
X810343Y536234D01*
Y533272D01*
X808862Y531790D01*
X804418D01*
X807380D02*
X810343Y528828D01*
X819230Y536234D02*
X817749Y537715D01*
X814786D01*
X813305Y536234D01*
Y534753D01*
X814786Y533272D01*
X817749D01*
X819230Y531790D01*
Y530309D01*
X817749Y528828D01*
X814786D01*
X813305Y530309D01*
X822192Y537715D02*
X828117D01*
X825155D01*
Y528828D01*
X804418Y511807D02*
X810343D01*
X807380D01*
Y502920D01*
X813305Y511807D02*
Y502920D01*
X817749D01*
X819230Y504401D01*
Y510326D01*
X817749Y511807D01*
X813305D01*
X826636D02*
X823673D01*
X822192Y510326D01*
Y504401D01*
X823673Y502920D01*
X826636D01*
X828117Y504401D01*
Y510326D01*
X826636Y511807D01*
X804418Y477520D02*
Y486407D01*
X808862D01*
X810343Y484926D01*
Y481964D01*
X808862Y480482D01*
X804418D01*
X807380D02*
X810343Y477520D01*
X813305Y486407D02*
X819230D01*
X816267D01*
Y477520D01*
X822192Y486407D02*
Y477520D01*
Y480482D01*
X828117Y486407D01*
X823673Y481964D01*
X828117Y477520D01*
X804418Y460753D02*
X810343D01*
X807380D01*
Y451866D01*
X819230Y459272D02*
X817749Y460753D01*
X814786D01*
X813305Y459272D01*
Y453347D01*
X814786Y451866D01*
X817749D01*
X819230Y453347D01*
X822192Y460753D02*
Y451866D01*
Y454828D01*
X828117Y460753D01*
X823673Y456310D01*
X828117Y451866D01*
X804418Y435607D02*
X810343D01*
X807380D01*
Y426720D01*
X813305D02*
Y435607D01*
X816267Y432645D01*
X819230Y435607D01*
Y426720D01*
X828117Y434126D02*
X826636Y435607D01*
X823673D01*
X822192Y434126D01*
Y432645D01*
X823673Y431164D01*
X826636D01*
X828117Y429682D01*
Y428201D01*
X826636Y426720D01*
X823673D01*
X822192Y428201D01*
X804418Y410207D02*
X810343D01*
X807380D01*
Y401320D01*
X813305Y410207D02*
Y401320D01*
X817749D01*
X819230Y402801D01*
Y408726D01*
X817749Y410207D01*
X813305D01*
X822192D02*
X825155D01*
X823673D01*
Y401320D01*
X822192D01*
X825155D01*
X562570Y276472D02*
X561089Y274991D01*
Y272028D01*
X562570Y270547D01*
X568495D01*
X569976Y272028D01*
Y274991D01*
X568495Y276472D01*
X565532D01*
Y273509D01*
X569976Y279434D02*
X561089D01*
X569976Y285359D01*
X561089D01*
Y288321D02*
X569976D01*
Y292765D01*
X568495Y294246D01*
X562570D01*
X561089Y292765D01*
Y288321D01*
X610619Y254254D02*
X616544D01*
X619506Y257216D01*
X616544Y260179D01*
X610619D01*
X619506Y263141D02*
X613581D01*
Y264622D01*
X615062Y266103D01*
X619506D01*
X615062D01*
X613581Y267585D01*
X615062Y269066D01*
X619506D01*
X613581Y273509D02*
Y276472D01*
X615062Y277953D01*
X619506D01*
Y273509D01*
X618025Y272028D01*
X616544Y273509D01*
Y277953D01*
X619506Y280915D02*
Y283878D01*
Y282397D01*
X613581D01*
Y280915D01*
X619506Y288321D02*
X613581D01*
Y292765D01*
X615062Y294246D01*
X619506D01*
X637289Y261660D02*
X646176D01*
Y266103D01*
X644695Y267585D01*
X638770D01*
X637289Y266103D01*
Y261660D01*
X646176Y270547D02*
X637289D01*
Y274991D01*
X638770Y276472D01*
X641732D01*
X643214Y274991D01*
Y270547D01*
Y273509D02*
X646176Y276472D01*
X637289Y279434D02*
X646176Y285359D01*
X637289D02*
X646176Y279434D01*
X637289Y288321D02*
X646176D01*
Y292765D01*
X644695Y294246D01*
X638770D01*
X637289Y292765D01*
Y288321D01*
X663705Y261660D02*
X672592D01*
Y266103D01*
X671111Y267585D01*
X665186D01*
X663705Y266103D01*
Y261660D01*
Y270547D02*
Y276472D01*
Y273509D01*
X672592D01*
X663705Y279434D02*
X672592Y285359D01*
X663705D02*
X672592Y279434D01*
X663705Y288321D02*
X672592D01*
Y292765D01*
X671111Y294246D01*
X665186D01*
X663705Y292765D01*
Y288321D01*
X594868Y279434D02*
X585981D01*
X594868Y285359D01*
X585981D01*
X587462Y294246D02*
X585981Y292765D01*
Y289802D01*
X587462Y288321D01*
X593387D01*
X594868Y289802D01*
Y292765D01*
X593387Y294246D01*
X41402Y231899D02*
Y230418D01*
X44364Y227456D01*
X47327Y230418D01*
Y231899D01*
X44364Y227456D02*
Y223012D01*
X50289Y231899D02*
Y224493D01*
X51770Y223012D01*
X54733D01*
X56214Y224493D01*
Y231899D01*
X59176Y223012D02*
X63620D01*
X65101Y224493D01*
X63620Y225974D01*
X60657D01*
X59176Y227456D01*
X60657Y228937D01*
X65101D01*
X72507Y223012D02*
X69545D01*
X68063Y224493D01*
Y227456D01*
X69545Y228937D01*
X72507D01*
X73988Y227456D01*
Y225974D01*
X68063D01*
X76950Y223012D02*
Y228937D01*
X81394D01*
X82875Y227456D01*
Y223012D01*
X91762Y231899D02*
Y223012D01*
X87319D01*
X85838Y224493D01*
Y227456D01*
X87319Y228937D01*
X91762D01*
X45846Y212341D02*
X42883D01*
X41402Y210860D01*
Y204935D01*
X42883Y203454D01*
X45846D01*
X47327Y204935D01*
Y210860D01*
X45846Y212341D01*
X50289D02*
Y203454D01*
X54733D01*
X56214Y204935D01*
Y206416D01*
X54733Y207898D01*
X50289D01*
X54733D01*
X56214Y209379D01*
Y210860D01*
X54733Y212341D01*
X50289D01*
X65101Y210860D02*
X63620Y212341D01*
X60657D01*
X59176Y210860D01*
Y204935D01*
X60657Y203454D01*
X63620D01*
X65101Y204935D01*
X76950Y203454D02*
Y212341D01*
X81394D01*
X82875Y210860D01*
Y207898D01*
X81394Y206416D01*
X76950D01*
X85838Y209379D02*
Y203454D01*
Y206416D01*
X87319Y207898D01*
X88800Y209379D01*
X90281D01*
X96206Y203454D02*
X99168D01*
X100649Y204935D01*
Y207898D01*
X99168Y209379D01*
X96206D01*
X94725Y207898D01*
Y204935D01*
X96206Y203454D01*
X105093Y210860D02*
Y209379D01*
X103612D01*
X106574D01*
X105093D01*
Y204935D01*
X106574Y203454D01*
X112499D02*
X115461D01*
X116943Y204935D01*
Y207898D01*
X115461Y209379D01*
X112499D01*
X111018Y207898D01*
Y204935D01*
X112499Y203454D01*
X121386Y210860D02*
Y209379D01*
X119905D01*
X122867D01*
X121386D01*
Y204935D01*
X122867Y203454D01*
X127311Y209379D02*
Y204935D01*
X128792Y203454D01*
X133236D01*
Y201973D01*
X131754Y200492D01*
X130273D01*
X133236Y203454D02*
Y209379D01*
X136198Y200492D02*
Y209379D01*
X140642D01*
X142123Y207898D01*
Y204935D01*
X140642Y203454D01*
X136198D01*
X149529D02*
X146566D01*
X145085Y204935D01*
Y207898D01*
X146566Y209379D01*
X149529D01*
X151010Y207898D01*
Y206416D01*
X145085D01*
X867200Y421554D02*
X866142Y420496D01*
Y418380D01*
X867200Y417322D01*
X871432D01*
X872490Y418380D01*
Y420496D01*
X871432Y421554D01*
X869316D01*
Y419438D01*
X872490Y423670D02*
X866142D01*
X872490Y427902D01*
X866142D01*
Y430018D02*
X872490D01*
Y433192D01*
X871432Y434250D01*
X867200D01*
X866142Y433192D01*
Y430018D01*
X872490Y472694D02*
Y474810D01*
Y473752D01*
X866142D01*
X867200Y472694D01*
X866142Y477984D02*
X870374D01*
X872490Y480100D01*
X870374Y482216D01*
X866142D01*
X819150Y298448D02*
Y292100D01*
X822324D01*
X823382Y293158D01*
Y294216D01*
X822324Y295274D01*
X819150D01*
X822324D01*
X823382Y296332D01*
Y297390D01*
X822324Y298448D01*
X819150D01*
X825498Y292100D02*
Y298448D01*
X827614Y296332D01*
X829730Y298448D01*
Y292100D01*
X836078Y297390D02*
X835020Y298448D01*
X832904D01*
X831846Y297390D01*
Y296332D01*
X832904Y295274D01*
X835020D01*
X836078Y294216D01*
Y293158D01*
X835020Y292100D01*
X832904D01*
X831846Y293158D01*
X849544Y297390D02*
X848486Y298448D01*
X846370D01*
X845312Y297390D01*
Y293158D01*
X846370Y292100D01*
X848486D01*
X849544Y293158D01*
Y295274D01*
X847428D01*
X851660Y292100D02*
Y298448D01*
X855892Y292100D01*
Y298448D01*
X858008D02*
Y292100D01*
X861182D01*
X862240Y293158D01*
Y297390D01*
X861182Y298448D01*
X858008D01*
X793242Y297390D02*
X794300Y298448D01*
X796416D01*
X797474Y297390D01*
Y296332D01*
X796416Y295274D01*
X795358D01*
X796416D01*
X797474Y294216D01*
Y293158D01*
X796416Y292100D01*
X794300D01*
X793242Y293158D01*
X799590Y298448D02*
Y294216D01*
X801706Y292100D01*
X803822Y294216D01*
Y298448D01*
X805938Y297390D02*
X806996Y298448D01*
X809112D01*
X810170Y297390D01*
Y296332D01*
X809112Y295274D01*
X808054D01*
X809112D01*
X810170Y294216D01*
Y293158D01*
X809112Y292100D01*
X806996D01*
X805938Y293158D01*
X866142Y529208D02*
Y527092D01*
X867200Y526034D01*
X871432D01*
X872490Y527092D01*
Y529208D01*
X871432Y530266D01*
X867200D01*
X866142Y529208D01*
X867200Y536614D02*
X866142Y535556D01*
Y533440D01*
X867200Y532382D01*
X868258D01*
X869316Y533440D01*
Y535556D01*
X870374Y536614D01*
X871432D01*
X872490Y535556D01*
Y533440D01*
X871432Y532382D01*
X867200Y542962D02*
X866142Y541904D01*
Y539788D01*
X867200Y538730D01*
X871432D01*
X872490Y539788D01*
Y541904D01*
X871432Y542962D01*
X867200Y504358D02*
X866142Y503300D01*
Y501184D01*
X867200Y500126D01*
X871432D01*
X872490Y501184D01*
Y503300D01*
X871432Y504358D01*
X869316D01*
Y502242D01*
X872490Y506474D02*
X866142D01*
X872490Y510706D01*
X866142D01*
Y512822D02*
X872490D01*
Y515996D01*
X871432Y517054D01*
X867200D01*
X866142Y515996D01*
Y512822D01*
Y547878D02*
X870374D01*
X872490Y549994D01*
X870374Y552110D01*
X866142D01*
Y554226D02*
X872490D01*
Y557400D01*
X871432Y558458D01*
X867200D01*
X866142Y557400D01*
Y554226D01*
Y560574D02*
X872490D01*
Y563748D01*
X871432Y564806D01*
X867200D01*
X866142Y563748D01*
Y560574D01*
Y566922D02*
X872490D01*
Y570096D01*
X871432Y571154D01*
X870374D01*
X869316Y570096D01*
Y566922D01*
Y570096D01*
X868258Y571154D01*
X867200D01*
X866142Y570096D01*
Y566922D01*
Y573270D02*
X871432D01*
X872490Y574328D01*
Y576444D01*
X871432Y577502D01*
X866142D01*
X670346Y378460D02*
X671827Y376979D01*
Y374016D01*
X670346Y372535D01*
X668865D01*
X667384Y374016D01*
Y375498D01*
Y374016D01*
X665902Y372535D01*
X664421D01*
X662940Y374016D01*
Y376979D01*
X664421Y378460D01*
X671827Y369573D02*
X665902D01*
X662940Y366610D01*
X665902Y363648D01*
X671827D01*
X670346Y360686D02*
X671827Y359205D01*
Y356242D01*
X670346Y354761D01*
X668865D01*
X667384Y356242D01*
Y357723D01*
Y356242D01*
X665902Y354761D01*
X664421D01*
X662940Y356242D01*
Y359205D01*
X664421Y360686D01*
X682752Y340106D02*
Y348993D01*
X688677Y340106D01*
Y348993D01*
X691639D02*
X697564D01*
X694602D01*
Y340106D01*
X700526D02*
Y348993D01*
X704970D01*
X706451Y347512D01*
Y344550D01*
X704970Y343068D01*
X700526D01*
X703489D02*
X706451Y340106D01*
X715338Y347512D02*
X713857Y348993D01*
X710895D01*
X709413Y347512D01*
Y346031D01*
X710895Y344550D01*
X713857D01*
X715338Y343068D01*
Y341587D01*
X713857Y340106D01*
X710895D01*
X709413Y341587D01*
X718300Y348993D02*
X724225D01*
X721263D01*
Y340106D01*
M02*
