%FSLAX44Y44*%
%MOMM*%
G71*
G01*
G75*
G04 Layer_Physical_Order=1*
G04 Layer_Color=255*
%ADD10R,0.7000X0.9000*%
%ADD11R,1.5000X1.3000*%
%ADD12R,2.2000X2.6000*%
%ADD13R,1.2000X1.5000*%
%ADD14R,1.2000X1.4000*%
%ADD15R,1.4000X1.2000*%
%ADD16R,1.1000X1.0000*%
%ADD17R,2.6000X2.2000*%
%ADD18R,0.3500X1.5500*%
%ADD19O,0.3500X1.5500*%
%ADD20R,4.2000X3.1000*%
%ADD21R,0.6000X1.4000*%
%ADD22O,1.0000X0.4000*%
%ADD23R,1.0000X0.4000*%
%ADD24R,1.9000X1.3000*%
%ADD25R,2.8000X1.0000*%
%ADD26R,0.8000X1.0000*%
%ADD27R,1.2000X1.0000*%
%ADD28R,1.2000X0.7000*%
%ADD29O,0.5500X1.5500*%
%ADD30C,0.3500*%
%ADD31R,1.0000X0.3000*%
%ADD32R,1.0500X0.4000*%
%ADD33R,2.5000X0.5000*%
%ADD34R,2.5000X2.0000*%
%ADD35R,1.5000X1.2000*%
%ADD36C,0.1778*%
%ADD37C,0.3048*%
%ADD38C,0.2540*%
%ADD39R,1.5000X1.5000*%
%ADD40C,1.5000*%
%ADD41R,1.5000X1.5000*%
%ADD42C,6.3500*%
%ADD43C,1.3000*%
%ADD44C,0.5080*%
%ADD45C,0.5588*%
D10*
X316992Y404264D02*
D03*
Y391264D02*
D03*
Y423522D02*
D03*
Y436522D02*
D03*
X701802Y313794D02*
D03*
Y326794D02*
D03*
X699770Y535074D02*
D03*
Y522074D02*
D03*
X677418Y535282D02*
D03*
Y548282D02*
D03*
D11*
X432816Y102260D02*
D03*
Y121260D02*
D03*
X300736Y222860D02*
D03*
Y203860D02*
D03*
X382016Y258420D02*
D03*
Y239420D02*
D03*
X437896Y258420D02*
D03*
Y239420D02*
D03*
X529336Y207620D02*
D03*
Y188620D02*
D03*
D12*
X387096Y61360D02*
D03*
Y111360D02*
D03*
X672338Y141840D02*
D03*
Y91840D02*
D03*
D13*
X270500Y786250D02*
D03*
X292500D02*
D03*
X202614Y556252D02*
D03*
X224614D02*
D03*
X202614Y524000D02*
D03*
X224614D02*
D03*
X202614Y700252D02*
D03*
X224614D02*
D03*
X202614Y596252D02*
D03*
X224614D02*
D03*
X202614Y492252D02*
D03*
X224614D02*
D03*
D14*
X712884Y174498D02*
D03*
X732884D02*
D03*
X224442Y81280D02*
D03*
X244442D02*
D03*
X206662Y177292D02*
D03*
X226662D02*
D03*
X224442Y30988D02*
D03*
X244442D02*
D03*
X275176Y223520D02*
D03*
X255176D02*
D03*
D15*
X796798Y683100D02*
D03*
Y663100D02*
D03*
X625348Y569054D02*
D03*
Y549054D02*
D03*
X478536Y142400D02*
D03*
Y162400D02*
D03*
X479298Y193200D02*
D03*
Y213200D02*
D03*
X205740Y141826D02*
D03*
Y121826D02*
D03*
X670306Y484030D02*
D03*
Y504030D02*
D03*
X797814Y779940D02*
D03*
Y799940D02*
D03*
X522224Y122776D02*
D03*
Y102776D02*
D03*
X74930Y451706D02*
D03*
Y431706D02*
D03*
D16*
X304156Y81280D02*
D03*
X287156D02*
D03*
X304156Y55880D02*
D03*
X287156D02*
D03*
X304156Y30480D02*
D03*
X287156D02*
D03*
D17*
X295256Y137160D02*
D03*
X245256D02*
D03*
D18*
X393406Y154130D02*
D03*
D19*
X399906D02*
D03*
X406406D02*
D03*
X412906D02*
D03*
X419406D02*
D03*
X425906D02*
D03*
X432406D02*
D03*
X438906D02*
D03*
X445406D02*
D03*
X451906D02*
D03*
X393406Y211630D02*
D03*
X399906D02*
D03*
X406406D02*
D03*
X412906D02*
D03*
X419406D02*
D03*
X425906D02*
D03*
X432406D02*
D03*
X438906D02*
D03*
X445406D02*
D03*
X451906D02*
D03*
D20*
X422656Y182880D02*
D03*
D21*
X204876Y203860D02*
D03*
X223876D02*
D03*
X214376Y222860D02*
D03*
D22*
X66422Y700252D02*
D03*
Y692252D02*
D03*
Y684252D02*
D03*
Y676252D02*
D03*
Y668252D02*
D03*
Y660252D02*
D03*
Y652252D02*
D03*
Y644252D02*
D03*
Y636252D02*
D03*
Y628252D02*
D03*
Y620252D02*
D03*
Y612252D02*
D03*
Y604252D02*
D03*
Y596252D02*
D03*
Y588252D02*
D03*
Y580252D02*
D03*
Y572252D02*
D03*
Y564252D02*
D03*
Y556252D02*
D03*
Y548252D02*
D03*
Y540252D02*
D03*
Y532252D02*
D03*
Y524252D02*
D03*
Y516252D02*
D03*
Y508252D02*
D03*
Y500252D02*
D03*
Y492252D02*
D03*
X176022Y700252D02*
D03*
Y692252D02*
D03*
Y684252D02*
D03*
Y676252D02*
D03*
Y668252D02*
D03*
Y660252D02*
D03*
Y652252D02*
D03*
Y644252D02*
D03*
Y636252D02*
D03*
Y628252D02*
D03*
Y620252D02*
D03*
Y612252D02*
D03*
Y604252D02*
D03*
Y596252D02*
D03*
Y588252D02*
D03*
Y580252D02*
D03*
Y572252D02*
D03*
Y564252D02*
D03*
Y556252D02*
D03*
Y548252D02*
D03*
Y540252D02*
D03*
Y532252D02*
D03*
Y524252D02*
D03*
Y516252D02*
D03*
Y508252D02*
D03*
Y500252D02*
D03*
D23*
Y492252D02*
D03*
D24*
X190370Y402982D02*
D03*
D25*
X185870Y267982D02*
D03*
D26*
X144370D02*
D03*
D27*
X39370Y379482D02*
D03*
X82370Y267982D02*
D03*
D28*
X39370Y363982D02*
D03*
Y352982D02*
D03*
Y341982D02*
D03*
Y330982D02*
D03*
Y319982D02*
D03*
Y308982D02*
D03*
Y297982D02*
D03*
Y286982D02*
D03*
Y277482D02*
D03*
D29*
X490212Y784472D02*
D03*
X498212D02*
D03*
X474212D02*
D03*
X482212D02*
D03*
X522212D02*
D03*
X530212D02*
D03*
X506212D02*
D03*
X514212D02*
D03*
X434212D02*
D03*
X442212D02*
D03*
X418212D02*
D03*
X426212D02*
D03*
X458212D02*
D03*
X466212D02*
D03*
X450212D02*
D03*
X530212Y672472D02*
D03*
X514212D02*
D03*
X522212D02*
D03*
X498212D02*
D03*
X506212D02*
D03*
X482212D02*
D03*
X490212D02*
D03*
X442212D02*
D03*
X450212D02*
D03*
X426212D02*
D03*
X434212D02*
D03*
X466212D02*
D03*
X474212D02*
D03*
X458212D02*
D03*
X378212Y784472D02*
D03*
X386212D02*
D03*
X362212D02*
D03*
X370212D02*
D03*
X402212D02*
D03*
X410212D02*
D03*
X394212D02*
D03*
X346212D02*
D03*
X354212D02*
D03*
X330212D02*
D03*
X338212D02*
D03*
X322212D02*
D03*
X410212Y672472D02*
D03*
X418212D02*
D03*
X402212D02*
D03*
X386212D02*
D03*
X394212D02*
D03*
X370212D02*
D03*
X378212D02*
D03*
X354212D02*
D03*
X362212D02*
D03*
X338212D02*
D03*
X346212D02*
D03*
X322212D02*
D03*
X330212D02*
D03*
D30*
X504690Y393200D02*
D03*
X496690D02*
D03*
X488690D02*
D03*
X480690D02*
D03*
X472690D02*
D03*
X464690D02*
D03*
X456690D02*
D03*
X448690D02*
D03*
X440690D02*
D03*
X432690D02*
D03*
X424690D02*
D03*
X416690D02*
D03*
X408690D02*
D03*
X400690D02*
D03*
X392690D02*
D03*
X384690D02*
D03*
X376690D02*
D03*
X504690Y401200D02*
D03*
X496690D02*
D03*
X488690D02*
D03*
X480690D02*
D03*
X472690D02*
D03*
X464690D02*
D03*
X456690D02*
D03*
X448690D02*
D03*
X440690D02*
D03*
X432690D02*
D03*
X424690D02*
D03*
X416690D02*
D03*
X408690D02*
D03*
X400690D02*
D03*
X392690D02*
D03*
X384690D02*
D03*
X376690D02*
D03*
X504690Y409200D02*
D03*
X496690D02*
D03*
X488690D02*
D03*
X480690D02*
D03*
X472690D02*
D03*
X464690D02*
D03*
X456690D02*
D03*
X448690D02*
D03*
X440690D02*
D03*
X432690D02*
D03*
X424690D02*
D03*
X416690D02*
D03*
X408690D02*
D03*
X400690D02*
D03*
X392690D02*
D03*
X384690D02*
D03*
X376690D02*
D03*
X504690Y417200D02*
D03*
X496690D02*
D03*
X488690D02*
D03*
X480690D02*
D03*
X472690D02*
D03*
X464690D02*
D03*
X456690D02*
D03*
X448690D02*
D03*
X440690D02*
D03*
X432690D02*
D03*
X424690D02*
D03*
X416690D02*
D03*
X408690D02*
D03*
X400690D02*
D03*
X392690D02*
D03*
X384690D02*
D03*
X376690D02*
D03*
X504690Y425200D02*
D03*
X496690D02*
D03*
X488690D02*
D03*
X480690D02*
D03*
X400690D02*
D03*
X392690D02*
D03*
X384690D02*
D03*
X376690D02*
D03*
X504690Y433200D02*
D03*
X496690D02*
D03*
X488690D02*
D03*
X480690D02*
D03*
X400690D02*
D03*
X392690D02*
D03*
X384690D02*
D03*
X376690D02*
D03*
X504690Y441200D02*
D03*
X496690D02*
D03*
X488690D02*
D03*
X480690D02*
D03*
X400690D02*
D03*
X392690D02*
D03*
X384690D02*
D03*
X376690D02*
D03*
X504690Y449200D02*
D03*
X496690D02*
D03*
X488690D02*
D03*
X480690D02*
D03*
X448690D02*
D03*
X440690D02*
D03*
X432690D02*
D03*
X400690D02*
D03*
X392690D02*
D03*
X384690D02*
D03*
X376690D02*
D03*
X504690Y457200D02*
D03*
X496690D02*
D03*
X488690D02*
D03*
X480690D02*
D03*
X448690D02*
D03*
X440690D02*
D03*
X432690D02*
D03*
X400690D02*
D03*
X392690D02*
D03*
X384690D02*
D03*
X376690D02*
D03*
X504690Y465200D02*
D03*
X496690D02*
D03*
X488690D02*
D03*
X480690D02*
D03*
X448690D02*
D03*
X440690D02*
D03*
X432690D02*
D03*
X400690D02*
D03*
X392690D02*
D03*
X384690D02*
D03*
X376690D02*
D03*
X504690Y473200D02*
D03*
X496690D02*
D03*
X488690D02*
D03*
X480690D02*
D03*
X400690D02*
D03*
X392690D02*
D03*
X384690D02*
D03*
X376690D02*
D03*
X504690Y481200D02*
D03*
X496690D02*
D03*
X488690D02*
D03*
X480690D02*
D03*
X400690D02*
D03*
X392690D02*
D03*
X384690D02*
D03*
X376690D02*
D03*
X504690Y489200D02*
D03*
X496690D02*
D03*
X488690D02*
D03*
X480690D02*
D03*
X400690D02*
D03*
X392690D02*
D03*
X384690D02*
D03*
X376690D02*
D03*
X504690Y497200D02*
D03*
X496690D02*
D03*
X488690D02*
D03*
X480690D02*
D03*
X472690D02*
D03*
X464690D02*
D03*
X456690D02*
D03*
X448690D02*
D03*
X440690D02*
D03*
X432690D02*
D03*
X424690D02*
D03*
X416690D02*
D03*
X408690D02*
D03*
X400690D02*
D03*
X392690D02*
D03*
X384690D02*
D03*
X376690D02*
D03*
X504690Y505200D02*
D03*
X496690D02*
D03*
X488690D02*
D03*
X480690D02*
D03*
X472690D02*
D03*
X464690D02*
D03*
X456690D02*
D03*
X448690D02*
D03*
X440690D02*
D03*
X432690D02*
D03*
X424690D02*
D03*
X416690D02*
D03*
X408690D02*
D03*
X400690D02*
D03*
X392690D02*
D03*
X384690D02*
D03*
X376690D02*
D03*
X504690Y513200D02*
D03*
X496690D02*
D03*
X488690D02*
D03*
X480690D02*
D03*
X472690D02*
D03*
X464690D02*
D03*
X456690D02*
D03*
X448690D02*
D03*
X440690D02*
D03*
X432690D02*
D03*
X424690D02*
D03*
X416690D02*
D03*
X408690D02*
D03*
X400690D02*
D03*
X392690D02*
D03*
X384690D02*
D03*
X376690D02*
D03*
X504690Y521200D02*
D03*
X496690D02*
D03*
X488690D02*
D03*
X480690D02*
D03*
X472690D02*
D03*
X464690D02*
D03*
X456690D02*
D03*
X448690D02*
D03*
X440690D02*
D03*
X432690D02*
D03*
X424690D02*
D03*
X416690D02*
D03*
X408690D02*
D03*
X400690D02*
D03*
X392690D02*
D03*
X384690D02*
D03*
X376690D02*
D03*
D31*
X773160Y778956D02*
D03*
Y773956D02*
D03*
Y768956D02*
D03*
Y763956D02*
D03*
Y758956D02*
D03*
Y753956D02*
D03*
Y748956D02*
D03*
Y743956D02*
D03*
Y738956D02*
D03*
Y733956D02*
D03*
Y728956D02*
D03*
Y723956D02*
D03*
Y718956D02*
D03*
Y713956D02*
D03*
Y708956D02*
D03*
Y703956D02*
D03*
Y698956D02*
D03*
Y693956D02*
D03*
Y688956D02*
D03*
Y683956D02*
D03*
Y678956D02*
D03*
Y673956D02*
D03*
Y668956D02*
D03*
Y663956D02*
D03*
X579160Y778956D02*
D03*
Y773956D02*
D03*
Y768956D02*
D03*
Y763956D02*
D03*
Y758956D02*
D03*
Y753956D02*
D03*
Y748956D02*
D03*
Y743956D02*
D03*
Y738956D02*
D03*
Y733956D02*
D03*
Y728956D02*
D03*
Y723956D02*
D03*
Y718956D02*
D03*
Y713956D02*
D03*
Y708956D02*
D03*
Y703956D02*
D03*
Y698956D02*
D03*
Y693956D02*
D03*
Y688956D02*
D03*
Y683956D02*
D03*
Y678956D02*
D03*
Y673956D02*
D03*
Y668956D02*
D03*
Y663956D02*
D03*
D32*
X731478Y212806D02*
D03*
Y225806D02*
D03*
Y219306D02*
D03*
X712978D02*
D03*
Y225806D02*
D03*
Y212806D02*
D03*
D33*
X798592Y166624D02*
D03*
Y174624D02*
D03*
Y182624D02*
D03*
Y190624D02*
D03*
Y198624D02*
D03*
D34*
X800592Y138124D02*
D03*
Y227124D02*
D03*
X855592D02*
D03*
Y138124D02*
D03*
D35*
X751586Y132158D02*
D03*
Y110158D02*
D03*
X30734Y532208D02*
D03*
Y510208D02*
D03*
Y580312D02*
D03*
Y602312D02*
D03*
X813308Y751410D02*
D03*
Y729410D02*
D03*
X556260Y712392D02*
D03*
Y734392D02*
D03*
D36*
X591747Y413750D02*
X602996Y402501D01*
X493240Y413750D02*
X591747D01*
X488690Y409200D02*
X493240Y413750D01*
X415166Y599186D02*
X416520Y600540D01*
X391519Y625780D02*
X391592D01*
X391922Y626110D01*
X416520Y600529D02*
Y600540D01*
X424521Y606030D02*
X424928D01*
X424942Y606044D01*
X426323Y612791D02*
X428117Y610997D01*
Y610702D02*
Y610997D01*
Y610702D02*
X429451Y609368D01*
Y563563D02*
Y609368D01*
X346212Y755000D02*
Y784472D01*
X338212Y755000D02*
Y784472D01*
X378212Y755000D02*
Y784472D01*
X370212Y755000D02*
Y784472D01*
X330212Y755000D02*
Y784472D01*
X362212Y755000D02*
Y784472D01*
X354212Y755000D02*
Y784472D01*
X596265Y713326D02*
Y713537D01*
X595846Y713956D02*
X596265Y713537D01*
X522678Y753191D02*
X527509Y758021D01*
X519514Y753191D02*
X522678D01*
X518607Y744809D02*
X545813D01*
X519869Y741761D02*
X547076D01*
X504024Y725915D02*
X519869Y741761D01*
X526246Y762127D02*
X531619Y767500D01*
X524127Y762127D02*
X526246D01*
X502691Y740691D02*
X524127Y762127D01*
X531930Y763500D02*
X561456D01*
X527509Y759079D02*
X531930Y763500D01*
X527509Y758021D02*
Y759079D01*
X437388Y605536D02*
X466852D01*
X504690Y425200D02*
X507488Y422402D01*
X319024Y706374D02*
X355600D01*
X314198Y710438D02*
X350012D01*
X354212Y633594D02*
Y669036D01*
X88011Y393192D02*
X128778Y352425D01*
X164846D01*
X68326Y393192D02*
X88011D01*
X505198Y441708D02*
X570230Y441706D01*
X494030Y338582D02*
Y345440D01*
X475996Y320548D02*
X494030Y338582D01*
X475996Y295910D02*
Y320548D01*
X676656Y468122D02*
X680212D01*
X670306Y474472D02*
X676656Y468122D01*
X325882Y404264D02*
X340764D01*
X316992D02*
X325882D01*
X387350Y374904D02*
X392690Y380244D01*
X340764Y404264D02*
X342900Y406400D01*
X325882Y423522D02*
X375012D01*
X316992D02*
X325882D01*
X375012D02*
X376690Y425200D01*
X644839Y490915D02*
X644906Y490982D01*
X627193Y485267D02*
X628650Y486724D01*
X546354Y485267D02*
X627193D01*
X589349Y524002D02*
X592328D01*
X596011Y527685D01*
X561848Y496501D02*
X589349Y524002D01*
X573278Y556006D02*
X588010Y541274D01*
X573278Y556006D02*
Y586486D01*
X588010Y533908D02*
Y541274D01*
X649074Y538988D02*
X658368Y548282D01*
X612902Y538988D02*
X649074D01*
X601599Y527685D02*
X612902Y538988D01*
X596011Y527685D02*
X601599D01*
X625348Y569054D02*
X716882D01*
X763270Y615442D01*
X611378Y588010D02*
X728218D01*
X608076Y547624D02*
Y584708D01*
X596900Y536448D02*
X608076Y547624D01*
Y584708D02*
X611378Y588010D01*
X697484Y461264D02*
X700786Y464566D01*
X717804D01*
X674624Y461264D02*
X697484D01*
X670306Y474472D02*
Y484030D01*
X627634Y461264D02*
X628650Y460248D01*
X500754Y461264D02*
X627634D01*
X480817Y481200D02*
X484817Y485200D01*
X480690Y481200D02*
X480817D01*
X510918D02*
X512188Y482470D01*
X504690Y481200D02*
X510918D01*
X542671Y488950D02*
X546354Y485267D01*
X507806Y485200D02*
X511556Y488950D01*
X542671D01*
X500690Y485200D02*
X507806D01*
X547878Y489200D02*
X560320D01*
X544826Y492252D02*
X547878Y489200D01*
X507742Y492252D02*
X544826D01*
X504690Y489200D02*
X507742Y492252D01*
X505323Y472567D02*
X645287D01*
X504690Y473200D02*
X505323Y472567D01*
X647446Y482219D02*
X677037Y452628D01*
X525145Y482219D02*
X647446D01*
X677037Y452628D02*
X710438D01*
X693674Y424180D02*
X729234D01*
X786384Y693514D02*
X796798Y683100D01*
X786384Y693514D02*
Y693956D01*
X813816Y647954D02*
Y691746D01*
X706120Y647954D02*
X813816D01*
X666242Y608076D02*
X706120Y647954D01*
X474153Y438977D02*
X475742Y437388D01*
X474153Y438977D02*
Y450335D01*
X470154Y454333D02*
X474153Y450335D01*
X470154Y454333D02*
Y474472D01*
X472973Y477291D01*
X467106Y453071D02*
X471105Y449072D01*
Y433643D02*
Y449072D01*
X467106Y453071D02*
Y476504D01*
X472973Y477291D02*
X482309D01*
X486218Y481200D01*
X488690D01*
Y481200D02*
Y481324D01*
X801606Y703956D02*
X813816Y691746D01*
X772160Y703956D02*
X801606D01*
X772160Y693956D02*
X786384D01*
X735104D02*
X772160D01*
X452628Y565150D02*
X467614Y580136D01*
X452628Y517138D02*
Y565150D01*
X599059Y465201D02*
X636651D01*
X558546Y601218D02*
X573278Y586486D01*
X532638Y601218D02*
X558546D01*
X495300Y608076D02*
X666242D01*
X492760Y605536D02*
X495300Y608076D01*
X496690Y574548D02*
X498722Y576580D01*
X496690Y521200D02*
Y574548D01*
X165100Y476758D02*
X249682D01*
X448690Y350138D02*
Y393200D01*
X441960Y343408D02*
X448690Y350138D01*
X441960Y308610D02*
Y343408D01*
X442976Y355346D02*
X444754Y357124D01*
X467106Y476504D02*
X475996Y485394D01*
X470662Y433200D02*
X471105Y433643D01*
X400690Y433200D02*
X470662D01*
X397896Y371094D02*
X400690Y373888D01*
X588010Y889000D02*
X603250Y873760D01*
X602996Y396748D02*
Y402501D01*
X503682Y302006D02*
Y351212D01*
X500599Y354295D02*
X503682Y351212D01*
X480690Y358780D02*
X494030Y345440D01*
X403860Y357124D02*
X408690Y361954D01*
X404622Y370840D02*
Y397268D01*
X398018Y364236D02*
X404622Y370840D01*
X398018Y340360D02*
Y364236D01*
X461010Y295910D02*
Y305562D01*
X451485Y315087D02*
X461010Y305562D01*
X451485Y315087D02*
Y339810D01*
X456690Y345015D01*
X460756Y325628D02*
Y397134D01*
X504690Y465200D02*
X598804D01*
X447294Y342392D02*
X452628Y347726D01*
Y397262D01*
X565784Y445516D02*
X569468Y449200D01*
X549487Y445516D02*
X565784D01*
X533400Y579374D02*
Y591312D01*
Y579374D02*
X546608Y566166D01*
Y518414D02*
Y566166D01*
X538988Y457200D02*
X541020Y455168D01*
X504690Y457200D02*
X538988D01*
X544534Y450469D02*
X549487Y445516D01*
X468781Y363982D02*
X488847Y343916D01*
X492760Y517270D02*
Y605536D01*
X460756Y552704D02*
X465582Y557530D01*
X464820D02*
X465582D01*
X456690Y561846D02*
X471805Y576961D01*
X456690Y521200D02*
Y561846D01*
X460756Y517266D02*
Y552704D01*
X549526Y433200D02*
X551434Y431292D01*
X504690Y433200D02*
X549526D01*
X500599Y429109D02*
X544068D01*
X546584Y426593D01*
X507488Y422402D02*
X558038D01*
X504690Y417200D02*
X585348D01*
X590550Y422402D01*
X575056Y456946D02*
X575107Y456895D01*
X564642Y456946D02*
X575056D01*
X575107Y437291D02*
Y456895D01*
X500781Y437291D02*
X575107D01*
X496690Y425200D02*
X500599Y429109D01*
X396599Y378460D02*
Y397291D01*
X392690Y380244D02*
Y393200D01*
X480690Y358780D02*
Y393200D01*
X500599Y354295D02*
Y394819D01*
X551180Y513200D02*
X557530Y519550D01*
X613410Y863600D02*
X628650Y848360D01*
X326136Y516252D02*
X333279Y509109D01*
X306578Y516252D02*
X326136D01*
X333279Y509109D02*
X378942D01*
X281010Y569214D02*
X337024Y513200D01*
X280924Y569214D02*
X281010D01*
X512233Y714502D02*
X527779Y698956D01*
X442722Y714502D02*
X512233D01*
X434212Y705992D02*
X442722Y714502D01*
X434212Y691896D02*
Y705992D01*
X442212Y704086D02*
X447548Y709422D01*
X442212Y691896D02*
Y704086D01*
X511330Y709422D02*
X526796Y693956D01*
X447548Y709422D02*
X511330D01*
X378212Y662680D02*
X405384Y635508D01*
X378212Y662680D02*
Y672472D01*
X506626Y617982D02*
X659280D01*
X761816Y738956D02*
X788924D01*
X648970Y626110D02*
X761816Y738956D01*
X506222Y626110D02*
X648970D01*
X471805Y576961D02*
Y622046D01*
X346964Y715010D02*
X354212Y722258D01*
X312420Y715010D02*
X346964D01*
X291846Y694436D02*
X312420Y715010D01*
X297688Y693928D02*
X314198Y710438D01*
X297688Y600202D02*
Y693928D01*
X371125Y567405D02*
X388620Y549910D01*
X315245Y567405D02*
X371125D01*
X263398Y619252D02*
X315245Y567405D01*
X308910Y562550D02*
X368931D01*
X384690Y546791D01*
X260336Y611124D02*
X308910Y562550D01*
X370078Y551434D02*
X380781Y540731D01*
Y519581D02*
Y540731D01*
X302768Y690118D02*
X319024Y706374D01*
X302768Y610362D02*
Y690118D01*
Y610362D02*
X336550Y576580D01*
X368554D01*
X432690Y513200D02*
X436690Y509200D01*
X434848Y523358D02*
Y558166D01*
X432690Y521200D02*
X434848Y523358D01*
X442212Y672472D02*
Y691896D01*
X434212Y672472D02*
Y691896D01*
X410212Y672472D02*
Y691896D01*
X402212Y672472D02*
Y691896D01*
X394212Y672472D02*
Y691896D01*
X338212Y641742D02*
Y672472D01*
X386212D02*
Y691896D01*
X362212Y672472D02*
Y691896D01*
X402212Y755000D02*
Y784472D01*
X394212Y755000D02*
Y784472D01*
X386212Y755000D02*
Y784472D01*
X439420Y522470D02*
X440690Y521200D01*
X439420Y522470D02*
Y554990D01*
X496690Y457200D02*
X500754Y461264D01*
X259207Y599567D02*
X341731Y517043D01*
X52578Y692252D02*
X66422D01*
X52578Y684252D02*
X66422D01*
X52578Y676252D02*
X66422D01*
X52578Y668252D02*
X66422D01*
X52578Y660252D02*
X66422D01*
X52578Y652252D02*
X66422D01*
X52578Y644252D02*
X66422D01*
X52578Y636252D02*
X66422D01*
X255270Y499364D02*
X258318Y496316D01*
X176022Y628252D02*
X188722D01*
X176022Y620252D02*
X188722D01*
X176022Y612252D02*
X188722D01*
X384690Y521200D02*
Y546791D01*
X396781Y517109D02*
Y555973D01*
X176022Y684252D02*
X188722D01*
X176022Y676252D02*
X188722D01*
X176022Y668252D02*
X188722D01*
X176022Y660252D02*
X188722D01*
X176022Y652252D02*
X291572D01*
X176022Y644252D02*
X274974D01*
X388690Y509200D02*
X392690Y505200D01*
X383162Y509200D02*
X388690D01*
X380599Y511763D02*
Y514819D01*
X378309Y517109D02*
X380599Y514819D01*
X375071Y517109D02*
X378309D01*
X375005Y517043D02*
X375071Y517109D01*
X341731Y517043D02*
X375005D01*
X380599Y511763D02*
X383162Y509200D01*
X337446Y513200D02*
X376690D01*
X396690Y501200D02*
X400690Y497200D01*
X388620Y517270D02*
X392690Y513200D01*
X382851Y505200D02*
X384690D01*
X378942Y509109D02*
X382851Y505200D01*
X392690Y521200D02*
Y552444D01*
X396781Y517109D02*
X400690Y513200D01*
X396690Y509200D02*
X400690Y505200D01*
X404781Y517109D02*
X408690Y513200D01*
X404781Y517109D02*
Y574548D01*
X404690Y509200D02*
X408690Y505200D01*
X412781Y517109D02*
X416690Y513200D01*
X416690Y505200D02*
X416690D01*
X424690D02*
X424690D01*
X420690Y509200D02*
X424690Y505200D01*
X424690Y497200D02*
X424690D01*
X420690Y501200D02*
X424690Y497200D01*
X428690Y509200D02*
X432690Y505200D01*
X318014D02*
X376690D01*
X296926Y497200D02*
X376690D01*
X388690Y501200D02*
X392690Y497200D01*
X380622Y493268D02*
X384690Y489200D01*
X392690D02*
Y489200D01*
X388690Y493200D02*
X392690Y489200D01*
X400690Y489200D02*
Y489200D01*
X396690Y493200D02*
X400690Y489200D01*
X380750Y485140D02*
X384690Y481200D01*
X392690D02*
Y481200D01*
X388690Y485200D02*
X392690Y481200D01*
X380624Y477266D02*
X384690Y473200D01*
X380626Y461264D02*
X384690Y457200D01*
X388690Y477200D02*
X392690Y473200D01*
X388690Y469200D02*
X392690Y465200D01*
X400690D02*
Y465200D01*
X396690Y469200D02*
X400690Y465200D01*
Y457200D02*
Y457200D01*
X396690Y461200D02*
X400690Y457200D01*
X504690Y513200D02*
X551180D01*
X496690D02*
Y515672D01*
X500599Y519581D01*
Y567944D01*
X488690Y513200D02*
X492760Y517270D01*
X480690Y513200D02*
X484632Y517142D01*
Y551688D01*
X472690Y513200D02*
X476758Y517268D01*
X456690Y513200D02*
X460756Y517266D01*
X448690Y513200D02*
X452628Y517138D01*
X440690Y513200D02*
X444754Y517264D01*
X480690Y505200D02*
X480690D01*
X464690D02*
X464690D01*
X456690D02*
X456690D01*
X460690Y509200D01*
X448690Y505200D02*
X448690D01*
X452690Y509200D01*
X440690Y505200D02*
X440690D01*
X444690Y509200D01*
X396690Y413200D02*
X400690Y417200D01*
X392690Y401200D02*
X396599Y397291D01*
X400690Y373888D02*
Y393200D01*
Y401200D02*
X404622Y397268D01*
X408690Y361954D02*
Y393200D01*
Y401200D02*
X412750Y397140D01*
X408690Y409200D02*
X412690Y405200D01*
X408690Y417200D02*
X408690D01*
X412690Y413200D01*
X388690Y421200D02*
X392690Y425200D01*
X380754Y453136D02*
X384690Y449200D01*
X388690Y453200D02*
X392690Y449200D01*
X396690Y453200D02*
X400690Y449200D01*
Y433200D02*
Y433200D01*
X396690Y429200D02*
X400690Y433200D01*
X388690Y445200D02*
X392690Y441200D01*
X396690Y421200D02*
X400690Y425200D01*
X416690Y354841D02*
Y393200D01*
Y401200D02*
X420624Y397266D01*
Y324612D02*
Y397266D01*
X416690Y409200D02*
X416690D01*
X416690Y417200D02*
X420690Y413200D01*
X424690Y417200D02*
X424690D01*
X428690Y413200D01*
X432690Y409200D02*
X432690D01*
X436690Y405200D01*
X440690Y401200D02*
X444754Y397136D01*
Y357124D02*
Y397136D01*
X448690Y401200D02*
X452628Y397262D01*
X448690Y409200D02*
X448690D01*
X452690Y405200D01*
X496690Y398728D02*
Y401200D01*
Y398728D02*
X500599Y394819D01*
X480690Y417200D02*
X484690Y413200D01*
X472690Y409200D02*
X472690D01*
X472690Y417200D02*
X472690D01*
X456690Y345015D02*
Y393200D01*
Y417200D02*
X460690Y413200D01*
X456690Y401200D02*
X460756Y397134D01*
X456690Y409200D02*
X456690D01*
X460690Y405200D01*
X464690Y417200D02*
X468690Y413200D01*
X464690Y401200D02*
X468781Y397109D01*
Y363982D02*
Y397109D01*
X464690Y409200D02*
X468690Y405200D01*
X480690Y409200D02*
X480690D01*
X472690D02*
X476690Y405200D01*
X472690Y417200D02*
X476690Y413200D01*
X496690Y481200D02*
X500690Y485200D01*
X480690Y481200D02*
Y481200D01*
X496690Y473200D02*
X500756Y477266D01*
X496690Y465200D02*
X500628Y469138D01*
X488690Y465200D02*
X492690Y469200D01*
X488690Y417200D02*
Y417200D01*
Y425200D02*
X492690Y429200D01*
X480690Y425200D02*
X484690Y429200D01*
X496690Y433200D02*
X500781Y437291D01*
X488690Y433200D02*
X492690Y437200D01*
X480690Y433200D02*
Y433200D01*
X484690Y437200D01*
X496690Y441200D02*
X500690Y445200D01*
X488690Y441200D02*
Y441200D01*
X492690Y445200D01*
X480690Y441200D02*
Y441200D01*
X484690Y445200D01*
X480690Y457200D02*
X484690Y461200D01*
X488690Y457200D02*
Y457200D01*
X492690Y461200D01*
X488690Y449200D02*
X492690Y453200D01*
X480690Y449200D02*
Y449200D01*
X484690Y453200D01*
X52578Y500252D02*
X66422D01*
X52578Y516252D02*
X66422D01*
X52578Y524252D02*
X66422D01*
X52578Y540252D02*
X66422D01*
X52578Y548252D02*
X66422D01*
X52578Y564252D02*
X66422D01*
X52578Y572252D02*
X66422D01*
X380752Y469138D02*
X384690Y465200D01*
X176022Y500252D02*
X190500D01*
X176022Y516252D02*
X190500D01*
X176022Y524252D02*
X190500D01*
X176022Y540252D02*
X190500D01*
X176022Y548252D02*
X190500D01*
X289310Y524252D02*
X312453Y501109D01*
X261360Y540252D02*
X298470Y503193D01*
X52578Y588252D02*
X66422D01*
X52578Y612252D02*
X66422D01*
X52578Y620252D02*
X66422D01*
X52578Y628252D02*
X66422D01*
X278384Y501650D02*
X292476D01*
X296926Y497200D01*
X294386Y493268D02*
X380622D01*
X291338Y496316D02*
X294386Y493268D01*
X258318Y496316D02*
X291338D01*
X159268Y572252D02*
X176022D01*
X155702Y568686D02*
X159268Y572252D01*
X155702Y486156D02*
Y568686D01*
X157214Y588252D02*
X176022D01*
X380781Y519581D02*
X384690Y515672D01*
Y513200D02*
Y515672D01*
X388620Y517270D02*
Y549910D01*
X400690Y521200D02*
Y569976D01*
X308610Y620014D02*
X345372Y583252D01*
X369502D02*
X396781Y555973D01*
X345372Y583252D02*
X369502D01*
X321310Y624840D02*
X356763Y589387D01*
X372257D01*
X390144Y571500D01*
X366075Y595315D02*
X375351D01*
X400690Y569976D01*
X408690Y521200D02*
Y580640D01*
X384810Y604520D02*
X408690Y580640D01*
X412781Y517109D02*
Y584169D01*
X387350Y609600D02*
X412781Y584169D01*
X175140Y564252D02*
X176022D01*
X778256Y698956D02*
X788924Y698956D01*
X778256Y743956D02*
X793242D01*
X778256Y748956D02*
X788924D01*
X476758Y517268D02*
Y617982D01*
X437388Y572388D02*
X448690Y561086D01*
Y521200D02*
Y561086D01*
X39370Y319982D02*
X52578D01*
X429451Y563563D02*
X434848Y558166D01*
X444754Y517264D02*
Y559308D01*
X432816Y571246D02*
X444754Y559308D01*
X432816Y571246D02*
Y612648D01*
X340614Y557276D02*
X376690Y521200D01*
X368554Y576580D02*
X392690Y552444D01*
X498212Y672472D02*
Y691896D01*
X482212Y672472D02*
Y691896D01*
X474212Y672472D02*
Y691896D01*
X466212Y672472D02*
Y691896D01*
X410212Y755000D02*
Y784472D01*
X442212Y755000D02*
Y784472D01*
X458212Y755000D02*
Y784472D01*
X474212Y755000D02*
Y784472D01*
X482212Y754750D02*
Y784472D01*
X490212Y755000D02*
Y784472D01*
X498212Y755000D02*
Y784472D01*
X506212Y652770D02*
Y672472D01*
X365760Y648716D02*
X370212Y653168D01*
Y672472D01*
X346710Y614680D02*
X366075Y595315D01*
X387350Y609600D02*
Y613918D01*
X392805Y619373D01*
X321310Y624840D02*
X338212Y641742D01*
X437388Y572388D02*
Y605536D01*
X354212Y633594D02*
X357378Y630428D01*
X420599Y517291D02*
X424690Y513200D01*
X482600Y587502D02*
Y631190D01*
X659280Y617982D02*
X735104Y693806D01*
Y693956D01*
X420878Y635508D02*
X470916D01*
X372364Y635254D02*
X392430D01*
X414893Y612791D01*
X426323D01*
X405384Y635508D02*
X420370D01*
X504690Y521200D02*
X513080Y529590D01*
Y593344D01*
X490857Y637415D02*
X506212Y652770D01*
X480189Y637415D02*
X490857D01*
X488690Y521200D02*
Y616452D01*
X462788Y656336D02*
X478028Y641096D01*
X505714Y633547D02*
Y641096D01*
X488690Y616452D02*
X505749Y633511D01*
X580160Y713956D02*
X595846D01*
X379222Y626110D02*
X391922D01*
X149606Y473456D02*
X252984D01*
X265176Y485648D01*
X255270Y499364D02*
Y533400D01*
X508616Y704342D02*
X524002Y688956D01*
X454152Y704342D02*
X508616D01*
X450212Y672472D02*
Y691896D01*
Y700402D02*
X454152Y704342D01*
X450212Y691896D02*
Y700402D01*
X249682Y476758D02*
X255778Y482854D01*
X155702Y486156D02*
X165100Y476758D01*
X506730Y699262D02*
X522036Y683956D01*
X458212Y699262D02*
X506730D01*
X458212Y691896D02*
Y699262D01*
Y672472D02*
Y691896D01*
X142494Y467868D02*
X239522D01*
X176022Y692252D02*
X188722D01*
X291846Y642589D02*
Y694436D01*
X274974Y644252D02*
X283972Y635254D01*
X410212Y691896D02*
Y709548D01*
X427864Y727200D01*
X402212Y691896D02*
Y710184D01*
X425456Y733428D01*
X394212Y691896D02*
Y714248D01*
X420124Y740160D01*
X386212Y691896D02*
Y718820D01*
X414782Y747390D01*
X482600Y553720D02*
X484632Y551688D01*
X482600Y553720D02*
Y564642D01*
X500599Y567944D02*
X505968Y573313D01*
X504690Y401200D02*
X575952D01*
X583692Y408940D01*
X496690Y409200D02*
X500781Y405109D01*
Y399581D02*
Y405109D01*
Y399581D02*
X503071Y397291D01*
X508599D01*
X540130Y365760D01*
X85852Y478432D02*
Y568960D01*
X130810Y394716D02*
X160528Y364998D01*
X407289Y352552D02*
X412750Y358013D01*
Y397140D01*
X392938Y346710D02*
Y374799D01*
X396599Y378460D01*
X407289Y340741D02*
Y352552D01*
X403098Y336550D02*
X407289Y340741D01*
X379730Y336550D02*
X403098D01*
X372618Y343662D02*
X379730Y336550D01*
X372618Y343662D02*
Y347218D01*
X386588Y340360D02*
X398018D01*
X414274Y352425D02*
X416690Y354841D01*
X136398Y473964D02*
X142494Y467868D01*
X136398Y473964D02*
Y567436D01*
X157214Y588252D01*
X499103Y318255D02*
Y346209D01*
X488690Y356622D02*
Y393200D01*
Y356622D02*
X499103Y346209D01*
X540130Y365760D02*
X553720D01*
X255270Y533400D02*
Y548894D01*
X424053Y622681D02*
X431419Y630047D01*
X472821D02*
X480189Y637415D01*
X431419Y630047D02*
X472821D01*
X416690Y521200D02*
Y588010D01*
X415166Y589534D02*
X416690Y588010D01*
X415166Y589534D02*
Y599186D01*
X505968Y573313D02*
Y589788D01*
X614934Y651764D02*
Y690118D01*
X607568Y697484D02*
X614934Y690118D01*
X607568Y697484D02*
Y735838D01*
X614934Y743204D01*
X636651Y465201D02*
X639572Y462280D01*
X509134Y453644D02*
X536067D01*
X504690Y449200D02*
X509134Y453644D01*
X539242Y450469D02*
X544534D01*
X536067Y453644D02*
X539242Y450469D01*
X506537Y444881D02*
X541401D01*
X542798Y446278D01*
X500690Y445200D02*
X506218D01*
X506537Y444881D01*
X628650Y815086D02*
Y848360D01*
Y815086D02*
X630936Y812800D01*
X731478Y225806D02*
X759204D01*
X681736Y212806D02*
X712978D01*
X681736Y225806D02*
X712978D01*
X472690Y489200D02*
Y497200D01*
X461772Y455507D02*
Y478282D01*
X472690Y489200D01*
Y502728D02*
Y505200D01*
X468781Y498819D02*
X472690Y502728D01*
X468781Y490879D02*
Y498819D01*
X452882Y474980D02*
X468781Y490879D01*
X458851Y445135D02*
X462026Y441960D01*
X458851Y452586D02*
X461772Y455507D01*
X458851Y445135D02*
Y452586D01*
X452882Y441960D02*
Y474980D01*
X661162Y225806D02*
X681736D01*
X288548Y489200D02*
X376690D01*
X287528Y490220D02*
X288548Y489200D01*
X271018Y490220D02*
X287528D01*
X311150Y461518D02*
X318770Y469138D01*
X338836Y477266D02*
X380624D01*
X336166Y481200D02*
X376690D01*
X305054Y480060D02*
X309626Y475488D01*
X316230Y485648D02*
X322834Y479044D01*
X265176Y485648D02*
X316230D01*
X333756Y485140D02*
X380750D01*
X500756Y477266D02*
X520192D01*
X428498Y525008D02*
Y552958D01*
X424690Y521200D02*
X428498Y525008D01*
X412690Y501200D02*
X416690Y505200D01*
Y505200D01*
X490212Y672472D02*
Y691896D01*
X404690Y493200D02*
X408690Y497200D01*
Y497200D01*
X522036Y683956D02*
X580160D01*
X527779Y698956D02*
X580160D01*
X526796Y693956D02*
X580160D01*
X346212Y658368D02*
Y672472D01*
Y658368D02*
X349250Y655330D01*
Y630079D02*
X404781Y574548D01*
X349250Y630079D02*
Y655330D01*
X524002Y688956D02*
X580160D01*
X365760Y629666D02*
Y648716D01*
X380781Y501109D02*
X384690Y497200D01*
X312453Y501109D02*
X380781D01*
X429006Y359156D02*
Y389516D01*
X432690Y393200D01*
X482854Y295910D02*
Y302006D01*
X499103Y318255D01*
X469519Y295910D02*
Y357375D01*
X464690Y362204D02*
Y393200D01*
Y362204D02*
X469519Y357375D01*
X500628Y469138D02*
X642874D01*
X681482Y430530D01*
Y421386D02*
Y430530D01*
Y421386D02*
X712216Y390652D01*
X645287Y472567D02*
X693674Y424180D01*
X742188Y434340D02*
X749046Y441198D01*
X774700D01*
X775208Y441706D01*
Y496062D01*
X786384Y507238D01*
X763270Y615442D02*
X804418D01*
X505457Y497967D02*
X554118D01*
X555584Y496501D01*
X520192Y477266D02*
X525145Y482219D01*
X555584Y496501D02*
X561848D01*
X560320Y489200D02*
X579374Y508254D01*
X580891D01*
X698604Y523240D02*
X699770Y522074D01*
X580891Y508254D02*
X595877Y523240D01*
X698604D01*
X677418Y548282D02*
X733552D01*
X784100Y182624D02*
X799592D01*
X759204Y207520D02*
X784100Y182624D01*
X759204Y207520D02*
Y225806D01*
X658368Y548282D02*
X677418D01*
X176022Y564252D02*
X185792D01*
X189230Y567690D01*
X236474D01*
X255270Y548894D01*
X200678Y636252D02*
X217678Y619252D01*
X263398D01*
X148818Y636252D02*
X200678D01*
X176022Y604252D02*
X190740D01*
X197612Y611124D01*
X260336D01*
X330212Y672472D02*
Y691896D01*
X322834Y479044D02*
X327660D01*
X333756Y485140D01*
X330454Y475488D02*
X336166Y481200D01*
X309626Y475488D02*
X330454D01*
X301244Y472440D02*
X334010D01*
X338836Y477266D01*
X340360Y473456D02*
X364490D01*
X336042Y469138D02*
X340360Y473456D01*
X318770Y469138D02*
X336042D01*
X368808D02*
X380752D01*
X364490Y473456D02*
X368808Y469138D01*
X343154Y469646D02*
X362330D01*
X324104Y462788D02*
X336296D01*
X343154Y469646D01*
X366776Y465200D02*
X376690D01*
X362330Y469646D02*
X366776Y465200D01*
X380690Y445200D02*
X384690Y441200D01*
X380628Y445262D02*
X380690Y445200D01*
X363474Y442976D02*
X373634Y453136D01*
X380754D01*
X370840Y457200D02*
X376690D01*
X368046Y461264D02*
X380626D01*
X365890Y406400D02*
X376690Y417200D01*
X342900Y406400D02*
X365890D01*
X335534Y362712D02*
Y383286D01*
Y362712D02*
X345948Y352298D01*
X374650D01*
X386588Y340360D01*
X372182Y445200D02*
X372690D01*
X376690Y449200D01*
X353568Y442976D02*
X363474D01*
X359410Y448310D02*
X361950D01*
X370840Y457200D01*
X360426Y453644D02*
X368046Y461264D01*
X349504Y453644D02*
X360426D01*
X347726Y455422D02*
X349504Y453644D01*
X347726Y455422D02*
Y459232D01*
X27432Y363982D02*
X39370D01*
X27432Y352982D02*
X39370D01*
X39370Y352982D01*
X21746Y341982D02*
X39370D01*
X21746D02*
Y392586D01*
X60866Y431706D01*
X74930D01*
X85852Y478432D02*
X114173Y450111D01*
Y417068D02*
Y450111D01*
X75024Y431800D02*
X105918D01*
X74930Y431706D02*
X75024Y431800D01*
X39370Y297982D02*
X50292D01*
X39370Y297982D02*
X39370Y297982D01*
X39370Y286982D02*
X50292D01*
X39370Y286982D02*
X39370Y286982D01*
X760604Y174624D02*
X799592D01*
X731478Y203750D02*
X760604Y174624D01*
X731478Y203750D02*
Y212806D01*
X584516Y494092D02*
X641662D01*
X644839Y490915D01*
X644906Y490982D02*
X674624Y461264D01*
X239522Y467868D02*
X296672D01*
X301244Y472440D01*
X315722Y507492D02*
X318014Y505200D01*
X728218Y588010D02*
X763270Y623062D01*
X804418D01*
X504690Y497200D02*
X505457Y497967D01*
X546584Y426593D02*
X571627D01*
X584200Y439166D01*
X719930Y504030D02*
X733552Y517652D01*
X670306Y504030D02*
X719930D01*
X699770Y522074D02*
X729234D01*
X733552Y526392D01*
X148818Y474244D02*
X149606Y473456D01*
X148818Y474244D02*
Y552958D01*
X488690Y417200D02*
X492690Y421200D01*
X114173Y417068D02*
X130810Y400431D01*
Y394716D02*
Y400431D01*
X437642Y306070D02*
Y390152D01*
X440690Y393200D01*
X437642Y306070D02*
X447802Y295910D01*
X441960Y308610D02*
X454660Y295910D01*
X420599Y517291D02*
Y587477D01*
X424942Y591820D01*
Y606044D01*
X772160Y753956D02*
X791718D01*
X797814Y760052D01*
Y779940D01*
X603250Y825750D02*
Y873760D01*
Y825750D02*
X608326Y820674D01*
X617728D01*
X572412Y741761D02*
X573266Y742615D01*
X578819D01*
X580160Y743956D01*
X565444Y741761D02*
X572412D01*
X573266Y747615D02*
X578819D01*
X580160Y748956D01*
X570460Y744809D02*
X573266Y747615D01*
X547076Y741761D02*
X547866Y742551D01*
X564654D01*
X565444Y741761D01*
X545813Y744809D02*
X546603Y745599D01*
X565917D01*
X566707Y744809D01*
X570460D01*
X571000Y753956D02*
X580160D01*
X561456Y763500D02*
X571000Y753956D01*
X531619Y767500D02*
X562250D01*
X570794Y758956D01*
X580160D01*
X494309Y737514D02*
X496764Y735059D01*
X425456Y733428D02*
X489774D01*
X494239Y728963D01*
X427864Y727200D02*
X491692D01*
X492976Y725915D01*
X496764Y735059D02*
X500236D01*
X495502Y732011D02*
X501498D01*
X420124Y740160D02*
X487352D01*
X495502Y732011D01*
X414782Y747390D02*
X490191D01*
X494309Y743272D01*
Y737514D02*
Y743272D01*
X494239Y728963D02*
X502761D01*
X492976Y725915D02*
X504024D01*
X502761Y728963D02*
X518607Y744809D01*
X501498Y732011D02*
X517059Y747572D01*
Y750736D01*
X519514Y753191D01*
X500236Y735059D02*
X502691Y737514D01*
Y740691D01*
X506212Y751212D02*
Y784472D01*
X498500Y743500D02*
X506212Y751212D01*
X498500Y739250D02*
Y743500D01*
X355600Y706374D02*
X378212Y728986D01*
X350012Y710438D02*
X370212Y730638D01*
Y755000D01*
X378212Y728986D02*
Y755000D01*
X354212Y722258D02*
Y755000D01*
X450212D02*
Y784472D01*
X434212Y755000D02*
Y784472D01*
D37*
X741426Y732536D02*
Y831880D01*
X765810D01*
X740410D02*
X741426D01*
X715010D02*
X740410D01*
X403909Y803615D02*
X418212Y789312D01*
Y784472D02*
Y789312D01*
X328515Y803615D02*
X403909D01*
X300856Y775956D02*
X328515Y803615D01*
X285343Y775956D02*
X300856D01*
X275049Y786250D02*
X285343Y775956D01*
X270500Y786250D02*
X275049D01*
X270500Y757250D02*
Y786250D01*
X426212Y784472D02*
Y803788D01*
X414174Y815826D02*
X426212Y803788D01*
X305576Y815826D02*
X414174D01*
X292750Y803000D02*
X305576Y815826D01*
X292750Y786500D02*
Y803000D01*
X520708Y121260D02*
X522224Y122776D01*
X432816Y121260D02*
X520708D01*
X747776Y497840D02*
X751332Y494284D01*
X732282Y497840D02*
X747776D01*
X275176Y222860D02*
X300736D01*
X626364Y248412D02*
X652018D01*
X613664Y235712D02*
X626364Y248412D01*
X686054Y282448D02*
Y317500D01*
X652018Y248412D02*
X686054Y282448D01*
X464924Y209700D02*
X527256D01*
X616585Y198247D02*
X676148Y257810D01*
X616585Y104267D02*
Y198247D01*
X676148Y257810D02*
X715010D01*
X695348Y326794D02*
X701802D01*
X686054Y317500D02*
X695348Y326794D01*
X316232Y437282D02*
X316992Y436522D01*
X287676Y437282D02*
X316232D01*
X315258Y389530D02*
X316992Y391264D01*
X306176Y389530D02*
X315258D01*
X448690Y497200D02*
X452690Y501200D01*
X452690D01*
X406406Y225298D02*
X406406Y225298D01*
X406406Y211630D02*
Y225298D01*
X590550Y528066D02*
X593852Y531368D01*
X579120Y528066D02*
X590550D01*
X557530Y506476D02*
X579120Y528066D01*
X625348Y549054D02*
X646590D01*
X653796Y556260D01*
X616331Y549054D02*
X625348D01*
X598645Y531368D02*
X616331Y549054D01*
X54102Y326390D02*
Y329966D01*
X53086Y330982D02*
X54102Y329966D01*
X735330Y478282D02*
X751332Y494284D01*
X765556D01*
X777842Y799940D02*
X797814D01*
X773684Y654812D02*
X788510D01*
X796798Y663100D01*
X715010Y257810D02*
X807657Y350457D01*
X555140Y102616D02*
X571500D01*
X469750Y247246D02*
Y268328D01*
X120396Y56100D02*
Y88392D01*
X799592Y723956D02*
Y747268D01*
X778256Y723956D02*
X799592D01*
Y747268D02*
X803044Y750720D01*
X809752D01*
X419406Y135636D02*
Y154130D01*
X406406Y140462D02*
Y154130D01*
X445406Y211630D02*
X451906D01*
X451906Y211630D02*
Y225298D01*
X245256Y137160D02*
Y297434D01*
X504690Y393200D02*
X508381Y389509D01*
X380690Y389200D02*
X384690Y393200D01*
X384690D01*
X476690Y469200D02*
X480690Y473200D01*
X496690Y449200D02*
Y449200D01*
X432690Y417194D02*
Y417200D01*
X549760Y150312D02*
Y239420D01*
X437896D02*
X549760D01*
X438906Y154130D02*
X438912Y140462D01*
X419406Y154130D02*
X425906D01*
X412906D02*
X419406D01*
X387096Y61360D02*
X414928D01*
X432816Y102260D02*
X450444D01*
X304156Y81280D02*
X316230D01*
X387604Y111868D02*
Y129286D01*
X204876Y203860D02*
X205740Y204724D01*
X213106D01*
X479298Y177546D02*
Y196700D01*
Y159662D02*
Y177546D01*
X475322D02*
X479298D01*
X451906Y154130D02*
X475322Y177546D01*
X419406Y211630D02*
Y225298D01*
X325526Y55880D02*
Y108306D01*
X304156Y55880D02*
X325526D01*
X223876Y108306D02*
X325526D01*
X302562Y224686D02*
X321056D01*
X399906Y140462D02*
Y154130D01*
Y211630D02*
Y225298D01*
X432406Y211630D02*
Y225298D01*
X382016Y239420D02*
X437896D01*
X382016D02*
X393406Y228030D01*
Y211630D02*
Y228030D01*
X438906Y211630D02*
Y238410D01*
X432406Y126750D02*
Y154130D01*
X244442Y81280D02*
X287156D01*
X244442Y30480D02*
X287156D01*
X425906Y211630D02*
Y225298D01*
X412906Y211630D02*
Y225298D01*
X393406Y140462D02*
Y154130D01*
X423774Y258420D02*
X437896D01*
X445406Y140462D02*
Y154130D01*
X224614Y508252D02*
X237490D01*
X224614Y556252D02*
X237744D01*
X176022Y532252D02*
X189992D01*
X176022Y580252D02*
X189992D01*
X52578Y700252D02*
X66422D01*
X52578Y596252D02*
X66422D01*
X52578Y556252D02*
X66422D01*
X52578Y508252D02*
X66422D01*
X52578Y492252D02*
X66422D01*
X39370Y330982D02*
X53086D01*
X496690Y505200D02*
Y505200D01*
X400690Y441076D02*
Y441200D01*
X480690Y465200D02*
Y465200D01*
X456690Y497200D02*
X456690D01*
X428690Y493200D02*
X432690Y497200D01*
X392690Y433200D02*
Y433200D01*
X416690Y497200D02*
Y497200D01*
X412690Y493200D02*
X416690Y497200D01*
X388690Y461200D02*
X392690Y457200D01*
X456690Y497200D02*
X460690Y501200D01*
X440690Y497200D02*
X440690D01*
X444690Y501200D01*
X384690Y401200D02*
X388690Y397200D01*
X380690Y421200D02*
X384690Y425200D01*
X400690Y409200D02*
X400690D01*
X404690Y405200D01*
X388690Y429200D02*
X392690Y433200D01*
X400690Y441200D02*
Y441200D01*
X396690Y437200D02*
X400690Y441200D01*
X380690Y405200D02*
X384690Y409200D01*
Y417200D02*
Y417200D01*
X380690Y413200D02*
X384690Y417200D01*
X372690Y389200D02*
X376690Y393200D01*
X424690Y401200D02*
X424690D01*
X428690Y397200D01*
X424690Y409200D02*
X424690D01*
X428690Y405200D01*
X432690Y417200D02*
X436690Y413200D01*
X488690Y401200D02*
X492690Y397200D01*
X472690Y401200D02*
X472690D01*
X476690Y397200D01*
X496690Y505200D02*
X500690Y509200D01*
X496690Y497200D02*
Y497200D01*
X500690Y501200D01*
X496690Y489200D02*
X500690Y493200D01*
X488690Y473200D02*
X492690Y477200D01*
X480690Y465200D02*
X484690Y469200D01*
X496690Y449200D02*
X500690Y453200D01*
X39370Y308982D02*
X50800D01*
X295256Y137160D02*
X300885Y142483D01*
X418212Y672472D02*
Y691896D01*
X300736Y142640D02*
Y166220D01*
Y203860D01*
X116078Y823468D02*
X130810Y838200D01*
X116078Y463042D02*
Y823468D01*
Y463042D02*
X165989Y413131D01*
Y391541D02*
Y413131D01*
Y391541D02*
X289052Y268478D01*
X387096Y111360D02*
X412350Y86106D01*
X435610Y889000D02*
Y914400D01*
X807657Y350457D02*
Y601789D01*
X531216Y188620D02*
X542290Y177546D01*
X529336Y188620D02*
X531216D01*
X304156Y30480D02*
X334010D01*
X341630Y38100D01*
X569562Y723956D02*
X580160D01*
X558038Y732432D02*
X558038Y732432D01*
X561086D01*
X569562Y723956D01*
X595846Y634238D02*
X646684D01*
X751586Y132158D02*
Y169418D01*
X746252Y174752D02*
X751586Y169418D01*
X672338Y156718D02*
X690372Y174752D01*
X672338Y141840D02*
Y156718D01*
X731478Y219306D02*
X750466D01*
X690522D02*
X712978D01*
X432690Y465200D02*
Y465200D01*
X428754Y461264D02*
X432690Y465200D01*
X436882Y461264D02*
Y461392D01*
X440690Y465200D01*
X444754Y461264D02*
X448690Y465200D01*
X428754Y453136D02*
Y453264D01*
X432690Y457200D01*
X428754Y445264D02*
Y445264D01*
X432690Y449200D01*
X436882Y453136D02*
Y453392D01*
X440690Y457200D01*
X436882Y445264D02*
Y445392D01*
X440690Y449200D01*
X444754Y453264D02*
X448690Y457200D01*
X444754Y445264D02*
X448690Y449200D01*
X641604Y156718D02*
X656482Y141840D01*
X672338D01*
X400690Y473200D02*
X404690Y469200D01*
X404690D01*
X400690Y481200D02*
X410278Y471612D01*
X413834D01*
X459928Y492438D02*
X464690Y497200D01*
X741426Y728980D02*
Y732536D01*
X646684Y634238D02*
X741426Y728980D01*
X765556Y494284D02*
X774446Y503174D01*
Y520700D01*
X786384Y532638D01*
X735330Y337058D02*
Y478282D01*
X120616Y55880D02*
X165608D01*
X120396Y56100D02*
X120616Y55880D01*
X598424Y86106D02*
X616585Y104267D01*
X412350Y86106D02*
X598424D01*
X557530Y501200D02*
Y506476D01*
X593852Y531368D02*
X598645D01*
X677418Y535282D02*
X698800D01*
X699770Y535074D02*
X758548D01*
X760984Y532638D01*
X189586Y222860D02*
X214376D01*
X189586Y58572D02*
Y222860D01*
X192278Y55880D02*
X287156D01*
X223876Y181404D02*
Y203860D01*
Y181404D02*
X223924Y181356D01*
X701802Y296164D02*
Y313794D01*
X522224Y102776D02*
X554980D01*
X522224Y122776D02*
X549760Y150312D01*
X478536Y132588D02*
Y142400D01*
Y145900D01*
X224442Y81280D02*
Y94394D01*
X225552Y95504D01*
X263144D01*
X189586Y58572D02*
X192278Y55880D01*
X206662Y171036D02*
Y177292D01*
Y171036D02*
X217424Y160274D01*
X224442Y30988D02*
Y48674D01*
X224536Y48768D01*
X255176Y204630D02*
Y223520D01*
X245256Y137160D02*
X275176Y167080D01*
Y222860D01*
Y223520D01*
X205740Y141826D02*
X223782D01*
X223876Y108306D02*
Y141826D01*
X205740Y115062D02*
Y121826D01*
Y115062D02*
X214630Y106172D01*
X754380Y166624D02*
X799592D01*
X751586Y169418D02*
X754380Y166624D01*
X729892Y174752D02*
X746252D01*
X778514Y198624D02*
X799592D01*
X768096Y209042D02*
X778514Y198624D01*
X720930Y110158D02*
X751586D01*
X702612Y91840D02*
X720930Y110158D01*
X672338Y91840D02*
X702612D01*
X33452Y508252D02*
X52578D01*
X31496Y510208D02*
X33452Y508252D01*
X30734Y602312D02*
X46518D01*
X52578Y596252D01*
X224614D02*
X239014D01*
X194308Y508252D02*
X202614Y516558D01*
Y524000D01*
X224614Y508252D02*
Y524000D01*
Y492252D02*
X235204D01*
X828548Y622679D02*
Y844550D01*
X807657Y601789D02*
X828548Y622679D01*
X772160Y718956D02*
X813190D01*
X813308Y713232D02*
Y729410D01*
Y751410D02*
Y763016D01*
X818134Y767842D01*
X562824Y718956D02*
X580160D01*
X556260Y712392D02*
X562824Y718956D01*
X542544Y734392D02*
X556260D01*
X542544Y712392D02*
X556260D01*
X426212Y648970D02*
Y672472D01*
Y648970D02*
X433832Y641350D01*
X376182Y441200D02*
X376690D01*
X372182Y437200D02*
X376182Y441200D01*
X372690Y429454D02*
X372944D01*
X701802Y326794D02*
Y337058D01*
X735330D01*
X58514Y468122D02*
X74930Y451706D01*
X51054Y468122D02*
X58514D01*
X31496Y532252D02*
X52578D01*
X66422D01*
X176022Y508252D02*
X194308D01*
X30794Y580252D02*
X52578D01*
X66422D01*
X176022Y492252D02*
X190500D01*
X200002D01*
X161798Y556252D02*
X202614D01*
X176022Y596252D02*
X188722D01*
X202614D01*
X176022Y700252D02*
X188722D01*
X200002D01*
X289052Y268478D02*
X570484D01*
X690372Y174752D02*
X716892D01*
X571500Y128016D02*
Y269494D01*
X616458Y314452D01*
X653796Y556260D02*
X721868D01*
X731774Y566166D01*
X372182Y429454D02*
X375928Y433200D01*
X376690D01*
X382016Y258420D02*
X397256D01*
X224614Y700252D02*
X240284D01*
X574548Y895000D02*
X778098D01*
X828548Y844550D01*
X511810Y863600D02*
X519210Y871000D01*
X569000D01*
X574548Y876548D01*
Y895000D01*
X435610Y889000D02*
X454610Y870000D01*
X505410D01*
X511810Y863600D01*
X537210Y858790D02*
X552062Y843938D01*
Y818938D02*
Y843938D01*
Y818938D02*
X638464Y732536D01*
X741426D01*
X418212Y784472D02*
X418600Y784860D01*
D38*
X0Y0D02*
X81280D01*
Y29210D01*
X170180D01*
Y0D02*
Y29210D01*
Y0D02*
X351790D01*
Y29210D01*
X554990D01*
Y0D02*
Y29210D01*
Y0D02*
X892810D01*
Y679450D01*
X847090D02*
X892810D01*
X847090D02*
Y958850D01*
X554990D02*
X847090D01*
X554990Y929640D02*
Y958850D01*
X351790Y929640D02*
X554990D01*
X351790D02*
Y958850D01*
X46990D02*
X351790D01*
X0Y0D02*
Y165100D01*
X-8890D02*
X0D01*
X-8890D02*
Y377825D01*
X7620D01*
Y581025D01*
X-8890D02*
X7620D01*
X-8890D02*
Y825500D01*
X46990Y897890D02*
Y958850D01*
X-8890Y825500D02*
Y842010D01*
X46990Y897890D01*
D39*
X847598Y510540D02*
D03*
X786384Y354838D02*
D03*
X710438Y452628D02*
D03*
X847598Y425958D02*
D03*
X571500Y128016D02*
D03*
X120396Y88392D02*
D03*
X847598Y647954D02*
D03*
D40*
Y535940D02*
D03*
Y561340D02*
D03*
X760984Y583438D02*
D03*
X786384D02*
D03*
X760984Y558038D02*
D03*
X786384D02*
D03*
X760984Y532638D02*
D03*
X786384D02*
D03*
X760984Y507238D02*
D03*
X786384D02*
D03*
X760984Y481838D02*
D03*
X786384D02*
D03*
X760984Y456438D02*
D03*
X786384D02*
D03*
X760984Y431038D02*
D03*
X786384D02*
D03*
X760984Y405638D02*
D03*
X786384D02*
D03*
X760984Y380238D02*
D03*
X786384D02*
D03*
X760984Y354838D02*
D03*
X710438Y478028D02*
D03*
X827278Y316992D02*
D03*
X801878D02*
D03*
X847598Y451358D02*
D03*
Y476758D02*
D03*
X571500Y102616D02*
D03*
X120396Y113792D02*
D03*
X667258Y314452D02*
D03*
X641858D02*
D03*
X616458D02*
D03*
X591058D02*
D03*
X847598Y597154D02*
D03*
Y622554D02*
D03*
X690372Y367030D02*
D03*
X130810Y857280D02*
D03*
Y831880D02*
D03*
X156210D02*
D03*
X181610D02*
D03*
X207010D02*
D03*
X232410D02*
D03*
X257810D02*
D03*
X283210D02*
D03*
X308610D02*
D03*
X334010D02*
D03*
X359410D02*
D03*
X384810D02*
D03*
X410210D02*
D03*
X435610D02*
D03*
X461010D02*
D03*
X486410D02*
D03*
X511810D02*
D03*
X537210D02*
D03*
X562610D02*
D03*
X588010D02*
D03*
X613410D02*
D03*
X638810D02*
D03*
X664210D02*
D03*
X689610D02*
D03*
X715010D02*
D03*
X740410D02*
D03*
X765810D02*
D03*
X156210Y857280D02*
D03*
X181610D02*
D03*
X207010D02*
D03*
X232410D02*
D03*
X257810D02*
D03*
X283210D02*
D03*
X308610D02*
D03*
X334010D02*
D03*
X359410D02*
D03*
X384810D02*
D03*
X410210D02*
D03*
X435610D02*
D03*
X461010D02*
D03*
X486410D02*
D03*
X511810D02*
D03*
X537210D02*
D03*
X562610D02*
D03*
X588010D02*
D03*
X613410D02*
D03*
X638810D02*
D03*
X664210D02*
D03*
X689610D02*
D03*
X715010D02*
D03*
X740410D02*
D03*
X765810D02*
D03*
X130810Y908080D02*
D03*
Y882680D02*
D03*
X156210D02*
D03*
X181610D02*
D03*
X207010D02*
D03*
X232410D02*
D03*
X257810D02*
D03*
X283210D02*
D03*
X308610D02*
D03*
X334010D02*
D03*
X359410D02*
D03*
X384810D02*
D03*
X410210D02*
D03*
X435610D02*
D03*
X461010D02*
D03*
X486410D02*
D03*
X511810D02*
D03*
X537210D02*
D03*
X562610D02*
D03*
X588010D02*
D03*
X613410D02*
D03*
X638810D02*
D03*
X664210D02*
D03*
X689610D02*
D03*
X715010D02*
D03*
X740410D02*
D03*
X765810D02*
D03*
X156210Y908080D02*
D03*
X181610D02*
D03*
X207010D02*
D03*
X232410D02*
D03*
X257810D02*
D03*
X283210D02*
D03*
X308610D02*
D03*
X334010D02*
D03*
X359410D02*
D03*
X384810D02*
D03*
X410210D02*
D03*
X435610D02*
D03*
X461010D02*
D03*
X486410D02*
D03*
X511810D02*
D03*
X537210D02*
D03*
X562610D02*
D03*
X588010D02*
D03*
X613410D02*
D03*
X638810D02*
D03*
X664210D02*
D03*
X689610D02*
D03*
X715010D02*
D03*
X740410D02*
D03*
X765810D02*
D03*
D41*
X852678Y316992D02*
D03*
X565658Y314452D02*
D03*
X715772Y367030D02*
D03*
D42*
X816430Y908100D02*
D03*
X79830D02*
D03*
X841831Y50800D02*
D03*
X41731Y50800D02*
D03*
D43*
X825592Y204624D02*
D03*
Y160624D02*
D03*
D44*
X391519Y625780D02*
D03*
X416520Y600529D02*
D03*
X424521Y606030D02*
D03*
X458212Y755000D02*
D03*
X490212Y755000D02*
D03*
X269750Y756500D02*
D03*
X389519Y798789D02*
D03*
X372000Y796500D02*
D03*
X338212Y755000D02*
D03*
X346212D02*
D03*
X330212D02*
D03*
X596265Y713326D02*
D03*
X593598Y718202D02*
D03*
X527500Y751461D02*
D03*
X534250Y753750D02*
D03*
X466852Y605536D02*
D03*
X492690Y477200D02*
D03*
X595846Y668528D02*
D03*
X493268Y325628D02*
D03*
X420624Y324612D02*
D03*
X680212Y468122D02*
D03*
X661162Y225806D02*
D03*
X325882Y404264D02*
D03*
Y423522D02*
D03*
X629666Y477520D02*
D03*
X599948Y456438D02*
D03*
X579628Y490474D02*
D03*
X484817Y485200D02*
D03*
X512188Y482470D02*
D03*
X717804Y464566D02*
D03*
X729234Y424180D02*
D03*
X797814Y760052D02*
D03*
X813816Y647954D02*
D03*
X475742Y437388D02*
D03*
X757682Y803656D02*
D03*
X752602Y807974D02*
D03*
X747268Y812546D02*
D03*
X736346Y806196D02*
D03*
X731520Y809752D02*
D03*
X726440Y813054D02*
D03*
X720344Y810006D02*
D03*
X532638Y601218D02*
D03*
X581914Y589788D02*
D03*
X586740Y586486D02*
D03*
X595846Y698956D02*
D03*
X388690Y445200D02*
D03*
X335534Y383286D02*
D03*
X539496Y590296D02*
D03*
X396690Y493200D02*
D03*
X404690D02*
D03*
X271018Y490220D02*
D03*
X298470Y503192D02*
D03*
X575314Y533908D02*
D03*
X584516Y494092D02*
D03*
X556006Y389636D02*
D03*
X602996Y396748D02*
D03*
X139700Y811784D02*
D03*
X482854Y295910D02*
D03*
X475996D02*
D03*
X68326Y393192D02*
D03*
X160528Y364998D02*
D03*
X403860Y357124D02*
D03*
X469519Y295910D02*
D03*
X461010D02*
D03*
X556006Y632460D02*
D03*
X454660Y295910D02*
D03*
X447802D02*
D03*
X588010Y533908D02*
D03*
X558419Y450469D02*
D03*
X533400Y591312D02*
D03*
X546608Y518414D02*
D03*
X541020Y455168D02*
D03*
X488847Y343916D02*
D03*
X127254Y320040D02*
D03*
X119761Y425577D02*
D03*
X447294Y342392D02*
D03*
X135890Y427482D02*
D03*
X141478Y404876D02*
D03*
X372618Y347218D02*
D03*
X147574Y414528D02*
D03*
Y309880D02*
D03*
X153670Y414274D02*
D03*
Y336550D02*
D03*
X544068Y596138D02*
D03*
X536194Y518414D02*
D03*
X569722Y596900D02*
D03*
X551180Y493776D02*
D03*
X542798Y446278D02*
D03*
X553720Y456692D02*
D03*
X520954Y547878D02*
D03*
X457200Y472440D02*
D03*
X466344Y564896D02*
D03*
X465582Y557530D02*
D03*
X551434Y431292D02*
D03*
X558038Y422402D02*
D03*
X582168Y533908D02*
D03*
X592836Y559308D02*
D03*
X569976Y490474D02*
D03*
X601726Y557530D02*
D03*
X397896Y371094D02*
D03*
X387350Y375412D02*
D03*
X392938Y346710D02*
D03*
X430784Y354076D02*
D03*
X503682Y302006D02*
D03*
X557530Y519550D02*
D03*
X314706Y480060D02*
D03*
X324104Y462788D02*
D03*
X402844Y346710D02*
D03*
X429006Y359156D02*
D03*
X475996Y485394D02*
D03*
X380690Y445200D02*
D03*
X416306Y426720D02*
D03*
X419406Y135636D02*
D03*
X451906Y225298D02*
D03*
X469750Y247246D02*
D03*
X280924Y569214D02*
D03*
X506222Y617982D02*
D03*
Y626110D02*
D03*
X476758Y617982D02*
D03*
X471805Y622046D02*
D03*
X467614Y580136D02*
D03*
X521716Y711708D02*
D03*
X526796Y716788D02*
D03*
X531876Y721868D02*
D03*
X510911Y688340D02*
D03*
X291846Y642589D02*
D03*
X340614Y557276D02*
D03*
X370078Y551434D02*
D03*
X482600Y631190D02*
D03*
X436690Y509200D02*
D03*
X442212Y691896D02*
D03*
X434212D02*
D03*
X410212D02*
D03*
X402212D02*
D03*
X394212D02*
D03*
X386212D02*
D03*
X362212D02*
D03*
X402212Y755000D02*
D03*
X394212D02*
D03*
X386212D02*
D03*
X378212D02*
D03*
X370212D02*
D03*
X362212D02*
D03*
X354212D02*
D03*
X439420Y554990D02*
D03*
X255778Y482854D02*
D03*
X124968Y394462D02*
D03*
X257556Y574294D02*
D03*
X323850Y484124D02*
D03*
X311150Y461518D02*
D03*
X52578Y692252D02*
D03*
Y684252D02*
D03*
Y676252D02*
D03*
Y668252D02*
D03*
Y660252D02*
D03*
Y652252D02*
D03*
Y644252D02*
D03*
Y636252D02*
D03*
X188722Y628252D02*
D03*
Y620252D02*
D03*
Y612252D02*
D03*
X148818Y552958D02*
D03*
X380690Y389200D02*
D03*
X388690Y453200D02*
D03*
X438912Y140462D02*
D03*
X387604Y129286D02*
D03*
X600456Y184150D02*
D03*
X213106Y204724D02*
D03*
X478536Y132588D02*
D03*
X464924Y209700D02*
D03*
X419406Y225298D02*
D03*
X321056Y224686D02*
D03*
X399906Y140462D02*
D03*
X425906Y225298D02*
D03*
X399906D02*
D03*
X432406D02*
D03*
X412906D02*
D03*
X393406Y140462D02*
D03*
X406406D02*
D03*
X445406D02*
D03*
X428754Y461264D02*
D03*
X436882D02*
D03*
X428754Y453136D02*
D03*
X436882D02*
D03*
X428754Y445264D02*
D03*
X436882D02*
D03*
X444754D02*
D03*
Y453264D02*
D03*
Y461264D02*
D03*
X413834Y471612D02*
D03*
X188722Y684252D02*
D03*
X404690Y509200D02*
D03*
X188722Y676252D02*
D03*
Y668252D02*
D03*
X396690Y509200D02*
D03*
X188722Y660252D02*
D03*
X412690Y501200D02*
D03*
X388690D02*
D03*
Y493200D02*
D03*
Y485200D02*
D03*
Y477200D02*
D03*
Y469200D02*
D03*
X396690D02*
D03*
Y461200D02*
D03*
Y429200D02*
D03*
X388690D02*
D03*
X396690Y421200D02*
D03*
Y413200D02*
D03*
X404690Y405200D02*
D03*
X412690Y413200D02*
D03*
X420690D02*
D03*
X428690Y397200D02*
D03*
Y405200D02*
D03*
Y413200D02*
D03*
X436690Y405200D02*
D03*
Y413200D02*
D03*
X452690Y405200D02*
D03*
X460690D02*
D03*
Y413200D02*
D03*
X468690D02*
D03*
X476690Y405200D02*
D03*
X484690Y413200D02*
D03*
X492690Y420946D02*
D03*
Y437200D02*
D03*
X484690D02*
D03*
X492690Y445200D02*
D03*
X484690D02*
D03*
X500690Y453200D02*
D03*
X492690D02*
D03*
X484690D02*
D03*
X492690Y461200D02*
D03*
X484690D02*
D03*
X492690Y469200D02*
D03*
X500690Y493200D02*
D03*
Y501200D02*
D03*
X460690Y509200D02*
D03*
X452690D02*
D03*
X444690D02*
D03*
X428690D02*
D03*
X420690Y501200D02*
D03*
Y509200D02*
D03*
X396690Y501200D02*
D03*
X388690Y397200D02*
D03*
X492690D02*
D03*
X468690Y405200D02*
D03*
X476690Y413200D02*
D03*
X500690Y509200D02*
D03*
X52578Y500252D02*
D03*
Y516252D02*
D03*
Y524252D02*
D03*
Y540252D02*
D03*
Y548252D02*
D03*
Y564252D02*
D03*
Y572252D02*
D03*
X305054Y480060D02*
D03*
X190500Y500252D02*
D03*
Y516252D02*
D03*
Y524252D02*
D03*
Y540252D02*
D03*
Y548252D02*
D03*
X306578Y516252D02*
D03*
X289310Y524252D02*
D03*
X261360Y540252D02*
D03*
X278384Y501650D02*
D03*
X315722Y507492D02*
D03*
X52578Y588252D02*
D03*
Y612252D02*
D03*
Y620252D02*
D03*
Y628252D02*
D03*
X415166Y589534D02*
D03*
X384810Y604520D02*
D03*
X387350Y609600D02*
D03*
X346710Y614680D02*
D03*
X390144Y571500D02*
D03*
X321310Y624840D02*
D03*
X308610Y620014D02*
D03*
X788924Y698956D02*
D03*
Y738956D02*
D03*
X52578Y319982D02*
D03*
X570230Y441962D02*
D03*
Y448692D02*
D03*
X432816Y612648D02*
D03*
X466212Y691896D02*
D03*
X474212D02*
D03*
X482212D02*
D03*
X498212D02*
D03*
X410212Y755000D02*
D03*
X474212D02*
D03*
X482212D02*
D03*
X420690Y594868D02*
D03*
X400558Y604520D02*
D03*
X259334Y599694D02*
D03*
X365760Y629666D02*
D03*
X372364Y635254D02*
D03*
X357378Y630428D02*
D03*
X437388Y605536D02*
D03*
X392805Y619373D02*
D03*
X424053Y622681D02*
D03*
X482600Y587502D02*
D03*
X470916Y635508D02*
D03*
X513080Y593344D02*
D03*
X462788Y656336D02*
D03*
X478028Y641096D02*
D03*
X505714D02*
D03*
X614934Y703580D02*
D03*
X148818Y636252D02*
D03*
X300736Y166220D02*
D03*
X425196Y706628D02*
D03*
X418212Y691896D02*
D03*
X379222Y626110D02*
D03*
X350262Y524252D02*
D03*
X161290Y432308D02*
D03*
X168148Y437388D02*
D03*
X175768Y442468D02*
D03*
X193294Y447548D02*
D03*
X200152Y452628D02*
D03*
X210312Y457708D02*
D03*
X224790Y462788D02*
D03*
X243078Y484886D02*
D03*
X264160Y579374D02*
D03*
X327406Y653542D02*
D03*
X255270Y533400D02*
D03*
X343408Y653796D02*
D03*
X450212Y691896D02*
D03*
X239522Y467868D02*
D03*
X458212Y691896D02*
D03*
X188722Y692252D02*
D03*
X230124Y627888D02*
D03*
X283972Y635254D02*
D03*
X293490Y546354D02*
D03*
X297688Y600202D02*
D03*
X260858Y511683D02*
D03*
X788924Y748956D02*
D03*
X482600Y564642D02*
D03*
X595846Y634238D02*
D03*
X614934Y743204D02*
D03*
Y651764D02*
D03*
X442976Y355346D02*
D03*
X465328Y343662D02*
D03*
X524764Y340614D02*
D03*
X498722Y576580D02*
D03*
X466660Y445200D02*
D03*
X463042Y449580D02*
D03*
X530606Y574421D02*
D03*
X583692Y408940D02*
D03*
X628650Y460248D02*
D03*
X484690Y429200D02*
D03*
X628650Y486724D02*
D03*
X590550Y422402D02*
D03*
X564642Y456946D02*
D03*
X85852Y568960D02*
D03*
X113284Y298196D02*
D03*
X219710Y813562D02*
D03*
X250444Y814578D02*
D03*
X412690Y405200D02*
D03*
X125984Y420370D02*
D03*
X164846Y352425D02*
D03*
X414274D02*
D03*
X131572Y521716D02*
D03*
X118364Y304038D02*
D03*
X692665Y385833D02*
D03*
X566166Y342646D02*
D03*
X553720Y365760D02*
D03*
X542290Y177546D02*
D03*
X505968Y589788D02*
D03*
X341630Y38100D02*
D03*
X592836Y592836D02*
D03*
X603504Y580898D02*
D03*
X526415Y569087D02*
D03*
X639572Y462280D02*
D03*
X532384Y449072D02*
D03*
X630936Y812800D02*
D03*
X492690Y429454D02*
D03*
X551688Y385064D02*
D03*
X462026Y441960D02*
D03*
X681736Y212806D02*
D03*
X396690Y453200D02*
D03*
X452882Y441960D02*
D03*
X425196Y691896D02*
D03*
X428498Y552958D02*
D03*
X490212Y691896D02*
D03*
X388690Y421200D02*
D03*
X272288Y67564D02*
D03*
X333248Y653542D02*
D03*
X312674Y648716D02*
D03*
X349250Y630079D02*
D03*
X619760Y476758D02*
D03*
X334518Y297434D02*
D03*
X712216Y390652D02*
D03*
X712978Y400050D02*
D03*
X742188Y434340D02*
D03*
X804418Y615442D02*
D03*
X596900Y536448D02*
D03*
X804418Y623062D02*
D03*
X733552Y548282D02*
D03*
Y526392D02*
D03*
X165608Y55880D02*
D03*
X733552Y517652D02*
D03*
X793242Y743956D02*
D03*
X330212Y691896D02*
D03*
X422656Y643382D02*
D03*
X530606Y529082D02*
D03*
X372182Y445200D02*
D03*
X353568Y442976D02*
D03*
X359410Y448310D02*
D03*
X347726Y459232D02*
D03*
X27432Y363982D02*
D03*
Y352982D02*
D03*
X105918Y445262D02*
D03*
Y431800D02*
D03*
X136652Y312674D02*
D03*
X50292Y297982D02*
D03*
X141732Y328676D02*
D03*
X50292Y286982D02*
D03*
X584200Y439166D02*
D03*
X244348Y781050D02*
D03*
X460756Y325628D02*
D03*
X341000Y811000D02*
D03*
X470000Y812250D02*
D03*
X617728Y820674D02*
D03*
X521250Y749000D02*
D03*
X498500Y739250D02*
D03*
X514525Y730286D02*
D03*
X498212Y755000D02*
D03*
X434212D02*
D03*
X442212D02*
D03*
X450212D02*
D03*
D45*
X732282Y497840D02*
D03*
X570164Y477454D02*
D03*
X613664Y235712D02*
D03*
X287676Y437282D02*
D03*
X306176Y389530D02*
D03*
X452690Y501200D02*
D03*
X406406Y225298D02*
D03*
X416710Y444650D02*
D03*
X359260Y399900D02*
D03*
Y414124D02*
D03*
X507144Y537464D02*
D03*
X54102Y326390D02*
D03*
X777842Y799940D02*
D03*
X773684Y654812D02*
D03*
X148590Y611124D02*
D03*
X476690Y469200D02*
D03*
X414928Y61360D02*
D03*
X450444Y102260D02*
D03*
X316230Y81280D02*
D03*
X437656Y182880D02*
D03*
X407656D02*
D03*
X422656D02*
D03*
X397256Y258318D02*
D03*
X423774Y258420D02*
D03*
X235204Y492252D02*
D03*
X239014Y596252D02*
D03*
X240284Y700278D02*
D03*
X237490Y508252D02*
D03*
X237744Y556252D02*
D03*
X189992Y532252D02*
D03*
Y580252D02*
D03*
X52578Y700252D02*
D03*
Y596252D02*
D03*
Y556252D02*
D03*
Y508252D02*
D03*
Y492252D02*
D03*
X53086Y376428D02*
D03*
X428690Y493200D02*
D03*
X459928Y492438D02*
D03*
X412690Y493200D02*
D03*
X404690Y469200D02*
D03*
X388690Y461200D02*
D03*
X396690Y437200D02*
D03*
X380690Y421200D02*
D03*
X484690Y469200D02*
D03*
X460690Y501200D02*
D03*
X444690D02*
D03*
X380690Y413200D02*
D03*
X372182Y437200D02*
D03*
X380690Y405200D02*
D03*
X372690Y389200D02*
D03*
X476690Y397200D02*
D03*
X50800Y308982D02*
D03*
X245256Y297434D02*
D03*
X190500Y508252D02*
D03*
X161798Y556252D02*
D03*
X263144Y95504D02*
D03*
X641604Y156718D02*
D03*
X768096Y209042D02*
D03*
X750466Y219306D02*
D03*
X690522D02*
D03*
X713382Y409852D02*
D03*
X733044Y483616D02*
D03*
X557530Y501200D02*
D03*
X701802Y296164D02*
D03*
X503776Y154592D02*
D03*
X217424Y160274D02*
D03*
X224442Y48674D02*
D03*
X255176Y204630D02*
D03*
X214630Y106172D02*
D03*
X731774Y566166D02*
D03*
X720930Y110158D02*
D03*
X188722Y700252D02*
D03*
X813308Y713232D02*
D03*
X818134Y767842D02*
D03*
X542544Y734392D02*
D03*
Y712392D02*
D03*
X433832Y641350D02*
D03*
X508381Y389509D02*
D03*
X515112Y360172D02*
D03*
X457962Y425196D02*
D03*
X356108Y459486D02*
D03*
X467868Y536448D02*
D03*
X372182Y429454D02*
D03*
X338074Y434340D02*
D03*
X295656Y372364D02*
D03*
X52578Y580252D02*
D03*
Y532252D02*
D03*
X188722Y596252D02*
D03*
X190500Y492252D02*
D03*
X51054Y468122D02*
D03*
X817118Y823214D02*
D03*
X292750Y803000D02*
D03*
M02*
