%FSLAX44Y44*%
%MOMM*%
G71*
G01*
G75*
G04 Layer_Physical_Order=2*
G04 Layer_Color=36540*
%ADD10R,0.7000X0.9000*%
%ADD11R,1.5000X1.3000*%
%ADD12R,2.2000X2.6000*%
%ADD13R,1.2000X1.5000*%
%ADD14R,1.2000X1.4000*%
%ADD15R,1.4000X1.2000*%
%ADD16R,1.1000X1.0000*%
%ADD17R,2.6000X2.2000*%
%ADD18R,0.3500X1.5500*%
%ADD19O,0.3500X1.5500*%
%ADD20R,4.2000X3.1000*%
%ADD21R,0.6000X1.4000*%
%ADD22O,1.0000X0.4000*%
%ADD23R,1.0000X0.4000*%
%ADD24R,1.9000X1.3000*%
%ADD25R,2.8000X1.0000*%
%ADD26R,0.8000X1.0000*%
%ADD27R,1.2000X1.0000*%
%ADD28R,1.2000X0.7000*%
%ADD29O,0.5500X1.5500*%
%ADD30C,0.3500*%
%ADD31R,1.0000X0.3000*%
%ADD32R,1.0500X0.4000*%
%ADD33R,2.5000X0.5000*%
%ADD34R,2.5000X2.0000*%
%ADD35R,1.5000X1.2000*%
%ADD36C,0.1778*%
%ADD37C,0.3048*%
%ADD38C,0.2540*%
%ADD39R,1.5000X1.5000*%
%ADD40C,1.5000*%
%ADD41R,1.5000X1.5000*%
%ADD42C,6.3500*%
%ADD43C,1.3000*%
%ADD44C,0.5080*%
%ADD45C,0.5588*%
D36*
X422990Y601331D02*
X433770Y590550D01*
X422574Y601331D02*
X422990D01*
X419822Y604083D02*
X422574Y601331D01*
X419822Y604083D02*
Y604498D01*
X381731Y642589D02*
X419822Y604498D01*
X424521Y606030D02*
X424928D01*
X424942Y606044D01*
X428500Y818250D02*
X481250D01*
X421767Y824983D02*
X428500Y818250D01*
X421767Y824983D02*
Y852043D01*
X481250Y818250D02*
X516545Y782955D01*
X413046Y812250D02*
X470000D01*
X397002Y828294D02*
X413046Y812250D01*
X318523Y826763D02*
X372536Y772750D01*
X338212Y728980D02*
Y755000D01*
X593598Y718202D02*
Y719836D01*
X594868Y721106D01*
X466852Y605536D02*
X475742D01*
X503936Y633730D01*
X514604D01*
X452690Y509200D02*
Y624140D01*
X424942Y616458D02*
X452628Y644144D01*
X461264D01*
X514604Y633730D02*
X563372Y682498D01*
X616966D01*
X436626Y648716D02*
X458212Y670302D01*
X312674Y648716D02*
X436626D01*
X458212Y670302D02*
Y691896D01*
X430530Y653796D02*
X450212Y673478D01*
X343408Y653796D02*
X430530D01*
X450212Y673478D02*
Y691896D01*
X425450Y658876D02*
X442212Y675638D01*
X336550Y658876D02*
X425450D01*
X442212Y675638D02*
Y691896D01*
X434212Y681736D02*
Y691896D01*
X416432Y663956D02*
X434212Y681736D01*
X329692Y663956D02*
X416432D01*
X543560Y698956D02*
X595846D01*
X491796Y647192D02*
X543560Y698956D01*
X475742Y647192D02*
X491796D01*
X575036Y454132D02*
X601726Y480822D01*
X566166Y342646D02*
X614934Y391414D01*
X606806Y448564D02*
Y562610D01*
X583692Y425450D02*
X606806Y448564D01*
X543224Y772750D02*
X594868Y721106D01*
X612394Y668528D02*
X639572Y641350D01*
X595846Y668528D02*
X612394D01*
X639572Y462280D02*
Y641350D01*
X396814Y579374D02*
X420690Y555498D01*
Y509200D02*
Y555498D01*
X264160Y579374D02*
X396814D01*
X468757Y493141D02*
X500634Y525018D01*
Y543306D01*
X656590Y456946D02*
X667766Y468122D01*
X680212D01*
X165862Y421386D02*
X192047Y395201D01*
X379453D01*
X629666Y465328D02*
Y477520D01*
Y465328D02*
X638048Y456946D01*
X656590D01*
X575437Y486283D02*
X579628Y490474D01*
X514302Y486283D02*
X575437D01*
X513924Y486661D02*
X514302Y486283D01*
X486278Y486661D02*
X513924D01*
X484817Y485200D02*
X486278Y486661D01*
X738893Y478028D02*
X750824Y466097D01*
X770643D01*
X710438Y478028D02*
X738893D01*
X806704Y337566D02*
X827278Y316992D01*
X563118Y337566D02*
X806704D01*
X547624Y353060D02*
X563118Y337566D01*
X547624Y353060D02*
Y376682D01*
X489135Y417391D02*
X492690Y420946D01*
X484809Y417391D02*
X489135D01*
X499169Y425137D02*
X547624Y376682D01*
X486554Y425137D02*
X499169D01*
X486426Y425009D02*
X486554Y425137D01*
X482954Y425009D02*
X486426D01*
X492690Y429200D02*
X507552D01*
X480499Y427464D02*
X482954Y425009D01*
X480499Y427464D02*
Y432631D01*
X475742Y437388D02*
X480499Y432631D01*
X477445Y424755D02*
X484809Y417391D01*
X471357Y424755D02*
X477445D01*
X798830Y676148D02*
X798920Y676238D01*
Y748956D01*
X788924D02*
X798920D01*
X757682Y782955D02*
Y803656D01*
X516545Y782955D02*
X757682D01*
X752602Y786511D02*
Y807974D01*
X572135Y786511D02*
X752602D01*
X747268Y789813D02*
Y812546D01*
X573503Y789813D02*
X747268D01*
X736346Y793115D02*
Y806196D01*
X731520Y796925D02*
Y809752D01*
X726440Y800227D02*
Y813054D01*
X720090Y803617D02*
X720344Y803871D01*
Y810006D01*
X509651Y580771D02*
X520954Y592074D01*
X468249Y580771D02*
X509651D01*
X467614Y580136D02*
X468249Y580771D01*
X197391Y551434D02*
X370078D01*
X556006Y528828D02*
X590296Y494538D01*
X556006Y528828D02*
Y632460D01*
X536194Y518414D02*
X544068Y526288D01*
X539496Y566420D02*
Y590296D01*
X520954Y547878D02*
X539496Y566420D01*
X592836Y576326D02*
X606552Y562610D01*
X590296Y474726D02*
Y494538D01*
X601726Y480822D02*
Y557530D01*
X480568Y498279D02*
X511371Y529082D01*
X530606D01*
X471805Y489585D02*
X480499Y498279D01*
X243713Y477647D02*
X267716Y501650D01*
X241173Y477647D02*
X243713D01*
X226314Y462788D02*
X241173Y477647D01*
X210312Y457708D02*
X238506D01*
X260223Y442214D02*
X318008D01*
X250317Y432308D02*
X260223Y442214D01*
X128524Y432308D02*
X161290D01*
X141563Y413004D02*
X192617Y361950D01*
X471805Y450085D02*
Y489585D01*
X468757Y447297D02*
Y493141D01*
X544068Y526288D02*
Y596138D01*
X273304Y461518D02*
X311150D01*
X119768Y434340D02*
X132722Y421386D01*
X238506Y457708D02*
X271018Y490220D01*
X255778Y482854D02*
X268351Y495427D01*
X492690Y461200D02*
X576770D01*
X590550Y423418D02*
X609854Y442722D01*
X144272Y851662D02*
X156210Y863600D01*
X460690Y335976D02*
Y405200D01*
X458470Y333756D02*
X460690Y335976D01*
X423055Y333756D02*
X458470D01*
X153670Y336550D02*
X156337Y333883D01*
X422928D01*
X423055Y333756D01*
X576770Y461200D02*
X590296Y474726D01*
X568473Y454132D02*
X575036D01*
X565277Y450936D02*
X568473Y454132D01*
X492690Y469200D02*
X574548D01*
X485260Y335153D02*
X486876D01*
X489331Y337608D01*
Y343432D01*
X488847Y343916D02*
X489331Y343432D01*
X141478Y366515D02*
Y404876D01*
Y366515D02*
X160774Y347218D01*
X372618D01*
X147574Y309880D02*
X461518D01*
X558038Y437200D02*
X565277Y444439D01*
Y450936D01*
X466660Y445200D02*
X468757Y447297D01*
X460690Y559242D02*
X466344Y564896D01*
X460690Y509200D02*
Y559242D01*
X492690Y437200D02*
X558038D01*
X471805Y450085D02*
X484690Y437200D01*
X410210Y914400D02*
X420497Y904113D01*
X249174Y437388D02*
X273304Y461518D01*
X184691Y564134D02*
X197391Y551434D01*
X100696Y564134D02*
X184691D01*
X192398Y546354D02*
X293490D01*
X190500Y548252D02*
X192398Y546354D01*
X52578Y612252D02*
X100696Y564134D01*
X52578Y620252D02*
X103616Y569214D01*
X280924D01*
X52578Y636252D02*
X103614Y585216D01*
X52578Y644252D02*
X107550Y589280D01*
X52578Y524252D02*
X54102D01*
X135886Y442468D01*
X53340Y516252D02*
X132204Y437388D01*
X347484Y711708D02*
X520954D01*
X330212Y728980D02*
X347484Y711708D01*
X338212Y728980D02*
X350404Y716788D01*
X526796D01*
X346212Y728980D02*
X353324Y721868D01*
X260858Y511683D02*
X386207D01*
X249427Y500252D02*
X260858Y511683D01*
X190500Y500252D02*
X249427D01*
X331916Y469200D02*
X388690D01*
X315214Y485902D02*
X331916Y469200D01*
X353324Y721868D02*
X531876D01*
X291846Y642589D02*
X381731D01*
X362212Y691896D02*
Y697984D01*
X361958Y698238D02*
X362212Y697984D01*
X52578Y564252D02*
X58420D01*
X433770Y533908D02*
Y590550D01*
X267716Y501650D02*
X278384D01*
X238522Y620252D02*
X259207Y599567D01*
X188722Y620252D02*
X238522D01*
X106536Y574294D02*
X257556D01*
X52578Y628252D02*
X106536Y574294D01*
X323850Y484124D02*
X330774Y477200D01*
X323021Y495427D02*
X333248Y485200D01*
X388690D01*
X331707Y493200D02*
X388690D01*
X396690Y509200D02*
Y564954D01*
X330774Y477200D02*
X388690D01*
X281940Y485902D02*
X315214D01*
X243586Y447548D02*
X281940Y485902D01*
X386207Y511683D02*
X396690Y501200D01*
X190500Y524252D02*
X289310D01*
X190500Y540252D02*
X261360D01*
X52578Y572252D02*
X58430D01*
X268351Y495427D02*
X323021D01*
X52578Y540252D02*
X57658D01*
X58430Y572252D02*
X167894Y462788D01*
X52578Y588252D02*
X172962Y467868D01*
X390144Y571500D02*
X396690Y564954D01*
X384810Y604520D02*
X400558D01*
X249936Y594868D02*
X420690D01*
X428690Y509200D02*
Y528828D01*
X478028Y641096D02*
X505714D01*
X428690Y528828D02*
X433770Y533908D01*
X425196Y691896D02*
Y706628D01*
X190500Y516252D02*
X306578D01*
X289310Y524252D02*
X350262D01*
X161290Y432308D02*
X250317D01*
X132204Y437388D02*
X168148D01*
X249174D01*
X135886Y442468D02*
X175768D01*
X246126D01*
X226060Y467868D02*
X243078Y484886D01*
X346212Y728980D02*
Y755000D01*
X330212Y728980D02*
Y755000D01*
X220980Y579374D02*
X264160D01*
X224790Y462788D02*
X226314D01*
X249682Y698238D02*
X361958D01*
X230124Y627888D02*
Y654558D01*
X283972Y635254D02*
X372364D01*
X188722Y692252D02*
X192430D01*
X230124Y654558D01*
X583692Y408940D02*
Y425450D01*
X590550Y422402D02*
Y423418D01*
X477520Y420370D02*
X484690Y413200D01*
X144272Y816356D02*
Y851662D01*
X139700Y811784D02*
X144272Y816356D01*
X119126Y292354D02*
X433578D01*
X113284Y298196D02*
X119126Y292354D01*
X232410Y863600D02*
X244348Y851662D01*
Y830072D02*
Y851662D01*
X227838Y813562D02*
X244348Y830072D01*
X219710Y813562D02*
X227838D01*
X412690Y368614D02*
Y405200D01*
X406026Y361950D02*
X412690Y368614D01*
X192617Y361950D02*
X406026D01*
X127762Y413004D02*
X141563D01*
X125984Y414782D02*
X127762Y413004D01*
X125984Y414782D02*
Y420370D01*
X257810Y863600D02*
X270129Y851281D01*
X283210Y863600D02*
X293878Y852932D01*
X433578Y292354D02*
X441960Y300736D01*
X464820D01*
X478585Y314501D01*
Y328478D01*
X485260Y335153D01*
X473456Y314198D02*
Y327660D01*
X463296Y304038D02*
X473456Y314198D01*
X118364Y304038D02*
X463296D01*
X547123Y811523D02*
X572135Y786511D01*
X384810Y863600D02*
X397002Y851408D01*
X410210Y863600D02*
X421767Y852043D01*
X308610Y863600D02*
X324097Y848113D01*
X334010Y863600D02*
X346075Y851535D01*
X359410Y863600D02*
X372745Y850265D01*
X551180Y812136D02*
X573503Y789813D01*
X562610Y863600D02*
X574548Y851662D01*
X588010Y863600D02*
X600964Y850646D01*
X413258Y420370D02*
X477520D01*
X457200Y438912D02*
X471357Y424755D01*
X457200Y438912D02*
Y472440D01*
X584516Y479168D02*
Y494092D01*
X574548Y469200D02*
X584516Y479168D01*
X461264Y644144D02*
X503306Y686186D01*
X508884D01*
X510911Y688213D01*
X520954Y592074D02*
Y608838D01*
X588264Y676148D01*
X526796Y693360D02*
Y716788D01*
X483676Y650240D02*
X526796Y693360D01*
X452690Y624140D02*
X475742Y647192D01*
X424942Y606044D02*
Y616458D01*
X472440Y650240D02*
X483676D01*
X228600Y589534D02*
X415166D01*
X397002Y828294D02*
Y851408D01*
X588264Y676148D02*
X798830D01*
X614934Y391414D02*
Y651764D01*
X575314Y583188D02*
X581914Y589788D01*
X575314Y533908D02*
Y583188D01*
X582168Y581914D02*
X586740Y586486D01*
X582168Y533908D02*
Y581914D01*
X592836Y576326D02*
Y592836D01*
X609854Y442722D02*
Y574548D01*
X603504Y580898D02*
X609854Y574548D01*
X530352Y574675D02*
X530606Y574421D01*
X493268Y559308D02*
X508635Y574675D01*
X530352D01*
X500634Y543306D02*
X526415Y569087D01*
X628650Y460248D02*
X635254Y453644D01*
X492690Y445200D02*
X528512D01*
X532384Y449072D01*
X507552Y429200D02*
X551688Y385064D01*
X463042Y449580D02*
X465135Y451673D01*
Y498409D01*
X298470Y503192D02*
X321715D01*
X331707Y493200D01*
X314706Y472186D02*
X324104Y462788D01*
X314706Y472186D02*
Y480060D01*
X246126Y442468D02*
X283718Y480060D01*
X305054D01*
X428498Y552958D02*
Y555498D01*
X224282Y584454D02*
X399542D01*
X428498Y555498D01*
X333248Y653542D02*
Y655574D01*
X336550Y658876D01*
X327406Y653542D02*
Y661670D01*
X329692Y663956D01*
X346710Y614680D02*
X350774D01*
X365760Y629666D01*
X402844Y346710D02*
X416560D01*
X429006Y359156D01*
X436690Y359982D02*
Y405200D01*
X430784Y354076D02*
X436690Y359982D01*
X470408Y318770D02*
Y403482D01*
X461518Y309880D02*
X470408Y318770D01*
X468690Y405200D02*
X470408Y403482D01*
X635254Y453644D02*
X659384D01*
X712978Y400050D01*
X770643Y466097D02*
X786384Y481838D01*
X804418Y623062D02*
X847090D01*
X847598Y622554D01*
X230124Y678680D02*
X249682Y698238D01*
X678424Y743956D02*
X793242D01*
X616966Y682498D02*
X678424Y743956D01*
X328994Y453200D02*
X388690D01*
X318008Y442214D02*
X328994Y453200D01*
X476690Y405200D02*
X484656Y397234D01*
X473456Y327660D02*
X484656Y338860D01*
Y397234D01*
X399288Y406400D02*
X413258Y420370D01*
X390652Y406400D02*
X399288D01*
X379453Y395201D02*
X390652Y406400D01*
X132722Y421386D02*
X165862D01*
X172962Y467868D02*
X226060D01*
X167894Y462788D02*
X224790D01*
X58420Y564252D02*
X164964Y457708D01*
X210312D01*
X193294Y447548D02*
X243586D01*
X162560Y452628D02*
X200152D01*
X66936Y548252D02*
X162560Y452628D01*
X52578Y548252D02*
X66936D01*
X150362Y447548D02*
X193294D01*
X57658Y540252D02*
X150362Y447548D01*
X237998Y606806D02*
X249936Y594868D01*
X168656Y606806D02*
X237998D01*
X155194Y620268D02*
X168656Y606806D01*
X52578Y660252D02*
X92562Y620268D01*
X155194D01*
X215646Y602488D02*
X228600Y589534D01*
X52578Y652252D02*
X102342Y602488D01*
X215646D01*
X215138Y585216D02*
X220980Y579374D01*
X103614Y585216D02*
X215138D01*
X219456Y589280D02*
X224282Y584454D01*
X107550Y589280D02*
X219456D01*
X58420Y363982D02*
X118364Y304038D01*
X27432Y363982D02*
X58420D01*
X27432Y352982D02*
X58498D01*
X113284Y298196D01*
X52578Y500252D02*
X60580D01*
X128524Y432308D01*
X100076Y358902D02*
X130302Y328676D01*
X141732D01*
X465135Y498409D02*
X493268Y526542D01*
Y559308D01*
X444690Y509200D02*
Y622490D01*
X472440Y650240D01*
X243078Y484886D02*
X265830Y507637D01*
X315322D01*
X315722Y507238D01*
X100076Y358902D02*
Y439420D01*
X105918Y445262D01*
X116840Y434340D02*
X119768D01*
X105918Y445262D02*
X116840Y434340D01*
X230124Y654558D02*
Y678680D01*
X127254Y320040D02*
X455168D01*
X460756Y325628D01*
X244348Y781050D02*
X248050D01*
X293878Y826878D01*
Y852932D01*
X181610Y863600D02*
X189010Y871000D01*
X295148D01*
Y856852D02*
Y871000D01*
X318523Y826763D02*
Y843019D01*
X295148Y856852D02*
X306000Y846000D01*
X315542D01*
X318523Y843019D01*
X250444Y814578D02*
X256730D01*
X270129Y827977D01*
Y851281D01*
X324097Y826903D02*
Y848113D01*
X341000Y811000D02*
Y811662D01*
X324097Y826903D02*
X339338Y811662D01*
X341000D01*
X420497Y858503D02*
Y904113D01*
X547123Y811523D02*
Y842441D01*
X551180Y812136D02*
Y845608D01*
X420497Y858503D02*
X436559Y842441D01*
X547123D01*
X435610Y863600D02*
X453602Y845608D01*
X551180D01*
X562610Y831390D02*
Y838200D01*
Y831390D02*
X600885Y793115D01*
X736346D01*
X574548Y827452D02*
Y851662D01*
Y827452D02*
X605075Y796925D01*
X731520D01*
X588010Y829990D02*
Y838200D01*
Y829990D02*
X617773Y800227D01*
X726440D01*
X600964Y823036D02*
Y850646D01*
Y823036D02*
X620383Y803617D01*
X720090D01*
X514431Y730286D02*
X514525D01*
X510911Y733806D02*
X514431Y730286D01*
X510911Y733806D02*
Y739639D01*
X506561Y743989D02*
X510911Y739639D01*
X502288Y743989D02*
X506561D01*
X498500Y739250D02*
Y740201D01*
X502288Y743989D01*
X346075Y812925D02*
Y851535D01*
Y812925D02*
X362500Y796500D01*
X372000D01*
X372536Y772750D02*
X543224D01*
X372745Y815755D02*
Y850265D01*
X389519Y798789D02*
X389711D01*
X372745Y815755D02*
X389711Y798789D01*
D37*
X492690Y477200D02*
X570164D01*
X461010Y83058D02*
X613664Y235712D01*
X279908Y67564D02*
X347980Y135636D01*
X387604Y129286D02*
X462892D01*
X464924Y131318D01*
X316230Y81280D02*
X364236Y129286D01*
X387604D01*
X464924Y209700D02*
Y233172D01*
X419406Y135636D02*
X440911D01*
X347980D02*
X419406D01*
X406406Y140462D02*
Y161544D01*
X441452D01*
X445406Y140131D02*
Y140462D01*
X440911Y135636D02*
X445406Y140131D01*
X441452Y161544D02*
X451906Y171998D01*
Y225298D01*
X419406Y233172D02*
X464670D01*
X419406Y225298D02*
Y233172D01*
X464924Y131318D02*
Y209700D01*
X165608Y55880D02*
X257810D01*
X265430Y48260D01*
X346710D01*
X381508Y83058D01*
X461010D01*
X272288Y67564D02*
X279908D01*
X245256Y297434D02*
X334518D01*
X500690Y501200D02*
X557530D01*
D38*
X0Y0D02*
X81280D01*
Y29210D01*
X170180D01*
Y0D02*
Y29210D01*
Y0D02*
X351790D01*
Y29210D01*
X554990D01*
Y0D02*
Y29210D01*
Y0D02*
X892810D01*
Y679450D01*
X847090D02*
X892810D01*
X847090D02*
Y958850D01*
X554990D02*
X847090D01*
X554990Y929640D02*
Y958850D01*
X351790Y929640D02*
X554990D01*
X351790D02*
Y958850D01*
X46990D02*
X351790D01*
X0Y0D02*
Y165100D01*
X-8890D02*
X0D01*
X-8890D02*
Y377825D01*
X7620D01*
Y581025D01*
X-8890D02*
X7620D01*
X-8890D02*
Y825500D01*
X46990Y897890D02*
Y958850D01*
X-8890Y825500D02*
Y842010D01*
X46990Y897890D01*
D40*
X786384Y481838D02*
D03*
X710438Y478028D02*
D03*
X827278Y316992D02*
D03*
X847598Y622554D02*
D03*
X562610Y831880D02*
D03*
X588010D02*
D03*
X156210Y857280D02*
D03*
X181610D02*
D03*
X232410D02*
D03*
X257810D02*
D03*
X283210D02*
D03*
X308610D02*
D03*
X334010D02*
D03*
X359410D02*
D03*
X384810D02*
D03*
X410210D02*
D03*
X435610D02*
D03*
X562610D02*
D03*
X588010D02*
D03*
X410210Y908080D02*
D03*
D44*
X424521Y606030D02*
D03*
X389519Y798789D02*
D03*
X372000Y796500D02*
D03*
X338212Y755000D02*
D03*
X346212D02*
D03*
X330212D02*
D03*
X593598Y718202D02*
D03*
X466852Y605536D02*
D03*
X492690Y477200D02*
D03*
X595846Y668528D02*
D03*
X680212Y468122D02*
D03*
X629666Y477520D02*
D03*
X579628Y490474D02*
D03*
X484817Y485200D02*
D03*
X475742Y437388D02*
D03*
X757682Y803656D02*
D03*
X752602Y807974D02*
D03*
X747268Y812546D02*
D03*
X736346Y806196D02*
D03*
X731520Y809752D02*
D03*
X726440Y813054D02*
D03*
X720344Y810006D02*
D03*
X581914Y589788D02*
D03*
X586740Y586486D02*
D03*
X595846Y698956D02*
D03*
X539496Y590296D02*
D03*
X271018Y490220D02*
D03*
X298470Y503192D02*
D03*
X575314Y533908D02*
D03*
X584516Y494092D02*
D03*
X139700Y811784D02*
D03*
X556006Y632460D02*
D03*
X488847Y343916D02*
D03*
X127254Y320040D02*
D03*
X141478Y404876D02*
D03*
X372618Y347218D02*
D03*
X147574Y309880D02*
D03*
X153670Y336550D02*
D03*
X544068Y596138D02*
D03*
X536194Y518414D02*
D03*
X520954Y547878D02*
D03*
X457200Y472440D02*
D03*
X466344Y564896D02*
D03*
X582168Y533908D02*
D03*
X601726Y557530D02*
D03*
X430784Y354076D02*
D03*
X314706Y480060D02*
D03*
X324104Y462788D02*
D03*
X402844Y346710D02*
D03*
X429006Y359156D02*
D03*
X419406Y135636D02*
D03*
X451906Y225298D02*
D03*
X280924Y569214D02*
D03*
X467614Y580136D02*
D03*
X521716Y711708D02*
D03*
X526796Y716788D02*
D03*
X531876Y721868D02*
D03*
X510911Y688340D02*
D03*
X291846Y642589D02*
D03*
X370078Y551434D02*
D03*
X442212Y691896D02*
D03*
X434212D02*
D03*
X362212D02*
D03*
X255778Y482854D02*
D03*
X257556Y574294D02*
D03*
X323850Y484124D02*
D03*
X311150Y461518D02*
D03*
X52578Y660252D02*
D03*
Y652252D02*
D03*
Y644252D02*
D03*
Y636252D02*
D03*
X188722Y620252D02*
D03*
X388690Y453200D02*
D03*
X387604Y129286D02*
D03*
X464924Y209700D02*
D03*
X419406Y225298D02*
D03*
X406406Y140462D02*
D03*
X445406D02*
D03*
X396690Y509200D02*
D03*
X388690Y493200D02*
D03*
Y485200D02*
D03*
Y477200D02*
D03*
Y469200D02*
D03*
X436690Y405200D02*
D03*
X460690D02*
D03*
X476690D02*
D03*
X484690Y413200D02*
D03*
X492690Y420946D02*
D03*
Y437200D02*
D03*
X484690D02*
D03*
X492690Y445200D02*
D03*
Y461200D02*
D03*
Y469200D02*
D03*
X500690Y501200D02*
D03*
X460690Y509200D02*
D03*
X452690D02*
D03*
X444690D02*
D03*
X428690D02*
D03*
X420690D02*
D03*
X396690Y501200D02*
D03*
X468690Y405200D02*
D03*
X52578Y500252D02*
D03*
Y516252D02*
D03*
Y524252D02*
D03*
Y540252D02*
D03*
Y548252D02*
D03*
Y564252D02*
D03*
Y572252D02*
D03*
X305054Y480060D02*
D03*
X190500Y500252D02*
D03*
Y516252D02*
D03*
Y524252D02*
D03*
Y540252D02*
D03*
Y548252D02*
D03*
X306578Y516252D02*
D03*
X289310Y524252D02*
D03*
X261360Y540252D02*
D03*
X278384Y501650D02*
D03*
X315722Y507492D02*
D03*
X52578Y588252D02*
D03*
Y612252D02*
D03*
Y620252D02*
D03*
Y628252D02*
D03*
X415166Y589534D02*
D03*
X384810Y604520D02*
D03*
X346710Y614680D02*
D03*
X390144Y571500D02*
D03*
X420690Y594868D02*
D03*
X400558Y604520D02*
D03*
X259334Y599694D02*
D03*
X365760Y629666D02*
D03*
X372364Y635254D02*
D03*
X478028Y641096D02*
D03*
X505714D02*
D03*
X425196Y706628D02*
D03*
X350262Y524252D02*
D03*
X161290Y432308D02*
D03*
X168148Y437388D02*
D03*
X175768Y442468D02*
D03*
X193294Y447548D02*
D03*
X200152Y452628D02*
D03*
X210312Y457708D02*
D03*
X224790Y462788D02*
D03*
X243078Y484886D02*
D03*
X264160Y579374D02*
D03*
X327406Y653542D02*
D03*
X343408Y653796D02*
D03*
X450212Y691896D02*
D03*
X458212D02*
D03*
X188722Y692252D02*
D03*
X230124Y627888D02*
D03*
X283972Y635254D02*
D03*
X293490Y546354D02*
D03*
X260858Y511683D02*
D03*
X788924Y748956D02*
D03*
X614934Y651764D02*
D03*
X466660Y445200D02*
D03*
X463042Y449580D02*
D03*
X530606Y574421D02*
D03*
X583692Y408940D02*
D03*
X628650Y460248D02*
D03*
X590550Y422402D02*
D03*
X113284Y298196D02*
D03*
X219710Y813562D02*
D03*
X250444Y814578D02*
D03*
X412690Y405200D02*
D03*
X125984Y420370D02*
D03*
X118364Y304038D02*
D03*
X566166Y342646D02*
D03*
X592836Y592836D02*
D03*
X603504Y580898D02*
D03*
X526415Y569087D02*
D03*
X639572Y462280D02*
D03*
X532384Y449072D02*
D03*
X492690Y429454D02*
D03*
X551688Y385064D02*
D03*
X425196Y691896D02*
D03*
X428498Y552958D02*
D03*
X272288Y67564D02*
D03*
X333248Y653542D02*
D03*
X312674Y648716D02*
D03*
X334518Y297434D02*
D03*
X712978Y400050D02*
D03*
X804418Y623062D02*
D03*
X165608Y55880D02*
D03*
X793242Y743956D02*
D03*
X530606Y529082D02*
D03*
X27432Y363982D02*
D03*
Y352982D02*
D03*
X105918Y445262D02*
D03*
X141732Y328676D02*
D03*
X244348Y781050D02*
D03*
X460756Y325628D02*
D03*
X341000Y811000D02*
D03*
X470000Y812250D02*
D03*
X498500Y739250D02*
D03*
X514525Y730286D02*
D03*
D45*
X570164Y477454D02*
D03*
X613664Y235712D02*
D03*
X316230Y81280D02*
D03*
X245256Y297434D02*
D03*
X557530Y501200D02*
D03*
M02*
