%FSLAX44Y44*%
%MOMM*%
G71*
G01*
G75*
G04 Layer_Color=128*
%ADD10R,0.7000X0.9000*%
%ADD11R,1.5000X1.3000*%
%ADD12R,2.2000X2.6000*%
%ADD13R,1.2000X1.5000*%
%ADD14R,1.2000X1.4000*%
%ADD15R,1.4000X1.2000*%
%ADD16R,1.1000X1.0000*%
%ADD17R,2.6000X2.2000*%
%ADD18R,0.3500X1.5500*%
%ADD19O,0.3500X1.5500*%
%ADD20R,4.2000X3.1000*%
%ADD21R,0.6000X1.4000*%
%ADD22O,1.0000X0.4000*%
%ADD23R,1.0000X0.4000*%
%ADD24R,1.9000X1.3000*%
%ADD25R,2.8000X1.0000*%
%ADD26R,0.8000X1.0000*%
%ADD27R,1.2000X1.0000*%
%ADD28R,1.2000X0.7000*%
%ADD29O,0.5500X1.5500*%
%ADD30C,0.3500*%
%ADD31R,1.0000X0.3000*%
%ADD32R,1.0500X0.4000*%
%ADD33R,2.5000X0.5000*%
%ADD34R,2.5000X2.0000*%
%ADD35R,1.5000X1.2000*%
%ADD36C,0.1778*%
%ADD37C,0.3048*%
%ADD38C,0.2540*%
%ADD39R,1.5000X1.5000*%
%ADD40C,1.5000*%
%ADD41R,1.5000X1.5000*%
%ADD42C,6.3500*%
%ADD43C,1.3000*%
%ADD44C,0.5080*%
%ADD45C,0.5588*%
%ADD46C,1.0160*%
%ADD47C,1.9160*%
%ADD48C,1.0160*%
%ADD49C,1.0668*%
%ADD50C,0.3810*%
%ADD51C,4.1910*%
%ADD52R,0.9000X0.7000*%
%ADD53R,1.0500X1.3000*%
%ADD54R,1.4000X3.3000*%
%ADD55R,1.3000X1.9000*%
%ADD56C,0.2500*%
%ADD57C,0.2000*%
%ADD58C,0.6000*%
%ADD59C,0.3000*%
%ADD60C,0.2032*%
%ADD61C,0.1000*%
%ADD62C,0.1270*%
%ADD63R,0.9032X1.1032*%
%ADD64R,1.7032X1.5032*%
%ADD65R,2.4032X2.8032*%
%ADD66R,1.4032X1.7032*%
%ADD67R,1.4032X1.6032*%
%ADD68R,1.6032X1.4032*%
%ADD69R,1.3032X1.2032*%
%ADD70R,2.8032X2.4032*%
%ADD71R,0.5532X1.7532*%
%ADD72O,0.5532X1.7532*%
%ADD73R,4.4032X3.3032*%
%ADD74R,0.8032X1.6032*%
%ADD75O,1.2032X0.6032*%
%ADD76R,1.2032X0.6032*%
%ADD77R,2.1032X1.5032*%
%ADD78R,3.0032X1.2032*%
%ADD79R,1.0032X1.2032*%
%ADD80R,1.4032X1.2032*%
%ADD81R,1.4032X0.9032*%
%ADD82O,0.7532X1.7532*%
%ADD83C,0.5532*%
%ADD84R,1.2032X0.5032*%
%ADD85R,1.2532X0.6032*%
%ADD86R,2.7032X0.7032*%
%ADD87R,2.7032X2.2032*%
%ADD88R,1.7032X1.4032*%
%ADD89R,1.7032X1.7032*%
%ADD90C,1.7032*%
%ADD91R,1.7032X1.7032*%
%ADD92C,6.5532*%
%ADD93C,1.5032*%
%ADD94C,0.7112*%
%ADD95C,0.7620*%
%ADD96R,1.1032X0.9032*%
%ADD97R,1.2532X1.5032*%
%ADD98R,1.6032X3.5032*%
%ADD99R,1.5032X2.1032*%
D10*
X500690Y518010D02*
D03*
Y531010D02*
D03*
X488742Y507700D02*
D03*
Y494700D02*
D03*
X508254Y380388D02*
D03*
Y367388D02*
D03*
X460756Y510136D02*
D03*
Y523136D02*
D03*
D11*
X600456Y217780D02*
D03*
Y198780D02*
D03*
D14*
X319372Y50546D02*
D03*
X299372D02*
D03*
X242476Y51308D02*
D03*
X262476D02*
D03*
X520606Y533908D02*
D03*
X540606D02*
D03*
X631030Y716242D02*
D03*
X611030D02*
D03*
X692310Y424180D02*
D03*
X712310D02*
D03*
X361536Y223266D02*
D03*
X341536D02*
D03*
X767936Y316738D02*
D03*
X747936D02*
D03*
X339184Y372364D02*
D03*
X319184D02*
D03*
D15*
X84836Y328582D02*
D03*
Y348582D02*
D03*
X733044Y472788D02*
D03*
Y452788D02*
D03*
X817880Y459646D02*
D03*
Y479646D02*
D03*
X345694Y155100D02*
D03*
Y175100D02*
D03*
X524256Y203360D02*
D03*
Y223360D02*
D03*
X524510Y154592D02*
D03*
Y174592D02*
D03*
X531622Y484792D02*
D03*
Y504792D02*
D03*
X833374Y382938D02*
D03*
Y402938D02*
D03*
X817118Y786798D02*
D03*
Y806798D02*
D03*
X801116Y665640D02*
D03*
Y685640D02*
D03*
X158750Y631030D02*
D03*
Y611030D02*
D03*
D17*
X285896Y86360D02*
D03*
X335896D02*
D03*
X49930Y394462D02*
D03*
X99930D02*
D03*
D35*
X53086Y361774D02*
D03*
Y339774D02*
D03*
X569976Y223846D02*
D03*
Y201846D02*
D03*
X309118Y208104D02*
D03*
Y186104D02*
D03*
X418338Y655496D02*
D03*
Y677496D02*
D03*
D38*
X0Y0D02*
X81280D01*
Y29210D01*
X170180D01*
Y0D02*
Y29210D01*
Y0D02*
X351790D01*
Y29210D01*
X554990D01*
Y0D02*
Y29210D01*
Y0D02*
X892810D01*
Y679450D01*
X847090D02*
X892810D01*
X847090D02*
Y958850D01*
X554990D02*
X847090D01*
X554990Y929640D02*
Y958850D01*
X351790Y929640D02*
X554990D01*
X351790D02*
Y958850D01*
X46990D02*
X351790D01*
X0Y0D02*
Y165100D01*
X-8890D02*
X0D01*
X-8890D02*
Y377825D01*
X7620D01*
Y581025D01*
X-8890D02*
X7620D01*
X-8890D02*
Y825500D01*
X46990Y897890D02*
Y958850D01*
X-8890Y825500D02*
Y842010D01*
X46990Y897890D01*
D52*
X404726Y437388D02*
D03*
X417726D02*
D03*
X372260Y421132D02*
D03*
X359260D02*
D03*
X372260Y406908D02*
D03*
X359260D02*
D03*
X436730Y421894D02*
D03*
X449730D02*
D03*
X366626Y461264D02*
D03*
X379626D02*
D03*
X417726Y479806D02*
D03*
X404726D02*
D03*
X478640Y389128D02*
D03*
X491640D02*
D03*
X349100Y434340D02*
D03*
X362100D02*
D03*
X475130Y461010D02*
D03*
X462130D02*
D03*
X438000Y492760D02*
D03*
X451000D02*
D03*
X404772Y390144D02*
D03*
X391772D02*
D03*
X377340Y378206D02*
D03*
X364340D02*
D03*
D53*
X306176Y423488D02*
D03*
Y400488D02*
D03*
X287676Y423488D02*
D03*
Y400488D02*
D03*
D54*
X446736Y259080D02*
D03*
X408736D02*
D03*
X370536D02*
D03*
X332536D02*
D03*
X484936D02*
D03*
X522936D02*
D03*
D55*
X705680Y534926D02*
D03*
X650680D02*
D03*
Y566926D02*
D03*
X705680D02*
D03*
M02*
