M48
;Layer_Color=9474304
;FILE_FORMAT=4:4
METRIC,LZ
;TYPE=PLATED
T1F00S00C0.2540
%
T01
X0041269Y004052
X0046069
X0046869
X0048469Y004132
X00583692Y0040894
X0049269Y00429454
Y004612
Y004772
X00484817Y004852
X0046069Y005092
X0042069
X0039669
Y005012
X0038869Y004932
Y004852
Y004772
Y004692
Y004532
X00424521Y0060603
X00478028Y00641096
X00291846Y00642589
X00283972Y00635254
M30
