%FSLAX44Y44*%
%MOMM*%
G71*
G01*
G75*
G04 Layer_Color=8388736*
%ADD10R,0.7000X0.9000*%
%ADD11R,1.5000X1.3000*%
%ADD12R,2.2000X2.6000*%
%ADD13R,1.2000X1.5000*%
%ADD14R,1.2000X1.4000*%
%ADD15R,1.4000X1.2000*%
%ADD16R,1.1000X1.0000*%
%ADD17R,2.6000X2.2000*%
%ADD18R,0.3500X1.5500*%
%ADD19O,0.3500X1.5500*%
%ADD20R,4.2000X3.1000*%
%ADD21R,0.6000X1.4000*%
%ADD22O,1.0000X0.4000*%
%ADD23R,1.0000X0.4000*%
%ADD24R,1.9000X1.3000*%
%ADD25R,2.8000X1.0000*%
%ADD26R,0.8000X1.0000*%
%ADD27R,1.2000X1.0000*%
%ADD28R,1.2000X0.7000*%
%ADD29O,0.5500X1.5500*%
%ADD30C,0.3500*%
%ADD31R,1.0000X0.3000*%
%ADD32R,1.0500X0.4000*%
%ADD33R,2.5000X0.5000*%
%ADD34R,2.5000X2.0000*%
%ADD35R,1.5000X1.2000*%
%ADD36C,0.1778*%
%ADD37C,0.3048*%
%ADD38C,0.2540*%
%ADD39R,1.5000X1.5000*%
%ADD40C,1.5000*%
%ADD41R,1.5000X1.5000*%
%ADD42C,6.3500*%
%ADD43C,1.3000*%
%ADD44C,0.5080*%
%ADD45C,0.5588*%
%ADD46C,1.0160*%
%ADD47C,1.9160*%
%ADD48C,1.0160*%
%ADD49C,1.0668*%
%ADD50C,0.3810*%
%ADD51C,4.1910*%
%ADD52R,0.9000X0.7000*%
%ADD53R,1.0500X1.3000*%
%ADD54R,1.4000X3.3000*%
%ADD55R,1.3000X1.9000*%
%ADD56C,0.2500*%
%ADD57C,0.2000*%
%ADD58C,0.6000*%
%ADD59C,0.3000*%
%ADD60C,0.2032*%
%ADD61C,0.1000*%
%ADD62C,0.1270*%
%ADD63R,0.9032X1.1032*%
%ADD64R,1.7032X1.5032*%
%ADD65R,2.4032X2.8032*%
%ADD66R,1.4032X1.7032*%
%ADD67R,1.4032X1.6032*%
%ADD68R,1.6032X1.4032*%
%ADD69R,1.3032X1.2032*%
%ADD70R,2.8032X2.4032*%
%ADD71R,0.5532X1.7532*%
%ADD72O,0.5532X1.7532*%
%ADD73R,4.4032X3.3032*%
%ADD74R,0.8032X1.6032*%
%ADD75O,1.2032X0.6032*%
%ADD76R,1.2032X0.6032*%
%ADD77R,2.1032X1.5032*%
%ADD78R,3.0032X1.2032*%
%ADD79R,1.0032X1.2032*%
%ADD80R,1.4032X1.2032*%
%ADD81R,1.4032X0.9032*%
%ADD82O,0.7532X1.7532*%
%ADD83C,0.5532*%
%ADD84R,1.2032X0.5032*%
%ADD85R,1.2532X0.6032*%
%ADD86R,2.7032X0.7032*%
%ADD87R,2.7032X2.2032*%
%ADD88R,1.7032X1.4032*%
%ADD89R,1.7032X1.7032*%
%ADD90C,1.7032*%
%ADD91R,1.7032X1.7032*%
%ADD92C,6.5532*%
%ADD93C,1.5032*%
%ADD94C,0.7112*%
%ADD95C,0.7620*%
D38*
X0Y0D02*
X81280D01*
Y29210D01*
X170180D01*
Y0D02*
Y29210D01*
Y0D02*
X351790D01*
Y29210D01*
X554990D01*
Y0D02*
Y29210D01*
Y0D02*
X892810D01*
Y679450D01*
X847090D02*
X892810D01*
X847090D02*
Y958850D01*
X554990D02*
X847090D01*
X554990Y929640D02*
Y958850D01*
X351790Y929640D02*
X554990D01*
X351790D02*
Y958850D01*
X46990D02*
X351790D01*
X0Y0D02*
Y165100D01*
X-8890D02*
X0D01*
X-8890D02*
Y377825D01*
X7620D01*
Y581025D01*
X-8890D02*
X7620D01*
X-8890D02*
Y825500D01*
X46990Y897890D02*
Y958850D01*
X-8890Y825500D02*
Y842010D01*
X46990Y897890D01*
D63*
X316992Y404264D02*
D03*
Y391264D02*
D03*
Y423522D02*
D03*
Y436522D02*
D03*
X701802Y313794D02*
D03*
Y326794D02*
D03*
X699770Y535074D02*
D03*
Y522074D02*
D03*
X677418Y535282D02*
D03*
Y548282D02*
D03*
D64*
X432816Y102260D02*
D03*
Y121260D02*
D03*
X300736Y222860D02*
D03*
Y203860D02*
D03*
X382016Y258420D02*
D03*
Y239420D02*
D03*
X437896Y258420D02*
D03*
Y239420D02*
D03*
X529336Y207620D02*
D03*
Y188620D02*
D03*
D65*
X387096Y61360D02*
D03*
Y111360D02*
D03*
X672338Y141840D02*
D03*
Y91840D02*
D03*
D66*
X270500Y786250D02*
D03*
X292500D02*
D03*
X202614Y556252D02*
D03*
X224614D02*
D03*
X202614Y524000D02*
D03*
X224614D02*
D03*
X202614Y700252D02*
D03*
X224614D02*
D03*
X202614Y596252D02*
D03*
X224614D02*
D03*
X202614Y492252D02*
D03*
X224614D02*
D03*
D67*
X712884Y174498D02*
D03*
X732884D02*
D03*
X224442Y81280D02*
D03*
X244442D02*
D03*
X206662Y177292D02*
D03*
X226662D02*
D03*
X224442Y30988D02*
D03*
X244442D02*
D03*
X275176Y223520D02*
D03*
X255176D02*
D03*
D68*
X796798Y683100D02*
D03*
Y663100D02*
D03*
X625348Y569054D02*
D03*
Y549054D02*
D03*
X478536Y142400D02*
D03*
Y162400D02*
D03*
X479298Y193200D02*
D03*
Y213200D02*
D03*
X205740Y141826D02*
D03*
Y121826D02*
D03*
X670306Y484030D02*
D03*
Y504030D02*
D03*
X797814Y779940D02*
D03*
Y799940D02*
D03*
X522224Y122776D02*
D03*
Y102776D02*
D03*
X74930Y451706D02*
D03*
Y431706D02*
D03*
D69*
X304156Y81280D02*
D03*
X287156D02*
D03*
X304156Y55880D02*
D03*
X287156D02*
D03*
X304156Y30480D02*
D03*
X287156D02*
D03*
D70*
X295256Y137160D02*
D03*
X245256D02*
D03*
D71*
X393406Y154130D02*
D03*
D72*
X399906D02*
D03*
X406406D02*
D03*
X412906D02*
D03*
X419406D02*
D03*
X425906D02*
D03*
X432406D02*
D03*
X438906D02*
D03*
X445406D02*
D03*
X451906D02*
D03*
X393406Y211630D02*
D03*
X399906D02*
D03*
X406406D02*
D03*
X412906D02*
D03*
X419406D02*
D03*
X425906D02*
D03*
X432406D02*
D03*
X438906D02*
D03*
X445406D02*
D03*
X451906D02*
D03*
D73*
X422656Y182880D02*
D03*
D74*
X204876Y203860D02*
D03*
X223876D02*
D03*
X214376Y222860D02*
D03*
D75*
X66422Y700252D02*
D03*
Y692252D02*
D03*
Y684252D02*
D03*
Y676252D02*
D03*
Y668252D02*
D03*
Y660252D02*
D03*
Y652252D02*
D03*
Y644252D02*
D03*
Y636252D02*
D03*
Y628252D02*
D03*
Y620252D02*
D03*
Y612252D02*
D03*
Y604252D02*
D03*
Y596252D02*
D03*
Y588252D02*
D03*
Y580252D02*
D03*
Y572252D02*
D03*
Y564252D02*
D03*
Y556252D02*
D03*
Y548252D02*
D03*
Y540252D02*
D03*
Y532252D02*
D03*
Y524252D02*
D03*
Y516252D02*
D03*
Y508252D02*
D03*
Y500252D02*
D03*
Y492252D02*
D03*
X176022Y700252D02*
D03*
Y692252D02*
D03*
Y684252D02*
D03*
Y676252D02*
D03*
Y668252D02*
D03*
Y660252D02*
D03*
Y652252D02*
D03*
Y644252D02*
D03*
Y636252D02*
D03*
Y628252D02*
D03*
Y620252D02*
D03*
Y612252D02*
D03*
Y604252D02*
D03*
Y596252D02*
D03*
Y588252D02*
D03*
Y580252D02*
D03*
Y572252D02*
D03*
Y564252D02*
D03*
Y556252D02*
D03*
Y548252D02*
D03*
Y540252D02*
D03*
Y532252D02*
D03*
Y524252D02*
D03*
Y516252D02*
D03*
Y508252D02*
D03*
Y500252D02*
D03*
D76*
Y492252D02*
D03*
D77*
X190370Y402982D02*
D03*
D78*
X185870Y267982D02*
D03*
D79*
X144370D02*
D03*
D80*
X39370Y379482D02*
D03*
X82370Y267982D02*
D03*
D81*
X39370Y363982D02*
D03*
Y352982D02*
D03*
Y341982D02*
D03*
Y330982D02*
D03*
Y319982D02*
D03*
Y308982D02*
D03*
Y297982D02*
D03*
Y286982D02*
D03*
Y277482D02*
D03*
D82*
X490212Y784472D02*
D03*
X498212D02*
D03*
X474212D02*
D03*
X482212D02*
D03*
X522212D02*
D03*
X530212D02*
D03*
X506212D02*
D03*
X514212D02*
D03*
X434212D02*
D03*
X442212D02*
D03*
X418212D02*
D03*
X426212D02*
D03*
X458212D02*
D03*
X466212D02*
D03*
X450212D02*
D03*
X530212Y672472D02*
D03*
X514212D02*
D03*
X522212D02*
D03*
X498212D02*
D03*
X506212D02*
D03*
X482212D02*
D03*
X490212D02*
D03*
X442212D02*
D03*
X450212D02*
D03*
X426212D02*
D03*
X434212D02*
D03*
X466212D02*
D03*
X474212D02*
D03*
X458212D02*
D03*
X378212Y784472D02*
D03*
X386212D02*
D03*
X362212D02*
D03*
X370212D02*
D03*
X402212D02*
D03*
X410212D02*
D03*
X394212D02*
D03*
X346212D02*
D03*
X354212D02*
D03*
X330212D02*
D03*
X338212D02*
D03*
X322212D02*
D03*
X410212Y672472D02*
D03*
X418212D02*
D03*
X402212D02*
D03*
X386212D02*
D03*
X394212D02*
D03*
X370212D02*
D03*
X378212D02*
D03*
X354212D02*
D03*
X362212D02*
D03*
X338212D02*
D03*
X346212D02*
D03*
X322212D02*
D03*
X330212D02*
D03*
D83*
X504690Y393200D02*
D03*
X496690D02*
D03*
X488690D02*
D03*
X480690D02*
D03*
X472690D02*
D03*
X464690D02*
D03*
X456690D02*
D03*
X448690D02*
D03*
X440690D02*
D03*
X432690D02*
D03*
X424690D02*
D03*
X416690D02*
D03*
X408690D02*
D03*
X400690D02*
D03*
X392690D02*
D03*
X384690D02*
D03*
X376690D02*
D03*
X504690Y401200D02*
D03*
X496690D02*
D03*
X488690D02*
D03*
X480690D02*
D03*
X472690D02*
D03*
X464690D02*
D03*
X456690D02*
D03*
X448690D02*
D03*
X440690D02*
D03*
X432690D02*
D03*
X424690D02*
D03*
X416690D02*
D03*
X408690D02*
D03*
X400690D02*
D03*
X392690D02*
D03*
X384690D02*
D03*
X376690D02*
D03*
X504690Y409200D02*
D03*
X496690D02*
D03*
X488690D02*
D03*
X480690D02*
D03*
X472690D02*
D03*
X464690D02*
D03*
X456690D02*
D03*
X448690D02*
D03*
X440690D02*
D03*
X432690D02*
D03*
X424690D02*
D03*
X416690D02*
D03*
X408690D02*
D03*
X400690D02*
D03*
X392690D02*
D03*
X384690D02*
D03*
X376690D02*
D03*
X504690Y417200D02*
D03*
X496690D02*
D03*
X488690D02*
D03*
X480690D02*
D03*
X472690D02*
D03*
X464690D02*
D03*
X456690D02*
D03*
X448690D02*
D03*
X440690D02*
D03*
X432690D02*
D03*
X424690D02*
D03*
X416690D02*
D03*
X408690D02*
D03*
X400690D02*
D03*
X392690D02*
D03*
X384690D02*
D03*
X376690D02*
D03*
X504690Y425200D02*
D03*
X496690D02*
D03*
X488690D02*
D03*
X480690D02*
D03*
X400690D02*
D03*
X392690D02*
D03*
X384690D02*
D03*
X376690D02*
D03*
X504690Y433200D02*
D03*
X496690D02*
D03*
X488690D02*
D03*
X480690D02*
D03*
X400690D02*
D03*
X392690D02*
D03*
X384690D02*
D03*
X376690D02*
D03*
X504690Y441200D02*
D03*
X496690D02*
D03*
X488690D02*
D03*
X480690D02*
D03*
X400690D02*
D03*
X392690D02*
D03*
X384690D02*
D03*
X376690D02*
D03*
X504690Y449200D02*
D03*
X496690D02*
D03*
X488690D02*
D03*
X480690D02*
D03*
X448690D02*
D03*
X440690D02*
D03*
X432690D02*
D03*
X400690D02*
D03*
X392690D02*
D03*
X384690D02*
D03*
X376690D02*
D03*
X504690Y457200D02*
D03*
X496690D02*
D03*
X488690D02*
D03*
X480690D02*
D03*
X448690D02*
D03*
X440690D02*
D03*
X432690D02*
D03*
X400690D02*
D03*
X392690D02*
D03*
X384690D02*
D03*
X376690D02*
D03*
X504690Y465200D02*
D03*
X496690D02*
D03*
X488690D02*
D03*
X480690D02*
D03*
X448690D02*
D03*
X440690D02*
D03*
X432690D02*
D03*
X400690D02*
D03*
X392690D02*
D03*
X384690D02*
D03*
X376690D02*
D03*
X504690Y473200D02*
D03*
X496690D02*
D03*
X488690D02*
D03*
X480690D02*
D03*
X400690D02*
D03*
X392690D02*
D03*
X384690D02*
D03*
X376690D02*
D03*
X504690Y481200D02*
D03*
X496690D02*
D03*
X488690D02*
D03*
X480690D02*
D03*
X400690D02*
D03*
X392690D02*
D03*
X384690D02*
D03*
X376690D02*
D03*
X504690Y489200D02*
D03*
X496690D02*
D03*
X488690D02*
D03*
X480690D02*
D03*
X400690D02*
D03*
X392690D02*
D03*
X384690D02*
D03*
X376690D02*
D03*
X504690Y497200D02*
D03*
X496690D02*
D03*
X488690D02*
D03*
X480690D02*
D03*
X472690D02*
D03*
X464690D02*
D03*
X456690D02*
D03*
X448690D02*
D03*
X440690D02*
D03*
X432690D02*
D03*
X424690D02*
D03*
X416690D02*
D03*
X408690D02*
D03*
X400690D02*
D03*
X392690D02*
D03*
X384690D02*
D03*
X376690D02*
D03*
X504690Y505200D02*
D03*
X496690D02*
D03*
X488690D02*
D03*
X480690D02*
D03*
X472690D02*
D03*
X464690D02*
D03*
X456690D02*
D03*
X448690D02*
D03*
X440690D02*
D03*
X432690D02*
D03*
X424690D02*
D03*
X416690D02*
D03*
X408690D02*
D03*
X400690D02*
D03*
X392690D02*
D03*
X384690D02*
D03*
X376690D02*
D03*
X504690Y513200D02*
D03*
X496690D02*
D03*
X488690D02*
D03*
X480690D02*
D03*
X472690D02*
D03*
X464690D02*
D03*
X456690D02*
D03*
X448690D02*
D03*
X440690D02*
D03*
X432690D02*
D03*
X424690D02*
D03*
X416690D02*
D03*
X408690D02*
D03*
X400690D02*
D03*
X392690D02*
D03*
X384690D02*
D03*
X376690D02*
D03*
X504690Y521200D02*
D03*
X496690D02*
D03*
X488690D02*
D03*
X480690D02*
D03*
X472690D02*
D03*
X464690D02*
D03*
X456690D02*
D03*
X448690D02*
D03*
X440690D02*
D03*
X432690D02*
D03*
X424690D02*
D03*
X416690D02*
D03*
X408690D02*
D03*
X400690D02*
D03*
X392690D02*
D03*
X384690D02*
D03*
X376690D02*
D03*
D84*
X773160Y778956D02*
D03*
Y773956D02*
D03*
Y768956D02*
D03*
Y763956D02*
D03*
Y758956D02*
D03*
Y753956D02*
D03*
Y748956D02*
D03*
Y743956D02*
D03*
Y738956D02*
D03*
Y733956D02*
D03*
Y728956D02*
D03*
Y723956D02*
D03*
Y718956D02*
D03*
Y713956D02*
D03*
Y708956D02*
D03*
Y703956D02*
D03*
Y698956D02*
D03*
Y693956D02*
D03*
Y688956D02*
D03*
Y683956D02*
D03*
Y678956D02*
D03*
Y673956D02*
D03*
Y668956D02*
D03*
Y663956D02*
D03*
X579160Y778956D02*
D03*
Y773956D02*
D03*
Y768956D02*
D03*
Y763956D02*
D03*
Y758956D02*
D03*
Y753956D02*
D03*
Y748956D02*
D03*
Y743956D02*
D03*
Y738956D02*
D03*
Y733956D02*
D03*
Y728956D02*
D03*
Y723956D02*
D03*
Y718956D02*
D03*
Y713956D02*
D03*
Y708956D02*
D03*
Y703956D02*
D03*
Y698956D02*
D03*
Y693956D02*
D03*
Y688956D02*
D03*
Y683956D02*
D03*
Y678956D02*
D03*
Y673956D02*
D03*
Y668956D02*
D03*
Y663956D02*
D03*
D85*
X731478Y212806D02*
D03*
Y225806D02*
D03*
Y219306D02*
D03*
X712978D02*
D03*
Y225806D02*
D03*
Y212806D02*
D03*
D86*
X798592Y166624D02*
D03*
Y174624D02*
D03*
Y182624D02*
D03*
Y190624D02*
D03*
Y198624D02*
D03*
D87*
X800592Y138124D02*
D03*
Y227124D02*
D03*
X855592D02*
D03*
Y138124D02*
D03*
D88*
X751586Y132158D02*
D03*
Y110158D02*
D03*
X30734Y532208D02*
D03*
Y510208D02*
D03*
Y580312D02*
D03*
Y602312D02*
D03*
X813308Y751410D02*
D03*
Y729410D02*
D03*
X556260Y712392D02*
D03*
Y734392D02*
D03*
D89*
X847598Y510540D02*
D03*
X786384Y354838D02*
D03*
X710438Y452628D02*
D03*
X847598Y425958D02*
D03*
X571500Y128016D02*
D03*
X120396Y88392D02*
D03*
X847598Y647954D02*
D03*
D90*
Y535940D02*
D03*
Y561340D02*
D03*
X760984Y583438D02*
D03*
X786384D02*
D03*
X760984Y558038D02*
D03*
X786384D02*
D03*
X760984Y532638D02*
D03*
X786384D02*
D03*
X760984Y507238D02*
D03*
X786384D02*
D03*
X760984Y481838D02*
D03*
X786384D02*
D03*
X760984Y456438D02*
D03*
X786384D02*
D03*
X760984Y431038D02*
D03*
X786384D02*
D03*
X760984Y405638D02*
D03*
X786384D02*
D03*
X760984Y380238D02*
D03*
X786384D02*
D03*
X760984Y354838D02*
D03*
X710438Y478028D02*
D03*
X827278Y316992D02*
D03*
X801878D02*
D03*
X847598Y451358D02*
D03*
Y476758D02*
D03*
X571500Y102616D02*
D03*
X120396Y113792D02*
D03*
X667258Y314452D02*
D03*
X641858D02*
D03*
X616458D02*
D03*
X591058D02*
D03*
X847598Y597154D02*
D03*
Y622554D02*
D03*
X690372Y367030D02*
D03*
X130810Y857280D02*
D03*
Y831880D02*
D03*
X156210D02*
D03*
X181610D02*
D03*
X207010D02*
D03*
X232410D02*
D03*
X257810D02*
D03*
X283210D02*
D03*
X308610D02*
D03*
X334010D02*
D03*
X359410D02*
D03*
X384810D02*
D03*
X410210D02*
D03*
X435610D02*
D03*
X461010D02*
D03*
X486410D02*
D03*
X511810D02*
D03*
X537210D02*
D03*
X562610D02*
D03*
X588010D02*
D03*
X613410D02*
D03*
X638810D02*
D03*
X664210D02*
D03*
X689610D02*
D03*
X715010D02*
D03*
X740410D02*
D03*
X765810D02*
D03*
X156210Y857280D02*
D03*
X181610D02*
D03*
X207010D02*
D03*
X232410D02*
D03*
X257810D02*
D03*
X283210D02*
D03*
X308610D02*
D03*
X334010D02*
D03*
X359410D02*
D03*
X384810D02*
D03*
X410210D02*
D03*
X435610D02*
D03*
X461010D02*
D03*
X486410D02*
D03*
X511810D02*
D03*
X537210D02*
D03*
X562610D02*
D03*
X588010D02*
D03*
X613410D02*
D03*
X638810D02*
D03*
X664210D02*
D03*
X689610D02*
D03*
X715010D02*
D03*
X740410D02*
D03*
X765810D02*
D03*
X130810Y908080D02*
D03*
Y882680D02*
D03*
X156210D02*
D03*
X181610D02*
D03*
X207010D02*
D03*
X232410D02*
D03*
X257810D02*
D03*
X283210D02*
D03*
X308610D02*
D03*
X334010D02*
D03*
X359410D02*
D03*
X384810D02*
D03*
X410210D02*
D03*
X435610D02*
D03*
X461010D02*
D03*
X486410D02*
D03*
X511810D02*
D03*
X537210D02*
D03*
X562610D02*
D03*
X588010D02*
D03*
X613410D02*
D03*
X638810D02*
D03*
X664210D02*
D03*
X689610D02*
D03*
X715010D02*
D03*
X740410D02*
D03*
X765810D02*
D03*
X156210Y908080D02*
D03*
X181610D02*
D03*
X207010D02*
D03*
X232410D02*
D03*
X257810D02*
D03*
X283210D02*
D03*
X308610D02*
D03*
X334010D02*
D03*
X359410D02*
D03*
X384810D02*
D03*
X410210D02*
D03*
X435610D02*
D03*
X461010D02*
D03*
X486410D02*
D03*
X511810D02*
D03*
X537210D02*
D03*
X562610D02*
D03*
X588010D02*
D03*
X613410D02*
D03*
X638810D02*
D03*
X664210D02*
D03*
X689610D02*
D03*
X715010D02*
D03*
X740410D02*
D03*
X765810D02*
D03*
D91*
X852678Y316992D02*
D03*
X565658Y314452D02*
D03*
X715772Y367030D02*
D03*
D92*
X816430Y908100D02*
D03*
X79830D02*
D03*
X841831Y50800D02*
D03*
X41731Y50800D02*
D03*
D93*
X825592Y204624D02*
D03*
Y160624D02*
D03*
D94*
X391519Y625780D02*
D03*
X416520Y600529D02*
D03*
X424521Y606030D02*
D03*
X458212Y755000D02*
D03*
X490212Y755000D02*
D03*
X269750Y756500D02*
D03*
X389519Y798789D02*
D03*
X372000Y796500D02*
D03*
X338212Y755000D02*
D03*
X346212D02*
D03*
X330212D02*
D03*
X596265Y713326D02*
D03*
X593598Y718202D02*
D03*
X527500Y751461D02*
D03*
X534250Y753750D02*
D03*
X466852Y605536D02*
D03*
X492690Y477200D02*
D03*
X595846Y668528D02*
D03*
X493268Y325628D02*
D03*
X420624Y324612D02*
D03*
X680212Y468122D02*
D03*
X661162Y225806D02*
D03*
X325882Y404264D02*
D03*
Y423522D02*
D03*
X629666Y477520D02*
D03*
X599948Y456438D02*
D03*
X579628Y490474D02*
D03*
X484817Y485200D02*
D03*
X512188Y482470D02*
D03*
X717804Y464566D02*
D03*
X729234Y424180D02*
D03*
X797814Y760052D02*
D03*
X813816Y647954D02*
D03*
X475742Y437388D02*
D03*
X757682Y803656D02*
D03*
X752602Y807974D02*
D03*
X747268Y812546D02*
D03*
X736346Y806196D02*
D03*
X731520Y809752D02*
D03*
X726440Y813054D02*
D03*
X720344Y810006D02*
D03*
X532638Y601218D02*
D03*
X581914Y589788D02*
D03*
X586740Y586486D02*
D03*
X595846Y698956D02*
D03*
X388690Y445200D02*
D03*
X335534Y383286D02*
D03*
X539496Y590296D02*
D03*
X396690Y493200D02*
D03*
X404690D02*
D03*
X271018Y490220D02*
D03*
X298470Y503192D02*
D03*
X575314Y533908D02*
D03*
X584516Y494092D02*
D03*
X556006Y389636D02*
D03*
X602996Y396748D02*
D03*
X139700Y811784D02*
D03*
X482854Y295910D02*
D03*
X475996D02*
D03*
X68326Y393192D02*
D03*
X160528Y364998D02*
D03*
X403860Y357124D02*
D03*
X469519Y295910D02*
D03*
X461010D02*
D03*
X556006Y632460D02*
D03*
X454660Y295910D02*
D03*
X447802D02*
D03*
X588010Y533908D02*
D03*
X558419Y450469D02*
D03*
X533400Y591312D02*
D03*
X546608Y518414D02*
D03*
X541020Y455168D02*
D03*
X488847Y343916D02*
D03*
X127254Y320040D02*
D03*
X119761Y425577D02*
D03*
X447294Y342392D02*
D03*
X135890Y427482D02*
D03*
X141478Y404876D02*
D03*
X372618Y347218D02*
D03*
X147574Y414528D02*
D03*
Y309880D02*
D03*
X153670Y414274D02*
D03*
Y336550D02*
D03*
X544068Y596138D02*
D03*
X536194Y518414D02*
D03*
X569722Y596900D02*
D03*
X551180Y493776D02*
D03*
X542798Y446278D02*
D03*
X553720Y456692D02*
D03*
X520954Y547878D02*
D03*
X457200Y472440D02*
D03*
X466344Y564896D02*
D03*
X465582Y557530D02*
D03*
X551434Y431292D02*
D03*
X558038Y422402D02*
D03*
X582168Y533908D02*
D03*
X592836Y559308D02*
D03*
X569976Y490474D02*
D03*
X601726Y557530D02*
D03*
X397896Y371094D02*
D03*
X387350Y375412D02*
D03*
X392938Y346710D02*
D03*
X430784Y354076D02*
D03*
X503682Y302006D02*
D03*
X557530Y519550D02*
D03*
X314706Y480060D02*
D03*
X324104Y462788D02*
D03*
X402844Y346710D02*
D03*
X429006Y359156D02*
D03*
X475996Y485394D02*
D03*
X380690Y445200D02*
D03*
X416306Y426720D02*
D03*
X419406Y135636D02*
D03*
X451906Y225298D02*
D03*
X469750Y247246D02*
D03*
X280924Y569214D02*
D03*
X506222Y617982D02*
D03*
Y626110D02*
D03*
X476758Y617982D02*
D03*
X471805Y622046D02*
D03*
X467614Y580136D02*
D03*
X521716Y711708D02*
D03*
X526796Y716788D02*
D03*
X531876Y721868D02*
D03*
X510911Y688340D02*
D03*
X291846Y642589D02*
D03*
X340614Y557276D02*
D03*
X370078Y551434D02*
D03*
X482600Y631190D02*
D03*
X436690Y509200D02*
D03*
X442212Y691896D02*
D03*
X434212D02*
D03*
X410212D02*
D03*
X402212D02*
D03*
X394212D02*
D03*
X386212D02*
D03*
X362212D02*
D03*
X402212Y755000D02*
D03*
X394212D02*
D03*
X386212D02*
D03*
X378212D02*
D03*
X370212D02*
D03*
X362212D02*
D03*
X354212D02*
D03*
X439420Y554990D02*
D03*
X255778Y482854D02*
D03*
X124968Y394462D02*
D03*
X257556Y574294D02*
D03*
X323850Y484124D02*
D03*
X311150Y461518D02*
D03*
X52578Y692252D02*
D03*
Y684252D02*
D03*
Y676252D02*
D03*
Y668252D02*
D03*
Y660252D02*
D03*
Y652252D02*
D03*
Y644252D02*
D03*
Y636252D02*
D03*
X188722Y628252D02*
D03*
Y620252D02*
D03*
Y612252D02*
D03*
X148818Y552958D02*
D03*
X380690Y389200D02*
D03*
X388690Y453200D02*
D03*
X438912Y140462D02*
D03*
X387604Y129286D02*
D03*
X600456Y184150D02*
D03*
X213106Y204724D02*
D03*
X478536Y132588D02*
D03*
X464924Y209700D02*
D03*
X419406Y225298D02*
D03*
X321056Y224686D02*
D03*
X399906Y140462D02*
D03*
X425906Y225298D02*
D03*
X399906D02*
D03*
X432406D02*
D03*
X412906D02*
D03*
X393406Y140462D02*
D03*
X406406D02*
D03*
X445406D02*
D03*
X428754Y461264D02*
D03*
X436882D02*
D03*
X428754Y453136D02*
D03*
X436882D02*
D03*
X428754Y445264D02*
D03*
X436882D02*
D03*
X444754D02*
D03*
Y453264D02*
D03*
Y461264D02*
D03*
X413834Y471612D02*
D03*
X188722Y684252D02*
D03*
X404690Y509200D02*
D03*
X188722Y676252D02*
D03*
Y668252D02*
D03*
X396690Y509200D02*
D03*
X188722Y660252D02*
D03*
X412690Y501200D02*
D03*
X388690D02*
D03*
Y493200D02*
D03*
Y485200D02*
D03*
Y477200D02*
D03*
Y469200D02*
D03*
X396690D02*
D03*
Y461200D02*
D03*
Y429200D02*
D03*
X388690D02*
D03*
X396690Y421200D02*
D03*
Y413200D02*
D03*
X404690Y405200D02*
D03*
X412690Y413200D02*
D03*
X420690D02*
D03*
X428690Y397200D02*
D03*
Y405200D02*
D03*
Y413200D02*
D03*
X436690Y405200D02*
D03*
Y413200D02*
D03*
X452690Y405200D02*
D03*
X460690D02*
D03*
Y413200D02*
D03*
X468690D02*
D03*
X476690Y405200D02*
D03*
X484690Y413200D02*
D03*
X492690Y420946D02*
D03*
Y437200D02*
D03*
X484690D02*
D03*
X492690Y445200D02*
D03*
X484690D02*
D03*
X500690Y453200D02*
D03*
X492690D02*
D03*
X484690D02*
D03*
X492690Y461200D02*
D03*
X484690D02*
D03*
X492690Y469200D02*
D03*
X500690Y493200D02*
D03*
Y501200D02*
D03*
X460690Y509200D02*
D03*
X452690D02*
D03*
X444690D02*
D03*
X428690D02*
D03*
X420690Y501200D02*
D03*
Y509200D02*
D03*
X396690Y501200D02*
D03*
X388690Y397200D02*
D03*
X492690D02*
D03*
X468690Y405200D02*
D03*
X476690Y413200D02*
D03*
X500690Y509200D02*
D03*
X52578Y500252D02*
D03*
Y516252D02*
D03*
Y524252D02*
D03*
Y540252D02*
D03*
Y548252D02*
D03*
Y564252D02*
D03*
Y572252D02*
D03*
X305054Y480060D02*
D03*
X190500Y500252D02*
D03*
Y516252D02*
D03*
Y524252D02*
D03*
Y540252D02*
D03*
Y548252D02*
D03*
X306578Y516252D02*
D03*
X289310Y524252D02*
D03*
X261360Y540252D02*
D03*
X278384Y501650D02*
D03*
X315722Y507492D02*
D03*
X52578Y588252D02*
D03*
Y612252D02*
D03*
Y620252D02*
D03*
Y628252D02*
D03*
X415166Y589534D02*
D03*
X384810Y604520D02*
D03*
X387350Y609600D02*
D03*
X346710Y614680D02*
D03*
X390144Y571500D02*
D03*
X321310Y624840D02*
D03*
X308610Y620014D02*
D03*
X788924Y698956D02*
D03*
Y738956D02*
D03*
X52578Y319982D02*
D03*
X570230Y441962D02*
D03*
Y448692D02*
D03*
X432816Y612648D02*
D03*
X466212Y691896D02*
D03*
X474212D02*
D03*
X482212D02*
D03*
X498212D02*
D03*
X410212Y755000D02*
D03*
X474212D02*
D03*
X482212D02*
D03*
X420690Y594868D02*
D03*
X400558Y604520D02*
D03*
X259334Y599694D02*
D03*
X365760Y629666D02*
D03*
X372364Y635254D02*
D03*
X357378Y630428D02*
D03*
X437388Y605536D02*
D03*
X392805Y619373D02*
D03*
X424053Y622681D02*
D03*
X482600Y587502D02*
D03*
X470916Y635508D02*
D03*
X513080Y593344D02*
D03*
X462788Y656336D02*
D03*
X478028Y641096D02*
D03*
X505714D02*
D03*
X614934Y703580D02*
D03*
X148818Y636252D02*
D03*
X300736Y166220D02*
D03*
X425196Y706628D02*
D03*
X418212Y691896D02*
D03*
X379222Y626110D02*
D03*
X350262Y524252D02*
D03*
X161290Y432308D02*
D03*
X168148Y437388D02*
D03*
X175768Y442468D02*
D03*
X193294Y447548D02*
D03*
X200152Y452628D02*
D03*
X210312Y457708D02*
D03*
X224790Y462788D02*
D03*
X243078Y484886D02*
D03*
X264160Y579374D02*
D03*
X327406Y653542D02*
D03*
X255270Y533400D02*
D03*
X343408Y653796D02*
D03*
X450212Y691896D02*
D03*
X239522Y467868D02*
D03*
X458212Y691896D02*
D03*
X188722Y692252D02*
D03*
X230124Y627888D02*
D03*
X283972Y635254D02*
D03*
X293490Y546354D02*
D03*
X297688Y600202D02*
D03*
X260858Y511683D02*
D03*
X788924Y748956D02*
D03*
X482600Y564642D02*
D03*
X595846Y634238D02*
D03*
X614934Y743204D02*
D03*
Y651764D02*
D03*
X442976Y355346D02*
D03*
X465328Y343662D02*
D03*
X524764Y340614D02*
D03*
X498722Y576580D02*
D03*
X466660Y445200D02*
D03*
X463042Y449580D02*
D03*
X530606Y574421D02*
D03*
X583692Y408940D02*
D03*
X628650Y460248D02*
D03*
X484690Y429200D02*
D03*
X628650Y486724D02*
D03*
X590550Y422402D02*
D03*
X564642Y456946D02*
D03*
X85852Y568960D02*
D03*
X113284Y298196D02*
D03*
X219710Y813562D02*
D03*
X250444Y814578D02*
D03*
X412690Y405200D02*
D03*
X125984Y420370D02*
D03*
X164846Y352425D02*
D03*
X414274D02*
D03*
X131572Y521716D02*
D03*
X118364Y304038D02*
D03*
X692665Y385833D02*
D03*
X566166Y342646D02*
D03*
X553720Y365760D02*
D03*
X542290Y177546D02*
D03*
X505968Y589788D02*
D03*
X341630Y38100D02*
D03*
X592836Y592836D02*
D03*
X603504Y580898D02*
D03*
X526415Y569087D02*
D03*
X639572Y462280D02*
D03*
X532384Y449072D02*
D03*
X630936Y812800D02*
D03*
X492690Y429454D02*
D03*
X551688Y385064D02*
D03*
X462026Y441960D02*
D03*
X681736Y212806D02*
D03*
X396690Y453200D02*
D03*
X452882Y441960D02*
D03*
X425196Y691896D02*
D03*
X428498Y552958D02*
D03*
X490212Y691896D02*
D03*
X388690Y421200D02*
D03*
X272288Y67564D02*
D03*
X333248Y653542D02*
D03*
X312674Y648716D02*
D03*
X349250Y630079D02*
D03*
X619760Y476758D02*
D03*
X334518Y297434D02*
D03*
X712216Y390652D02*
D03*
X712978Y400050D02*
D03*
X742188Y434340D02*
D03*
X804418Y615442D02*
D03*
X596900Y536448D02*
D03*
X804418Y623062D02*
D03*
X733552Y548282D02*
D03*
Y526392D02*
D03*
X165608Y55880D02*
D03*
X733552Y517652D02*
D03*
X793242Y743956D02*
D03*
X330212Y691896D02*
D03*
X422656Y643382D02*
D03*
X530606Y529082D02*
D03*
X372182Y445200D02*
D03*
X353568Y442976D02*
D03*
X359410Y448310D02*
D03*
X347726Y459232D02*
D03*
X27432Y363982D02*
D03*
Y352982D02*
D03*
X105918Y445262D02*
D03*
Y431800D02*
D03*
X136652Y312674D02*
D03*
X50292Y297982D02*
D03*
X141732Y328676D02*
D03*
X50292Y286982D02*
D03*
X584200Y439166D02*
D03*
X244348Y781050D02*
D03*
X460756Y325628D02*
D03*
X341000Y811000D02*
D03*
X470000Y812250D02*
D03*
X617728Y820674D02*
D03*
X521250Y749000D02*
D03*
X498500Y739250D02*
D03*
X514525Y730286D02*
D03*
X498212Y755000D02*
D03*
X434212D02*
D03*
X442212D02*
D03*
X450212D02*
D03*
D95*
X732282Y497840D02*
D03*
X570164Y477454D02*
D03*
X613664Y235712D02*
D03*
X287676Y437282D02*
D03*
X306176Y389530D02*
D03*
X452690Y501200D02*
D03*
X406406Y225298D02*
D03*
X416710Y444650D02*
D03*
X359260Y399900D02*
D03*
Y414124D02*
D03*
X507144Y537464D02*
D03*
X54102Y326390D02*
D03*
X777842Y799940D02*
D03*
X773684Y654812D02*
D03*
X148590Y611124D02*
D03*
X476690Y469200D02*
D03*
X414928Y61360D02*
D03*
X450444Y102260D02*
D03*
X316230Y81280D02*
D03*
X437656Y182880D02*
D03*
X407656D02*
D03*
X422656D02*
D03*
X397256Y258318D02*
D03*
X423774Y258420D02*
D03*
X235204Y492252D02*
D03*
X239014Y596252D02*
D03*
X240284Y700278D02*
D03*
X237490Y508252D02*
D03*
X237744Y556252D02*
D03*
X189992Y532252D02*
D03*
Y580252D02*
D03*
X52578Y700252D02*
D03*
Y596252D02*
D03*
Y556252D02*
D03*
Y508252D02*
D03*
Y492252D02*
D03*
X53086Y376428D02*
D03*
X428690Y493200D02*
D03*
X459928Y492438D02*
D03*
X412690Y493200D02*
D03*
X404690Y469200D02*
D03*
X388690Y461200D02*
D03*
X396690Y437200D02*
D03*
X380690Y421200D02*
D03*
X484690Y469200D02*
D03*
X460690Y501200D02*
D03*
X444690D02*
D03*
X380690Y413200D02*
D03*
X372182Y437200D02*
D03*
X380690Y405200D02*
D03*
X372690Y389200D02*
D03*
X476690Y397200D02*
D03*
X50800Y308982D02*
D03*
X245256Y297434D02*
D03*
X190500Y508252D02*
D03*
X161798Y556252D02*
D03*
X263144Y95504D02*
D03*
X641604Y156718D02*
D03*
X768096Y209042D02*
D03*
X750466Y219306D02*
D03*
X690522D02*
D03*
X713382Y409852D02*
D03*
X733044Y483616D02*
D03*
X557530Y501200D02*
D03*
X701802Y296164D02*
D03*
X503776Y154592D02*
D03*
X217424Y160274D02*
D03*
X224442Y48674D02*
D03*
X255176Y204630D02*
D03*
X214630Y106172D02*
D03*
X731774Y566166D02*
D03*
X720930Y110158D02*
D03*
X188722Y700252D02*
D03*
X813308Y713232D02*
D03*
X818134Y767842D02*
D03*
X542544Y734392D02*
D03*
Y712392D02*
D03*
X433832Y641350D02*
D03*
X508381Y389509D02*
D03*
X515112Y360172D02*
D03*
X457962Y425196D02*
D03*
X356108Y459486D02*
D03*
X467868Y536448D02*
D03*
X372182Y429454D02*
D03*
X338074Y434340D02*
D03*
X295656Y372364D02*
D03*
X52578Y580252D02*
D03*
Y532252D02*
D03*
X188722Y596252D02*
D03*
X190500Y492252D02*
D03*
X51054Y468122D02*
D03*
X817118Y823214D02*
D03*
X292750Y803000D02*
D03*
M02*
