%FSLAX44Y44*%
%MOMM*%
G71*
G01*
G75*
G04 Layer_Color=128*
%ADD10R,2.5000X6.0000*%
%ADD11R,6.9850X4.0000*%
%ADD12R,6.0000X2.5000*%
%ADD13R,4.0000X6.9850*%
%ADD14C,0.2540*%
%ADD15C,1.0000*%
%ADD16C,4.0000*%
%ADD17C,1.8000*%
%ADD18C,1.0000*%
%ADD19C,1.2700*%
%ADD20R,1.0200X3.8000*%
%ADD21R,1.2192X0.8128*%
%ADD22R,0.3556X0.7620*%
%ADD23R,0.7620X0.3556*%
%ADD24R,2.7940X2.7940*%
%ADD25R,2.7032X6.2032*%
%ADD26R,7.1882X4.2032*%
%ADD27R,6.2032X2.7032*%
%ADD28R,4.2032X7.1882*%
%ADD29C,4.2032*%
%ADD30C,2.0032*%
%ADD31C,1.2032*%
%ADD32C,1.4732*%
%ADD33R,1.1200X3.9000*%
%ADD34R,1.4224X1.0160*%
%ADD35R,0.5588X0.9652*%
%ADD36R,0.9652X0.5588*%
%ADD37R,2.9972X2.9972*%
%ADD38R,0.0254X0.0254*%
G36*
X422970Y1467030D02*
X411000D01*
Y1479000D01*
X422970D01*
Y1467030D01*
D02*
G37*
G36*
X409000D02*
X397030D01*
Y1479000D01*
X409000D01*
Y1467030D01*
D02*
G37*
G36*
X422970Y1481000D02*
X411000D01*
Y1492970D01*
X422970D01*
Y1481000D01*
D02*
G37*
G36*
X409000D02*
X397030D01*
Y1492970D01*
X409000D01*
Y1481000D01*
D02*
G37*
D20*
X440000Y1294650D02*
D03*
Y1345350D02*
D03*
X420000Y1294650D02*
D03*
Y1345350D02*
D03*
X400000Y1294650D02*
D03*
Y1345350D02*
D03*
X380000Y1294650D02*
D03*
Y1345350D02*
D03*
X360000Y1294650D02*
D03*
Y1345350D02*
D03*
D21*
Y1420856D02*
D03*
Y1439000D02*
D03*
X340000Y1410856D02*
D03*
Y1429000D02*
D03*
X300000Y1410856D02*
D03*
Y1429000D02*
D03*
X280000Y1400856D02*
D03*
Y1419000D02*
D03*
X320000Y1420856D02*
D03*
Y1439000D02*
D03*
D22*
X419750Y1460315D02*
D03*
X413250D02*
D03*
X406750D02*
D03*
X400250D02*
D03*
Y1499685D02*
D03*
X406750D02*
D03*
X413250D02*
D03*
X419750D02*
D03*
D23*
X390315Y1470250D02*
D03*
Y1476750D02*
D03*
Y1483250D02*
D03*
Y1489750D02*
D03*
X429685D02*
D03*
Y1483250D02*
D03*
Y1476750D02*
D03*
Y1470250D02*
D03*
D38*
X410000Y1480000D02*
D03*
M02*
