%FSLAX44Y44*%
%MOMM*%
G71*
G01*
G75*
G04 Layer_Physical_Order=1*
G04 Layer_Color=255*
%ADD10R,2.5000X6.0000*%
%ADD11R,6.9850X4.0000*%
%ADD12R,6.0000X2.5000*%
%ADD13R,4.0000X6.9850*%
%ADD14C,0.2540*%
%ADD15C,1.0000*%
%ADD16C,4.0000*%
%ADD17C,1.8000*%
%ADD18C,1.0000*%
%ADD19C,1.2700*%
G36*
X810000Y2113045D02*
X808804Y2112617D01*
X806015Y2116015D01*
X802583Y2118832D01*
X798667Y2120925D01*
X794419Y2122214D01*
X790000Y2122649D01*
X785581Y2122214D01*
X781332Y2120925D01*
X777417Y2118832D01*
X773985Y2116015D01*
X771168Y2112583D01*
X769075Y2108667D01*
X768861Y2107963D01*
X767605Y2108150D01*
Y2559020D01*
X767346Y2560988D01*
X766901Y2562063D01*
X766586Y2562823D01*
X765378Y2564398D01*
X735565Y2594210D01*
Y2633300D01*
X722895D01*
X722409Y2634473D01*
X725635Y2637700D01*
X769365D01*
Y2682780D01*
X739505D01*
Y2848100D01*
X739246Y2850068D01*
X738801Y2851143D01*
X738486Y2851902D01*
X737278Y2853477D01*
X444458Y3146298D01*
X442882Y3147506D01*
X441586Y3148044D01*
X441048Y3148266D01*
X439080Y3148525D01*
X435565D01*
Y3153300D01*
X360635D01*
Y3108220D01*
X435565D01*
Y3132021D01*
X436738Y3132506D01*
X618751Y2950493D01*
X618265Y2949320D01*
X589720D01*
Y2884240D01*
X599695D01*
Y2830450D01*
X524622Y2755378D01*
X523414Y2753802D01*
X522877Y2752505D01*
X522654Y2751968D01*
X522395Y2750000D01*
Y2633300D01*
X510635D01*
Y2588220D01*
X585565D01*
Y2633300D01*
X537605D01*
Y2746850D01*
X612678Y2821922D01*
X613886Y2823498D01*
X614201Y2824257D01*
X614646Y2825332D01*
X614905Y2827300D01*
Y2884240D01*
X619800D01*
Y2947785D01*
X620973Y2948271D01*
X724295Y2844950D01*
Y2682780D01*
X694435D01*
Y2637700D01*
X702466D01*
X702952Y2636527D01*
X699725Y2633300D01*
X660635D01*
Y2615605D01*
X627130D01*
X606208Y2636527D01*
X606694Y2637700D01*
X619365D01*
Y2682780D01*
X544435D01*
Y2637700D01*
X583525D01*
X613735Y2607490D01*
X578850Y2572605D01*
X520130D01*
X456208Y2636527D01*
X456694Y2637700D01*
X469365D01*
Y2682780D01*
X394435D01*
Y2637700D01*
X433525D01*
X497446Y2573778D01*
X496960Y2572605D01*
X370130D01*
X306208Y2636527D01*
X306695Y2637700D01*
X319365D01*
Y2682780D01*
X244435D01*
Y2637700D01*
X283525D01*
X347446Y2573778D01*
X346960Y2572605D01*
X220130D01*
X156208Y2636527D01*
X156694Y2637700D01*
X169365D01*
Y2682780D01*
X94435D01*
Y2637700D01*
X133525D01*
X211602Y2559622D01*
X213178Y2558414D01*
X213937Y2558099D01*
X215012Y2557654D01*
X216980Y2557395D01*
X582000D01*
X583968Y2557654D01*
X584506Y2557877D01*
X585802Y2558414D01*
X587378Y2559622D01*
X628150Y2600395D01*
X660635D01*
Y2588220D01*
X720045D01*
X752395Y2555870D01*
Y2070000D01*
X752654Y2068032D01*
X752877Y2067494D01*
X753414Y2066198D01*
X754622Y2064622D01*
X782395Y2036850D01*
Y1573150D01*
X770538Y1561293D01*
X769365Y1561779D01*
Y1562780D01*
X694435D01*
Y1518198D01*
X694435Y1518198D01*
X694435D01*
X694435Y1517700D01*
X694035Y1517300D01*
X687605D01*
Y1596850D01*
X762678Y1671922D01*
X763886Y1673497D01*
X764201Y1674257D01*
X764646Y1675332D01*
X764905Y1677300D01*
Y1764240D01*
X769800D01*
Y1829320D01*
X739720D01*
Y1764240D01*
X749695D01*
Y1680450D01*
X674622Y1605378D01*
X673414Y1603803D01*
X672877Y1602506D01*
X672654Y1601968D01*
X672395Y1600000D01*
Y1517300D01*
X660635D01*
Y1472220D01*
X735565D01*
Y1516802D01*
X735565Y1516802D01*
X735565D01*
X735565Y1517300D01*
X735965Y1517700D01*
X742395D01*
Y1463605D01*
X658184D01*
X657933Y1463933D01*
X605339Y1516527D01*
X605825Y1517700D01*
X619365D01*
Y1562780D01*
X544435D01*
Y1517700D01*
D01*
Y1517700D01*
X544035Y1517300D01*
X537605D01*
Y1596850D01*
X612678Y1671922D01*
X613886Y1673497D01*
X614201Y1674257D01*
X614646Y1675332D01*
X614905Y1677300D01*
Y1764240D01*
X619800D01*
Y1829320D01*
X589720D01*
Y1764240D01*
X599695D01*
Y1680450D01*
X524622Y1605378D01*
X523414Y1603802D01*
X522877Y1602506D01*
X522654Y1601968D01*
X522395Y1600000D01*
Y1517300D01*
X510635D01*
Y1472220D01*
X585565D01*
Y1513130D01*
X586738Y1513616D01*
X635577Y1464778D01*
X635090Y1463605D01*
X513150D01*
X460229Y1516527D01*
X460714Y1517700D01*
X469365D01*
Y1562780D01*
X394435D01*
Y1518198D01*
X394435Y1518198D01*
X394435D01*
X394435Y1517700D01*
X394035Y1517300D01*
X387605D01*
Y1596850D01*
X462678Y1671922D01*
X463886Y1673497D01*
X464201Y1674257D01*
X464646Y1675332D01*
X464905Y1677300D01*
Y1764240D01*
X469800D01*
Y1829320D01*
X439720D01*
Y1764240D01*
X449695D01*
Y1680450D01*
X374622Y1605378D01*
X373414Y1603802D01*
X372877Y1602506D01*
X372654Y1601968D01*
X372395Y1600000D01*
Y1517300D01*
X360635D01*
Y1472220D01*
X435565D01*
Y1516802D01*
X435565Y1516802D01*
X435565D01*
X435565Y1517300D01*
X435965Y1517700D01*
X437545D01*
X490466Y1464778D01*
X489980Y1463605D01*
X361130D01*
X308209Y1516527D01*
X308694Y1517700D01*
X319365D01*
Y1562780D01*
X244435D01*
Y1518198D01*
X244435Y1518198D01*
X244435D01*
X244435Y1517700D01*
X244035Y1517300D01*
X237605D01*
Y1596850D01*
X312678Y1671922D01*
X313886Y1673497D01*
X314201Y1674257D01*
X314646Y1675332D01*
X314905Y1677300D01*
Y1764240D01*
X319800D01*
Y1829320D01*
X289720D01*
Y1764240D01*
X299695D01*
Y1680450D01*
X224622Y1605378D01*
X223414Y1603802D01*
X222877Y1602506D01*
X222654Y1601968D01*
X222395Y1600000D01*
Y1517300D01*
X210635D01*
Y1472220D01*
X285565D01*
Y1516001D01*
X286738Y1516487D01*
X338446Y1464778D01*
X337960Y1463605D01*
X209130D01*
X156208Y1516527D01*
X156694Y1517700D01*
X169365D01*
Y1562780D01*
X139505D01*
Y1568750D01*
X205378Y1634622D01*
X206586Y1636198D01*
X206901Y1636957D01*
X207346Y1638032D01*
X207605Y1640000D01*
Y1836850D01*
X305378Y1934622D01*
X306586Y1936198D01*
X306901Y1936957D01*
X307346Y1938032D01*
X307605Y1940000D01*
Y2037700D01*
X319365D01*
Y2082780D01*
X244435D01*
Y2038198D01*
X244435Y2038198D01*
X244435D01*
X244435Y2037700D01*
X244035Y2037300D01*
X237605D01*
Y2251570D01*
X288547Y2302511D01*
X289720Y2302025D01*
Y2284240D01*
X319800D01*
Y2349320D01*
X290494D01*
X290407Y2349531D01*
X290407Y2349531D01*
X290009Y2350493D01*
X291910Y2352395D01*
X348530D01*
X360200Y2340725D01*
Y2337235D01*
X344622Y2321658D01*
X343414Y2320083D01*
X342877Y2318786D01*
X342654Y2318248D01*
X342395Y2316280D01*
Y2010000D01*
X342654Y2008032D01*
X342877Y2007494D01*
X343414Y2006198D01*
X344622Y2004622D01*
X384245Y1965000D01*
X250622Y1831378D01*
X249414Y1829803D01*
X248877Y1828506D01*
X248654Y1827968D01*
X248395Y1826000D01*
Y1799150D01*
X240005Y1790760D01*
X226510D01*
Y1759490D01*
X240280D01*
Y1769525D01*
X261378Y1790622D01*
X262586Y1792198D01*
X263031Y1793272D01*
X263346Y1794032D01*
X263605Y1796000D01*
Y1822850D01*
X398450Y1957695D01*
X425680D01*
Y1947720D01*
X456950D01*
Y1962760D01*
Y1977800D01*
X425680D01*
Y1972905D01*
X397850D01*
X357605Y2013150D01*
Y2313130D01*
X366155Y2321680D01*
X373970D01*
Y2354220D01*
Y2386760D01*
X360200D01*
Y2363895D01*
X359027Y2363409D01*
X357058Y2365378D01*
X355482Y2366586D01*
X354186Y2367123D01*
X353648Y2367346D01*
X351680Y2367605D01*
X288760D01*
X286792Y2367346D01*
X286254Y2367123D01*
X284958Y2366586D01*
X283382Y2365378D01*
X265610Y2347605D01*
X240280D01*
Y2352950D01*
X226510D01*
Y2321680D01*
X240280D01*
Y2332395D01*
X268760D01*
X270728Y2332654D01*
X271266Y2332877D01*
X272563Y2333414D01*
X274138Y2334622D01*
X288547Y2349032D01*
X289509Y2348633D01*
X289509Y2348633D01*
X289720Y2348545D01*
Y2325195D01*
X224622Y2260098D01*
X223414Y2258522D01*
X222877Y2257226D01*
X222654Y2256688D01*
X222395Y2254720D01*
Y2037300D01*
X210635D01*
Y1992220D01*
X285565D01*
Y2036802D01*
X285565Y2036802D01*
X285565D01*
X285565Y2037300D01*
X285965Y2037700D01*
X292395D01*
Y1972605D01*
X220130D01*
X156208Y2036527D01*
X156694Y2037700D01*
X169365D01*
Y2082780D01*
X94435D01*
Y2037700D01*
D01*
Y2037700D01*
X94035Y2037300D01*
X87605D01*
Y2251570D01*
X138547Y2302511D01*
X139720Y2302025D01*
Y2284240D01*
X169800D01*
Y2349320D01*
X139720D01*
Y2325195D01*
X74622Y2260098D01*
X73414Y2258522D01*
X72877Y2257226D01*
X72654Y2256688D01*
X72395Y2254720D01*
Y2037300D01*
X60635D01*
Y1992220D01*
X135565D01*
Y2034001D01*
X136738Y2034487D01*
X211602Y1959622D01*
X213178Y1958414D01*
X213937Y1958099D01*
X215012Y1957654D01*
X216980Y1957395D01*
X292395D01*
Y1943150D01*
X194622Y1845378D01*
X193414Y1843802D01*
X192877Y1842506D01*
X192654Y1841968D01*
X192395Y1840000D01*
Y1643150D01*
X126522Y1577278D01*
X125314Y1575703D01*
X124777Y1574406D01*
X124554Y1573868D01*
X124295Y1571900D01*
Y1562780D01*
X94435D01*
Y1517700D01*
D01*
Y1517700D01*
X94035Y1517300D01*
X87605D01*
Y1596850D01*
X162678Y1671922D01*
X163886Y1673497D01*
X164201Y1674257D01*
X164646Y1675332D01*
X164905Y1677300D01*
Y1764240D01*
X169800D01*
Y1829320D01*
X139720D01*
Y1764240D01*
X149695D01*
Y1680450D01*
X74622Y1605378D01*
X73414Y1603802D01*
X72877Y1602506D01*
X72654Y1601968D01*
X72395Y1600000D01*
Y1517300D01*
X60635D01*
Y1472220D01*
X135565D01*
Y1514001D01*
X136738Y1514487D01*
X200602Y1450622D01*
X202177Y1449414D01*
X202937Y1449099D01*
X204012Y1448654D01*
X205980Y1448395D01*
X455980D01*
X456466Y1447222D01*
X449622Y1440378D01*
X448414Y1438803D01*
X448394Y1438755D01*
X447679Y1438661D01*
X445517Y1437765D01*
X443660Y1436340D01*
X442235Y1434483D01*
X441339Y1432321D01*
X441033Y1430000D01*
X441339Y1427679D01*
X442235Y1425517D01*
X443660Y1423660D01*
X445517Y1422235D01*
X447679Y1421339D01*
X450000Y1421033D01*
X452321Y1421339D01*
X454483Y1422235D01*
X456340Y1423660D01*
X457765Y1425517D01*
X458661Y1427679D01*
X458755Y1428394D01*
X458802Y1428414D01*
X460378Y1429622D01*
X479150Y1448395D01*
X746850D01*
X782395Y1412850D01*
Y1153150D01*
X726522Y1097278D01*
X725314Y1095703D01*
X724777Y1094406D01*
X724554Y1093868D01*
X724295Y1091900D01*
Y1042780D01*
X674435D01*
Y998503D01*
X674435Y998503D01*
X674435D01*
X674435Y997700D01*
X674340Y997605D01*
X668150D01*
X664605Y1001150D01*
Y1053850D01*
X762678Y1151922D01*
X763886Y1153497D01*
X764266Y1154415D01*
X764646Y1155332D01*
X764905Y1157300D01*
Y1272020D01*
X764646Y1273988D01*
X764423Y1274526D01*
X763886Y1275823D01*
X762678Y1277398D01*
X749800Y1290275D01*
Y1309320D01*
X719720D01*
Y1244240D01*
X749695D01*
Y1160450D01*
X651622Y1062378D01*
X650414Y1060803D01*
X649877Y1059506D01*
X649654Y1058968D01*
X649395Y1057000D01*
Y998000D01*
X649654Y996032D01*
X649877Y995494D01*
X650414Y994197D01*
X651622Y992622D01*
X659622Y984622D01*
X660635Y983845D01*
Y952220D01*
X735565D01*
Y996744D01*
X736520Y997581D01*
X736835Y997540D01*
X738051Y997700D01*
X738545D01*
X742395Y993850D01*
Y939605D01*
X663130D01*
X606208Y996527D01*
X606694Y997700D01*
X619365D01*
Y1042780D01*
X544435D01*
Y997700D01*
D01*
Y997700D01*
X544035Y997300D01*
X537605D01*
Y1076850D01*
X612678Y1151922D01*
X613886Y1153497D01*
X614201Y1154257D01*
X614646Y1155332D01*
X614905Y1157300D01*
Y1244240D01*
X619800D01*
Y1309320D01*
X589720D01*
Y1244240D01*
X599695D01*
Y1160450D01*
X524622Y1085378D01*
X523414Y1083803D01*
X522877Y1082506D01*
X522654Y1081968D01*
X522395Y1080000D01*
Y997300D01*
X510635D01*
Y952220D01*
X585565D01*
Y994000D01*
X586738Y994486D01*
X640446Y940778D01*
X639960Y939605D01*
X513130D01*
X456208Y996527D01*
X456694Y997700D01*
X469365D01*
Y1042780D01*
X394435D01*
Y997700D01*
D01*
Y997700D01*
X394035Y997300D01*
X387605D01*
Y1076850D01*
X462678Y1151922D01*
X463886Y1153497D01*
X464201Y1154257D01*
X464646Y1155332D01*
X464905Y1157300D01*
Y1244240D01*
X469800D01*
Y1309320D01*
X439720D01*
Y1244240D01*
X449695D01*
Y1160450D01*
X374622Y1085378D01*
X373414Y1083802D01*
X372877Y1082506D01*
X372654Y1081968D01*
X372395Y1080000D01*
Y997300D01*
X360635D01*
Y952220D01*
X435565D01*
Y994000D01*
X436738Y994486D01*
X490446Y940778D01*
X489960Y939605D01*
X363130D01*
X306208Y996527D01*
X306695Y997700D01*
X319365D01*
Y1042780D01*
X244435D01*
Y997700D01*
D01*
Y997700D01*
X244035Y997300D01*
X237605D01*
Y1076850D01*
X312678Y1151922D01*
X313886Y1153497D01*
X314201Y1154257D01*
X314646Y1155332D01*
X314905Y1157300D01*
Y1244240D01*
X319800D01*
Y1309320D01*
X289720D01*
Y1244240D01*
X299695D01*
Y1160450D01*
X224622Y1085378D01*
X223414Y1083802D01*
X222877Y1082506D01*
X222654Y1081968D01*
X222395Y1080000D01*
Y997300D01*
X210635D01*
Y952220D01*
X285565D01*
Y994000D01*
X286738Y994486D01*
X340446Y940778D01*
X339960Y939605D01*
X213130D01*
X156208Y996527D01*
X156694Y997700D01*
X169365D01*
Y1042780D01*
X94435D01*
Y997700D01*
D01*
Y997700D01*
X94035Y997300D01*
X87605D01*
Y1076850D01*
X162678Y1151922D01*
X163886Y1153497D01*
X164201Y1154257D01*
X164646Y1155332D01*
X164905Y1157300D01*
Y1244240D01*
X169800D01*
Y1309320D01*
X139720D01*
Y1244240D01*
X149695D01*
Y1160450D01*
X74622Y1085378D01*
X73414Y1083802D01*
X72877Y1082506D01*
X72654Y1081968D01*
X72395Y1080000D01*
Y997300D01*
X60635D01*
Y952220D01*
X135565D01*
Y994000D01*
X136738Y994486D01*
X204602Y926622D01*
X206178Y925414D01*
X206937Y925099D01*
X208012Y924654D01*
X209980Y924395D01*
X746850D01*
X782395Y888850D01*
Y551330D01*
X753845Y522780D01*
X694435D01*
Y478198D01*
X694435Y478198D01*
X694435D01*
X694435Y477700D01*
X694035Y477300D01*
X687605D01*
Y586850D01*
X762678Y661922D01*
X763886Y663497D01*
X764201Y664257D01*
X764646Y665332D01*
X764905Y667300D01*
Y724240D01*
X769800D01*
Y789320D01*
X739720D01*
Y724240D01*
X749695D01*
Y670450D01*
X674622Y595378D01*
X673414Y593802D01*
X672877Y592506D01*
X672654Y591968D01*
X672395Y590000D01*
Y477300D01*
X660635D01*
Y432220D01*
X735565D01*
Y476802D01*
X735565Y476802D01*
X735565D01*
X735565Y477300D01*
X735965Y477700D01*
X742395D01*
Y434150D01*
X732850Y424605D01*
X658130D01*
X606208Y476527D01*
X606694Y477700D01*
X619365D01*
Y522780D01*
X544435D01*
Y477700D01*
D01*
Y477700D01*
X544035Y477300D01*
X537605D01*
Y586850D01*
X612678Y661922D01*
X613886Y663497D01*
X614201Y664257D01*
X614646Y665332D01*
X614905Y667300D01*
Y724240D01*
X619800D01*
Y789320D01*
X589720D01*
Y724240D01*
X599695D01*
Y670450D01*
X524622Y595378D01*
X523414Y593802D01*
X522877Y592505D01*
X522654Y591968D01*
X522395Y590000D01*
Y477300D01*
X510635D01*
Y432220D01*
X585565D01*
Y474001D01*
X586738Y474487D01*
X635446Y425778D01*
X634960Y424605D01*
X508130D01*
X456208Y476527D01*
X456694Y477700D01*
X469365D01*
Y522780D01*
X394435D01*
Y477700D01*
D01*
Y477700D01*
X394035Y477300D01*
X387605D01*
Y586850D01*
X462678Y661922D01*
X463886Y663497D01*
X464201Y664257D01*
X464646Y665332D01*
X464905Y667300D01*
Y724240D01*
X469800D01*
Y789320D01*
X439720D01*
Y724240D01*
X449695D01*
Y670450D01*
X374622Y595378D01*
X373414Y593802D01*
X372877Y592506D01*
X372654Y591968D01*
X372395Y590000D01*
Y477300D01*
X360635D01*
Y432220D01*
X435565D01*
Y474001D01*
X436738Y474487D01*
X485446Y425778D01*
X484960Y424605D01*
X205150D01*
X157465Y472290D01*
Y477700D01*
X169365D01*
Y522780D01*
X94435D01*
Y478198D01*
X94435Y478198D01*
X94435D01*
X94435Y477700D01*
X94035Y477300D01*
X87605D01*
Y586850D01*
X162678Y661922D01*
X163886Y663497D01*
X164201Y664257D01*
X164646Y665332D01*
X164905Y667300D01*
Y724240D01*
X169800D01*
Y789320D01*
X145145D01*
X144658Y790493D01*
X150470Y796305D01*
X262890D01*
X263376Y795132D01*
X219005Y750760D01*
X210200D01*
Y719490D01*
X240280D01*
Y750525D01*
X286060Y796305D01*
X414890D01*
X415376Y795132D01*
X371005Y750760D01*
X360200D01*
Y719490D01*
X390280D01*
Y748525D01*
X438060Y796305D01*
X561890D01*
X562376Y795132D01*
X518005Y750760D01*
X510200D01*
Y719490D01*
X540280D01*
Y750760D01*
X540280Y750760D01*
X540280D01*
X540056Y751301D01*
X585060Y796305D01*
X619150D01*
X663521Y751933D01*
X663036Y750760D01*
X660200D01*
Y719490D01*
X690280D01*
Y750760D01*
X680305D01*
Y753510D01*
X680046Y755478D01*
X679601Y756553D01*
X679286Y757312D01*
X678078Y758888D01*
X627678Y809288D01*
X626102Y810496D01*
X624806Y811033D01*
X624268Y811256D01*
X622300Y811515D01*
X147320D01*
X145352Y811256D01*
X144592Y810941D01*
X143518Y810496D01*
X141942Y809288D01*
X83415Y750760D01*
X76510D01*
Y719490D01*
X90280D01*
Y736115D01*
X138547Y784381D01*
X139720Y783895D01*
Y724240D01*
X149695D01*
Y670450D01*
X74622Y595378D01*
X73414Y593802D01*
X72877Y592505D01*
X72654Y591968D01*
X72395Y590000D01*
Y477300D01*
X60635D01*
Y432220D01*
X135565D01*
Y476802D01*
X135565Y476802D01*
X135565D01*
X135565Y477300D01*
X135965Y477700D01*
X142255D01*
Y354940D01*
X45422Y258108D01*
X44214Y256532D01*
X43677Y255236D01*
X43454Y254698D01*
X43195Y252730D01*
Y99200D01*
X43454Y97232D01*
X43677Y96694D01*
X44214Y95398D01*
X45422Y93822D01*
X64522Y74722D01*
X66097Y73514D01*
X67394Y72977D01*
X67932Y72754D01*
X69900Y72495D01*
X126700D01*
Y42635D01*
X171780D01*
Y117565D01*
X126700D01*
Y87705D01*
X73050D01*
X58405Y102350D01*
Y249580D01*
X155238Y346412D01*
X156446Y347988D01*
X156983Y349284D01*
X157206Y349822D01*
X157465Y351790D01*
Y449120D01*
X158638Y449606D01*
X196622Y411622D01*
X198197Y410414D01*
X199115Y410034D01*
X200032Y409654D01*
X202000Y409395D01*
X654914D01*
X654990Y409385D01*
X655066Y409395D01*
X736000D01*
X737968Y409654D01*
X738506Y409877D01*
X739802Y410414D01*
X741378Y411622D01*
X755378Y425622D01*
X756586Y427197D01*
X757123Y428494D01*
X757346Y429032D01*
X757605Y431000D01*
Y477700D01*
X769365D01*
Y516790D01*
X795378Y542802D01*
X796586Y544378D01*
X797031Y545452D01*
X797346Y546212D01*
X797605Y548180D01*
Y892000D01*
X797346Y893968D01*
X796901Y895043D01*
X796586Y895803D01*
X795378Y897378D01*
X757605Y935150D01*
Y997000D01*
X757346Y998968D01*
X756901Y1000043D01*
X756586Y1000803D01*
X755378Y1002378D01*
X749365Y1008390D01*
Y1042780D01*
X739505D01*
Y1088750D01*
X795378Y1144622D01*
X796586Y1146198D01*
X797031Y1147272D01*
X797346Y1148032D01*
X797605Y1150000D01*
Y1416000D01*
X797346Y1417968D01*
X796901Y1419043D01*
X796586Y1419803D01*
X795378Y1421378D01*
X757605Y1459150D01*
Y1517700D01*
X769365D01*
Y1538610D01*
X795378Y1564622D01*
X796586Y1566198D01*
X797123Y1567494D01*
X797346Y1568032D01*
X797605Y1570000D01*
Y2040000D01*
X797346Y2041968D01*
X796966Y2042885D01*
X796586Y2043802D01*
X795378Y2045378D01*
X767605Y2073150D01*
Y2091851D01*
X768861Y2092037D01*
X769075Y2091333D01*
X771168Y2087417D01*
X773985Y2083985D01*
X777417Y2081168D01*
X781332Y2079075D01*
X785581Y2077786D01*
X790000Y2077351D01*
X794419Y2077786D01*
X798667Y2079075D01*
X802583Y2081168D01*
X806015Y2083985D01*
X808804Y2087383D01*
X810000Y2086955D01*
Y1113045D01*
X808804Y1112617D01*
X806015Y1116015D01*
X802583Y1118832D01*
X798667Y1120925D01*
X794419Y1122214D01*
X790000Y1122649D01*
X785581Y1122214D01*
X781332Y1120925D01*
X777417Y1118832D01*
X773985Y1116015D01*
X771168Y1112583D01*
X769075Y1108668D01*
X767786Y1104419D01*
X767351Y1100000D01*
X767786Y1095582D01*
X769075Y1091333D01*
X771168Y1087417D01*
X773985Y1083985D01*
X777417Y1081168D01*
X781332Y1079075D01*
X785581Y1077786D01*
X790000Y1077351D01*
X794419Y1077786D01*
X798667Y1079075D01*
X802583Y1081168D01*
X806015Y1083985D01*
X808804Y1087383D01*
X810000Y1086955D01*
Y10000D01*
X10000D01*
Y1086955D01*
X11196Y1087383D01*
X13985Y1083985D01*
X17417Y1081168D01*
X21332Y1079075D01*
X25581Y1077786D01*
X30000Y1077351D01*
X34418Y1077786D01*
X38667Y1079075D01*
X42583Y1081168D01*
X46015Y1083985D01*
X48832Y1087417D01*
X50925Y1091333D01*
X52214Y1095582D01*
X52649Y1100000D01*
X52214Y1104419D01*
X50925Y1108668D01*
X48832Y1112583D01*
X46015Y1116015D01*
X42583Y1118832D01*
X38667Y1120925D01*
X34418Y1122214D01*
X30000Y1122649D01*
X25581Y1122214D01*
X21332Y1120925D01*
X17417Y1118832D01*
X13985Y1116015D01*
X11196Y1112617D01*
X10000Y1113045D01*
Y2086955D01*
X11196Y2087383D01*
X13985Y2083985D01*
X17417Y2081168D01*
X21332Y2079075D01*
X25581Y2077786D01*
X30000Y2077351D01*
X34418Y2077786D01*
X38667Y2079075D01*
X42583Y2081168D01*
X46015Y2083985D01*
X48832Y2087417D01*
X50925Y2091333D01*
X52214Y2095582D01*
X52649Y2100000D01*
X52214Y2104419D01*
X50925Y2108667D01*
X48832Y2112583D01*
X46015Y2116015D01*
X42583Y2118832D01*
X38667Y2120925D01*
X34418Y2122214D01*
X30000Y2122649D01*
X25581Y2122214D01*
X21332Y2120925D01*
X17417Y2118832D01*
X13985Y2116015D01*
X11196Y2112617D01*
X10000Y2113045D01*
Y3190000D01*
X810000D01*
Y2113045D01*
D02*
G37*
%LPC*%
G36*
X73970Y750760D02*
X60200D01*
Y719490D01*
X73970D01*
Y750760D01*
D02*
G37*
G36*
X690280Y716950D02*
X676510D01*
Y685680D01*
X690280D01*
Y716950D01*
D02*
G37*
G36*
X73970Y1236950D02*
X60200D01*
Y1205680D01*
X73970D01*
Y1236950D01*
D02*
G37*
G36*
X90280D02*
X76510D01*
Y1205680D01*
X90280D01*
Y1236950D01*
D02*
G37*
G36*
X223970D02*
X210200D01*
Y1205680D01*
X223970D01*
Y1236950D01*
D02*
G37*
G36*
X390280Y716950D02*
X376510D01*
Y685680D01*
X390280D01*
Y716950D01*
D02*
G37*
G36*
X373970D02*
X360200D01*
Y685680D01*
X373970D01*
Y716950D01*
D02*
G37*
G36*
X240280D02*
X226510D01*
Y685680D01*
X240280D01*
Y716950D01*
D02*
G37*
G36*
X673970D02*
X660200D01*
Y685680D01*
X673970D01*
Y716950D01*
D02*
G37*
G36*
X540280D02*
X526510D01*
Y685680D01*
X540280D01*
Y716950D01*
D02*
G37*
G36*
X523970D02*
X510200D01*
Y685680D01*
X523970D01*
Y716950D01*
D02*
G37*
G36*
X458730Y1358799D02*
X457679Y1358661D01*
X455517Y1357765D01*
X453660Y1356340D01*
X452235Y1354483D01*
X451339Y1352321D01*
X451200Y1351270D01*
X458730D01*
Y1358799D01*
D02*
G37*
G36*
X73970Y1756950D02*
X60200D01*
Y1741235D01*
X44622Y1725658D01*
X43414Y1724082D01*
X42877Y1722786D01*
X42654Y1722248D01*
X42395Y1720280D01*
Y1265400D01*
X42654Y1263432D01*
X42877Y1262895D01*
X43414Y1261598D01*
X44622Y1260022D01*
X60200Y1244445D01*
Y1239490D01*
X90280D01*
Y1270760D01*
X80305D01*
Y1281550D01*
X121150Y1322395D01*
X273990D01*
X274476Y1321222D01*
X224015Y1270760D01*
X210200D01*
Y1239490D01*
X240280D01*
Y1265515D01*
X297160Y1322395D01*
X423990D01*
X424476Y1321222D01*
X374015Y1270760D01*
X360200D01*
Y1239490D01*
X390280D01*
Y1265515D01*
X447160Y1322395D01*
X573990D01*
X574476Y1321222D01*
X524015Y1270760D01*
X510200D01*
Y1239490D01*
X540280D01*
Y1265515D01*
X597160Y1322395D01*
X616850D01*
X665095Y1274150D01*
Y1270760D01*
X660200D01*
Y1239490D01*
X690280D01*
Y1270760D01*
X680305D01*
Y1277300D01*
X680046Y1279268D01*
X679731Y1280028D01*
X679286Y1281102D01*
X678078Y1282678D01*
X625378Y1335378D01*
X623802Y1336586D01*
X622506Y1337123D01*
X621968Y1337346D01*
X620000Y1337605D01*
X594010D01*
X592042Y1337346D01*
X592005Y1337331D01*
X591968Y1337346D01*
X590000Y1337605D01*
X464030D01*
X463544Y1338778D01*
X465378Y1340612D01*
X466586Y1342188D01*
X467123Y1343484D01*
X467346Y1344022D01*
X467497Y1345166D01*
X467765Y1345517D01*
X468661Y1347679D01*
X468800Y1348730D01*
X451200D01*
X451292Y1348037D01*
X440860Y1337605D01*
X118000D01*
X116032Y1337346D01*
X115115Y1336966D01*
X114198Y1336586D01*
X112622Y1335378D01*
X67322Y1290078D01*
X66114Y1288503D01*
X65577Y1287206D01*
X65354Y1286668D01*
X65095Y1284700D01*
Y1270760D01*
X60200D01*
Y1267615D01*
X59027Y1267129D01*
X57605Y1268550D01*
Y1717130D01*
X66155Y1725680D01*
X73970D01*
Y1756950D01*
D02*
G37*
G36*
X690280Y1236950D02*
X676510D01*
Y1205680D01*
X690280D01*
Y1236950D01*
D02*
G37*
G36*
X223970Y1756950D02*
X210200D01*
Y1725680D01*
X223970D01*
Y1756950D01*
D02*
G37*
G36*
X90280D02*
X76510D01*
Y1725680D01*
X90280D01*
Y1756950D01*
D02*
G37*
G36*
X461270Y1358799D02*
Y1351270D01*
X468800D01*
X468661Y1352321D01*
X467765Y1354483D01*
X466340Y1356340D01*
X464483Y1357765D01*
X462321Y1358661D01*
X461270Y1358799D01*
D02*
G37*
G36*
X390280Y1236950D02*
X376510D01*
Y1205680D01*
X390280D01*
Y1236950D01*
D02*
G37*
G36*
X373970D02*
X360200D01*
Y1205680D01*
X373970D01*
Y1236950D01*
D02*
G37*
G36*
X240280D02*
X226510D01*
Y1205680D01*
X240280D01*
Y1236950D01*
D02*
G37*
G36*
X673970D02*
X660200D01*
Y1205680D01*
X673970D01*
Y1236950D01*
D02*
G37*
G36*
X540280D02*
X526510D01*
Y1205680D01*
X540280D01*
Y1236950D01*
D02*
G37*
G36*
X523970D02*
X510200D01*
Y1205680D01*
X523970D01*
Y1236950D01*
D02*
G37*
G36*
Y196950D02*
X510200D01*
Y190585D01*
X390280D01*
Y196950D01*
X376510D01*
Y165680D01*
X390280D01*
Y175375D01*
X510200D01*
Y165680D01*
X523970D01*
Y196950D01*
D02*
G37*
G36*
X373970D02*
X360200D01*
Y190585D01*
X240280D01*
Y196950D01*
X226510D01*
Y165680D01*
X240280D01*
Y175375D01*
X360200D01*
Y165680D01*
X373970D01*
Y196950D01*
D02*
G37*
G36*
X223970D02*
X210200D01*
Y190585D01*
X90280D01*
Y196950D01*
X76510D01*
Y165680D01*
X90280D01*
Y175375D01*
X210200D01*
Y165680D01*
X223970D01*
Y196950D01*
D02*
G37*
G36*
X90280Y230760D02*
X76510D01*
Y199490D01*
X90280D01*
Y230760D01*
D02*
G37*
G36*
X73970D02*
X60200D01*
Y199490D01*
X73970D01*
Y230760D01*
D02*
G37*
G36*
X690280Y196950D02*
X660200D01*
Y190585D01*
X540280D01*
Y196950D01*
X526510D01*
Y165680D01*
X540280D01*
Y175375D01*
X660200D01*
Y165680D01*
X665095D01*
Y136020D01*
X665354Y134052D01*
X665577Y133514D01*
X666114Y132218D01*
X667322Y130642D01*
X724511Y73453D01*
X724025Y72280D01*
X706240D01*
Y58510D01*
X771320D01*
Y72280D01*
X747195D01*
X680305Y139170D01*
Y165680D01*
X690280D01*
Y196950D01*
D02*
G37*
G36*
X504780Y117565D02*
X459700D01*
Y87705D01*
X446420D01*
X444452Y87446D01*
X443914Y87223D01*
X442617Y86686D01*
X441042Y85478D01*
X427845Y72280D01*
X373240D01*
Y42200D01*
X438320D01*
Y61245D01*
X449570Y72495D01*
X459700D01*
Y42635D01*
X504780D01*
Y117565D01*
D02*
G37*
G36*
X771320Y55970D02*
X740050D01*
Y42200D01*
X771320D01*
Y55970D01*
D02*
G37*
G36*
X737510D02*
X706240D01*
Y42200D01*
X737510D01*
Y55970D01*
D02*
G37*
G36*
X73970Y196950D02*
X60200D01*
Y165680D01*
X73970D01*
Y196950D01*
D02*
G37*
G36*
X729000Y149149D02*
X724581Y148714D01*
X720333Y147425D01*
X716417Y145332D01*
X712985Y142515D01*
X710168Y139083D01*
X708075Y135167D01*
X706786Y130919D01*
X706351Y126500D01*
X706786Y122081D01*
X708075Y117833D01*
X710168Y113917D01*
X712985Y110485D01*
X716417Y107668D01*
X720333Y105575D01*
X724581Y104286D01*
X729000Y103851D01*
X733419Y104286D01*
X737667Y105575D01*
X741583Y107668D01*
X745015Y110485D01*
X747832Y113917D01*
X749925Y117833D01*
X751214Y122081D01*
X751649Y126500D01*
X751214Y130919D01*
X749925Y135167D01*
X747832Y139083D01*
X745015Y142515D01*
X741583Y145332D01*
X737667Y147425D01*
X733419Y148714D01*
X729000Y149149D01*
D02*
G37*
G36*
X91000D02*
X86581Y148714D01*
X82333Y147425D01*
X78417Y145332D01*
X74985Y142515D01*
X72168Y139083D01*
X70075Y135167D01*
X68786Y130919D01*
X68351Y126500D01*
X68786Y122081D01*
X70075Y117833D01*
X72168Y113917D01*
X74985Y110485D01*
X78417Y107668D01*
X82333Y105575D01*
X86581Y104286D01*
X91000Y103851D01*
X95419Y104286D01*
X99667Y105575D01*
X103583Y107668D01*
X107015Y110485D01*
X109832Y113917D01*
X111925Y117833D01*
X113214Y122081D01*
X113649Y126500D01*
X113214Y130919D01*
X111925Y135167D01*
X109832Y139083D01*
X107015Y142515D01*
X103583Y145332D01*
X99667Y147425D01*
X95419Y148714D01*
X91000Y149149D01*
D02*
G37*
G36*
X319800Y789320D02*
X289720D01*
Y724240D01*
X299695D01*
Y670450D01*
X224622Y595378D01*
X223414Y593802D01*
X222877Y592505D01*
X222654Y591968D01*
X222395Y590000D01*
Y477300D01*
X210635D01*
Y432220D01*
X285565D01*
Y476744D01*
X286520Y477581D01*
X286835Y477540D01*
X288051Y477700D01*
X301545D01*
X344622Y434622D01*
X346198Y433414D01*
X348032Y432654D01*
X350000Y432395D01*
X351968Y432654D01*
X353802Y433414D01*
X355378Y434622D01*
X356586Y436198D01*
X357346Y438032D01*
X357605Y440000D01*
X357346Y441968D01*
X356586Y443802D01*
X355378Y445378D01*
X319365Y481390D01*
Y522780D01*
X244435D01*
Y478198D01*
X244435Y478198D01*
X244435D01*
X244435Y477700D01*
X244035Y477300D01*
X237605D01*
Y586850D01*
X312678Y661922D01*
X313886Y663497D01*
X314201Y664257D01*
X314646Y665332D01*
X314905Y667300D01*
Y724240D01*
X319800D01*
Y789320D01*
D02*
G37*
G36*
X690280Y230760D02*
X676510D01*
Y199490D01*
X690280D01*
Y230760D01*
D02*
G37*
G36*
X673970D02*
X660200D01*
Y199490D01*
X673970D01*
Y230760D01*
D02*
G37*
G36*
X223970Y716950D02*
X210200D01*
Y685680D01*
X223970D01*
Y716950D01*
D02*
G37*
G36*
X90280D02*
X76510D01*
Y685680D01*
X90280D01*
Y716950D01*
D02*
G37*
G36*
X73970D02*
X60200D01*
Y685680D01*
X73970D01*
Y716950D01*
D02*
G37*
G36*
X373970Y230760D02*
X360200D01*
Y199490D01*
X373970D01*
Y230760D01*
D02*
G37*
G36*
X240280D02*
X226510D01*
Y199490D01*
X240280D01*
Y230760D01*
D02*
G37*
G36*
X223970D02*
X210200D01*
Y199490D01*
X223970D01*
Y230760D01*
D02*
G37*
G36*
X540280D02*
X526510D01*
Y199490D01*
X540280D01*
Y230760D01*
D02*
G37*
G36*
X523970D02*
X510200D01*
Y199490D01*
X523970D01*
Y230760D01*
D02*
G37*
G36*
X390280D02*
X376510D01*
Y199490D01*
X390280D01*
Y230760D01*
D02*
G37*
G36*
X240280Y1756950D02*
X226510D01*
Y1725680D01*
X240280D01*
Y1756950D01*
D02*
G37*
G36*
X540280Y2386760D02*
X526510D01*
Y2355490D01*
X540280D01*
Y2386760D01*
D02*
G37*
G36*
X523970D02*
X510200D01*
Y2355490D01*
X523970D01*
Y2386760D01*
D02*
G37*
G36*
X169800Y2949320D02*
X139720D01*
Y2884240D01*
X149695D01*
Y2810450D01*
X74622Y2735378D01*
X73414Y2733802D01*
X72877Y2732505D01*
X72654Y2731968D01*
X72395Y2730000D01*
Y2633300D01*
X60635D01*
Y2588220D01*
X135565D01*
Y2633300D01*
X87605D01*
Y2726850D01*
X162678Y2801922D01*
X163886Y2803497D01*
X164201Y2804257D01*
X164646Y2805332D01*
X164905Y2807300D01*
Y2884240D01*
X169800D01*
Y2949320D01*
D02*
G37*
G36*
X469800D02*
X439720D01*
Y2884240D01*
X449695D01*
Y2810450D01*
X374622Y2735378D01*
X373414Y2733802D01*
X372877Y2732505D01*
X372654Y2731968D01*
X372395Y2730000D01*
Y2633300D01*
X360635D01*
Y2588220D01*
X435565D01*
Y2633300D01*
X387605D01*
Y2726850D01*
X462678Y2801922D01*
X463886Y2803498D01*
X464201Y2804257D01*
X464646Y2805332D01*
X464905Y2807300D01*
Y2884240D01*
X469800D01*
Y2949320D01*
D02*
G37*
G36*
X319800D02*
X289720D01*
Y2884240D01*
X299695D01*
Y2810450D01*
X224622Y2735378D01*
X223414Y2733802D01*
X222877Y2732505D01*
X222654Y2731968D01*
X222395Y2730000D01*
Y2633300D01*
X210635D01*
Y2588220D01*
X285565D01*
Y2633300D01*
X237605D01*
Y2726850D01*
X312678Y2801922D01*
X313886Y2803498D01*
X314201Y2804257D01*
X314646Y2805332D01*
X314905Y2807300D01*
Y2884240D01*
X319800D01*
Y2949320D01*
D02*
G37*
G36*
X390280Y2386760D02*
X376510D01*
Y2355490D01*
X390280D01*
Y2386760D01*
D02*
G37*
G36*
X523970Y2352950D02*
X510200D01*
Y2346585D01*
X390280D01*
Y2352950D01*
X376510D01*
Y2321680D01*
X390280D01*
Y2331375D01*
X510200D01*
Y2321680D01*
X523970D01*
Y2352950D01*
D02*
G37*
G36*
X540280D02*
X526510D01*
Y2321680D01*
X540280D01*
Y2352950D01*
D02*
G37*
G36*
X73970Y2386760D02*
X60200D01*
Y2355490D01*
X73970D01*
Y2386760D01*
D02*
G37*
G36*
X240280D02*
X226510D01*
Y2355490D01*
X240280D01*
Y2386760D01*
D02*
G37*
G36*
X223970D02*
X210200D01*
Y2355490D01*
X223970D01*
Y2386760D01*
D02*
G37*
G36*
Y2872950D02*
X210200D01*
Y2841680D01*
X223970D01*
Y2872950D01*
D02*
G37*
G36*
X540280Y2906760D02*
X526510D01*
Y2875490D01*
X540280D01*
Y2906760D01*
D02*
G37*
G36*
X523970D02*
X510200D01*
Y2875490D01*
X523970D01*
Y2906760D01*
D02*
G37*
G36*
X585565Y3153300D02*
X510635D01*
Y3108220D01*
X570045D01*
X739720Y2938545D01*
Y2884240D01*
X769800D01*
Y2949320D01*
X750455D01*
X585565Y3114210D01*
Y3153300D01*
D02*
G37*
G36*
X729000Y3122649D02*
X724581Y3122214D01*
X720333Y3120925D01*
X716417Y3118832D01*
X712985Y3116016D01*
X710168Y3112583D01*
X708075Y3108668D01*
X706786Y3104419D01*
X706351Y3100000D01*
X706786Y3095581D01*
X708075Y3091333D01*
X710168Y3087417D01*
X712985Y3083985D01*
X716417Y3081168D01*
X720333Y3079075D01*
X724581Y3077786D01*
X729000Y3077351D01*
X733419Y3077786D01*
X737667Y3079075D01*
X741583Y3081168D01*
X745015Y3083985D01*
X747832Y3087417D01*
X749925Y3091333D01*
X751214Y3095581D01*
X751649Y3100000D01*
X751214Y3104419D01*
X749925Y3108668D01*
X747832Y3112583D01*
X745015Y3116016D01*
X741583Y3118832D01*
X737667Y3120925D01*
X733419Y3122214D01*
X729000Y3122649D01*
D02*
G37*
G36*
X91000D02*
X86581Y3122214D01*
X82333Y3120925D01*
X78417Y3118832D01*
X74985Y3116016D01*
X72168Y3112583D01*
X70075Y3108668D01*
X68786Y3104419D01*
X68351Y3100000D01*
X68786Y3095581D01*
X70075Y3091333D01*
X72168Y3087417D01*
X74985Y3083985D01*
X78417Y3081168D01*
X82333Y3079075D01*
X86581Y3077786D01*
X91000Y3077351D01*
X95419Y3077786D01*
X99667Y3079075D01*
X103583Y3081168D01*
X107015Y3083985D01*
X109832Y3087417D01*
X111925Y3091333D01*
X113214Y3095581D01*
X113649Y3100000D01*
X113214Y3104419D01*
X111925Y3108668D01*
X109832Y3112583D01*
X107015Y3116016D01*
X103583Y3118832D01*
X99667Y3120925D01*
X95419Y3122214D01*
X91000Y3122649D01*
D02*
G37*
G36*
X240280Y2906760D02*
X226510D01*
Y2875490D01*
X240280D01*
Y2906760D01*
D02*
G37*
G36*
X285565Y3153300D02*
X210635D01*
Y3108220D01*
X270045D01*
X365095Y3013170D01*
Y2906760D01*
X360200D01*
Y2841680D01*
X390280D01*
Y2906760D01*
X380305D01*
Y3016320D01*
X380046Y3018288D01*
X379601Y3019363D01*
X379286Y3020123D01*
X378078Y3021698D01*
X285565Y3114210D01*
Y3153300D01*
D02*
G37*
G36*
X240280Y2872950D02*
X226510D01*
Y2841680D01*
X240280D01*
Y2872950D01*
D02*
G37*
G36*
X523970D02*
X510200D01*
Y2841680D01*
X523970D01*
Y2872950D01*
D02*
G37*
G36*
X223970Y2906760D02*
X210200D01*
Y2875490D01*
X223970D01*
Y2906760D01*
D02*
G37*
G36*
X540280Y2872950D02*
X526510D01*
Y2841680D01*
X540280D01*
Y2872950D01*
D02*
G37*
G36*
X90280Y2386760D02*
X76510D01*
Y2354220D01*
Y2321680D01*
X90280D01*
Y2339525D01*
X103150Y2352395D01*
X173850D01*
X191622Y2334622D01*
X193197Y2333414D01*
X194494Y2332877D01*
X195032Y2332654D01*
X197000Y2332395D01*
X210200D01*
Y2321680D01*
X223970D01*
Y2352950D01*
X210200D01*
Y2347605D01*
X200150D01*
X182378Y2365378D01*
X180802Y2366586D01*
X179506Y2367123D01*
X178968Y2367346D01*
X177000Y2367605D01*
X100000D01*
X98032Y2367346D01*
X96957Y2366901D01*
X96198Y2366586D01*
X94622Y2365378D01*
X91453Y2362209D01*
X90280Y2362695D01*
Y2386760D01*
D02*
G37*
G36*
X552797Y2268490D02*
X482797D01*
X481806Y2268293D01*
X480966Y2267731D01*
X480404Y2266891D01*
X480207Y2265900D01*
Y2055900D01*
X480404Y2054909D01*
X480966Y2054069D01*
X481806Y2053507D01*
X482797Y2053310D01*
X552797D01*
X553788Y2053507D01*
X554628Y2054069D01*
X555190Y2054909D01*
X555387Y2055900D01*
Y2265900D01*
X555190Y2266891D01*
X554628Y2267731D01*
X553788Y2268293D01*
X552797Y2268490D01*
D02*
G37*
G36*
X417856Y2061060D02*
X414843Y2060663D01*
X412036Y2059500D01*
X409626Y2057650D01*
X407776Y2055240D01*
X406613Y2052433D01*
X406216Y2049420D01*
X406613Y2046407D01*
X407776Y2043600D01*
X409626Y2041190D01*
X412036Y2039340D01*
X414843Y2038177D01*
X417856Y2037780D01*
X420869Y2038177D01*
X423676Y2039340D01*
X426086Y2041190D01*
X427936Y2043600D01*
X429099Y2046407D01*
X429496Y2049420D01*
X429099Y2052433D01*
X427936Y2055240D01*
X426086Y2057650D01*
X423676Y2059500D01*
X420869Y2060663D01*
X417856Y2061060D01*
D02*
G37*
G36*
X451951Y2092724D02*
X449983Y2092465D01*
X448148Y2091705D01*
X446573Y2090497D01*
X445365Y2088922D01*
X444605Y2087087D01*
X444346Y2085119D01*
X444605Y2083151D01*
X445365Y2081316D01*
X446573Y2079741D01*
X448148Y2078533D01*
X449983Y2077773D01*
X451951Y2077514D01*
X453919Y2077773D01*
X455754Y2078533D01*
X457328Y2079741D01*
X458537Y2081316D01*
X459297Y2083151D01*
X459556Y2085119D01*
X459297Y2087087D01*
X458537Y2088922D01*
X457328Y2090497D01*
X455754Y2091705D01*
X453919Y2092465D01*
X451951Y2092724D01*
D02*
G37*
G36*
X392760Y2115543D02*
X389748Y2115146D01*
X386940Y2113983D01*
X384530Y2112133D01*
X382680Y2109723D01*
X381517Y2106915D01*
X381120Y2103903D01*
X381517Y2100890D01*
X382680Y2098083D01*
X384530Y2095673D01*
X386940Y2093823D01*
X389748Y2092660D01*
X392760Y2092263D01*
X395773Y2092660D01*
X398580Y2093823D01*
X400990Y2095673D01*
X402840Y2098083D01*
X404003Y2100890D01*
X404400Y2103903D01*
X404003Y2106915D01*
X402840Y2109723D01*
X400990Y2112133D01*
X398580Y2113983D01*
X395773Y2115146D01*
X392760Y2115543D01*
D02*
G37*
G36*
X581951Y2092724D02*
X579983Y2092465D01*
X578148Y2091705D01*
X576573Y2090497D01*
X575365Y2088922D01*
X574605Y2087087D01*
X574346Y2085119D01*
X574605Y2083151D01*
X575365Y2081316D01*
X576573Y2079741D01*
X578148Y2078533D01*
X579983Y2077773D01*
X581951Y2077514D01*
X583919Y2077773D01*
X585754Y2078533D01*
X587329Y2079741D01*
X588537Y2081316D01*
X589297Y2083151D01*
X589556Y2085119D01*
X589297Y2087087D01*
X588537Y2088922D01*
X587329Y2090497D01*
X585754Y2091705D01*
X583919Y2092465D01*
X581951Y2092724D01*
D02*
G37*
G36*
X490760Y1977800D02*
X459490D01*
Y1964030D01*
X490760D01*
Y1977800D01*
D02*
G37*
G36*
X90280Y1790760D02*
X76510D01*
Y1759490D01*
X90280D01*
Y1790760D01*
D02*
G37*
G36*
X73970D02*
X60200D01*
Y1759490D01*
X73970D01*
Y1790760D01*
D02*
G37*
G36*
X223970D02*
X210200D01*
Y1759490D01*
X223970D01*
Y1790760D01*
D02*
G37*
G36*
X490760Y1961490D02*
X459490D01*
Y1947720D01*
X490760D01*
Y1961490D01*
D02*
G37*
G36*
X690280Y2386760D02*
X660200D01*
Y2321680D01*
X679245D01*
X717315Y2283610D01*
Y1977365D01*
X692220D01*
Y1902435D01*
X737300D01*
Y1977365D01*
X732525D01*
Y2286760D01*
X732266Y2288728D01*
X732043Y2289266D01*
X731506Y2290563D01*
X730298Y2292138D01*
X690280Y2332155D01*
Y2386760D01*
D02*
G37*
G36*
X642526Y2115637D02*
X639514Y2115240D01*
X636706Y2114077D01*
X634296Y2112227D01*
X632446Y2109817D01*
X631283Y2107010D01*
X630886Y2103997D01*
X631283Y2100984D01*
X632446Y2098177D01*
X634296Y2095767D01*
X636706Y2093917D01*
X639514Y2092754D01*
X642526Y2092357D01*
X645539Y2092754D01*
X648346Y2093917D01*
X650756Y2095767D01*
X652606Y2098177D01*
X653769Y2100984D01*
X654166Y2103997D01*
X653769Y2107010D01*
X652606Y2109817D01*
X650756Y2112227D01*
X648346Y2114077D01*
X645539Y2115240D01*
X642526Y2115637D01*
D02*
G37*
G36*
X581951Y2233478D02*
X579983Y2233219D01*
X578148Y2232459D01*
X576573Y2231251D01*
X575365Y2229675D01*
X574605Y2227841D01*
X574346Y2225873D01*
X574605Y2223905D01*
X575365Y2222070D01*
X576573Y2220495D01*
X578148Y2219287D01*
X579983Y2218527D01*
X581951Y2218268D01*
X583919Y2218527D01*
X585754Y2219287D01*
X587329Y2220495D01*
X588537Y2222070D01*
X589297Y2223905D01*
X589556Y2225873D01*
X589297Y2227841D01*
X588537Y2229675D01*
X587329Y2231251D01*
X585754Y2232459D01*
X583919Y2233219D01*
X581951Y2233478D01*
D02*
G37*
G36*
Y2212724D02*
X579983Y2212465D01*
X578148Y2211705D01*
X576573Y2210497D01*
X575365Y2208922D01*
X574605Y2207088D01*
X574346Y2205119D01*
X574605Y2203151D01*
X575365Y2201317D01*
X576573Y2199742D01*
X578148Y2198533D01*
X579983Y2197773D01*
X581951Y2197514D01*
X583919Y2197773D01*
X585754Y2198533D01*
X587329Y2199742D01*
X588537Y2201317D01*
X589297Y2203151D01*
X589556Y2205119D01*
X589297Y2207088D01*
X588537Y2208922D01*
X587329Y2210497D01*
X585754Y2211705D01*
X583919Y2212465D01*
X581951Y2212724D01*
D02*
G37*
G36*
X451951Y2233480D02*
X449983Y2233221D01*
X448148Y2232461D01*
X446573Y2231253D01*
X445365Y2229677D01*
X444605Y2227843D01*
X444346Y2225875D01*
X444605Y2223907D01*
X445365Y2222072D01*
X446573Y2220497D01*
X448148Y2219289D01*
X449983Y2218529D01*
X451951Y2218270D01*
X453919Y2218529D01*
X455754Y2219289D01*
X457328Y2220497D01*
X458537Y2222072D01*
X459297Y2223907D01*
X459556Y2225875D01*
X459297Y2227843D01*
X458537Y2229677D01*
X457328Y2231253D01*
X455754Y2232461D01*
X453919Y2233221D01*
X451951Y2233480D01*
D02*
G37*
G36*
X73970Y2352950D02*
X60200D01*
Y2321680D01*
X73970D01*
Y2352950D01*
D02*
G37*
G36*
X417856Y2271283D02*
X414843Y2270886D01*
X412036Y2269723D01*
X409626Y2267873D01*
X407776Y2265463D01*
X406613Y2262655D01*
X406216Y2259643D01*
X406613Y2256630D01*
X407776Y2253823D01*
X409626Y2251413D01*
X412036Y2249563D01*
X414843Y2248400D01*
X417856Y2248003D01*
X420869Y2248400D01*
X423676Y2249563D01*
X426086Y2251413D01*
X427936Y2253823D01*
X429099Y2256630D01*
X429496Y2259643D01*
X429099Y2262655D01*
X427936Y2265463D01*
X426086Y2267873D01*
X423676Y2269723D01*
X420869Y2270886D01*
X417856Y2271283D01*
D02*
G37*
G36*
X451951Y2212724D02*
X449983Y2212465D01*
X448148Y2211705D01*
X446573Y2210497D01*
X445365Y2208922D01*
X444605Y2207088D01*
X444346Y2205119D01*
X444605Y2203151D01*
X445365Y2201317D01*
X446573Y2199742D01*
X448148Y2198533D01*
X449983Y2197773D01*
X451951Y2197514D01*
X453919Y2197773D01*
X455754Y2198533D01*
X457328Y2199742D01*
X458537Y2201317D01*
X459297Y2203151D01*
X459556Y2205119D01*
X459297Y2207088D01*
X458537Y2208922D01*
X457328Y2210497D01*
X455754Y2211705D01*
X453919Y2212465D01*
X451951Y2212724D01*
D02*
G37*
G36*
X581951Y2113480D02*
X579983Y2113221D01*
X578148Y2112461D01*
X576573Y2111253D01*
X575365Y2109678D01*
X574605Y2107843D01*
X574346Y2105875D01*
X574605Y2103907D01*
X575365Y2102072D01*
X576573Y2100497D01*
X578148Y2099289D01*
X579983Y2098529D01*
X581951Y2098270D01*
X583919Y2098529D01*
X585754Y2099289D01*
X587329Y2100497D01*
X588537Y2102072D01*
X589297Y2103907D01*
X589556Y2105875D01*
X589297Y2107843D01*
X588537Y2109678D01*
X587329Y2111253D01*
X585754Y2112461D01*
X583919Y2113221D01*
X581951Y2113480D01*
D02*
G37*
G36*
X451951D02*
X449983Y2113221D01*
X448148Y2112461D01*
X446573Y2111253D01*
X445365Y2109678D01*
X444605Y2107843D01*
X444346Y2105875D01*
X444605Y2103907D01*
X445365Y2102072D01*
X446573Y2100497D01*
X448148Y2099289D01*
X449983Y2098529D01*
X451951Y2098270D01*
X453919Y2098529D01*
X455754Y2099289D01*
X457328Y2100497D01*
X458537Y2102072D01*
X459297Y2103907D01*
X459556Y2105875D01*
X459297Y2107843D01*
X458537Y2109678D01*
X457328Y2111253D01*
X455754Y2112461D01*
X453919Y2113221D01*
X451951Y2113480D01*
D02*
G37*
G36*
X647232Y2166637D02*
X644219Y2166240D01*
X641412Y2165077D01*
X639002Y2163227D01*
X637152Y2160817D01*
X635989Y2158010D01*
X635592Y2154997D01*
X635989Y2151985D01*
X637152Y2149177D01*
X639002Y2146767D01*
X641412Y2144917D01*
X644219Y2143754D01*
X647232Y2143357D01*
X650245Y2143754D01*
X653052Y2144917D01*
X655462Y2146767D01*
X657312Y2149177D01*
X658475Y2151985D01*
X658872Y2154997D01*
X658475Y2158010D01*
X657312Y2160817D01*
X655462Y2163227D01*
X653052Y2165077D01*
X650245Y2166240D01*
X647232Y2166637D01*
D02*
G37*
G36*
X392796Y2218546D02*
X389783Y2218149D01*
X386976Y2216986D01*
X384566Y2215137D01*
X382716Y2212726D01*
X381553Y2209919D01*
X381156Y2206906D01*
X381553Y2203893D01*
X382716Y2201086D01*
X384566Y2198676D01*
X386976Y2196826D01*
X389783Y2195663D01*
X392796Y2195267D01*
X395808Y2195663D01*
X398616Y2196826D01*
X401026Y2198676D01*
X402876Y2201086D01*
X404039Y2203893D01*
X404436Y2206906D01*
X404039Y2209919D01*
X402876Y2212726D01*
X401026Y2215137D01*
X398616Y2216986D01*
X395808Y2218149D01*
X392796Y2218546D01*
D02*
G37*
G36*
X642526Y2217637D02*
X639514Y2217240D01*
X636706Y2216077D01*
X634296Y2214227D01*
X632446Y2211817D01*
X631283Y2209010D01*
X630886Y2205997D01*
X631283Y2202984D01*
X632446Y2200177D01*
X634296Y2197767D01*
X636706Y2195917D01*
X639514Y2194754D01*
X642526Y2194357D01*
X645539Y2194754D01*
X648346Y2195917D01*
X650756Y2197767D01*
X652606Y2200177D01*
X653769Y2202984D01*
X654166Y2205997D01*
X653769Y2209010D01*
X652606Y2211817D01*
X650756Y2214227D01*
X648346Y2216077D01*
X645539Y2217240D01*
X642526Y2217637D01*
D02*
G37*
%LPD*%
D10*
X525240Y2874220D02*
D03*
X375240D02*
D03*
X225240D02*
D03*
X154760Y2916780D02*
D03*
X304760D02*
D03*
X454760D02*
D03*
X604760D02*
D03*
X754760D02*
D03*
X675240Y2354220D02*
D03*
X525240D02*
D03*
X375240D02*
D03*
X225240D02*
D03*
X75240D02*
D03*
X154760Y2316780D02*
D03*
X304760D02*
D03*
X225240Y1758220D02*
D03*
X75240D02*
D03*
X154760Y1796780D02*
D03*
X304760D02*
D03*
X454760D02*
D03*
X604760D02*
D03*
X754760D02*
D03*
X675240Y1238220D02*
D03*
X525240D02*
D03*
X375240D02*
D03*
X225240D02*
D03*
X75240D02*
D03*
X154760Y1276780D02*
D03*
X304760D02*
D03*
X454760D02*
D03*
X604760D02*
D03*
X734760D02*
D03*
X675240Y718220D02*
D03*
X525240D02*
D03*
X375240D02*
D03*
X225240D02*
D03*
X75240D02*
D03*
X154760Y756780D02*
D03*
X304760D02*
D03*
X454760D02*
D03*
X604760D02*
D03*
X754760D02*
D03*
X675240Y198220D02*
D03*
X525240D02*
D03*
X375240D02*
D03*
X225240D02*
D03*
X75240D02*
D03*
D11*
X548100Y3130760D02*
D03*
X398100D02*
D03*
X248100D02*
D03*
X131900Y2660240D02*
D03*
X281900D02*
D03*
X431900D02*
D03*
X581900D02*
D03*
X731900D02*
D03*
X698100Y2610760D02*
D03*
X548100D02*
D03*
X398100D02*
D03*
X248100D02*
D03*
X98100D02*
D03*
X131900Y2060240D02*
D03*
X281900D02*
D03*
X248100Y2014760D02*
D03*
X98100D02*
D03*
X131900Y1540240D02*
D03*
X281900D02*
D03*
X431900D02*
D03*
X581900D02*
D03*
X731900D02*
D03*
X698100Y1494760D02*
D03*
X548100D02*
D03*
X398100D02*
D03*
X248100D02*
D03*
X98100D02*
D03*
X131900Y1020240D02*
D03*
X281900D02*
D03*
X431900D02*
D03*
X581900D02*
D03*
X711900D02*
D03*
X698100Y974760D02*
D03*
X548100D02*
D03*
X398100D02*
D03*
X248100D02*
D03*
X98100D02*
D03*
X131900Y500240D02*
D03*
X281900D02*
D03*
X431900D02*
D03*
X581900D02*
D03*
X731900D02*
D03*
X698100Y454760D02*
D03*
X548100D02*
D03*
X398100D02*
D03*
X248100D02*
D03*
X98100D02*
D03*
D12*
X458220Y1962760D02*
D03*
X405780Y57240D02*
D03*
X738780D02*
D03*
D13*
X714760Y1939900D02*
D03*
X149240Y80100D02*
D03*
X482240D02*
D03*
D14*
X131900Y1530080D02*
X133720Y1531900D01*
X222700Y2338980D02*
X228980D01*
D15*
X300000Y1940000D02*
Y2050000D01*
X50000Y1265400D02*
X72700Y1242700D01*
X760000Y2070000D02*
Y2559020D01*
Y2070000D02*
X790000Y2040000D01*
X731900Y2650080D02*
Y2848100D01*
X439080Y3140920D02*
X731900Y2848100D01*
X398100Y3140920D02*
X439080D01*
X80000Y2620920D02*
Y2730000D01*
X157300Y2807300D01*
Y2932020D01*
X220000Y2861680D02*
X222700Y2858980D01*
X230000Y2620920D02*
Y2730000D01*
X307300Y2807300D01*
Y2932020D01*
X380000Y2620920D02*
Y2730000D01*
X457300Y2807300D01*
X530000Y2620920D02*
Y2750000D01*
X607300Y2827300D01*
Y2932020D01*
X288760Y2360000D02*
X351680D01*
X268760Y2340000D02*
X288760Y2360000D01*
X78980Y2338980D02*
X100000Y2360000D01*
X72700Y2338980D02*
X78980D01*
X351680Y2360000D02*
X372700Y2338980D01*
X80000Y2024920D02*
Y2254720D01*
X230000Y2030000D02*
Y2254720D01*
X307300Y2332020D01*
X80000Y2254720D02*
X157300Y2332020D01*
X281900Y2050080D02*
X289920D01*
X200000Y1840000D02*
X300000Y1940000D01*
X200000Y1640000D02*
Y1840000D01*
X680000Y1600000D02*
X757300Y1677300D01*
X680000Y1510000D02*
Y1600000D01*
X757300Y1677300D02*
Y1812020D01*
X790000Y1570000D02*
Y2040000D01*
X750000Y1530000D02*
X790000Y1570000D01*
X530000Y1504920D02*
Y1600000D01*
X607300Y1677300D01*
Y1812020D01*
X385080Y1504920D02*
X398100D01*
X380000Y1510000D02*
Y1600000D01*
X457300Y1677300D01*
Y1812020D01*
X307300Y1677300D02*
Y1812020D01*
X230000Y1600000D02*
X307300Y1677300D01*
X230000Y1504920D02*
Y1600000D01*
X157300Y1677300D02*
Y1812020D01*
X80000Y1600000D02*
X157300Y1677300D01*
X80000Y1510000D02*
Y1600000D01*
Y1510000D02*
X85080Y1504920D01*
X131900Y1571900D02*
X200000Y1640000D01*
X131900Y1530080D02*
Y1571900D01*
X299920Y490080D02*
X350000Y440000D01*
X281900Y490080D02*
X299920D01*
X581900Y1529210D02*
X652555Y1458555D01*
X457300Y1157300D02*
Y1292020D01*
X380000Y1080000D02*
X457300Y1157300D01*
X380000Y990000D02*
Y1080000D01*
X607300Y1157300D02*
Y1292020D01*
X530000Y1080000D02*
X607300Y1157300D01*
X530000Y990000D02*
Y1080000D01*
X757300Y1157300D02*
Y1272020D01*
X731900Y1091900D02*
X790000Y1150000D01*
X731900Y1010080D02*
Y1091900D01*
X385080Y984920D02*
X398100D01*
X307300Y1157300D02*
Y1292020D01*
X230000Y1080000D02*
X307300Y1157300D01*
X230000Y990000D02*
Y1080000D01*
X80000Y990000D02*
Y1080000D01*
X157300Y1157300D01*
Y1292020D01*
X594010Y1330000D02*
X620000D01*
X522700Y1258690D02*
X594010Y1330000D01*
X672700Y1222980D02*
Y1277300D01*
X620000Y1330000D02*
X672700Y1277300D01*
X372700Y1258690D02*
X444010Y1330000D01*
X50000Y1720280D02*
X72700Y1742980D01*
X50000Y1265400D02*
Y1720280D01*
X731900Y490080D02*
X790000Y548180D01*
X586900Y1005080D02*
X658490Y933490D01*
X50800Y252730D02*
X149860Y351790D01*
X157300Y667300D02*
Y772020D01*
X80000Y590000D02*
X157300Y667300D01*
X80000Y470000D02*
Y590000D01*
X307300Y667300D02*
Y772020D01*
X230000Y590000D02*
X307300Y667300D01*
X230000Y470000D02*
Y590000D01*
X457300Y667300D02*
Y772020D01*
X380000Y590000D02*
X457300Y667300D01*
X380000Y470000D02*
Y590000D01*
X607300Y667300D02*
Y772020D01*
X530000Y590000D02*
X607300Y667300D01*
X530000Y470000D02*
Y590000D01*
X680000Y470000D02*
Y590000D01*
X757300Y667300D01*
Y772020D01*
X749920Y490080D02*
X750000Y490000D01*
X731900Y490080D02*
X749920D01*
X72700Y702980D02*
Y729290D01*
X372700Y2858980D02*
Y3016320D01*
X248100Y3140920D02*
X372700Y3016320D01*
X457300Y2807300D02*
Y2932020D01*
X757000D02*
X757300D01*
X548100Y3140920D02*
X757000Y2932020D01*
X372700Y2338980D02*
X522700D01*
X672700D02*
X724920Y2286760D01*
Y1939900D02*
Y2286760D01*
X222700Y1742980D02*
Y1762700D01*
X581900Y1529210D02*
Y1530080D01*
X288900Y1525080D02*
X357490Y1456490D01*
X222700Y1258690D02*
X292005Y1327995D01*
X522700Y1222980D02*
Y1258690D01*
X372700Y1222980D02*
Y1258690D01*
X222700Y1222980D02*
Y1258690D01*
X281900Y490080D02*
X286835Y485145D01*
X431900Y490080D02*
X436835Y485145D01*
X581900Y490080D02*
X586835Y485145D01*
X72700Y182980D02*
X672700D01*
Y136020D02*
Y182980D01*
Y136020D02*
X754020Y54700D01*
X446420Y80100D02*
X472080D01*
X421020Y54700D02*
X446420Y80100D01*
X142380Y490080D02*
X149860Y482600D01*
Y351790D02*
Y482600D01*
X672700Y702980D02*
Y753510D01*
X622300Y803910D02*
X672700Y753510D01*
X72700Y729290D02*
X147320Y803910D01*
X350000Y2316280D02*
X372700Y2338980D01*
X698100Y2620920D02*
X727260Y2650080D01*
X731900D01*
X444010Y1330000D02*
X590000D01*
X460000Y1345990D02*
Y1350000D01*
X444010Y1330000D02*
X460000Y1345990D01*
X50800Y99200D02*
Y252730D01*
Y99200D02*
X69900Y80100D01*
X139080D01*
X657000Y1057000D02*
X757300Y1157300D01*
X657000Y998000D02*
Y1057000D01*
Y998000D02*
X665000Y990000D01*
X680000D01*
X736835Y1005145D02*
X740690Y1009000D01*
Y1006310D02*
X750000Y997000D01*
X740690Y1006310D02*
Y1009000D01*
X737300Y1292020D02*
X757300Y1272020D01*
X582000Y2565000D02*
X624490Y2607490D01*
X581900Y2650080D02*
X624490Y2607490D01*
X281900Y2650080D02*
X365990Y2565990D01*
X431900Y2650080D02*
X516490Y2565490D01*
X623000Y2608000D02*
X711020D01*
X760000Y2559020D01*
X100000Y2360000D02*
X177000D01*
X197000Y2340000D01*
X268760D01*
X131900Y2050080D02*
X216980Y1965000D01*
X300000D01*
X395300Y1965300D02*
X442980D01*
X222700Y1762700D02*
X256000Y1796000D01*
Y1826000D01*
X395300Y1965300D01*
X350000Y2010000D02*
Y2316280D01*
Y2010000D02*
X394500Y1965500D01*
X455000Y1435000D02*
X476000Y1456000D01*
X131900Y1530080D02*
X205980Y1456000D01*
X476000D01*
X749000Y1457000D02*
X790000Y1416000D01*
Y1150000D02*
Y1416000D01*
X431900Y1530080D02*
X435920D01*
X510000Y1456000D01*
X750000D02*
Y1525145D01*
X476000Y1456000D02*
X510000D01*
X750000D01*
X72700Y1222980D02*
Y1284700D01*
X118000Y1330000D01*
X444010D01*
X216980Y2565000D02*
X582000D01*
X131900Y2650080D02*
X216980Y2565000D01*
X750000Y932000D02*
Y997000D01*
X131900Y1010080D02*
X209980Y932000D01*
X750000D01*
X281900Y1010080D02*
X358990Y932990D01*
X431900Y1010080D02*
X509490Y932490D01*
X748500Y933500D02*
X790000Y892000D01*
Y548180D02*
Y892000D01*
X222700Y702980D02*
Y743700D01*
X282910Y803910D01*
X372700Y702980D02*
Y741700D01*
X433500Y802500D01*
X522700Y702980D02*
Y744700D01*
X581910Y803910D01*
X147320D02*
X622300D01*
X149860Y469140D02*
X202000Y417000D01*
X131900Y490080D02*
X137780D01*
X202000Y417000D02*
X736000D01*
X750000Y431000D01*
Y490000D01*
X581900Y490080D02*
X654990Y416990D01*
X431900Y490080D02*
X503490Y418490D01*
D16*
X30000Y2100000D02*
D03*
X91000Y3100000D02*
D03*
X729000D02*
D03*
X790000Y2100000D02*
D03*
Y1100000D02*
D03*
X729000Y126500D02*
D03*
X91000D02*
D03*
X30000Y1100000D02*
D03*
D17*
X392796Y2206906D02*
D03*
X417856Y2259643D02*
D03*
X642526Y2205997D02*
D03*
X647232Y2154997D02*
D03*
X642526Y2103997D02*
D03*
X417856Y2049420D02*
D03*
X392760Y2103903D02*
D03*
D18*
X451951Y2105875D02*
D03*
Y2225875D02*
D03*
X581951Y2105875D02*
D03*
Y2225873D02*
D03*
Y2205119D02*
D03*
Y2085119D02*
D03*
X451951Y2205119D02*
D03*
Y2085119D02*
D03*
D19*
X460000Y1350000D02*
D03*
X450000Y1430000D02*
D03*
M02*
