M48
;Layer_Color=9474304
;FILE_FORMAT=4:2
METRIC,LZ
T3F00S00C0.50
%
G90
G05
T03
G00X004306Y00325
M15
G01X004329Y003259
G01X00435Y003273
G01X004367Y00329
G01X004381Y003311
G01X00439Y003334
G01X004395Y003358
G01X004395Y003382
G01X00439Y003406
G01X004381Y003429
G01X004367Y00345
G01X00435Y003467
G01X004329Y003481
G01X004306Y00349
G01X004282Y003495
G01X004258Y003495
G01X004234Y00349
G01X004211Y003481
G01X00419Y003467
G01X004173Y00345
G01X004159Y003429
G01X00415Y003406
G01X004145Y003382
G01X004145Y003358
G01X00415Y003334
G01X004159Y003311
G01X004173Y00329
G01X00419Y003273
G01X004211Y003259
G01X004234Y00325
G01X004258Y003245
G01X004282Y003245
G01X004306Y00325
M16
G00X004306Y00385
M15
G01X004329Y003859
G01X00435Y003873
G01X004367Y00389
G01X004381Y003911
G01X00439Y003934
G01X004395Y003958
G01X004395Y003982
G01X00439Y004006
G01X004381Y004029
G01X004367Y00405
G01X00435Y004067
G01X004329Y004081
G01X004306Y00409
G01X004282Y004095
G01X004258Y004095
G01X004234Y00409
G01X004211Y004081
G01X00419Y004067
G01X004173Y00405
G01X004159Y004029
G01X00415Y004006
G01X004145Y003982
G01X004145Y003958
G01X00415Y003934
G01X004159Y003911
G01X004173Y00389
G01X00419Y003873
G01X004211Y003859
G01X004234Y00385
G01X004258Y003845
G01X004282Y003845
G01X004306Y00385
M16
G00X005139Y012051
M15
G01X005166Y012062
G01X005191Y012078
G01X005212Y012099
G01X005228Y012124
G01X005239Y012151
G01X005245Y01218
G01X005245Y01221
G01X005239Y012239
G01X005228Y012266
G01X005212Y012291
G01X005191Y012312
G01X005166Y012328
G01X005139Y012339
G01X00511Y012345
G01X00508Y012345
G01X005051Y012339
G01X005024Y012328
G01X004999Y012312
G01X004978Y012291
G01X004962Y012266
G01X004951Y012239
G01X004945Y01221
G01X004945Y01218
G01X004951Y012151
G01X004962Y012124
G01X004978Y012099
G01X004999Y012078
G01X005024Y012062
G01X005051Y012051
G01X00508Y012045
G01X00511Y012045
G01X005139Y012051
M16
G00X003406Y01085
M15
G01X003429Y010859
G01X00345Y010873
G01X003467Y01089
G01X003481Y010911
G01X00349Y010934
G01X003495Y010958
G01X003495Y010982
G01X00349Y011006
G01X003481Y011029
G01X003467Y01105
G01X00345Y011067
G01X003429Y011081
G01X003406Y01109
G01X003382Y011095
G01X003358Y011095
G01X003334Y01109
G01X003311Y011081
G01X00329Y011067
G01X003273Y01105
G01X003259Y011029
G01X00325Y011006
G01X003245Y010982
G01X003245Y010958
G01X00325Y010934
G01X003259Y010911
G01X003273Y01089
G01X00329Y010873
G01X003311Y010859
G01X003334Y01085
G01X003358Y010845
G01X003382Y010845
G01X003406Y01085
M16
G00X004006Y01085
M15
G01X004029Y010859
G01X00405Y010873
G01X004067Y01089
G01X004081Y010911
G01X00409Y010934
G01X004095Y010958
G01X004095Y010982
G01X00409Y011006
G01X004081Y011029
G01X004067Y01105
G01X00405Y011067
G01X004029Y011081
G01X004006Y01109
G01X003982Y011095
G01X003958Y011095
G01X003934Y01109
G01X003911Y011081
G01X00389Y011067
G01X003873Y01105
G01X003859Y011029
G01X00385Y011006
G01X003845Y010982
G01X003845Y010958
G01X00385Y010934
G01X003859Y010911
G01X003873Y01089
G01X00389Y010873
G01X003911Y010859
G01X003934Y01085
G01X003958Y010845
G01X003982Y010845
G01X004006Y01085
M16
G00X003089Y010001
M15
G01X003116Y010012
G01X003141Y010028
G01X003162Y010049
G01X003178Y010074
G01X003189Y010101
G01X003195Y01013
G01X003195Y01016
G01X003189Y010189
G01X003178Y010216
G01X003162Y010241
G01X003141Y010262
G01X003116Y010278
G01X003089Y010289
G01X00306Y010295
G01X00303Y010295
G01X003001Y010289
G01X002974Y010278
G01X002949Y010262
G01X002928Y010241
G01X002912Y010216
G01X002901Y010189
G01X002895Y01016
G01X002895Y01013
G01X002901Y010101
G01X002912Y010074
G01X002928Y010049
G01X002949Y010028
G01X002974Y010012
G01X003001Y010001
G01X00303Y009995
G01X00306Y009995
G01X003089Y010001
M16
G00X003089Y010001
M15
G01X003116Y010012
G01X003141Y010028
G01X003162Y010049
G01X003178Y010074
G01X003189Y010101
G01X003195Y01013
G01X003195Y01016
G01X003189Y010189
G01X003178Y010216
G01X003162Y010241
G01X003141Y010262
G01X003116Y010278
G01X003089Y010289
G01X00306Y010295
G01X00303Y010295
G01X003001Y010289
G01X002974Y010278
G01X002949Y010262
G01X002928Y010241
G01X002912Y010216
G01X002901Y010189
G01X002895Y01016
G01X002895Y01013
G01X002901Y010101
G01X002912Y010074
G01X002928Y010049
G01X002949Y010028
G01X002974Y010012
G01X003001Y010001
G01X00303Y009995
G01X00306Y009995
G01X003089Y010001
M16
G00X003089Y004951
M15
G01X003116Y004962
G01X003141Y004978
G01X003162Y004999
G01X003178Y005024
G01X003189Y005051
G01X003195Y00508
G01X003195Y00511
G01X003189Y005139
G01X003178Y005166
G01X003162Y005191
G01X003141Y005212
G01X003116Y005228
G01X003089Y005239
G01X00306Y005245
G01X00303Y005245
G01X003001Y005239
G01X002974Y005228
G01X002949Y005212
G01X002928Y005191
G01X002912Y005166
G01X002901Y005139
G01X002895Y00511
G01X002895Y00508
G01X002901Y005051
G01X002912Y005024
G01X002928Y004999
G01X002949Y004978
G01X002974Y004962
G01X003001Y004951
G01X00303Y004945
G01X00306Y004945
G01X003089Y004951
M16
G00X005139Y002901
M15
G01X005166Y002912
G01X005191Y002928
G01X005212Y002949
G01X005228Y002974
G01X005239Y003001
G01X005245Y00303
G01X005245Y00306
G01X005239Y003089
G01X005228Y003116
G01X005212Y003141
G01X005191Y003162
G01X005166Y003178
G01X005139Y003189
G01X00511Y003195
G01X00508Y003195
G01X005051Y003189
G01X005024Y003178
G01X004999Y003162
G01X004978Y003141
G01X004962Y003116
G01X004951Y003089
G01X004945Y00306
G01X004945Y00303
G01X004951Y003001
G01X004962Y002974
G01X004978Y002949
G01X004999Y002928
G01X005024Y002912
G01X005051Y002901
G01X00508Y002895
G01X00511Y002895
G01X005139Y002901
M16
G00X010189Y002901
M15
G01X010216Y002912
G01X010241Y002928
G01X010262Y002949
G01X010278Y002974
G01X010289Y003001
G01X010295Y00303
G01X010295Y00306
G01X010289Y003089
G01X010278Y003116
G01X010262Y003141
G01X010241Y003162
G01X010216Y003178
G01X010189Y003189
G01X01016Y003195
G01X01013Y003195
G01X010101Y003189
G01X010074Y003178
G01X010049Y003162
G01X010028Y003141
G01X010012Y003116
G01X010001Y003089
G01X009995Y00306
G01X009995Y00303
G01X010001Y003001
G01X010012Y002974
G01X010028Y002949
G01X010049Y002928
G01X010074Y002912
G01X010101Y002901
G01X01013Y002895
G01X01016Y002895
G01X010189Y002901
M16
G00X011306Y00415
M15
G01X011329Y004159
G01X01135Y004173
G01X011367Y00419
G01X011381Y004211
G01X01139Y004234
G01X011395Y004258
G01X011395Y004282
G01X01139Y004306
G01X011381Y004329
G01X011367Y00435
G01X01135Y004367
G01X011329Y004381
G01X011306Y00439
G01X011282Y004395
G01X011258Y004395
G01X011234Y00439
G01X011211Y004381
G01X01119Y004367
G01X011173Y00435
G01X011159Y004329
G01X01115Y004306
G01X011145Y004282
G01X011145Y004258
G01X01115Y004234
G01X011159Y004211
G01X011173Y00419
G01X01119Y004173
G01X011211Y004159
G01X011234Y00415
G01X011258Y004145
G01X011282Y004145
G01X011306Y00415
M16
G00X011906Y00415
M15
G01X011929Y004159
G01X01195Y004173
G01X011967Y00419
G01X011981Y004211
G01X01199Y004234
G01X011995Y004258
G01X011995Y004282
G01X01199Y004306
G01X011981Y004329
G01X011967Y00435
G01X01195Y004367
G01X011929Y004381
G01X011906Y00439
G01X011882Y004395
G01X011858Y004395
G01X011834Y00439
G01X011811Y004381
G01X01179Y004367
G01X011773Y00435
G01X011759Y004329
G01X01175Y004306
G01X011745Y004282
G01X011745Y004258
G01X01175Y004234
G01X011759Y004211
G01X011773Y00419
G01X01179Y004173
G01X011811Y004159
G01X011834Y00415
G01X011858Y004145
G01X011882Y004145
G01X011906Y00415
M16
G00X012239Y004951
M15
G01X012266Y004962
G01X012291Y004978
G01X012312Y004999
G01X012328Y005024
G01X012339Y005051
G01X012345Y00508
G01X012345Y00511
G01X012339Y005139
G01X012328Y005166
G01X012312Y005191
G01X012291Y005212
G01X012266Y005228
G01X012239Y005239
G01X01221Y005245
G01X01218Y005245
G01X012151Y005239
G01X012124Y005228
G01X012099Y005212
G01X012078Y005191
G01X012062Y005166
G01X012051Y005139
G01X012045Y00511
G01X012045Y00508
G01X012051Y005051
G01X012062Y005024
G01X012078Y004999
G01X012099Y004978
G01X012124Y004962
G01X012151Y004951
G01X01218Y004945
G01X01221Y004945
G01X012239Y004951
M16
G00X012239Y010001
M15
G01X012266Y010012
G01X012291Y010028
G01X012312Y010049
G01X012328Y010074
G01X012339Y010101
G01X012345Y01013
G01X012345Y01016
G01X012339Y010189
G01X012328Y010216
G01X012312Y010241
G01X012291Y010262
G01X012266Y010278
G01X012239Y010289
G01X01221Y010295
G01X01218Y010295
G01X012151Y010289
G01X012124Y010278
G01X012099Y010262
G01X012078Y010241
G01X012062Y010216
G01X012051Y010189
G01X012045Y01016
G01X012045Y01013
G01X012051Y010101
G01X012062Y010074
G01X012078Y010049
G01X012099Y010028
G01X012124Y010012
G01X012151Y010001
G01X01218Y009995
G01X01221Y009995
G01X012239Y010001
M16
G00X011006Y01115
M15
G01X011029Y011159
G01X01105Y011173
G01X011067Y01119
G01X011081Y011211
G01X01109Y011234
G01X011095Y011258
G01X011095Y011282
G01X01109Y011306
G01X011081Y011329
G01X011067Y01135
G01X01105Y011367
G01X011029Y011381
G01X011006Y01139
G01X010982Y011395
G01X010958Y011395
G01X010934Y01139
G01X010911Y011381
G01X01089Y011367
G01X010873Y01135
G01X010859Y011329
G01X01085Y011306
G01X010845Y011282
G01X010845Y011258
G01X01085Y011234
G01X010859Y011211
G01X010873Y01119
G01X01089Y011173
G01X010911Y011159
G01X010934Y01115
G01X010958Y011145
G01X010982Y011145
G01X011006Y01115
M16
G00X011006Y01175
M15
G01X011029Y011759
G01X01105Y011773
G01X011067Y01179
G01X011081Y011811
G01X01109Y011834
G01X011095Y011858
G01X011095Y011882
G01X01109Y011906
G01X011081Y011929
G01X011067Y01195
G01X01105Y011967
G01X011029Y011981
G01X011006Y01199
G01X010982Y011995
G01X010958Y011995
G01X010934Y01199
G01X010911Y011981
G01X01089Y011967
G01X010873Y01195
G01X010859Y011929
G01X01085Y011906
G01X010845Y011882
G01X010845Y011858
G01X01085Y011834
G01X010859Y011811
G01X010873Y01179
G01X01089Y011773
G01X010911Y011759
G01X010934Y01175
G01X010958Y011745
G01X010982Y011745
G01X011006Y01175
M16
G00X010189Y012051
M15
G01X010216Y012062
G01X010241Y012078
G01X010262Y012099
G01X010278Y012124
G01X010289Y012151
G01X010295Y01218
G01X010295Y01221
G01X010289Y012239
G01X010278Y012266
G01X010262Y012291
G01X010241Y012312
G01X010216Y012328
G01X010189Y012339
G01X01016Y012345
G01X01013Y012345
G01X010101Y012339
G01X010074Y012328
G01X010049Y012312
G01X010028Y012291
G01X010012Y012266
G01X010001Y012239
G01X009995Y01221
G01X009995Y01218
G01X010001Y012151
G01X010012Y012124
G01X010028Y012099
G01X010049Y012078
G01X010074Y012062
G01X010101Y012051
G01X01013Y012045
G01X01016Y012045
G01X010189Y012051
M16
G00X007752Y004145
M15
G01X007767Y004148
G01X007781Y004154
G01X007793Y004162
G01X007803Y004172
G01X007811Y004184
G01X007817Y004198
G01X00782Y004213
G01X00782Y00462
G01X007825Y004635
G01X007845Y004645
G01X01001Y004645
G01X010595Y00523
G01X010595Y01001
G01X01001Y010595
G01X00523Y010595
G01X004645Y01001
G01X004645Y00523
G01X00523Y004645
G01X007395Y004645
G01X00741Y00464
G01X00742Y00462
G01X00742Y004213
G01X007423Y004198
G01X007429Y004184
G01X007437Y004172
G01X007447Y004162
G01X007459Y004154
G01X007473Y004148
G01X007488Y004145
G01X007752Y004145
M16
G00X011681Y002724
M15
G01X011711Y002738
G01X011736Y002758
G01X011755Y002785
G01X011767Y002816
G01X011771Y002842
G01X01177Y002845
G01X011769Y003393
G01X011772Y003415
G01X011779Y003433
G01X011792Y003448
G01X011807Y003461
G01X011825Y003468
G01X011844Y003471
G01X011845Y00347
G01X01239Y00347
G01X012398Y003469
G01X012431Y003474
G01X012461Y003488
G01X012486Y003508
G01X012505Y003535
G01X012517Y003566
G01X012521Y003592
G01X01252Y003595
G01X01252Y01164
G01X012521Y011648
G01X012516Y011681
G01X012502Y011711
G01X012482Y011736
G01X012455Y011755
G01X012424Y011767
G01X012398Y011771
G01X012395Y01177
G01X011847Y011769
G01X011825Y011772
G01X011807Y011779
G01X011792Y011792
G01X011779Y011807
G01X011772Y011825
G01X011769Y011844
G01X01177Y011845
G01X01177Y01239
G01X011771Y012398
G01X011766Y012431
G01X011752Y012461
G01X011732Y012486
G01X011705Y012505
G01X011674Y012517
G01X011648Y012521
G01X011645Y01252
G01X0036Y01252
G01X003592Y012521
G01X003559Y012516
G01X003529Y012502
G01X003504Y012482
G01X003485Y012455
G01X003473Y012424
G01X003469Y012398
G01X00347Y012395
G01X003471Y011847
G01X003468Y011825
G01X003461Y011807
G01X003448Y011792
G01X003433Y011779
G01X003415Y011772
G01X003396Y011769
G01X003395Y01177
G01X00285Y01177
G01X002842Y011771
G01X002809Y011766
G01X002779Y011752
G01X002754Y011732
G01X002735Y011705
G01X002723Y011674
G01X002719Y011648
G01X00272Y011645
G01X00272Y0036
G01X002719Y003592
G01X002724Y003559
G01X002738Y003529
G01X002758Y003504
G01X002785Y003485
G01X002816Y003473
G01X002842Y003469
G01X002845Y00347
G01X003393Y003471
G01X003415Y003468
G01X003433Y003461
G01X003448Y003448
G01X003461Y003433
G01X003468Y003415
G01X003471Y003396
G01X00347Y003395
G01X003469Y002842
G01X003474Y002809
G01X003488Y002779
G01X003508Y002754
G01X003535Y002735
G01X003566Y002723
G01X003592Y002719
G01X003595Y00272
G01X01164Y00272
G01X011648Y002719
G01X011681Y002724
M16
M17
M30
