G04*
G04 #@! TF.GenerationSoftware,Altium Limited,Altium Designer,19.0.10 (269)*
G04*
G04 Layer_Color=8388736*
%FSLAX42Y42*%
%MOMM*%
G71*
G01*
G75*
%ADD20R,1.70X7.70*%
%ADD21R,1.30X3.83*%
%ADD22R,1.00X1.10*%
%ADD23R,1.10X0.90*%
%ADD24R,1.60X1.40*%
%ADD25R,2.61X0.96*%
%ADD26R,1.20X1.20*%
%ADD27R,1.20X2.40*%
%ADD28R,2.74X5.79*%
%ADD29C,1.47*%
D20*
X7370Y3721D02*
D03*
X7870D02*
D03*
D21*
X7620Y3912D02*
D03*
D22*
X3715Y8323D02*
D03*
X3575D02*
D03*
X11678Y7068D02*
D03*
X11538D02*
D03*
X3715Y7137D02*
D03*
X3575D02*
D03*
X11641Y8192D02*
D03*
X11501D02*
D03*
D23*
X3931Y8205D02*
D03*
Y8355D02*
D03*
X8572Y3212D02*
D03*
Y3062D02*
D03*
X11290Y6987D02*
D03*
Y7137D02*
D03*
D24*
X11900Y8188D02*
D03*
Y8348D02*
D03*
Y7065D02*
D03*
Y6905D02*
D03*
X3334Y6981D02*
D03*
Y7141D02*
D03*
D25*
X9176Y3467D02*
D03*
Y3594D02*
D03*
Y3721D02*
D03*
Y3848D02*
D03*
Y3975D02*
D03*
X8579D02*
D03*
Y3848D02*
D03*
Y3721D02*
D03*
Y3594D02*
D03*
Y3467D02*
D03*
X11297Y7366D02*
D03*
Y7493D02*
D03*
Y7620D02*
D03*
Y7747D02*
D03*
Y7874D02*
D03*
X11894D02*
D03*
Y7747D02*
D03*
Y7620D02*
D03*
Y7493D02*
D03*
Y7366D02*
D03*
X3931Y7976D02*
D03*
Y7849D02*
D03*
Y7722D02*
D03*
Y7595D02*
D03*
Y7468D02*
D03*
X3334D02*
D03*
Y7595D02*
D03*
Y7722D02*
D03*
Y7849D02*
D03*
Y7976D02*
D03*
D26*
X11571Y5295D02*
D03*
X3537Y5319D02*
D03*
X3900Y9935D02*
D03*
X11568Y9954D02*
D03*
D27*
X11471Y5095D02*
D03*
X11671D02*
D03*
X3437Y5119D02*
D03*
X3637D02*
D03*
X4000Y10135D02*
D03*
X3800D02*
D03*
X11468Y10154D02*
D03*
X11668D02*
D03*
D28*
X8877Y3721D02*
D03*
X11595Y7620D02*
D03*
X3632Y7722D02*
D03*
D29*
X3531Y6833D02*
D03*
X3518Y8623D02*
D03*
X4204Y8141D02*
D03*
X11671Y8001D02*
D03*
X8852Y3207D02*
D03*
X11062Y7137D02*
D03*
X7861Y4013D02*
D03*
X7366D02*
D03*
X11709Y6858D02*
D03*
M02*
