%FSLAX44Y44*%
%MOMM*%
G71*
G01*
G75*
G04 Layer_Physical_Order=1*
G04 Layer_Color=255*
%ADD10R,5.8166X8.0010*%
%ADD11R,0.8128X1.4224*%
%ADD12R,1.1176X1.0160*%
%ADD13R,1.0160X1.1176*%
%ADD14R,0.5080X1.2192*%
%ADD15R,1.2192X0.5080*%
%ADD16R,1.2700X1.4732*%
%ADD17R,2.5500X1.5500*%
%ADD18R,2.5500X0.9500*%
%ADD19R,2.5500X0.5500*%
%ADD20R,0.6096X0.9144*%
%ADD21R,1.6002X2.7178*%
%ADD22R,1.4732X1.2700*%
%ADD23O,2.0500X0.7000*%
%ADD24R,1.5500X2.5500*%
%ADD25R,0.9500X2.5500*%
%ADD26R,0.5500X2.5500*%
%ADD27R,2.7178X1.6002*%
%ADD28R,0.8128X0.3048*%
%ADD29R,0.3048X0.8128*%
%ADD30C,0.1524*%
%ADD31C,0.8000*%
%ADD32C,0.2540*%
%ADD33C,0.1540*%
%ADD34R,1.0080X1.0080*%
%ADD35C,1.5000*%
%ADD36C,1.5240*%
%ADD37C,0.5000*%
%ADD38C,6.3500*%
%ADD39P,1.3205X8X112.5*%
%ADD40R,1.2200X1.2200*%
%ADD41P,1.3205X8X22.5*%
%ADD42R,1.2200X1.2200*%
%ADD43C,1.2700*%
D10*
X13028Y-861852D02*
D03*
X171310Y-568270D02*
D03*
X16402Y-418250D02*
D03*
D11*
X-25072Y-798352D02*
D03*
X-12372D02*
D03*
X328D02*
D03*
X13028D02*
D03*
X25728D02*
D03*
X38428D02*
D03*
X51128D02*
D03*
X209410Y-631770D02*
D03*
X196710D02*
D03*
X184010D02*
D03*
X171310D02*
D03*
X158610D02*
D03*
X145910D02*
D03*
X133210D02*
D03*
X-21698Y-354750D02*
D03*
X-8998D02*
D03*
X3702D02*
D03*
X16402D02*
D03*
X29102D02*
D03*
X41802D02*
D03*
X54502D02*
D03*
D12*
X728980Y-274574D02*
D03*
X711844D02*
D03*
X383794Y-465836D02*
D03*
X366658D02*
D03*
X360680Y-161798D02*
D03*
X343544D02*
D03*
X415798Y-136906D02*
D03*
X398662D02*
D03*
X540004Y-646430D02*
D03*
X557140D02*
D03*
X468122Y-626110D02*
D03*
X450986D02*
D03*
X468884Y-649478D02*
D03*
X451748D02*
D03*
X68580Y-280162D02*
D03*
X51444D02*
D03*
X-26670Y-269494D02*
D03*
X-9534D02*
D03*
X55880Y-677418D02*
D03*
X38744D02*
D03*
X-43180Y-680974D02*
D03*
X-26044D02*
D03*
X220082Y-730504D02*
D03*
X202946D02*
D03*
X118872Y-721360D02*
D03*
X136008D02*
D03*
X631444Y-831342D02*
D03*
X614308D02*
D03*
X280162Y-377952D02*
D03*
X263026D02*
D03*
X739648Y-215138D02*
D03*
X722512D02*
D03*
D13*
X416814Y-232918D02*
D03*
Y-215782D02*
D03*
X288036Y-223520D02*
D03*
Y-206384D02*
D03*
X288544Y-254508D02*
D03*
Y-271644D02*
D03*
X443992Y-772668D02*
D03*
Y-789804D02*
D03*
X396748Y-561594D02*
D03*
Y-578730D02*
D03*
X321310Y-357632D02*
D03*
Y-340496D02*
D03*
X448056Y-314198D02*
D03*
Y-331334D02*
D03*
X468122Y-692150D02*
D03*
Y-709286D02*
D03*
X683260Y-722884D02*
D03*
Y-740020D02*
D03*
X557022Y-202692D02*
D03*
Y-219828D02*
D03*
X616204Y-179578D02*
D03*
Y-196714D02*
D03*
D14*
X342646Y-264414D02*
D03*
Y-222332D02*
D03*
D15*
X353646Y-263414D02*
D03*
Y-255414D02*
D03*
Y-247414D02*
D03*
Y-239350D02*
D03*
Y-231222D02*
D03*
Y-223348D02*
D03*
X331470D02*
D03*
Y-231222D02*
D03*
Y-239350D02*
D03*
Y-247414D02*
D03*
Y-255414D02*
D03*
Y-263414D02*
D03*
D16*
X354838Y-496316D02*
D03*
X397928D02*
D03*
X585216Y-842772D02*
D03*
X542126D02*
D03*
D17*
X383526Y-412222D02*
D03*
X413526Y-346222D02*
D03*
Y-412222D02*
D03*
X383526Y-346222D02*
D03*
D18*
Y-361222D02*
D03*
Y-397222D02*
D03*
X413526D02*
D03*
Y-361222D02*
D03*
D19*
X383526Y-371222D02*
D03*
Y-379222D02*
D03*
Y-387222D02*
D03*
X413526Y-371222D02*
D03*
Y-379222D02*
D03*
Y-387222D02*
D03*
D20*
X161810Y-709286D02*
D03*
X171310D02*
D03*
X180962D02*
D03*
Y-732470D02*
D03*
X171310D02*
D03*
X161810D02*
D03*
X22668Y-680936D02*
D03*
X13168D02*
D03*
X3516D02*
D03*
Y-657752D02*
D03*
X13168D02*
D03*
X22668D02*
D03*
X27802Y-256434D02*
D03*
X18302D02*
D03*
X8650D02*
D03*
Y-233250D02*
D03*
X18302D02*
D03*
X27802D02*
D03*
D21*
X507014Y-396748D02*
D03*
X478790D02*
D03*
X536194Y-496824D02*
D03*
X564418D02*
D03*
D22*
X578866Y-597916D02*
D03*
Y-554826D02*
D03*
D23*
X612634Y-786384D02*
D03*
Y-773684D02*
D03*
Y-760984D02*
D03*
Y-748284D02*
D03*
Y-735584D02*
D03*
Y-722884D02*
D03*
Y-710184D02*
D03*
Y-697484D02*
D03*
X515634Y-786384D02*
D03*
Y-773684D02*
D03*
Y-760984D02*
D03*
Y-748284D02*
D03*
Y-735584D02*
D03*
Y-722884D02*
D03*
Y-710184D02*
D03*
Y-697484D02*
D03*
D24*
X534556Y-585244D02*
D03*
X468556Y-555244D02*
D03*
X534556D02*
D03*
X468556Y-585244D02*
D03*
D25*
X483556D02*
D03*
X519556D02*
D03*
Y-555244D02*
D03*
X483556D02*
D03*
D26*
X493556Y-585244D02*
D03*
X501556D02*
D03*
X509556D02*
D03*
X493556Y-555244D02*
D03*
X501556D02*
D03*
X509556D02*
D03*
D27*
X410972Y-781558D02*
D03*
Y-753334D02*
D03*
D28*
X651002Y-229924D02*
D03*
Y-224924D02*
D03*
Y-219924D02*
D03*
Y-214884D02*
D03*
Y-209804D02*
D03*
Y-204724D02*
D03*
X691068D02*
D03*
Y-209804D02*
D03*
Y-214884D02*
D03*
Y-219924D02*
D03*
Y-224924D02*
D03*
Y-229924D02*
D03*
D29*
X658368Y-197358D02*
D03*
X663448D02*
D03*
X668528D02*
D03*
X673568D02*
D03*
X678568D02*
D03*
X683568D02*
D03*
Y-237424D02*
D03*
X678568D02*
D03*
X673568D02*
D03*
X668528D02*
D03*
X663448D02*
D03*
X658368D02*
D03*
D30*
X508944Y-218622D02*
D03*
X514604D02*
D03*
X520264D02*
D03*
X511774Y-221452D02*
D03*
X517434D02*
D03*
X508944Y-224282D02*
D03*
X520264D02*
D03*
X511774Y-227112D02*
D03*
X517434D02*
D03*
X508944Y-229942D02*
D03*
X514604D02*
D03*
X520264D02*
D03*
D31*
X145310Y-648970D02*
Y-629370D01*
X105310Y-688970D02*
X145310Y-648970D01*
X196710Y-650370D02*
Y-631770D01*
Y-650370D02*
X245310Y-698970D01*
X78486Y-742188D02*
Y-601218D01*
X38354Y-782320D02*
X78486Y-742188D01*
X38354Y-796806D02*
Y-782320D01*
X-12446Y-798278D02*
Y-779638D01*
X-60832Y-731252D02*
X-12446Y-779638D01*
X65786Y-326898D02*
X78637Y-314047D01*
X60452Y-326898D02*
X65786D01*
X42164Y-345186D02*
X60452Y-326898D01*
X41802Y-354750D02*
Y-352750D01*
X42164Y-353112D01*
Y-345186D01*
X-41656Y-297792D02*
Y-219710D01*
X-7696Y-185750D02*
X21302D01*
X-41656Y-219710D02*
X-7696Y-185750D01*
X78637Y-314047D02*
X89916Y-302768D01*
X-41656Y-297792D02*
X-5998Y-333450D01*
X51302Y-165750D02*
X89916Y-204364D01*
Y-302768D02*
Y-204364D01*
X68326Y-591058D02*
X78486Y-601218D01*
X105310Y-788970D02*
Y-688970D01*
X245310Y-768970D02*
Y-698970D01*
X175310Y-838970D02*
X245310Y-768970D01*
X105310Y-788970D02*
X155310Y-838970D01*
X170310Y-634770D02*
Y-571270D01*
X19402Y-419250D02*
Y-329250D01*
X-5998Y-355750D02*
Y-333450D01*
X21302Y-165750D02*
X51302D01*
X-60832Y-611252D02*
X-5832Y-556252D01*
X-60832Y-731252D02*
Y-611252D01*
X13012Y-858852D02*
Y-795352D01*
X14168Y-536252D02*
X68326Y-590410D01*
Y-591058D02*
Y-590410D01*
X-5832Y-556252D02*
X14168D01*
D32*
X155310Y-637070D02*
X157610Y-634770D01*
X155310Y-706786D02*
Y-637070D01*
X-10832Y-799892D02*
Y-791252D01*
X29102Y-354750D02*
X32732Y-351120D01*
X740156Y-80518D02*
X759206Y-99568D01*
X708652Y-80518D02*
X740156D01*
X654924Y-26790D02*
X708652Y-80518D01*
X683568Y-197358D02*
Y-174044D01*
X591058Y-154432D02*
X616204Y-179578D01*
X651002D01*
X658368Y-186944D01*
Y-197358D02*
Y-186944D01*
X727964Y-200914D02*
X739648Y-212598D01*
Y-215138D02*
Y-212598D01*
X714756Y-200914D02*
X727964D01*
X705866Y-209804D02*
X714756Y-200914D01*
X691068Y-209804D02*
X705866D01*
X706334Y-219924D02*
X716026Y-229616D01*
X691068Y-219924D02*
X706334D01*
X739648Y-229616D02*
Y-215138D01*
Y-263906D02*
Y-229616D01*
X716026D02*
X739648D01*
X711844Y-274574D02*
Y-235100D01*
X701668Y-224924D02*
X711844Y-235100D01*
X691068Y-224924D02*
X701668D01*
X728980Y-295148D02*
Y-274574D01*
X739648Y-263906D01*
X722258Y-214884D02*
X722512Y-215138D01*
X691068Y-214884D02*
X722258D01*
X645105Y-209804D02*
X651002D01*
X632015Y-196714D02*
X645105Y-209804D01*
X616204Y-196714D02*
X632015D01*
X622411Y-779074D02*
X631444Y-788107D01*
Y-831342D02*
Y-788107D01*
X612634Y-773684D02*
X618024Y-779074D01*
X622411D01*
X585216Y-842772D02*
X596646Y-831342D01*
X614308D01*
X510928Y-811574D02*
Y-791090D01*
X496076Y-805942D02*
X510928Y-791090D01*
X383794Y-432802D02*
X428726D01*
X383526Y-430784D02*
Y-412222D01*
X383794Y-432802D02*
Y-431052D01*
Y-465836D02*
Y-432802D01*
X383526Y-430784D02*
X383794Y-431052D01*
X354838Y-463296D02*
Y-426896D01*
Y-496316D02*
Y-463296D01*
X357378Y-465836D01*
X366658D01*
X354584Y-429006D02*
Y-415276D01*
X369197Y-400662D01*
X429270Y-377782D02*
X447642Y-359410D01*
X414966Y-377782D02*
X429270D01*
X479298Y-353459D02*
Y-313944D01*
X473346Y-359410D02*
X479298Y-353459D01*
X447642Y-359410D02*
X473346D01*
X413526Y-379222D02*
X414966Y-377782D01*
X492506Y-353060D02*
X558038D01*
X458344Y-387222D02*
X492506Y-353060D01*
X413526Y-387222D02*
X458344D01*
X461908Y-331334D02*
X479298Y-313944D01*
X448056Y-331334D02*
X461908D01*
X413526Y-361222D02*
X424414D01*
X430086Y-355550D01*
Y-349304D01*
X448056Y-331334D01*
X442200Y-320054D02*
X448056Y-314198D01*
X413526Y-320054D02*
X442200D01*
X527812Y-173482D02*
Y-164084D01*
Y-173482D02*
X557022Y-202692D01*
X576208Y-219828D02*
X581406Y-214630D01*
X557022Y-219828D02*
X576208D01*
X532892Y-227408D02*
X536564Y-223736D01*
Y-219828D01*
X557022D01*
X466344Y-251714D02*
X485902Y-232156D01*
X435610Y-251714D02*
X466344D01*
X416814Y-232918D02*
X435610Y-251714D01*
X306324Y-150994D02*
X320412Y-136906D01*
X398662D01*
X317128Y-161798D02*
X330082Y-174752D01*
X306324Y-150994D02*
X317128Y-161798D01*
X343544D01*
X368300D02*
X385826Y-179324D01*
X360680Y-161798D02*
X368300D01*
X314506Y-206384D02*
X330082Y-190808D01*
Y-174752D01*
X341646Y-263414D02*
X342646Y-264414D01*
X331470Y-263414D02*
X341646D01*
X323240Y-271644D02*
X331470Y-263414D01*
X288544Y-271644D02*
X323240D01*
X314506Y-206384D02*
X331470Y-223348D01*
X288036Y-206384D02*
X314506D01*
X329692Y-233000D02*
X331470Y-231222D01*
X323795Y-233000D02*
X329692D01*
X321564Y-235232D02*
X323795Y-233000D01*
X321564Y-243469D02*
Y-235232D01*
Y-243469D02*
X323795Y-245700D01*
X329756D01*
X331470Y-247414D01*
Y-255414D02*
Y-247414D01*
X330564Y-254508D02*
X331470Y-255414D01*
X288544Y-254508D02*
X330564D01*
X288036Y-254000D02*
X288544Y-254508D01*
X288036Y-254000D02*
Y-223520D01*
X683260Y-768350D02*
Y-740020D01*
X612634Y-773684D02*
Y-760984D01*
Y-748284D01*
Y-735584D01*
X617070Y-740020D01*
X683260D01*
X612634Y-722884D02*
X683260D01*
X585216Y-813802D02*
X612634Y-786384D01*
X585216Y-842772D02*
Y-813802D01*
X510928Y-811574D02*
X542126Y-842772D01*
X433324Y-700024D02*
X442586Y-709286D01*
X468122D01*
X469020Y-710184D01*
X515634D01*
Y-722884D02*
Y-710184D01*
X510300Y-692150D02*
X515634Y-697484D01*
X468122Y-692150D02*
X510300D01*
X455812Y-789804D02*
X471932Y-773684D01*
X443992Y-789804D02*
X455812D01*
X410972Y-753334D02*
X469108D01*
X443992Y-762508D02*
X452882Y-753618D01*
X443992Y-772668D02*
Y-762508D01*
X435356Y-805942D02*
X496076D01*
X410972Y-781558D02*
X435356Y-805942D01*
X507014Y-396748D02*
X564418Y-454152D01*
Y-496824D02*
Y-454152D01*
X413526Y-346222D02*
Y-320054D01*
X380086Y-400662D02*
X383526Y-397222D01*
X369197Y-400662D02*
X380086D01*
X428726Y-432802D02*
X449306Y-412222D01*
X413526D02*
X449306D01*
X399579Y-497967D02*
X478790Y-418756D01*
Y-396748D01*
X478316Y-397222D02*
X478790Y-396748D01*
X413526Y-397222D02*
X478316D01*
X534556Y-585244D02*
X540004Y-590692D01*
Y-646430D02*
Y-590692D01*
X578866Y-624704D02*
Y-597916D01*
X557140Y-646430D02*
X578866Y-624704D01*
X557140Y-652916D02*
Y-646430D01*
X543052Y-667004D02*
X557140Y-652916D01*
X519556Y-643508D02*
X543052Y-667004D01*
X519556Y-643508D02*
Y-585244D01*
X553504Y-529464D02*
X578866Y-554826D01*
X519556Y-529464D02*
X553504D01*
X536194Y-512826D02*
Y-496824D01*
X519556Y-529464D02*
X536194Y-512826D01*
X519556Y-555244D02*
Y-529464D01*
X396748Y-578730D02*
X403606D01*
X450986Y-626110D01*
Y-648716D02*
X451748Y-649478D01*
X450986Y-648716D02*
Y-626110D01*
X468556Y-608540D01*
Y-585244D01*
X364744Y-561594D02*
X396748D01*
X462206D02*
X468556Y-555244D01*
X396748Y-561594D02*
X462206D01*
X483556Y-610676D02*
Y-585244D01*
X468122Y-626110D02*
X483556Y-610676D01*
X501556Y-619666D02*
Y-585244D01*
Y-619666D02*
X503936Y-622046D01*
Y-638193D02*
Y-622046D01*
X497984Y-644144D02*
X503936Y-638193D01*
X476758Y-644144D02*
X497984D01*
X468884Y-652018D02*
X476758Y-644144D01*
X489712Y-667512D02*
X509556Y-647668D01*
X343662Y-667512D02*
X489712D01*
X255524Y-579374D02*
X343662Y-667512D01*
X509556Y-647668D02*
Y-585244D01*
X612634Y-710184D02*
X648716D01*
X493014Y-554702D02*
X493556Y-555244D01*
X493014Y-554702D02*
Y-487426D01*
X413526Y-371222D02*
X414966Y-369782D01*
X430086D01*
X450618Y-349250D01*
X469138D01*
X488442Y-748284D02*
X515634D01*
X476758Y-760984D02*
X515634D01*
X469108Y-753334D02*
X476758Y-760984D01*
X493556Y-585244D02*
X493776Y-585464D01*
Y-633984D02*
Y-585464D01*
X255524Y-449072D02*
X317374Y-387222D01*
X255524Y-579374D02*
Y-449072D01*
X312802Y-371222D02*
X383526D01*
X265050Y-323470D02*
X312802Y-371222D01*
X265050Y-323470D02*
Y-111634D01*
X307848Y-327034D02*
Y-304546D01*
Y-327034D02*
X321310Y-340496D01*
X377800D02*
X383526Y-346222D01*
X321310Y-340496D02*
X377800D01*
X380086Y-357782D02*
X383526Y-361222D01*
X321460Y-357782D02*
X380086D01*
X321310Y-357632D02*
X321460Y-357782D01*
X211582Y-378460D02*
X263026D01*
X382764D02*
X383526Y-379222D01*
X280162Y-377952D02*
X383526D01*
X575690Y-77844D02*
X585096Y-68439D01*
X467501Y-77844D02*
X575690D01*
X585096Y-52444D02*
X599440Y-38100D01*
X585096Y-68439D02*
Y-52444D01*
X460876Y-84470D02*
X467501Y-77844D01*
X460876Y-91059D02*
Y-84470D01*
X440300Y-111634D02*
X460876Y-91059D01*
X265050Y-111634D02*
X440300D01*
X317374Y-387222D02*
X383526D01*
X628142Y-652272D02*
X673100Y-607314D01*
X21302Y-234250D02*
Y-215750D01*
X7466D02*
X21302D01*
X1036Y-209320D02*
X7466Y-215750D01*
X-8433Y-209320D02*
X1036D01*
X-26670Y-227558D02*
X-8433Y-209320D01*
X-26670Y-269494D02*
Y-227558D01*
X6302Y-261004D02*
X9761Y-257545D01*
X-4410Y-269494D02*
X8650Y-256434D01*
X-9534Y-269494D02*
X-4410D01*
X21302Y-215750D02*
X25137D01*
X41567Y-199320D01*
X51036D01*
X68580Y-216864D01*
Y-280162D02*
Y-216864D01*
X30802Y-259434D02*
Y-257434D01*
Y-277434D02*
Y-259434D01*
X51444Y-280076D01*
X27802Y-256434D02*
X30802Y-259434D01*
X51444Y-280162D02*
Y-280076D01*
X12930Y-620014D02*
X14168Y-621252D01*
X-30906Y-620014D02*
X12930D01*
X-31098Y-619822D02*
X-30906Y-620014D01*
X-40567Y-619822D02*
X-31098D01*
X-47262Y-626518D02*
X-40567Y-619822D01*
X-47262Y-635987D02*
Y-626518D01*
Y-635987D02*
X-43180Y-640069D01*
Y-680974D02*
Y-640069D01*
X2516Y-679936D02*
X4516Y-677936D01*
X1328Y-681124D02*
X1478Y-680974D01*
X3478D01*
X-26044D02*
X1478D01*
X3478D02*
X3516Y-680936D01*
X14168Y-621252D02*
X15598Y-619822D01*
X48902D01*
X55598Y-626518D01*
Y-677136D02*
Y-626518D01*
Y-677136D02*
X55880Y-677418D01*
X24668Y-678936D02*
X26186Y-677418D01*
X22668Y-680936D02*
X24668Y-678936D01*
X26728Y-680996D01*
X26186Y-677418D02*
X38744D01*
X170310Y-773970D02*
X170470Y-774130D01*
X212670D01*
X218622Y-768179D01*
Y-731964D01*
X220082Y-730504D01*
X182345Y-709903D02*
X185310Y-706938D01*
X179962Y-712286D02*
X182345Y-709903D01*
X202946Y-730504D01*
X181728Y-709286D02*
X182345Y-709903D01*
X180962Y-709286D02*
X181728D01*
X118872Y-756901D02*
X136101Y-774130D01*
X118872Y-756901D02*
Y-721360D01*
X170150Y-774130D02*
X170310Y-773970D01*
X136101Y-774130D02*
X170150D01*
X155310Y-706786D02*
X159810Y-711286D01*
X161810Y-709286D01*
X149736Y-721360D02*
X159810Y-711286D01*
X136008Y-721360D02*
X149736D01*
X192952Y-15430D02*
X205232Y-27710D01*
Y-144018D02*
Y-27710D01*
X471932Y-773684D02*
X515634D01*
X129794Y-27788D02*
X142151Y-15430D01*
X129794Y-69088D02*
Y-27788D01*
Y-69088D02*
X136906Y-76200D01*
X145496D02*
X153462Y-84166D01*
X136906Y-76200D02*
X145496D01*
X192952Y-15430D02*
Y-12650D01*
X142151Y-15430D02*
Y-12650D01*
X140310Y-763970D02*
X160810Y-743470D01*
Y-735470D01*
X179962D02*
X208462Y-763970D01*
X170310Y-773970D02*
Y-735470D01*
Y-658970D02*
Y-634770D01*
X185310Y-706938D02*
Y-637070D01*
X183010Y-634770D02*
X185310Y-637070D01*
X170310Y-712286D02*
Y-688970D01*
X208410Y-634770D02*
X244510D01*
X96110D02*
X132210D01*
X-20298Y-355750D02*
X-16798Y-352250D01*
X-38698Y-355750D02*
X-20298D01*
X59402Y-352250D02*
X87802D01*
X91302Y-355750D01*
X30802Y-277434D02*
X32732Y-279364D01*
Y-351120D02*
Y-279364D01*
X21302Y-295750D02*
X21302Y-257434D01*
X3702Y-354750D02*
X6302Y-357350D01*
Y-349950D02*
Y-261004D01*
X-1850Y-220750D02*
X11650Y-234250D01*
X-3698Y-220750D02*
X-1850D01*
X30802Y-234250D02*
X46302Y-218750D01*
Y-210750D01*
X14168Y-711252D02*
Y-677936D01*
X13012Y-795352D02*
X14028Y-756392D01*
X26728Y-795352D02*
Y-680996D01*
X1328Y-795352D02*
Y-681124D01*
X-54932Y-795352D02*
X-24072D01*
X52128D02*
X88268D01*
X89168Y-796252D01*
X14168Y-654752D02*
Y-621252D01*
X23668Y-654752D02*
X44168Y-634252D01*
Y-631252D01*
X-18984D02*
X4516Y-654752D01*
X-35832Y-631252D02*
X-18984D01*
X153462Y-135636D02*
Y-84166D01*
X180086Y-441706D02*
Y-106934D01*
X621658Y-224924D02*
X651002D01*
X548386Y-151652D02*
Y-89154D01*
Y-151652D02*
X621658Y-224924D01*
X342646Y-222332D02*
Y-220324D01*
X383645Y-179324D02*
X385826D01*
X342646Y-220324D02*
X383645Y-179324D01*
X472694Y-735584D02*
X515634D01*
X509556Y-555244D02*
Y-511080D01*
X612634Y-697484D02*
X627888D01*
X628142Y-697230D01*
Y-652272D01*
X673100Y-607314D02*
Y-417322D01*
X759206Y-331216D01*
Y-99568D01*
X645555Y-26790D02*
X654924D01*
X634245Y-38100D02*
X645555Y-26790D01*
X624840Y-38100D02*
X634245D01*
X520264Y-181030D02*
X527812Y-173482D01*
X416814Y-215782D02*
Y-171610D01*
X331470Y-231222D02*
X332486Y-232238D01*
X352630D01*
X485902Y-232156D02*
Y-215392D01*
X520264Y-181030D01*
X658368Y-237424D02*
Y-197358D01*
X398662Y-153458D02*
Y-136906D01*
Y-153458D02*
X416814Y-171610D01*
X415798Y-136906D02*
X475234D01*
X522986Y-89154D01*
X416814Y-216862D02*
Y-215782D01*
X407924Y-225752D02*
X416814Y-216862D01*
X407924Y-240085D02*
Y-225752D01*
Y-240085D02*
X424633Y-256794D01*
X468448D01*
X503353Y-221890D01*
X504859D01*
X511774Y-236002D02*
X513008Y-237236D01*
X644024D01*
X651002Y-230258D01*
X415798Y-150622D02*
Y-136906D01*
X353728Y-223266D02*
X372618D01*
X353646Y-223348D02*
X353728Y-223266D01*
X372618D02*
X383921D01*
X422529Y-261874D01*
X470552D01*
X496424Y-236002D01*
X511774D01*
X415798Y-150622D02*
X422656Y-157480D01*
X613410Y-233172D02*
X621658Y-224924D01*
X256795Y-861065D02*
X256794Y-876300D01*
X256794Y-868683D01*
X266951Y-868684D01*
X266952Y-861066D01*
X266950Y-876301D01*
X272029Y-876302D02*
X272029Y-873763D01*
X274568Y-873763D01*
X274568Y-876302D01*
X272029Y-876302D01*
X310117Y-863609D02*
X307579Y-861070D01*
X302500Y-861069D01*
X299961Y-863608D01*
X299960Y-873765D01*
X302499Y-876304D01*
X307577Y-876305D01*
X310117Y-873766D01*
X315196Y-861070D02*
X315195Y-876305D01*
X315195Y-868688D01*
X317735Y-866149D01*
X322813Y-866149D01*
X325352Y-868689D01*
X325351Y-876306D01*
X338047Y-876308D02*
X332969Y-876307D01*
X330430Y-873768D01*
X330430Y-868689D01*
X332970Y-866150D01*
X338048Y-866151D01*
X340587Y-868690D01*
X340587Y-871229D01*
X330430Y-871228D01*
X345665Y-876308D02*
X353282Y-876309D01*
X355822Y-873770D01*
X353283Y-871230D01*
X348204Y-871230D01*
X345666Y-868691D01*
X348205Y-866152D01*
X355822Y-866152D01*
X360900Y-876310D02*
X368517Y-876310D01*
X371057Y-873771D01*
X368518Y-871232D01*
X363439Y-871231D01*
X360901Y-868692D01*
X363440Y-866153D01*
X371058Y-866154D01*
X383753Y-876311D02*
X378674Y-876311D01*
X376135Y-873772D01*
X376136Y-868693D01*
X378675Y-866154D01*
X383753Y-866155D01*
X386292Y-868694D01*
X386292Y-871233D01*
X376135Y-871233D01*
X391371Y-866155D02*
X391370Y-876312D01*
X391371Y-871234D01*
X393910Y-868695D01*
X396449Y-866156D01*
X398988Y-866156D01*
X409144Y-878853D02*
X411684Y-876314D01*
X411684Y-873775D01*
X409145Y-873774D01*
X409144Y-876314D01*
X411684Y-876314D01*
X409144Y-878853D01*
X406605Y-881392D01*
X447232Y-876317D02*
X437075Y-876316D01*
X447233Y-866160D01*
X447233Y-863621D01*
X444694Y-861082D01*
X439616Y-861081D01*
X437076Y-863620D01*
X452312Y-863622D02*
X454851Y-861083D01*
X459929Y-861083D01*
X462468Y-863623D01*
X462467Y-873779D01*
X459928Y-876318D01*
X454850Y-876318D01*
X452311Y-873778D01*
X452312Y-863622D01*
X467545Y-876319D02*
X472624Y-876319D01*
X470085Y-876319D01*
X470086Y-861084D01*
X467547Y-863623D01*
X490399Y-861086D02*
X485321Y-863624D01*
X480242Y-868702D01*
X480242Y-873781D01*
X482780Y-876320D01*
X487859Y-876321D01*
X490398Y-873782D01*
X490398Y-871243D01*
X487859Y-868703D01*
X480242Y-868702D01*
X254000Y-852932D02*
X254000Y-842776D01*
X259079Y-837698D01*
X264157Y-842777D01*
X264156Y-852933D01*
X264157Y-845316D01*
X254000Y-845315D01*
X279393Y-840239D02*
X276854Y-837699D01*
X271775Y-837699D01*
X269236Y-840238D01*
X269235Y-850395D01*
X271774Y-852934D01*
X276852Y-852934D01*
X279392Y-850395D01*
X294628Y-840240D02*
X292089Y-837701D01*
X287010Y-837700D01*
X284471Y-840239D01*
X284471Y-842778D01*
X287010Y-845318D01*
X292088Y-845318D01*
X294627Y-847858D01*
X294627Y-850397D01*
X292087Y-852936D01*
X287009Y-852935D01*
X284470Y-850396D01*
X314941Y-837703D02*
X314940Y-852938D01*
X322557Y-852938D01*
X325097Y-850399D01*
X325097Y-847860D01*
X322558Y-845321D01*
X314940Y-845320D01*
X322558Y-845321D01*
X325098Y-842782D01*
X325098Y-840243D01*
X322559Y-837703D01*
X314941Y-837703D01*
X340333Y-837705D02*
X340332Y-852940D01*
X332714Y-852939D01*
X330175Y-850400D01*
X330176Y-845322D01*
X332715Y-842783D01*
X340333Y-842783D01*
X251207Y-813567D02*
X251207Y-816106D01*
X256285Y-821185D01*
X261363Y-816107D01*
X261364Y-813568D01*
X256285Y-821185D02*
X256284Y-828803D01*
X266442Y-813569D02*
X266441Y-826264D01*
X268980Y-828804D01*
X274058Y-828804D01*
X276598Y-826265D01*
X276599Y-813569D01*
X281676Y-828805D02*
X289293Y-828806D01*
X291833Y-826267D01*
X289294Y-823727D01*
X284215Y-823727D01*
X281676Y-821188D01*
X284216Y-818649D01*
X291833Y-818649D01*
X304528Y-828807D02*
X299450Y-828807D01*
X296911Y-826267D01*
X296912Y-821189D01*
X299451Y-818650D01*
X304529Y-818650D01*
X307068Y-821190D01*
X307068Y-823729D01*
X296911Y-823728D01*
X312146Y-828808D02*
X312147Y-818651D01*
X319764Y-818652D01*
X322303Y-821191D01*
X322303Y-828809D01*
X337539Y-813575D02*
X337538Y-828810D01*
X329920Y-828809D01*
X327381Y-826270D01*
X327382Y-821191D01*
X329921Y-818653D01*
X337539Y-818653D01*
X342617Y-821193D02*
X352773Y-821194D01*
X368008Y-826273D02*
X368009Y-816117D01*
X365470Y-813577D01*
X360392Y-813577D01*
X357852Y-816116D01*
X357851Y-826273D01*
X360390Y-828812D01*
X365469Y-828812D01*
X362930Y-823734D02*
X368008Y-828813D01*
X365469Y-828812D02*
X368008Y-826273D01*
X373088Y-813578D02*
X373086Y-828813D01*
X380704Y-828814D01*
X383243Y-826275D01*
X383243Y-823736D01*
X380704Y-821196D01*
X373087Y-821196D01*
X380704Y-821196D01*
X383244Y-818657D01*
X383244Y-816118D01*
X380705Y-813579D01*
X373088Y-813578D01*
X398479Y-813580D02*
X388323Y-813579D01*
X388322Y-821197D01*
X393400Y-818658D01*
X395940Y-818658D01*
X398479Y-821198D01*
X398478Y-826276D01*
X395939Y-828815D01*
X390860Y-828815D01*
X388321Y-826275D01*
X403557Y-816120D02*
X406097Y-813581D01*
X411175Y-813581D01*
X413714Y-816121D01*
X413713Y-826277D01*
X411174Y-828816D01*
X406096Y-828816D01*
X403557Y-826276D01*
X403557Y-816120D01*
X-108698Y-125515D02*
X-98542D01*
Y-128055D01*
X-108698Y-138211D01*
Y-140750D01*
X-98542D01*
X-68071Y-128055D02*
X-70611Y-125515D01*
X-75689D01*
X-78228Y-128055D01*
Y-138211D01*
X-75689Y-140750D01*
X-70611D01*
X-68071Y-138211D01*
X-60454Y-140750D02*
X-55376D01*
X-52836Y-138211D01*
Y-133133D01*
X-55376Y-130594D01*
X-60454D01*
X-62993Y-133133D01*
Y-138211D01*
X-60454Y-140750D01*
X-47758D02*
X-42680D01*
X-45219D01*
Y-130594D01*
X-47758D01*
X-35062Y-140750D02*
X-29984D01*
X-32523D01*
Y-125515D01*
X-35062D01*
X-44196Y-481589D02*
Y-484128D01*
X-39118Y-489207D01*
X-34040Y-484128D01*
Y-481589D01*
X-39118Y-489207D02*
Y-496824D01*
X-3570Y-484128D02*
X-6109Y-481589D01*
X-11187D01*
X-13726Y-484128D01*
Y-494285D01*
X-11187Y-496824D01*
X-6109D01*
X-3570Y-494285D01*
X4048Y-496824D02*
X9126D01*
X11666Y-494285D01*
Y-489207D01*
X9126Y-486668D01*
X4048D01*
X1509Y-489207D01*
Y-494285D01*
X4048Y-496824D01*
X16744D02*
X21822D01*
X19283D01*
Y-486668D01*
X16744D01*
X29440Y-496824D02*
X34518D01*
X31979D01*
Y-481589D01*
X29440D01*
X121921Y-886211D02*
X132076Y-901447D01*
X132078Y-886212D02*
X121920Y-901446D01*
X162547Y-888754D02*
X160009Y-886215D01*
X154930Y-886214D01*
X152391Y-888753D01*
X152390Y-898910D01*
X154929Y-901449D01*
X160007Y-901450D01*
X162547Y-898911D01*
X170164Y-901450D02*
X175242Y-901451D01*
X177782Y-898912D01*
X177782Y-893833D01*
X175243Y-891294D01*
X170165Y-891294D01*
X167625Y-893833D01*
X167625Y-898911D01*
X170164Y-901450D01*
X182860Y-901451D02*
X187938Y-901452D01*
X185399Y-901452D01*
X185400Y-891295D01*
X182861Y-891295D01*
X195556Y-901452D02*
X200634Y-901453D01*
X198095Y-901453D01*
X198096Y-886218D01*
X195557Y-886217D01*
X487172Y-894337D02*
X497328D01*
X492250Y-889258D02*
Y-899415D01*
X502407Y-886719D02*
Y-889258D01*
X507485Y-894337D01*
X512563Y-889258D01*
Y-886719D01*
X507485Y-894337D02*
Y-901954D01*
X532877Y-894337D02*
X543033D01*
X548112D02*
X558269D01*
X563347D02*
X573504D01*
X578582D02*
X588739D01*
X593817D02*
X603974D01*
X609052D02*
X619209D01*
X624287D02*
X634444D01*
X639522D02*
X649679D01*
X654757D02*
X664914D01*
X669993D02*
X680149D01*
X752604Y-816102D02*
Y-805946D01*
Y-800867D02*
Y-790711D01*
Y-785632D02*
Y-775475D01*
Y-770397D02*
Y-760240D01*
Y-755162D02*
Y-745005D01*
Y-739927D02*
Y-729770D01*
Y-724692D02*
Y-714535D01*
Y-709457D02*
Y-699300D01*
Y-694222D02*
Y-684065D01*
Y-678987D02*
Y-668830D01*
Y-648517D02*
Y-638360D01*
X747526Y-643438D02*
X757682D01*
X744986Y-633282D02*
X760222Y-623125D01*
X744986D02*
X760222Y-633282D01*
D33*
X520264Y-218622D02*
Y-181030D01*
X522798Y-227408D02*
X532892D01*
X520264Y-229942D02*
X522798Y-227408D01*
X517434Y-227112D02*
X520264Y-229942D01*
X508944Y-224282D02*
X514604Y-218622D01*
X520264D01*
X505333Y-226331D02*
Y-222363D01*
Y-226331D02*
X508944Y-229942D01*
X505333Y-222363D02*
X508944Y-218752D01*
X511774Y-236002D02*
Y-227112D01*
X514604Y-229942D02*
X517833Y-233172D01*
X613410D01*
D34*
X671028Y-217384D02*
D03*
D35*
X650240Y-12700D02*
D03*
X624840D02*
D03*
X599440D02*
D03*
X574040D02*
D03*
X548640D02*
D03*
X523240D02*
D03*
X497840D02*
D03*
X472440D02*
D03*
X447040D02*
D03*
X421640D02*
D03*
X396240D02*
D03*
X370840D02*
D03*
X345440D02*
D03*
X320040D02*
D03*
X294640D02*
D03*
X269240D02*
D03*
X243840D02*
D03*
X218440D02*
D03*
X193040D02*
D03*
X167640D02*
D03*
X142240D02*
D03*
X116840D02*
D03*
X91440D02*
D03*
X66040D02*
D03*
X40640D02*
D03*
X650240Y-38100D02*
D03*
X624840D02*
D03*
X599440D02*
D03*
X574040D02*
D03*
X548640D02*
D03*
X523240D02*
D03*
X497840D02*
D03*
X472440D02*
D03*
X447040D02*
D03*
X421640D02*
D03*
X396240D02*
D03*
X370840D02*
D03*
X345440D02*
D03*
X320040D02*
D03*
X294640D02*
D03*
X269240D02*
D03*
X243840D02*
D03*
X218440D02*
D03*
X193040D02*
D03*
X167640D02*
D03*
X142240D02*
D03*
X116840D02*
D03*
X91440D02*
D03*
X66040D02*
D03*
X40640D02*
D03*
X15240D02*
D03*
Y-12700D02*
D03*
X649986Y-63754D02*
D03*
X624586D02*
D03*
X599186D02*
D03*
X573786D02*
D03*
X548386D02*
D03*
X522986D02*
D03*
X497586D02*
D03*
X472186D02*
D03*
X446786D02*
D03*
X421386D02*
D03*
X395986D02*
D03*
X370586D02*
D03*
X345186D02*
D03*
X319786D02*
D03*
X294386D02*
D03*
X268986D02*
D03*
X243586D02*
D03*
X218186D02*
D03*
X192786D02*
D03*
X167386D02*
D03*
X141986D02*
D03*
X116586D02*
D03*
X91186D02*
D03*
X65786D02*
D03*
X40386D02*
D03*
X649986Y-89154D02*
D03*
X624586D02*
D03*
X599186D02*
D03*
X573786D02*
D03*
X548386D02*
D03*
X522986D02*
D03*
X497586D02*
D03*
X472186D02*
D03*
X446786D02*
D03*
X421386D02*
D03*
X395986D02*
D03*
X370586D02*
D03*
X345186D02*
D03*
X319786D02*
D03*
X294386D02*
D03*
X268986D02*
D03*
X243586D02*
D03*
X218186D02*
D03*
X192786D02*
D03*
X167386D02*
D03*
X141986D02*
D03*
X116586D02*
D03*
X91186D02*
D03*
X65786D02*
D03*
X40386D02*
D03*
X14986D02*
D03*
Y-63754D02*
D03*
D36*
X151638Y-135636D02*
D03*
X170310Y-658970D02*
D03*
Y-688970D02*
D03*
X19402Y-329250D02*
D03*
X-38698Y-355750D02*
D03*
X87802Y-352250D02*
D03*
X21302Y-295750D02*
D03*
X21302Y-215750D02*
D03*
X46302Y-210750D02*
D03*
X-3698Y-220750D02*
D03*
X14168Y-711252D02*
D03*
X14028Y-756392D02*
D03*
X-55832Y-796252D02*
D03*
X14168Y-621252D02*
D03*
X-35832Y-631252D02*
D03*
X44168D02*
D03*
D37*
X15151Y-38050D02*
D03*
Y-88850D02*
D03*
D38*
X700952Y-12650D02*
D03*
X-73748Y-869950D02*
D03*
X726351D02*
D03*
X-35649Y-12650D02*
D03*
D39*
X176310Y-835970D02*
D03*
D40*
X156310D02*
D03*
D41*
X14168Y-556252D02*
D03*
X18302Y-184750D02*
D03*
D42*
X14168Y-536252D02*
D03*
X18302Y-164750D02*
D03*
D43*
X88268Y-795352D02*
D03*
X712216Y-249682D02*
D03*
X683568Y-174044D02*
D03*
X591058Y-154432D02*
D03*
X728980Y-293878D02*
D03*
X479298Y-313944D02*
D03*
X527812Y-164084D02*
D03*
X581406Y-214630D02*
D03*
X309626Y-271644D02*
D03*
X306324Y-150994D02*
D03*
X287528Y-238252D02*
D03*
X683260Y-768350D02*
D03*
X433324Y-700024D02*
D03*
X563656Y-453390D02*
D03*
X413526Y-320054D02*
D03*
X540004Y-625094D02*
D03*
X422148Y-598424D02*
D03*
X364744Y-561594D02*
D03*
X648716Y-710184D02*
D03*
X493014Y-487426D02*
D03*
X469138Y-349250D02*
D03*
X488442Y-748284D02*
D03*
X493776Y-633984D02*
D03*
X265050Y-323470D02*
D03*
X307848Y-304546D02*
D03*
X211582Y-378460D02*
D03*
X452882Y-753618D02*
D03*
X471932Y-773684D02*
D03*
X205232Y-144018D02*
D03*
X140310Y-763970D02*
D03*
X208462D02*
D03*
X170310Y-773970D02*
D03*
X244510Y-634770D02*
D03*
X96110D02*
D03*
X180086Y-106934D02*
D03*
Y-441706D02*
D03*
X385826Y-179324D02*
D03*
X472694Y-735584D02*
D03*
X509556Y-511080D02*
D03*
X558038Y-353060D02*
D03*
X372618Y-223266D02*
D03*
X422656Y-157480D02*
D03*
M02*
