%FSLAX44Y44*%
%MOMM*%
G71*
G01*
G75*
G04 Layer_Color=2752767*
%ADD10R,5.8166X8.0010*%
%ADD11R,0.8128X1.4224*%
%ADD12R,1.1176X1.0160*%
%ADD13R,1.0160X1.1176*%
%ADD14R,0.5080X1.2192*%
%ADD15R,1.2192X0.5080*%
%ADD16R,1.2700X1.4732*%
%ADD17R,2.5500X1.5500*%
%ADD18R,2.5500X0.9500*%
%ADD19R,2.5500X0.5500*%
%ADD20R,0.6096X0.9144*%
%ADD21R,1.6002X2.7178*%
%ADD22R,1.4732X1.2700*%
%ADD23O,2.0500X0.7000*%
%ADD24R,1.5500X2.5500*%
%ADD25R,0.9500X2.5500*%
%ADD26R,0.5500X2.5500*%
%ADD27R,2.7178X1.6002*%
%ADD28R,0.8128X0.3048*%
%ADD29R,0.3048X0.8128*%
%ADD30C,0.1524*%
%ADD31C,0.8000*%
%ADD32C,0.2540*%
%ADD33C,0.1540*%
%ADD34R,1.0080X1.0080*%
%ADD35C,1.5000*%
%ADD36C,1.5240*%
%ADD37C,0.5000*%
%ADD38C,6.3500*%
%ADD39P,1.3205X8X112.5*%
%ADD40R,1.2200X1.2200*%
%ADD41P,1.3205X8X22.5*%
%ADD42R,1.2200X1.2200*%
%ADD43C,1.2700*%
%ADD44C,1.0160*%
%ADD45C,1.9160*%
G04:AMPARAMS|DCode=46|XSize=2.424mm|YSize=2.424mm|CornerRadius=0mm|HoleSize=0mm|Usage=FLASHONLY|Rotation=0.000|XOffset=0mm|YOffset=0mm|HoleType=Round|Shape=Relief|Width=0.254mm|Gap=0.254mm|Entries=4|*
%AMTHD46*
7,0,0,2.4240,1.9160,0.2540,45*
%
%ADD46THD46*%
%ADD47C,1.7780*%
G04:AMPARAMS|DCode=48|XSize=2.286mm|YSize=2.286mm|CornerRadius=0mm|HoleSize=0mm|Usage=FLASHONLY|Rotation=0.000|XOffset=0mm|YOffset=0mm|HoleType=Round|Shape=Relief|Width=0.254mm|Gap=0.254mm|Entries=4|*
%AMTHD48*
7,0,0,2.2860,1.7780,0.2540,45*
%
%ADD48THD48*%
%ADD49C,1.5160*%
G04:AMPARAMS|DCode=50|XSize=4.699mm|YSize=4.699mm|CornerRadius=0mm|HoleSize=0mm|Usage=FLASHONLY|Rotation=0.000|XOffset=0mm|YOffset=0mm|HoleType=Round|Shape=Relief|Width=0.254mm|Gap=0.254mm|Entries=4|*
%AMTHD50*
7,0,0,4.6990,4.1910,0.2540,45*
%
%ADD50THD50*%
G04:AMPARAMS|DCode=51|XSize=4.724mm|YSize=4.724mm|CornerRadius=0mm|HoleSize=0mm|Usage=FLASHONLY|Rotation=0.000|XOffset=0mm|YOffset=0mm|HoleType=Round|Shape=Relief|Width=0.254mm|Gap=0.254mm|Entries=4|*
%AMTHD51*
7,0,0,4.7240,4.2160,0.2540,45*
%
%ADD51THD51*%
%ADD52C,1.8160*%
%ADD53C,1.7272*%
G04:AMPARAMS|DCode=54|XSize=2.2352mm|YSize=2.2352mm|CornerRadius=0mm|HoleSize=0mm|Usage=FLASHONLY|Rotation=0.000|XOffset=0mm|YOffset=0mm|HoleType=Round|Shape=Relief|Width=0.254mm|Gap=0.254mm|Entries=4|*
%AMTHD54*
7,0,0,2.2352,1.7272,0.2540,45*
%
%ADD54THD54*%
%ADD55C,0.2032*%
%ADD56C,0.2500*%
%ADD57C,0.0000*%
%ADD58C,0.6000*%
%ADD59C,0.5588*%
%ADD60C,0.2000*%
%ADD61C,0.1524*%
%ADD62C,0.4064*%
%ADD63C,0.0415*%
%ADD64C,0.0762*%
%ADD65R,0.4572X0.7620*%
%ADD66R,0.9144X1.5240*%
%ADD67R,6.0198X8.2042*%
%ADD68R,1.0160X1.6256*%
%ADD69R,1.3208X1.2192*%
%ADD70R,1.2192X1.3208*%
%ADD71R,0.7112X1.4224*%
%ADD72R,1.4224X0.7112*%
%ADD73R,1.4732X1.6764*%
%ADD74R,2.7532X1.7532*%
%ADD75R,2.7532X1.1532*%
%ADD76R,2.7532X0.7532*%
%ADD77R,0.8128X1.1176*%
%ADD78R,1.8034X2.9210*%
%ADD79R,1.6764X1.4732*%
%ADD80O,2.2532X0.9032*%
%ADD81R,1.7532X2.7532*%
%ADD82R,1.1532X2.7532*%
%ADD83R,0.7532X2.7532*%
%ADD84R,2.9210X1.8034*%
%ADD85R,1.0160X0.5080*%
%ADD86R,0.5080X1.0160*%
%ADD87C,1.7032*%
%ADD88C,0.7032*%
%ADD89C,6.5532*%
%ADD90P,1.5405X8X112.5*%
%ADD91R,1.4232X1.4232*%
%ADD92P,1.5405X8X22.5*%
%ADD93R,1.4232X1.4232*%
%ADD94C,1.4732*%
%ADD95R,0.4031X0.6048*%
%ADD96R,0.6048X0.4031*%
%ADD97R,0.4031X0.8065*%
%ADD98R,0.8065X0.4031*%
%ADD99C,0.1000*%
%ADD100C,0.0254*%
%ADD101C,0.0500*%
%ADD102C,0.0508*%
%ADD103C,0.1016*%
%ADD104C,0.1270*%
%ADD105R,0.6858X1.6000*%
%ADD106R,0.7000X1.6000*%
%ADD107R,0.7056X1.6000*%
%ADD108R,0.5080X0.9525*%
%ADD109R,0.5001X0.9525*%
%ADD110R,0.9525X0.5080*%
%ADD111R,0.9525X0.5001*%
%ADD112R,0.5000X0.6096*%
%ADD113R,0.5040X0.6096*%
%ADD114R,0.5080X0.6096*%
%ADD115R,0.5080X0.6000*%
%ADD116R,0.5040X0.6000*%
%ADD117R,0.5000X0.6000*%
%ADD118R,0.7501X2.6162*%
%ADD119R,0.7366X2.5999*%
%ADD120R,2.5999X0.7366*%
%ADD121R,2.6162X0.7501*%
%ADD122R,0.5080X0.5080*%
%ADD123C,0.1693*%
D104*
X645160Y-17780D02*
Y-7620D01*
X655320D01*
Y-17780D01*
X645160D01*
X619760D02*
Y-7620D01*
X629920D01*
Y-17780D01*
X619760D01*
X594360D02*
Y-7620D01*
X604520D01*
Y-17780D01*
X594360D01*
X568960D02*
Y-7620D01*
X579120D01*
Y-17780D01*
X568960D01*
X543560D02*
Y-7620D01*
X553720D01*
Y-17780D01*
X543560D01*
X518160D02*
Y-7620D01*
X528320D01*
Y-17780D01*
X518160D01*
X492760D02*
Y-7620D01*
X502920D01*
Y-17780D01*
X492760D01*
X467360D02*
Y-7620D01*
X477520D01*
Y-17780D01*
X467360D01*
X441960D02*
Y-7620D01*
X452120D01*
Y-17780D01*
X441960D01*
X416560D02*
Y-7620D01*
X426720D01*
Y-17780D01*
X416560D01*
X391160D02*
Y-7620D01*
X401320D01*
Y-17780D01*
X391160D01*
X365760D02*
Y-7620D01*
X375920D01*
Y-17780D01*
X365760D01*
X340360D02*
Y-7620D01*
X350520D01*
Y-17780D01*
X340360D01*
X314960D02*
Y-7620D01*
X325120D01*
Y-17780D01*
X314960D01*
X289560D02*
Y-7620D01*
X299720D01*
Y-17780D01*
X289560D01*
X264160D02*
Y-7620D01*
X274320D01*
Y-17780D01*
X264160D01*
X238760D02*
Y-7620D01*
X248920D01*
Y-17780D01*
X238760D01*
X213360D02*
Y-7620D01*
X223520D01*
Y-17780D01*
X213360D01*
X187960D02*
Y-7620D01*
X198120D01*
Y-17780D01*
X187960D01*
X162560D02*
Y-7620D01*
X172720D01*
Y-17780D01*
X162560D01*
X137160D02*
Y-7620D01*
X147320D01*
Y-17780D01*
X137160D01*
X111760D02*
Y-7620D01*
X121920D01*
Y-17780D01*
X111760D01*
X86360D02*
Y-7620D01*
X96520D01*
Y-17780D01*
X86360D01*
X60960D02*
Y-7620D01*
X71120D01*
Y-17780D01*
X60960D01*
X35560D02*
Y-7620D01*
X45720D01*
Y-17780D01*
X35560D01*
X645160Y-43180D02*
Y-33020D01*
X655320D01*
Y-43180D01*
X645160D01*
X619760D02*
Y-33020D01*
X629920D01*
Y-43180D01*
X619760D01*
X594360D02*
Y-33020D01*
X604520D01*
Y-43180D01*
X594360D01*
X568960D02*
Y-33020D01*
X579120D01*
Y-43180D01*
X568960D01*
X543560D02*
Y-33020D01*
X553720D01*
Y-43180D01*
X543560D01*
X518160D02*
Y-33020D01*
X528320D01*
Y-43180D01*
X518160D01*
X492760D02*
Y-33020D01*
X502920D01*
Y-43180D01*
X492760D01*
X467360D02*
Y-33020D01*
X477520D01*
Y-43180D01*
X467360D01*
X441960D02*
Y-33020D01*
X452120D01*
Y-43180D01*
X441960D01*
X416560D02*
Y-33020D01*
X426720D01*
Y-43180D01*
X416560D01*
X391160D02*
Y-33020D01*
X401320D01*
Y-43180D01*
X391160D01*
X365760D02*
Y-33020D01*
X375920D01*
Y-43180D01*
X365760D01*
X340360D02*
Y-33020D01*
X350520D01*
Y-43180D01*
X340360D01*
X314960D02*
Y-33020D01*
X325120D01*
Y-43180D01*
X314960D01*
X289560D02*
Y-33020D01*
X299720D01*
Y-43180D01*
X289560D01*
X264160D02*
Y-33020D01*
X274320D01*
Y-43180D01*
X264160D01*
X238760D02*
Y-33020D01*
X248920D01*
Y-43180D01*
X238760D01*
X213360D02*
Y-33020D01*
X223520D01*
Y-43180D01*
X213360D01*
X187960D02*
Y-33020D01*
X198120D01*
Y-43180D01*
X187960D01*
X162560D02*
Y-33020D01*
X172720D01*
Y-43180D01*
X162560D01*
X137160D02*
Y-33020D01*
X147320D01*
Y-43180D01*
X137160D01*
X111760D02*
Y-33020D01*
X121920D01*
Y-43180D01*
X111760D01*
X86360D02*
Y-33020D01*
X96520D01*
Y-43180D01*
X86360D01*
X60960D02*
Y-33020D01*
X71120D01*
Y-43180D01*
X60960D01*
X35560D02*
Y-33020D01*
X45720D01*
Y-43180D01*
X35560D01*
X10160D02*
Y-33020D01*
X20320D01*
Y-43180D01*
X10160D01*
Y-17780D02*
Y-7620D01*
X20320D01*
Y-17780D01*
X10160D01*
X644906Y-68834D02*
Y-58674D01*
X655066D01*
Y-68834D01*
X644906D01*
X619506D02*
Y-58674D01*
X629666D01*
Y-68834D01*
X619506D01*
X594106D02*
Y-58674D01*
X604266D01*
Y-68834D01*
X594106D01*
X568706D02*
Y-58674D01*
X578866D01*
Y-68834D01*
X568706D01*
X543306D02*
Y-58674D01*
X553466D01*
Y-68834D01*
X543306D01*
X517906D02*
Y-58674D01*
X528066D01*
Y-68834D01*
X517906D01*
X492506D02*
Y-58674D01*
X502666D01*
Y-68834D01*
X492506D01*
X467106D02*
Y-58674D01*
X477266D01*
Y-68834D01*
X467106D01*
X441706D02*
Y-58674D01*
X451866D01*
Y-68834D01*
X441706D01*
X416306D02*
Y-58674D01*
X426466D01*
Y-68834D01*
X416306D01*
X390906D02*
Y-58674D01*
X401066D01*
Y-68834D01*
X390906D01*
X365506D02*
Y-58674D01*
X375666D01*
Y-68834D01*
X365506D01*
X340106D02*
Y-58674D01*
X350266D01*
Y-68834D01*
X340106D01*
X314706D02*
Y-58674D01*
X324866D01*
Y-68834D01*
X314706D01*
X289306D02*
Y-58674D01*
X299466D01*
Y-68834D01*
X289306D01*
X263906D02*
Y-58674D01*
X274066D01*
Y-68834D01*
X263906D01*
X238506D02*
Y-58674D01*
X248666D01*
Y-68834D01*
X238506D01*
X213106D02*
Y-58674D01*
X223266D01*
Y-68834D01*
X213106D01*
X187706D02*
Y-58674D01*
X197866D01*
Y-68834D01*
X187706D01*
X162306D02*
Y-58674D01*
X172466D01*
Y-68834D01*
X162306D01*
X136906D02*
Y-58674D01*
X147066D01*
Y-68834D01*
X136906D01*
X111506D02*
Y-58674D01*
X121666D01*
Y-68834D01*
X111506D01*
X86106D02*
Y-58674D01*
X96266D01*
Y-68834D01*
X86106D01*
X60706D02*
Y-58674D01*
X70866D01*
Y-68834D01*
X60706D01*
X35306D02*
Y-58674D01*
X45466D01*
Y-68834D01*
X35306D01*
X644906Y-94234D02*
Y-84074D01*
X655066D01*
Y-94234D01*
X644906D01*
X619506D02*
Y-84074D01*
X629666D01*
Y-94234D01*
X619506D01*
X594106D02*
Y-84074D01*
X604266D01*
Y-94234D01*
X594106D01*
X568706D02*
Y-84074D01*
X578866D01*
Y-94234D01*
X568706D01*
X543306D02*
Y-84074D01*
X553466D01*
Y-94234D01*
X543306D01*
X517906D02*
Y-84074D01*
X528066D01*
Y-94234D01*
X517906D01*
X492506D02*
Y-84074D01*
X502666D01*
Y-94234D01*
X492506D01*
X467106D02*
Y-84074D01*
X477266D01*
Y-94234D01*
X467106D01*
X441706D02*
Y-84074D01*
X451866D01*
Y-94234D01*
X441706D01*
X416306D02*
Y-84074D01*
X426466D01*
Y-94234D01*
X416306D01*
X390906D02*
Y-84074D01*
X401066D01*
Y-94234D01*
X390906D01*
X365506D02*
Y-84074D01*
X375666D01*
Y-94234D01*
X365506D01*
X340106D02*
Y-84074D01*
X350266D01*
Y-94234D01*
X340106D01*
X314706D02*
Y-84074D01*
X324866D01*
Y-94234D01*
X314706D01*
X289306D02*
Y-84074D01*
X299466D01*
Y-94234D01*
X289306D01*
X263906D02*
Y-84074D01*
X274066D01*
Y-94234D01*
X263906D01*
X238506D02*
Y-84074D01*
X248666D01*
Y-94234D01*
X238506D01*
X213106D02*
Y-84074D01*
X223266D01*
Y-94234D01*
X213106D01*
X187706D02*
Y-84074D01*
X197866D01*
Y-94234D01*
X187706D01*
X162306D02*
Y-84074D01*
X172466D01*
Y-94234D01*
X162306D01*
X136906D02*
Y-84074D01*
X147066D01*
Y-94234D01*
X136906D01*
X111506D02*
Y-84074D01*
X121666D01*
Y-94234D01*
X111506D01*
X86106D02*
Y-84074D01*
X96266D01*
Y-94234D01*
X86106D01*
X60706D02*
Y-84074D01*
X70866D01*
Y-94234D01*
X60706D01*
X35306D02*
Y-84074D01*
X45466D01*
Y-94234D01*
X35306D01*
X9906D02*
Y-84074D01*
X20066D01*
Y-94234D01*
X9906D01*
Y-68834D02*
Y-58674D01*
X20066D01*
Y-68834D01*
X9906D01*
X15151Y-43130D02*
X10072Y-32970D01*
X20231D01*
X15151Y-43130D01*
Y-93930D02*
X10072Y-83770D01*
X20231D01*
X15151Y-93930D01*
X700952Y-17730D02*
X703492Y-15190D01*
X706031D01*
X703492Y-12650D01*
X706031Y-10110D01*
X703492D01*
X700952Y-7570D01*
X698411Y-10110D01*
X695872D01*
X698411Y-12650D01*
X695872Y-15190D01*
X698411D01*
X700952Y-17730D01*
X-78829Y-875030D02*
X-76288Y-869950D01*
X-78829Y-864870D01*
X-73748Y-867410D01*
X-68668Y-864870D01*
X-71209Y-869950D01*
X-68668Y-875030D01*
X-73748Y-872490D01*
X-78829Y-875030D01*
X721272D02*
X723811Y-869950D01*
X721272Y-864870D01*
X726351Y-867410D01*
X731432Y-864870D01*
X728892Y-869950D01*
X731432Y-875030D01*
X726351Y-872490D01*
X721272Y-875030D01*
X-40729Y-17730D02*
X-38189Y-12650D01*
X-40729Y-7570D01*
X-35649Y-10110D01*
X-30568Y-7570D01*
X-33108Y-12650D01*
X-30568Y-17730D01*
X-35649Y-15190D01*
X-40729Y-17730D01*
X173770Y-838510D02*
Y-841050D01*
X178850D01*
Y-838510D01*
X181390D01*
Y-833430D01*
X178850D01*
Y-830890D01*
X173770D01*
Y-833430D01*
X171230D01*
Y-838510D01*
X173770D01*
X153770D02*
Y-841050D01*
X158850D01*
Y-838510D01*
X161390D01*
Y-833430D01*
X158850D01*
Y-830890D01*
X153770D01*
Y-833430D01*
X151230D01*
Y-838510D01*
X153770D01*
X11628Y-558792D02*
Y-561332D01*
X16708D01*
Y-558792D01*
X19248D01*
Y-553712D01*
X16708D01*
Y-551172D01*
X11628D01*
Y-553712D01*
X9088D01*
Y-558792D01*
X11628D01*
Y-538792D02*
Y-541332D01*
X16708D01*
Y-538792D01*
X19248D01*
Y-533712D01*
X16708D01*
Y-531172D01*
X11628D01*
Y-533712D01*
X9088D01*
Y-538792D01*
X11628D01*
X15762Y-187290D02*
Y-189830D01*
X20842D01*
Y-187290D01*
X23382D01*
Y-182210D01*
X20842D01*
Y-179670D01*
X15762D01*
Y-182210D01*
X13222D01*
Y-187290D01*
X15762D01*
Y-167290D02*
Y-169830D01*
X20842D01*
Y-167290D01*
X23382D01*
Y-162210D01*
X20842D01*
Y-159670D01*
X15762D01*
Y-162210D01*
X13222D01*
Y-167290D01*
X15762D01*
X83188Y-800432D02*
X85728D01*
X88268Y-797892D01*
X90808Y-800432D01*
X93348D01*
Y-797892D01*
X90808Y-795352D01*
X93348Y-792812D01*
Y-790272D01*
X90808D01*
X88268Y-792812D01*
X85728Y-790272D01*
X83188D01*
Y-792812D01*
X85728Y-795352D01*
X83188Y-797892D01*
Y-800432D01*
X707136Y-254762D02*
X709676D01*
X712216Y-252222D01*
X714756Y-254762D01*
X717296D01*
Y-252222D01*
X714756Y-249682D01*
X717296Y-247142D01*
Y-244602D01*
X714756D01*
X712216Y-247142D01*
X709676Y-244602D01*
X707136D01*
Y-247142D01*
X709676Y-249682D01*
X707136Y-252222D01*
Y-254762D01*
X678488Y-179124D02*
X681028D01*
X683568Y-176584D01*
X686108Y-179124D01*
X688648D01*
Y-176584D01*
X686108Y-174044D01*
X688648Y-171504D01*
Y-168964D01*
X686108D01*
X683568Y-171504D01*
X681028Y-168964D01*
X678488D01*
Y-171504D01*
X681028Y-174044D01*
X678488Y-176584D01*
Y-179124D01*
X585978Y-159512D02*
X588518D01*
X591058Y-156972D01*
X593598Y-159512D01*
X596138D01*
Y-156972D01*
X593598Y-154432D01*
X596138Y-151892D01*
Y-149352D01*
X593598D01*
X591058Y-151892D01*
X588518Y-149352D01*
X585978D01*
Y-151892D01*
X588518Y-154432D01*
X585978Y-156972D01*
Y-159512D01*
X723900Y-298958D02*
X726440D01*
X728980Y-296418D01*
X731520Y-298958D01*
X734060D01*
Y-296418D01*
X731520Y-293878D01*
X734060Y-291338D01*
Y-288798D01*
X731520D01*
X728980Y-291338D01*
X726440Y-288798D01*
X723900D01*
Y-291338D01*
X726440Y-293878D01*
X723900Y-296418D01*
Y-298958D01*
X474218Y-319024D02*
X476758D01*
X479298Y-316484D01*
X481838Y-319024D01*
X484378D01*
Y-316484D01*
X481838Y-313944D01*
X484378Y-311404D01*
Y-308864D01*
X481838D01*
X479298Y-311404D01*
X476758Y-308864D01*
X474218D01*
Y-311404D01*
X476758Y-313944D01*
X474218Y-316484D01*
Y-319024D01*
X522732Y-169164D02*
X525272D01*
X527812Y-166624D01*
X530352Y-169164D01*
X532892D01*
Y-166624D01*
X530352Y-164084D01*
X532892Y-161544D01*
Y-159004D01*
X530352D01*
X527812Y-161544D01*
X525272Y-159004D01*
X522732D01*
Y-161544D01*
X525272Y-164084D01*
X522732Y-166624D01*
Y-169164D01*
X576326Y-219710D02*
X578866D01*
X581406Y-217170D01*
X583946Y-219710D01*
X586486D01*
Y-217170D01*
X583946Y-214630D01*
X586486Y-212090D01*
Y-209550D01*
X583946D01*
X581406Y-212090D01*
X578866Y-209550D01*
X576326D01*
Y-212090D01*
X578866Y-214630D01*
X576326Y-217170D01*
Y-219710D01*
X304546Y-276724D02*
X307086D01*
X309626Y-274184D01*
X312166Y-276724D01*
X314706D01*
Y-274184D01*
X312166Y-271644D01*
X314706Y-269104D01*
Y-266564D01*
X312166D01*
X309626Y-269104D01*
X307086Y-266564D01*
X304546D01*
Y-269104D01*
X307086Y-271644D01*
X304546Y-274184D01*
Y-276724D01*
X301244Y-156074D02*
X303784D01*
X306324Y-153534D01*
X308864Y-156074D01*
X311404D01*
Y-153534D01*
X308864Y-150994D01*
X311404Y-148454D01*
Y-145914D01*
X308864D01*
X306324Y-148454D01*
X303784Y-145914D01*
X301244D01*
Y-148454D01*
X303784Y-150994D01*
X301244Y-153534D01*
Y-156074D01*
X282448Y-243332D02*
X284988D01*
X287528Y-240792D01*
X290068Y-243332D01*
X292608D01*
Y-240792D01*
X290068Y-238252D01*
X292608Y-235712D01*
Y-233172D01*
X290068D01*
X287528Y-235712D01*
X284988Y-233172D01*
X282448D01*
Y-235712D01*
X284988Y-238252D01*
X282448Y-240792D01*
Y-243332D01*
X678180Y-773430D02*
X680720D01*
X683260Y-770890D01*
X685800Y-773430D01*
X688340D01*
Y-770890D01*
X685800Y-768350D01*
X688340Y-765810D01*
Y-763270D01*
X685800D01*
X683260Y-765810D01*
X680720Y-763270D01*
X678180D01*
Y-765810D01*
X680720Y-768350D01*
X678180Y-770890D01*
Y-773430D01*
X428244Y-705104D02*
X430784D01*
X433324Y-702564D01*
X435864Y-705104D01*
X438404D01*
Y-702564D01*
X435864Y-700024D01*
X438404Y-697484D01*
Y-694944D01*
X435864D01*
X433324Y-697484D01*
X430784Y-694944D01*
X428244D01*
Y-697484D01*
X430784Y-700024D01*
X428244Y-702564D01*
Y-705104D01*
X558576Y-458470D02*
X561116D01*
X563656Y-455930D01*
X566196Y-458470D01*
X568736D01*
Y-455930D01*
X566196Y-453390D01*
X568736Y-450850D01*
Y-448310D01*
X566196D01*
X563656Y-450850D01*
X561116Y-448310D01*
X558576D01*
Y-450850D01*
X561116Y-453390D01*
X558576Y-455930D01*
Y-458470D01*
X408446Y-325134D02*
X410986D01*
X413526Y-322594D01*
X416066Y-325134D01*
X418606D01*
Y-322594D01*
X416066Y-320054D01*
X418606Y-317514D01*
Y-314974D01*
X416066D01*
X413526Y-317514D01*
X410986Y-314974D01*
X408446D01*
Y-317514D01*
X410986Y-320054D01*
X408446Y-322594D01*
Y-325134D01*
X534924Y-630174D02*
X537464D01*
X540004Y-627634D01*
X542544Y-630174D01*
X545084D01*
Y-627634D01*
X542544Y-625094D01*
X545084Y-622554D01*
Y-620014D01*
X542544D01*
X540004Y-622554D01*
X537464Y-620014D01*
X534924D01*
Y-622554D01*
X537464Y-625094D01*
X534924Y-627634D01*
Y-630174D01*
X417068Y-603504D02*
X419608D01*
X422148Y-600964D01*
X424688Y-603504D01*
X427228D01*
Y-600964D01*
X424688Y-598424D01*
X427228Y-595884D01*
Y-593344D01*
X424688D01*
X422148Y-595884D01*
X419608Y-593344D01*
X417068D01*
Y-595884D01*
X419608Y-598424D01*
X417068Y-600964D01*
Y-603504D01*
X359664Y-566674D02*
X362204D01*
X364744Y-564134D01*
X367284Y-566674D01*
X369824D01*
Y-564134D01*
X367284Y-561594D01*
X369824Y-559054D01*
Y-556514D01*
X367284D01*
X364744Y-559054D01*
X362204Y-556514D01*
X359664D01*
Y-559054D01*
X362204Y-561594D01*
X359664Y-564134D01*
Y-566674D01*
X643636Y-715264D02*
X646176D01*
X648716Y-712724D01*
X651256Y-715264D01*
X653796D01*
Y-712724D01*
X651256Y-710184D01*
X653796Y-707644D01*
Y-705104D01*
X651256D01*
X648716Y-707644D01*
X646176Y-705104D01*
X643636D01*
Y-707644D01*
X646176Y-710184D01*
X643636Y-712724D01*
Y-715264D01*
X487934Y-492506D02*
X490474D01*
X493014Y-489966D01*
X495554Y-492506D01*
X498094D01*
Y-489966D01*
X495554Y-487426D01*
X498094Y-484886D01*
Y-482346D01*
X495554D01*
X493014Y-484886D01*
X490474Y-482346D01*
X487934D01*
Y-484886D01*
X490474Y-487426D01*
X487934Y-489966D01*
Y-492506D01*
X464058Y-354330D02*
X466598D01*
X469138Y-351790D01*
X471678Y-354330D01*
X474218D01*
Y-351790D01*
X471678Y-349250D01*
X474218Y-346710D01*
Y-344170D01*
X471678D01*
X469138Y-346710D01*
X466598Y-344170D01*
X464058D01*
Y-346710D01*
X466598Y-349250D01*
X464058Y-351790D01*
Y-354330D01*
X483362Y-753364D02*
X485902D01*
X488442Y-750824D01*
X490982Y-753364D01*
X493522D01*
Y-750824D01*
X490982Y-748284D01*
X493522Y-745744D01*
Y-743204D01*
X490982D01*
X488442Y-745744D01*
X485902Y-743204D01*
X483362D01*
Y-745744D01*
X485902Y-748284D01*
X483362Y-750824D01*
Y-753364D01*
X488696Y-639064D02*
X491236D01*
X493776Y-636524D01*
X496316Y-639064D01*
X498856D01*
Y-636524D01*
X496316Y-633984D01*
X498856Y-631444D01*
Y-628904D01*
X496316D01*
X493776Y-631444D01*
X491236Y-628904D01*
X488696D01*
Y-631444D01*
X491236Y-633984D01*
X488696Y-636524D01*
Y-639064D01*
X259970Y-328550D02*
X262510D01*
X265050Y-326010D01*
X267590Y-328550D01*
X270130D01*
Y-326010D01*
X267590Y-323470D01*
X270130Y-320930D01*
Y-318390D01*
X267590D01*
X265050Y-320930D01*
X262510Y-318390D01*
X259970D01*
Y-320930D01*
X262510Y-323470D01*
X259970Y-326010D01*
Y-328550D01*
X302768Y-309626D02*
X305308D01*
X307848Y-307086D01*
X310388Y-309626D01*
X312928D01*
Y-307086D01*
X310388Y-304546D01*
X312928Y-302006D01*
Y-299466D01*
X310388D01*
X307848Y-302006D01*
X305308Y-299466D01*
X302768D01*
Y-302006D01*
X305308Y-304546D01*
X302768Y-307086D01*
Y-309626D01*
X206502Y-383540D02*
X209042D01*
X211582Y-381000D01*
X214122Y-383540D01*
X216662D01*
Y-381000D01*
X214122Y-378460D01*
X216662Y-375920D01*
Y-373380D01*
X214122D01*
X211582Y-375920D01*
X209042Y-373380D01*
X206502D01*
Y-375920D01*
X209042Y-378460D01*
X206502Y-381000D01*
Y-383540D01*
X447802Y-758698D02*
X450342D01*
X452882Y-756158D01*
X455422Y-758698D01*
X457962D01*
Y-756158D01*
X455422Y-753618D01*
X457962Y-751078D01*
Y-748538D01*
X455422D01*
X452882Y-751078D01*
X450342Y-748538D01*
X447802D01*
Y-751078D01*
X450342Y-753618D01*
X447802Y-756158D01*
Y-758698D01*
X466852Y-778764D02*
X469392D01*
X471932Y-776224D01*
X474472Y-778764D01*
X477012D01*
Y-776224D01*
X474472Y-773684D01*
X477012Y-771144D01*
Y-768604D01*
X474472D01*
X471932Y-771144D01*
X469392Y-768604D01*
X466852D01*
Y-771144D01*
X469392Y-773684D01*
X466852Y-776224D01*
Y-778764D01*
X200152Y-149098D02*
X202692D01*
X205232Y-146558D01*
X207772Y-149098D01*
X210312D01*
Y-146558D01*
X207772Y-144018D01*
X210312Y-141478D01*
Y-138938D01*
X207772D01*
X205232Y-141478D01*
X202692Y-138938D01*
X200152D01*
Y-141478D01*
X202692Y-144018D01*
X200152Y-146558D01*
Y-149098D01*
X135230Y-769050D02*
X137770D01*
X140310Y-766510D01*
X142850Y-769050D01*
X145390D01*
Y-766510D01*
X142850Y-763970D01*
X145390Y-761430D01*
Y-758890D01*
X142850D01*
X140310Y-761430D01*
X137770Y-758890D01*
X135230D01*
Y-761430D01*
X137770Y-763970D01*
X135230Y-766510D01*
Y-769050D01*
X203382D02*
X205922D01*
X208462Y-766510D01*
X211002Y-769050D01*
X213542D01*
Y-766510D01*
X211002Y-763970D01*
X213542Y-761430D01*
Y-758890D01*
X211002D01*
X208462Y-761430D01*
X205922Y-758890D01*
X203382D01*
Y-761430D01*
X205922Y-763970D01*
X203382Y-766510D01*
Y-769050D01*
X165230Y-779050D02*
X167770D01*
X170310Y-776510D01*
X172850Y-779050D01*
X175390D01*
Y-776510D01*
X172850Y-773970D01*
X175390Y-771430D01*
Y-768890D01*
X172850D01*
X170310Y-771430D01*
X167770Y-768890D01*
X165230D01*
Y-771430D01*
X167770Y-773970D01*
X165230Y-776510D01*
Y-779050D01*
X239430Y-639850D02*
X241970D01*
X244510Y-637310D01*
X247050Y-639850D01*
X249590D01*
Y-637310D01*
X247050Y-634770D01*
X249590Y-632230D01*
Y-629690D01*
X247050D01*
X244510Y-632230D01*
X241970Y-629690D01*
X239430D01*
Y-632230D01*
X241970Y-634770D01*
X239430Y-637310D01*
Y-639850D01*
X91030D02*
X93570D01*
X96110Y-637310D01*
X98650Y-639850D01*
X101190D01*
Y-637310D01*
X98650Y-634770D01*
X101190Y-632230D01*
Y-629690D01*
X98650D01*
X96110Y-632230D01*
X93570Y-629690D01*
X91030D01*
Y-632230D01*
X93570Y-634770D01*
X91030Y-637310D01*
Y-639850D01*
X175006Y-112014D02*
X177546D01*
X180086Y-109474D01*
X182626Y-112014D01*
X185166D01*
Y-109474D01*
X182626Y-106934D01*
X185166Y-104394D01*
Y-101854D01*
X182626D01*
X180086Y-104394D01*
X177546Y-101854D01*
X175006D01*
Y-104394D01*
X177546Y-106934D01*
X175006Y-109474D01*
Y-112014D01*
Y-446786D02*
X177546D01*
X180086Y-444246D01*
X182626Y-446786D01*
X185166D01*
Y-444246D01*
X182626Y-441706D01*
X185166Y-439166D01*
Y-436626D01*
X182626D01*
X180086Y-439166D01*
X177546Y-436626D01*
X175006D01*
Y-439166D01*
X177546Y-441706D01*
X175006Y-444246D01*
Y-446786D01*
X380746Y-184404D02*
X383286D01*
X385826Y-181864D01*
X388366Y-184404D01*
X390906D01*
Y-181864D01*
X388366Y-179324D01*
X390906Y-176784D01*
Y-174244D01*
X388366D01*
X385826Y-176784D01*
X383286Y-174244D01*
X380746D01*
Y-176784D01*
X383286Y-179324D01*
X380746Y-181864D01*
Y-184404D01*
X467614Y-740664D02*
X470154D01*
X472694Y-738124D01*
X475234Y-740664D01*
X477774D01*
Y-738124D01*
X475234Y-735584D01*
X477774Y-733044D01*
Y-730504D01*
X475234D01*
X472694Y-733044D01*
X470154Y-730504D01*
X467614D01*
Y-733044D01*
X470154Y-735584D01*
X467614Y-738124D01*
Y-740664D01*
X504476Y-516160D02*
X507016D01*
X509556Y-513620D01*
X512096Y-516160D01*
X514636D01*
Y-513620D01*
X512096Y-511080D01*
X514636Y-508540D01*
Y-506000D01*
X512096D01*
X509556Y-508540D01*
X507016Y-506000D01*
X504476D01*
Y-508540D01*
X507016Y-511080D01*
X504476Y-513620D01*
Y-516160D01*
X552958Y-358140D02*
X555498D01*
X558038Y-355600D01*
X560578Y-358140D01*
X563118D01*
Y-355600D01*
X560578Y-353060D01*
X563118Y-350520D01*
Y-347980D01*
X560578D01*
X558038Y-350520D01*
X555498Y-347980D01*
X552958D01*
Y-350520D01*
X555498Y-353060D01*
X552958Y-355600D01*
Y-358140D01*
X367538Y-228346D02*
X370078D01*
X372618Y-225806D01*
X375158Y-228346D01*
X377698D01*
Y-225806D01*
X375158Y-223266D01*
X377698Y-220726D01*
Y-218186D01*
X375158D01*
X372618Y-220726D01*
X370078Y-218186D01*
X367538D01*
Y-220726D01*
X370078Y-223266D01*
X367538Y-225806D01*
Y-228346D01*
X417576Y-162560D02*
X420116D01*
X422656Y-160020D01*
X425196Y-162560D01*
X427736D01*
Y-160020D01*
X425196Y-157480D01*
X427736Y-154940D01*
Y-152400D01*
X425196D01*
X422656Y-154940D01*
X420116Y-152400D01*
X417576D01*
Y-154940D01*
X420116Y-157480D01*
X417576Y-160020D01*
Y-162560D01*
D123*
X156718Y-135636D02*
G03*
X156718Y-135636I-5080J0D01*
G01*
X175390Y-658970D02*
G03*
X175390Y-658970I-5080J0D01*
G01*
Y-688970D02*
G03*
X175390Y-688970I-5080J0D01*
G01*
X24482Y-329250D02*
G03*
X24482Y-329250I-5080J0D01*
G01*
X-33618Y-355750D02*
G03*
X-33618Y-355750I-5080J0D01*
G01*
X92882Y-352250D02*
G03*
X92882Y-352250I-5080J0D01*
G01*
X26382Y-295750D02*
G03*
X26382Y-295750I-5080J0D01*
G01*
X26382Y-215750D02*
G03*
X26382Y-215750I-5080J0D01*
G01*
X51382Y-210750D02*
G03*
X51382Y-210750I-5080J0D01*
G01*
X1382Y-220750D02*
G03*
X1382Y-220750I-5080J0D01*
G01*
X19248Y-711252D02*
G03*
X19248Y-711252I-5080J0D01*
G01*
X19108Y-756392D02*
G03*
X19108Y-756392I-5080J0D01*
G01*
X-50752Y-796252D02*
G03*
X-50752Y-796252I-5080J0D01*
G01*
X19248Y-621252D02*
G03*
X19248Y-621252I-5080J0D01*
G01*
X-30752Y-631252D02*
G03*
X-30752Y-631252I-5080J0D01*
G01*
X49248D02*
G03*
X49248Y-631252I-5080J0D01*
G01*
M02*
