%FSLAX44Y44*%
%MOMM*%
G71*
G01*
G75*
G04 Layer_Color=0*
%ADD10R,5.8166X8.0010*%
%ADD11R,0.8128X1.4224*%
%ADD12R,1.1176X1.0160*%
%ADD13R,1.0160X1.1176*%
%ADD14R,0.5080X1.2192*%
%ADD15R,1.2192X0.5080*%
%ADD16R,1.2700X1.4732*%
%ADD17R,2.5500X1.5500*%
%ADD18R,2.5500X0.9500*%
%ADD19R,2.5500X0.5500*%
%ADD20R,0.6096X0.9144*%
%ADD21R,1.6002X2.7178*%
%ADD22R,1.4732X1.2700*%
%ADD23O,2.0500X0.7000*%
%ADD24R,1.5500X2.5500*%
%ADD25R,0.9500X2.5500*%
%ADD26R,0.5500X2.5500*%
%ADD27R,2.7178X1.6002*%
%ADD28R,0.8128X0.3048*%
%ADD29R,0.3048X0.8128*%
%ADD30C,0.1524*%
%ADD31C,0.8000*%
%ADD32C,0.2540*%
%ADD33C,0.1540*%
%ADD34R,1.0080X1.0080*%
%ADD35C,1.5000*%
%ADD36C,1.5240*%
%ADD37C,0.5000*%
%ADD38C,6.3500*%
%ADD39P,1.3205X8X112.5*%
%ADD40R,1.2200X1.2200*%
%ADD41P,1.3205X8X22.5*%
%ADD42R,1.2200X1.2200*%
%ADD43C,1.2700*%
%ADD44C,1.0160*%
%ADD45C,1.9160*%
G04:AMPARAMS|DCode=46|XSize=2.424mm|YSize=2.424mm|CornerRadius=0mm|HoleSize=0mm|Usage=FLASHONLY|Rotation=0.000|XOffset=0mm|YOffset=0mm|HoleType=Round|Shape=Relief|Width=0.254mm|Gap=0.254mm|Entries=4|*
%AMTHD46*
7,0,0,2.4240,1.9160,0.2540,45*
%
%ADD46THD46*%
%ADD47C,1.7780*%
G04:AMPARAMS|DCode=48|XSize=2.286mm|YSize=2.286mm|CornerRadius=0mm|HoleSize=0mm|Usage=FLASHONLY|Rotation=0.000|XOffset=0mm|YOffset=0mm|HoleType=Round|Shape=Relief|Width=0.254mm|Gap=0.254mm|Entries=4|*
%AMTHD48*
7,0,0,2.2860,1.7780,0.2540,45*
%
%ADD48THD48*%
%ADD49C,1.5160*%
G04:AMPARAMS|DCode=50|XSize=4.699mm|YSize=4.699mm|CornerRadius=0mm|HoleSize=0mm|Usage=FLASHONLY|Rotation=0.000|XOffset=0mm|YOffset=0mm|HoleType=Round|Shape=Relief|Width=0.254mm|Gap=0.254mm|Entries=4|*
%AMTHD50*
7,0,0,4.6990,4.1910,0.2540,45*
%
%ADD50THD50*%
G04:AMPARAMS|DCode=51|XSize=4.724mm|YSize=4.724mm|CornerRadius=0mm|HoleSize=0mm|Usage=FLASHONLY|Rotation=0.000|XOffset=0mm|YOffset=0mm|HoleType=Round|Shape=Relief|Width=0.254mm|Gap=0.254mm|Entries=4|*
%AMTHD51*
7,0,0,4.7240,4.2160,0.2540,45*
%
%ADD51THD51*%
%ADD52C,1.8160*%
%ADD53C,1.7272*%
G04:AMPARAMS|DCode=54|XSize=2.2352mm|YSize=2.2352mm|CornerRadius=0mm|HoleSize=0mm|Usage=FLASHONLY|Rotation=0.000|XOffset=0mm|YOffset=0mm|HoleType=Round|Shape=Relief|Width=0.254mm|Gap=0.254mm|Entries=4|*
%AMTHD54*
7,0,0,2.2352,1.7272,0.2540,45*
%
%ADD54THD54*%
%ADD55C,0.2032*%
%ADD56C,0.2500*%
%ADD57C,0.0000*%
%ADD58C,0.6000*%
%ADD59C,0.5588*%
%ADD60C,0.2000*%
%ADD61C,0.1524*%
%ADD62C,0.4064*%
%ADD63C,0.0415*%
%ADD64C,0.0762*%
%ADD65R,0.4572X0.7620*%
%ADD66R,0.9144X1.5240*%
%ADD67R,6.0198X8.2042*%
%ADD68R,1.0160X1.6256*%
%ADD69R,1.3208X1.2192*%
%ADD70R,1.2192X1.3208*%
%ADD71R,0.7112X1.4224*%
%ADD72R,1.4224X0.7112*%
%ADD73R,1.4732X1.6764*%
%ADD74R,2.7532X1.7532*%
%ADD75R,2.7532X1.1532*%
%ADD76R,2.7532X0.7532*%
%ADD77R,0.8128X1.1176*%
%ADD78R,1.8034X2.9210*%
%ADD79R,1.6764X1.4732*%
%ADD80O,2.2532X0.9032*%
%ADD81R,1.7532X2.7532*%
%ADD82R,1.1532X2.7532*%
%ADD83R,0.7532X2.7532*%
%ADD84R,2.9210X1.8034*%
%ADD85R,1.0160X0.5080*%
%ADD86R,0.5080X1.0160*%
%ADD87C,1.7032*%
%ADD88C,0.7032*%
%ADD89C,6.5532*%
%ADD90P,1.5405X8X112.5*%
%ADD91R,1.4232X1.4232*%
%ADD92P,1.5405X8X22.5*%
%ADD93R,1.4232X1.4232*%
%ADD94C,1.4732*%
%ADD95R,0.4031X0.6048*%
%ADD96R,0.6048X0.4031*%
%ADD97R,0.4031X0.8065*%
%ADD98R,0.8065X0.4031*%
%ADD99C,0.1000*%
%ADD100C,0.0254*%
%ADD101C,0.0500*%
%ADD102C,0.0508*%
%ADD103C,0.1016*%
%ADD104C,0.1270*%
%ADD105R,0.6858X1.6000*%
%ADD106R,0.7000X1.6000*%
%ADD107R,0.7056X1.6000*%
%ADD108R,0.5080X0.9525*%
%ADD109R,0.5001X0.9525*%
%ADD110R,0.9525X0.5080*%
%ADD111R,0.9525X0.5001*%
%ADD112R,0.5000X0.6096*%
%ADD113R,0.5040X0.6096*%
%ADD114R,0.5080X0.6096*%
%ADD115R,0.5080X0.6000*%
%ADD116R,0.5040X0.6000*%
%ADD117R,0.5000X0.6000*%
%ADD118R,0.7501X2.6162*%
%ADD119R,0.7366X2.5999*%
%ADD120R,2.5999X0.7366*%
%ADD121R,2.6162X0.7501*%
%ADD122R,0.5080X0.5080*%
G36*
X662432Y-217424D02*
X661937D01*
X659366Y-215359D01*
X659360D01*
X659355Y-215348D01*
X659320Y-215319D01*
X659267Y-215278D01*
X659203Y-215226D01*
X659128Y-215162D01*
X659046Y-215092D01*
X658965Y-215016D01*
X658884Y-214941D01*
Y-217192D01*
X658407D01*
Y-214301D01*
X658884D01*
X661670Y-216575D01*
X661955Y-216814D01*
Y-214237D01*
X662432D01*
Y-217424D01*
D02*
G37*
G36*
X662759Y-227534D02*
X664464D01*
Y-228069D01*
X662759D01*
X660439Y-229622D01*
Y-228977D01*
X661660Y-228186D01*
X661666D01*
X661677Y-228174D01*
X661695Y-228162D01*
X661718Y-228151D01*
X661747Y-228127D01*
X661782Y-228104D01*
X661869Y-228052D01*
X661974Y-227988D01*
X662090Y-227918D01*
X662213Y-227842D01*
X662340Y-227773D01*
X662335D01*
X662323Y-227767D01*
X662306Y-227755D01*
X662282Y-227738D01*
X662253Y-227720D01*
X662218Y-227697D01*
X662131Y-227645D01*
X662026Y-227581D01*
X661904Y-227505D01*
X661770Y-227418D01*
X661625Y-227325D01*
X660439Y-226551D01*
Y-225929D01*
X662759Y-227534D01*
D02*
G37*
G36*
X683006Y-203218D02*
X681575Y-204236D01*
X681569Y-204242D01*
X681551Y-204253D01*
X681528Y-204265D01*
X681499Y-204288D01*
X681418Y-204341D01*
X681330Y-204399D01*
X681336Y-204405D01*
X681359Y-204422D01*
X681394Y-204445D01*
X681441Y-204474D01*
X681534Y-204538D01*
X681575Y-204567D01*
X681610Y-204591D01*
X683006Y-205609D01*
Y-206248D01*
X680923Y-204695D01*
X678980Y-206068D01*
Y-205434D01*
X680016Y-204701D01*
X680022D01*
X680027Y-204690D01*
X680045Y-204678D01*
X680068Y-204660D01*
X680126Y-204626D01*
X680196Y-204573D01*
X680278Y-204521D01*
X680359Y-204468D01*
X680435Y-204422D01*
X680505Y-204381D01*
X680493Y-204375D01*
X680470Y-204358D01*
X680423Y-204329D01*
X680365Y-204288D01*
X680301Y-204242D01*
X680219Y-204184D01*
X680138Y-204125D01*
X680051Y-204056D01*
X678980Y-203253D01*
Y-202671D01*
X680894Y-204067D01*
X683006Y-202561D01*
Y-203218D01*
D02*
G37*
G36*
X341376Y-244684D02*
X341004D01*
X339073Y-243134D01*
X339069D01*
X339064Y-243125D01*
X339038Y-243103D01*
X338999Y-243072D01*
X338951Y-243033D01*
X338894Y-242985D01*
X338833Y-242932D01*
X338772Y-242876D01*
X338711Y-242819D01*
Y-244510D01*
X338352D01*
Y-242338D01*
X338711D01*
X340803Y-244047D01*
X341017Y-244226D01*
Y-242290D01*
X341376D01*
Y-244684D01*
D02*
G37*
G36*
X343905Y-246930D02*
X345186D01*
Y-247332D01*
X343905D01*
X342162Y-248499D01*
Y-248014D01*
X343080Y-247420D01*
X343084D01*
X343093Y-247411D01*
X343106Y-247402D01*
X343124Y-247393D01*
X343145Y-247376D01*
X343172Y-247358D01*
X343237Y-247319D01*
X343316Y-247271D01*
X343403Y-247219D01*
X343495Y-247162D01*
X343591Y-247110D01*
X343587D01*
X343578Y-247105D01*
X343565Y-247096D01*
X343547Y-247083D01*
X343525Y-247070D01*
X343499Y-247053D01*
X343434Y-247013D01*
X343355Y-246965D01*
X343263Y-246908D01*
X343163Y-246843D01*
X343054Y-246773D01*
X342162Y-246192D01*
Y-245725D01*
X343905Y-246930D01*
D02*
G37*
G36*
X345186Y-242408D02*
X344111Y-243173D01*
X344106Y-243177D01*
X344093Y-243186D01*
X344076Y-243195D01*
X344054Y-243212D01*
X343993Y-243251D01*
X343927Y-243295D01*
X343932Y-243300D01*
X343949Y-243313D01*
X343975Y-243330D01*
X344010Y-243352D01*
X344080Y-243400D01*
X344111Y-243422D01*
X344137Y-243439D01*
X345186Y-244204D01*
Y-244684D01*
X343622Y-243518D01*
X342162Y-244549D01*
Y-244073D01*
X342940Y-243522D01*
X342944D01*
X342949Y-243514D01*
X342962Y-243505D01*
X342979Y-243492D01*
X343023Y-243465D01*
X343075Y-243426D01*
X343137Y-243387D01*
X343198Y-243347D01*
X343255Y-243313D01*
X343307Y-243282D01*
X343298Y-243278D01*
X343281Y-243265D01*
X343246Y-243243D01*
X343202Y-243212D01*
X343154Y-243177D01*
X343093Y-243134D01*
X343032Y-243090D01*
X342966Y-243037D01*
X342162Y-242435D01*
Y-241998D01*
X343600Y-243046D01*
X345186Y-241915D01*
Y-242408D01*
D02*
G37*
D55*
X-16944Y-879378D02*
G03*
X-16944Y-879378I-5080J0D01*
G01*
X211442Y-550744D02*
G03*
X211442Y-550744I-5080J0D01*
G01*
X-13570Y-435776D02*
G03*
X-13570Y-435776I-5080J0D01*
G01*
X42028Y-898428D02*
X56028Y-894110D01*
X-30152D02*
X-16182Y-898428D01*
X42028D01*
X-30152Y-888268D02*
X56028D01*
X128310Y-536012D02*
X142310Y-531694D01*
X200520D02*
X214490Y-536012D01*
X142310Y-531694D02*
X200520D01*
X128310Y-541854D02*
X214490D01*
X45402Y-454826D02*
X59402Y-450508D01*
X-26778D02*
X-12808Y-454826D01*
X45402D01*
X-26778Y-444666D02*
X59402D01*
D61*
X157080Y-713096D02*
X185534D01*
X157080Y-728780D02*
X185534D01*
X-1056Y-677126D02*
X27398D01*
X-1056Y-661442D02*
X27398D01*
X4078Y-252624D02*
X32532D01*
X4078Y-236940D02*
X32532D01*
D64*
X677418Y-212344D02*
G03*
X682244Y-212090I2500J-1524D01*
G01*
X670306Y-225298D02*
G03*
X674116Y-225298I1905J-2286D01*
G01*
X659638Y-211074D02*
G03*
X659638Y-205994I2540J2540D01*
G01*
X682244Y-212090D02*
X684022Y-212598D01*
X681228Y-213614D02*
X682244Y-212090D01*
X670306Y-225298D02*
X671322Y-226314D01*
X668274Y-225298D02*
X670306D01*
X659638Y-205994D02*
X660654Y-203454D01*
X659638Y-205994D02*
X661924Y-206756D01*
X679958Y-227584D02*
Y-207264D01*
X665988Y-227584D02*
X679958D01*
D102*
X340360Y-240874D02*
G03*
X340360Y-240874I-254J0D01*
G01*
X341376D02*
G03*
X341376Y-240874I-1270J0D01*
G01*
X338836Y-247224D02*
X340106Y-245954D01*
X338836Y-247224D02*
X340106Y-248494D01*
X338836Y-247224D02*
X341376D01*
X343916Y-238334D02*
X345186Y-239604D01*
X342646D02*
X343916Y-238334D01*
Y-240874D02*
Y-238334D01*
D103*
X716784Y-278764D02*
X724154D01*
X716784Y-270002D02*
X724154D01*
X371598Y-470026D02*
X378968D01*
X371598Y-461264D02*
X378968D01*
X412624Y-228092D02*
Y-220722D01*
X421386Y-228092D02*
Y-220722D01*
X348484Y-165988D02*
X355854D01*
X348484Y-157226D02*
X355854D01*
X403602Y-141096D02*
X410972D01*
X403602Y-132334D02*
X410972D01*
X283846Y-218694D02*
Y-211324D01*
X292608Y-218694D02*
Y-211324D01*
X292734Y-266704D02*
Y-259334D01*
X283972Y-266704D02*
Y-259334D01*
X448182Y-784864D02*
Y-777494D01*
X439420Y-784864D02*
Y-777494D01*
X544830Y-642240D02*
X552200D01*
X544830Y-651002D02*
X552200D01*
X455926Y-630300D02*
X463296D01*
X455926Y-621538D02*
X463296D01*
X456688Y-653668D02*
X464058D01*
X456688Y-644906D02*
X464058D01*
X56384Y-284352D02*
X63754D01*
X56384Y-275590D02*
X63754D01*
X-21844Y-265304D02*
X-14474D01*
X-21844Y-274066D02*
X-14474D01*
X43684Y-681608D02*
X51054D01*
X43684Y-672846D02*
X51054D01*
X-38354Y-676784D02*
X-30984D01*
X-38354Y-685546D02*
X-30984D01*
X483362Y-409194D02*
X502666D01*
X483362Y-384302D02*
X502666D01*
X207886Y-734694D02*
X215256D01*
X207886Y-725932D02*
X215256D01*
X123698Y-717170D02*
X131068D01*
X123698Y-725932D02*
X131068D01*
X619248Y-835532D02*
X626618D01*
X619248Y-826770D02*
X626618D01*
X540766Y-484378D02*
X560070D01*
X540766Y-509270D02*
X560070D01*
X398526Y-776986D02*
Y-757682D01*
X423418Y-776986D02*
Y-757682D01*
X400938Y-573790D02*
Y-566420D01*
X392176Y-573790D02*
Y-566420D01*
X267966Y-382142D02*
X275336D01*
X267966Y-373380D02*
X275336D01*
X317120Y-352806D02*
Y-345436D01*
X325882Y-352806D02*
Y-345436D01*
X452246Y-326394D02*
Y-319024D01*
X443484Y-326394D02*
Y-319024D01*
X472312Y-704346D02*
Y-696976D01*
X463550Y-704346D02*
Y-696976D01*
X687450Y-735080D02*
Y-727710D01*
X678688Y-735080D02*
Y-727710D01*
X561212Y-214888D02*
Y-207518D01*
X552450Y-214888D02*
Y-207518D01*
X620394Y-191774D02*
Y-184404D01*
X611632Y-191774D02*
Y-184404D01*
X727452Y-219328D02*
X734822D01*
X727452Y-210566D02*
X734822D01*
D104*
X327406Y-218268D02*
X357646D01*
Y-268414D02*
Y-218268D01*
X327406Y-268414D02*
X357646D01*
X327406D02*
Y-218268D01*
D105*
X-25198Y-801901D02*
D03*
X-12498D02*
D03*
X202D02*
D03*
X209535Y-628221D02*
D03*
X196835D02*
D03*
X184135D02*
D03*
X-21824Y-358299D02*
D03*
X-9124D02*
D03*
X3576D02*
D03*
D106*
X51129Y-801901D02*
D03*
X38429D02*
D03*
X25729D02*
D03*
X133221Y-628209D02*
D03*
X145919Y-628210D02*
D03*
X158619Y-628210D02*
D03*
X54503Y-358299D02*
D03*
X41803D02*
D03*
X29103D02*
D03*
D107*
X13000Y-801902D02*
D03*
X171337Y-628220D02*
D03*
X16374Y-358300D02*
D03*
D108*
X726186Y-274511D02*
D03*
X381000Y-465773D02*
D03*
X357886Y-161735D02*
D03*
X413004Y-136843D02*
D03*
X542798Y-646494D02*
D03*
X465328Y-626047D02*
D03*
X466090Y-649415D02*
D03*
X65786Y-280099D02*
D03*
X-23876Y-269558D02*
D03*
X53086Y-677355D02*
D03*
X-40386Y-681038D02*
D03*
X217288Y-730441D02*
D03*
X121666Y-721424D02*
D03*
X628650Y-831279D02*
D03*
X277368Y-377889D02*
D03*
X736854Y-215075D02*
D03*
D109*
X714461Y-274523D02*
D03*
X369276Y-465773D02*
D03*
X346162Y-161735D02*
D03*
X401280Y-136843D02*
D03*
X554521Y-646493D02*
D03*
X453604Y-626047D02*
D03*
X454366Y-649415D02*
D03*
X54062Y-280099D02*
D03*
X-12153Y-269557D02*
D03*
X41362Y-677355D02*
D03*
X-28663Y-681037D02*
D03*
X205564Y-730441D02*
D03*
X133389Y-721423D02*
D03*
X616926Y-831279D02*
D03*
X265643Y-377890D02*
D03*
X725129Y-215105D02*
D03*
D110*
X416877Y-230124D02*
D03*
X288099Y-220726D02*
D03*
X288480Y-257302D02*
D03*
X443928Y-775462D02*
D03*
X396684Y-564388D02*
D03*
X321373Y-354838D02*
D03*
X447992Y-316992D02*
D03*
X468058Y-694944D02*
D03*
X683196Y-725678D02*
D03*
X556958Y-205486D02*
D03*
X616140Y-182372D02*
D03*
D111*
X416875Y-218349D02*
D03*
X288095Y-208998D02*
D03*
X288486Y-269026D02*
D03*
X443994Y-787186D02*
D03*
X396691Y-576112D02*
D03*
X321372Y-343109D02*
D03*
X447996Y-328716D02*
D03*
X468116Y-706668D02*
D03*
X683242Y-737402D02*
D03*
X556972Y-217210D02*
D03*
X616160Y-194098D02*
D03*
D112*
X161749Y-709794D02*
D03*
X22707Y-680428D02*
D03*
X27830Y-255926D02*
D03*
D113*
X171331Y-709796D02*
D03*
X13146Y-680427D02*
D03*
X18280Y-255924D02*
D03*
D114*
X180954Y-709794D02*
D03*
X3517Y-680428D02*
D03*
X8635Y-255926D02*
D03*
D115*
X180962Y-731978D02*
D03*
X3516Y-658251D02*
D03*
X8650Y-233765D02*
D03*
D116*
X171329Y-731970D02*
D03*
X13149Y-658254D02*
D03*
X18284Y-233752D02*
D03*
D117*
X161810Y-732031D02*
D03*
X22668Y-658213D02*
D03*
X27802Y-233722D02*
D03*
D118*
X506281Y-396875D02*
D03*
X563685Y-496951D02*
D03*
D119*
X479679Y-396703D02*
D03*
X537083Y-496779D02*
D03*
D120*
X410926Y-780669D02*
D03*
D121*
X411099Y-754067D02*
D03*
D122*
X156310Y-835970D02*
D03*
X176630D02*
D03*
X14168Y-536252D02*
D03*
Y-556572D02*
D03*
X18301Y-164750D02*
D03*
Y-185070D02*
D03*
M02*
