%FSLAX44Y44*%
%MOMM*%
G71*
G01*
G75*
G04 Layer_Color=65535*
%ADD10R,5.8166X8.0010*%
%ADD11R,0.8128X1.4224*%
%ADD12R,1.1176X1.0160*%
%ADD13R,1.0160X1.1176*%
%ADD14R,0.5080X1.2192*%
%ADD15R,1.2192X0.5080*%
%ADD16R,1.2700X1.4732*%
%ADD17R,2.5500X1.5500*%
%ADD18R,2.5500X0.9500*%
%ADD19R,2.5500X0.5500*%
%ADD20R,0.6096X0.9144*%
%ADD21R,1.6002X2.7178*%
%ADD22R,1.4732X1.2700*%
%ADD23O,2.0500X0.7000*%
%ADD24R,1.5500X2.5500*%
%ADD25R,0.9500X2.5500*%
%ADD26R,0.5500X2.5500*%
%ADD27R,2.7178X1.6002*%
%ADD28R,0.8128X0.3048*%
%ADD29R,0.3048X0.8128*%
%ADD30C,0.1524*%
%ADD31C,0.8000*%
%ADD32C,0.2540*%
%ADD33C,0.1540*%
%ADD34R,1.0080X1.0080*%
%ADD35C,1.5000*%
%ADD36C,1.5240*%
%ADD37C,0.5000*%
%ADD38C,6.3500*%
%ADD39P,1.3205X8X112.5*%
%ADD40R,1.2200X1.2200*%
%ADD41P,1.3205X8X22.5*%
%ADD42R,1.2200X1.2200*%
%ADD43C,1.2700*%
%ADD44C,1.0160*%
%ADD45C,1.9160*%
G04:AMPARAMS|DCode=46|XSize=2.424mm|YSize=2.424mm|CornerRadius=0mm|HoleSize=0mm|Usage=FLASHONLY|Rotation=0.000|XOffset=0mm|YOffset=0mm|HoleType=Round|Shape=Relief|Width=0.254mm|Gap=0.254mm|Entries=4|*
%AMTHD46*
7,0,0,2.4240,1.9160,0.2540,45*
%
%ADD46THD46*%
%ADD47C,1.7780*%
G04:AMPARAMS|DCode=48|XSize=2.286mm|YSize=2.286mm|CornerRadius=0mm|HoleSize=0mm|Usage=FLASHONLY|Rotation=0.000|XOffset=0mm|YOffset=0mm|HoleType=Round|Shape=Relief|Width=0.254mm|Gap=0.254mm|Entries=4|*
%AMTHD48*
7,0,0,2.2860,1.7780,0.2540,45*
%
%ADD48THD48*%
%ADD49C,1.5160*%
G04:AMPARAMS|DCode=50|XSize=4.699mm|YSize=4.699mm|CornerRadius=0mm|HoleSize=0mm|Usage=FLASHONLY|Rotation=0.000|XOffset=0mm|YOffset=0mm|HoleType=Round|Shape=Relief|Width=0.254mm|Gap=0.254mm|Entries=4|*
%AMTHD50*
7,0,0,4.6990,4.1910,0.2540,45*
%
%ADD50THD50*%
G04:AMPARAMS|DCode=51|XSize=4.724mm|YSize=4.724mm|CornerRadius=0mm|HoleSize=0mm|Usage=FLASHONLY|Rotation=0.000|XOffset=0mm|YOffset=0mm|HoleType=Round|Shape=Relief|Width=0.254mm|Gap=0.254mm|Entries=4|*
%AMTHD51*
7,0,0,4.7240,4.2160,0.2540,45*
%
%ADD51THD51*%
%ADD52C,1.8160*%
%ADD53C,1.7272*%
G04:AMPARAMS|DCode=54|XSize=2.2352mm|YSize=2.2352mm|CornerRadius=0mm|HoleSize=0mm|Usage=FLASHONLY|Rotation=0.000|XOffset=0mm|YOffset=0mm|HoleType=Round|Shape=Relief|Width=0.254mm|Gap=0.254mm|Entries=4|*
%AMTHD54*
7,0,0,2.2352,1.7272,0.2540,45*
%
%ADD54THD54*%
%ADD55C,0.2032*%
%ADD56C,0.2500*%
%ADD57C,0.0000*%
%ADD58C,0.6000*%
%ADD59C,0.5588*%
%ADD60C,0.2000*%
%ADD61C,0.1524*%
%ADD62C,0.4064*%
%ADD63C,0.0415*%
%ADD64C,0.0762*%
%ADD65R,0.4572X0.7620*%
D32*
X470330Y-358731D02*
Y-373966D01*
X480486D01*
X485565D02*
X490643D01*
X488104D01*
Y-358731D01*
X485565Y-361270D01*
X300990Y-489209D02*
Y-504444D01*
X308607D01*
X311146Y-501905D01*
Y-491749D01*
X308607Y-489209D01*
X300990D01*
X316225Y-504444D02*
X321303D01*
X318764D01*
Y-489209D01*
X316225Y-491749D01*
X328921D02*
X331460Y-489209D01*
X336538D01*
X339077Y-491749D01*
Y-501905D01*
X336538Y-504444D01*
X331460D01*
X328921Y-501905D01*
Y-491749D01*
X565834Y-524593D02*
Y-539828D01*
X573451D01*
X575990Y-537289D01*
Y-527132D01*
X573451Y-524593D01*
X565834D01*
X591225D02*
X586147Y-527132D01*
X581069Y-532211D01*
Y-537289D01*
X583608Y-539828D01*
X588686D01*
X591225Y-537289D01*
Y-534750D01*
X588686Y-532211D01*
X581069D01*
X537386Y-804247D02*
Y-819482D01*
X545003D01*
X547542Y-816943D01*
Y-806786D01*
X545003Y-804247D01*
X537386D01*
X562777D02*
X552621D01*
Y-811865D01*
X557699Y-809326D01*
X560238D01*
X562777Y-811865D01*
Y-816943D01*
X560238Y-819482D01*
X555160D01*
X552621Y-816943D01*
X503047Y-662310D02*
Y-675006D01*
X505586Y-677545D01*
X510664D01*
X513203Y-675006D01*
Y-662310D01*
X518282Y-677545D02*
X523360D01*
X520821D01*
Y-662310D01*
X518282Y-664849D01*
X541134Y-677545D02*
X530978D01*
X541134Y-667389D01*
Y-664849D01*
X538595Y-662310D01*
X533517D01*
X530978Y-664849D01*
X456916Y-518175D02*
Y-530871D01*
X459455Y-533410D01*
X464533D01*
X467072Y-530871D01*
Y-518175D01*
X472151Y-533410D02*
X477229D01*
X474690D01*
Y-518175D01*
X472151Y-520714D01*
X484847Y-533410D02*
X489925D01*
X487386D01*
Y-518175D01*
X484847Y-520714D01*
X373893Y-326264D02*
X386589Y-326369D01*
X389149Y-323851D01*
X389191Y-318773D01*
X386673Y-316213D01*
X373978Y-316107D01*
X389254Y-311156D02*
X389297Y-306078D01*
X389276Y-308617D01*
X374041Y-308490D01*
X376559Y-311050D01*
X376665Y-298355D02*
X374147Y-295794D01*
X374189Y-290716D01*
X376749Y-288198D01*
X386906Y-288283D01*
X389424Y-290843D01*
X389381Y-295921D01*
X386821Y-298439D01*
X376665Y-298355D01*
X499032Y-183471D02*
Y-196167D01*
X501571Y-198706D01*
X506649D01*
X509188Y-196167D01*
Y-183471D01*
X514267Y-186010D02*
X516806Y-183471D01*
X521884D01*
X524423Y-186010D01*
Y-188550D01*
X521884Y-191089D01*
X519345D01*
X521884D01*
X524423Y-193628D01*
Y-196167D01*
X521884Y-198706D01*
X516806D01*
X514267Y-196167D01*
X330962Y-276103D02*
Y-288799D01*
X333501Y-291338D01*
X338579D01*
X341118Y-288799D01*
Y-276103D01*
X356353Y-291338D02*
X346197D01*
X356353Y-281182D01*
Y-278643D01*
X353814Y-276103D01*
X348736D01*
X346197Y-278643D01*
X648384Y-169501D02*
Y-182197D01*
X650923Y-184736D01*
X656001D01*
X658540Y-182197D01*
Y-169501D01*
X663619Y-184736D02*
X668697D01*
X666158D01*
Y-169501D01*
X663619Y-172041D01*
X-33782Y-296418D02*
Y-281183D01*
X-26165D01*
X-23626Y-283722D01*
Y-288801D01*
X-26165Y-291340D01*
X-33782D01*
X-28704D02*
X-23626Y-296418D01*
X-18547D02*
X-13469D01*
X-16008D01*
Y-281183D01*
X-18547Y-283722D01*
X-5851Y-293879D02*
X-3312Y-296418D01*
X1766D01*
X4305Y-293879D01*
Y-283722D01*
X1766Y-281183D01*
X-3312D01*
X-5851Y-283722D01*
Y-286262D01*
X-3312Y-288801D01*
X4305D01*
X41148Y-307848D02*
Y-292613D01*
X48765D01*
X51304Y-295152D01*
Y-300231D01*
X48765Y-302770D01*
X41148D01*
X46226D02*
X51304Y-307848D01*
X56383D02*
X61461D01*
X58922D01*
Y-292613D01*
X56383Y-295152D01*
X69079D02*
X71618Y-292613D01*
X76696D01*
X79235Y-295152D01*
Y-297692D01*
X76696Y-300231D01*
X79235Y-302770D01*
Y-305309D01*
X76696Y-307848D01*
X71618D01*
X69079Y-305309D01*
Y-302770D01*
X71618Y-300231D01*
X69079Y-297692D01*
Y-295152D01*
X71618Y-300231D02*
X76696D01*
X-51562Y-710184D02*
Y-694949D01*
X-43945D01*
X-41406Y-697488D01*
Y-702567D01*
X-43945Y-705106D01*
X-51562D01*
X-46484D02*
X-41406Y-710184D01*
X-36327D02*
X-31249D01*
X-33788D01*
Y-694949D01*
X-36327Y-697488D01*
X-23631Y-694949D02*
X-13475D01*
Y-697488D01*
X-23631Y-707645D01*
Y-710184D01*
X33274Y-707136D02*
Y-691901D01*
X40891D01*
X43430Y-694441D01*
Y-699519D01*
X40891Y-702058D01*
X33274D01*
X38352D02*
X43430Y-707136D01*
X48509D02*
X53587D01*
X51048D01*
Y-691901D01*
X48509Y-694441D01*
X71361Y-691901D02*
X66283Y-694441D01*
X61205Y-699519D01*
Y-704597D01*
X63744Y-707136D01*
X68822D01*
X71361Y-704597D01*
Y-702058D01*
X68822Y-699519D01*
X61205D01*
X198873Y-712597D02*
Y-697362D01*
X206490D01*
X209029Y-699902D01*
Y-704980D01*
X206490Y-707519D01*
X198873D01*
X203951D02*
X209029Y-712597D01*
X214108D02*
X219186D01*
X216647D01*
Y-697362D01*
X214108Y-699902D01*
X236960Y-697362D02*
X226804D01*
Y-704980D01*
X231882Y-702441D01*
X234421D01*
X236960Y-704980D01*
Y-710058D01*
X234421Y-712597D01*
X229343D01*
X226804Y-710058D01*
X114730Y-703658D02*
Y-688423D01*
X122347D01*
X124886Y-690963D01*
Y-696041D01*
X122347Y-698580D01*
X114730D01*
X119808D02*
X124886Y-703658D01*
X129965D02*
X135043D01*
X132504D01*
Y-688423D01*
X129965Y-690963D01*
X150278Y-703658D02*
Y-688423D01*
X142661Y-696041D01*
X152817D01*
X359156Y-140716D02*
Y-125481D01*
X366773D01*
X369312Y-128020D01*
Y-133099D01*
X366773Y-135638D01*
X359156D01*
X364234D02*
X369312Y-140716D01*
X384547Y-125481D02*
X379469Y-128020D01*
X374391Y-133099D01*
Y-138177D01*
X376930Y-140716D01*
X382008D01*
X384547Y-138177D01*
Y-135638D01*
X382008Y-133099D01*
X374391D01*
X341630Y-188468D02*
Y-173233D01*
X349247D01*
X351786Y-175772D01*
Y-180851D01*
X349247Y-183390D01*
X341630D01*
X346708D02*
X351786Y-188468D01*
X367021Y-173233D02*
X356865D01*
Y-180851D01*
X361943Y-178312D01*
X364482D01*
X367021Y-180851D01*
Y-185929D01*
X364482Y-188468D01*
X359404D01*
X356865Y-185929D01*
X527734Y-458807D02*
Y-474042D01*
X537890D01*
X542969Y-461347D02*
X545508Y-458807D01*
X550586D01*
X553125Y-461347D01*
Y-463886D01*
X550586Y-466425D01*
X548047D01*
X550586D01*
X553125Y-468964D01*
Y-471503D01*
X550586Y-474042D01*
X545508D01*
X542969Y-471503D01*
X398448Y-719411D02*
Y-734646D01*
X408604D01*
X423839D02*
X413683D01*
X423839Y-724490D01*
Y-721951D01*
X421300Y-719411D01*
X416222D01*
X413683Y-721951D01*
X-7936Y-130617D02*
X-13014D01*
X-10475D01*
Y-143313D01*
X-13014Y-145852D01*
X-15553D01*
X-18092Y-143313D01*
X-2857Y-133156D02*
X-318Y-130617D01*
X4760D01*
X7299Y-133156D01*
Y-135696D01*
X4760Y-138235D01*
X2221D01*
X4760D01*
X7299Y-140774D01*
Y-143313D01*
X4760Y-145852D01*
X-318D01*
X-2857Y-143313D01*
X-12036Y-502101D02*
X-17114D01*
X-14575D01*
Y-514797D01*
X-17114Y-517336D01*
X-19653D01*
X-22192Y-514797D01*
X3199Y-517336D02*
X-6957D01*
X3199Y-507180D01*
Y-504641D01*
X660Y-502101D01*
X-4418D01*
X-6957Y-504641D01*
X157906Y-792055D02*
X152828D01*
X155367D01*
Y-804751D01*
X152828Y-807290D01*
X150289D01*
X147750Y-804751D01*
X162985Y-807290D02*
X168063D01*
X165524D01*
Y-792055D01*
X162985Y-794594D01*
X38354Y-236225D02*
X43432D01*
X40893D01*
Y-251460D01*
X38354D01*
X43432D01*
X61206Y-238764D02*
X58667Y-236225D01*
X53589D01*
X51049Y-238764D01*
Y-248921D01*
X53589Y-251460D01*
X58667D01*
X61206Y-248921D01*
X66285Y-238764D02*
X68824Y-236225D01*
X73902D01*
X76441Y-238764D01*
Y-241304D01*
X73902Y-243843D01*
X76441Y-246382D01*
Y-248921D01*
X73902Y-251460D01*
X68824D01*
X66285Y-248921D01*
Y-246382D01*
X68824Y-243843D01*
X66285Y-241304D01*
Y-238764D01*
X68824Y-243843D02*
X73902D01*
X-42164Y-648721D02*
X-37086D01*
X-39625D01*
Y-663956D01*
X-42164D01*
X-37086D01*
X-19312Y-651261D02*
X-21851Y-648721D01*
X-26929D01*
X-29469Y-651261D01*
Y-661417D01*
X-26929Y-663956D01*
X-21851D01*
X-19312Y-661417D01*
X-14233Y-648721D02*
X-4077D01*
Y-651261D01*
X-14233Y-661417D01*
Y-663956D01*
X157734Y-744225D02*
X162812D01*
X160273D01*
Y-759460D01*
X157734D01*
X162812D01*
X180586Y-746765D02*
X178047Y-744225D01*
X172969D01*
X170429Y-746765D01*
Y-756921D01*
X172969Y-759460D01*
X178047D01*
X180586Y-756921D01*
X195821Y-744225D02*
X190743Y-746765D01*
X185665Y-751843D01*
Y-756921D01*
X188204Y-759460D01*
X193282D01*
X195821Y-756921D01*
Y-754382D01*
X193282Y-751843D01*
X185665D01*
X66402Y-420315D02*
X71480D01*
X68941D01*
Y-435550D01*
X66402D01*
X71480D01*
X89254Y-422854D02*
X86715Y-420315D01*
X81637D01*
X79097Y-422854D01*
Y-433011D01*
X81637Y-435550D01*
X86715D01*
X89254Y-433011D01*
X104489Y-420315D02*
X94333D01*
Y-427933D01*
X99411Y-425394D01*
X101950D01*
X104489Y-427933D01*
Y-433011D01*
X101950Y-435550D01*
X96872D01*
X94333Y-433011D01*
X65278Y-816361D02*
X70356D01*
X67817D01*
Y-831596D01*
X65278D01*
X70356D01*
X88130Y-818901D02*
X85591Y-816361D01*
X80513D01*
X77973Y-818901D01*
Y-829057D01*
X80513Y-831596D01*
X85591D01*
X88130Y-829057D01*
X100826Y-831596D02*
Y-816361D01*
X93209Y-823979D01*
X103365D01*
X127176Y-504273D02*
X132254D01*
X129715D01*
Y-519508D01*
X127176D01*
X132254D01*
X150028Y-506813D02*
X147489Y-504273D01*
X142411D01*
X139872Y-506813D01*
Y-516969D01*
X142411Y-519508D01*
X147489D01*
X150028Y-516969D01*
X155106Y-506813D02*
X157646Y-504273D01*
X162724D01*
X165263Y-506813D01*
Y-509352D01*
X162724Y-511891D01*
X160185D01*
X162724D01*
X165263Y-514430D01*
Y-516969D01*
X162724Y-519508D01*
X157646D01*
X155106Y-516969D01*
X-11926Y-59436D02*
X3309D01*
X-4309D01*
Y-49280D01*
X-11926D01*
X3309D01*
Y-34045D02*
Y-44201D01*
X-6848Y-34045D01*
X-9387D01*
X-11926Y-36584D01*
Y-41662D01*
X-9387Y-44201D01*
X-13204Y-94742D02*
X2032D01*
X-5586D01*
Y-84586D01*
X-13204D01*
X2032D01*
Y-79507D02*
Y-74429D01*
Y-76968D01*
X-13204D01*
X-10664Y-79507D01*
X282444Y-180599D02*
X279905Y-178059D01*
X274827D01*
X272288Y-180599D01*
Y-190755D01*
X274827Y-193294D01*
X279905D01*
X282444Y-190755D01*
X287523Y-180599D02*
X290062Y-178059D01*
X295140D01*
X297679Y-180599D01*
Y-183138D01*
X295140Y-185677D01*
X292601D01*
X295140D01*
X297679Y-188216D01*
Y-190755D01*
X295140Y-193294D01*
X290062D01*
X287523Y-190755D01*
X302758Y-180599D02*
X305297Y-178059D01*
X310375D01*
X312915Y-180599D01*
Y-190755D01*
X310375Y-193294D01*
X305297D01*
X302758Y-190755D01*
Y-180599D01*
X399206Y-534753D02*
X396667Y-532213D01*
X391589D01*
X389050Y-534753D01*
Y-544909D01*
X391589Y-547448D01*
X396667D01*
X399206Y-544909D01*
X414441Y-547448D02*
X404285D01*
X414441Y-537292D01*
Y-534753D01*
X411902Y-532213D01*
X406824D01*
X404285Y-534753D01*
X427137Y-547448D02*
Y-532213D01*
X419520Y-539831D01*
X429677D01*
X406904Y-616970D02*
X404365Y-614431D01*
X399287D01*
X396748Y-616970D01*
Y-627127D01*
X399287Y-629666D01*
X404365D01*
X406904Y-627127D01*
X422139Y-629666D02*
X411983D01*
X422139Y-619510D01*
Y-616970D01*
X419600Y-614431D01*
X414522D01*
X411983Y-616970D01*
X427218D02*
X429757Y-614431D01*
X434835D01*
X437374Y-616970D01*
Y-619510D01*
X434835Y-622049D01*
X432296D01*
X434835D01*
X437374Y-624588D01*
Y-627127D01*
X434835Y-629666D01*
X429757D01*
X427218Y-627127D01*
X408428Y-643641D02*
X405889Y-641101D01*
X400811D01*
X398272Y-643641D01*
Y-653797D01*
X400811Y-656336D01*
X405889D01*
X408428Y-653797D01*
X423663Y-656336D02*
X413507D01*
X423663Y-646180D01*
Y-643641D01*
X421124Y-641101D01*
X416046D01*
X413507Y-643641D01*
X438899Y-656336D02*
X428742D01*
X438899Y-646180D01*
Y-643641D01*
X436359Y-641101D01*
X431281D01*
X428742Y-643641D01*
X450514Y-287356D02*
X447975Y-284817D01*
X442897D01*
X440358Y-287356D01*
Y-297513D01*
X442897Y-300052D01*
X447975D01*
X450514Y-297513D01*
X465749Y-300052D02*
X455593D01*
X465749Y-289896D01*
Y-287356D01*
X463210Y-284817D01*
X458132D01*
X455593Y-287356D01*
X470828D02*
X473367Y-284817D01*
X478445D01*
X480984Y-287356D01*
Y-297513D01*
X478445Y-300052D01*
X473367D01*
X470828Y-297513D01*
Y-287356D01*
X324022Y-313519D02*
X321483Y-310979D01*
X316405D01*
X313866Y-313519D01*
Y-323675D01*
X316405Y-326214D01*
X321483D01*
X324022Y-323675D01*
X329101Y-326214D02*
X334179D01*
X331640D01*
Y-310979D01*
X329101Y-313519D01*
X341796Y-323675D02*
X344336Y-326214D01*
X349414D01*
X351953Y-323675D01*
Y-313519D01*
X349414Y-310979D01*
X344336D01*
X341796Y-313519D01*
Y-316058D01*
X344336Y-318597D01*
X351953D01*
X402840Y-193552D02*
X400301Y-191013D01*
X395223D01*
X392684Y-193552D01*
Y-203709D01*
X395223Y-206248D01*
X400301D01*
X402840Y-203709D01*
X407919Y-206248D02*
X412997D01*
X410458D01*
Y-191013D01*
X407919Y-193552D01*
X420615Y-191013D02*
X430771D01*
Y-193552D01*
X420615Y-203709D01*
Y-206248D01*
X559480Y-175851D02*
X556941Y-173311D01*
X551863D01*
X549324Y-175851D01*
Y-186007D01*
X551863Y-188546D01*
X556941D01*
X559480Y-186007D01*
X564559Y-188546D02*
X569637D01*
X567098D01*
Y-173311D01*
X564559Y-175851D01*
X587411Y-173311D02*
X582333Y-175851D01*
X577254Y-180929D01*
Y-186007D01*
X579794Y-188546D01*
X584872D01*
X587411Y-186007D01*
Y-183468D01*
X584872Y-180929D01*
X577254D01*
X670810Y-268482D02*
X668271Y-265943D01*
X663193D01*
X660654Y-268482D01*
Y-278639D01*
X663193Y-281178D01*
X668271D01*
X670810Y-278639D01*
X675889Y-281178D02*
X680967D01*
X678428D01*
Y-265943D01*
X675889Y-268482D01*
X698741Y-265943D02*
X688585D01*
Y-273561D01*
X693663Y-271022D01*
X696202D01*
X698741Y-273561D01*
Y-278639D01*
X696202Y-281178D01*
X691124D01*
X688585Y-278639D01*
X728644Y-184741D02*
X726105Y-182201D01*
X721027D01*
X718488Y-184741D01*
Y-194897D01*
X721027Y-197436D01*
X726105D01*
X728644Y-194897D01*
X733723Y-197436D02*
X738801D01*
X736262D01*
Y-182201D01*
X733723Y-184741D01*
X754036Y-197436D02*
Y-182201D01*
X746419Y-189819D01*
X756575D01*
X618662Y-152737D02*
X616123Y-150197D01*
X611045D01*
X608506Y-152737D01*
Y-162893D01*
X611045Y-165432D01*
X616123D01*
X618662Y-162893D01*
X623741Y-165432D02*
X628819D01*
X626280D01*
Y-150197D01*
X623741Y-152737D01*
X636437D02*
X638976Y-150197D01*
X644054D01*
X646593Y-152737D01*
Y-155276D01*
X644054Y-157815D01*
X641515D01*
X644054D01*
X646593Y-160354D01*
Y-162893D01*
X644054Y-165432D01*
X638976D01*
X636437Y-162893D01*
X269158Y-347555D02*
X266619Y-345015D01*
X261541D01*
X259002Y-347555D01*
Y-357711D01*
X261541Y-360250D01*
X266619D01*
X269158Y-357711D01*
X274237Y-360250D02*
X279315D01*
X276776D01*
Y-345015D01*
X274237Y-347555D01*
X297089Y-360250D02*
X286933D01*
X297089Y-350094D01*
Y-347555D01*
X294550Y-345015D01*
X289472D01*
X286933Y-347555D01*
X286508Y-284739D02*
X283969Y-282199D01*
X278891D01*
X276352Y-284739D01*
Y-294895D01*
X278891Y-297434D01*
X283969D01*
X286508Y-294895D01*
X291587Y-297434D02*
X296665D01*
X294126D01*
Y-282199D01*
X291587Y-284739D01*
X304283Y-297434D02*
X309361D01*
X306822D01*
Y-282199D01*
X304283Y-284739D01*
X580132Y-647197D02*
X577593Y-644657D01*
X572515D01*
X569976Y-647197D01*
Y-657353D01*
X572515Y-659892D01*
X577593D01*
X580132Y-657353D01*
X585211Y-659892D02*
X590289D01*
X587750D01*
Y-644657D01*
X585211Y-647197D01*
X597907D02*
X600446Y-644657D01*
X605524D01*
X608063Y-647197D01*
Y-657353D01*
X605524Y-659892D01*
X600446D01*
X597907Y-657353D01*
Y-647197D01*
X406142Y-443997D02*
X403603Y-441457D01*
X398525D01*
X395986Y-443997D01*
Y-454153D01*
X398525Y-456692D01*
X403603D01*
X406142Y-454153D01*
X411221D02*
X413760Y-456692D01*
X418838D01*
X421377Y-454153D01*
Y-443997D01*
X418838Y-441457D01*
X413760D01*
X411221Y-443997D01*
Y-446536D01*
X413760Y-449075D01*
X421377D01*
X620391Y-800740D02*
X617852Y-798200D01*
X612774D01*
X610235Y-800740D01*
Y-810896D01*
X612774Y-813435D01*
X617852D01*
X620391Y-810896D01*
X625470Y-800740D02*
X628009Y-798200D01*
X633087D01*
X635626Y-800740D01*
Y-803279D01*
X633087Y-805818D01*
X635626Y-808357D01*
Y-810896D01*
X633087Y-813435D01*
X628009D01*
X625470Y-810896D01*
Y-808357D01*
X628009Y-805818D01*
X625470Y-803279D01*
Y-800740D01*
X628009Y-805818D02*
X633087D01*
X685718Y-696042D02*
X683179Y-693503D01*
X678101D01*
X675562Y-696042D01*
Y-706199D01*
X678101Y-708738D01*
X683179D01*
X685718Y-706199D01*
X690797Y-693503D02*
X700953D01*
Y-696042D01*
X690797Y-706199D01*
Y-708738D01*
X468880Y-786897D02*
X466341Y-784357D01*
X461263D01*
X458724Y-786897D01*
Y-797053D01*
X461263Y-799592D01*
X466341D01*
X468880Y-797053D01*
X484115Y-784357D02*
X479037Y-786897D01*
X473959Y-791975D01*
Y-797053D01*
X476498Y-799592D01*
X481576D01*
X484115Y-797053D01*
Y-794514D01*
X481576Y-791975D01*
X473959D01*
X470580Y-665309D02*
X468041Y-662769D01*
X462963D01*
X460424Y-665309D01*
Y-675465D01*
X462963Y-678004D01*
X468041D01*
X470580Y-675465D01*
X485815Y-662769D02*
X475659D01*
Y-670387D01*
X480737Y-667848D01*
X483276D01*
X485815Y-670387D01*
Y-675465D01*
X483276Y-678004D01*
X478198D01*
X475659Y-675465D01*
D55*
X54108Y-819152D02*
G03*
X54108Y-819152I-5080J0D01*
G01*
X343662Y-233254D02*
G03*
X343662Y-233254I-1016J0D01*
G01*
X140390Y-610970D02*
G03*
X140390Y-610970I-5080J0D01*
G01*
X57482Y-375550D02*
G03*
X57482Y-375550I-5080J0D01*
G01*
X-30152Y-894110D02*
Y-888268D01*
X56028Y-894110D02*
Y-888268D01*
X-33200D02*
X-30152D01*
X56028D02*
X58778D01*
Y-810152D01*
X-33200D02*
X58778D01*
X-33200Y-888268D02*
Y-810152D01*
X327406Y-268414D02*
X335534D01*
X349646D02*
X357646D01*
X349646Y-218268D02*
X357646D01*
X327406D02*
X335534D01*
X366268Y-506476D02*
Y-486316D01*
X399428D02*
Y-481816D01*
X353314D02*
X399428D01*
X353314Y-486316D02*
Y-481816D01*
Y-511048D02*
Y-506476D01*
Y-511048D02*
X399428D01*
Y-506476D01*
X573786Y-852772D02*
Y-832612D01*
X540626Y-857272D02*
Y-852772D01*
Y-857272D02*
X586740D01*
Y-852772D01*
Y-832612D02*
Y-828040D01*
X540626D02*
X586740D01*
X540626Y-832612D02*
Y-828040D01*
X568866Y-586486D02*
X589026D01*
X564366Y-553326D02*
X568866D01*
X564366Y-599440D02*
Y-553326D01*
Y-599440D02*
X568866D01*
X589026D02*
X593598D01*
Y-553326D01*
X589026D02*
X593598D01*
X214490Y-541854D02*
Y-536012D01*
X128310Y-541854D02*
Y-536012D01*
X214490Y-541854D02*
X217538D01*
X125560D02*
X128310D01*
X125560Y-619970D02*
Y-541854D01*
Y-619970D02*
X217538D01*
Y-541854D01*
X651002Y-233924D02*
X654558Y-237424D01*
X651002Y-200914D02*
Y-197358D01*
X654558D01*
X687568Y-237424D02*
X691068D01*
Y-233924D01*
X687568Y-197358D02*
X691068D01*
Y-200914D02*
Y-197358D01*
X-26778Y-450508D02*
Y-444666D01*
X59402Y-450508D02*
Y-444666D01*
X-29826D02*
X-26778D01*
X59402D02*
X62152D01*
Y-366550D01*
X-29826D02*
X62152D01*
X-29826Y-444666D02*
Y-366550D01*
X148690Y-847400D02*
X161390D01*
X146150Y-844860D02*
X148690Y-847400D01*
X146150Y-827080D02*
X148690Y-824540D01*
X146150Y-844860D02*
Y-827080D01*
X166470Y-842320D02*
X171550Y-847400D01*
X166470Y-829620D02*
X171550Y-824540D01*
X161390Y-847400D02*
X166470Y-842320D01*
X161390Y-824540D02*
X166470Y-829620D01*
X148690Y-824540D02*
X161390D01*
X181710D02*
X186790Y-829620D01*
X171550Y-824540D02*
X181710D01*
X171550Y-847400D02*
X181710D01*
X186790Y-842320D01*
Y-829620D01*
X2738Y-541332D02*
Y-528632D01*
X5278Y-526092D01*
X23058D02*
X25598Y-528632D01*
X5278Y-526092D02*
X23058D01*
X2738Y-551492D02*
X7818Y-546412D01*
X20518D02*
X25598Y-551492D01*
X2738Y-541332D02*
X7818Y-546412D01*
X20518D02*
X25598Y-541332D01*
Y-528632D01*
X20518Y-566732D02*
X25598Y-561652D01*
Y-551492D01*
X2738Y-561652D02*
Y-551492D01*
Y-561652D02*
X7818Y-566732D01*
X20518D01*
X6872Y-169830D02*
Y-157130D01*
X9412Y-154590D01*
X27192D02*
X29732Y-157130D01*
X9412Y-154590D02*
X27192D01*
X6872Y-179990D02*
X11952Y-174910D01*
X24652D02*
X29732Y-179990D01*
X6872Y-169830D02*
X11952Y-174910D01*
X24652D02*
X29732Y-169830D01*
Y-157130D01*
X24652Y-195230D02*
X29732Y-190150D01*
Y-179990D01*
X6872Y-190150D02*
Y-179990D01*
Y-190150D02*
X11952Y-195230D01*
X24652D01*
D56*
X366756Y-341142D02*
G03*
X366756Y-341142I-1250J0D01*
G01*
X516884Y-688484D02*
G03*
X516884Y-688484I-1250J0D01*
G01*
X464726Y-603264D02*
G03*
X464726Y-603264I-1250J0D01*
G01*
D57*
X160826Y-725970D02*
G03*
X160826Y-725970I-1016J0D01*
G01*
X25684Y-664252D02*
G03*
X25684Y-664252I-1016J0D01*
G01*
X30818Y-239750D02*
G03*
X30818Y-239750I-1016J0D01*
G01*
D58*
X542884Y-700434D02*
G03*
X542884Y-700434I-3000J0D01*
G01*
D59*
X720344Y-274879D02*
Y-274066D01*
X375158Y-466141D02*
Y-465328D01*
X416509Y-224282D02*
X417322D01*
X287731Y-214884D02*
X288544D01*
X288036Y-263144D02*
X288849D01*
X443484Y-781304D02*
X444297D01*
X548640Y-646938D02*
Y-646125D01*
X459486Y-626415D02*
Y-625602D01*
X460248Y-649783D02*
Y-648970D01*
X622808Y-831647D02*
Y-830834D01*
X396240Y-570230D02*
X397053D01*
X271526Y-378257D02*
Y-377444D01*
X321005Y-348996D02*
X321818D01*
X447548Y-322834D02*
X448361D01*
X467614Y-700786D02*
X468427D01*
X682752Y-731520D02*
X683565D01*
X556514Y-211328D02*
X557327D01*
X615696Y-188214D02*
X616509D01*
X731012Y-215443D02*
Y-214630D01*
D60*
X378525Y-425223D02*
X418525D01*
X378525Y-333223D02*
X418525D01*
Y-425223D02*
X422276D01*
X418525Y-333223D02*
X422276D01*
Y-334472D02*
Y-333223D01*
X374776Y-425222D02*
Y-423972D01*
X422276Y-425222D02*
Y-423972D01*
X374776Y-334472D02*
Y-333223D01*
X378525D01*
X374776Y-425223D02*
Y-425222D01*
Y-425223D02*
X378525D01*
X529884Y-793434D02*
X598384D01*
X529884Y-690434D02*
X598384D01*
Y-793434D02*
Y-690434D01*
X529884Y-793434D02*
Y-690434D01*
X547556Y-590245D02*
Y-550245D01*
X455556Y-590245D02*
Y-550245D01*
X547556D02*
Y-546494D01*
X455556Y-550245D02*
Y-546494D01*
X456806D01*
X546306Y-593994D02*
X547555D01*
X546306Y-546494D02*
X547555D01*
X455556Y-593994D02*
X456806D01*
X455556D02*
Y-590245D01*
X547555Y-593994D02*
X547556D01*
Y-590245D01*
D61*
X185534Y-728780D02*
Y-713096D01*
X157080Y-728780D02*
Y-713096D01*
X-1056Y-677126D02*
Y-661442D01*
X27398Y-677126D02*
Y-661442D01*
X4078Y-252624D02*
Y-236940D01*
X32532Y-252624D02*
Y-236940D01*
X516523Y-215011D02*
X518344D01*
X523875Y-222363D02*
Y-220542D01*
X510863Y-233553D02*
X512684D01*
X505333D02*
Y-231862D01*
X523875Y-228023D02*
Y-226202D01*
X522183Y-233553D02*
X523875D01*
Y-231862D01*
X505333Y-233553D02*
X507024D01*
X505333Y-216703D02*
Y-215011D01*
X522183D02*
X523875D01*
Y-216703D02*
Y-215011D01*
X505333Y-222363D02*
Y-220542D01*
Y-215011D02*
X507024D01*
X516523Y-233553D02*
X518344D01*
X510863Y-215011D02*
X512684D01*
X505333Y-228023D02*
Y-226202D01*
D62*
X147420Y-816920D02*
X185520D01*
X33218Y-565462D02*
Y-527362D01*
X37352Y-193960D02*
Y-155860D01*
D63*
X178406Y-854664D02*
X179270Y-853800D01*
Y-852074D01*
X178406Y-851210D01*
X174953D01*
X174090Y-852074D01*
Y-853800D01*
X174953Y-854664D01*
X179270Y-858980D02*
Y-857254D01*
X178406Y-856390D01*
X174953D01*
X174090Y-857254D01*
Y-858980D01*
X174953Y-859844D01*
X178406D01*
X179270Y-858980D01*
Y-861570D02*
Y-863297D01*
Y-862434D01*
X174090D01*
Y-861570D01*
Y-863297D01*
X179270Y-865887D02*
X174090D01*
Y-869340D01*
X176680Y-871067D02*
Y-874520D01*
X158086Y-854664D02*
X158949Y-853800D01*
Y-852074D01*
X158086Y-851210D01*
X154633D01*
X153770Y-852074D01*
Y-853800D01*
X154633Y-854664D01*
X158949Y-858980D02*
Y-857254D01*
X158086Y-856390D01*
X154633D01*
X153770Y-857254D01*
Y-858980D01*
X154633Y-859844D01*
X158086D01*
X158949Y-858980D01*
Y-861570D02*
Y-863297D01*
Y-862434D01*
X153770D01*
Y-861570D01*
Y-863297D01*
X158949Y-865887D02*
X153770D01*
Y-869340D01*
X156360Y-871067D02*
Y-874520D01*
X158086Y-872793D02*
X154633D01*
X-4526Y-558349D02*
X-3662Y-559212D01*
X-1936D01*
X-1072Y-558349D01*
Y-554896D01*
X-1936Y-554032D01*
X-3662D01*
X-4526Y-554896D01*
X-8842Y-559212D02*
X-7116D01*
X-6252Y-558349D01*
Y-554896D01*
X-7116Y-554032D01*
X-8842D01*
X-9706Y-554896D01*
Y-558349D01*
X-8842Y-559212D01*
X-11432D02*
X-13159D01*
X-12296D01*
Y-554032D01*
X-11432D01*
X-13159D01*
X-15749Y-559212D02*
Y-554032D01*
X-19202D01*
X-20929Y-556622D02*
X-24382D01*
X-4526Y-538029D02*
X-3662Y-538892D01*
X-1936D01*
X-1072Y-538029D01*
Y-534576D01*
X-1936Y-533712D01*
X-3662D01*
X-4526Y-534576D01*
X-8842Y-538892D02*
X-7116D01*
X-6252Y-538029D01*
Y-534576D01*
X-7116Y-533712D01*
X-8842D01*
X-9706Y-534576D01*
Y-538029D01*
X-8842Y-538892D01*
X-11432D02*
X-13159D01*
X-12296D01*
Y-533712D01*
X-11432D01*
X-13159D01*
X-15749Y-538892D02*
Y-533712D01*
X-19202D01*
X-20929Y-536302D02*
X-24382D01*
X-22655Y-538029D02*
Y-534576D01*
X-392Y-186847D02*
X472Y-187710D01*
X2198D01*
X3062Y-186847D01*
Y-183394D01*
X2198Y-182530D01*
X472D01*
X-392Y-183394D01*
X-4708Y-187710D02*
X-2982D01*
X-2118Y-186847D01*
Y-183394D01*
X-2982Y-182530D01*
X-4708D01*
X-5572Y-183394D01*
Y-186847D01*
X-4708Y-187710D01*
X-7298D02*
X-9025D01*
X-8162D01*
Y-182530D01*
X-7298D01*
X-9025D01*
X-11615Y-187710D02*
Y-182530D01*
X-15068D01*
X-16795Y-185120D02*
X-20248D01*
X-392Y-166527D02*
X472Y-167390D01*
X2198D01*
X3062Y-166527D01*
Y-163074D01*
X2198Y-162210D01*
X472D01*
X-392Y-163074D01*
X-4708Y-167390D02*
X-2982D01*
X-2118Y-166527D01*
Y-163074D01*
X-2982Y-162210D01*
X-4708D01*
X-5572Y-163074D01*
Y-166527D01*
X-4708Y-167390D01*
X-7298D02*
X-9025D01*
X-8162D01*
Y-162210D01*
X-7298D01*
X-9025D01*
X-11615Y-167390D02*
Y-162210D01*
X-15068D01*
X-16795Y-164800D02*
X-20248D01*
X-18521Y-166527D02*
Y-163074D01*
D64*
X515289Y-247097D02*
Y-238633D01*
X508941D01*
X511058Y-242865D01*
Y-244981D01*
X508941Y-247097D01*
X504710D01*
X502594Y-244981D01*
Y-240749D01*
X504710Y-238633D01*
X513914D02*
Y-242865D01*
Y-240749D01*
X526609D01*
X524493Y-238633D01*
X526841Y-224968D02*
X535305D01*
Y-212272D01*
X526841D01*
X535305Y-218620D02*
X531073D01*
X535305Y-223592D02*
Y-232056D01*
X531073Y-236288D01*
X526841Y-232056D01*
Y-223592D01*
Y-229940D01*
X535305D01*
D65*
X352044Y-161798D02*
D03*
X407162Y-136906D02*
D03*
X59944Y-280162D02*
D03*
X-18034Y-269494D02*
D03*
X47244Y-677418D02*
D03*
X-34544Y-680974D02*
D03*
X211446Y-730504D02*
D03*
X127508Y-721360D02*
D03*
M02*
