%FSLAX44Y44*%
%MOMM*%
G71*
G01*
G75*
%ADD10R,5.8166X8.0010*%
%ADD11R,0.8128X1.4224*%
%ADD12R,1.1176X1.0160*%
%ADD13R,1.0160X1.1176*%
%ADD14R,0.5080X1.2192*%
%ADD15R,1.2192X0.5080*%
%ADD16R,1.2700X1.4732*%
%ADD17R,2.5500X1.5500*%
%ADD18R,2.5500X0.9500*%
%ADD19R,2.5500X0.5500*%
%ADD20R,0.6096X0.9144*%
%ADD21R,1.6002X2.7178*%
%ADD22R,1.4732X1.2700*%
%ADD23O,2.0500X0.7000*%
%ADD24R,1.5500X2.5500*%
%ADD25R,0.9500X2.5500*%
%ADD26R,0.5500X2.5500*%
%ADD27R,2.7178X1.6002*%
%ADD28R,0.8128X0.3048*%
%ADD29R,0.3048X0.8128*%
%ADD30C,0.1524*%
%ADD31C,0.8000*%
%ADD32C,0.2540*%
%ADD33C,0.1540*%
%ADD34R,1.0080X1.0080*%
%ADD35C,1.5000*%
%ADD36C,1.5240*%
%ADD37C,0.5000*%
%ADD38C,6.3500*%
%ADD39P,1.3205X8X112.5*%
%ADD40R,1.2200X1.2200*%
%ADD41P,1.3205X8X22.5*%
%ADD42R,1.2200X1.2200*%
%ADD43C,1.2700*%
%ADD44C,1.0160*%
%ADD45C,1.9160*%
G04:AMPARAMS|DCode=46|XSize=2.424mm|YSize=2.424mm|CornerRadius=0mm|HoleSize=0mm|Usage=FLASHONLY|Rotation=0.000|XOffset=0mm|YOffset=0mm|HoleType=Round|Shape=Relief|Width=0.254mm|Gap=0.254mm|Entries=4|*
%AMTHD46*
7,0,0,2.4240,1.9160,0.2540,45*
%
%ADD46THD46*%
%ADD47C,1.7780*%
G04:AMPARAMS|DCode=48|XSize=2.286mm|YSize=2.286mm|CornerRadius=0mm|HoleSize=0mm|Usage=FLASHONLY|Rotation=0.000|XOffset=0mm|YOffset=0mm|HoleType=Round|Shape=Relief|Width=0.254mm|Gap=0.254mm|Entries=4|*
%AMTHD48*
7,0,0,2.2860,1.7780,0.2540,45*
%
%ADD48THD48*%
%ADD49C,1.5160*%
G04:AMPARAMS|DCode=50|XSize=4.699mm|YSize=4.699mm|CornerRadius=0mm|HoleSize=0mm|Usage=FLASHONLY|Rotation=0.000|XOffset=0mm|YOffset=0mm|HoleType=Round|Shape=Relief|Width=0.254mm|Gap=0.254mm|Entries=4|*
%AMTHD50*
7,0,0,4.6990,4.1910,0.2540,45*
%
%ADD50THD50*%
G04:AMPARAMS|DCode=51|XSize=4.724mm|YSize=4.724mm|CornerRadius=0mm|HoleSize=0mm|Usage=FLASHONLY|Rotation=0.000|XOffset=0mm|YOffset=0mm|HoleType=Round|Shape=Relief|Width=0.254mm|Gap=0.254mm|Entries=4|*
%AMTHD51*
7,0,0,4.7240,4.2160,0.2540,45*
%
%ADD51THD51*%
%ADD52C,1.8160*%
%ADD53C,1.7272*%
G04:AMPARAMS|DCode=54|XSize=2.2352mm|YSize=2.2352mm|CornerRadius=0mm|HoleSize=0mm|Usage=FLASHONLY|Rotation=0.000|XOffset=0mm|YOffset=0mm|HoleType=Round|Shape=Relief|Width=0.254mm|Gap=0.254mm|Entries=4|*
%AMTHD54*
7,0,0,2.2352,1.7272,0.2540,45*
%
%ADD54THD54*%
%ADD55C,0.2032*%
%ADD56C,0.2500*%
%ADD57C,0.0000*%
%ADD58C,0.6000*%
%ADD59C,0.5588*%
%ADD60C,0.2000*%
%ADD61C,0.1524*%
%ADD62C,0.4064*%
%ADD63C,0.0415*%
%ADD64C,0.0762*%
%ADD65R,0.4572X0.7620*%
%ADD66R,0.9144X1.5240*%
%ADD67R,6.0198X8.2042*%
%ADD68R,1.0160X1.6256*%
%ADD69R,1.3208X1.2192*%
%ADD70R,1.2192X1.3208*%
%ADD71R,0.7112X1.4224*%
%ADD72R,1.4224X0.7112*%
%ADD73R,1.4732X1.6764*%
%ADD74R,2.7532X1.7532*%
%ADD75R,2.7532X1.1532*%
%ADD76R,2.7532X0.7532*%
%ADD77R,0.8128X1.1176*%
%ADD78R,1.8034X2.9210*%
%ADD79R,1.6764X1.4732*%
%ADD80O,2.2532X0.9032*%
%ADD81R,1.7532X2.7532*%
%ADD82R,1.1532X2.7532*%
%ADD83R,0.7532X2.7532*%
%ADD84R,2.9210X1.8034*%
%ADD85R,1.0160X0.5080*%
%ADD86R,0.5080X1.0160*%
%ADD87C,1.7032*%
%ADD88C,0.7032*%
%ADD89C,6.5532*%
%ADD90P,1.5405X8X112.5*%
%ADD91R,1.4232X1.4232*%
%ADD92P,1.5405X8X22.5*%
%ADD93R,1.4232X1.4232*%
%ADD94C,1.4732*%
%ADD95R,0.4031X0.6048*%
%ADD96R,0.6048X0.4031*%
%ADD97R,0.4031X0.8065*%
%ADD98R,0.8065X0.4031*%
%ADD99C,0.1000*%
%ADD100C,0.0254*%
%ADD101C,0.0500*%
%ADD102C,0.0508*%
%ADD103C,0.1016*%
%ADD104C,0.1270*%
%ADD105R,0.6858X1.6000*%
%ADD106R,0.7000X1.6000*%
%ADD107R,0.7056X1.6000*%
%ADD108R,0.5080X0.9525*%
%ADD109R,0.5001X0.9525*%
%ADD110R,0.9525X0.5080*%
%ADD111R,0.9525X0.5001*%
%ADD112R,0.5000X0.6096*%
%ADD113R,0.5040X0.6096*%
%ADD114R,0.5080X0.6096*%
%ADD115R,0.5080X0.6000*%
%ADD116R,0.5040X0.6000*%
%ADD117R,0.5000X0.6000*%
%ADD118R,0.7501X2.6162*%
%ADD119R,0.7366X2.5999*%
%ADD120R,2.5999X0.7366*%
%ADD121R,2.6162X0.7501*%
%ADD122R,0.5080X0.5080*%
%ADD123C,0.1693*%
D104*
X645740Y-12700D02*
X654740D01*
X650240Y-17200D02*
Y-8200D01*
X620340Y-12700D02*
X629340D01*
X624840Y-17200D02*
Y-8200D01*
X594940Y-12700D02*
X603940D01*
X599440Y-17200D02*
Y-8200D01*
X569540Y-12700D02*
X578540D01*
X574040Y-17200D02*
Y-8200D01*
X544140Y-12700D02*
X553140D01*
X548640Y-17200D02*
Y-8200D01*
X518740Y-12700D02*
X527740D01*
X523240Y-17200D02*
Y-8200D01*
X493340Y-12700D02*
X502340D01*
X497840Y-17200D02*
Y-8200D01*
X467940Y-12700D02*
X476940D01*
X472440Y-17200D02*
Y-8200D01*
X442540Y-12700D02*
X451540D01*
X447040Y-17200D02*
Y-8200D01*
X417140Y-12700D02*
X426140D01*
X421640Y-17200D02*
Y-8200D01*
X391740Y-12700D02*
X400740D01*
X396240Y-17200D02*
Y-8200D01*
X366340Y-12700D02*
X375340D01*
X370840Y-17200D02*
Y-8200D01*
X340940Y-12700D02*
X349940D01*
X345440Y-17200D02*
Y-8200D01*
X315540Y-12700D02*
X324540D01*
X320040Y-17200D02*
Y-8200D01*
X290140Y-12700D02*
X299140D01*
X294640Y-17200D02*
Y-8200D01*
X264740Y-12700D02*
X273740D01*
X269240Y-17200D02*
Y-8200D01*
X239340Y-12700D02*
X248340D01*
X243840Y-17200D02*
Y-8200D01*
X213940Y-12700D02*
X222940D01*
X218440Y-17200D02*
Y-8200D01*
X188540Y-12700D02*
X197540D01*
X193040Y-17200D02*
Y-8200D01*
X163140Y-12700D02*
X172140D01*
X167640Y-17200D02*
Y-8200D01*
X137740Y-12700D02*
X146740D01*
X142240Y-17200D02*
Y-8200D01*
X112340Y-12700D02*
X121340D01*
X116840Y-17200D02*
Y-8200D01*
X86940Y-12700D02*
X95940D01*
X91440Y-17200D02*
Y-8200D01*
X61540Y-12700D02*
X70540D01*
X66040Y-17200D02*
Y-8200D01*
X36140Y-12700D02*
X45140D01*
X40640Y-17200D02*
Y-8200D01*
X645740Y-38100D02*
X654740D01*
X650240Y-42600D02*
Y-33600D01*
X620340Y-38100D02*
X629340D01*
X624840Y-42600D02*
Y-33600D01*
X594940Y-38100D02*
X603940D01*
X599440Y-42600D02*
Y-33600D01*
X569540Y-38100D02*
X578540D01*
X574040Y-42600D02*
Y-33600D01*
X544140Y-38100D02*
X553140D01*
X548640Y-42600D02*
Y-33600D01*
X518740Y-38100D02*
X527740D01*
X523240Y-42600D02*
Y-33600D01*
X493340Y-38100D02*
X502340D01*
X497840Y-42600D02*
Y-33600D01*
X467940Y-38100D02*
X476940D01*
X472440Y-42600D02*
Y-33600D01*
X442540Y-38100D02*
X451540D01*
X447040Y-42600D02*
Y-33600D01*
X417140Y-38100D02*
X426140D01*
X421640Y-42600D02*
Y-33600D01*
X391740Y-38100D02*
X400740D01*
X396240Y-42600D02*
Y-33600D01*
X366340Y-38100D02*
X375340D01*
X370840Y-42600D02*
Y-33600D01*
X340940Y-38100D02*
X349940D01*
X345440Y-42600D02*
Y-33600D01*
X315540Y-38100D02*
X324540D01*
X320040Y-42600D02*
Y-33600D01*
X290140Y-38100D02*
X299140D01*
X294640Y-42600D02*
Y-33600D01*
X264740Y-38100D02*
X273740D01*
X269240Y-42600D02*
Y-33600D01*
X239340Y-38100D02*
X248340D01*
X243840Y-42600D02*
Y-33600D01*
X213940Y-38100D02*
X222940D01*
X218440Y-42600D02*
Y-33600D01*
X188540Y-38100D02*
X197540D01*
X193040Y-42600D02*
Y-33600D01*
X163140Y-38100D02*
X172140D01*
X167640Y-42600D02*
Y-33600D01*
X137740Y-38100D02*
X146740D01*
X142240Y-42600D02*
Y-33600D01*
X112340Y-38100D02*
X121340D01*
X116840Y-42600D02*
Y-33600D01*
X86940Y-38100D02*
X95940D01*
X91440Y-42600D02*
Y-33600D01*
X61540Y-38100D02*
X70540D01*
X66040Y-42600D02*
Y-33600D01*
X36140Y-38100D02*
X45140D01*
X40640Y-42600D02*
Y-33600D01*
X10740Y-38100D02*
X19740D01*
X15240Y-42600D02*
Y-33600D01*
X10740Y-12700D02*
X19740D01*
X15240Y-17200D02*
Y-8200D01*
X645486Y-63754D02*
X654486D01*
X649986Y-68254D02*
Y-59254D01*
X620086Y-63754D02*
X629086D01*
X624586Y-68254D02*
Y-59254D01*
X594686Y-63754D02*
X603686D01*
X599186Y-68254D02*
Y-59254D01*
X569286Y-63754D02*
X578286D01*
X573786Y-68254D02*
Y-59254D01*
X543886Y-63754D02*
X552886D01*
X548386Y-68254D02*
Y-59254D01*
X518486Y-63754D02*
X527486D01*
X522986Y-68254D02*
Y-59254D01*
X493086Y-63754D02*
X502086D01*
X497586Y-68254D02*
Y-59254D01*
X467686Y-63754D02*
X476686D01*
X472186Y-68254D02*
Y-59254D01*
X442286Y-63754D02*
X451286D01*
X446786Y-68254D02*
Y-59254D01*
X416886Y-63754D02*
X425886D01*
X421386Y-68254D02*
Y-59254D01*
X391486Y-63754D02*
X400486D01*
X395986Y-68254D02*
Y-59254D01*
X366086Y-63754D02*
X375086D01*
X370586Y-68254D02*
Y-59254D01*
X340686Y-63754D02*
X349686D01*
X345186Y-68254D02*
Y-59254D01*
X315286Y-63754D02*
X324286D01*
X319786Y-68254D02*
Y-59254D01*
X289886Y-63754D02*
X298886D01*
X294386Y-68254D02*
Y-59254D01*
X264486Y-63754D02*
X273486D01*
X268986Y-68254D02*
Y-59254D01*
X239086Y-63754D02*
X248086D01*
X243586Y-68254D02*
Y-59254D01*
X213686Y-63754D02*
X222686D01*
X218186Y-68254D02*
Y-59254D01*
X188286Y-63754D02*
X197286D01*
X192786Y-68254D02*
Y-59254D01*
X162886Y-63754D02*
X171886D01*
X167386Y-68254D02*
Y-59254D01*
X137486Y-63754D02*
X146486D01*
X141986Y-68254D02*
Y-59254D01*
X112086Y-63754D02*
X121086D01*
X116586Y-68254D02*
Y-59254D01*
X86686Y-63754D02*
X95686D01*
X91186Y-68254D02*
Y-59254D01*
X61286Y-63754D02*
X70286D01*
X65786Y-68254D02*
Y-59254D01*
X35886Y-63754D02*
X44886D01*
X40386Y-68254D02*
Y-59254D01*
X645486Y-89154D02*
X654486D01*
X649986Y-93654D02*
Y-84654D01*
X620086Y-89154D02*
X629086D01*
X624586Y-93654D02*
Y-84654D01*
X594686Y-89154D02*
X603686D01*
X599186Y-93654D02*
Y-84654D01*
X569286Y-89154D02*
X578286D01*
X573786Y-93654D02*
Y-84654D01*
X543886Y-89154D02*
X552886D01*
X548386Y-93654D02*
Y-84654D01*
X518486Y-89154D02*
X527486D01*
X522986Y-93654D02*
Y-84654D01*
X493086Y-89154D02*
X502086D01*
X497586Y-93654D02*
Y-84654D01*
X467686Y-89154D02*
X476686D01*
X472186Y-93654D02*
Y-84654D01*
X442286Y-89154D02*
X451286D01*
X446786Y-93654D02*
Y-84654D01*
X416886Y-89154D02*
X425886D01*
X421386Y-93654D02*
Y-84654D01*
X391486Y-89154D02*
X400486D01*
X395986Y-93654D02*
Y-84654D01*
X366086Y-89154D02*
X375086D01*
X370586Y-93654D02*
Y-84654D01*
X340686Y-89154D02*
X349686D01*
X345186Y-93654D02*
Y-84654D01*
X315286Y-89154D02*
X324286D01*
X319786Y-93654D02*
Y-84654D01*
X289886Y-89154D02*
X298886D01*
X294386Y-93654D02*
Y-84654D01*
X264486Y-89154D02*
X273486D01*
X268986Y-93654D02*
Y-84654D01*
X239086Y-89154D02*
X248086D01*
X243586Y-93654D02*
Y-84654D01*
X213686Y-89154D02*
X222686D01*
X218186Y-93654D02*
Y-84654D01*
X188286Y-89154D02*
X197286D01*
X192786Y-93654D02*
Y-84654D01*
X162886Y-89154D02*
X171886D01*
X167386Y-93654D02*
Y-84654D01*
X137486Y-89154D02*
X146486D01*
X141986Y-93654D02*
Y-84654D01*
X112086Y-89154D02*
X121086D01*
X116586Y-93654D02*
Y-84654D01*
X86686Y-89154D02*
X95686D01*
X91186Y-93654D02*
Y-84654D01*
X61286Y-89154D02*
X70286D01*
X65786Y-93654D02*
Y-84654D01*
X35886Y-89154D02*
X44886D01*
X40386Y-93654D02*
Y-84654D01*
X10486Y-89154D02*
X19486D01*
X14986Y-93654D02*
Y-84654D01*
X10486Y-63754D02*
X19486D01*
X14986Y-68254D02*
Y-59254D01*
X147828Y-135636D02*
X155448D01*
X151638Y-139446D02*
Y-131826D01*
X166500Y-658970D02*
X174120D01*
X170310Y-662780D02*
Y-655160D01*
X166500Y-688970D02*
X174120D01*
X170310Y-692780D02*
Y-685160D01*
X15592Y-329250D02*
X23212D01*
X19402Y-333060D02*
Y-325440D01*
X-42508Y-355750D02*
X-34888D01*
X-38698Y-359560D02*
Y-351940D01*
X83992Y-352250D02*
X91612D01*
X87802Y-356060D02*
Y-348440D01*
X17492Y-295750D02*
X25112D01*
X21302Y-299560D02*
Y-291940D01*
X17492Y-215750D02*
X25112D01*
X21302Y-219560D02*
Y-211940D01*
X12651Y-38050D02*
X17651D01*
X15151Y-40550D02*
Y-35550D01*
X12651Y-88850D02*
X17651D01*
X15151Y-91350D02*
Y-86350D01*
X685077Y-12650D02*
X716826D01*
X700952Y-28525D02*
Y3225D01*
X-89748Y-869950D02*
X-57748D01*
X-73748Y-885950D02*
Y-853950D01*
X710351Y-869950D02*
X742352D01*
X726351Y-885950D02*
Y-853950D01*
X-51649Y-12650D02*
X-19648D01*
X-35649Y-28650D02*
Y3350D01*
X42492Y-210750D02*
X50112D01*
X46302Y-214560D02*
Y-206940D01*
X-7508Y-220750D02*
X112D01*
X-3698Y-224560D02*
Y-216940D01*
X10358Y-711252D02*
X17978D01*
X14168Y-715062D02*
Y-707442D01*
X10218Y-756392D02*
X17838D01*
X14028Y-760202D02*
Y-752582D01*
X-59642Y-796252D02*
X-52022D01*
X-55832Y-800062D02*
Y-792442D01*
X10358Y-621252D02*
X17978D01*
X14168Y-625062D02*
Y-617442D01*
X-39642Y-631252D02*
X-32022D01*
X-35832Y-635062D02*
Y-627442D01*
X40358Y-631252D02*
X47978D01*
X44168Y-635062D02*
Y-627442D01*
X172310Y-835970D02*
X180310D01*
X176310Y-839970D02*
Y-831970D01*
X152310Y-835970D02*
X160310D01*
X156310Y-839970D02*
Y-831970D01*
X10168Y-556252D02*
X18168D01*
X14168Y-560252D02*
Y-552252D01*
X10168Y-536252D02*
X18168D01*
X14168Y-540252D02*
Y-532252D01*
X14302Y-184750D02*
X22302D01*
X18302Y-188750D02*
Y-180750D01*
X14302Y-164750D02*
X22302D01*
X18302Y-168750D02*
Y-160750D01*
X84712Y-795352D02*
X91824D01*
X88268Y-798908D02*
Y-791796D01*
X708660Y-249682D02*
X715772D01*
X712216Y-253238D02*
Y-246126D01*
X680012Y-174044D02*
X687124D01*
X683568Y-177600D02*
Y-170488D01*
X587502Y-154432D02*
X594614D01*
X591058Y-157988D02*
Y-150876D01*
X725424Y-293878D02*
X732536D01*
X728980Y-297434D02*
Y-290322D01*
X475742Y-313944D02*
X482854D01*
X479298Y-317500D02*
Y-310388D01*
X524256Y-164084D02*
X531368D01*
X527812Y-167640D02*
Y-160528D01*
X577850Y-214630D02*
X584962D01*
X581406Y-218186D02*
Y-211074D01*
X306070Y-271644D02*
X313182D01*
X309626Y-275200D02*
Y-268088D01*
X302768Y-150994D02*
X309880D01*
X306324Y-154550D02*
Y-147438D01*
X283972Y-238252D02*
X291084D01*
X287528Y-241808D02*
Y-234696D01*
X679704Y-768350D02*
X686816D01*
X683260Y-771906D02*
Y-764794D01*
X429768Y-700024D02*
X436880D01*
X433324Y-703580D02*
Y-696468D01*
X560100Y-453390D02*
X567212D01*
X563656Y-456946D02*
Y-449834D01*
X409970Y-320054D02*
X417082D01*
X413526Y-323610D02*
Y-316498D01*
X536448Y-625094D02*
X543560D01*
X540004Y-628650D02*
Y-621538D01*
X418592Y-598424D02*
X425704D01*
X422148Y-601980D02*
Y-594868D01*
X361188Y-561594D02*
X368300D01*
X364744Y-565150D02*
Y-558038D01*
X645160Y-710184D02*
X652272D01*
X648716Y-713740D02*
Y-706628D01*
X489458Y-487426D02*
X496570D01*
X493014Y-490982D02*
Y-483870D01*
X465582Y-349250D02*
X472694D01*
X469138Y-352806D02*
Y-345694D01*
X484886Y-748284D02*
X491998D01*
X488442Y-751840D02*
Y-744728D01*
X490220Y-633984D02*
X497332D01*
X493776Y-637540D02*
Y-630428D01*
X261494Y-323470D02*
X268606D01*
X265050Y-327026D02*
Y-319914D01*
X304292Y-304546D02*
X311404D01*
X307848Y-308102D02*
Y-300990D01*
X208026Y-378460D02*
X215138D01*
X211582Y-382016D02*
Y-374904D01*
X449326Y-753618D02*
X456438D01*
X452882Y-757174D02*
Y-750062D01*
X468376Y-773684D02*
X475488D01*
X471932Y-777240D02*
Y-770128D01*
X201676Y-144018D02*
X208788D01*
X205232Y-147574D02*
Y-140462D01*
X136754Y-763970D02*
X143866D01*
X140310Y-767526D02*
Y-760414D01*
X204906Y-763970D02*
X212018D01*
X208462Y-767526D02*
Y-760414D01*
X166754Y-773970D02*
X173866D01*
X170310Y-777526D02*
Y-770414D01*
X240954Y-634770D02*
X248066D01*
X244510Y-638326D02*
Y-631214D01*
X92554Y-634770D02*
X99666D01*
X96110Y-638326D02*
Y-631214D01*
X176530Y-106934D02*
X183642D01*
X180086Y-110490D02*
Y-103378D01*
X176530Y-441706D02*
X183642D01*
X180086Y-445262D02*
Y-438150D01*
X382270Y-179324D02*
X389382D01*
X385826Y-182880D02*
Y-175768D01*
X469138Y-735584D02*
X476250D01*
X472694Y-739140D02*
Y-732028D01*
X506000Y-511080D02*
X513112D01*
X509556Y-514636D02*
Y-507524D01*
X554482Y-353060D02*
X561594D01*
X558038Y-356616D02*
Y-349504D01*
X369062Y-223266D02*
X376174D01*
X372618Y-226822D02*
Y-219710D01*
X419100Y-157480D02*
X426212D01*
X422656Y-161036D02*
Y-153924D01*
M02*
