%FSLAX44Y44*%
%MOMM*%
G71*
G01*
G75*
G04 Layer_Physical_Order=3*
G04 Layer_Color=8388736*
%ADD10R,5.8166X8.0010*%
%ADD11R,0.8128X1.4224*%
%ADD12R,1.1176X1.0160*%
%ADD13R,1.0160X1.1176*%
%ADD14R,0.5080X1.2192*%
%ADD15R,1.2192X0.5080*%
%ADD16R,1.2700X1.4732*%
%ADD17R,2.5500X1.5500*%
%ADD18R,2.5500X0.9500*%
%ADD19R,2.5500X0.5500*%
%ADD20R,0.6096X0.9144*%
%ADD21R,1.6002X2.7178*%
%ADD22R,1.4732X1.2700*%
%ADD23O,2.0500X0.7000*%
%ADD24R,1.5500X2.5500*%
%ADD25R,0.9500X2.5500*%
%ADD26R,0.5500X2.5500*%
%ADD27R,2.7178X1.6002*%
%ADD28R,0.8128X0.3048*%
%ADD29R,0.3048X0.8128*%
%ADD30C,0.1524*%
%ADD31C,0.8000*%
%ADD32C,0.2540*%
%ADD33C,0.1540*%
%ADD34R,1.0080X1.0080*%
%ADD35C,1.5000*%
%ADD36C,1.5240*%
%ADD37C,0.5000*%
%ADD38C,6.3500*%
%ADD39P,1.3205X8X112.5*%
%ADD40R,1.2200X1.2200*%
%ADD41P,1.3205X8X22.5*%
%ADD42R,1.2200X1.2200*%
%ADD43C,1.2700*%
%ADD44C,1.0160*%
%ADD45C,1.9160*%
G04:AMPARAMS|DCode=46|XSize=2.424mm|YSize=2.424mm|CornerRadius=0mm|HoleSize=0mm|Usage=FLASHONLY|Rotation=0.000|XOffset=0mm|YOffset=0mm|HoleType=Round|Shape=Relief|Width=0.254mm|Gap=0.254mm|Entries=4|*
%AMTHD46*
7,0,0,2.4240,1.9160,0.2540,45*
%
%ADD46THD46*%
%ADD47C,1.7780*%
G04:AMPARAMS|DCode=48|XSize=2.286mm|YSize=2.286mm|CornerRadius=0mm|HoleSize=0mm|Usage=FLASHONLY|Rotation=0.000|XOffset=0mm|YOffset=0mm|HoleType=Round|Shape=Relief|Width=0.254mm|Gap=0.254mm|Entries=4|*
%AMTHD48*
7,0,0,2.2860,1.7780,0.2540,45*
%
%ADD48THD48*%
%ADD49C,1.5160*%
G04:AMPARAMS|DCode=50|XSize=4.699mm|YSize=4.699mm|CornerRadius=0mm|HoleSize=0mm|Usage=FLASHONLY|Rotation=0.000|XOffset=0mm|YOffset=0mm|HoleType=Round|Shape=Relief|Width=0.254mm|Gap=0.254mm|Entries=4|*
%AMTHD50*
7,0,0,4.6990,4.1910,0.2540,45*
%
%ADD50THD50*%
G04:AMPARAMS|DCode=51|XSize=4.724mm|YSize=4.724mm|CornerRadius=0mm|HoleSize=0mm|Usage=FLASHONLY|Rotation=0.000|XOffset=0mm|YOffset=0mm|HoleType=Round|Shape=Relief|Width=0.254mm|Gap=0.254mm|Entries=4|*
%AMTHD51*
7,0,0,4.7240,4.2160,0.2540,45*
%
%ADD51THD51*%
%ADD52C,1.8160*%
%ADD53C,1.7272*%
G04:AMPARAMS|DCode=54|XSize=2.2352mm|YSize=2.2352mm|CornerRadius=0mm|HoleSize=0mm|Usage=FLASHONLY|Rotation=0.000|XOffset=0mm|YOffset=0mm|HoleType=Round|Shape=Relief|Width=0.254mm|Gap=0.254mm|Entries=4|*
%AMTHD54*
7,0,0,2.2352,1.7272,0.2540,45*
%
%ADD54THD54*%
D44*
X767152Y38150D02*
X777151Y28149D01*
Y-424050D02*
Y28149D01*
X694152Y-424050D02*
X777151D01*
X691481Y-424351D02*
X694152Y-424050D01*
X688945Y-425239D02*
X691481Y-424351D01*
X686670Y-426669D02*
X688945Y-425239D01*
X684770Y-428569D02*
X686670Y-426669D01*
X683340Y-430844D02*
X684770Y-428569D01*
X682452Y-433380D02*
X683340Y-430844D01*
X682152Y-436050D02*
X682452Y-433380D01*
X682152Y-530650D02*
Y-436050D01*
Y-530650D02*
X682452Y-533321D01*
X683340Y-535857D01*
X684770Y-538132D01*
X686670Y-540032D01*
X688945Y-541462D01*
X691481Y-542350D01*
X694152Y-542650D01*
X777151D01*
Y-910751D02*
Y-542650D01*
X767152Y-920750D02*
X777151Y-910751D01*
X439352Y-920750D02*
X767152D01*
X439352D02*
Y-903550D01*
X439051Y-900880D02*
X439352Y-903550D01*
X438163Y-898344D02*
X439051Y-900880D01*
X436734Y-896068D02*
X438163Y-898344D01*
X434833Y-894168D02*
X436734Y-896068D01*
X432558Y-892739D02*
X434833Y-894168D01*
X430022Y-891851D02*
X432558Y-892739D01*
X427351Y-891550D02*
X430022Y-891851D01*
X248151Y-891550D02*
X427351D01*
X245481Y-891851D02*
X248151Y-891550D01*
X242945Y-892739D02*
X245481Y-891851D01*
X240670Y-894168D02*
X242945Y-892739D01*
X238770Y-896068D02*
X240670Y-894168D01*
X237340Y-898344D02*
X238770Y-896068D01*
X236452Y-900880D02*
X237340Y-898344D01*
X236152Y-903550D02*
X236452Y-900880D01*
X236152Y-920750D02*
Y-903550D01*
X-114549Y-920750D02*
X236152D01*
X-124549Y-910751D02*
X-114549Y-920750D01*
X-124549Y-910751D02*
Y-542650D01*
X-117348D01*
X-114678Y-542350D01*
X-112142Y-541462D01*
X-109867Y-540032D01*
X-107966Y-538132D01*
X-106537Y-535857D01*
X-105649Y-533321D01*
X-105349Y-530650D01*
Y-424050D01*
X-105649Y-421380D02*
X-105349Y-424050D01*
X-106537Y-418844D02*
X-105649Y-421380D01*
X-107966Y-416569D02*
X-106537Y-418844D01*
X-109867Y-414669D02*
X-107966Y-416569D01*
X-112142Y-413239D02*
X-109867Y-414669D01*
X-114678Y-412351D02*
X-112142Y-413239D01*
X-117348Y-412051D02*
X-114678Y-412351D01*
X-124549Y-412051D02*
X-117348D01*
X-124549D02*
Y28149D01*
X-114549Y38150D01*
X236152D01*
Y20949D02*
Y38150D01*
Y20949D02*
X236452Y18279D01*
X237340Y15743D01*
X238770Y13468D01*
X240670Y11568D01*
X242945Y10138D01*
X245481Y9251D01*
X248151Y8950D01*
X427351D01*
X430022Y9251D01*
X432558Y10138D01*
X434833Y11568D01*
X436734Y13468D01*
X438163Y15743D01*
X439051Y18279D01*
X439352Y20949D01*
Y38150D01*
X767152D01*
D45*
X650240Y-12700D02*
D03*
X624840D02*
D03*
X599440D02*
D03*
X574040D02*
D03*
X548640D02*
D03*
X523240D02*
D03*
X497840D02*
D03*
X472440D02*
D03*
X447040D02*
D03*
X421640D02*
D03*
X345440D02*
D03*
X320040D02*
D03*
X294640D02*
D03*
X269240D02*
D03*
X243840D02*
D03*
X218440D02*
D03*
X193040D02*
D03*
X167640D02*
D03*
X142240D02*
D03*
X116840D02*
D03*
X91440D02*
D03*
X66040D02*
D03*
X40640D02*
D03*
X650240Y-38100D02*
D03*
X624840D02*
D03*
X599440D02*
D03*
X574040D02*
D03*
X548640D02*
D03*
X523240D02*
D03*
X497840D02*
D03*
X472440D02*
D03*
X447040D02*
D03*
X421640D02*
D03*
X396240D02*
D03*
X370840D02*
D03*
X345440D02*
D03*
X320040D02*
D03*
X294640D02*
D03*
X269240D02*
D03*
X243840D02*
D03*
X218440D02*
D03*
X193040D02*
D03*
X167640D02*
D03*
X142240D02*
D03*
X116840D02*
D03*
X91440D02*
D03*
X66040D02*
D03*
X40640D02*
D03*
X15240D02*
D03*
Y-12700D02*
D03*
X649986Y-63754D02*
D03*
X624586D02*
D03*
X599186D02*
D03*
X573786D02*
D03*
X548386D02*
D03*
X522986D02*
D03*
X497586D02*
D03*
X472186D02*
D03*
X446786D02*
D03*
X421386D02*
D03*
X395986D02*
D03*
X370586D02*
D03*
X345186D02*
D03*
X319786D02*
D03*
X294386D02*
D03*
X268986D02*
D03*
X243586D02*
D03*
X218186D02*
D03*
X192786D02*
D03*
X167386D02*
D03*
X141986D02*
D03*
X116586D02*
D03*
X91186D02*
D03*
X65786D02*
D03*
X40386D02*
D03*
X649986Y-89154D02*
D03*
X624586D02*
D03*
X599186D02*
D03*
X573786D02*
D03*
X548386D02*
D03*
X522986D02*
D03*
X497586D02*
D03*
X472186D02*
D03*
X446786D02*
D03*
X421386D02*
D03*
X395986D02*
D03*
X370586D02*
D03*
X345186D02*
D03*
X319786D02*
D03*
X294386D02*
D03*
X268986D02*
D03*
X243586D02*
D03*
X218186D02*
D03*
X192786D02*
D03*
X167386D02*
D03*
X141986D02*
D03*
X116586D02*
D03*
X91186D02*
D03*
X65786D02*
D03*
X40386D02*
D03*
X14986D02*
D03*
D46*
X396240Y-12700D02*
D03*
X370840D02*
D03*
X14986Y-63754D02*
D03*
D47*
X151638Y-135636D02*
D03*
X170310Y-688970D02*
D03*
X-38698Y-355750D02*
D03*
X87802Y-352250D02*
D03*
X21302Y-295750D02*
D03*
X46302Y-210750D02*
D03*
X-3698Y-220750D02*
D03*
X14168Y-711252D02*
D03*
X-55832Y-796252D02*
D03*
X-35832Y-631252D02*
D03*
X44168D02*
D03*
D48*
X170310Y-658970D02*
D03*
X19402Y-329250D02*
D03*
X21302Y-215750D02*
D03*
X14028Y-756392D02*
D03*
X14168Y-621252D02*
D03*
D49*
X15151Y-38050D02*
D03*
Y-88850D02*
D03*
D50*
X700952Y-12650D02*
D03*
D51*
X-73748Y-869950D02*
D03*
X726351D02*
D03*
X-35649Y-12650D02*
D03*
D52*
X176310Y-835970D02*
D03*
X156310D02*
D03*
X14168Y-556252D02*
D03*
Y-536252D02*
D03*
X18302Y-184750D02*
D03*
Y-164750D02*
D03*
D53*
X88268Y-795352D02*
D03*
X712216Y-249682D02*
D03*
X683568Y-174044D02*
D03*
X581406Y-214630D02*
D03*
X309626Y-271644D02*
D03*
X306324Y-150994D02*
D03*
X563656Y-453390D02*
D03*
X413526Y-320054D02*
D03*
X364744Y-561594D02*
D03*
X648716Y-710184D02*
D03*
X493014Y-487426D02*
D03*
X469138Y-349250D02*
D03*
X488442Y-748284D02*
D03*
X493776Y-633984D02*
D03*
X265050Y-323470D02*
D03*
X452882Y-753618D02*
D03*
X205232Y-144018D02*
D03*
X140310Y-763970D02*
D03*
X208462D02*
D03*
X244510Y-634770D02*
D03*
X96110D02*
D03*
X180086Y-106934D02*
D03*
Y-441706D02*
D03*
X385826Y-179324D02*
D03*
X472694Y-735584D02*
D03*
X509556Y-511080D02*
D03*
X558038Y-353060D02*
D03*
X372618Y-223266D02*
D03*
X422656Y-157480D02*
D03*
D54*
X591058Y-154432D02*
D03*
X728980Y-293878D02*
D03*
X479298Y-313944D02*
D03*
X527812Y-164084D02*
D03*
X287528Y-238252D02*
D03*
X683260Y-768350D02*
D03*
X433324Y-700024D02*
D03*
X540004Y-625094D02*
D03*
X422148Y-598424D02*
D03*
X307848Y-304546D02*
D03*
X211582Y-378460D02*
D03*
X471932Y-773684D02*
D03*
X170310Y-773970D02*
D03*
M02*
