M48
;Layer_Color=9474304
;FILE_FORMAT=4:4
METRIC,LZ
;TYPE=PLATED
T1F00S00C0.5000
T2F00S00C0.7112
T3F00S00C0.7620
T4F00S00C0.8000
T5F00S00C0.9000
T6F00S00C3.1750
T7F00S00C3.2000
%
T01
X00015151Y-0008885
Y-0003805
T02
X00088268Y-00795352
X00471932Y-00773684
X00472694Y-00735584
X00488442Y-00748284
X00452882Y-00753618
X00433324Y-00700024
X00422148Y-00598424
X00493776Y-00633984
X00540004Y-00625094
X00509556Y-0051108
X00493014Y-00487426
X00563656Y-0045339
X00648716Y-00710184
X0068326Y-0076835
X00208462Y-0076397
X0017031Y-0077397
X0014031Y-0076397
X0009611Y-0063477
X0024451
X00364744Y-00561594
X00180086Y-00441706
X00211582Y-0037846
X0026505Y-0032347
X00307848Y-00304546
X00309626Y-00271644
X00287528Y-00238252
X00372618Y-00223266
X00385826Y-00179324
X00306324Y-00150994
X00205232Y-00144018
X00180086Y-00106934
X00422656Y-0015748
X00527812Y-00164084
X00591058Y-00154432
X00581406Y-0021463
X00683568Y-00174044
X00712216Y-00249682
X0072898Y-00293878
X00558038Y-0035306
X00469138Y-0034925
X00479298Y-00313944
X00413526Y-00320054
T03
X-00055832Y-00796252
X00014028Y-00756392
X00014168Y-00711252
Y-00621252
X00044168Y-00631252
X0017031Y-0065897
Y-0068897
X-00035832Y-00631252
X-00038698Y-0035575
X-00003698Y-0022075
X00021302Y-0021575
X00046302Y-0021075
X00021302Y-0029575
X00019402Y-0032925
X00087802Y-0035225
X00151638Y-00135636
T04
X0015631Y-0083597
X0017631
X00014168Y-00556252
Y-00536252
X00018302Y-0018475
Y-0016475
T05
X00014986Y-00089154
X00040386
Y-00063754
X00065786
X00091186
X00116586
X00141986
X00167386
X00192786
X00218186
X00243586
X00268986
X00294386
X00319786
X00345186
X00370586
X00395986
Y-00089154
X00370586
X00345186
X00319786
X00294386
X00268986
X00243586
X00218186
X00192786
X00167386
X00141986
X00116586
X00091186
X00065786
X0006604Y-000381
Y-000127
X0009144
X0011684
X0014224
X0016764
X0019304
X0021844
X0024384
X0026924
X0029464
X0032004
X0034544
X0037084
X0039624
Y-000381
X0037084
X0034544
X0032004
X0029464
X0026924
X0024384
X0021844
X0019304
X0016764
X0014224
X0011684
X0009144
X0004064
Y-000127
X0001524
Y-000381
X00014986Y-00063754
X00421386
X00446786
X00472186
X00497586
X00522986
X00548386
X00573786
X00599186
X00624586
X00649986
Y-00089154
X00624586
X00599186
X00573786
X00548386
X00522986
X00497586
X00472186
X00446786
X00421386
X0042164Y-000381
Y-000127
X0044704
X0047244
X0049784
X0052324
X0054864
X0057404
X0059944
X0062484
X0065024
Y-000381
X0062484
X0059944
X0057404
X0054864
X0052324
X0049784
X0047244
X0044704
T06
X00700952Y-0001265
T07
X-00073748Y-0086995
X00726351
X-00035649Y-0001265
M30
