%FSLAX44Y44*%
%MOMM*%
G71*
G01*
G75*
G04 Layer_Physical_Order=4*
G04 Layer_Color=32768*
%ADD10R,1.2192X0.8128*%
%ADD11R,0.6500X0.2500*%
%ADD12R,0.1900X0.7500*%
%ADD13R,1.6500X4.4000*%
%ADD14R,0.8128X1.2192*%
%ADD15R,0.3048X0.8128*%
%ADD16R,0.8128X0.3048*%
%ADD17R,0.6500X0.8500*%
%ADD18R,0.9500X0.6500*%
%ADD19R,2.0066X0.8128*%
%ADD20R,0.3556X1.4224*%
%ADD21R,1.2192X2.0066*%
%ADD22R,2.0066X1.2192*%
%ADD23R,1.0160X1.1176*%
%ADD24O,1.0000X0.2500*%
%ADD25O,0.2500X1.0000*%
%ADD26R,2.4500X2.4500*%
%ADD27R,0.8000X0.9000*%
%ADD28R,2.1000X0.7000*%
%ADD29R,0.7112X0.9144*%
%ADD30R,0.8890X0.3048*%
%ADD31R,0.2000X0.9100*%
%ADD32R,0.4500X0.5000*%
%ADD33R,0.8300X0.6300*%
%ADD34R,1.1176X1.0160*%
%ADD35O,1.6500X0.3000*%
%ADD36R,1.3000X1.9000*%
%ADD37R,0.9144X0.7112*%
%ADD38O,2.1000X0.3000*%
%ADD39O,0.3000X2.1000*%
%ADD40R,1.4224X0.3556*%
%ADD41R,0.8500X0.6500*%
%ADD42R,0.6500X0.9500*%
%ADD43R,0.8128X2.0066*%
%ADD44C,0.5080*%
%ADD45C,0.2540*%
%ADD46C,0.0000*%
%ADD47R,1.9500X2.0000*%
%ADD48R,0.6500X0.8500*%
%ADD49R,2.0000X1.9500*%
%ADD50R,1.2700X1.2700*%
%ADD51C,1.2700*%
%ADD52C,1.0160*%
%ADD53R,2.7178X2.7178*%
%ADD54R,1.0668X1.0670*%
%ADD55C,1.0670*%
%ADD56R,1.0670X1.0670*%
%ADD57R,2.7178X2.7178*%
%ADD58C,4.2000*%
%ADD59C,0.5000*%
%ADD60C,1.1540*%
%ADD61R,1.0670X1.0670*%
%ADD62C,1.5240*%
%ADD63C,0.9652*%
%ADD64C,0.4540*%
%ADD65C,1.0160*%
%ADD66C,2.0320*%
%ADD67C,1.7780*%
%ADD68C,1.8290*%
%ADD69C,5.2160*%
%ADD70C,1.5160*%
%ADD71C,1.9160*%
G04:AMPARAMS|DCode=72|XSize=2.424mm|YSize=2.424mm|CornerRadius=0mm|HoleSize=0mm|Usage=FLASHONLY|Rotation=0.000|XOffset=0mm|YOffset=0mm|HoleType=Round|Shape=Relief|Width=0.254mm|Gap=0.254mm|Entries=4|*
%AMTHD72*
7,0,0,2.4240,1.9160,0.2540,45*
%
%ADD72THD72*%
G04:AMPARAMS|DCode=73|XSize=2.286mm|YSize=2.286mm|CornerRadius=0mm|HoleSize=0mm|Usage=FLASHONLY|Rotation=0.000|XOffset=0mm|YOffset=0mm|HoleType=Round|Shape=Relief|Width=0.254mm|Gap=0.254mm|Entries=4|*
%AMTHD73*
7,0,0,2.2860,1.7780,0.2540,45*
%
%ADD73THD73*%
%ADD74C,2.6160*%
%ADD75C,1.7272*%
%ADD76C,1.2160*%
G04:AMPARAMS|DCode=77|XSize=2.2352mm|YSize=2.2352mm|CornerRadius=0mm|HoleSize=0mm|Usage=FLASHONLY|Rotation=0.000|XOffset=0mm|YOffset=0mm|HoleType=Round|Shape=Relief|Width=0.254mm|Gap=0.254mm|Entries=4|*
%AMTHD77*
7,0,0,2.2352,1.7272,0.2540,45*
%
%ADD77THD77*%
D62*
X1179830Y458470D02*
D03*
X829310Y397510D02*
D03*
X1320800Y697230D02*
D03*
X711200Y453390D02*
D03*
X1008380Y383540D02*
D03*
D65*
X521810Y1231290D02*
X511810Y1221290D01*
Y769090D02*
Y1221290D01*
X594810Y769090D02*
X511810D01*
X597480Y768789D02*
X594810Y769090D01*
X600017Y767902D02*
X597480Y768789D01*
X602292Y766472D02*
X600017Y767902D01*
X604192Y764572D02*
X602292Y766472D01*
X605621Y762297D02*
X604192Y764572D01*
X606509Y759760D02*
X605621Y762297D01*
X606810Y757090D02*
X606509Y759760D01*
X606810Y662490D02*
Y757090D01*
Y662490D02*
X606509Y659820D01*
X605621Y657283D01*
X604192Y655008D01*
X602292Y653108D01*
X600017Y651678D01*
X597480Y650791D01*
X594810Y650490D01*
X511810D01*
Y282390D02*
Y650490D01*
X521810Y272390D02*
X511810Y282390D01*
X849610Y272390D02*
X521810D01*
X849610D02*
Y289590D01*
X849911Y292260D02*
X849610Y289590D01*
X850798Y294797D02*
X849911Y292260D01*
X852228Y297072D02*
X850798Y294797D01*
X854128Y298972D02*
X852228Y297072D01*
X856403Y300402D02*
X854128Y298972D01*
X858940Y301289D02*
X856403Y300402D01*
X861610Y301590D02*
X858940Y301289D01*
X1040810Y301590D02*
X861610D01*
X1043480Y301289D02*
X1040810Y301590D01*
X1046016Y300402D02*
X1043480Y301289D01*
X1048292Y298972D02*
X1046016Y300402D01*
X1050192Y297072D02*
X1048292Y298972D01*
X1051622Y294797D02*
X1050192Y297072D01*
X1052509Y292260D02*
X1051622Y294797D01*
X1052810Y289590D02*
X1052509Y292260D01*
X1052810Y272390D02*
Y289590D01*
X1403510Y272390D02*
X1052810D01*
X1413510Y282390D02*
X1403510Y272390D01*
X1413510Y282390D02*
Y650490D01*
X1406310D01*
X1403640Y650791D01*
X1401103Y651678D01*
X1398828Y653108D01*
X1396928Y655008D01*
X1395498Y657283D01*
X1394611Y659820D01*
X1394310Y662490D01*
Y769090D01*
X1394611Y771760D02*
X1394310Y769090D01*
X1395498Y774296D02*
X1394611Y771760D01*
X1396928Y776572D02*
X1395498Y774296D01*
X1398828Y778472D02*
X1396928Y776572D01*
X1401103Y779902D02*
X1398828Y778472D01*
X1403640Y780789D02*
X1401103Y779902D01*
X1406310Y781090D02*
X1403640Y780789D01*
X1413510Y781090D02*
X1406310D01*
X1413510D02*
Y1221290D01*
X1403510Y1231290D01*
X1052810D01*
Y1214090D02*
Y1231290D01*
Y1214090D02*
X1052509Y1211420D01*
X1051622Y1208883D01*
X1050192Y1206608D01*
X1048292Y1204708D01*
X1046016Y1203278D01*
X1043480Y1202391D01*
X1040810Y1202090D01*
X861610D01*
X858940Y1202391D01*
X856403Y1203278D01*
X854128Y1204708D01*
X852228Y1206608D01*
X850798Y1208883D01*
X849911Y1211420D01*
X849610Y1214090D01*
Y1231290D01*
X521810D01*
D66*
X1358900Y1113790D02*
D03*
Y1088390D02*
D03*
X1333500Y1113790D02*
D03*
Y1088390D02*
D03*
D67*
X910590Y1014730D02*
D03*
X820420Y447040D02*
D03*
X748030Y520700D02*
D03*
X1330960Y646430D02*
D03*
X1228090Y596900D02*
D03*
X1088390Y1024890D02*
D03*
X1234440Y647700D02*
D03*
X969010Y720090D02*
D03*
X1139190Y963930D02*
D03*
X1043940Y646430D02*
D03*
X1250950Y847090D02*
D03*
X848360Y693420D02*
D03*
X1078110Y857370D02*
D03*
X1225550Y930910D02*
D03*
X1089660Y669290D02*
D03*
X1014730Y820420D02*
D03*
X889000Y825500D02*
D03*
X1229360Y797560D02*
D03*
X1104900Y529590D02*
D03*
X687070Y496570D02*
D03*
X753110Y562610D02*
D03*
D68*
X1115060Y382270D02*
D03*
X1135060D02*
D03*
X1155060D02*
D03*
X1175060D02*
D03*
X1195060D02*
D03*
X1135060Y362270D02*
D03*
X1155060D02*
D03*
X1175060D02*
D03*
X1195060D02*
D03*
X1115060D02*
D03*
X645160Y382270D02*
D03*
X665160D02*
D03*
X685160D02*
D03*
X705160D02*
D03*
X725160D02*
D03*
X665160Y362270D02*
D03*
X685160D02*
D03*
X705160D02*
D03*
X725160D02*
D03*
X645160D02*
D03*
X624840Y589280D02*
D03*
Y569280D02*
D03*
Y549280D02*
D03*
Y529280D02*
D03*
Y509280D02*
D03*
X604840Y569280D02*
D03*
Y549280D02*
D03*
Y529280D02*
D03*
Y509280D02*
D03*
Y589280D02*
D03*
X1299210Y419100D02*
D03*
Y439100D02*
D03*
Y459100D02*
D03*
Y479100D02*
D03*
Y499100D02*
D03*
X1319210Y439100D02*
D03*
Y459100D02*
D03*
Y479100D02*
D03*
Y499100D02*
D03*
Y419100D02*
D03*
X1300480Y838200D02*
D03*
Y858200D02*
D03*
Y878200D02*
D03*
Y898200D02*
D03*
Y918200D02*
D03*
X1320480Y858200D02*
D03*
Y878200D02*
D03*
Y898200D02*
D03*
Y918200D02*
D03*
Y838200D02*
D03*
X624840Y905510D02*
D03*
Y885510D02*
D03*
Y865510D02*
D03*
Y845510D02*
D03*
Y825510D02*
D03*
X604840Y885510D02*
D03*
Y865510D02*
D03*
Y845510D02*
D03*
Y825510D02*
D03*
Y905510D02*
D03*
D69*
X1324610Y1180490D02*
D03*
X562610Y323190D02*
D03*
X1362710D02*
D03*
X588010Y1180490D02*
D03*
D70*
X1273810Y1104290D02*
D03*
Y1155090D02*
D03*
D71*
Y1180490D02*
D03*
Y1155090D02*
D03*
X1248410D02*
D03*
X1223010D02*
D03*
X1197610D02*
D03*
X1172210D02*
D03*
X1146810D02*
D03*
X1121410D02*
D03*
X1096010D02*
D03*
X1070610D02*
D03*
X1045210D02*
D03*
X1019810D02*
D03*
X994410D02*
D03*
X969010D02*
D03*
X943610D02*
D03*
X918210D02*
D03*
X892810D02*
D03*
X867410D02*
D03*
X842010D02*
D03*
X816610D02*
D03*
X791210D02*
D03*
X765810D02*
D03*
X740410D02*
D03*
X715010D02*
D03*
X689610D02*
D03*
X664210D02*
D03*
X638810D02*
D03*
X1248410Y1180490D02*
D03*
X1223010D02*
D03*
X1197610D02*
D03*
X1172210D02*
D03*
X1146810D02*
D03*
X1121410D02*
D03*
X1096010D02*
D03*
X1070610D02*
D03*
X1045210D02*
D03*
X1019810D02*
D03*
X994410D02*
D03*
X969010D02*
D03*
X943610D02*
D03*
X918210D02*
D03*
X892810D02*
D03*
X867410D02*
D03*
X842010D02*
D03*
X816610D02*
D03*
X791210D02*
D03*
X765810D02*
D03*
X740410D02*
D03*
X715010D02*
D03*
X689610D02*
D03*
X664210D02*
D03*
X638810D02*
D03*
X1273810Y1129690D02*
D03*
Y1104290D02*
D03*
X1248410D02*
D03*
X1223010D02*
D03*
X1197610D02*
D03*
X1172210D02*
D03*
X1146810D02*
D03*
X1121410D02*
D03*
X1096010D02*
D03*
X1070610D02*
D03*
X1045210D02*
D03*
X1019810D02*
D03*
X994410D02*
D03*
X969010D02*
D03*
X943610D02*
D03*
X918210D02*
D03*
X892810D02*
D03*
X867410D02*
D03*
X842010D02*
D03*
X816610D02*
D03*
X791210D02*
D03*
X765810D02*
D03*
X740410D02*
D03*
X715010D02*
D03*
X689610D02*
D03*
X664210D02*
D03*
X638810D02*
D03*
X1248410Y1129690D02*
D03*
X1223010D02*
D03*
X1197610D02*
D03*
X1172210D02*
D03*
X1146810D02*
D03*
X1121410D02*
D03*
X1096010D02*
D03*
X1070610D02*
D03*
X1045210D02*
D03*
X1019810D02*
D03*
X994410D02*
D03*
X969010D02*
D03*
X943610D02*
D03*
X918210D02*
D03*
X892810D02*
D03*
X867410D02*
D03*
X842010D02*
D03*
X816610D02*
D03*
X791210D02*
D03*
X765810D02*
D03*
X740410D02*
D03*
X715010D02*
D03*
D72*
X689610D02*
D03*
X664210D02*
D03*
X638810D02*
D03*
D73*
X1155700Y892810D02*
D03*
X925830Y706120D02*
D03*
X887730Y858520D02*
D03*
X1037710Y842010D02*
D03*
D74*
X797610Y978660D02*
D03*
Y1060960D02*
D03*
D75*
X1140420Y627690D02*
D03*
X1134110Y890270D02*
D03*
X1164590Y948690D02*
D03*
X1115060Y608330D02*
D03*
X633730Y467360D02*
D03*
X939800Y411480D02*
D03*
X741680Y433070D02*
D03*
X1283490Y811530D02*
D03*
X623570Y1045210D02*
D03*
X665480Y422910D02*
D03*
X660400Y444500D02*
D03*
X704850Y1080770D02*
D03*
X1252220Y662940D02*
D03*
X1137680Y741790D02*
D03*
X1141690Y724210D02*
D03*
X1132800Y759770D02*
D03*
X734060Y680720D02*
D03*
Y774700D02*
D03*
X768350Y591820D02*
D03*
X749300Y542290D02*
D03*
X765810Y775970D02*
D03*
X784860Y786130D02*
D03*
X735330Y577850D02*
D03*
X650240Y497840D02*
D03*
Y514350D02*
D03*
X1121410Y998220D02*
D03*
X984885Y751205D02*
D03*
X989330Y731520D02*
D03*
X1010920D02*
D03*
X843280Y886460D02*
D03*
X703580Y575310D02*
D03*
X694690Y787400D02*
D03*
X1254760Y969210D02*
D03*
X1186180Y853440D02*
D03*
X1187450Y868680D02*
D03*
X850900Y666750D02*
D03*
X866140Y654050D02*
D03*
X1229360Y817880D02*
D03*
X1217930Y674370D02*
D03*
X763270Y670560D02*
D03*
X782320Y664210D02*
D03*
X803910D02*
D03*
X927735Y615315D02*
D03*
X976630Y857250D02*
D03*
Y839470D02*
D03*
X1074420Y530860D02*
D03*
X890270Y901700D02*
D03*
X866140Y891540D02*
D03*
X670560Y659130D02*
D03*
X661670Y637540D02*
D03*
X941070Y447040D02*
D03*
X828040Y741680D02*
D03*
X889000Y509270D02*
D03*
X891540Y546100D02*
D03*
X789940Y622300D02*
D03*
X1276350Y782320D02*
D03*
X1216660Y440690D02*
D03*
X1234440Y464820D02*
D03*
X796290Y1012190D02*
D03*
X773430Y1003300D02*
D03*
X814070Y728980D02*
D03*
X791210Y1031240D02*
D03*
X1325880Y740410D02*
D03*
X764540Y1042670D02*
D03*
X1342390Y728980D02*
D03*
X1062990Y623570D02*
D03*
X1098550Y1057750D02*
D03*
X1172210Y909320D02*
D03*
X1348740Y576580D02*
D03*
X1275080Y506730D02*
D03*
X1281430Y535940D02*
D03*
X1291590Y566420D02*
D03*
X1366520Y589280D02*
D03*
X1214120Y496570D02*
D03*
X1211580Y608330D02*
D03*
X1173440Y648010D02*
D03*
X806450Y551180D02*
D03*
X838200Y535940D02*
D03*
X825500Y598170D02*
D03*
X824230Y490220D02*
D03*
X792480Y528320D02*
D03*
X746760Y455930D02*
D03*
X900430Y840740D02*
D03*
X915670Y908050D02*
D03*
X908050Y958850D02*
D03*
X918210Y1036320D02*
D03*
X962660D02*
D03*
X966470Y361950D02*
D03*
X985520Y360680D02*
D03*
X1002030Y419100D02*
D03*
X1037590Y436880D02*
D03*
X967740Y485140D02*
D03*
Y519430D02*
D03*
X1038860Y557530D02*
D03*
X1028700Y523240D02*
D03*
X1011936Y557530D02*
D03*
X1000760Y502920D02*
D03*
X1014920Y459740D02*
D03*
X1325880Y604520D02*
D03*
X1348740Y655320D02*
D03*
X798830Y438150D02*
D03*
X1087120Y452247D02*
D03*
X1137920Y427990D02*
D03*
X1218040Y471170D02*
D03*
X1146810Y461010D02*
D03*
X1317498Y663702D02*
D03*
X1230630Y546100D02*
D03*
X1277620Y726440D02*
D03*
X1177290Y585470D02*
D03*
Y560070D02*
D03*
X1309370Y734060D02*
D03*
X852170Y363220D02*
D03*
X868680Y364490D02*
D03*
X832612Y431292D02*
D03*
X676910Y463550D02*
D03*
X1040130Y781050D02*
D03*
X1062990Y1028700D02*
D03*
X1146770Y648010D02*
D03*
X1206330Y691190D02*
D03*
X1106130Y692460D02*
D03*
X1244560Y750880D02*
D03*
X1188680Y714050D02*
D03*
X1198840Y775010D02*
D03*
X1170900Y749610D02*
D03*
X1084540Y810570D02*
D03*
X830540Y714050D02*
D03*
X938410Y839350D02*
D03*
X942340Y721360D02*
D03*
X1017390Y905630D02*
D03*
X923410Y986910D02*
D03*
X981830Y936110D02*
D03*
X933570Y925950D02*
D03*
X984370Y953890D02*
D03*
X986910Y974210D02*
D03*
X1040250Y1017390D02*
D03*
X951350Y958970D02*
D03*
X994530Y1002150D02*
D03*
X1103750Y956430D02*
D03*
X1124070Y948810D02*
D03*
X1103630Y918210D02*
D03*
X1019570Y703970D02*
D03*
X915670Y721360D02*
D03*
X1126450Y791520D02*
D03*
X1008380Y783590D02*
D03*
X988060Y707390D02*
D03*
X1018500Y744530D02*
D03*
X1228090Y1013460D02*
D03*
X1196340Y1008380D02*
D03*
X1202380Y823270D02*
D03*
X1083310Y830580D02*
D03*
X1164590Y808030D02*
D03*
X1016000Y1047750D02*
D03*
X1151890Y585470D02*
D03*
X941070Y1022350D02*
D03*
X701040Y547370D02*
D03*
X681990Y478790D02*
D03*
X595630Y1079350D02*
D03*
X745490Y882650D02*
D03*
X723900Y894080D02*
D03*
X705104Y913130D02*
D03*
X726440Y919480D02*
D03*
X619760Y980440D02*
D03*
X802640Y905510D02*
D03*
X656790Y616150D02*
D03*
X745490Y866140D02*
D03*
X755650Y840740D02*
D03*
X740410Y811530D02*
D03*
X742950Y830580D02*
D03*
X729216Y801171D02*
D03*
X713740Y774700D02*
D03*
X586740Y974090D02*
D03*
X755650Y906780D02*
D03*
X855980Y970280D02*
D03*
X693420Y739140D02*
D03*
X771990Y634830D02*
D03*
X791210Y594360D02*
D03*
X779780Y953770D02*
D03*
X673100Y1017270D02*
D03*
X687070Y1032510D02*
D03*
X678180Y1080770D02*
D03*
X814070Y751840D02*
D03*
D76*
X1077340Y734790D02*
D03*
X1066340D02*
D03*
Y723790D02*
D03*
X1077340D02*
D03*
X1044910Y946690D02*
D03*
Y935690D02*
D03*
X1055910D02*
D03*
Y946690D02*
D03*
D77*
X1256150Y931030D02*
D03*
X773450Y894060D02*
D03*
X758190Y1079500D02*
D03*
M02*
