%FSLAX44Y44*%
%MOMM*%
G71*
G01*
G75*
G04 Layer_Color=32768*
%ADD10R,1.2192X0.8128*%
%ADD11R,0.6500X0.2500*%
%ADD12R,0.1900X0.7500*%
%ADD13R,1.6500X4.4000*%
%ADD14R,0.8128X1.2192*%
%ADD15R,0.3048X0.8128*%
%ADD16R,0.8128X0.3048*%
%ADD17R,0.6500X0.8500*%
%ADD18R,0.9500X0.6500*%
%ADD19R,2.0066X0.8128*%
%ADD20R,0.3556X1.4224*%
%ADD21R,1.2192X2.0066*%
%ADD22R,2.0066X1.2192*%
%ADD23R,1.0160X1.1176*%
%ADD24O,1.0000X0.2500*%
%ADD25O,0.2500X1.0000*%
%ADD26R,2.4500X2.4500*%
%ADD27R,0.8000X0.9000*%
%ADD28R,2.1000X0.7000*%
%ADD29R,0.7112X0.9144*%
%ADD30R,0.8890X0.3048*%
%ADD31R,0.2000X0.9100*%
%ADD32R,0.4500X0.5000*%
%ADD33R,0.8300X0.6300*%
%ADD34R,1.1176X1.0160*%
%ADD35O,1.6500X0.3000*%
%ADD36R,1.3000X1.9000*%
%ADD37R,0.9144X0.7112*%
%ADD38O,2.1000X0.3000*%
%ADD39O,0.3000X2.1000*%
%ADD40R,1.4224X0.3556*%
%ADD41R,0.8500X0.6500*%
%ADD42R,0.6500X0.9500*%
%ADD43R,0.8128X2.0066*%
%ADD44C,0.5080*%
%ADD45C,0.2540*%
%ADD46C,0.0000*%
%ADD47R,1.9500X2.0000*%
%ADD48R,0.6500X0.8500*%
%ADD49R,2.0000X1.9500*%
%ADD50R,1.2700X1.2700*%
%ADD51C,1.2700*%
%ADD52C,1.0160*%
%ADD53R,2.7178X2.7178*%
%ADD54R,1.0668X1.0670*%
%ADD55C,1.0670*%
%ADD56R,1.0670X1.0670*%
%ADD57R,2.7178X2.7178*%
%ADD58C,4.2000*%
%ADD59C,0.5000*%
%ADD60C,1.1540*%
%ADD61R,1.0670X1.0670*%
%ADD62C,1.5240*%
%ADD63C,0.9652*%
%ADD64C,0.4540*%
%ADD65C,1.0160*%
%ADD66C,2.0320*%
%ADD67C,1.7780*%
%ADD68C,1.8290*%
%ADD69C,5.2160*%
%ADD70C,1.5160*%
%ADD71C,1.9160*%
G04:AMPARAMS|DCode=72|XSize=2.424mm|YSize=2.424mm|CornerRadius=0mm|HoleSize=0mm|Usage=FLASHONLY|Rotation=0.000|XOffset=0mm|YOffset=0mm|HoleType=Round|Shape=Relief|Width=0.254mm|Gap=0.254mm|Entries=4|*
%AMTHD72*
7,0,0,2.4240,1.9160,0.2540,45*
%
%ADD72THD72*%
G04:AMPARAMS|DCode=73|XSize=2.286mm|YSize=2.286mm|CornerRadius=0mm|HoleSize=0mm|Usage=FLASHONLY|Rotation=0.000|XOffset=0mm|YOffset=0mm|HoleType=Round|Shape=Relief|Width=0.254mm|Gap=0.254mm|Entries=4|*
%AMTHD73*
7,0,0,2.2860,1.7780,0.2540,45*
%
%ADD73THD73*%
%ADD74C,2.6160*%
%ADD75C,1.7272*%
%ADD76C,1.2160*%
G04:AMPARAMS|DCode=77|XSize=2.2352mm|YSize=2.2352mm|CornerRadius=0mm|HoleSize=0mm|Usage=FLASHONLY|Rotation=0.000|XOffset=0mm|YOffset=0mm|HoleType=Round|Shape=Relief|Width=0.254mm|Gap=0.254mm|Entries=4|*
%AMTHD77*
7,0,0,2.2352,1.7272,0.2540,45*
%
%ADD77THD77*%
G04:AMPARAMS|DCode=78|XSize=2.337mm|YSize=2.337mm|CornerRadius=0mm|HoleSize=0mm|Usage=FLASHONLY|Rotation=0.000|XOffset=0mm|YOffset=0mm|HoleType=Round|Shape=Relief|Width=0.254mm|Gap=0.254mm|Entries=4|*
%AMTHD78*
7,0,0,2.3370,1.8290,0.2540,45*
%
%ADD78THD78*%
%ADD79O,1.1000X0.8000*%
%ADD80R,1.1000X0.8000*%
%ADD81R,2.4000X1.2000*%
%ADD82R,1.7000X0.3500*%
%ADD83R,1.1176X1.1000*%
%ADD84R,1.1000X1.1000*%
%ADD85R,1.1176X1.1176*%
%ADD86R,1.1000X1.1176*%
%ADD87R,1.1000X1.1176*%
%ADD88R,1.1000X1.1000*%
%ADD89R,1.1176X1.1000*%
%ADD90R,1.1176X1.1000*%
%ADD91C,0.2500*%
%ADD92C,0.1270*%
%ADD93C,0.1000*%
%ADD94C,0.6000*%
%ADD95C,0.1524*%
%ADD96C,0.2000*%
%ADD97C,0.2032*%
%ADD98C,0.4064*%
%ADD99R,0.7620X0.4572*%
%ADD100R,0.4572X0.7620*%
%ADD101R,1.2192X1.2000*%
%ADD102R,1.2000X1.2000*%
%ADD103R,1.2192X1.2192*%
%ADD104R,1.2000X1.2192*%
%ADD105R,1.2000X1.2192*%
%ADD106R,1.2000X1.2000*%
%ADD107R,1.2192X1.2000*%
%ADD108R,1.2000X1.2000*%
%ADD109R,1.4224X1.0160*%
%ADD110R,0.8532X0.4532*%
%ADD111R,0.3932X0.9532*%
%ADD112R,1.8532X4.6032*%
%ADD113R,1.0160X1.4224*%
%ADD114R,0.5080X1.0160*%
%ADD115R,1.0160X0.5080*%
%ADD116R,0.8532X1.0532*%
%ADD117R,1.1532X0.8532*%
%ADD118R,2.2098X1.0160*%
%ADD119R,0.5588X1.6256*%
%ADD120R,1.4224X2.2098*%
%ADD121R,2.2098X1.4224*%
%ADD122R,1.2192X1.3208*%
%ADD123O,1.2032X0.4532*%
%ADD124O,0.4532X1.2032*%
%ADD125R,2.6532X2.6532*%
%ADD126R,1.0032X1.1032*%
%ADD127R,2.3032X0.9032*%
%ADD128R,0.9144X1.1176*%
%ADD129R,1.0922X0.5080*%
%ADD130R,0.4032X1.1132*%
%ADD131R,0.6532X0.7032*%
%ADD132R,1.0332X0.8332*%
%ADD133R,1.3208X1.2192*%
%ADD134O,1.8532X0.5032*%
%ADD135R,1.5032X2.1032*%
%ADD136R,1.1176X0.9144*%
%ADD137O,2.3032X0.5032*%
%ADD138O,0.5032X2.3032*%
%ADD139R,1.6256X0.5588*%
%ADD140R,1.0532X0.8532*%
%ADD141R,0.8532X1.1532*%
%ADD142R,1.0160X2.2098*%
%ADD143R,2.1532X2.2032*%
%ADD144R,2.2032X2.1532*%
%ADD145R,1.4732X1.4732*%
%ADD146C,1.4732*%
%ADD147C,1.2192*%
%ADD148R,2.9210X2.9210*%
%ADD149R,1.2700X1.2702*%
%ADD150C,1.2702*%
%ADD151R,1.2702X1.2702*%
%ADD152R,2.9210X2.9210*%
%ADD153C,4.4032*%
%ADD154C,0.7032*%
%ADD155C,1.3572*%
%ADD156R,1.2702X1.2702*%
%ADD157C,1.1684*%
%ADD158C,0.6572*%
%ADD159O,1.3032X1.0032*%
%ADD160R,1.3032X1.0032*%
%ADD161R,2.6032X1.4032*%
%ADD162R,1.9032X0.5532*%
%ADD163R,0.4031X0.6048*%
%ADD164R,0.6048X0.4031*%
%ADD165C,0.0500*%
%ADD166C,0.1016*%
%ADD167R,0.3000X0.6096*%
%ADD168R,0.2794X0.6096*%
%ADD169R,0.9525X0.5080*%
%ADD170R,0.9525X0.5001*%
%ADD171R,0.5080X0.9525*%
%ADD172R,0.5001X0.9525*%
%ADD173R,0.6096X0.3000*%
%ADD174R,0.6096X0.2794*%
%ADD175C,0.0508*%
D175*
X997472Y776360D02*
X968010D01*
X997472Y766450D02*
Y776360D01*
Y766450D02*
X968010D01*
Y776360D01*
X952246Y643130D02*
X932510D01*
Y672592D01*
X952246D02*
X932510D01*
X952246Y643130D02*
Y672592D01*
X945896Y739650D02*
X926160D01*
Y769112D01*
X945896D02*
X926160D01*
X945896Y739650D02*
Y769112D01*
X1143760Y976880D02*
Y986790D01*
Y976880D02*
X1114298D01*
Y986790D01*
X1143760D02*
X1114298D01*
X1073016Y865500D02*
X1053280D01*
Y894962D01*
X1073016D02*
X1053280D01*
X1073016Y865500D02*
Y894962D01*
X1232660Y979500D02*
Y999236D01*
Y979500D02*
X1203198D01*
Y999236D01*
X1232660D02*
X1203198D01*
X1203320Y938904D02*
Y958640D01*
X1232782D02*
X1203320D01*
X1232782Y938904D02*
Y958640D01*
Y938904D02*
X1203320D01*
X1265680Y943860D02*
Y953770D01*
Y943860D02*
X1236218D01*
Y953770D01*
X1265680D02*
X1236218D01*
X1203320Y903344D02*
Y923080D01*
X1232782D02*
X1203320D01*
X1232782Y903344D02*
Y923080D01*
Y903344D02*
X1203320D01*
X1232780Y867860D02*
Y887596D01*
Y867860D02*
X1203318D01*
Y887596D01*
X1232780D02*
X1203318D01*
X1175510Y917270D02*
Y937006D01*
Y917270D02*
X1146048D01*
Y937006D01*
X1175510D02*
X1146048D01*
X1141220Y912110D02*
Y922020D01*
Y912110D02*
X1111758D01*
Y922020D01*
X1141220D02*
X1111758D01*
X1203320Y961764D02*
Y981500D01*
X1232782D02*
X1203320D01*
X1232782Y961764D02*
Y981500D01*
Y961764D02*
X1203320D01*
X1232780Y842460D02*
Y862196D01*
Y842460D02*
X1203318D01*
Y862196D01*
X1232780D02*
X1203318D01*
X771652Y487934D02*
X742190D01*
X771652D02*
Y507670D01*
X742190D01*
Y487934D02*
Y507670D01*
X775716Y508510D02*
Y537972D01*
X755980D01*
Y508510D02*
Y537972D01*
X775716Y508510D02*
X755980D01*
X605790Y1058418D02*
Y1087880D01*
X615700Y1058418D02*
X605790D01*
X615700D02*
Y1087880D01*
X605790D01*
X1071626Y798070D02*
Y827532D01*
X1051890D01*
Y798070D02*
Y827532D01*
X1071626Y798070D02*
X1051890D01*
X1052576Y720600D02*
Y750062D01*
X1032840D01*
Y720600D02*
Y750062D01*
X1052576Y720600D02*
X1032840D01*
X885912Y741990D02*
X856450D01*
X885912Y732080D02*
Y741990D01*
Y732080D02*
X856450D01*
Y741990D01*
X916390Y727004D02*
X886928D01*
Y746740D01*
X916390D02*
X886928D01*
X916390Y727004D02*
Y746740D01*
X921472Y787456D02*
X892010D01*
X921472Y767720D02*
Y787456D01*
Y767720D02*
X892010D01*
Y787456D01*
X979892Y703636D02*
X950430D01*
X979892Y683900D02*
Y703636D01*
Y683900D02*
X950430D01*
Y703636D01*
X1012912Y698810D02*
X983450D01*
X1012912Y688900D02*
Y698810D01*
Y688900D02*
X983450D01*
Y698810D01*
X1049234Y653600D02*
Y683062D01*
X1068970D02*
X1049234D01*
X1068970Y653600D02*
Y683062D01*
Y653600D02*
X1049234D01*
X918932Y675696D02*
X889470D01*
X918932Y655960D02*
Y675696D01*
Y655960D02*
X889470D01*
Y675696D01*
X912620Y692404D02*
X883158D01*
Y712140D01*
X912620D02*
X883158D01*
X912620Y692404D02*
Y712140D01*
X983502Y674506D02*
X954040D01*
X983502Y654770D02*
Y674506D01*
Y654770D02*
X954040D01*
Y674506D01*
X916390Y749864D02*
X886928D01*
Y769600D01*
X916390D02*
X886928D01*
X916390Y749864D02*
Y769600D01*
X1207440Y949320D02*
X1187704D01*
X1207440D02*
Y978782D01*
X1187704D01*
Y949320D02*
Y978782D01*
X1184580Y1019170D02*
X1164844D01*
X1184580D02*
Y1048632D01*
X1164844D01*
Y1019170D02*
Y1048632D01*
X1129970Y906020D02*
X1110234D01*
X1129970D02*
Y935482D01*
X1110234D01*
Y906020D02*
Y935482D01*
X1142670Y848870D02*
X1122934D01*
X1142670D02*
Y878332D01*
X1122934D01*
Y848870D02*
Y878332D01*
X1054354Y964440D02*
Y993902D01*
X1074090D02*
X1054354D01*
X1074090Y964440D02*
Y993902D01*
Y964440D02*
X1054354D01*
X1028954Y1040640D02*
Y1070102D01*
X1048690D02*
X1028954D01*
X1048690Y1040640D02*
Y1070102D01*
Y1040640D02*
X1028954D01*
X737362Y550164D02*
X707900D01*
X737362D02*
Y569900D01*
X707900D01*
Y550164D02*
Y569900D01*
X585470Y1071120D02*
Y1100582D01*
X575560D01*
Y1071120D02*
Y1100582D01*
X585470Y1071120D02*
X575560D01*
X802310Y733550D02*
X782574D01*
X802310Y704088D02*
Y733550D01*
Y704088D02*
X782574D01*
Y733550D01*
M02*
