%FSLAX44Y44*%
%MOMM*%
G71*
G01*
G75*
G04 Layer_Physical_Order=7*
G04 Layer_Color=16440176*
%ADD10R,1.2192X0.8128*%
%ADD11R,0.6500X0.2500*%
%ADD12R,0.1900X0.7500*%
%ADD13R,1.6500X4.4000*%
%ADD14R,0.8128X1.2192*%
%ADD15R,0.3048X0.8128*%
%ADD16R,0.8128X0.3048*%
%ADD17R,0.6500X0.8500*%
%ADD18R,0.9500X0.6500*%
%ADD19R,2.0066X0.8128*%
%ADD20R,0.3556X1.4224*%
%ADD21R,1.2192X2.0066*%
%ADD22R,2.0066X1.2192*%
%ADD23R,1.0160X1.1176*%
%ADD24O,1.0000X0.2500*%
%ADD25O,0.2500X1.0000*%
%ADD26R,2.4500X2.4500*%
%ADD27R,0.8000X0.9000*%
%ADD28R,2.1000X0.7000*%
%ADD29R,0.7112X0.9144*%
%ADD30R,0.8890X0.3048*%
%ADD31R,0.2000X0.9100*%
%ADD32R,0.4500X0.5000*%
%ADD33R,0.8300X0.6300*%
%ADD34R,1.1176X1.0160*%
%ADD35O,1.6500X0.3000*%
%ADD36R,1.3000X1.9000*%
%ADD37R,0.9144X0.7112*%
%ADD38O,2.1000X0.3000*%
%ADD39O,0.3000X2.1000*%
%ADD40R,1.4224X0.3556*%
%ADD41R,0.8500X0.6500*%
%ADD42R,0.6500X0.9500*%
%ADD43R,0.8128X2.0066*%
%ADD44C,0.5080*%
%ADD45C,0.2540*%
%ADD46C,0.0000*%
%ADD47R,1.9500X2.0000*%
%ADD48R,0.6500X0.8500*%
%ADD49R,2.0000X1.9500*%
%ADD50R,1.2700X1.2700*%
%ADD51C,1.2700*%
%ADD52C,1.0160*%
%ADD53R,2.7178X2.7178*%
%ADD54R,1.0668X1.0670*%
%ADD55C,1.0670*%
%ADD56R,1.0670X1.0670*%
%ADD57R,2.7178X2.7178*%
%ADD58C,4.2000*%
%ADD59C,0.5000*%
%ADD60C,1.1540*%
%ADD61R,1.0670X1.0670*%
%ADD62C,1.5240*%
%ADD63C,0.9652*%
%ADD64C,0.4540*%
%ADD65C,1.0160*%
%ADD66C,2.0320*%
%ADD67C,1.7780*%
%ADD68C,1.8290*%
%ADD69C,5.2160*%
%ADD70C,1.5160*%
%ADD71C,1.9160*%
G04:AMPARAMS|DCode=72|XSize=2.424mm|YSize=2.424mm|CornerRadius=0mm|HoleSize=0mm|Usage=FLASHONLY|Rotation=0.000|XOffset=0mm|YOffset=0mm|HoleType=Round|Shape=Relief|Width=0.254mm|Gap=0.254mm|Entries=4|*
%AMTHD72*
7,0,0,2.4240,1.9160,0.2540,45*
%
%ADD72THD72*%
G04:AMPARAMS|DCode=73|XSize=2.286mm|YSize=2.286mm|CornerRadius=0mm|HoleSize=0mm|Usage=FLASHONLY|Rotation=0.000|XOffset=0mm|YOffset=0mm|HoleType=Round|Shape=Relief|Width=0.254mm|Gap=0.254mm|Entries=4|*
%AMTHD73*
7,0,0,2.2860,1.7780,0.2540,45*
%
%ADD73THD73*%
%ADD74C,2.6160*%
%ADD75C,1.7272*%
%ADD76C,1.2160*%
G04:AMPARAMS|DCode=77|XSize=2.2352mm|YSize=2.2352mm|CornerRadius=0mm|HoleSize=0mm|Usage=FLASHONLY|Rotation=0.000|XOffset=0mm|YOffset=0mm|HoleType=Round|Shape=Relief|Width=0.254mm|Gap=0.254mm|Entries=4|*
%AMTHD77*
7,0,0,2.2352,1.7272,0.2540,45*
%
%ADD77THD77*%
G04:AMPARAMS|DCode=78|XSize=2.337mm|YSize=2.337mm|CornerRadius=0mm|HoleSize=0mm|Usage=FLASHONLY|Rotation=0.000|XOffset=0mm|YOffset=0mm|HoleType=Round|Shape=Relief|Width=0.254mm|Gap=0.254mm|Entries=4|*
%AMTHD78*
7,0,0,2.3370,1.8290,0.2540,45*
%
%ADD78THD78*%
D44*
X1151890Y669295D02*
X1135340Y652745D01*
X1128990Y622260D02*
Y632425D01*
Y622260D02*
X1115060Y608330D01*
X1151890Y669295D02*
Y688340D01*
X1135685Y642930D02*
X1135340Y643276D01*
X1135685Y639120D02*
Y642930D01*
X1135340Y643276D02*
Y652745D01*
X1135685Y639120D02*
X1128990Y632425D01*
X1151890Y688340D02*
X1102360Y737870D01*
Y811848D01*
X1116290Y825778D02*
Y897850D01*
Y825778D02*
X1102360Y811848D01*
X1145540Y927100D02*
X1116290Y897850D01*
X1173480Y927100D02*
X1145540D01*
X1248410Y1002030D02*
X1173480Y927100D01*
X1248410Y1002030D02*
Y1028700D01*
X1333500Y1113790D02*
X1248410Y1028700D01*
X645160Y382270D02*
X633730Y393700D01*
Y467360D01*
D45*
X735720Y357896D02*
X729534Y351710D01*
X735720Y441478D02*
Y459258D01*
Y441478D02*
X731520Y437278D01*
Y428862D02*
Y437278D01*
X735720Y424662D02*
X731520Y428862D01*
X735720Y357896D02*
Y424662D01*
X742551Y466090D02*
X735720Y459258D01*
X748466Y471170D02*
X696414D01*
X696033Y470789D01*
X792480Y515184D02*
X748466Y471170D01*
X750570Y466090D02*
X742551D01*
X816610Y532130D02*
X750570Y466090D01*
X792480Y515184D02*
Y528320D01*
X816610Y532130D02*
Y555388D01*
X1121410Y998220D02*
X1084580Y961390D01*
Y910590D02*
Y961390D01*
Y910590D02*
X995045Y821055D01*
Y746997D02*
Y821055D01*
X1331040Y867640D02*
X1320480Y878200D01*
X1352550Y684386D02*
Y750570D01*
Y684386D02*
X1315720Y647556D01*
Y600312D02*
Y647556D01*
X1329770Y586262D02*
X1315720Y600312D01*
X1329770Y474726D02*
Y586262D01*
X1331040Y772080D02*
Y867640D01*
X1352550Y750570D02*
X1331040Y772080D01*
X1329770Y474726D02*
X1319210Y464166D01*
Y459100D02*
Y464166D01*
X1299210Y795810D02*
X1283490Y811530D01*
X1155060Y362270D02*
Y382270D01*
X1300480Y918200D02*
X1212540Y830260D01*
Y723542D02*
Y830260D01*
Y723542D02*
X1196170Y707172D01*
X1236491Y673100D02*
X1227601Y664210D01*
X1256428Y673100D02*
X1236491D01*
X1262380Y658732D02*
X1239918Y636270D01*
X1225151D01*
X1196170Y681762D02*
Y707172D01*
X1213721Y664210D02*
X1196170Y681762D01*
X1227601Y664210D02*
X1213721D01*
X1262380Y667148D02*
X1256428Y673100D01*
X1262380Y658732D02*
Y667148D01*
X1225151Y636270D02*
X1197229Y608347D01*
Y443303D02*
Y608347D01*
Y443303D02*
X1195060Y441134D01*
Y382270D02*
Y441134D01*
X1186180Y736870D02*
X1177290Y727980D01*
Y680720D02*
Y727980D01*
X1207770Y650240D02*
X1177290Y680720D01*
X1242060Y762748D02*
Y822036D01*
X1258224Y838200D02*
X1242060Y822036D01*
Y762748D02*
X1234400Y755088D01*
X1242060Y739012D02*
X1234400Y746672D01*
X1242060Y698500D02*
Y739012D01*
X1234400Y746672D02*
Y755088D01*
X1242060Y698500D02*
X1217930Y674370D01*
X1220815Y650240D02*
X1207770D01*
X1233515Y662940D02*
X1220815Y650240D01*
X1252220Y662940D02*
X1233515D01*
X1195060Y362270D02*
Y382270D01*
X1185620Y351710D02*
X1175060Y362270D01*
X1202610Y351710D02*
X1185620D01*
X1175060Y362270D02*
Y382270D01*
X1288650Y437750D02*
X1202610Y351710D01*
X1301750Y516574D02*
X1288650Y503474D01*
X1301750Y516574D02*
Y570628D01*
X1299210Y573168D01*
Y795810D01*
X1288650Y437750D02*
Y503474D01*
X646630Y902608D02*
X585308Y963930D01*
X646630Y539986D02*
Y902608D01*
X585308Y963930D02*
X582531D01*
X571500Y967777D02*
Y1040130D01*
X612140Y1080770D02*
X571500Y1040130D01*
X678180Y1080770D02*
X612140D01*
X683260Y1009650D02*
X669290Y995680D01*
X683260Y1009650D02*
Y1021952D01*
X676910Y1028302D01*
Y1036718D01*
X682388Y1042197D02*
X676910Y1036718D01*
X682388Y1042197D02*
Y1070610D01*
X669290Y995680D02*
X593961D01*
X702310Y980440D02*
X619760D01*
X715264Y967486D02*
X702310Y980440D01*
X715264Y916288D02*
Y967486D01*
X739140Y990600D02*
X615551D01*
X753508Y976232D02*
X739140Y990600D01*
X753508Y906780D02*
Y976232D01*
X692548Y1080770D02*
X682388Y1070610D01*
X704850Y1080770D02*
X692548D01*
X640080Y450452D02*
Y775336D01*
X665480Y425052D02*
X640080Y450452D01*
X594280Y944997D02*
X571500Y967777D01*
X594280Y821136D02*
Y944997D01*
X640080Y775336D02*
X594280Y821136D01*
X665480Y422910D02*
Y425052D01*
X660400Y526216D02*
X646630Y539986D01*
X593961Y995680D02*
X576580Y978298D01*
Y969882D02*
Y978298D01*
X582531Y963930D02*
X576580Y969882D01*
X660400Y444500D02*
Y526216D01*
X1186180Y736870D02*
Y853440D01*
X985520Y360680D02*
Y430340D01*
X1014920Y459740D02*
X985520Y430340D01*
X734060Y680720D02*
Y774700D01*
X765810Y775970D02*
X751840Y762000D01*
Y594360D02*
Y762000D01*
Y594360D02*
X735330Y577850D01*
X768350Y644990D02*
Y645558D01*
Y644990D02*
X767781D01*
X761830Y639038D01*
Y630622D02*
Y639038D01*
X767781Y624670D02*
X761830Y630622D01*
X768350Y624670D02*
X767781D01*
X768350Y591820D02*
Y624670D01*
X776841Y654050D02*
X768350Y645558D01*
X777240Y792878D02*
Y807720D01*
Y792878D02*
X774700Y790338D01*
Y781922D02*
Y790338D01*
X777240Y779382D02*
X774700Y781922D01*
X777240Y752712D02*
Y779382D01*
X789940Y820420D02*
X777240Y807720D01*
X782320Y747632D02*
X777240Y752712D01*
X792480Y778510D02*
X784860Y786130D01*
X792480Y660002D02*
Y778510D01*
Y660002D02*
X786528Y654050D01*
X776841D01*
X729357Y804685D02*
X703580Y778908D01*
Y575310D02*
Y778908D01*
X659130Y534670D02*
Y604122D01*
X687070Y506730D02*
X659130Y534670D01*
X687070Y496570D02*
Y506730D01*
X995045Y746997D02*
X989330Y741282D01*
Y731520D02*
Y741282D01*
X859790Y869950D02*
X843280Y886460D01*
X859790Y688686D02*
Y869950D01*
Y688686D02*
X850900Y679796D01*
Y666750D02*
Y679796D01*
X730250Y815738D02*
X687468D01*
X736201Y821690D02*
X730250Y815738D01*
X741281Y821690D02*
X736201D01*
X742950Y823358D02*
X741281Y821690D01*
X670560Y659130D02*
Y798830D01*
X687468Y815738D02*
X670560Y798830D01*
X1187450Y868680D02*
Y908975D01*
X1220815Y942340D02*
X1187450Y908975D01*
X1227890Y942340D02*
X1220815D01*
X1254760Y969210D02*
X1227890Y942340D01*
X1300480Y838200D02*
X1258224D01*
X1320480D02*
X1300480D01*
X782320Y664210D02*
Y747632D01*
X828040Y725919D02*
X820380Y718258D01*
X826770Y703452D02*
X820380Y709842D01*
X826770Y691908D02*
Y703452D01*
X821690Y608728D02*
X815340Y602378D01*
X821690Y587612D02*
X815340Y593962D01*
X821690Y560468D02*
Y587612D01*
Y608728D02*
Y670747D01*
X828040Y671582D02*
X821450Y678172D01*
X818994Y724056D02*
X814070Y728980D01*
X818994Y724056D02*
Y724056D01*
Y724056D02*
X815300Y720363D01*
Y707737D02*
Y720363D01*
X821690Y701347D02*
X815300Y707737D01*
X821690Y694013D02*
Y701347D01*
X820380Y709842D02*
Y718258D01*
X821690Y694013D02*
X816370Y688693D01*
Y676067D02*
Y688693D01*
X821690Y670747D02*
X816370Y676067D01*
X826770Y691908D02*
X821450Y686588D01*
Y678172D02*
Y686588D01*
X815340Y593962D02*
Y602378D01*
X821690Y560468D02*
X816610Y555388D01*
X828040Y609998D02*
Y671582D01*
X835660Y602378D02*
X828040Y609998D01*
X835660Y593962D02*
Y602378D01*
Y593962D02*
X828040Y586342D01*
Y500778D02*
Y586342D01*
X812800Y764938D02*
X803910Y756048D01*
Y664210D02*
Y756048D01*
X866140Y676910D02*
Y891540D01*
X927735Y615315D02*
X866140Y676910D01*
X907651Y901700D02*
X890270D01*
X911461Y897890D02*
X907651Y901700D01*
X919878Y897890D02*
X911461D01*
X923688Y901700D02*
X919878Y897890D01*
X933450Y901700D02*
X923688D01*
X948570Y886580D02*
X933450Y901700D01*
X948570Y729498D02*
Y886580D01*
X952500Y725568D02*
X948570Y729498D01*
X952500Y717152D02*
Y725568D01*
Y717152D02*
X948570Y713222D01*
Y548760D02*
Y713222D01*
X1021951Y530860D02*
X966470D01*
X1024491Y533400D02*
X1021951Y530860D01*
X1032908Y533400D02*
X1024491D01*
X1035448Y530860D02*
X1032908Y533400D01*
X1074420Y530860D02*
X1035448D01*
X966470D02*
X948570Y548760D01*
X834390Y494428D02*
X828040Y500778D01*
X834390Y486012D02*
X828040Y479662D01*
Y457200D02*
Y479662D01*
Y725919D02*
Y741680D01*
X834390Y486012D02*
Y494428D01*
X838200Y447040D02*
X828040Y457200D01*
X941070Y447040D02*
X838200D01*
X891540Y533400D02*
Y546100D01*
Y533400D02*
X889000Y530860D01*
Y509270D02*
Y530860D01*
X742950Y823358D02*
Y830580D01*
X666950Y611942D02*
X659130Y604122D01*
X666950Y620358D02*
X661670Y625638D01*
X666950Y611942D02*
Y620358D01*
X661670Y625638D02*
Y637540D01*
X773430Y980440D02*
Y1003300D01*
X789940Y820420D02*
Y963930D01*
X773430Y980440D01*
X812800Y995680D02*
X796290Y1012190D01*
X812800Y764938D02*
Y995680D01*
X670226Y362270D02*
X665160D01*
X680786Y351710D02*
X670226Y362270D01*
X729534Y351710D02*
X680786D01*
X793750Y538480D02*
X788271D01*
X806450Y551180D02*
X793750Y538480D01*
X696033Y470789D02*
X695960D01*
X806450Y551180D02*
Y551688D01*
X696033Y470789D02*
X688794Y463550D01*
X676910D01*
X1000760Y459948D02*
X966470Y425658D01*
Y361950D02*
Y425658D01*
X1038860Y557530D02*
X1011936D01*
X1000760Y459948D02*
Y502920D01*
X728581Y478790D02*
X681990D01*
X788271Y538480D02*
X728581Y478790D01*
X755650Y840740D02*
X754380D01*
X755650Y847090D02*
Y855980D01*
X745490Y866140D01*
X751840Y838237D02*
Y843280D01*
X755650Y847090D02*
X751840Y843280D01*
X615551Y990600D02*
X599041Y974090D01*
X586740D01*
X727311Y904240D02*
X715264Y916288D01*
X734060Y898288D02*
X728108Y904240D01*
X727311D01*
X734060Y894080D02*
Y898288D01*
X745490Y882650D02*
X734060Y894080D01*
X779780Y953770D02*
X765810Y939800D01*
Y900788D02*
Y939800D01*
Y900788D02*
X755650Y890628D01*
Y876300D02*
Y890628D01*
Y876300D02*
X745490Y866140D01*
D51*
X1333500Y1113790D02*
D03*
D52*
X687070Y496570D02*
D03*
D55*
X1155060Y382270D02*
D03*
X1175060D02*
D03*
X1195060D02*
D03*
X1155060Y362270D02*
D03*
X1175060D02*
D03*
X1195060D02*
D03*
X665160D02*
D03*
X1319210Y459100D02*
D03*
X1300480Y918200D02*
D03*
X1320480Y878200D02*
D03*
Y838200D02*
D03*
D56*
X645160Y382270D02*
D03*
D59*
X1273810Y1104290D02*
D03*
Y1155090D02*
D03*
D60*
D03*
Y1104290D02*
D03*
D61*
X1300480Y838200D02*
D03*
D63*
X1115060Y608330D02*
D03*
X633730Y467360D02*
D03*
X1283490Y811530D02*
D03*
X665480Y422910D02*
D03*
X660400Y444500D02*
D03*
X704850Y1080770D02*
D03*
X1252220Y662940D02*
D03*
X734060Y680720D02*
D03*
Y774700D02*
D03*
X768350Y591820D02*
D03*
X765810Y775970D02*
D03*
X784860Y786130D02*
D03*
X735330Y577850D02*
D03*
X1121410Y998220D02*
D03*
X989330Y731520D02*
D03*
X843280Y886460D02*
D03*
X703580Y575310D02*
D03*
X1254760Y969210D02*
D03*
X1186180Y853440D02*
D03*
X1187450Y868680D02*
D03*
X850900Y666750D02*
D03*
X1217930Y674370D02*
D03*
X782320Y664210D02*
D03*
X803910D02*
D03*
X927735Y615315D02*
D03*
X1074420Y530860D02*
D03*
X890270Y901700D02*
D03*
X866140Y891540D02*
D03*
X670560Y659130D02*
D03*
X661670Y637540D02*
D03*
X941070Y447040D02*
D03*
X828040Y741680D02*
D03*
X889000Y509270D02*
D03*
X891540Y546100D02*
D03*
X796290Y1012190D02*
D03*
X773430Y1003300D02*
D03*
X814070Y728980D02*
D03*
X806450Y551180D02*
D03*
X792480Y528320D02*
D03*
X966470Y361950D02*
D03*
X985520Y360680D02*
D03*
X1038860Y557530D02*
D03*
X1011936D02*
D03*
X1000760Y502920D02*
D03*
X1014920Y459740D02*
D03*
X676910Y463550D02*
D03*
X681990Y478790D02*
D03*
X745490Y882650D02*
D03*
X619760Y980440D02*
D03*
X745490Y866140D02*
D03*
X755650Y840740D02*
D03*
X742950Y830580D02*
D03*
X729216Y801171D02*
D03*
X586740Y974090D02*
D03*
X755650Y906780D02*
D03*
X779780Y953770D02*
D03*
X678180Y1080770D02*
D03*
M02*
