%FSLAX44Y44*%
%MOMM*%
G71*
G01*
G75*
G04 Layer_Color=12632256*
%ADD10R,1.2192X0.8128*%
%ADD11R,0.6500X0.2500*%
%ADD12R,0.1900X0.7500*%
%ADD13R,1.6500X4.4000*%
%ADD14R,0.8128X1.2192*%
%ADD15R,0.3048X0.8128*%
%ADD16R,0.8128X0.3048*%
%ADD17R,0.6500X0.8500*%
%ADD18R,0.9500X0.6500*%
%ADD19R,2.0066X0.8128*%
%ADD20R,0.3556X1.4224*%
%ADD21R,1.2192X2.0066*%
%ADD22R,2.0066X1.2192*%
%ADD23R,1.0160X1.1176*%
%ADD24O,1.0000X0.2500*%
%ADD25O,0.2500X1.0000*%
%ADD26R,2.4500X2.4500*%
%ADD27R,0.8000X0.9000*%
%ADD28R,2.1000X0.7000*%
%ADD29R,0.7112X0.9144*%
%ADD30R,0.8890X0.3048*%
%ADD31R,0.2000X0.9100*%
%ADD32R,0.4500X0.5000*%
%ADD33R,0.8300X0.6300*%
%ADD34R,1.1176X1.0160*%
%ADD35O,1.6500X0.3000*%
%ADD36R,1.3000X1.9000*%
%ADD37R,0.9144X0.7112*%
%ADD38O,2.1000X0.3000*%
%ADD39O,0.3000X2.1000*%
%ADD40R,1.4224X0.3556*%
%ADD41R,0.8500X0.6500*%
%ADD42R,0.6500X0.9500*%
%ADD43R,0.8128X2.0066*%
%ADD44C,0.5080*%
%ADD45C,0.2540*%
%ADD46C,0.0000*%
%ADD47R,1.9500X2.0000*%
%ADD48R,0.6500X0.8500*%
%ADD49R,2.0000X1.9500*%
%ADD50R,1.2700X1.2700*%
%ADD51C,1.2700*%
%ADD52C,1.0160*%
%ADD53R,2.7178X2.7178*%
%ADD54R,1.0668X1.0670*%
%ADD55C,1.0670*%
%ADD56R,1.0670X1.0670*%
%ADD57R,2.7178X2.7178*%
%ADD58C,4.2000*%
%ADD59C,0.5000*%
%ADD60C,1.1540*%
%ADD61R,1.0670X1.0670*%
%ADD62C,1.5240*%
%ADD63C,0.9652*%
%ADD64C,0.4540*%
%ADD65C,1.0160*%
%ADD66C,2.0320*%
%ADD67C,1.7780*%
%ADD68C,1.8290*%
%ADD69C,5.2160*%
%ADD70C,1.5160*%
%ADD71C,1.9160*%
G04:AMPARAMS|DCode=72|XSize=2.424mm|YSize=2.424mm|CornerRadius=0mm|HoleSize=0mm|Usage=FLASHONLY|Rotation=0.000|XOffset=0mm|YOffset=0mm|HoleType=Round|Shape=Relief|Width=0.254mm|Gap=0.254mm|Entries=4|*
%AMTHD72*
7,0,0,2.4240,1.9160,0.2540,45*
%
%ADD72THD72*%
G04:AMPARAMS|DCode=73|XSize=2.286mm|YSize=2.286mm|CornerRadius=0mm|HoleSize=0mm|Usage=FLASHONLY|Rotation=0.000|XOffset=0mm|YOffset=0mm|HoleType=Round|Shape=Relief|Width=0.254mm|Gap=0.254mm|Entries=4|*
%AMTHD73*
7,0,0,2.2860,1.7780,0.2540,45*
%
%ADD73THD73*%
%ADD74C,2.6160*%
%ADD75C,1.7272*%
%ADD76C,1.2160*%
G04:AMPARAMS|DCode=77|XSize=2.2352mm|YSize=2.2352mm|CornerRadius=0mm|HoleSize=0mm|Usage=FLASHONLY|Rotation=0.000|XOffset=0mm|YOffset=0mm|HoleType=Round|Shape=Relief|Width=0.254mm|Gap=0.254mm|Entries=4|*
%AMTHD77*
7,0,0,2.2352,1.7272,0.2540,45*
%
%ADD77THD77*%
G04:AMPARAMS|DCode=78|XSize=2.337mm|YSize=2.337mm|CornerRadius=0mm|HoleSize=0mm|Usage=FLASHONLY|Rotation=0.000|XOffset=0mm|YOffset=0mm|HoleType=Round|Shape=Relief|Width=0.254mm|Gap=0.254mm|Entries=4|*
%AMTHD78*
7,0,0,2.3370,1.8290,0.2540,45*
%
%ADD78THD78*%
%ADD79O,1.1000X0.8000*%
%ADD80R,1.1000X0.8000*%
%ADD81R,2.4000X1.2000*%
%ADD82R,1.7000X0.3500*%
D50*
X1358900Y1113790D02*
D03*
D51*
Y1088390D02*
D03*
X1333500Y1113790D02*
D03*
Y1088390D02*
D03*
D52*
X910590Y1014730D02*
D03*
X820420Y447040D02*
D03*
X748030Y520700D02*
D03*
X1330960Y646430D02*
D03*
X1155700Y892810D02*
D03*
X1228090Y596900D02*
D03*
X925830Y706120D02*
D03*
X1088390Y1024890D02*
D03*
X1234440Y647700D02*
D03*
X969010Y720090D02*
D03*
X1139190Y963930D02*
D03*
X1043940Y646430D02*
D03*
X1250950Y847090D02*
D03*
X848360Y693420D02*
D03*
X1078110Y857370D02*
D03*
X887730Y858520D02*
D03*
X1225550Y930910D02*
D03*
X1089660Y669290D02*
D03*
X1014730Y820420D02*
D03*
X889000Y825500D02*
D03*
X1229360Y797560D02*
D03*
X1037710Y842010D02*
D03*
X1104900Y529590D02*
D03*
X687070Y496570D02*
D03*
X753110Y562610D02*
D03*
D53*
X1179830Y458470D02*
D03*
X711200Y453390D02*
D03*
D54*
X1115060Y382270D02*
D03*
D55*
X1135060D02*
D03*
X1155060D02*
D03*
X1175060D02*
D03*
X1195060D02*
D03*
X1135060Y362270D02*
D03*
X1155060D02*
D03*
X1175060D02*
D03*
X1195060D02*
D03*
X1115060D02*
D03*
X665160Y382270D02*
D03*
X685160D02*
D03*
X705160D02*
D03*
X725160D02*
D03*
X665160Y362270D02*
D03*
X685160D02*
D03*
X705160D02*
D03*
X725160D02*
D03*
X645160D02*
D03*
X624840Y569280D02*
D03*
Y549280D02*
D03*
Y529280D02*
D03*
Y509280D02*
D03*
X604840Y569280D02*
D03*
Y549280D02*
D03*
Y529280D02*
D03*
Y509280D02*
D03*
Y589280D02*
D03*
X1299210Y439100D02*
D03*
Y459100D02*
D03*
Y479100D02*
D03*
Y499100D02*
D03*
X1319210Y439100D02*
D03*
Y459100D02*
D03*
Y479100D02*
D03*
Y499100D02*
D03*
Y419100D02*
D03*
X1300480Y858200D02*
D03*
Y878200D02*
D03*
Y898200D02*
D03*
Y918200D02*
D03*
X1320480Y858200D02*
D03*
Y878200D02*
D03*
Y898200D02*
D03*
Y918200D02*
D03*
Y838200D02*
D03*
X624840Y885510D02*
D03*
Y865510D02*
D03*
Y845510D02*
D03*
Y825510D02*
D03*
X604840Y885510D02*
D03*
Y865510D02*
D03*
Y845510D02*
D03*
Y825510D02*
D03*
Y905510D02*
D03*
D56*
X645160Y382270D02*
D03*
D57*
X829310Y397510D02*
D03*
X1320800Y697230D02*
D03*
X1008380Y383540D02*
D03*
D58*
X1324610Y1180490D02*
D03*
X562610Y323190D02*
D03*
X1362710D02*
D03*
X588010Y1180490D02*
D03*
D59*
X1273810Y1104290D02*
D03*
Y1155090D02*
D03*
D60*
Y1180490D02*
D03*
Y1155090D02*
D03*
X1248410D02*
D03*
X1223010D02*
D03*
X1197610D02*
D03*
X1172210D02*
D03*
X1146810D02*
D03*
X1121410D02*
D03*
X1096010D02*
D03*
X1070610D02*
D03*
X1045210D02*
D03*
X1019810D02*
D03*
X994410D02*
D03*
X969010D02*
D03*
X943610D02*
D03*
X918210D02*
D03*
X892810D02*
D03*
X867410D02*
D03*
X842010D02*
D03*
X816610D02*
D03*
X791210D02*
D03*
X765810D02*
D03*
X740410D02*
D03*
X715010D02*
D03*
X689610D02*
D03*
X664210D02*
D03*
X638810D02*
D03*
X1248410Y1180490D02*
D03*
X1223010D02*
D03*
X1197610D02*
D03*
X1172210D02*
D03*
X1146810D02*
D03*
X1121410D02*
D03*
X1096010D02*
D03*
X1070610D02*
D03*
X1045210D02*
D03*
X1019810D02*
D03*
X994410D02*
D03*
X969010D02*
D03*
X943610D02*
D03*
X918210D02*
D03*
X892810D02*
D03*
X867410D02*
D03*
X842010D02*
D03*
X816610D02*
D03*
X791210D02*
D03*
X765810D02*
D03*
X740410D02*
D03*
X715010D02*
D03*
X689610D02*
D03*
X664210D02*
D03*
X638810D02*
D03*
X1273810Y1129690D02*
D03*
Y1104290D02*
D03*
X1248410D02*
D03*
X1223010D02*
D03*
X1197610D02*
D03*
X1172210D02*
D03*
X1146810D02*
D03*
X1121410D02*
D03*
X1096010D02*
D03*
X1070610D02*
D03*
X1045210D02*
D03*
X1019810D02*
D03*
X994410D02*
D03*
X969010D02*
D03*
X943610D02*
D03*
X918210D02*
D03*
X892810D02*
D03*
X867410D02*
D03*
X842010D02*
D03*
X816610D02*
D03*
X791210D02*
D03*
X765810D02*
D03*
X740410D02*
D03*
X715010D02*
D03*
X689610D02*
D03*
X664210D02*
D03*
X638810D02*
D03*
X1248410Y1129690D02*
D03*
X1223010D02*
D03*
X1197610D02*
D03*
X1172210D02*
D03*
X1146810D02*
D03*
X1121410D02*
D03*
X1096010D02*
D03*
X1070610D02*
D03*
X1045210D02*
D03*
X1019810D02*
D03*
X994410D02*
D03*
X969010D02*
D03*
X943610D02*
D03*
X918210D02*
D03*
X892810D02*
D03*
X867410D02*
D03*
X842010D02*
D03*
X816610D02*
D03*
X791210D02*
D03*
X765810D02*
D03*
X740410D02*
D03*
X715010D02*
D03*
X689610D02*
D03*
X664210D02*
D03*
X638810D02*
D03*
D61*
X624840Y589280D02*
D03*
X1299210Y419100D02*
D03*
X1300480Y838200D02*
D03*
X624840Y905510D02*
D03*
D62*
X797610Y978660D02*
D03*
Y1060960D02*
D03*
M02*
