%FSLAX44Y44*%
%MOMM*%
G71*
G01*
G75*
G04 Layer_Color=8388736*
%ADD10R,1.2192X0.8128*%
%ADD11R,0.6500X0.2500*%
%ADD12R,0.1900X0.7500*%
%ADD13R,1.6500X4.4000*%
%ADD14R,0.8128X1.2192*%
%ADD15R,0.3048X0.8128*%
%ADD16R,0.8128X0.3048*%
%ADD17R,0.6500X0.8500*%
%ADD18R,0.9500X0.6500*%
%ADD19R,2.0066X0.8128*%
%ADD20R,0.3556X1.4224*%
%ADD21R,1.2192X2.0066*%
%ADD22R,2.0066X1.2192*%
%ADD23R,1.0160X1.1176*%
%ADD24O,1.0000X0.2500*%
%ADD25O,0.2500X1.0000*%
%ADD26R,2.4500X2.4500*%
%ADD27R,0.8000X0.9000*%
%ADD28R,2.1000X0.7000*%
%ADD29R,0.7112X0.9144*%
%ADD30R,0.8890X0.3048*%
%ADD31R,0.2000X0.9100*%
%ADD32R,0.4500X0.5000*%
%ADD33R,0.8300X0.6300*%
%ADD34R,1.1176X1.0160*%
%ADD35O,1.6500X0.3000*%
%ADD36R,1.3000X1.9000*%
%ADD37R,0.9144X0.7112*%
%ADD38O,2.1000X0.3000*%
%ADD39O,0.3000X2.1000*%
%ADD40R,1.4224X0.3556*%
%ADD41R,0.8500X0.6500*%
%ADD42R,0.6500X0.9500*%
%ADD43R,0.8128X2.0066*%
%ADD44C,0.5080*%
%ADD45C,0.2540*%
%ADD46C,0.0000*%
%ADD47R,1.9500X2.0000*%
%ADD48R,0.6500X0.8500*%
%ADD49R,2.0000X1.9500*%
%ADD50R,1.2700X1.2700*%
%ADD51C,1.2700*%
%ADD52C,1.0160*%
%ADD53R,2.7178X2.7178*%
%ADD54R,1.0668X1.0670*%
%ADD55C,1.0670*%
%ADD56R,1.0670X1.0670*%
%ADD57R,2.7178X2.7178*%
%ADD58C,4.2000*%
%ADD59C,0.5000*%
%ADD60C,1.1540*%
%ADD61R,1.0670X1.0670*%
%ADD62C,1.5240*%
%ADD63C,0.9652*%
%ADD64C,0.4540*%
%ADD65C,1.0160*%
%ADD66C,2.0320*%
%ADD67C,1.7780*%
%ADD68C,1.8290*%
%ADD69C,5.2160*%
%ADD70C,1.5160*%
%ADD71C,1.9160*%
G04:AMPARAMS|DCode=72|XSize=2.424mm|YSize=2.424mm|CornerRadius=0mm|HoleSize=0mm|Usage=FLASHONLY|Rotation=0.000|XOffset=0mm|YOffset=0mm|HoleType=Round|Shape=Relief|Width=0.254mm|Gap=0.254mm|Entries=4|*
%AMTHD72*
7,0,0,2.4240,1.9160,0.2540,45*
%
%ADD72THD72*%
G04:AMPARAMS|DCode=73|XSize=2.286mm|YSize=2.286mm|CornerRadius=0mm|HoleSize=0mm|Usage=FLASHONLY|Rotation=0.000|XOffset=0mm|YOffset=0mm|HoleType=Round|Shape=Relief|Width=0.254mm|Gap=0.254mm|Entries=4|*
%AMTHD73*
7,0,0,2.2860,1.7780,0.2540,45*
%
%ADD73THD73*%
%ADD74C,2.6160*%
%ADD75C,1.7272*%
%ADD76C,1.2160*%
G04:AMPARAMS|DCode=77|XSize=2.2352mm|YSize=2.2352mm|CornerRadius=0mm|HoleSize=0mm|Usage=FLASHONLY|Rotation=0.000|XOffset=0mm|YOffset=0mm|HoleType=Round|Shape=Relief|Width=0.254mm|Gap=0.254mm|Entries=4|*
%AMTHD77*
7,0,0,2.2352,1.7272,0.2540,45*
%
%ADD77THD77*%
G04:AMPARAMS|DCode=78|XSize=2.337mm|YSize=2.337mm|CornerRadius=0mm|HoleSize=0mm|Usage=FLASHONLY|Rotation=0.000|XOffset=0mm|YOffset=0mm|HoleType=Round|Shape=Relief|Width=0.254mm|Gap=0.254mm|Entries=4|*
%AMTHD78*
7,0,0,2.3370,1.8290,0.2540,45*
%
%ADD78THD78*%
%ADD79O,1.1000X0.8000*%
%ADD80R,1.1000X0.8000*%
%ADD81R,2.4000X1.2000*%
%ADD82R,1.7000X0.3500*%
%ADD83R,1.1176X1.1000*%
%ADD84R,1.1000X1.1000*%
%ADD85R,1.1176X1.1176*%
%ADD86R,1.1000X1.1176*%
%ADD87R,1.1000X1.1176*%
%ADD88R,1.1000X1.1000*%
%ADD89R,1.1176X1.1000*%
%ADD90R,1.1176X1.1000*%
%ADD91C,0.2500*%
%ADD92C,0.1270*%
%ADD93C,0.1000*%
%ADD94C,0.6000*%
%ADD95C,0.1524*%
%ADD96C,0.2000*%
%ADD97C,0.2032*%
%ADD98C,0.4064*%
%ADD99R,0.7620X0.4572*%
%ADD100R,0.4572X0.7620*%
%ADD101R,1.2192X1.2000*%
%ADD102R,1.2000X1.2000*%
%ADD103R,1.2192X1.2192*%
%ADD104R,1.2000X1.2192*%
%ADD105R,1.2000X1.2192*%
%ADD106R,1.2000X1.2000*%
%ADD107R,1.2192X1.2000*%
%ADD108R,1.2000X1.2000*%
%ADD109R,1.4224X1.0160*%
%ADD110R,0.8532X0.4532*%
%ADD111R,0.3932X0.9532*%
%ADD112R,1.8532X4.6032*%
%ADD113R,1.0160X1.4224*%
%ADD114R,0.5080X1.0160*%
%ADD115R,1.0160X0.5080*%
%ADD116R,0.8532X1.0532*%
%ADD117R,1.1532X0.8532*%
%ADD118R,2.2098X1.0160*%
%ADD119R,0.5588X1.6256*%
%ADD120R,1.4224X2.2098*%
%ADD121R,2.2098X1.4224*%
%ADD122R,1.2192X1.3208*%
%ADD123O,1.2032X0.4532*%
%ADD124O,0.4532X1.2032*%
%ADD125R,2.6532X2.6532*%
%ADD126R,1.0032X1.1032*%
%ADD127R,2.3032X0.9032*%
%ADD128R,0.9144X1.1176*%
%ADD129R,1.0922X0.5080*%
%ADD130R,0.4032X1.1132*%
%ADD131R,0.6532X0.7032*%
%ADD132R,1.0332X0.8332*%
%ADD133R,1.3208X1.2192*%
%ADD134O,1.8532X0.5032*%
%ADD135R,1.5032X2.1032*%
%ADD136R,1.1176X0.9144*%
%ADD137O,2.3032X0.5032*%
%ADD138O,0.5032X2.3032*%
%ADD139R,1.6256X0.5588*%
%ADD140R,1.0532X0.8532*%
%ADD141R,0.8532X1.1532*%
%ADD142R,1.0160X2.2098*%
%ADD143R,2.1532X2.2032*%
%ADD144R,2.2032X2.1532*%
%ADD145R,1.4732X1.4732*%
%ADD146C,1.4732*%
%ADD147C,1.2192*%
%ADD148R,2.9210X2.9210*%
%ADD149R,1.2700X1.2702*%
%ADD150C,1.2702*%
%ADD151R,1.2702X1.2702*%
%ADD152R,2.9210X2.9210*%
%ADD153C,4.4032*%
%ADD154C,0.7032*%
%ADD155C,1.3572*%
%ADD156R,1.2702X1.2702*%
%ADD157C,1.1684*%
%ADD158C,0.6572*%
D75*
X797610Y978660D02*
D03*
Y1060960D02*
D03*
D101*
X1172718Y451470D02*
D03*
D102*
X1186830Y451470D02*
D03*
D103*
X1172718Y465582D02*
D03*
X836422Y404622D02*
D03*
X1313688Y690118D02*
D03*
D104*
X1186830Y465582D02*
D03*
D105*
X822310Y404622D02*
D03*
X1327800Y690118D02*
D03*
D106*
X822310Y390510D02*
D03*
D107*
X836422Y390510D02*
D03*
X1313688Y704230D02*
D03*
D108*
X1327800D02*
D03*
D109*
X1087120Y486520D02*
D03*
Y468376D02*
D03*
X1056640Y576690D02*
D03*
Y558546D02*
D03*
X1080770Y631300D02*
D03*
Y613156D02*
D03*
X1163320Y490110D02*
D03*
Y508254D02*
D03*
X1202690Y509160D02*
D03*
Y527304D02*
D03*
X1231900Y485030D02*
D03*
Y503174D02*
D03*
X1268730Y485250D02*
D03*
Y467106D02*
D03*
X1247140Y434230D02*
D03*
Y452374D02*
D03*
X1268730Y434230D02*
D03*
Y452374D02*
D03*
X1109980Y463440D02*
D03*
Y481584D02*
D03*
X1087120Y418990D02*
D03*
Y437134D02*
D03*
X872490Y495410D02*
D03*
Y477266D02*
D03*
Y435500D02*
D03*
Y453644D02*
D03*
X792480Y423020D02*
D03*
Y404876D02*
D03*
Y391270D02*
D03*
Y373126D02*
D03*
X899160Y392320D02*
D03*
Y410464D02*
D03*
X872490Y532096D02*
D03*
Y513952D02*
D03*
X1357630Y703470D02*
D03*
Y721614D02*
D03*
X1249680Y699880D02*
D03*
Y681736D02*
D03*
X1360170Y671720D02*
D03*
Y689864D02*
D03*
X1277620Y659240D02*
D03*
Y641096D02*
D03*
Y599330D02*
D03*
Y617474D02*
D03*
X570230Y1021190D02*
D03*
Y1003046D02*
D03*
X1043940Y488840D02*
D03*
Y506984D02*
D03*
Y520590D02*
D03*
Y538734D02*
D03*
X951350Y942570D02*
D03*
Y924426D02*
D03*
X999610Y871230D02*
D03*
Y889374D02*
D03*
X886460Y1014840D02*
D03*
Y996696D02*
D03*
X866140Y852280D02*
D03*
Y834136D02*
D03*
X655320Y746870D02*
D03*
Y728726D02*
D03*
X596900Y984140D02*
D03*
Y1002284D02*
D03*
D110*
X1119150Y587730D02*
D03*
Y582730D02*
D03*
Y577730D02*
D03*
Y572730D02*
D03*
Y567730D02*
D03*
Y562730D02*
D03*
Y557730D02*
D03*
Y552730D02*
D03*
X1090650D02*
D03*
Y557730D02*
D03*
Y562730D02*
D03*
Y567730D02*
D03*
Y572730D02*
D03*
Y577730D02*
D03*
Y582730D02*
D03*
Y587730D02*
D03*
D111*
X1116850Y585230D02*
D03*
Y555230D02*
D03*
X1092950D02*
D03*
Y585230D02*
D03*
D112*
X1104900Y570230D02*
D03*
D113*
X1097170Y638810D02*
D03*
X1115314D02*
D03*
X1145650Y608330D02*
D03*
X1127506D02*
D03*
X1090820Y501650D02*
D03*
X1108964D02*
D03*
X1141840D02*
D03*
X1123696D02*
D03*
X1182480Y523240D02*
D03*
X1164336D02*
D03*
X1186070Y421640D02*
D03*
X1204214D02*
D03*
X801260Y514350D02*
D03*
X819404D02*
D03*
X833010D02*
D03*
X851154D02*
D03*
X857360Y488950D02*
D03*
X839216D02*
D03*
X791100D02*
D03*
X809244D02*
D03*
X834280Y467360D02*
D03*
X852424D02*
D03*
X866030Y408940D02*
D03*
X884174D02*
D03*
X855870Y345440D02*
D03*
X874014D02*
D03*
X805070Y346710D02*
D03*
X823214D02*
D03*
X805070Y326390D02*
D03*
X823214D02*
D03*
X856090D02*
D03*
X837946D02*
D03*
X887620Y374650D02*
D03*
X905764D02*
D03*
X1294020Y781050D02*
D03*
X1312164D02*
D03*
X1344930Y779780D02*
D03*
X1326786D02*
D03*
X1346310Y758190D02*
D03*
X1328166D02*
D03*
X1294240Y749300D02*
D03*
X1276096D02*
D03*
X1262490Y720090D02*
D03*
X1244346D02*
D03*
X1285350Y681990D02*
D03*
X1267206D02*
D03*
X1315830Y627380D02*
D03*
X1297686D02*
D03*
X1292750Y604520D02*
D03*
X1310894D02*
D03*
X1357740D02*
D03*
X1339596D02*
D03*
X1154320Y420370D02*
D03*
X1172464D02*
D03*
X998450Y1035170D02*
D03*
X980306D02*
D03*
X900540Y654050D02*
D03*
X882396D02*
D03*
X645270Y963930D02*
D03*
X627126D02*
D03*
D114*
X1189580Y478282D02*
D03*
X1183080D02*
D03*
X1176528D02*
D03*
X1169924D02*
D03*
Y438720D02*
D03*
X1176528D02*
D03*
X1183080D02*
D03*
X1189580D02*
D03*
X839216Y417322D02*
D03*
X832612D02*
D03*
X826060D02*
D03*
X819560D02*
D03*
Y377760D02*
D03*
X826060D02*
D03*
X832612D02*
D03*
X839216D02*
D03*
X1310894Y677418D02*
D03*
X1317498D02*
D03*
X1324050D02*
D03*
X1330550D02*
D03*
Y716980D02*
D03*
X1324050D02*
D03*
X1317498D02*
D03*
X1310894D02*
D03*
D115*
X1160018Y468376D02*
D03*
Y461772D02*
D03*
Y455220D02*
D03*
Y448720D02*
D03*
X1199580D02*
D03*
Y455220D02*
D03*
Y461772D02*
D03*
Y468376D02*
D03*
X849122Y387760D02*
D03*
Y394260D02*
D03*
Y400812D02*
D03*
Y407416D02*
D03*
X809560D02*
D03*
Y400812D02*
D03*
Y394260D02*
D03*
Y387760D02*
D03*
X1300988Y706980D02*
D03*
Y700480D02*
D03*
Y693928D02*
D03*
Y687324D02*
D03*
X1340550D02*
D03*
Y693928D02*
D03*
Y700480D02*
D03*
Y706980D02*
D03*
D116*
X909320Y518550D02*
D03*
D117*
Y484750D02*
D03*
D118*
X866140Y557530D02*
D03*
Y577690D02*
D03*
X944880Y895350D02*
D03*
Y875190D02*
D03*
D119*
X832358Y614220D02*
D03*
X825754D02*
D03*
X838910D02*
D03*
X845410D02*
D03*
Y556514D02*
D03*
X838910D02*
D03*
X832358D02*
D03*
X825754D02*
D03*
D120*
X864110Y608330D02*
D03*
X896112D02*
D03*
D121*
X951230Y554230D02*
D03*
Y586232D02*
D03*
D122*
X942340Y666496D02*
D03*
Y649360D02*
D03*
X935990Y763016D02*
D03*
Y745880D02*
D03*
X1063110Y888866D02*
D03*
Y871730D02*
D03*
X765810Y514740D02*
D03*
Y531876D02*
D03*
X1061720Y804300D02*
D03*
Y821436D02*
D03*
X1042670Y726830D02*
D03*
Y743966D02*
D03*
X792480Y710184D02*
D03*
Y727320D02*
D03*
D123*
X1070410Y953690D02*
D03*
Y948690D02*
D03*
Y943690D02*
D03*
Y938690D02*
D03*
Y933690D02*
D03*
Y928690D02*
D03*
X1030410D02*
D03*
Y933690D02*
D03*
Y938690D02*
D03*
Y943690D02*
D03*
Y948690D02*
D03*
Y953690D02*
D03*
D124*
X1062910Y921190D02*
D03*
X1057910D02*
D03*
X1052910D02*
D03*
X1047910D02*
D03*
X1042910D02*
D03*
X1037910D02*
D03*
Y961190D02*
D03*
X1042910D02*
D03*
X1047910D02*
D03*
X1052910D02*
D03*
X1057910D02*
D03*
X1062910D02*
D03*
D125*
X1050410Y941190D02*
D03*
D126*
X966470Y803750D02*
D03*
X956970Y783750D02*
D03*
X975970D02*
D03*
X888340Y710090D02*
D03*
X869340D02*
D03*
X878840Y730090D02*
D03*
X670560Y559910D02*
D03*
X661060Y539910D02*
D03*
X680060D02*
D03*
D127*
X1040130Y810090D02*
D03*
Y820590D02*
D03*
X867410Y952670D02*
D03*
Y942170D02*
D03*
X749300Y621200D02*
D03*
Y610700D02*
D03*
X867410Y927270D02*
D03*
Y916770D02*
D03*
X749300Y645330D02*
D03*
Y634830D02*
D03*
X913130Y745320D02*
D03*
Y755820D02*
D03*
X788670Y758360D02*
D03*
Y747860D02*
D03*
D128*
X1122426Y981710D02*
D03*
X1135530D02*
D03*
X1244346Y948690D02*
D03*
X1257450D02*
D03*
X1119886Y916940D02*
D03*
X1132990D02*
D03*
D129*
X909447Y680720D02*
D03*
X868426D02*
D03*
X909447Y670720D02*
D03*
Y685800D02*
D03*
Y690880D02*
D03*
Y675720D02*
D03*
X868426Y690880D02*
D03*
Y670720D02*
D03*
Y675720D02*
D03*
Y685800D02*
D03*
X666496Y518160D02*
D03*
Y508080D02*
D03*
Y503080D02*
D03*
Y523240D02*
D03*
X707517Y508080D02*
D03*
Y523240D02*
D03*
Y518160D02*
D03*
Y503080D02*
D03*
X666496Y513080D02*
D03*
X707517D02*
D03*
X962406Y765810D02*
D03*
Y755730D02*
D03*
Y750730D02*
D03*
Y770890D02*
D03*
X1003427Y755730D02*
D03*
Y770890D02*
D03*
Y765810D02*
D03*
Y750730D02*
D03*
X962406Y760730D02*
D03*
X1003427D02*
D03*
D130*
X919480Y835660D02*
D03*
X941190Y1002150D02*
D03*
X909320Y858520D02*
D03*
X905510Y986790D02*
D03*
D131*
X923420Y831910D02*
D03*
Y839410D02*
D03*
X915650Y835660D02*
D03*
X945130Y998400D02*
D03*
Y1005900D02*
D03*
X937360Y1002150D02*
D03*
X913260Y854770D02*
D03*
Y862270D02*
D03*
X905490Y858520D02*
D03*
X901570Y990540D02*
D03*
Y983040D02*
D03*
X909340Y986790D02*
D03*
D132*
X958850Y837920D02*
D03*
Y815620D02*
D03*
X932180Y962380D02*
D03*
Y940080D02*
D03*
D133*
X1209294Y989330D02*
D03*
X1226430D02*
D03*
X1226686Y948810D02*
D03*
X1209550D02*
D03*
X1226686Y913250D02*
D03*
X1209550D02*
D03*
X1209414Y877690D02*
D03*
X1226550D02*
D03*
X1152144Y927100D02*
D03*
X1169280D02*
D03*
X1226686Y971670D02*
D03*
X1209550D02*
D03*
X1209414Y852290D02*
D03*
X1226550D02*
D03*
X748420Y497840D02*
D03*
X765556D02*
D03*
X714130Y560070D02*
D03*
X731266D02*
D03*
D134*
X724330Y646150D02*
D03*
Y641150D02*
D03*
Y636150D02*
D03*
Y631150D02*
D03*
Y626150D02*
D03*
Y621150D02*
D03*
Y616150D02*
D03*
Y611150D02*
D03*
X682830Y646150D02*
D03*
Y641150D02*
D03*
Y636150D02*
D03*
Y631150D02*
D03*
Y626150D02*
D03*
Y621150D02*
D03*
Y616150D02*
D03*
Y611150D02*
D03*
X841170Y952220D02*
D03*
Y947220D02*
D03*
Y942220D02*
D03*
Y937220D02*
D03*
Y932220D02*
D03*
Y927220D02*
D03*
Y922220D02*
D03*
Y917220D02*
D03*
X799670Y952220D02*
D03*
Y947220D02*
D03*
Y942220D02*
D03*
Y937220D02*
D03*
Y932220D02*
D03*
Y927220D02*
D03*
Y922220D02*
D03*
Y917220D02*
D03*
X756080Y757910D02*
D03*
Y752910D02*
D03*
Y747910D02*
D03*
Y742910D02*
D03*
Y737910D02*
D03*
Y732910D02*
D03*
Y727910D02*
D03*
Y722910D02*
D03*
X714580Y757910D02*
D03*
Y752910D02*
D03*
Y747910D02*
D03*
Y742910D02*
D03*
Y737910D02*
D03*
Y732910D02*
D03*
Y727910D02*
D03*
Y722910D02*
D03*
D135*
X547810Y1143760D02*
D03*
X602810D02*
D03*
X547810Y1111760D02*
D03*
X602810D02*
D03*
D136*
X610870Y1079650D02*
D03*
Y1066546D02*
D03*
X580390Y1079350D02*
D03*
Y1092454D02*
D03*
D137*
X646070Y1047310D02*
D03*
Y1042310D02*
D03*
Y1037310D02*
D03*
Y1032310D02*
D03*
Y1027310D02*
D03*
Y1022310D02*
D03*
Y1017310D02*
D03*
Y1012310D02*
D03*
Y1007310D02*
D03*
Y1002310D02*
D03*
Y997310D02*
D03*
Y992310D02*
D03*
X728070D02*
D03*
Y997310D02*
D03*
Y1002310D02*
D03*
Y1007310D02*
D03*
Y1012310D02*
D03*
Y1017310D02*
D03*
Y1022310D02*
D03*
Y1027310D02*
D03*
Y1032310D02*
D03*
Y1037310D02*
D03*
Y1042310D02*
D03*
Y1047310D02*
D03*
D138*
X659570Y978810D02*
D03*
X664570D02*
D03*
X669570D02*
D03*
X674570D02*
D03*
X679570D02*
D03*
X684570D02*
D03*
X689570D02*
D03*
X694570D02*
D03*
X699570D02*
D03*
X704570D02*
D03*
X709570D02*
D03*
X714570D02*
D03*
Y1060810D02*
D03*
X709570D02*
D03*
X704570D02*
D03*
X699570D02*
D03*
X694570D02*
D03*
X689570D02*
D03*
X684570D02*
D03*
X679570D02*
D03*
X674570D02*
D03*
X669570D02*
D03*
X664570D02*
D03*
X659570D02*
D03*
D139*
X949150Y521208D02*
D03*
Y514604D02*
D03*
Y527760D02*
D03*
Y534260D02*
D03*
X1006856D02*
D03*
Y527760D02*
D03*
Y521208D02*
D03*
Y514604D02*
D03*
D140*
X1027040Y596900D02*
D03*
D141*
X1060840D02*
D03*
D142*
X998220Y554990D02*
D03*
X978060D02*
D03*
D143*
X909315Y497995D02*
D03*
D144*
X1047590Y596894D02*
D03*
D145*
X1358900Y1113790D02*
D03*
D146*
Y1088390D02*
D03*
X1333500Y1113790D02*
D03*
Y1088390D02*
D03*
D147*
X910590Y1014730D02*
D03*
X820420Y447040D02*
D03*
X748030Y520700D02*
D03*
X1330960Y646430D02*
D03*
X1155700Y892810D02*
D03*
X1228090Y596900D02*
D03*
X925830Y706120D02*
D03*
X1088390Y1024890D02*
D03*
X1234440Y647700D02*
D03*
X969010Y720090D02*
D03*
X1139190Y963930D02*
D03*
X1043940Y646430D02*
D03*
X1250950Y847090D02*
D03*
X848360Y693420D02*
D03*
X1078110Y857370D02*
D03*
X887730Y858520D02*
D03*
X1225550Y930910D02*
D03*
X1089660Y669290D02*
D03*
X1014730Y820420D02*
D03*
X889000Y825500D02*
D03*
X1229360Y797560D02*
D03*
X1037710Y842010D02*
D03*
X1104900Y529590D02*
D03*
X687070Y496570D02*
D03*
X753110Y562610D02*
D03*
D148*
X1179830Y458470D02*
D03*
X711200Y453390D02*
D03*
D149*
X1115060Y382270D02*
D03*
D150*
X1135060D02*
D03*
X1155060D02*
D03*
X1175060D02*
D03*
X1195060D02*
D03*
X1135060Y362270D02*
D03*
X1155060D02*
D03*
X1175060D02*
D03*
X1195060D02*
D03*
X1115060D02*
D03*
X665160Y382270D02*
D03*
X685160D02*
D03*
X705160D02*
D03*
X725160D02*
D03*
X665160Y362270D02*
D03*
X685160D02*
D03*
X705160D02*
D03*
X725160D02*
D03*
X645160D02*
D03*
X624840Y569280D02*
D03*
Y549280D02*
D03*
Y529280D02*
D03*
Y509280D02*
D03*
X604840Y569280D02*
D03*
Y549280D02*
D03*
Y529280D02*
D03*
Y509280D02*
D03*
Y589280D02*
D03*
X1299210Y439100D02*
D03*
Y459100D02*
D03*
Y479100D02*
D03*
Y499100D02*
D03*
X1319210Y439100D02*
D03*
Y459100D02*
D03*
Y479100D02*
D03*
Y499100D02*
D03*
Y419100D02*
D03*
X1300480Y858200D02*
D03*
Y878200D02*
D03*
Y898200D02*
D03*
Y918200D02*
D03*
X1320480Y858200D02*
D03*
Y878200D02*
D03*
Y898200D02*
D03*
Y918200D02*
D03*
Y838200D02*
D03*
X624840Y885510D02*
D03*
Y865510D02*
D03*
Y845510D02*
D03*
Y825510D02*
D03*
X604840Y885510D02*
D03*
Y865510D02*
D03*
Y845510D02*
D03*
Y825510D02*
D03*
Y905510D02*
D03*
D151*
X645160Y382270D02*
D03*
D152*
X829310Y397510D02*
D03*
X1320800Y697230D02*
D03*
X1008380Y383540D02*
D03*
D153*
X1324610Y1180490D02*
D03*
X562610Y323190D02*
D03*
X1362710D02*
D03*
X588010Y1180490D02*
D03*
D154*
X1273810Y1104290D02*
D03*
Y1155090D02*
D03*
D155*
Y1180490D02*
D03*
Y1155090D02*
D03*
X1248410D02*
D03*
X1223010D02*
D03*
X1197610D02*
D03*
X1172210D02*
D03*
X1146810D02*
D03*
X1121410D02*
D03*
X1096010D02*
D03*
X1070610D02*
D03*
X1045210D02*
D03*
X1019810D02*
D03*
X994410D02*
D03*
X969010D02*
D03*
X943610D02*
D03*
X918210D02*
D03*
X892810D02*
D03*
X867410D02*
D03*
X842010D02*
D03*
X816610D02*
D03*
X791210D02*
D03*
X765810D02*
D03*
X740410D02*
D03*
X715010D02*
D03*
X689610D02*
D03*
X664210D02*
D03*
X638810D02*
D03*
X1248410Y1180490D02*
D03*
X1223010D02*
D03*
X1197610D02*
D03*
X1172210D02*
D03*
X1146810D02*
D03*
X1121410D02*
D03*
X1096010D02*
D03*
X1070610D02*
D03*
X1045210D02*
D03*
X1019810D02*
D03*
X994410D02*
D03*
X969010D02*
D03*
X943610D02*
D03*
X918210D02*
D03*
X892810D02*
D03*
X867410D02*
D03*
X842010D02*
D03*
X816610D02*
D03*
X791210D02*
D03*
X765810D02*
D03*
X740410D02*
D03*
X715010D02*
D03*
X689610D02*
D03*
X664210D02*
D03*
X638810D02*
D03*
X1273810Y1129690D02*
D03*
Y1104290D02*
D03*
X1248410D02*
D03*
X1223010D02*
D03*
X1197610D02*
D03*
X1172210D02*
D03*
X1146810D02*
D03*
X1121410D02*
D03*
X1096010D02*
D03*
X1070610D02*
D03*
X1045210D02*
D03*
X1019810D02*
D03*
X994410D02*
D03*
X969010D02*
D03*
X943610D02*
D03*
X918210D02*
D03*
X892810D02*
D03*
X867410D02*
D03*
X842010D02*
D03*
X816610D02*
D03*
X791210D02*
D03*
X765810D02*
D03*
X740410D02*
D03*
X715010D02*
D03*
X689610D02*
D03*
X664210D02*
D03*
X638810D02*
D03*
X1248410Y1129690D02*
D03*
X1223010D02*
D03*
X1197610D02*
D03*
X1172210D02*
D03*
X1146810D02*
D03*
X1121410D02*
D03*
X1096010D02*
D03*
X1070610D02*
D03*
X1045210D02*
D03*
X1019810D02*
D03*
X994410D02*
D03*
X969010D02*
D03*
X943610D02*
D03*
X918210D02*
D03*
X892810D02*
D03*
X867410D02*
D03*
X842010D02*
D03*
X816610D02*
D03*
X791210D02*
D03*
X765810D02*
D03*
X740410D02*
D03*
X715010D02*
D03*
X689610D02*
D03*
X664210D02*
D03*
X638810D02*
D03*
D156*
X624840Y589280D02*
D03*
X1299210Y419100D02*
D03*
X1300480Y838200D02*
D03*
X624840Y905510D02*
D03*
D157*
X1140420Y627690D02*
D03*
X1134110Y890270D02*
D03*
X1164590Y948690D02*
D03*
X1115060Y608330D02*
D03*
X633730Y467360D02*
D03*
X939800Y411480D02*
D03*
X741680Y433070D02*
D03*
X1283490Y811530D02*
D03*
X623570Y1045210D02*
D03*
X665480Y422910D02*
D03*
X660400Y444500D02*
D03*
X704850Y1080770D02*
D03*
X1252220Y662940D02*
D03*
X1137680Y741790D02*
D03*
X1141690Y724210D02*
D03*
X1132800Y759770D02*
D03*
X734060Y680720D02*
D03*
Y774700D02*
D03*
X768350Y591820D02*
D03*
X749300Y542290D02*
D03*
X765810Y775970D02*
D03*
X784860Y786130D02*
D03*
X735330Y577850D02*
D03*
X650240Y497840D02*
D03*
Y514350D02*
D03*
X1121410Y998220D02*
D03*
X984885Y751205D02*
D03*
X989330Y731520D02*
D03*
X1010920D02*
D03*
X843280Y886460D02*
D03*
X703580Y575310D02*
D03*
X694690Y787400D02*
D03*
X1254760Y969210D02*
D03*
X1186180Y853440D02*
D03*
X1187450Y868680D02*
D03*
X850900Y666750D02*
D03*
X866140Y654050D02*
D03*
X1229360Y817880D02*
D03*
X1217930Y674370D02*
D03*
X763270Y670560D02*
D03*
X782320Y664210D02*
D03*
X803910D02*
D03*
X927735Y615315D02*
D03*
X976630Y857250D02*
D03*
Y839470D02*
D03*
X1074420Y530860D02*
D03*
X890270Y901700D02*
D03*
X866140Y891540D02*
D03*
X670560Y659130D02*
D03*
X661670Y637540D02*
D03*
X941070Y447040D02*
D03*
X828040Y741680D02*
D03*
X889000Y509270D02*
D03*
X891540Y546100D02*
D03*
X789940Y622300D02*
D03*
X1276350Y782320D02*
D03*
X1216660Y440690D02*
D03*
X1234440Y464820D02*
D03*
X796290Y1012190D02*
D03*
X773430Y1003300D02*
D03*
X814070Y728980D02*
D03*
X791210Y1031240D02*
D03*
X1325880Y740410D02*
D03*
X764540Y1042670D02*
D03*
X1342390Y728980D02*
D03*
X1062990Y623570D02*
D03*
X1098550Y1057750D02*
D03*
X1172210Y909320D02*
D03*
X1348740Y576580D02*
D03*
X1275080Y506730D02*
D03*
X1281430Y535940D02*
D03*
X1291590Y566420D02*
D03*
X1366520Y589280D02*
D03*
X1214120Y496570D02*
D03*
X1211580Y608330D02*
D03*
X1173440Y648010D02*
D03*
X806450Y551180D02*
D03*
X838200Y535940D02*
D03*
X825500Y598170D02*
D03*
X824230Y490220D02*
D03*
X792480Y528320D02*
D03*
X746760Y455930D02*
D03*
X900430Y840740D02*
D03*
X915670Y908050D02*
D03*
X908050Y958850D02*
D03*
X918210Y1036320D02*
D03*
X962660D02*
D03*
X966470Y361950D02*
D03*
X985520Y360680D02*
D03*
X1002030Y419100D02*
D03*
X1037590Y436880D02*
D03*
X967740Y485140D02*
D03*
Y519430D02*
D03*
X1038860Y557530D02*
D03*
X1028700Y523240D02*
D03*
X1011936Y557530D02*
D03*
X1000760Y502920D02*
D03*
X1014920Y459740D02*
D03*
X1325880Y604520D02*
D03*
X1348740Y655320D02*
D03*
X798830Y438150D02*
D03*
X1087120Y452247D02*
D03*
X1137920Y427990D02*
D03*
X1218040Y471170D02*
D03*
X1146810Y461010D02*
D03*
X1317498Y663702D02*
D03*
X1230630Y546100D02*
D03*
X1277620Y726440D02*
D03*
X1177290Y585470D02*
D03*
Y560070D02*
D03*
X1309370Y734060D02*
D03*
X852170Y363220D02*
D03*
X868680Y364490D02*
D03*
X832612Y431292D02*
D03*
X676910Y463550D02*
D03*
X1040130Y781050D02*
D03*
X1062990Y1028700D02*
D03*
X1146770Y648010D02*
D03*
X1206330Y691190D02*
D03*
X1106130Y692460D02*
D03*
X1244560Y750880D02*
D03*
X1188680Y714050D02*
D03*
X1198840Y775010D02*
D03*
X1170900Y749610D02*
D03*
X1084540Y810570D02*
D03*
X830540Y714050D02*
D03*
X938410Y839350D02*
D03*
X942340Y721360D02*
D03*
X1017390Y905630D02*
D03*
X923410Y986910D02*
D03*
X981830Y936110D02*
D03*
X933570Y925950D02*
D03*
X984370Y953890D02*
D03*
X986910Y974210D02*
D03*
X1040250Y1017390D02*
D03*
X951350Y958970D02*
D03*
X994530Y1002150D02*
D03*
X1103750Y956430D02*
D03*
X1124070Y948810D02*
D03*
X1103630Y918210D02*
D03*
X1019570Y703970D02*
D03*
X915670Y721360D02*
D03*
X1126450Y791520D02*
D03*
X1256150Y931030D02*
D03*
X1008380Y783590D02*
D03*
X988060Y707390D02*
D03*
X1018500Y744530D02*
D03*
X1228090Y1013460D02*
D03*
X1196340Y1008380D02*
D03*
X1202380Y823270D02*
D03*
X1083310Y830580D02*
D03*
X1164590Y808030D02*
D03*
X1016000Y1047750D02*
D03*
X1151890Y585470D02*
D03*
X941070Y1022350D02*
D03*
X701040Y547370D02*
D03*
X681990Y478790D02*
D03*
X595630Y1079350D02*
D03*
X745490Y882650D02*
D03*
X773450Y894060D02*
D03*
X723900Y894080D02*
D03*
X705104Y913130D02*
D03*
X726440Y919480D02*
D03*
X619760Y980440D02*
D03*
X802640Y905510D02*
D03*
X656790Y616150D02*
D03*
X745490Y866140D02*
D03*
X755650Y840740D02*
D03*
X740410Y811530D02*
D03*
X742950Y830580D02*
D03*
X729216Y801171D02*
D03*
X713740Y774700D02*
D03*
X586740Y974090D02*
D03*
X755650Y906780D02*
D03*
X855980Y970280D02*
D03*
X693420Y739140D02*
D03*
X771990Y634830D02*
D03*
X791210Y594360D02*
D03*
X779780Y953770D02*
D03*
X673100Y1017270D02*
D03*
X687070Y1032510D02*
D03*
X678180Y1080770D02*
D03*
X758190Y1079500D02*
D03*
X814070Y751840D02*
D03*
D158*
X1077340Y734790D02*
D03*
X1066340D02*
D03*
Y723790D02*
D03*
X1077340D02*
D03*
X1044910Y946690D02*
D03*
Y935690D02*
D03*
X1055910D02*
D03*
Y946690D02*
D03*
M02*
