%FSLAX44Y44*%
%MOMM*%
G71*
G01*
G75*
G04 Layer_Color=16711935*
%ADD10R,1.2192X0.8128*%
%ADD11R,0.6500X0.2500*%
%ADD12R,0.1900X0.7500*%
%ADD13R,1.6500X4.4000*%
%ADD14R,0.8128X1.2192*%
%ADD15R,0.3048X0.8128*%
%ADD16R,0.8128X0.3048*%
%ADD17R,0.6500X0.8500*%
%ADD18R,0.9500X0.6500*%
%ADD19R,2.0066X0.8128*%
%ADD20R,0.3556X1.4224*%
%ADD21R,1.2192X2.0066*%
%ADD22R,2.0066X1.2192*%
%ADD23R,1.0160X1.1176*%
%ADD24O,1.0000X0.2500*%
%ADD25O,0.2500X1.0000*%
%ADD26R,2.4500X2.4500*%
%ADD27R,0.8000X0.9000*%
%ADD28R,2.1000X0.7000*%
%ADD29R,0.7112X0.9144*%
%ADD30R,0.8890X0.3048*%
%ADD31R,0.2000X0.9100*%
%ADD32R,0.4500X0.5000*%
%ADD33R,0.8300X0.6300*%
%ADD34R,1.1176X1.0160*%
%ADD35O,1.6500X0.3000*%
%ADD36R,1.3000X1.9000*%
%ADD37R,0.9144X0.7112*%
%ADD38O,2.1000X0.3000*%
%ADD39O,0.3000X2.1000*%
%ADD40R,1.4224X0.3556*%
%ADD41R,0.8500X0.6500*%
%ADD42R,0.6500X0.9500*%
%ADD43R,0.8128X2.0066*%
%ADD44C,0.5080*%
%ADD45C,0.2540*%
%ADD46C,0.0000*%
%ADD47R,1.9500X2.0000*%
%ADD48R,0.6500X0.8500*%
%ADD49R,2.0000X1.9500*%
%ADD50R,1.2700X1.2700*%
%ADD51C,1.2700*%
%ADD52C,1.0160*%
%ADD53R,2.7178X2.7178*%
%ADD54R,1.0668X1.0670*%
%ADD55C,1.0670*%
%ADD56R,1.0670X1.0670*%
%ADD57R,2.7178X2.7178*%
%ADD58C,4.2000*%
%ADD59C,0.5000*%
%ADD60C,1.1540*%
%ADD61R,1.0670X1.0670*%
%ADD62C,1.5240*%
%ADD63C,0.9652*%
%ADD64C,0.4540*%
%ADD65C,1.0160*%
%ADD66C,2.0320*%
%ADD67C,1.7780*%
%ADD68C,1.8290*%
%ADD69C,5.2160*%
%ADD70C,1.5160*%
%ADD71C,1.9160*%
G04:AMPARAMS|DCode=72|XSize=2.424mm|YSize=2.424mm|CornerRadius=0mm|HoleSize=0mm|Usage=FLASHONLY|Rotation=0.000|XOffset=0mm|YOffset=0mm|HoleType=Round|Shape=Relief|Width=0.254mm|Gap=0.254mm|Entries=4|*
%AMTHD72*
7,0,0,2.4240,1.9160,0.2540,45*
%
%ADD72THD72*%
G04:AMPARAMS|DCode=73|XSize=2.286mm|YSize=2.286mm|CornerRadius=0mm|HoleSize=0mm|Usage=FLASHONLY|Rotation=0.000|XOffset=0mm|YOffset=0mm|HoleType=Round|Shape=Relief|Width=0.254mm|Gap=0.254mm|Entries=4|*
%AMTHD73*
7,0,0,2.2860,1.7780,0.2540,45*
%
%ADD73THD73*%
%ADD74C,2.6160*%
%ADD75C,1.7272*%
%ADD76C,1.2160*%
G04:AMPARAMS|DCode=77|XSize=2.2352mm|YSize=2.2352mm|CornerRadius=0mm|HoleSize=0mm|Usage=FLASHONLY|Rotation=0.000|XOffset=0mm|YOffset=0mm|HoleType=Round|Shape=Relief|Width=0.254mm|Gap=0.254mm|Entries=4|*
%AMTHD77*
7,0,0,2.2352,1.7272,0.2540,45*
%
%ADD77THD77*%
G04:AMPARAMS|DCode=78|XSize=2.337mm|YSize=2.337mm|CornerRadius=0mm|HoleSize=0mm|Usage=FLASHONLY|Rotation=0.000|XOffset=0mm|YOffset=0mm|HoleType=Round|Shape=Relief|Width=0.254mm|Gap=0.254mm|Entries=4|*
%AMTHD78*
7,0,0,2.3370,1.8290,0.2540,45*
%
%ADD78THD78*%
%ADD79O,1.1000X0.8000*%
%ADD80R,1.1000X0.8000*%
%ADD81R,2.4000X1.2000*%
%ADD82R,1.7000X0.3500*%
%ADD83R,1.1176X1.1000*%
%ADD84R,1.1000X1.1000*%
%ADD85R,1.1176X1.1176*%
%ADD86R,1.1000X1.1176*%
%ADD87R,1.1000X1.1176*%
%ADD88R,1.1000X1.1000*%
%ADD89R,1.1176X1.1000*%
%ADD90R,1.1176X1.1000*%
%ADD91C,0.2500*%
%ADD92C,0.1270*%
%ADD93C,0.1000*%
%ADD94C,0.6000*%
%ADD95C,0.1524*%
%ADD96C,0.2000*%
%ADD97C,0.2032*%
%ADD98C,0.4064*%
%ADD99R,0.7620X0.4572*%
%ADD100R,0.4572X0.7620*%
%ADD101R,1.2192X1.2000*%
%ADD102R,1.2000X1.2000*%
%ADD103R,1.2192X1.2192*%
%ADD104R,1.2000X1.2192*%
%ADD105R,1.2000X1.2192*%
%ADD106R,1.2000X1.2000*%
%ADD107R,1.2192X1.2000*%
%ADD108R,1.2000X1.2000*%
%ADD109R,1.4224X1.0160*%
%ADD110R,0.8532X0.4532*%
%ADD111R,0.3932X0.9532*%
%ADD112R,1.8532X4.6032*%
%ADD113R,1.0160X1.4224*%
%ADD114R,0.5080X1.0160*%
%ADD115R,1.0160X0.5080*%
%ADD116R,0.8532X1.0532*%
%ADD117R,1.1532X0.8532*%
%ADD118R,2.2098X1.0160*%
%ADD119R,0.5588X1.6256*%
%ADD120R,1.4224X2.2098*%
%ADD121R,2.2098X1.4224*%
%ADD122R,1.2192X1.3208*%
%ADD123O,1.2032X0.4532*%
%ADD124O,0.4532X1.2032*%
%ADD125R,2.6532X2.6532*%
%ADD126R,1.0032X1.1032*%
%ADD127R,2.3032X0.9032*%
%ADD128R,0.9144X1.1176*%
%ADD129R,1.0922X0.5080*%
%ADD130R,0.4032X1.1132*%
%ADD131R,0.6532X0.7032*%
%ADD132R,1.0332X0.8332*%
%ADD133R,1.3208X1.2192*%
%ADD134O,1.8532X0.5032*%
%ADD135R,1.5032X2.1032*%
%ADD136R,1.1176X0.9144*%
%ADD137O,2.3032X0.5032*%
%ADD138O,0.5032X2.3032*%
%ADD139R,1.6256X0.5588*%
%ADD140R,1.0532X0.8532*%
%ADD141R,0.8532X1.1532*%
%ADD142R,1.0160X2.2098*%
%ADD143R,2.1532X2.2032*%
%ADD144R,2.2032X2.1532*%
%ADD145R,1.4732X1.4732*%
%ADD146C,1.4732*%
%ADD147C,1.2192*%
%ADD148R,2.9210X2.9210*%
%ADD149R,1.2700X1.2702*%
%ADD150C,1.2702*%
%ADD151R,1.2702X1.2702*%
%ADD152R,2.9210X2.9210*%
%ADD153C,4.4032*%
%ADD154C,0.7032*%
%ADD155C,1.3572*%
%ADD156R,1.2702X1.2702*%
%ADD157C,1.1684*%
%ADD158C,0.6572*%
%ADD159O,1.3032X1.0032*%
%ADD160R,1.3032X1.0032*%
%ADD161R,2.6032X1.4032*%
%ADD162R,1.9032X0.5532*%
D75*
X797610Y978660D02*
D03*
Y1060960D02*
D03*
D101*
X718312Y446390D02*
D03*
D102*
X704200Y446390D02*
D03*
D103*
X718312Y460502D02*
D03*
X1001268Y390652D02*
D03*
D104*
X704200Y460502D02*
D03*
D105*
X1015380Y390652D02*
D03*
D106*
X1015380Y376540D02*
D03*
D107*
X1001268Y376540D02*
D03*
D109*
X965200Y466200D02*
D03*
Y448056D02*
D03*
X966470Y406290D02*
D03*
Y424434D02*
D03*
X816610Y506620D02*
D03*
Y524764D02*
D03*
X1249680Y548750D02*
D03*
Y530606D02*
D03*
Y580500D02*
D03*
Y562356D02*
D03*
X821690Y539640D02*
D03*
Y557784D02*
D03*
X687070Y514240D02*
D03*
Y532384D02*
D03*
X792480Y495190D02*
D03*
Y513334D02*
D03*
X614680Y429150D02*
D03*
Y447294D02*
D03*
Y480170D02*
D03*
Y462026D02*
D03*
X635000Y429150D02*
D03*
Y447294D02*
D03*
X660400Y462170D02*
D03*
Y480314D02*
D03*
X721360Y490110D02*
D03*
Y508254D02*
D03*
X762000Y459630D02*
D03*
Y477774D02*
D03*
X789940Y561450D02*
D03*
Y543306D02*
D03*
X1045210Y377300D02*
D03*
Y359156D02*
D03*
X937260Y379620D02*
D03*
Y397764D02*
D03*
X1045210Y409050D02*
D03*
Y390906D02*
D03*
X1170900Y730670D02*
D03*
Y712526D02*
D03*
X1122640Y659330D02*
D03*
Y677474D02*
D03*
X1251980Y808220D02*
D03*
Y790076D02*
D03*
X1250950Y626220D02*
D03*
Y608076D02*
D03*
D113*
X969120Y501650D02*
D03*
X950976D02*
D03*
X1004680Y483870D02*
D03*
X986536D02*
D03*
X980330Y459740D02*
D03*
X998474D02*
D03*
X1004680Y436880D02*
D03*
X986536D02*
D03*
X1230520Y511810D02*
D03*
X1248664D02*
D03*
X1123800Y823270D02*
D03*
X1141944D02*
D03*
X703690Y417830D02*
D03*
X685546D02*
D03*
X834500Y577850D02*
D03*
X816356D02*
D03*
X707280Y527050D02*
D03*
X725424D02*
D03*
X736710Y417830D02*
D03*
X718566D02*
D03*
X739030Y496570D02*
D03*
X757174D02*
D03*
X800210Y577850D02*
D03*
X782066D02*
D03*
X1033890Y340360D02*
D03*
X1015746D02*
D03*
X983090Y342900D02*
D03*
X964946D02*
D03*
X982870Y325120D02*
D03*
X1001014D02*
D03*
X1036430Y483870D02*
D03*
X1018286D02*
D03*
X1032620Y322580D02*
D03*
X1014476D02*
D03*
X972930Y391160D02*
D03*
X954786D02*
D03*
X950070Y360680D02*
D03*
X931926D02*
D03*
X1047860Y459740D02*
D03*
X1029716D02*
D03*
X666640Y838200D02*
D03*
X684784D02*
D03*
X821800Y848360D02*
D03*
X803656D02*
D03*
X731410Y972820D02*
D03*
X749554D02*
D03*
X731410Y949960D02*
D03*
X749554D02*
D03*
X821800Y866140D02*
D03*
X803656D02*
D03*
X821800Y811530D02*
D03*
X803656D02*
D03*
X821800Y829310D02*
D03*
X803656D02*
D03*
X821800Y792480D02*
D03*
X803656D02*
D03*
X821800Y774700D02*
D03*
X803656D02*
D03*
X666640Y875030D02*
D03*
X684784D02*
D03*
X666640Y855980D02*
D03*
X684784D02*
D03*
X666640Y820420D02*
D03*
X684784D02*
D03*
X665370Y775970D02*
D03*
X683514D02*
D03*
X666640Y892810D02*
D03*
X684784D02*
D03*
D114*
X701450Y473202D02*
D03*
X707950D02*
D03*
X714502D02*
D03*
X721106D02*
D03*
Y433640D02*
D03*
X714502D02*
D03*
X707950D02*
D03*
X701450D02*
D03*
X998474Y403352D02*
D03*
X1005078D02*
D03*
X1011630D02*
D03*
X1018130D02*
D03*
Y363790D02*
D03*
X1011630D02*
D03*
X1005078D02*
D03*
X998474D02*
D03*
D115*
X731012Y463296D02*
D03*
Y456692D02*
D03*
Y450140D02*
D03*
Y443640D02*
D03*
X691450D02*
D03*
Y450140D02*
D03*
Y456692D02*
D03*
Y463296D02*
D03*
X988568Y373790D02*
D03*
Y380290D02*
D03*
Y386842D02*
D03*
Y393446D02*
D03*
X1028130D02*
D03*
Y386842D02*
D03*
Y380290D02*
D03*
Y373790D02*
D03*
D116*
X916940Y469020D02*
D03*
D117*
Y435220D02*
D03*
D118*
X971550Y533400D02*
D03*
Y553560D02*
D03*
X1181100Y683260D02*
D03*
Y663100D02*
D03*
D119*
X1005332Y585010D02*
D03*
X1011936D02*
D03*
X998780D02*
D03*
X992280D02*
D03*
Y527304D02*
D03*
X998780D02*
D03*
X1005332D02*
D03*
X1011936D02*
D03*
D120*
X974850Y576580D02*
D03*
X942848D02*
D03*
D121*
X1150620Y525270D02*
D03*
Y493268D02*
D03*
X908050Y569470D02*
D03*
Y601472D02*
D03*
D122*
X1059140Y659830D02*
D03*
Y676966D02*
D03*
X1197610Y972686D02*
D03*
Y955550D02*
D03*
X1174750Y1042536D02*
D03*
Y1025400D02*
D03*
X1120140Y929386D02*
D03*
Y912250D02*
D03*
X1132840Y872236D02*
D03*
Y855100D02*
D03*
X1064260Y970670D02*
D03*
Y987806D02*
D03*
X1038860Y1046870D02*
D03*
Y1064006D02*
D03*
D123*
X1091840Y741790D02*
D03*
Y736790D02*
D03*
Y731790D02*
D03*
Y726790D02*
D03*
Y721790D02*
D03*
Y716790D02*
D03*
X1051840D02*
D03*
Y721790D02*
D03*
Y726790D02*
D03*
Y731790D02*
D03*
Y736790D02*
D03*
Y741790D02*
D03*
D124*
X1059340Y749290D02*
D03*
X1064340D02*
D03*
X1069340D02*
D03*
X1074340D02*
D03*
X1079340D02*
D03*
X1084340D02*
D03*
Y709290D02*
D03*
X1079340D02*
D03*
X1074340D02*
D03*
X1069340D02*
D03*
X1064340D02*
D03*
X1059340D02*
D03*
D125*
X1071840Y729290D02*
D03*
D126*
X1191920Y901860D02*
D03*
X1210920D02*
D03*
X1201420Y921860D02*
D03*
X1123950Y1057750D02*
D03*
X1133450Y1037750D02*
D03*
X1114450D02*
D03*
X1259230Y1001040D02*
D03*
X1278230D02*
D03*
X1268730Y1021040D02*
D03*
D127*
X1143000Y916770D02*
D03*
Y927270D02*
D03*
X1062990Y1052660D02*
D03*
Y1063160D02*
D03*
X1197610Y1029800D02*
D03*
Y1040300D02*
D03*
D128*
X976240Y771280D02*
D03*
X989344D02*
D03*
X864680Y736910D02*
D03*
X877784D02*
D03*
X991680Y693730D02*
D03*
X1004784D02*
D03*
D129*
X1140714Y1007110D02*
D03*
Y997030D02*
D03*
Y992030D02*
D03*
Y1012190D02*
D03*
X1099693Y997030D02*
D03*
Y1012190D02*
D03*
Y1007110D02*
D03*
Y992030D02*
D03*
X1140714Y1002030D02*
D03*
X1099693D02*
D03*
X1233043Y974210D02*
D03*
X1274064D02*
D03*
X1233043Y964210D02*
D03*
Y979290D02*
D03*
Y984370D02*
D03*
Y969210D02*
D03*
X1274064Y984370D02*
D03*
Y964210D02*
D03*
Y969210D02*
D03*
Y979290D02*
D03*
X1172083Y875030D02*
D03*
X1213104D02*
D03*
X1172083Y865030D02*
D03*
Y880110D02*
D03*
Y885190D02*
D03*
Y870030D02*
D03*
X1213104Y885190D02*
D03*
Y865030D02*
D03*
Y870030D02*
D03*
Y880110D02*
D03*
D130*
X1181060Y790250D02*
D03*
X1221700Y625150D02*
D03*
X1210310Y647700D02*
D03*
X1226780Y775010D02*
D03*
D131*
X1184890Y790250D02*
D03*
X1177120Y794000D02*
D03*
Y786500D02*
D03*
X1225530Y625150D02*
D03*
X1217760Y628900D02*
D03*
Y621400D02*
D03*
X1214140Y647700D02*
D03*
X1206370Y651450D02*
D03*
Y643950D02*
D03*
X1222950Y775010D02*
D03*
X1230720Y771260D02*
D03*
Y778760D02*
D03*
D132*
X1203920Y728300D02*
D03*
Y750600D02*
D03*
X1163280Y603840D02*
D03*
Y626140D02*
D03*
D133*
X910160Y736910D02*
D03*
X893024D02*
D03*
X898240Y777550D02*
D03*
X915376D02*
D03*
X956660Y693730D02*
D03*
X973796D02*
D03*
X895700Y665790D02*
D03*
X912836D02*
D03*
X906390Y702310D02*
D03*
X889254D02*
D03*
X960270Y664600D02*
D03*
X977406D02*
D03*
X910160Y759770D02*
D03*
X893024D02*
D03*
D139*
X1151080Y553212D02*
D03*
Y559816D02*
D03*
Y546660D02*
D03*
Y540160D02*
D03*
X1208786D02*
D03*
Y546660D02*
D03*
Y553212D02*
D03*
Y559816D02*
D03*
X917750Y538988D02*
D03*
Y532384D02*
D03*
Y545540D02*
D03*
Y552040D02*
D03*
X860044D02*
D03*
Y545540D02*
D03*
Y538988D02*
D03*
Y532384D02*
D03*
D140*
X1232780Y481330D02*
D03*
X855100Y618490D02*
D03*
D141*
X1266580Y481330D02*
D03*
X821300Y618490D02*
D03*
D142*
X1201420Y518160D02*
D03*
X1181260D02*
D03*
X862330Y572770D02*
D03*
X882490D02*
D03*
D143*
X916942Y448453D02*
D03*
D144*
X1253333Y481335D02*
D03*
X834549Y618487D02*
D03*
D145*
X1358900Y1113790D02*
D03*
D146*
Y1088390D02*
D03*
X1333500Y1113790D02*
D03*
Y1088390D02*
D03*
D147*
X910590Y1014730D02*
D03*
X820420Y447040D02*
D03*
X748030Y520700D02*
D03*
X1330960Y646430D02*
D03*
X1155700Y892810D02*
D03*
X1228090Y596900D02*
D03*
X925830Y706120D02*
D03*
X1088390Y1024890D02*
D03*
X1234440Y647700D02*
D03*
X969010Y720090D02*
D03*
X1139190Y963930D02*
D03*
X1043940Y646430D02*
D03*
X1250950Y847090D02*
D03*
X848360Y693420D02*
D03*
X1078110Y857370D02*
D03*
X887730Y858520D02*
D03*
X1225550Y930910D02*
D03*
X1089660Y669290D02*
D03*
X1014730Y820420D02*
D03*
X889000Y825500D02*
D03*
X1229360Y797560D02*
D03*
X1037710Y842010D02*
D03*
X1104900Y529590D02*
D03*
X687070Y496570D02*
D03*
X753110Y562610D02*
D03*
D148*
X1179830Y458470D02*
D03*
X711200Y453390D02*
D03*
D149*
X1115060Y382270D02*
D03*
D150*
X1135060D02*
D03*
X1155060D02*
D03*
X1175060D02*
D03*
X1195060D02*
D03*
X1135060Y362270D02*
D03*
X1155060D02*
D03*
X1175060D02*
D03*
X1195060D02*
D03*
X1115060D02*
D03*
X665160Y382270D02*
D03*
X685160D02*
D03*
X705160D02*
D03*
X725160D02*
D03*
X665160Y362270D02*
D03*
X685160D02*
D03*
X705160D02*
D03*
X725160D02*
D03*
X645160D02*
D03*
X624840Y569280D02*
D03*
Y549280D02*
D03*
Y529280D02*
D03*
Y509280D02*
D03*
X604840Y569280D02*
D03*
Y549280D02*
D03*
Y529280D02*
D03*
Y509280D02*
D03*
Y589280D02*
D03*
X1299210Y439100D02*
D03*
Y459100D02*
D03*
Y479100D02*
D03*
Y499100D02*
D03*
X1319210Y439100D02*
D03*
Y459100D02*
D03*
Y479100D02*
D03*
Y499100D02*
D03*
Y419100D02*
D03*
X1300480Y858200D02*
D03*
Y878200D02*
D03*
Y898200D02*
D03*
Y918200D02*
D03*
X1320480Y858200D02*
D03*
Y878200D02*
D03*
Y898200D02*
D03*
Y918200D02*
D03*
Y838200D02*
D03*
X624840Y885510D02*
D03*
Y865510D02*
D03*
Y845510D02*
D03*
Y825510D02*
D03*
X604840Y885510D02*
D03*
Y865510D02*
D03*
Y845510D02*
D03*
Y825510D02*
D03*
Y905510D02*
D03*
D151*
X645160Y382270D02*
D03*
D152*
X829310Y397510D02*
D03*
X1320800Y697230D02*
D03*
X1008380Y383540D02*
D03*
D153*
X1324610Y1180490D02*
D03*
X562610Y323190D02*
D03*
X1362710D02*
D03*
X588010Y1180490D02*
D03*
D154*
X1273810Y1104290D02*
D03*
Y1155090D02*
D03*
D155*
Y1180490D02*
D03*
Y1155090D02*
D03*
X1248410D02*
D03*
X1223010D02*
D03*
X1197610D02*
D03*
X1172210D02*
D03*
X1146810D02*
D03*
X1121410D02*
D03*
X1096010D02*
D03*
X1070610D02*
D03*
X1045210D02*
D03*
X1019810D02*
D03*
X994410D02*
D03*
X969010D02*
D03*
X943610D02*
D03*
X918210D02*
D03*
X892810D02*
D03*
X867410D02*
D03*
X842010D02*
D03*
X816610D02*
D03*
X791210D02*
D03*
X765810D02*
D03*
X740410D02*
D03*
X715010D02*
D03*
X689610D02*
D03*
X664210D02*
D03*
X638810D02*
D03*
X1248410Y1180490D02*
D03*
X1223010D02*
D03*
X1197610D02*
D03*
X1172210D02*
D03*
X1146810D02*
D03*
X1121410D02*
D03*
X1096010D02*
D03*
X1070610D02*
D03*
X1045210D02*
D03*
X1019810D02*
D03*
X994410D02*
D03*
X969010D02*
D03*
X943610D02*
D03*
X918210D02*
D03*
X892810D02*
D03*
X867410D02*
D03*
X842010D02*
D03*
X816610D02*
D03*
X791210D02*
D03*
X765810D02*
D03*
X740410D02*
D03*
X715010D02*
D03*
X689610D02*
D03*
X664210D02*
D03*
X638810D02*
D03*
X1273810Y1129690D02*
D03*
Y1104290D02*
D03*
X1248410D02*
D03*
X1223010D02*
D03*
X1197610D02*
D03*
X1172210D02*
D03*
X1146810D02*
D03*
X1121410D02*
D03*
X1096010D02*
D03*
X1070610D02*
D03*
X1045210D02*
D03*
X1019810D02*
D03*
X994410D02*
D03*
X969010D02*
D03*
X943610D02*
D03*
X918210D02*
D03*
X892810D02*
D03*
X867410D02*
D03*
X842010D02*
D03*
X816610D02*
D03*
X791210D02*
D03*
X765810D02*
D03*
X740410D02*
D03*
X715010D02*
D03*
X689610D02*
D03*
X664210D02*
D03*
X638810D02*
D03*
X1248410Y1129690D02*
D03*
X1223010D02*
D03*
X1197610D02*
D03*
X1172210D02*
D03*
X1146810D02*
D03*
X1121410D02*
D03*
X1096010D02*
D03*
X1070610D02*
D03*
X1045210D02*
D03*
X1019810D02*
D03*
X994410D02*
D03*
X969010D02*
D03*
X943610D02*
D03*
X918210D02*
D03*
X892810D02*
D03*
X867410D02*
D03*
X842010D02*
D03*
X816610D02*
D03*
X791210D02*
D03*
X765810D02*
D03*
X740410D02*
D03*
X715010D02*
D03*
X689610D02*
D03*
X664210D02*
D03*
X638810D02*
D03*
D156*
X624840Y589280D02*
D03*
X1299210Y419100D02*
D03*
X1300480Y838200D02*
D03*
X624840Y905510D02*
D03*
D157*
X1140420Y627690D02*
D03*
X1134110Y890270D02*
D03*
X1164590Y948690D02*
D03*
X1115060Y608330D02*
D03*
X633730Y467360D02*
D03*
X939800Y411480D02*
D03*
X741680Y433070D02*
D03*
X1283490Y811530D02*
D03*
X623570Y1045210D02*
D03*
X665480Y422910D02*
D03*
X660400Y444500D02*
D03*
X704850Y1080770D02*
D03*
X1252220Y662940D02*
D03*
X1137680Y741790D02*
D03*
X1141690Y724210D02*
D03*
X1132800Y759770D02*
D03*
X734060Y680720D02*
D03*
Y774700D02*
D03*
X768350Y591820D02*
D03*
X749300Y542290D02*
D03*
X765810Y775970D02*
D03*
X784860Y786130D02*
D03*
X735330Y577850D02*
D03*
X650240Y497840D02*
D03*
Y514350D02*
D03*
X1121410Y998220D02*
D03*
X984885Y751205D02*
D03*
X989330Y731520D02*
D03*
X1010920D02*
D03*
X843280Y886460D02*
D03*
X703580Y575310D02*
D03*
X694690Y787400D02*
D03*
X1254760Y969210D02*
D03*
X1186180Y853440D02*
D03*
X1187450Y868680D02*
D03*
X850900Y666750D02*
D03*
X866140Y654050D02*
D03*
X1229360Y817880D02*
D03*
X1217930Y674370D02*
D03*
X763270Y670560D02*
D03*
X782320Y664210D02*
D03*
X803910D02*
D03*
X927735Y615315D02*
D03*
X976630Y857250D02*
D03*
Y839470D02*
D03*
X1074420Y530860D02*
D03*
X890270Y901700D02*
D03*
X866140Y891540D02*
D03*
X670560Y659130D02*
D03*
X661670Y637540D02*
D03*
X941070Y447040D02*
D03*
X828040Y741680D02*
D03*
X889000Y509270D02*
D03*
X891540Y546100D02*
D03*
X789940Y622300D02*
D03*
X1276350Y782320D02*
D03*
X1216660Y440690D02*
D03*
X1234440Y464820D02*
D03*
X796290Y1012190D02*
D03*
X773430Y1003300D02*
D03*
X814070Y728980D02*
D03*
X791210Y1031240D02*
D03*
X1325880Y740410D02*
D03*
X764540Y1042670D02*
D03*
X1342390Y728980D02*
D03*
X1062990Y623570D02*
D03*
X1098550Y1057750D02*
D03*
X1172210Y909320D02*
D03*
X1348740Y576580D02*
D03*
X1275080Y506730D02*
D03*
X1281430Y535940D02*
D03*
X1291590Y566420D02*
D03*
X1366520Y589280D02*
D03*
X1214120Y496570D02*
D03*
X1211580Y608330D02*
D03*
X1173440Y648010D02*
D03*
X806450Y551180D02*
D03*
X838200Y535940D02*
D03*
X825500Y598170D02*
D03*
X824230Y490220D02*
D03*
X792480Y528320D02*
D03*
X746760Y455930D02*
D03*
X900430Y840740D02*
D03*
X915670Y908050D02*
D03*
X908050Y958850D02*
D03*
X918210Y1036320D02*
D03*
X962660D02*
D03*
X966470Y361950D02*
D03*
X985520Y360680D02*
D03*
X1002030Y419100D02*
D03*
X1037590Y436880D02*
D03*
X967740Y485140D02*
D03*
Y519430D02*
D03*
X1038860Y557530D02*
D03*
X1028700Y523240D02*
D03*
X1011936Y557530D02*
D03*
X1000760Y502920D02*
D03*
X1014920Y459740D02*
D03*
X1325880Y604520D02*
D03*
X1348740Y655320D02*
D03*
X798830Y438150D02*
D03*
X1087120Y452247D02*
D03*
X1137920Y427990D02*
D03*
X1218040Y471170D02*
D03*
X1146810Y461010D02*
D03*
X1317498Y663702D02*
D03*
X1230630Y546100D02*
D03*
X1277620Y726440D02*
D03*
X1177290Y585470D02*
D03*
Y560070D02*
D03*
X1309370Y734060D02*
D03*
X852170Y363220D02*
D03*
X868680Y364490D02*
D03*
X832612Y431292D02*
D03*
X676910Y463550D02*
D03*
X1040130Y781050D02*
D03*
X1062990Y1028700D02*
D03*
X1146770Y648010D02*
D03*
X1206330Y691190D02*
D03*
X1106130Y692460D02*
D03*
X1244560Y750880D02*
D03*
X1188680Y714050D02*
D03*
X1198840Y775010D02*
D03*
X1170900Y749610D02*
D03*
X1084540Y810570D02*
D03*
X830540Y714050D02*
D03*
X938410Y839350D02*
D03*
X942340Y721360D02*
D03*
X1017390Y905630D02*
D03*
X923410Y986910D02*
D03*
X981830Y936110D02*
D03*
X933570Y925950D02*
D03*
X984370Y953890D02*
D03*
X986910Y974210D02*
D03*
X1040250Y1017390D02*
D03*
X951350Y958970D02*
D03*
X994530Y1002150D02*
D03*
X1103750Y956430D02*
D03*
X1124070Y948810D02*
D03*
X1019570Y703970D02*
D03*
X915670Y721360D02*
D03*
X1126450Y791520D02*
D03*
X1256150Y931030D02*
D03*
X1008380Y783590D02*
D03*
X988060Y707390D02*
D03*
X1018500Y744530D02*
D03*
X1228090Y1013460D02*
D03*
X1196340Y1008380D02*
D03*
X1202380Y823270D02*
D03*
X1083310Y830580D02*
D03*
X1164590Y808030D02*
D03*
X1016000Y1047750D02*
D03*
X1151890Y585470D02*
D03*
X941070Y1022350D02*
D03*
X701040Y547370D02*
D03*
X681990Y478790D02*
D03*
X595630Y1079350D02*
D03*
X745490Y882650D02*
D03*
X773450Y894060D02*
D03*
X723900Y894080D02*
D03*
X705104Y913130D02*
D03*
X726440Y919480D02*
D03*
X619760Y980440D02*
D03*
X802640Y905510D02*
D03*
X656790Y616150D02*
D03*
X745490Y866140D02*
D03*
X755650Y840740D02*
D03*
X740410Y811530D02*
D03*
X742950Y830580D02*
D03*
X729216Y801171D02*
D03*
X713740Y774700D02*
D03*
X586740Y974090D02*
D03*
X755650Y906780D02*
D03*
X855980Y970280D02*
D03*
X693420Y739140D02*
D03*
X771990Y634830D02*
D03*
X791210Y594360D02*
D03*
X779780Y953770D02*
D03*
X673100Y1017270D02*
D03*
X687070Y1032510D02*
D03*
X678180Y1080770D02*
D03*
X758190Y1079500D02*
D03*
X814070Y751840D02*
D03*
D158*
X1077340Y734790D02*
D03*
X1066340D02*
D03*
Y723790D02*
D03*
X1077340D02*
D03*
X1044910Y946690D02*
D03*
Y935690D02*
D03*
X1055910D02*
D03*
Y946690D02*
D03*
D159*
X816610Y1000760D02*
D03*
Y1013460D02*
D03*
Y1026160D02*
D03*
D160*
Y1038860D02*
D03*
D161*
X823110Y975660D02*
D03*
Y1063960D02*
D03*
X773110D02*
D03*
Y975660D02*
D03*
D162*
X773450Y810070D02*
D03*
Y816570D02*
D03*
Y823070D02*
D03*
Y829570D02*
D03*
Y836070D02*
D03*
Y842570D02*
D03*
Y849070D02*
D03*
Y855570D02*
D03*
Y862070D02*
D03*
Y868570D02*
D03*
Y875070D02*
D03*
Y881570D02*
D03*
X712450Y810070D02*
D03*
Y816570D02*
D03*
Y823070D02*
D03*
Y829570D02*
D03*
Y836070D02*
D03*
Y842570D02*
D03*
Y849070D02*
D03*
Y855570D02*
D03*
Y862070D02*
D03*
Y868570D02*
D03*
Y875070D02*
D03*
Y881570D02*
D03*
M02*
