%FSLAX44Y44*%
%MOMM*%
G71*
G01*
G75*
G04 Layer_Color=32896*
%ADD10R,1.2192X0.8128*%
%ADD11R,0.6500X0.2500*%
%ADD12R,0.1900X0.7500*%
%ADD13R,1.6500X4.4000*%
%ADD14R,0.8128X1.2192*%
%ADD15R,0.3048X0.8128*%
%ADD16R,0.8128X0.3048*%
%ADD17R,0.6500X0.8500*%
%ADD18R,0.9500X0.6500*%
%ADD19R,2.0066X0.8128*%
%ADD20R,0.3556X1.4224*%
%ADD21R,1.2192X2.0066*%
%ADD22R,2.0066X1.2192*%
%ADD23R,1.0160X1.1176*%
%ADD24O,1.0000X0.2500*%
%ADD25O,0.2500X1.0000*%
%ADD26R,2.4500X2.4500*%
%ADD27R,0.8000X0.9000*%
%ADD28R,2.1000X0.7000*%
%ADD29R,0.7112X0.9144*%
%ADD30R,0.8890X0.3048*%
%ADD31R,0.2000X0.9100*%
%ADD32R,0.4500X0.5000*%
%ADD33R,0.8300X0.6300*%
%ADD34R,1.1176X1.0160*%
%ADD35O,1.6500X0.3000*%
%ADD36R,1.3000X1.9000*%
%ADD37R,0.9144X0.7112*%
%ADD38O,2.1000X0.3000*%
%ADD39O,0.3000X2.1000*%
%ADD40R,1.4224X0.3556*%
%ADD41R,0.8500X0.6500*%
%ADD42R,0.6500X0.9500*%
%ADD43R,0.8128X2.0066*%
%ADD44C,0.5080*%
%ADD45C,0.2540*%
%ADD46C,0.0000*%
%ADD47R,1.9500X2.0000*%
%ADD48R,0.6500X0.8500*%
%ADD49R,2.0000X1.9500*%
%ADD50R,1.2700X1.2700*%
%ADD51C,1.2700*%
%ADD52C,1.0160*%
%ADD53R,2.7178X2.7178*%
%ADD54R,1.0668X1.0670*%
%ADD55C,1.0670*%
%ADD56R,1.0670X1.0670*%
%ADD57R,2.7178X2.7178*%
%ADD58C,4.2000*%
%ADD59C,0.5000*%
%ADD60C,1.1540*%
%ADD61R,1.0670X1.0670*%
%ADD62C,1.5240*%
%ADD63C,0.9652*%
%ADD64C,0.4540*%
%ADD65C,1.0160*%
%ADD66C,2.0320*%
%ADD67C,1.7780*%
%ADD68C,1.8290*%
%ADD69C,5.2160*%
%ADD70C,1.5160*%
%ADD71C,1.9160*%
G04:AMPARAMS|DCode=72|XSize=2.424mm|YSize=2.424mm|CornerRadius=0mm|HoleSize=0mm|Usage=FLASHONLY|Rotation=0.000|XOffset=0mm|YOffset=0mm|HoleType=Round|Shape=Relief|Width=0.254mm|Gap=0.254mm|Entries=4|*
%AMTHD72*
7,0,0,2.4240,1.9160,0.2540,45*
%
%ADD72THD72*%
G04:AMPARAMS|DCode=73|XSize=2.286mm|YSize=2.286mm|CornerRadius=0mm|HoleSize=0mm|Usage=FLASHONLY|Rotation=0.000|XOffset=0mm|YOffset=0mm|HoleType=Round|Shape=Relief|Width=0.254mm|Gap=0.254mm|Entries=4|*
%AMTHD73*
7,0,0,2.2860,1.7780,0.2540,45*
%
%ADD73THD73*%
%ADD74C,2.6160*%
%ADD75C,1.7272*%
%ADD76C,1.2160*%
G04:AMPARAMS|DCode=77|XSize=2.2352mm|YSize=2.2352mm|CornerRadius=0mm|HoleSize=0mm|Usage=FLASHONLY|Rotation=0.000|XOffset=0mm|YOffset=0mm|HoleType=Round|Shape=Relief|Width=0.254mm|Gap=0.254mm|Entries=4|*
%AMTHD77*
7,0,0,2.2352,1.7272,0.2540,45*
%
%ADD77THD77*%
G04:AMPARAMS|DCode=78|XSize=2.337mm|YSize=2.337mm|CornerRadius=0mm|HoleSize=0mm|Usage=FLASHONLY|Rotation=0.000|XOffset=0mm|YOffset=0mm|HoleType=Round|Shape=Relief|Width=0.254mm|Gap=0.254mm|Entries=4|*
%AMTHD78*
7,0,0,2.3370,1.8290,0.2540,45*
%
%ADD78THD78*%
%ADD79O,1.1000X0.8000*%
%ADD80R,1.1000X0.8000*%
%ADD81R,2.4000X1.2000*%
%ADD82R,1.7000X0.3500*%
%ADD83R,1.1176X1.1000*%
%ADD84R,1.1000X1.1000*%
%ADD85R,1.1176X1.1176*%
%ADD86R,1.1000X1.1176*%
%ADD87R,1.1000X1.1176*%
%ADD88R,1.1000X1.1000*%
%ADD89R,1.1176X1.1000*%
%ADD90R,1.1176X1.1000*%
%ADD91C,0.2500*%
%ADD92C,0.1270*%
%ADD93C,0.1000*%
%ADD94C,0.6000*%
%ADD95C,0.1524*%
%ADD96C,0.2000*%
%ADD97C,0.2032*%
%ADD98C,0.4064*%
%ADD99R,0.7620X0.4572*%
%ADD100R,0.4572X0.7620*%
%ADD101R,1.2192X1.2000*%
%ADD102R,1.2000X1.2000*%
%ADD103R,1.2192X1.2192*%
%ADD104R,1.2000X1.2192*%
%ADD105R,1.2000X1.2192*%
%ADD106R,1.2000X1.2000*%
%ADD107R,1.2192X1.2000*%
%ADD108R,1.2000X1.2000*%
%ADD109R,1.4224X1.0160*%
%ADD110R,0.8532X0.4532*%
%ADD111R,0.3932X0.9532*%
%ADD112R,1.8532X4.6032*%
%ADD113R,1.0160X1.4224*%
%ADD114R,0.5080X1.0160*%
%ADD115R,1.0160X0.5080*%
%ADD116R,0.8532X1.0532*%
%ADD117R,1.1532X0.8532*%
%ADD118R,2.2098X1.0160*%
%ADD119R,0.5588X1.6256*%
%ADD120R,1.4224X2.2098*%
%ADD121R,2.2098X1.4224*%
%ADD122R,1.2192X1.3208*%
%ADD123O,1.2032X0.4532*%
%ADD124O,0.4532X1.2032*%
%ADD125R,2.6532X2.6532*%
%ADD126R,1.0032X1.1032*%
%ADD127R,2.3032X0.9032*%
%ADD128R,0.9144X1.1176*%
%ADD129R,1.0922X0.5080*%
%ADD130R,0.4032X1.1132*%
%ADD131R,0.6532X0.7032*%
%ADD132R,1.0332X0.8332*%
%ADD133R,1.3208X1.2192*%
%ADD134O,1.8532X0.5032*%
%ADD135R,1.5032X2.1032*%
%ADD136R,1.1176X0.9144*%
%ADD137O,2.3032X0.5032*%
%ADD138O,0.5032X2.3032*%
%ADD139R,1.6256X0.5588*%
%ADD140R,1.0532X0.8532*%
%ADD141R,0.8532X1.1532*%
%ADD142R,1.0160X2.2098*%
%ADD143R,2.1532X2.2032*%
%ADD144R,2.2032X2.1532*%
%ADD145R,1.4732X1.4732*%
%ADD146C,1.4732*%
%ADD147C,1.2192*%
%ADD148R,2.9210X2.9210*%
%ADD149R,1.2700X1.2702*%
%ADD150C,1.2702*%
%ADD151R,1.2702X1.2702*%
%ADD152R,2.9210X2.9210*%
%ADD153C,4.4032*%
%ADD154C,0.7032*%
%ADD155C,1.3572*%
%ADD156R,1.2702X1.2702*%
%ADD157C,1.1684*%
%ADD158C,0.6572*%
%ADD159O,1.3032X1.0032*%
%ADD160R,1.3032X1.0032*%
%ADD161R,2.6032X1.4032*%
%ADD162R,1.9032X0.5532*%
D45*
X925690Y434220D02*
G03*
X925690Y434220I500J0D01*
G01*
X1267080Y490580D02*
G03*
X1267080Y490580I500J0D01*
G01*
X819800Y609240D02*
G03*
X819800Y609240I500J0D01*
G01*
X993137Y507996D02*
X990597Y510535D01*
X985519D01*
X982980Y507996D01*
Y497839D01*
X985519Y495300D01*
X990597D01*
X993137Y497839D01*
X1000754Y495300D02*
Y507996D01*
Y502918D01*
X998215D01*
X1003293D01*
X1000754D01*
Y507996D01*
X1003293Y510535D01*
X1021068D02*
X1010911D01*
Y502918D01*
X1015989Y505457D01*
X1018528D01*
X1021068Y502918D01*
Y497839D01*
X1018528Y495300D01*
X1013450D01*
X1010911Y497839D01*
X1026146Y495300D02*
X1031224D01*
X1028685D01*
Y510535D01*
X1026146Y507996D01*
X1197610Y680715D02*
Y665480D01*
X1207766D01*
X1212845Y678176D02*
X1215384Y680715D01*
X1220462D01*
X1223002Y678176D01*
Y675637D01*
X1220462Y673098D01*
X1223002Y670558D01*
Y668019D01*
X1220462Y665480D01*
X1215384D01*
X1212845Y668019D01*
Y670558D01*
X1215384Y673098D01*
X1212845Y675637D01*
Y678176D01*
X1215384Y673098D02*
X1220462D01*
X1238237Y665480D02*
X1228080D01*
X1238237Y675637D01*
Y678176D01*
X1235697Y680715D01*
X1230619D01*
X1228080Y678176D01*
X1108710Y890270D02*
X1123945D01*
Y882653D01*
X1121406Y880113D01*
X1116327D01*
X1113788Y882653D01*
Y890270D01*
Y885192D02*
X1108710Y880113D01*
X1123945Y875035D02*
Y864878D01*
X1121406D01*
X1111249Y875035D01*
X1108710D01*
Y859800D02*
Y854722D01*
Y857261D01*
X1123945D01*
X1121406Y859800D01*
Y847104D02*
X1123945Y844565D01*
Y839486D01*
X1121406Y836947D01*
X1118867D01*
X1116327Y839486D01*
X1113788Y836947D01*
X1111249D01*
X1108710Y839486D01*
Y844565D01*
X1111249Y847104D01*
X1113788D01*
X1116327Y844565D01*
X1118867Y847104D01*
X1121406D01*
X1116327Y844565D02*
Y839486D01*
X1090930Y941070D02*
X1106165D01*
Y933453D01*
X1103626Y930913D01*
X1098547D01*
X1096008Y933453D01*
Y941070D01*
Y935992D02*
X1090930Y930913D01*
X1106165Y925835D02*
Y915678D01*
X1103626D01*
X1093469Y925835D01*
X1090930D01*
Y910600D02*
Y905521D01*
Y908061D01*
X1106165D01*
X1103626Y910600D01*
X1106165Y897904D02*
Y887747D01*
X1103626D01*
X1093469Y897904D01*
X1090930D01*
X1132840Y937260D02*
Y952495D01*
X1140457D01*
X1142997Y949956D01*
Y944877D01*
X1140457Y942338D01*
X1132840D01*
X1137918D02*
X1142997Y937260D01*
X1148075Y952495D02*
X1158232D01*
Y949956D01*
X1148075Y939799D01*
Y937260D01*
X1163310D02*
X1168388D01*
X1165849D01*
Y952495D01*
X1163310Y949956D01*
X1186163Y952495D02*
X1181084Y949956D01*
X1176006Y944877D01*
Y939799D01*
X1178545Y937260D01*
X1183623D01*
X1186163Y939799D01*
Y942338D01*
X1183623Y944877D01*
X1176006D01*
X1170940Y858515D02*
Y845819D01*
X1173479Y843280D01*
X1178557D01*
X1181096Y845819D01*
Y858515D01*
X1186175D02*
X1196332D01*
Y855976D01*
X1186175Y845819D01*
Y843280D01*
X1211567Y858515D02*
X1201410D01*
Y850898D01*
X1206488Y853437D01*
X1209027D01*
X1211567Y850898D01*
Y845819D01*
X1209027Y843280D01*
X1203949D01*
X1201410Y845819D01*
X1169669Y922023D02*
X1179826D01*
X1182365Y924563D01*
Y929641D01*
X1179826Y932180D01*
X1169669D01*
X1167130Y929641D01*
Y924563D01*
X1172208Y927102D02*
X1167130Y922023D01*
Y924563D02*
X1169669Y922023D01*
X1182365Y916945D02*
Y906788D01*
X1179826D01*
X1169669Y916945D01*
X1167130D01*
X1179826Y901710D02*
X1182365Y899171D01*
Y894092D01*
X1179826Y891553D01*
X1177287D01*
X1174747Y894092D01*
X1172208Y891553D01*
X1169669D01*
X1167130Y894092D01*
Y899171D01*
X1169669Y901710D01*
X1172208D01*
X1174747Y899171D01*
X1177287Y901710D01*
X1179826D01*
X1174747Y899171D02*
Y894092D01*
X772664Y1097021D02*
X767586D01*
X770125D01*
Y1084325D01*
X767586Y1081786D01*
X765047D01*
X762508Y1084325D01*
X777743Y1094482D02*
X780282Y1097021D01*
X785360D01*
X787900Y1094482D01*
Y1091943D01*
X785360Y1089404D01*
X782821D01*
X785360D01*
X787900Y1086864D01*
Y1084325D01*
X785360Y1081786D01*
X780282D01*
X777743Y1084325D01*
X618487Y412746D02*
X615947Y415285D01*
X610869D01*
X608330Y412746D01*
Y402589D01*
X610869Y400050D01*
X615947D01*
X618487Y402589D01*
X623565Y400050D02*
X628643D01*
X626104D01*
Y415285D01*
X623565Y412746D01*
X646417Y400050D02*
X636261D01*
X646417Y410207D01*
Y412746D01*
X643878Y415285D01*
X638800D01*
X636261Y412746D01*
X594356Y434343D02*
X596895Y436883D01*
Y441961D01*
X594356Y444500D01*
X584199D01*
X581660Y441961D01*
Y436883D01*
X584199Y434343D01*
X581660Y429265D02*
Y424187D01*
Y426726D01*
X596895D01*
X594356Y429265D01*
X581660Y408951D02*
X596895D01*
X589277Y416569D01*
Y406412D01*
X575307Y463546D02*
X572767Y466085D01*
X567689D01*
X565150Y463546D01*
Y453389D01*
X567689Y450850D01*
X572767D01*
X575307Y453389D01*
X580385Y450850D02*
X585463D01*
X582924D01*
Y466085D01*
X580385Y463546D01*
X603237Y466085D02*
X593081D01*
Y458467D01*
X598159Y461007D01*
X600698D01*
X603237Y458467D01*
Y453389D01*
X600698Y450850D01*
X595620D01*
X593081Y453389D01*
X690876Y403856D02*
X688337Y406395D01*
X683259D01*
X680720Y403856D01*
Y393699D01*
X683259Y391160D01*
X688337D01*
X690876Y393699D01*
X695955Y391160D02*
X701033D01*
X698494D01*
Y406395D01*
X695955Y403856D01*
X718808Y406395D02*
X713729Y403856D01*
X708651Y398778D01*
Y393699D01*
X711190Y391160D01*
X716268D01*
X718808Y393699D01*
Y396238D01*
X716268Y398778D01*
X708651D01*
X736597Y402586D02*
X734057Y405125D01*
X728979D01*
X726440Y402586D01*
Y392429D01*
X728979Y389890D01*
X734057D01*
X736597Y392429D01*
X741675Y389890D02*
X746753D01*
X744214D01*
Y405125D01*
X741675Y402586D01*
X754371Y405125D02*
X764528D01*
Y402586D01*
X754371Y392429D01*
Y389890D01*
X745487Y519426D02*
X742947Y521965D01*
X737869D01*
X735330Y519426D01*
Y509269D01*
X737869Y506730D01*
X742947D01*
X745487Y509269D01*
X750565Y506730D02*
X755643D01*
X753104D01*
Y521965D01*
X750565Y519426D01*
X763261D02*
X765800Y521965D01*
X770878D01*
X773418Y519426D01*
Y516887D01*
X770878Y514347D01*
X773418Y511808D01*
Y509269D01*
X770878Y506730D01*
X765800D01*
X763261Y509269D01*
Y511808D01*
X765800Y514347D01*
X763261Y516887D01*
Y519426D01*
X765800Y514347D02*
X770878D01*
X1052827Y344166D02*
X1050287Y346705D01*
X1045209D01*
X1042670Y344166D01*
Y334009D01*
X1045209Y331470D01*
X1050287D01*
X1052827Y334009D01*
X1068062Y346705D02*
X1057905D01*
Y339087D01*
X1062983Y341627D01*
X1065522D01*
X1068062Y339087D01*
Y334009D01*
X1065522Y331470D01*
X1060444D01*
X1057905Y334009D01*
X1083297Y331470D02*
X1073140D01*
X1083297Y341627D01*
Y344166D01*
X1080758Y346705D01*
X1075679D01*
X1073140Y344166D01*
X1052827Y322576D02*
X1050287Y325115D01*
X1045209D01*
X1042670Y322576D01*
Y312419D01*
X1045209Y309880D01*
X1050287D01*
X1052827Y312419D01*
X1068062Y325115D02*
X1057905D01*
Y317498D01*
X1062983Y320037D01*
X1065522D01*
X1068062Y317498D01*
Y312419D01*
X1065522Y309880D01*
X1060444D01*
X1057905Y312419D01*
X1080758Y309880D02*
Y325115D01*
X1073140Y317498D01*
X1083297D01*
X941067Y323846D02*
X938527Y326385D01*
X933449D01*
X930910Y323846D01*
Y313689D01*
X933449Y311150D01*
X938527D01*
X941067Y313689D01*
X956302Y326385D02*
X946145D01*
Y318768D01*
X951223Y321307D01*
X953762D01*
X956302Y318768D01*
Y313689D01*
X953762Y311150D01*
X948684D01*
X946145Y313689D01*
X971537Y326385D02*
X961380D01*
Y318768D01*
X966458Y321307D01*
X968997D01*
X971537Y318768D01*
Y313689D01*
X968997Y311150D01*
X963919D01*
X961380Y313689D01*
X1066796Y373376D02*
X1064257Y375915D01*
X1059179D01*
X1056640Y373376D01*
Y363219D01*
X1059179Y360680D01*
X1064257D01*
X1066796Y363219D01*
X1082032Y375915D02*
X1071875D01*
Y368298D01*
X1076953Y370837D01*
X1079492D01*
X1082032Y368298D01*
Y363219D01*
X1079492Y360680D01*
X1074414D01*
X1071875Y363219D01*
X1097267Y375915D02*
X1092188Y373376D01*
X1087110Y368298D01*
Y363219D01*
X1089649Y360680D01*
X1094727D01*
X1097267Y363219D01*
Y365758D01*
X1094727Y368298D01*
X1087110D01*
X1070607Y405126D02*
X1068067Y407665D01*
X1062989D01*
X1060450Y405126D01*
Y394969D01*
X1062989Y392430D01*
X1068067D01*
X1070607Y394969D01*
X1085842Y407665D02*
X1075685D01*
Y400047D01*
X1080763Y402587D01*
X1083302D01*
X1085842Y400047D01*
Y394969D01*
X1083302Y392430D01*
X1078224D01*
X1075685Y394969D01*
X1090920Y407665D02*
X1101077D01*
Y405126D01*
X1090920Y394969D01*
Y392430D01*
X924557Y420366D02*
X922017Y422905D01*
X916939D01*
X914400Y420366D01*
Y410209D01*
X916939Y407670D01*
X922017D01*
X924557Y410209D01*
X939792Y422905D02*
X929635D01*
Y415288D01*
X934713Y417827D01*
X937252D01*
X939792Y415288D01*
Y410209D01*
X937252Y407670D01*
X932174D01*
X929635Y410209D01*
X944870Y420366D02*
X947409Y422905D01*
X952487D01*
X955027Y420366D01*
Y417827D01*
X952487Y415288D01*
X955027Y412748D01*
Y410209D01*
X952487Y407670D01*
X947409D01*
X944870Y410209D01*
Y412748D01*
X947409Y415288D01*
X944870Y417827D01*
Y420366D01*
X947409Y415288D02*
X952487D01*
X976627Y792476D02*
X974087Y795015D01*
X969009D01*
X966470Y792476D01*
Y782319D01*
X969009Y779780D01*
X974087D01*
X976627Y782319D01*
X981705Y792476D02*
X984244Y795015D01*
X989322D01*
X991862Y792476D01*
Y789937D01*
X989322Y787398D01*
X991862Y784858D01*
Y782319D01*
X989322Y779780D01*
X984244D01*
X981705Y782319D01*
Y784858D01*
X984244Y787398D01*
X981705Y789937D01*
Y792476D01*
X984244Y787398D02*
X989322D01*
X1007097Y779780D02*
X996940D01*
X1007097Y789937D01*
Y792476D01*
X1004557Y795015D01*
X999479D01*
X996940Y792476D01*
X822916Y741986D02*
X820377Y744525D01*
X815299D01*
X812760Y741986D01*
Y731829D01*
X815299Y729290D01*
X820377D01*
X822916Y731829D01*
X827995Y741986D02*
X830534Y744525D01*
X835612D01*
X838152Y741986D01*
Y739447D01*
X835612Y736908D01*
X838152Y734368D01*
Y731829D01*
X835612Y729290D01*
X830534D01*
X827995Y731829D01*
Y734368D01*
X830534Y736908D01*
X827995Y739447D01*
Y741986D01*
X830534Y736908D02*
X835612D01*
X843230Y741986D02*
X845769Y744525D01*
X850847D01*
X853387Y741986D01*
Y739447D01*
X850847Y736908D01*
X848308D01*
X850847D01*
X853387Y734368D01*
Y731829D01*
X850847Y729290D01*
X845769D01*
X843230Y731829D01*
X995892Y719634D02*
X993353Y722173D01*
X988275D01*
X985736Y719634D01*
Y709477D01*
X988275Y706938D01*
X993353D01*
X995892Y709477D01*
X1000971Y719634D02*
X1003510Y722173D01*
X1008588D01*
X1011127Y719634D01*
Y717095D01*
X1008588Y714556D01*
X1011127Y712016D01*
Y709477D01*
X1008588Y706938D01*
X1003510D01*
X1000971Y709477D01*
Y712016D01*
X1003510Y714556D01*
X1000971Y717095D01*
Y719634D01*
X1003510Y714556D02*
X1008588D01*
X1023823Y706938D02*
Y722173D01*
X1016206Y714556D01*
X1026363D01*
X1277616Y815343D02*
X1280155Y817883D01*
Y822961D01*
X1277616Y825500D01*
X1267459D01*
X1264920Y822961D01*
Y817883D01*
X1267459Y815343D01*
X1277616Y810265D02*
X1280155Y807726D01*
Y802647D01*
X1277616Y800108D01*
X1275077D01*
X1272537Y802647D01*
X1269998Y800108D01*
X1267459D01*
X1264920Y802647D01*
Y807726D01*
X1267459Y810265D01*
X1269998D01*
X1272537Y807726D01*
X1275077Y810265D01*
X1277616D01*
X1272537Y807726D02*
Y802647D01*
X1280155Y784873D02*
Y795030D01*
X1272537D01*
X1275077Y789951D01*
Y787412D01*
X1272537Y784873D01*
X1267459D01*
X1264920Y787412D01*
Y792491D01*
X1267459Y795030D01*
X1082037Y828036D02*
X1079497Y830575D01*
X1074419D01*
X1071880Y828036D01*
Y817879D01*
X1074419Y815340D01*
X1079497D01*
X1082037Y817879D01*
X1087115Y828036D02*
X1089654Y830575D01*
X1094732D01*
X1097272Y828036D01*
Y825497D01*
X1094732Y822958D01*
X1097272Y820418D01*
Y817879D01*
X1094732Y815340D01*
X1089654D01*
X1087115Y817879D01*
Y820418D01*
X1089654Y822958D01*
X1087115Y825497D01*
Y828036D01*
X1089654Y822958D02*
X1094732D01*
X1112507Y830575D02*
X1107428Y828036D01*
X1102350Y822958D01*
Y817879D01*
X1104889Y815340D01*
X1109967D01*
X1112507Y817879D01*
Y820418D01*
X1109967Y822958D01*
X1102350D01*
X1155696Y728983D02*
X1158235Y731523D01*
Y736601D01*
X1155696Y739140D01*
X1145539D01*
X1143000Y736601D01*
Y731523D01*
X1145539Y728983D01*
X1155696Y723905D02*
X1158235Y721366D01*
Y716287D01*
X1155696Y713748D01*
X1153157D01*
X1150617Y716287D01*
X1148078Y713748D01*
X1145539D01*
X1143000Y716287D01*
Y721366D01*
X1145539Y723905D01*
X1148078D01*
X1150617Y721366D01*
X1153157Y723905D01*
X1155696D01*
X1150617Y721366D02*
Y716287D01*
X1158235Y708670D02*
Y698513D01*
X1155696D01*
X1145539Y708670D01*
X1143000D01*
X1109976Y675643D02*
X1112515Y678183D01*
Y683261D01*
X1109976Y685800D01*
X1099819D01*
X1097280Y683261D01*
Y678183D01*
X1099819Y675643D01*
X1109976Y670565D02*
X1112515Y668026D01*
Y662947D01*
X1109976Y660408D01*
X1107437D01*
X1104897Y662947D01*
X1102358Y660408D01*
X1099819D01*
X1097280Y662947D01*
Y668026D01*
X1099819Y670565D01*
X1102358D01*
X1104897Y668026D01*
X1107437Y670565D01*
X1109976D01*
X1104897Y668026D02*
Y662947D01*
X1109976Y655330D02*
X1112515Y652791D01*
Y647712D01*
X1109976Y645173D01*
X1107437D01*
X1104897Y647712D01*
X1102358Y645173D01*
X1099819D01*
X1097280Y647712D01*
Y652791D01*
X1099819Y655330D01*
X1102358D01*
X1104897Y652791D01*
X1107437Y655330D01*
X1109976D01*
X1104897Y652791D02*
Y647712D01*
X1273807Y624836D02*
X1271267Y627375D01*
X1266189D01*
X1263650Y624836D01*
Y614679D01*
X1266189Y612140D01*
X1271267D01*
X1273807Y614679D01*
X1278885Y624836D02*
X1281424Y627375D01*
X1286502D01*
X1289042Y624836D01*
Y622297D01*
X1286502Y619757D01*
X1289042Y617218D01*
Y614679D01*
X1286502Y612140D01*
X1281424D01*
X1278885Y614679D01*
Y617218D01*
X1281424Y619757D01*
X1278885Y622297D01*
Y624836D01*
X1281424Y619757D02*
X1286502D01*
X1294120Y614679D02*
X1296659Y612140D01*
X1301738D01*
X1304277Y614679D01*
Y624836D01*
X1301738Y627375D01*
X1296659D01*
X1294120Y624836D01*
Y622297D01*
X1296659Y619757D01*
X1304277D01*
X808986Y553723D02*
X811525Y556263D01*
Y561341D01*
X808986Y563880D01*
X798829D01*
X796290Y561341D01*
Y556263D01*
X798829Y553723D01*
X796290Y546106D02*
X808986D01*
X803907D01*
Y548645D01*
Y543567D01*
Y546106D01*
X808986D01*
X811525Y543567D01*
X796290Y535949D02*
Y530871D01*
Y533410D01*
X811525D01*
X808986Y535949D01*
X796290Y523253D02*
Y518175D01*
Y520714D01*
X811525D01*
X808986Y523253D01*
X1273807Y558796D02*
X1271267Y561335D01*
X1266189D01*
X1263650Y558796D01*
Y548639D01*
X1266189Y546100D01*
X1271267D01*
X1273807Y548639D01*
X1281424Y546100D02*
Y558796D01*
Y553717D01*
X1278885D01*
X1283963D01*
X1281424D01*
Y558796D01*
X1283963Y561335D01*
X1301738Y546100D02*
X1291581D01*
X1301738Y556257D01*
Y558796D01*
X1299198Y561335D01*
X1294120D01*
X1291581Y558796D01*
X1306816Y546100D02*
X1311894D01*
X1309355D01*
Y561335D01*
X1306816Y558796D01*
X769616Y601976D02*
X767077Y604515D01*
X761999D01*
X759460Y601976D01*
Y591819D01*
X761999Y589280D01*
X767077D01*
X769616Y591819D01*
X774695Y589280D02*
X779773D01*
X777234D01*
Y599437D01*
X774695D01*
X787391Y589280D02*
Y599437D01*
X795008D01*
X797548Y596898D01*
Y589280D01*
X802626D02*
X807704D01*
X805165D01*
Y604515D01*
X802626Y601976D01*
X951226Y474983D02*
X953765Y477523D01*
Y482601D01*
X951226Y485140D01*
X941069D01*
X938530Y482601D01*
Y477523D01*
X941069Y474983D01*
X938530Y469905D02*
Y464827D01*
Y467366D01*
X948687D01*
Y469905D01*
X938530Y457209D02*
X948687D01*
Y449591D01*
X946147Y447052D01*
X938530D01*
X953765Y431817D02*
Y441974D01*
X946147D01*
X948687Y436896D01*
Y434356D01*
X946147Y431817D01*
X941069D01*
X938530Y434356D01*
Y439435D01*
X941069Y441974D01*
X897887Y628646D02*
X895347Y631185D01*
X890269D01*
X887730Y628646D01*
Y618489D01*
X890269Y615950D01*
X895347D01*
X897887Y618489D01*
X905504Y615950D02*
X910582D01*
X913122Y618489D01*
Y623568D01*
X910582Y626107D01*
X905504D01*
X902965Y623568D01*
Y618489D01*
X905504Y615950D01*
X918200Y626107D02*
Y618489D01*
X920739Y615950D01*
X928357D01*
Y626107D01*
X935974Y628646D02*
Y626107D01*
X933435D01*
X938513D01*
X935974D01*
Y618489D01*
X938513Y615950D01*
X946131D02*
X951209D01*
X948670D01*
Y631185D01*
X946131Y628646D01*
X1130296Y527053D02*
X1132835Y529593D01*
Y534671D01*
X1130296Y537210D01*
X1120139D01*
X1117600Y534671D01*
Y529593D01*
X1120139Y527053D01*
X1117600Y519436D02*
Y514357D01*
X1120139Y511818D01*
X1125217D01*
X1127757Y514357D01*
Y519436D01*
X1125217Y521975D01*
X1120139D01*
X1117600Y519436D01*
X1127757Y506740D02*
X1120139D01*
X1117600Y504201D01*
Y496583D01*
X1127757D01*
X1130296Y488966D02*
X1127757D01*
Y491505D01*
Y486426D01*
Y488966D01*
X1120139D01*
X1117600Y486426D01*
Y468652D02*
Y478809D01*
X1127757Y468652D01*
X1130296D01*
X1132835Y471191D01*
Y476270D01*
X1130296Y478809D01*
X937256Y607056D02*
X934717Y609595D01*
X929639D01*
X927100Y607056D01*
Y596899D01*
X929639Y594360D01*
X934717D01*
X937256Y596899D01*
X944874Y594360D02*
X949952D01*
X952492Y596899D01*
Y601978D01*
X949952Y604517D01*
X944874D01*
X942335Y601978D01*
Y596899D01*
X944874Y594360D01*
X957570Y604517D02*
Y596899D01*
X960109Y594360D01*
X967727D01*
Y604517D01*
X975344Y607056D02*
Y604517D01*
X972805D01*
X977883D01*
X975344D01*
Y596899D01*
X977883Y594360D01*
X995658Y609595D02*
X985501D01*
Y601978D01*
X990579Y604517D01*
X993118D01*
X995658Y601978D01*
Y596899D01*
X993118Y594360D01*
X988040D01*
X985501Y596899D01*
X1231895Y756920D02*
X1216660D01*
Y749303D01*
X1219199Y746763D01*
X1229356D01*
X1231895Y749303D01*
Y756920D01*
X1229356Y741685D02*
X1231895Y739146D01*
Y734067D01*
X1229356Y731528D01*
X1226816D01*
X1224277Y734067D01*
X1221738Y731528D01*
X1219199D01*
X1216660Y734067D01*
Y739146D01*
X1219199Y741685D01*
X1221738D01*
X1224277Y739146D01*
X1226816Y741685D01*
X1229356D01*
X1224277Y739146D02*
Y734067D01*
X1216660Y716293D02*
Y726450D01*
X1226816Y716293D01*
X1229356D01*
X1231895Y718832D01*
Y723911D01*
X1229356Y726450D01*
X1150615Y635000D02*
X1135380D01*
Y627383D01*
X1137919Y624843D01*
X1148076D01*
X1150615Y627383D01*
Y635000D01*
X1148076Y619765D02*
X1150615Y617226D01*
Y612147D01*
X1148076Y609608D01*
X1145536D01*
X1142997Y612147D01*
X1140458Y609608D01*
X1137919D01*
X1135380Y612147D01*
Y617226D01*
X1137919Y619765D01*
X1140458D01*
X1142997Y617226D01*
X1145536Y619765D01*
X1148076D01*
X1142997Y617226D02*
Y612147D01*
X1148076Y604530D02*
X1150615Y601991D01*
Y596912D01*
X1148076Y594373D01*
X1145536D01*
X1142997Y596912D01*
Y599451D01*
Y596912D01*
X1140458Y594373D01*
X1137919D01*
X1135380Y596912D01*
Y601991D01*
X1137919Y604530D01*
X805180Y668015D02*
Y652780D01*
X812797D01*
X815337Y655319D01*
Y665476D01*
X812797Y668015D01*
X805180D01*
X822954Y652780D02*
X828032D01*
X830572Y655319D01*
Y660397D01*
X828032Y662937D01*
X822954D01*
X820415Y660397D01*
Y655319D01*
X822954Y652780D01*
X835650Y662937D02*
Y655319D01*
X838189Y652780D01*
X845807D01*
Y662937D01*
X853424Y665476D02*
Y662937D01*
X850885D01*
X855963D01*
X853424D01*
Y655319D01*
X855963Y652780D01*
X863581D02*
X868659D01*
X866120D01*
Y668015D01*
X863581Y665476D01*
X1215390Y462275D02*
Y447040D01*
X1223007D01*
X1225546Y449579D01*
Y459736D01*
X1223007Y462275D01*
X1215390D01*
X1233164Y447040D02*
X1238242D01*
X1240782Y449579D01*
Y454658D01*
X1238242Y457197D01*
X1233164D01*
X1230625Y454658D01*
Y449579D01*
X1233164Y447040D01*
X1245860Y457197D02*
Y449579D01*
X1248399Y447040D01*
X1256017D01*
Y457197D01*
X1263634Y459736D02*
Y457197D01*
X1261095D01*
X1266173D01*
X1263634D01*
Y449579D01*
X1266173Y447040D01*
X1283948D02*
X1273791D01*
X1283948Y457197D01*
Y459736D01*
X1281408Y462275D01*
X1276330D01*
X1273791Y459736D01*
X905505Y480060D02*
X890270D01*
Y472443D01*
X892809Y469903D01*
X902966D01*
X905505Y472443D01*
Y480060D01*
X890270Y462286D02*
Y457207D01*
X892809Y454668D01*
X897887D01*
X900426Y457207D01*
Y462286D01*
X897887Y464825D01*
X892809D01*
X890270Y462286D01*
X900426Y449590D02*
X892809D01*
X890270Y447051D01*
Y439433D01*
X900426D01*
X902966Y431816D02*
X900426D01*
Y434355D01*
Y429276D01*
Y431816D01*
X892809D01*
X890270Y429276D01*
X905505Y411502D02*
Y421659D01*
X897887D01*
X900426Y416581D01*
Y414041D01*
X897887Y411502D01*
X892809D01*
X890270Y414041D01*
Y419120D01*
X892809Y421659D01*
X859795Y588010D02*
X875030D01*
Y598167D01*
X864873Y603245D02*
X875030Y613402D01*
X869951Y608323D01*
X864873Y613402D01*
X875030Y603245D01*
Y618480D02*
Y623559D01*
Y621019D01*
X859795D01*
X862334Y618480D01*
X1173480Y501645D02*
Y486410D01*
X1183636D01*
X1188715Y496567D02*
X1198872Y486410D01*
X1193793Y491488D01*
X1198872Y496567D01*
X1188715Y486410D01*
X1214107D02*
X1203950D01*
X1214107Y496567D01*
Y499106D01*
X1211568Y501645D01*
X1206489D01*
X1203950Y499106D01*
X951225Y558800D02*
X935990D01*
Y548643D01*
X946146Y543565D02*
X935990Y533408D01*
X941068Y538487D01*
X946146Y533408D01*
X935990Y543565D01*
X951225Y518173D02*
Y528330D01*
X943607D01*
X946146Y523251D01*
Y520712D01*
X943607Y518173D01*
X938529D01*
X935990Y520712D01*
Y525791D01*
X938529Y528330D01*
X1172206Y803909D02*
Y814066D01*
X1169667Y816605D01*
X1164589D01*
X1162050Y814066D01*
Y803909D01*
X1164589Y801370D01*
X1169667D01*
X1167128Y806448D02*
X1172206Y801370D01*
X1169667D02*
X1172206Y803909D01*
X1177285Y814066D02*
X1179824Y816605D01*
X1184902D01*
X1187442Y814066D01*
Y811527D01*
X1184902Y808988D01*
X1187442Y806448D01*
Y803909D01*
X1184902Y801370D01*
X1179824D01*
X1177285Y803909D01*
Y806448D01*
X1179824Y808988D01*
X1177285Y811527D01*
Y814066D01*
X1179824Y808988D02*
X1184902D01*
X1202677Y801370D02*
X1192520D01*
X1202677Y811527D01*
Y814066D01*
X1200137Y816605D01*
X1195059D01*
X1192520Y814066D01*
X1254756Y765809D02*
Y775966D01*
X1252217Y778505D01*
X1247139D01*
X1244600Y775966D01*
Y765809D01*
X1247139Y763270D01*
X1252217D01*
X1249678Y768348D02*
X1254756Y763270D01*
X1252217D02*
X1254756Y765809D01*
X1259835Y775966D02*
X1262374Y778505D01*
X1267452D01*
X1269992Y775966D01*
Y773427D01*
X1267452Y770888D01*
X1269992Y768348D01*
Y765809D01*
X1267452Y763270D01*
X1262374D01*
X1259835Y765809D01*
Y768348D01*
X1262374Y770888D01*
X1259835Y773427D01*
Y775966D01*
X1262374Y770888D02*
X1267452D01*
X1275070Y775966D02*
X1277609Y778505D01*
X1282688D01*
X1285227Y775966D01*
Y773427D01*
X1282688Y770888D01*
X1280148D01*
X1282688D01*
X1285227Y768348D01*
Y765809D01*
X1282688Y763270D01*
X1277609D01*
X1275070Y765809D01*
X1235706Y642619D02*
Y652776D01*
X1233167Y655315D01*
X1228089D01*
X1225550Y652776D01*
Y642619D01*
X1228089Y640080D01*
X1233167D01*
X1230628Y645158D02*
X1235706Y640080D01*
X1233167D02*
X1235706Y642619D01*
X1240785Y652776D02*
X1243324Y655315D01*
X1248402D01*
X1250942Y652776D01*
Y650237D01*
X1248402Y647698D01*
X1250942Y645158D01*
Y642619D01*
X1248402Y640080D01*
X1243324D01*
X1240785Y642619D01*
Y645158D01*
X1243324Y647698D01*
X1240785Y650237D01*
Y652776D01*
X1243324Y647698D02*
X1248402D01*
X1263637Y640080D02*
Y655315D01*
X1256020Y647698D01*
X1266177D01*
X1207766Y600709D02*
Y610866D01*
X1205227Y613405D01*
X1200149D01*
X1197610Y610866D01*
Y600709D01*
X1200149Y598170D01*
X1205227D01*
X1202688Y603248D02*
X1207766Y598170D01*
X1205227D02*
X1207766Y600709D01*
X1212845Y610866D02*
X1215384Y613405D01*
X1220462D01*
X1223002Y610866D01*
Y608327D01*
X1220462Y605788D01*
X1223002Y603248D01*
Y600709D01*
X1220462Y598170D01*
X1215384D01*
X1212845Y600709D01*
Y603248D01*
X1215384Y605788D01*
X1212845Y608327D01*
Y610866D01*
X1215384Y605788D02*
X1220462D01*
X1238237Y613405D02*
X1228080D01*
Y605788D01*
X1233158Y608327D01*
X1235697D01*
X1238237Y605788D01*
Y600709D01*
X1235697Y598170D01*
X1230619D01*
X1228080Y600709D01*
X1125217Y1071879D02*
Y1082036D01*
X1122677Y1084575D01*
X1117599D01*
X1115060Y1082036D01*
Y1071879D01*
X1117599Y1069340D01*
X1122677D01*
X1120138Y1074418D02*
X1125217Y1069340D01*
X1122677D02*
X1125217Y1071879D01*
X1130295Y1082036D02*
X1132834Y1084575D01*
X1137912D01*
X1140452Y1082036D01*
Y1079497D01*
X1137912Y1076957D01*
X1140452Y1074418D01*
Y1071879D01*
X1137912Y1069340D01*
X1132834D01*
X1130295Y1071879D01*
Y1074418D01*
X1132834Y1076957D01*
X1130295Y1079497D01*
Y1082036D01*
X1132834Y1076957D02*
X1137912D01*
X1155687Y1084575D02*
X1150608Y1082036D01*
X1145530Y1076957D01*
Y1071879D01*
X1148069Y1069340D01*
X1153148D01*
X1155687Y1071879D01*
Y1074418D01*
X1153148Y1076957D01*
X1145530D01*
X763270Y567690D02*
X778505D01*
Y560073D01*
X775966Y557533D01*
X770887D01*
X768348Y560073D01*
Y567690D01*
Y562612D02*
X763270Y557533D01*
Y552455D02*
Y547377D01*
Y549916D01*
X778505D01*
X775966Y552455D01*
X763270Y539759D02*
Y534681D01*
Y537220D01*
X778505D01*
X775966Y539759D01*
X774700Y450850D02*
Y466085D01*
X782317D01*
X784856Y463546D01*
Y458467D01*
X782317Y455928D01*
X774700D01*
X779778D02*
X784856Y450850D01*
X789935D02*
X795013D01*
X792474D01*
Y466085D01*
X789935Y463546D01*
X812787Y450850D02*
X802631D01*
X812787Y461007D01*
Y463546D01*
X810248Y466085D01*
X805170D01*
X802631Y463546D01*
X814070Y589280D02*
Y604515D01*
X821687D01*
X824227Y601976D01*
Y596898D01*
X821687Y594358D01*
X814070D01*
X819148D02*
X824227Y589280D01*
X829305D02*
X834383D01*
X831844D01*
Y604515D01*
X829305Y601976D01*
X842001D02*
X844540Y604515D01*
X849618D01*
X852158Y601976D01*
Y599437D01*
X849618Y596898D01*
X847079D01*
X849618D01*
X852158Y594358D01*
Y591819D01*
X849618Y589280D01*
X844540D01*
X842001Y591819D01*
X660400Y547370D02*
X675635D01*
Y539753D01*
X673096Y537213D01*
X668017D01*
X665478Y539753D01*
Y547370D01*
Y542292D02*
X660400Y537213D01*
Y532135D02*
Y527057D01*
Y529596D01*
X675635D01*
X673096Y532135D01*
X660400Y511822D02*
X675635D01*
X668017Y519439D01*
Y509282D01*
X699770Y539750D02*
Y554985D01*
X707387D01*
X709927Y552446D01*
Y547368D01*
X707387Y544828D01*
X699770D01*
X704848D02*
X709927Y539750D01*
X715005D02*
X720083D01*
X717544D01*
Y554985D01*
X715005Y552446D01*
X737858Y554985D02*
X727701D01*
Y547368D01*
X732779Y549907D01*
X735318D01*
X737858Y547368D01*
Y542289D01*
X735318Y539750D01*
X730240D01*
X727701Y542289D01*
X695960Y515620D02*
X711195D01*
Y508003D01*
X708656Y505463D01*
X703577D01*
X701038Y508003D01*
Y515620D01*
Y510542D02*
X695960Y505463D01*
Y500385D02*
Y495307D01*
Y497846D01*
X711195D01*
X708656Y500385D01*
X711195Y477532D02*
X708656Y482611D01*
X703577Y487689D01*
X698499D01*
X695960Y485150D01*
Y480071D01*
X698499Y477532D01*
X701038D01*
X703577Y480071D01*
Y487689D01*
X1266190Y539750D02*
X1281425D01*
Y532132D01*
X1278886Y529593D01*
X1273807D01*
X1271268Y532132D01*
Y539750D01*
Y534672D02*
X1266190Y529593D01*
Y514358D02*
Y524515D01*
X1276347Y514358D01*
X1278886D01*
X1281425Y516897D01*
Y521976D01*
X1278886Y524515D01*
Y509280D02*
X1281425Y506741D01*
Y501662D01*
X1278886Y499123D01*
X1276347D01*
X1273807Y501662D01*
Y504202D01*
Y501662D01*
X1271268Y499123D01*
X1268729D01*
X1266190Y501662D01*
Y506741D01*
X1268729Y509280D01*
X1023620Y448310D02*
X1008385D01*
Y455928D01*
X1010924Y458467D01*
X1016002D01*
X1018541Y455928D01*
Y448310D01*
Y453388D02*
X1023620Y458467D01*
X1008385Y473702D02*
Y463545D01*
X1016002D01*
X1013463Y468623D01*
Y471163D01*
X1016002Y473702D01*
X1021081D01*
X1023620Y471163D01*
Y466084D01*
X1021081Y463545D01*
X1023620Y478780D02*
Y483858D01*
Y481319D01*
X1008385D01*
X1010924Y478780D01*
X1016000Y427990D02*
Y443225D01*
X1023617D01*
X1026156Y440686D01*
Y435607D01*
X1023617Y433068D01*
X1016000D01*
X1021078D02*
X1026156Y427990D01*
X1041392Y443225D02*
X1031235D01*
Y435607D01*
X1036313Y438147D01*
X1038852D01*
X1041392Y435607D01*
Y430529D01*
X1038852Y427990D01*
X1033774D01*
X1031235Y430529D01*
X1056627Y427990D02*
X1046470D01*
X1056627Y438147D01*
Y440686D01*
X1054088Y443225D01*
X1049009D01*
X1046470Y440686D01*
X962660Y491490D02*
X977895D01*
Y483872D01*
X975356Y481333D01*
X970277D01*
X967738Y483872D01*
Y491490D01*
Y486412D02*
X962660Y481333D01*
X977895Y466098D02*
Y476255D01*
X970277D01*
X972816Y471177D01*
Y468637D01*
X970277Y466098D01*
X965199D01*
X962660Y468637D01*
Y473716D01*
X965199Y476255D01*
X975356Y461020D02*
X977895Y458481D01*
Y453402D01*
X975356Y450863D01*
X972816D01*
X970277Y453402D01*
Y455942D01*
Y453402D01*
X967738Y450863D01*
X965199D01*
X962660Y453402D01*
Y458481D01*
X965199Y461020D01*
X880110Y353060D02*
Y368295D01*
X887727D01*
X890266Y365756D01*
Y360677D01*
X887727Y358138D01*
X880110D01*
X885188D02*
X890266Y353060D01*
X905502Y368295D02*
X895345D01*
Y360677D01*
X900423Y363217D01*
X902962D01*
X905502Y360677D01*
Y355599D01*
X902962Y353060D01*
X897884D01*
X895345Y355599D01*
X918197Y353060D02*
Y368295D01*
X910580Y360677D01*
X920737D01*
X876300Y382270D02*
Y397505D01*
X883917D01*
X886457Y394966D01*
Y389888D01*
X883917Y387348D01*
X876300D01*
X881378D02*
X886457Y382270D01*
X901692Y397505D02*
X891535D01*
Y389888D01*
X896613Y392427D01*
X899152D01*
X901692Y389888D01*
Y384809D01*
X899152Y382270D01*
X894074D01*
X891535Y384809D01*
X916927Y397505D02*
X906770D01*
Y389888D01*
X911848Y392427D01*
X914388D01*
X916927Y389888D01*
Y384809D01*
X914388Y382270D01*
X909309D01*
X906770Y384809D01*
X948690Y365760D02*
Y380995D01*
X956307D01*
X958847Y378456D01*
Y373377D01*
X956307Y370838D01*
X948690D01*
X953768D02*
X958847Y365760D01*
X974082Y380995D02*
X963925D01*
Y373377D01*
X969003Y375917D01*
X971542D01*
X974082Y373377D01*
Y368299D01*
X971542Y365760D01*
X966464D01*
X963925Y368299D01*
X989317Y380995D02*
X984238Y378456D01*
X979160Y373377D01*
Y368299D01*
X981699Y365760D01*
X986777D01*
X989317Y368299D01*
Y370838D01*
X986777Y373377D01*
X979160D01*
X840700Y752150D02*
Y767385D01*
X848317D01*
X850856Y764846D01*
Y759768D01*
X848317Y757228D01*
X840700D01*
X845778D02*
X850856Y752150D01*
X855935Y764846D02*
X858474Y767385D01*
X863552D01*
X866092Y764846D01*
Y762307D01*
X863552Y759768D01*
X866092Y757228D01*
Y754689D01*
X863552Y752150D01*
X858474D01*
X855935Y754689D01*
Y757228D01*
X858474Y759768D01*
X855935Y762307D01*
Y764846D01*
X858474Y759768D02*
X863552D01*
X881327Y752150D02*
X871170D01*
X881327Y762307D01*
Y764846D01*
X878787Y767385D01*
X873709D01*
X871170Y764846D01*
X885190Y788670D02*
Y803905D01*
X892807D01*
X895347Y801366D01*
Y796288D01*
X892807Y793748D01*
X885190D01*
X890268D02*
X895347Y788670D01*
X900425Y801366D02*
X902964Y803905D01*
X908042D01*
X910582Y801366D01*
Y798827D01*
X908042Y796288D01*
X910582Y793748D01*
Y791209D01*
X908042Y788670D01*
X902964D01*
X900425Y791209D01*
Y793748D01*
X902964Y796288D01*
X900425Y798827D01*
Y801366D01*
X902964Y796288D02*
X908042D01*
X915660Y801366D02*
X918199Y803905D01*
X923278D01*
X925817Y801366D01*
Y798827D01*
X923278Y796288D01*
X920738D01*
X923278D01*
X925817Y793748D01*
Y791209D01*
X923278Y788670D01*
X918199D01*
X915660Y791209D01*
X834390Y694690D02*
Y709925D01*
X842007D01*
X844547Y707386D01*
Y702308D01*
X842007Y699768D01*
X834390D01*
X839468D02*
X844547Y694690D01*
X849625Y707386D02*
X852164Y709925D01*
X857242D01*
X859782Y707386D01*
Y704847D01*
X857242Y702308D01*
X859782Y699768D01*
Y697229D01*
X857242Y694690D01*
X852164D01*
X849625Y697229D01*
Y699768D01*
X852164Y702308D01*
X849625Y704847D01*
Y707386D01*
X852164Y702308D02*
X857242D01*
X872477Y694690D02*
Y709925D01*
X864860Y702308D01*
X875017D01*
X924520Y729290D02*
Y744525D01*
X932137D01*
X934677Y741986D01*
Y736908D01*
X932137Y734368D01*
X924520D01*
X929598D02*
X934677Y729290D01*
X939755Y741986D02*
X942294Y744525D01*
X947372D01*
X949912Y741986D01*
Y739447D01*
X947372Y736908D01*
X949912Y734368D01*
Y731829D01*
X947372Y729290D01*
X942294D01*
X939755Y731829D01*
Y734368D01*
X942294Y736908D01*
X939755Y739447D01*
Y741986D01*
X942294Y736908D02*
X947372D01*
X965147Y744525D02*
X954990D01*
Y736908D01*
X960068Y739447D01*
X962607D01*
X965147Y736908D01*
Y731829D01*
X962607Y729290D01*
X957529D01*
X954990Y731829D01*
X843240Y658170D02*
Y673405D01*
X850857D01*
X853397Y670866D01*
Y665788D01*
X850857Y663248D01*
X843240D01*
X848318D02*
X853397Y658170D01*
X858475Y670866D02*
X861014Y673405D01*
X866092D01*
X868632Y670866D01*
Y668327D01*
X866092Y665788D01*
X868632Y663248D01*
Y660709D01*
X866092Y658170D01*
X861014D01*
X858475Y660709D01*
Y663248D01*
X861014Y665788D01*
X858475Y668327D01*
Y670866D01*
X861014Y665788D02*
X866092D01*
X883867Y673405D02*
X878788Y670866D01*
X873710Y665788D01*
Y660709D01*
X876249Y658170D01*
X881327D01*
X883867Y660709D01*
Y663248D01*
X881327Y665788D01*
X873710D01*
X947380Y665790D02*
Y681025D01*
X954997D01*
X957536Y678486D01*
Y673408D01*
X954997Y670868D01*
X947380D01*
X952458D02*
X957536Y665790D01*
X962615Y678486D02*
X965154Y681025D01*
X970232D01*
X972772Y678486D01*
Y675947D01*
X970232Y673408D01*
X972772Y670868D01*
Y668329D01*
X970232Y665790D01*
X965154D01*
X962615Y668329D01*
Y670868D01*
X965154Y673408D01*
X962615Y675947D01*
Y678486D01*
X965154Y673408D02*
X970232D01*
X977850Y681025D02*
X988007D01*
Y678486D01*
X977850Y668329D01*
Y665790D01*
X1005800Y660710D02*
Y675945D01*
X1013417D01*
X1015956Y673406D01*
Y668328D01*
X1013417Y665788D01*
X1005800D01*
X1010878D02*
X1015956Y660710D01*
X1021035Y673406D02*
X1023574Y675945D01*
X1028652D01*
X1031192Y673406D01*
Y670867D01*
X1028652Y668328D01*
X1031192Y665788D01*
Y663249D01*
X1028652Y660710D01*
X1023574D01*
X1021035Y663249D01*
Y665788D01*
X1023574Y668328D01*
X1021035Y670867D01*
Y673406D01*
X1023574Y668328D02*
X1028652D01*
X1036270Y673406D02*
X1038809Y675945D01*
X1043887D01*
X1046427Y673406D01*
Y670867D01*
X1043887Y668328D01*
X1046427Y665788D01*
Y663249D01*
X1043887Y660710D01*
X1038809D01*
X1036270Y663249D01*
Y665788D01*
X1038809Y668328D01*
X1036270Y670867D01*
Y673406D01*
X1038809Y668328D02*
X1043887D01*
X907810Y656980D02*
Y672215D01*
X915427D01*
X917967Y669676D01*
Y664598D01*
X915427Y662058D01*
X907810D01*
X912888D02*
X917967Y656980D01*
X923045Y669676D02*
X925584Y672215D01*
X930662D01*
X933202Y669676D01*
Y667137D01*
X930662Y664598D01*
X933202Y662058D01*
Y659519D01*
X930662Y656980D01*
X925584D01*
X923045Y659519D01*
Y662058D01*
X925584Y664598D01*
X923045Y667137D01*
Y669676D01*
X925584Y664598D02*
X930662D01*
X938280Y659519D02*
X940819Y656980D01*
X945898D01*
X948437Y659519D01*
Y669676D01*
X945898Y672215D01*
X940819D01*
X938280Y669676D01*
Y667137D01*
X940819Y664598D01*
X948437D01*
X1049020Y1073150D02*
Y1088385D01*
X1056637D01*
X1059176Y1085846D01*
Y1080768D01*
X1056637Y1078228D01*
X1049020D01*
X1054098D02*
X1059176Y1073150D01*
X1064255Y1085846D02*
X1066794Y1088385D01*
X1071872D01*
X1074412Y1085846D01*
Y1083307D01*
X1071872Y1080768D01*
X1074412Y1078228D01*
Y1075689D01*
X1071872Y1073150D01*
X1066794D01*
X1064255Y1075689D01*
Y1078228D01*
X1066794Y1080768D01*
X1064255Y1083307D01*
Y1085846D01*
X1066794Y1080768D02*
X1071872D01*
X1079490Y1073150D02*
X1084568D01*
X1082029D01*
Y1088385D01*
X1079490Y1085846D01*
X1092186D02*
X1094725Y1088385D01*
X1099803D01*
X1102343Y1085846D01*
Y1075689D01*
X1099803Y1073150D01*
X1094725D01*
X1092186Y1075689D01*
Y1085846D01*
X1013460Y1078230D02*
X1028695D01*
Y1070612D01*
X1026156Y1068073D01*
X1021077D01*
X1018538Y1070612D01*
Y1078230D01*
Y1073152D02*
X1013460Y1068073D01*
X1026156Y1062995D02*
X1028695Y1060456D01*
Y1055377D01*
X1026156Y1052838D01*
X1023616D01*
X1021077Y1055377D01*
X1018538Y1052838D01*
X1015999D01*
X1013460Y1055377D01*
Y1060456D01*
X1015999Y1062995D01*
X1018538D01*
X1021077Y1060456D01*
X1023616Y1062995D01*
X1026156D01*
X1021077Y1060456D02*
Y1055377D01*
X1013460Y1047760D02*
Y1042682D01*
Y1045221D01*
X1028695D01*
X1026156Y1047760D01*
X1013460Y1035064D02*
Y1029986D01*
Y1032525D01*
X1028695D01*
X1026156Y1035064D01*
X1038860Y1005840D02*
X1054095D01*
Y998223D01*
X1051556Y995683D01*
X1046477D01*
X1043938Y998223D01*
Y1005840D01*
Y1000762D02*
X1038860Y995683D01*
X1051556Y990605D02*
X1054095Y988066D01*
Y982987D01*
X1051556Y980448D01*
X1049016D01*
X1046477Y982987D01*
X1043938Y980448D01*
X1041399D01*
X1038860Y982987D01*
Y988066D01*
X1041399Y990605D01*
X1043938D01*
X1046477Y988066D01*
X1049016Y990605D01*
X1051556D01*
X1046477Y988066D02*
Y982987D01*
X1038860Y975370D02*
Y970292D01*
Y972831D01*
X1054095D01*
X1051556Y975370D01*
X1038860Y952517D02*
Y962674D01*
X1049016Y952517D01*
X1051556D01*
X1054095Y955056D01*
Y960135D01*
X1051556Y962674D01*
X830580Y525780D02*
X845815D01*
Y518162D01*
X843276Y515623D01*
X838197D01*
X835658Y518162D01*
Y525780D01*
Y520702D02*
X830580Y515623D01*
Y508006D02*
X843276D01*
X838197D01*
Y510545D01*
Y505467D01*
Y508006D01*
X843276D01*
X845815Y505467D01*
X830580Y497849D02*
Y492771D01*
Y495310D01*
X845815D01*
X843276Y497849D01*
X830580Y485153D02*
Y480075D01*
Y482614D01*
X845815D01*
X843276Y485153D01*
X636270Y523240D02*
X651505D01*
Y515622D01*
X648966Y513083D01*
X643887D01*
X641348Y515622D01*
Y523240D01*
Y518162D02*
X636270Y513083D01*
Y505466D02*
X648966D01*
X643887D01*
Y508005D01*
Y502927D01*
Y505466D01*
X648966D01*
X651505Y502927D01*
X636270Y495309D02*
Y490231D01*
Y492770D01*
X651505D01*
X648966Y495309D01*
X636270Y472456D02*
Y482613D01*
X646426Y472456D01*
X648966D01*
X651505Y474996D01*
Y480074D01*
X648966Y482613D01*
X1262380Y575310D02*
Y590545D01*
X1269997D01*
X1272536Y588006D01*
Y582928D01*
X1269997Y580388D01*
X1262380D01*
X1267458D02*
X1272536Y575310D01*
X1280154D02*
Y588006D01*
Y582928D01*
X1277615D01*
X1282693D01*
X1280154D01*
Y588006D01*
X1282693Y590545D01*
X1300468Y575310D02*
X1290311D01*
X1300468Y585467D01*
Y588006D01*
X1297928Y590545D01*
X1292850D01*
X1290311Y588006D01*
X1305546Y575310D02*
X1310624D01*
X1308085D01*
Y590545D01*
X1305546Y588006D01*
X1065530Y476250D02*
X1050295D01*
Y483867D01*
X1052834Y486407D01*
X1057912D01*
X1060451Y483867D01*
Y476250D01*
Y481328D02*
X1065530Y486407D01*
Y494024D02*
X1052834D01*
X1057912D01*
Y491485D01*
Y496563D01*
Y494024D01*
X1052834D01*
X1050295Y496563D01*
Y514338D02*
Y504181D01*
X1057912D01*
X1055373Y509259D01*
Y511799D01*
X1057912Y514338D01*
X1062991D01*
X1065530Y511799D01*
Y506720D01*
X1062991Y504181D01*
X1065530Y519416D02*
Y524494D01*
Y521955D01*
X1050295D01*
X1052834Y519416D01*
X904240Y331470D02*
Y346705D01*
X911857D01*
X914397Y344166D01*
Y339087D01*
X911857Y336548D01*
X904240D01*
X909318D02*
X914397Y331470D01*
X922014D02*
Y344166D01*
Y339087D01*
X919475D01*
X924553D01*
X922014D01*
Y344166D01*
X924553Y346705D01*
X942327D02*
X932171D01*
Y339087D01*
X937249Y341627D01*
X939788D01*
X942327Y339087D01*
Y334009D01*
X939788Y331470D01*
X934710D01*
X932171Y334009D01*
X957563Y331470D02*
X947406D01*
X957563Y341627D01*
Y344166D01*
X955023Y346705D01*
X949945D01*
X947406Y344166D01*
X775970Y472440D02*
Y487675D01*
X783587D01*
X786126Y485136D01*
Y480057D01*
X783587Y477518D01*
X775970D01*
X781048D02*
X786126Y472440D01*
X791205D02*
X798822D01*
X801362Y474979D01*
X798822Y477518D01*
X793744D01*
X791205Y480057D01*
X793744Y482597D01*
X801362D01*
X806440Y472440D02*
X811518D01*
X808979D01*
Y487675D01*
X806440Y485136D01*
X1056640Y452120D02*
Y467355D01*
X1064257D01*
X1066796Y464816D01*
Y459738D01*
X1064257Y457198D01*
X1056640D01*
X1061718D02*
X1066796Y452120D01*
X1071875D02*
X1079492D01*
X1082032Y454659D01*
X1079492Y457198D01*
X1074414D01*
X1071875Y459738D01*
X1074414Y462277D01*
X1082032D01*
X1097267Y467355D02*
X1087110D01*
Y459738D01*
X1092188Y462277D01*
X1094727D01*
X1097267Y459738D01*
Y454659D01*
X1094727Y452120D01*
X1089649D01*
X1087110Y454659D01*
X705358Y914141D02*
Y901445D01*
X707897Y898906D01*
X712975D01*
X715515Y901445D01*
Y914141D01*
X730750Y898906D02*
X720593D01*
X730750Y909063D01*
Y911602D01*
X728210Y914141D01*
X723132D01*
X720593Y911602D01*
X872490Y524505D02*
Y511809D01*
X875029Y509270D01*
X880107D01*
X882646Y511809D01*
Y524505D01*
X887725Y509270D02*
X892803D01*
X890264D01*
Y524505D01*
X887725Y521966D01*
X900421Y509270D02*
X905499D01*
X902960D01*
Y524505D01*
X900421Y521966D01*
X741680Y447035D02*
Y434339D01*
X744219Y431800D01*
X749297D01*
X751836Y434339D01*
Y447035D01*
X756915Y431800D02*
X761993D01*
X759454D01*
Y447035D01*
X756915Y444496D01*
X779768Y431800D02*
X769611D01*
X779768Y441957D01*
Y444496D01*
X777228Y447035D01*
X772150D01*
X769611Y444496D01*
X1162050Y585465D02*
Y572769D01*
X1164589Y570230D01*
X1169667D01*
X1172206Y572769D01*
Y585465D01*
X1187442Y570230D02*
X1177285D01*
X1187442Y580387D01*
Y582926D01*
X1184902Y585465D01*
X1179824D01*
X1177285Y582926D01*
X1192520Y570230D02*
X1197598D01*
X1195059D01*
Y585465D01*
X1192520Y582926D01*
X1031240Y579115D02*
Y566419D01*
X1033779Y563880D01*
X1038857D01*
X1041396Y566419D01*
Y579115D01*
X1056632D02*
X1046475D01*
Y571497D01*
X1051553Y574037D01*
X1054092D01*
X1056632Y571497D01*
Y566419D01*
X1054092Y563880D01*
X1049014D01*
X1046475Y566419D01*
X1061710Y563880D02*
X1066788D01*
X1064249D01*
Y579115D01*
X1061710Y576576D01*
X988060Y422905D02*
Y410209D01*
X990599Y407670D01*
X995677D01*
X998216Y410209D01*
Y422905D01*
X1013452D02*
X1003295D01*
Y415288D01*
X1008373Y417827D01*
X1010912D01*
X1013452Y415288D01*
Y410209D01*
X1010912Y407670D01*
X1005834D01*
X1003295Y410209D01*
X1028687Y407670D02*
X1018530D01*
X1028687Y417827D01*
Y420366D01*
X1026148Y422905D01*
X1021069D01*
X1018530Y420366D01*
X1052830Y773425D02*
Y760729D01*
X1055369Y758190D01*
X1060447D01*
X1062987Y760729D01*
Y773425D01*
X1068065Y770886D02*
X1070604Y773425D01*
X1075682D01*
X1078222Y770886D01*
Y768347D01*
X1075682Y765807D01*
X1078222Y763268D01*
Y760729D01*
X1075682Y758190D01*
X1070604D01*
X1068065Y760729D01*
Y763268D01*
X1070604Y765807D01*
X1068065Y768347D01*
Y770886D01*
X1070604Y765807D02*
X1075682D01*
X1093457Y758190D02*
X1083300D01*
X1093457Y768347D01*
Y770886D01*
X1090918Y773425D01*
X1085839D01*
X1083300Y770886D01*
X1098550Y985515D02*
Y972819D01*
X1101089Y970280D01*
X1106167D01*
X1108707Y972819D01*
Y985515D01*
X1113785Y982976D02*
X1116324Y985515D01*
X1121402D01*
X1123942Y982976D01*
Y980437D01*
X1121402Y977897D01*
X1123942Y975358D01*
Y972819D01*
X1121402Y970280D01*
X1116324D01*
X1113785Y972819D01*
Y975358D01*
X1116324Y977897D01*
X1113785Y980437D01*
Y982976D01*
X1116324Y977897D02*
X1121402D01*
X1129020Y982976D02*
X1131559Y985515D01*
X1136637D01*
X1139177Y982976D01*
Y980437D01*
X1136637Y977897D01*
X1134098D01*
X1136637D01*
X1139177Y975358D01*
Y972819D01*
X1136637Y970280D01*
X1131559D01*
X1129020Y972819D01*
X1170940Y1010920D02*
X1186175D01*
Y1003303D01*
X1183636Y1000763D01*
X1178557D01*
X1176018Y1003303D01*
Y1010920D01*
Y1005842D02*
X1170940Y1000763D01*
X1186175Y995685D02*
Y985528D01*
X1183636D01*
X1173479Y995685D01*
X1170940D01*
Y980450D02*
Y975371D01*
Y977911D01*
X1186175D01*
X1183636Y980450D01*
X1170940Y957597D02*
Y967754D01*
X1181096Y957597D01*
X1183636D01*
X1186175Y960136D01*
Y965215D01*
X1183636Y967754D01*
X1165860Y1055370D02*
Y1070605D01*
X1173477D01*
X1176016Y1068066D01*
Y1062988D01*
X1173477Y1060448D01*
X1165860D01*
X1170938D02*
X1176016Y1055370D01*
X1181095Y1070605D02*
X1191252D01*
Y1068066D01*
X1181095Y1057909D01*
Y1055370D01*
X1196330D02*
X1201408D01*
X1198869D01*
Y1070605D01*
X1196330Y1068066D01*
X1209026Y1055370D02*
X1214104D01*
X1211565D01*
Y1070605D01*
X1209026Y1068066D01*
X1215390Y1035050D02*
Y1050285D01*
X1223007D01*
X1225546Y1047746D01*
Y1042667D01*
X1223007Y1040128D01*
X1215390D01*
X1220468D02*
X1225546Y1035050D01*
X1230625Y1050285D02*
X1240782D01*
Y1047746D01*
X1230625Y1037589D01*
Y1035050D01*
X1245860D02*
X1250938D01*
X1248399D01*
Y1050285D01*
X1245860Y1047746D01*
X1258556D02*
X1261095Y1050285D01*
X1266173D01*
X1268713Y1047746D01*
Y1037589D01*
X1266173Y1035050D01*
X1261095D01*
X1258556Y1037589D01*
Y1047746D01*
X1285240Y985515D02*
Y972819D01*
X1287779Y970280D01*
X1292857D01*
X1295397Y972819D01*
Y985515D01*
X1300475D02*
X1310632D01*
Y982976D01*
X1300475Y972819D01*
Y970280D01*
X1315710Y982976D02*
X1318249Y985515D01*
X1323327D01*
X1325867Y982976D01*
Y980437D01*
X1323327Y977897D01*
X1320788D01*
X1323327D01*
X1325867Y975358D01*
Y972819D01*
X1323327Y970280D01*
X1318249D01*
X1315710Y972819D01*
X1304286Y1010919D02*
Y1021076D01*
X1301747Y1023615D01*
X1296669D01*
X1294130Y1021076D01*
Y1010919D01*
X1296669Y1008380D01*
X1301747D01*
X1299208Y1013458D02*
X1304286Y1008380D01*
X1301747D02*
X1304286Y1010919D01*
X1309365Y1023615D02*
X1319522D01*
Y1021076D01*
X1309365Y1010919D01*
Y1008380D01*
X1334757Y1023615D02*
X1329678Y1021076D01*
X1324600Y1015997D01*
Y1010919D01*
X1327139Y1008380D01*
X1332218D01*
X1334757Y1010919D01*
Y1013458D01*
X1332218Y1015997D01*
X1324600D01*
X664210Y907542D02*
Y922777D01*
X671827D01*
X674367Y920238D01*
Y915160D01*
X671827Y912620D01*
X664210D01*
X669288D02*
X674367Y907542D01*
X679445D02*
X684523D01*
X681984D01*
Y922777D01*
X679445Y920238D01*
X692141D02*
X694680Y922777D01*
X699758D01*
X702298Y920238D01*
Y910081D01*
X699758Y907542D01*
X694680D01*
X692141Y910081D01*
Y920238D01*
X717533Y907542D02*
X707376D01*
X717533Y917699D01*
Y920238D01*
X714993Y922777D01*
X709915D01*
X707376Y920238D01*
X664100Y889762D02*
Y904997D01*
X671717D01*
X674257Y902458D01*
Y897380D01*
X671717Y894840D01*
X664100D01*
X669178D02*
X674257Y889762D01*
X679335D02*
X684413D01*
X681874D01*
Y904997D01*
X679335Y902458D01*
X692031D02*
X694570Y904997D01*
X699648D01*
X702187Y902458D01*
Y892301D01*
X699648Y889762D01*
X694570D01*
X692031Y892301D01*
Y902458D01*
X707266D02*
X709805Y904997D01*
X714883D01*
X717422Y902458D01*
Y899919D01*
X714883Y897380D01*
X712344D01*
X714883D01*
X717422Y894840D01*
Y892301D01*
X714883Y889762D01*
X709805D01*
X707266Y892301D01*
X664100Y870712D02*
Y885947D01*
X671717D01*
X674257Y883408D01*
Y878329D01*
X671717Y875790D01*
X664100D01*
X669178D02*
X674257Y870712D01*
X679335D02*
X684413D01*
X681874D01*
Y885947D01*
X679335Y883408D01*
X692031Y870712D02*
X697109D01*
X694570D01*
Y885947D01*
X692031Y883408D01*
X714883Y870712D02*
X704727D01*
X714883Y880869D01*
Y883408D01*
X712344Y885947D01*
X707266D01*
X704727Y883408D01*
X664100Y852932D02*
Y868167D01*
X671717D01*
X674257Y865628D01*
Y860549D01*
X671717Y858010D01*
X664100D01*
X669178D02*
X674257Y852932D01*
X679335D02*
X684413D01*
X681874D01*
Y868167D01*
X679335Y865628D01*
X692031Y852932D02*
X697109D01*
X694570D01*
Y868167D01*
X692031Y865628D01*
X704727D02*
X707266Y868167D01*
X712344D01*
X714883Y865628D01*
Y863089D01*
X712344Y860549D01*
X709805D01*
X712344D01*
X714883Y858010D01*
Y855471D01*
X712344Y852932D01*
X707266D01*
X704727Y855471D01*
X664100Y835152D02*
Y850387D01*
X671717D01*
X674257Y847848D01*
Y842769D01*
X671717Y840230D01*
X664100D01*
X669178D02*
X674257Y835152D01*
X679335D02*
X684413D01*
X681874D01*
Y850387D01*
X679335Y847848D01*
X702187Y835152D02*
X692031D01*
X702187Y845309D01*
Y847848D01*
X699648Y850387D01*
X694570D01*
X692031Y847848D01*
X707266D02*
X709805Y850387D01*
X714883D01*
X717422Y847848D01*
Y845309D01*
X714883Y842769D01*
X712344D01*
X714883D01*
X717422Y840230D01*
Y837691D01*
X714883Y835152D01*
X709805D01*
X707266Y837691D01*
X662830Y790702D02*
Y805937D01*
X670447D01*
X672987Y803398D01*
Y798319D01*
X670447Y795780D01*
X662830D01*
X667908D02*
X672987Y790702D01*
X678065D02*
X683143D01*
X680604D01*
Y805937D01*
X678065Y803398D01*
X690761D02*
X693300Y805937D01*
X698378D01*
X700917Y803398D01*
Y800859D01*
X698378Y798319D01*
X695839D01*
X698378D01*
X700917Y795780D01*
Y793241D01*
X698378Y790702D01*
X693300D01*
X690761Y793241D01*
X716152Y790702D02*
X705996D01*
X716152Y800859D01*
Y803398D01*
X713613Y805937D01*
X708535D01*
X705996Y803398D01*
X801226Y807212D02*
Y822447D01*
X808843D01*
X811383Y819908D01*
Y814829D01*
X808843Y812290D01*
X801226D01*
X806304D02*
X811383Y807212D01*
X816461D02*
X821539D01*
X819000D01*
Y822447D01*
X816461Y819908D01*
X836774Y807212D02*
Y822447D01*
X829157Y814829D01*
X839314D01*
X854548Y807212D02*
X844392D01*
X854548Y817369D01*
Y819908D01*
X852009Y822447D01*
X846931D01*
X844392Y819908D01*
X801226Y789432D02*
Y804667D01*
X808843D01*
X811383Y802128D01*
Y797049D01*
X808843Y794510D01*
X801226D01*
X806304D02*
X811383Y789432D01*
X816461D02*
X821539D01*
X819000D01*
Y804667D01*
X816461Y802128D01*
X836774Y789432D02*
Y804667D01*
X829157Y797049D01*
X839314D01*
X844392Y802128D02*
X846931Y804667D01*
X852009D01*
X854548Y802128D01*
Y799589D01*
X852009Y797049D01*
X849470D01*
X852009D01*
X854548Y794510D01*
Y791971D01*
X852009Y789432D01*
X846931D01*
X844392Y791971D01*
X801226Y844042D02*
Y859277D01*
X808843D01*
X811383Y856738D01*
Y851659D01*
X808843Y849120D01*
X801226D01*
X806304D02*
X811383Y844042D01*
X816461D02*
X821539D01*
X819000D01*
Y859277D01*
X816461Y856738D01*
X839314Y859277D02*
X829157D01*
Y851659D01*
X834235Y854199D01*
X836774D01*
X839314Y851659D01*
Y846581D01*
X836774Y844042D01*
X831696D01*
X829157Y846581D01*
X854548Y844042D02*
X844392D01*
X854548Y854199D01*
Y856738D01*
X852009Y859277D01*
X846931D01*
X844392Y856738D01*
X801226Y826262D02*
Y841497D01*
X808843D01*
X811383Y838958D01*
Y833879D01*
X808843Y831340D01*
X801226D01*
X806304D02*
X811383Y826262D01*
X816461D02*
X821539D01*
X819000D01*
Y841497D01*
X816461Y838958D01*
X839314Y841497D02*
X829157D01*
Y833879D01*
X834235Y836419D01*
X836774D01*
X839314Y833879D01*
Y828801D01*
X836774Y826262D01*
X831696D01*
X829157Y828801D01*
X844392Y838958D02*
X846931Y841497D01*
X852009D01*
X854548Y838958D01*
Y836419D01*
X852009Y833879D01*
X849470D01*
X852009D01*
X854548Y831340D01*
Y828801D01*
X852009Y826262D01*
X846931D01*
X844392Y828801D01*
X801226Y880872D02*
Y896107D01*
X808843D01*
X811383Y893568D01*
Y888490D01*
X808843Y885950D01*
X801226D01*
X806304D02*
X811383Y880872D01*
X816461D02*
X821539D01*
X819000D01*
Y896107D01*
X816461Y893568D01*
X839314Y896107D02*
X834235Y893568D01*
X829157Y888490D01*
Y883411D01*
X831696Y880872D01*
X836774D01*
X839314Y883411D01*
Y885950D01*
X836774Y888490D01*
X829157D01*
X854548Y880872D02*
X844392D01*
X854548Y891029D01*
Y893568D01*
X852009Y896107D01*
X846931D01*
X844392Y893568D01*
X801226Y863092D02*
Y878327D01*
X808843D01*
X811383Y875788D01*
Y870710D01*
X808843Y868170D01*
X801226D01*
X806304D02*
X811383Y863092D01*
X816461D02*
X821539D01*
X819000D01*
Y878327D01*
X816461Y875788D01*
X839314Y878327D02*
X834235Y875788D01*
X829157Y870710D01*
Y865631D01*
X831696Y863092D01*
X836774D01*
X839314Y865631D01*
Y868170D01*
X836774Y870710D01*
X829157D01*
X844392Y875788D02*
X846931Y878327D01*
X852009D01*
X854548Y875788D01*
Y873249D01*
X852009Y870710D01*
X849470D01*
X852009D01*
X854548Y868170D01*
Y865631D01*
X852009Y863092D01*
X846931D01*
X844392Y865631D01*
X728980Y987552D02*
Y1002787D01*
X736597D01*
X739137Y1000248D01*
Y995170D01*
X736597Y992630D01*
X728980D01*
X734058D02*
X739137Y987552D01*
X744215D02*
X749293D01*
X746754D01*
Y1002787D01*
X744215Y1000248D01*
X756911Y1002787D02*
X767067D01*
Y1000248D01*
X756911Y990091D01*
Y987552D01*
X782303D02*
X772146D01*
X782303Y997709D01*
Y1000248D01*
X779763Y1002787D01*
X774685D01*
X772146Y1000248D01*
X728980Y964692D02*
Y979927D01*
X736597D01*
X739137Y977388D01*
Y972309D01*
X736597Y969770D01*
X728980D01*
X734058D02*
X739137Y964692D01*
X744215D02*
X749293D01*
X746754D01*
Y979927D01*
X744215Y977388D01*
X756911Y979927D02*
X767067D01*
Y977388D01*
X756911Y967231D01*
Y964692D01*
X772146Y977388D02*
X774685Y979927D01*
X779763D01*
X782303Y977388D01*
Y974849D01*
X779763Y972309D01*
X777224D01*
X779763D01*
X782303Y969770D01*
Y967231D01*
X779763Y964692D01*
X774685D01*
X772146Y967231D01*
D91*
X1042090Y749790D02*
G03*
X1042090Y749790I1250J0D01*
G01*
X1181170Y901860D02*
G03*
X1181170Y901860I1250J0D01*
G01*
X1103700Y1037750D02*
G03*
X1103700Y1037750I1250J0D01*
G01*
X1193020Y728300D02*
G03*
X1193020Y728300I1250J0D01*
G01*
X1152380Y603840D02*
G03*
X1152380Y603840I1250J0D01*
G01*
X1248480Y1001040D02*
G03*
X1248480Y1001040I1250J0D01*
G01*
X711200Y888820D02*
G03*
X711200Y888820I1250J0D01*
G01*
D92*
X1018794Y585510D02*
G03*
X1018794Y585510I2794J0D01*
G01*
X1147786Y569468D02*
G03*
X1147786Y569468I2794J0D01*
G01*
X915456Y522732D02*
G03*
X915456Y522732I2794J0D01*
G01*
X688406Y473456D02*
G03*
X688406Y473456I2794J0D01*
G01*
X985520Y363540D02*
G03*
X985520Y363540I2794J0D01*
G01*
X1018286Y533400D02*
Y579010D01*
X985780Y533400D02*
Y579010D01*
X1202690Y566166D02*
X1157080D01*
X1202690Y533660D02*
X1157080D01*
X1195324Y528160D02*
X1187260D01*
X1195324Y508000D02*
X1187260D01*
X911750Y526034D02*
X866140D01*
X911750Y558540D02*
X866140D01*
X876490Y562770D02*
X868426D01*
X876490Y582930D02*
X868426D01*
X696200Y433390D02*
X691200D01*
Y438390D01*
X731266Y433390D02*
Y438390D01*
Y433390D02*
X726440D01*
X731266Y468630D02*
Y473456D01*
X726440D01*
X696200D02*
X691200D01*
Y468630D02*
Y473456D01*
X981550Y539496D02*
Y547560D01*
X961390Y539496D02*
Y547560D01*
X1028380Y363540D02*
Y368540D01*
Y363540D02*
X1023380D01*
X1028380Y403606D02*
X1023380D01*
X1028380Y398780D02*
Y403606D01*
X993140D02*
X988314D01*
Y398780D02*
Y403606D01*
Y363540D02*
Y368540D01*
X993140Y363540D02*
X988314D01*
X1171100Y669100D02*
Y677164D01*
X1191260Y669100D02*
Y677164D01*
D93*
X1175310Y800000D02*
G03*
X1175310Y800000I500J0D01*
G01*
X1215950Y634900D02*
G03*
X1215950Y634900I500J0D01*
G01*
X1204560Y657450D02*
G03*
X1204560Y657450I500J0D01*
G01*
X1231530Y765260D02*
G03*
X1231530Y765260I500J0D01*
G01*
D94*
X731950Y875320D02*
G03*
X731950Y875320I3000J0D01*
G01*
D95*
X963120Y495554D02*
X957072D01*
X963120Y507650D02*
X957072D01*
X998680Y477774D02*
X992632D01*
X998680Y489870D02*
X992632D01*
X971296Y454152D02*
Y460200D01*
X959200Y454152D02*
Y460200D01*
X992378Y465836D02*
X986330D01*
X992378Y453740D02*
X986330D01*
X998680Y430784D02*
X992632D01*
X998680Y442880D02*
X992632D01*
X960374Y412290D02*
Y418338D01*
X972470Y412290D02*
Y418338D01*
X810514Y512620D02*
Y518668D01*
X822610Y512620D02*
Y518668D01*
X1242568Y517906D02*
X1236520D01*
X1242568Y505810D02*
X1236520D01*
X1255776Y536702D02*
Y542750D01*
X1243680Y536702D02*
Y542750D01*
X1255776Y568452D02*
Y574500D01*
X1243680Y568452D02*
Y574500D01*
X1135848Y829366D02*
X1129800D01*
X1135848Y817270D02*
X1129800D01*
X815594Y545640D02*
Y551688D01*
X827690Y545640D02*
Y551688D01*
X697690Y411734D02*
X691642D01*
X697690Y423830D02*
X691642D01*
X680974Y520240D02*
Y526288D01*
X693070Y520240D02*
Y526288D01*
X786384Y501190D02*
Y507238D01*
X798480Y501190D02*
Y507238D01*
X828500Y571754D02*
X822452D01*
X828500Y583850D02*
X822452D01*
X608584Y435150D02*
Y441198D01*
X620680Y435150D02*
Y441198D01*
X620776Y468122D02*
Y474170D01*
X608680Y468122D02*
Y474170D01*
X628904Y435150D02*
Y441198D01*
X641000Y435150D02*
Y441198D01*
X654304Y468170D02*
Y474218D01*
X666400Y468170D02*
Y474218D01*
X715264Y496110D02*
Y502158D01*
X727360Y496110D02*
Y502158D01*
X719328Y533146D02*
X713280D01*
X719328Y521050D02*
X713280D01*
X755904Y465630D02*
Y471678D01*
X768000Y465630D02*
Y471678D01*
X796036Y549402D02*
Y555450D01*
X783940Y549402D02*
Y555450D01*
X730710Y411734D02*
X724662D01*
X730710Y423830D02*
X724662D01*
X751078Y502666D02*
X745030D01*
X751078Y490570D02*
X745030D01*
X794210Y571754D02*
X788162D01*
X794210Y583850D02*
X788162D01*
X1027890Y334264D02*
X1021842D01*
X1027890Y346360D02*
X1021842D01*
X977090Y336804D02*
X971042D01*
X977090Y348900D02*
X971042D01*
X994918Y331216D02*
X988870D01*
X994918Y319120D02*
X988870D01*
X1051306Y365252D02*
Y371300D01*
X1039210Y365252D02*
Y371300D01*
X931164Y385620D02*
Y391668D01*
X943260Y385620D02*
Y391668D01*
X1030430Y477774D02*
X1024382D01*
X1030430Y489870D02*
X1024382D01*
X1026620Y316484D02*
X1020572D01*
X1026620Y328580D02*
X1020572D01*
X966930Y385064D02*
X960882D01*
X966930Y397160D02*
X960882D01*
X944070Y354584D02*
X938022D01*
X944070Y366680D02*
X938022D01*
X1041860Y453644D02*
X1035812D01*
X1041860Y465740D02*
X1035812D01*
X1051306Y397002D02*
Y403050D01*
X1039210Y397002D02*
Y403050D01*
X1176996Y718622D02*
Y724670D01*
X1164900Y718622D02*
Y724670D01*
X1116544Y665330D02*
Y671378D01*
X1128640Y665330D02*
Y671378D01*
X1258076Y796172D02*
Y802220D01*
X1245980Y796172D02*
Y802220D01*
X1257046Y614172D02*
Y620220D01*
X1244950Y614172D02*
Y620220D01*
X678688Y844296D02*
X672640D01*
X678688Y832200D02*
X672640D01*
X815800Y842264D02*
X809752D01*
X815800Y854360D02*
X809752D01*
X743458Y978916D02*
X737410D01*
X743458Y966820D02*
X737410D01*
X743458Y956056D02*
X737410D01*
X743458Y943960D02*
X737410D01*
X815800Y860044D02*
X809752D01*
X815800Y872140D02*
X809752D01*
X815800Y805434D02*
X809752D01*
X815800Y817530D02*
X809752D01*
X815800Y823214D02*
X809752D01*
X815800Y835310D02*
X809752D01*
X815800Y786384D02*
X809752D01*
X815800Y798480D02*
X809752D01*
X815800Y768604D02*
X809752D01*
X815800Y780700D02*
X809752D01*
X678688Y881126D02*
X672640D01*
X678688Y869030D02*
X672640D01*
X678688Y862076D02*
X672640D01*
X678688Y849980D02*
X672640D01*
X678688Y826516D02*
X672640D01*
X678688Y814420D02*
X672640D01*
X677418Y782066D02*
X671370D01*
X677418Y769970D02*
X671370D01*
X678688Y898906D02*
X672640D01*
X678688Y886810D02*
X672640D01*
D96*
X1054090Y707290D02*
X1049840D01*
Y711540D01*
X1093840Y707290D02*
X1089590D01*
X1093840D02*
Y711540D01*
Y747040D02*
Y751290D01*
X1089590D01*
X1054090D02*
X1049840D01*
Y747040D02*
Y751290D01*
X1186820Y910210D02*
Y918360D01*
X1193420D02*
X1186820D01*
X1216020Y910210D02*
Y918360D01*
X1209420D01*
X1138550Y1054250D02*
X1131950D01*
X1138550Y1046100D02*
Y1054250D01*
X1115950D02*
X1109350D01*
Y1046100D02*
Y1054250D01*
X1197170Y735450D02*
Y743450D01*
X1210670Y735450D02*
Y743450D01*
Y735450D02*
X1197170D01*
X1210670Y743450D02*
X1197170D01*
X1156530Y610990D02*
Y618990D01*
X1170030Y610990D02*
Y618990D01*
Y610990D02*
X1156530D01*
X1170030Y618990D02*
X1156530D01*
X1254130Y1009390D02*
Y1017540D01*
X1260730D02*
X1254130D01*
X1283330Y1009390D02*
Y1017540D01*
X1276730D01*
X760950Y806320D02*
X724950D01*
X760950Y885320D02*
X724950D01*
X760950Y806320D02*
Y885320D01*
X724950Y806320D02*
Y885320D01*
D97*
X974850Y563372D02*
X942848D01*
X974850Y589580D02*
X942848D01*
X1163828Y493268D02*
Y525270D01*
X1137620Y493268D02*
Y525270D01*
X894842Y569470D02*
Y601472D01*
X921050Y569470D02*
Y601472D01*
D98*
X982740Y770975D02*
Y771788D01*
X871180Y736605D02*
Y737418D01*
X998180Y693425D02*
Y694238D01*
D99*
X1059140Y668331D02*
D03*
X1197610Y964043D02*
D03*
X1174750Y1033886D02*
D03*
X1120140Y920750D02*
D03*
X1132840Y863600D02*
D03*
X1064260Y979170D02*
D03*
X1038860Y1055370D02*
D03*
D100*
X901660Y736910D02*
D03*
X906740Y777550D02*
D03*
X965160Y693730D02*
D03*
X904200Y665790D02*
D03*
X897890Y702310D02*
D03*
X968770Y664600D02*
D03*
X901660Y759770D02*
D03*
M02*
