%FSLAX44Y44*%
%MOMM*%
G71*
G01*
G75*
G04 Layer_Color=2752767*
%ADD10R,1.2192X0.8128*%
%ADD11R,0.6500X0.2500*%
%ADD12R,0.1900X0.7500*%
%ADD13R,1.6500X4.4000*%
%ADD14R,0.8128X1.2192*%
%ADD15R,0.3048X0.8128*%
%ADD16R,0.8128X0.3048*%
%ADD17R,0.6500X0.8500*%
%ADD18R,0.9500X0.6500*%
%ADD19R,2.0066X0.8128*%
%ADD20R,0.3556X1.4224*%
%ADD21R,1.2192X2.0066*%
%ADD22R,2.0066X1.2192*%
%ADD23R,1.0160X1.1176*%
%ADD24O,1.0000X0.2500*%
%ADD25O,0.2500X1.0000*%
%ADD26R,2.4500X2.4500*%
%ADD27R,0.8000X0.9000*%
%ADD28R,2.1000X0.7000*%
%ADD29R,0.7112X0.9144*%
%ADD30R,0.8890X0.3048*%
%ADD31R,0.2000X0.9100*%
%ADD32R,0.4500X0.5000*%
%ADD33R,0.8300X0.6300*%
%ADD34R,1.1176X1.0160*%
%ADD35O,1.6500X0.3000*%
%ADD36R,1.3000X1.9000*%
%ADD37R,0.9144X0.7112*%
%ADD38O,2.1000X0.3000*%
%ADD39O,0.3000X2.1000*%
%ADD40R,1.4224X0.3556*%
%ADD41R,0.8500X0.6500*%
%ADD42R,0.6500X0.9500*%
%ADD43R,0.8128X2.0066*%
%ADD44C,0.5080*%
%ADD45C,0.2540*%
%ADD46C,0.0000*%
%ADD47R,1.9500X2.0000*%
%ADD48R,0.6500X0.8500*%
%ADD49R,2.0000X1.9500*%
%ADD50R,1.2700X1.2700*%
%ADD51C,1.2700*%
%ADD52C,1.0160*%
%ADD53R,2.7178X2.7178*%
%ADD54R,1.0668X1.0670*%
%ADD55C,1.0670*%
%ADD56R,1.0670X1.0670*%
%ADD57R,2.7178X2.7178*%
%ADD58C,4.2000*%
%ADD59C,0.5000*%
%ADD60C,1.1540*%
%ADD61R,1.0670X1.0670*%
%ADD62C,1.5240*%
%ADD63C,0.9652*%
%ADD64C,0.4540*%
%ADD65C,1.0160*%
%ADD66C,2.0320*%
%ADD67C,1.7780*%
%ADD68C,1.8290*%
%ADD69C,5.2160*%
%ADD70C,1.5160*%
%ADD71C,1.9160*%
G04:AMPARAMS|DCode=72|XSize=2.424mm|YSize=2.424mm|CornerRadius=0mm|HoleSize=0mm|Usage=FLASHONLY|Rotation=0.000|XOffset=0mm|YOffset=0mm|HoleType=Round|Shape=Relief|Width=0.254mm|Gap=0.254mm|Entries=4|*
%AMTHD72*
7,0,0,2.4240,1.9160,0.2540,45*
%
%ADD72THD72*%
G04:AMPARAMS|DCode=73|XSize=2.286mm|YSize=2.286mm|CornerRadius=0mm|HoleSize=0mm|Usage=FLASHONLY|Rotation=0.000|XOffset=0mm|YOffset=0mm|HoleType=Round|Shape=Relief|Width=0.254mm|Gap=0.254mm|Entries=4|*
%AMTHD73*
7,0,0,2.2860,1.7780,0.2540,45*
%
%ADD73THD73*%
%ADD74C,2.6160*%
%ADD75C,1.7272*%
%ADD76C,1.2160*%
G04:AMPARAMS|DCode=77|XSize=2.2352mm|YSize=2.2352mm|CornerRadius=0mm|HoleSize=0mm|Usage=FLASHONLY|Rotation=0.000|XOffset=0mm|YOffset=0mm|HoleType=Round|Shape=Relief|Width=0.254mm|Gap=0.254mm|Entries=4|*
%AMTHD77*
7,0,0,2.2352,1.7272,0.2540,45*
%
%ADD77THD77*%
G04:AMPARAMS|DCode=78|XSize=2.337mm|YSize=2.337mm|CornerRadius=0mm|HoleSize=0mm|Usage=FLASHONLY|Rotation=0.000|XOffset=0mm|YOffset=0mm|HoleType=Round|Shape=Relief|Width=0.254mm|Gap=0.254mm|Entries=4|*
%AMTHD78*
7,0,0,2.3370,1.8290,0.2540,45*
%
%ADD78THD78*%
%ADD79O,1.1000X0.8000*%
%ADD80R,1.1000X0.8000*%
%ADD81R,2.4000X1.2000*%
%ADD82R,1.7000X0.3500*%
%ADD83R,1.1176X1.1000*%
%ADD84R,1.1000X1.1000*%
%ADD85R,1.1176X1.1176*%
%ADD86R,1.1000X1.1176*%
%ADD87R,1.1000X1.1176*%
%ADD88R,1.1000X1.1000*%
%ADD89R,1.1176X1.1000*%
%ADD90R,1.1176X1.1000*%
%ADD91C,0.2500*%
%ADD92C,0.1270*%
%ADD93C,0.1000*%
%ADD94C,0.6000*%
%ADD95C,0.1524*%
%ADD96C,0.2000*%
%ADD97C,0.2032*%
%ADD98C,0.4064*%
%ADD99R,0.7620X0.4572*%
%ADD100R,0.4572X0.7620*%
%ADD101R,1.2192X1.2000*%
%ADD102R,1.2000X1.2000*%
%ADD103R,1.2192X1.2192*%
%ADD104R,1.2000X1.2192*%
%ADD105R,1.2000X1.2192*%
%ADD106R,1.2000X1.2000*%
%ADD107R,1.2192X1.2000*%
%ADD108R,1.2000X1.2000*%
%ADD109R,1.4224X1.0160*%
%ADD110R,0.8532X0.4532*%
%ADD111R,0.3932X0.9532*%
%ADD112R,1.8532X4.6032*%
%ADD113R,1.0160X1.4224*%
%ADD114R,0.5080X1.0160*%
%ADD115R,1.0160X0.5080*%
%ADD116R,0.8532X1.0532*%
%ADD117R,1.1532X0.8532*%
%ADD118R,2.2098X1.0160*%
%ADD119R,0.5588X1.6256*%
%ADD120R,1.4224X2.2098*%
%ADD121R,2.2098X1.4224*%
%ADD122R,1.2192X1.3208*%
%ADD123O,1.2032X0.4532*%
%ADD124O,0.4532X1.2032*%
%ADD125R,2.6532X2.6532*%
%ADD126R,1.0032X1.1032*%
%ADD127R,2.3032X0.9032*%
%ADD128R,0.9144X1.1176*%
%ADD129R,1.0922X0.5080*%
%ADD130R,0.4032X1.1132*%
%ADD131R,0.6532X0.7032*%
%ADD132R,1.0332X0.8332*%
%ADD133R,1.3208X1.2192*%
%ADD134O,1.8532X0.5032*%
%ADD135R,1.5032X2.1032*%
%ADD136R,1.1176X0.9144*%
%ADD137O,2.3032X0.5032*%
%ADD138O,0.5032X2.3032*%
%ADD139R,1.6256X0.5588*%
%ADD140R,1.0532X0.8532*%
%ADD141R,0.8532X1.1532*%
%ADD142R,1.0160X2.2098*%
%ADD143R,2.1532X2.2032*%
%ADD144R,2.2032X2.1532*%
%ADD145R,1.4732X1.4732*%
%ADD146C,1.4732*%
%ADD147C,1.2192*%
%ADD148R,2.9210X2.9210*%
%ADD149R,1.2700X1.2702*%
%ADD150C,1.2702*%
%ADD151R,1.2702X1.2702*%
%ADD152R,2.9210X2.9210*%
%ADD153C,4.4032*%
%ADD154C,0.7032*%
%ADD155C,1.3572*%
%ADD156R,1.2702X1.2702*%
%ADD157C,1.1684*%
%ADD158C,0.6572*%
%ADD159O,1.3032X1.0032*%
%ADD160R,1.3032X1.0032*%
%ADD161R,2.6032X1.4032*%
%ADD162R,1.9032X0.5532*%
%ADD163R,0.4031X0.6048*%
%ADD164R,0.6048X0.4031*%
%ADD165C,0.0500*%
%ADD166C,0.1016*%
%ADD167R,0.3000X0.6096*%
%ADD168R,0.2794X0.6096*%
%ADD169R,0.9525X0.5080*%
%ADD170R,0.9525X0.5001*%
%ADD171R,0.5080X0.9525*%
%ADD172R,0.5001X0.9525*%
%ADD173R,0.6096X0.3000*%
%ADD174R,0.6096X0.2794*%
%ADD175C,0.0508*%
%ADD176C,0.1693*%
D92*
X561340Y1108710D02*
Y1118870D01*
X571500D01*
Y1108710D01*
X561340D01*
Y1083310D02*
Y1093470D01*
X571500D01*
Y1083310D01*
X561340D01*
X586740Y1108710D02*
Y1118870D01*
X596900D01*
Y1108710D01*
X586740D01*
Y1083310D02*
Y1093470D01*
X596900D01*
Y1083310D01*
X586740D01*
X745490Y453390D02*
X740410Y463550D01*
X750570D01*
X745490Y453390D01*
X810260Y377190D02*
X812800Y379730D01*
X815340D01*
X812800Y382270D01*
X815340Y384810D01*
X812800D01*
X810260Y387350D01*
X807720Y384810D01*
X805180D01*
X807720Y382270D01*
X805180Y379730D01*
X807720D01*
X810260Y377190D01*
X790260D02*
X792800Y379730D01*
X795340D01*
X792800Y382270D01*
X795340Y384810D01*
X792800D01*
X790260Y387350D01*
X787720Y384810D01*
X785180D01*
X787720Y382270D01*
X785180Y379730D01*
X787720D01*
X790260Y377190D01*
X770260D02*
X772800Y379730D01*
X775340D01*
X772800Y382270D01*
X775340Y384810D01*
X772800D01*
X770260Y387350D01*
X767720Y384810D01*
X765180D01*
X767720Y382270D01*
X765180Y379730D01*
X767720D01*
X770260Y377190D01*
X750260D02*
X752800Y379730D01*
X755340D01*
X752800Y382270D01*
X755340Y384810D01*
X752800D01*
X750260Y387350D01*
X747720Y384810D01*
X745180D01*
X747720Y382270D01*
X745180Y379730D01*
X747720D01*
X750260Y377190D01*
X730260D02*
X732800Y379730D01*
X735340D01*
X732800Y382270D01*
X735340Y384810D01*
X732800D01*
X730260Y387350D01*
X727720Y384810D01*
X725180D01*
X727720Y382270D01*
X725180Y379730D01*
X727720D01*
X730260Y377190D01*
X790260Y357190D02*
X792800Y359730D01*
X795340D01*
X792800Y362270D01*
X795340Y364810D01*
X792800D01*
X790260Y367350D01*
X787720Y364810D01*
X785180D01*
X787720Y362270D01*
X785180Y359730D01*
X787720D01*
X790260Y357190D01*
X770260D02*
X772800Y359730D01*
X775340D01*
X772800Y362270D01*
X775340Y364810D01*
X772800D01*
X770260Y367350D01*
X767720Y364810D01*
X765180D01*
X767720Y362270D01*
X765180Y359730D01*
X767720D01*
X770260Y357190D01*
X750260D02*
X752800Y359730D01*
X755340D01*
X752800Y362270D01*
X755340Y364810D01*
X752800D01*
X750260Y367350D01*
X747720Y364810D01*
X745180D01*
X747720Y362270D01*
X745180Y359730D01*
X747720D01*
X750260Y357190D01*
X730260D02*
X732800Y359730D01*
X735340D01*
X732800Y362270D01*
X735340Y364810D01*
X732800D01*
X730260Y367350D01*
X727720Y364810D01*
X725180D01*
X727720Y362270D01*
X725180Y359730D01*
X727720D01*
X730260Y357190D01*
X810260D02*
X812800Y359730D01*
X815340D01*
X812800Y362270D01*
X815340Y364810D01*
X812800D01*
X810260Y367350D01*
X807720Y364810D01*
X805180D01*
X807720Y362270D01*
X805180Y359730D01*
X807720D01*
X810260Y357190D01*
X1280160Y377190D02*
X1282700Y379730D01*
X1285240D01*
X1282700Y382270D01*
X1285240Y384810D01*
X1282700D01*
X1280160Y387350D01*
X1277620Y384810D01*
X1275080D01*
X1277620Y382270D01*
X1275080Y379730D01*
X1277620D01*
X1280160Y377190D01*
X1260160D02*
X1262700Y379730D01*
X1265240D01*
X1262700Y382270D01*
X1265240Y384810D01*
X1262700D01*
X1260160Y387350D01*
X1257620Y384810D01*
X1255080D01*
X1257620Y382270D01*
X1255080Y379730D01*
X1257620D01*
X1260160Y377190D01*
X1240160D02*
X1242700Y379730D01*
X1245240D01*
X1242700Y382270D01*
X1245240Y384810D01*
X1242700D01*
X1240160Y387350D01*
X1237620Y384810D01*
X1235080D01*
X1237620Y382270D01*
X1235080Y379730D01*
X1237620D01*
X1240160Y377190D01*
X1220160D02*
X1222700Y379730D01*
X1225240D01*
X1222700Y382270D01*
X1225240Y384810D01*
X1222700D01*
X1220160Y387350D01*
X1217620Y384810D01*
X1215080D01*
X1217620Y382270D01*
X1215080Y379730D01*
X1217620D01*
X1220160Y377190D01*
X1200160D02*
X1202700Y379730D01*
X1205240D01*
X1202700Y382270D01*
X1205240Y384810D01*
X1202700D01*
X1200160Y387350D01*
X1197620Y384810D01*
X1195080D01*
X1197620Y382270D01*
X1195080Y379730D01*
X1197620D01*
X1200160Y377190D01*
X1260160Y357190D02*
X1262700Y359730D01*
X1265240D01*
X1262700Y362270D01*
X1265240Y364810D01*
X1262700D01*
X1260160Y367350D01*
X1257620Y364810D01*
X1255080D01*
X1257620Y362270D01*
X1255080Y359730D01*
X1257620D01*
X1260160Y357190D01*
X1240160D02*
X1242700Y359730D01*
X1245240D01*
X1242700Y362270D01*
X1245240Y364810D01*
X1242700D01*
X1240160Y367350D01*
X1237620Y364810D01*
X1235080D01*
X1237620Y362270D01*
X1235080Y359730D01*
X1237620D01*
X1240160Y357190D01*
X1220160D02*
X1222700Y359730D01*
X1225240D01*
X1222700Y362270D01*
X1225240Y364810D01*
X1222700D01*
X1220160Y367350D01*
X1217620Y364810D01*
X1215080D01*
X1217620Y362270D01*
X1215080Y359730D01*
X1217620D01*
X1220160Y357190D01*
X1200160D02*
X1202700Y359730D01*
X1205240D01*
X1202700Y362270D01*
X1205240Y364810D01*
X1202700D01*
X1200160Y367350D01*
X1197620Y364810D01*
X1195080D01*
X1197620Y362270D01*
X1195080Y359730D01*
X1197620D01*
X1200160Y357190D01*
X1280160D02*
X1282700Y359730D01*
X1285240D01*
X1282700Y362270D01*
X1285240Y364810D01*
X1282700D01*
X1280160Y367350D01*
X1277620Y364810D01*
X1275080D01*
X1277620Y362270D01*
X1275080Y359730D01*
X1277620D01*
X1280160Y357190D01*
X1096010Y392430D02*
X1090930Y402590D01*
X1101090D01*
X1096010Y392430D01*
X604520Y692150D02*
X599440Y702310D01*
X609600D01*
X604520Y692150D01*
X595630Y1175410D02*
X598170Y1180490D01*
X595630Y1185570D01*
X600710Y1183030D01*
X605790Y1185570D01*
X603250Y1180490D01*
X605790Y1175410D01*
X600710Y1177950D01*
X595630Y1175410D01*
X1357630Y318110D02*
X1360170Y323190D01*
X1357630Y328270D01*
X1362710Y325730D01*
X1367790Y328270D01*
X1365250Y323190D01*
X1367790Y318110D01*
X1362710Y320650D01*
X1357630Y318110D01*
X557530D02*
X560070Y323190D01*
X557530Y328270D01*
X562610Y325730D01*
X567690Y328270D01*
X565150Y323190D01*
X567690Y318110D01*
X562610Y320650D01*
X557530Y318110D01*
X1332230Y1175410D02*
X1334770Y1180490D01*
X1332230Y1185570D01*
X1337310Y1183030D01*
X1342390Y1185570D01*
X1339850Y1180490D01*
X1342390Y1175410D01*
X1337310Y1177950D01*
X1332230Y1175410D01*
X648970Y1101750D02*
Y1099210D01*
X654050D01*
Y1101750D01*
X656590D01*
Y1106830D01*
X654050D01*
Y1109370D01*
X648970D01*
Y1106830D01*
X646430D01*
Y1101750D01*
X648970D01*
Y1152550D02*
Y1150010D01*
X654050D01*
Y1152550D01*
X656590D01*
Y1157630D01*
X654050D01*
Y1160170D01*
X648970D01*
Y1157630D01*
X646430D01*
Y1152550D01*
X648970D01*
X646430Y1175410D02*
X648970D01*
X651510Y1177950D01*
X654050Y1175410D01*
X656590D01*
Y1177950D01*
X654050Y1180490D01*
X656590Y1183030D01*
Y1185570D01*
X654050D01*
X651510Y1183030D01*
X648970Y1185570D01*
X646430D01*
Y1183030D01*
X648970Y1180490D01*
X646430Y1177950D01*
Y1175410D01*
Y1150010D02*
X648970D01*
X651510Y1152550D01*
X654050Y1150010D01*
X656590D01*
Y1152550D01*
X654050Y1155090D01*
X656590Y1157630D01*
Y1160170D01*
X654050D01*
X651510Y1157630D01*
X648970Y1160170D01*
X646430D01*
Y1157630D01*
X648970Y1155090D01*
X646430Y1152550D01*
Y1150010D01*
X671830D02*
X674370D01*
X676910Y1152550D01*
X679450Y1150010D01*
X681990D01*
Y1152550D01*
X679450Y1155090D01*
X681990Y1157630D01*
Y1160170D01*
X679450D01*
X676910Y1157630D01*
X674370Y1160170D01*
X671830D01*
Y1157630D01*
X674370Y1155090D01*
X671830Y1152550D01*
Y1150010D01*
X697230D02*
X699770D01*
X702310Y1152550D01*
X704850Y1150010D01*
X707390D01*
Y1152550D01*
X704850Y1155090D01*
X707390Y1157630D01*
Y1160170D01*
X704850D01*
X702310Y1157630D01*
X699770Y1160170D01*
X697230D01*
Y1157630D01*
X699770Y1155090D01*
X697230Y1152550D01*
Y1150010D01*
X722630D02*
X725170D01*
X727710Y1152550D01*
X730250Y1150010D01*
X732790D01*
Y1152550D01*
X730250Y1155090D01*
X732790Y1157630D01*
Y1160170D01*
X730250D01*
X727710Y1157630D01*
X725170Y1160170D01*
X722630D01*
Y1157630D01*
X725170Y1155090D01*
X722630Y1152550D01*
Y1150010D01*
X748030D02*
X750570D01*
X753110Y1152550D01*
X755650Y1150010D01*
X758190D01*
Y1152550D01*
X755650Y1155090D01*
X758190Y1157630D01*
Y1160170D01*
X755650D01*
X753110Y1157630D01*
X750570Y1160170D01*
X748030D01*
Y1157630D01*
X750570Y1155090D01*
X748030Y1152550D01*
Y1150010D01*
X773430D02*
X775970D01*
X778510Y1152550D01*
X781050Y1150010D01*
X783590D01*
Y1152550D01*
X781050Y1155090D01*
X783590Y1157630D01*
Y1160170D01*
X781050D01*
X778510Y1157630D01*
X775970Y1160170D01*
X773430D01*
Y1157630D01*
X775970Y1155090D01*
X773430Y1152550D01*
Y1150010D01*
X798830D02*
X801370D01*
X803910Y1152550D01*
X806450Y1150010D01*
X808990D01*
Y1152550D01*
X806450Y1155090D01*
X808990Y1157630D01*
Y1160170D01*
X806450D01*
X803910Y1157630D01*
X801370Y1160170D01*
X798830D01*
Y1157630D01*
X801370Y1155090D01*
X798830Y1152550D01*
Y1150010D01*
X824230D02*
X826770D01*
X829310Y1152550D01*
X831850Y1150010D01*
X834390D01*
Y1152550D01*
X831850Y1155090D01*
X834390Y1157630D01*
Y1160170D01*
X831850D01*
X829310Y1157630D01*
X826770Y1160170D01*
X824230D01*
Y1157630D01*
X826770Y1155090D01*
X824230Y1152550D01*
Y1150010D01*
X849630D02*
X852170D01*
X854710Y1152550D01*
X857250Y1150010D01*
X859790D01*
Y1152550D01*
X857250Y1155090D01*
X859790Y1157630D01*
Y1160170D01*
X857250D01*
X854710Y1157630D01*
X852170Y1160170D01*
X849630D01*
Y1157630D01*
X852170Y1155090D01*
X849630Y1152550D01*
Y1150010D01*
X875030D02*
X877570D01*
X880110Y1152550D01*
X882650Y1150010D01*
X885190D01*
Y1152550D01*
X882650Y1155090D01*
X885190Y1157630D01*
Y1160170D01*
X882650D01*
X880110Y1157630D01*
X877570Y1160170D01*
X875030D01*
Y1157630D01*
X877570Y1155090D01*
X875030Y1152550D01*
Y1150010D01*
X900430D02*
X902970D01*
X905510Y1152550D01*
X908050Y1150010D01*
X910590D01*
Y1152550D01*
X908050Y1155090D01*
X910590Y1157630D01*
Y1160170D01*
X908050D01*
X905510Y1157630D01*
X902970Y1160170D01*
X900430D01*
Y1157630D01*
X902970Y1155090D01*
X900430Y1152550D01*
Y1150010D01*
X925830D02*
X928370D01*
X930910Y1152550D01*
X933450Y1150010D01*
X935990D01*
Y1152550D01*
X933450Y1155090D01*
X935990Y1157630D01*
Y1160170D01*
X933450D01*
X930910Y1157630D01*
X928370Y1160170D01*
X925830D01*
Y1157630D01*
X928370Y1155090D01*
X925830Y1152550D01*
Y1150010D01*
X951230D02*
X953770D01*
X956310Y1152550D01*
X958850Y1150010D01*
X961390D01*
Y1152550D01*
X958850Y1155090D01*
X961390Y1157630D01*
Y1160170D01*
X958850D01*
X956310Y1157630D01*
X953770Y1160170D01*
X951230D01*
Y1157630D01*
X953770Y1155090D01*
X951230Y1152550D01*
Y1150010D01*
X976630D02*
X979170D01*
X981710Y1152550D01*
X984250Y1150010D01*
X986790D01*
Y1152550D01*
X984250Y1155090D01*
X986790Y1157630D01*
Y1160170D01*
X984250D01*
X981710Y1157630D01*
X979170Y1160170D01*
X976630D01*
Y1157630D01*
X979170Y1155090D01*
X976630Y1152550D01*
Y1150010D01*
X1002030D02*
X1004570D01*
X1007110Y1152550D01*
X1009650Y1150010D01*
X1012190D01*
Y1152550D01*
X1009650Y1155090D01*
X1012190Y1157630D01*
Y1160170D01*
X1009650D01*
X1007110Y1157630D01*
X1004570Y1160170D01*
X1002030D01*
Y1157630D01*
X1004570Y1155090D01*
X1002030Y1152550D01*
Y1150010D01*
X1027430D02*
X1029970D01*
X1032510Y1152550D01*
X1035050Y1150010D01*
X1037590D01*
Y1152550D01*
X1035050Y1155090D01*
X1037590Y1157630D01*
Y1160170D01*
X1035050D01*
X1032510Y1157630D01*
X1029970Y1160170D01*
X1027430D01*
Y1157630D01*
X1029970Y1155090D01*
X1027430Y1152550D01*
Y1150010D01*
X1052830D02*
X1055370D01*
X1057910Y1152550D01*
X1060450Y1150010D01*
X1062990D01*
Y1152550D01*
X1060450Y1155090D01*
X1062990Y1157630D01*
Y1160170D01*
X1060450D01*
X1057910Y1157630D01*
X1055370Y1160170D01*
X1052830D01*
Y1157630D01*
X1055370Y1155090D01*
X1052830Y1152550D01*
Y1150010D01*
X1078230D02*
X1080770D01*
X1083310Y1152550D01*
X1085850Y1150010D01*
X1088390D01*
Y1152550D01*
X1085850Y1155090D01*
X1088390Y1157630D01*
Y1160170D01*
X1085850D01*
X1083310Y1157630D01*
X1080770Y1160170D01*
X1078230D01*
Y1157630D01*
X1080770Y1155090D01*
X1078230Y1152550D01*
Y1150010D01*
X1103630D02*
X1106170D01*
X1108710Y1152550D01*
X1111250Y1150010D01*
X1113790D01*
Y1152550D01*
X1111250Y1155090D01*
X1113790Y1157630D01*
Y1160170D01*
X1111250D01*
X1108710Y1157630D01*
X1106170Y1160170D01*
X1103630D01*
Y1157630D01*
X1106170Y1155090D01*
X1103630Y1152550D01*
Y1150010D01*
X1129030D02*
X1131570D01*
X1134110Y1152550D01*
X1136650Y1150010D01*
X1139190D01*
Y1152550D01*
X1136650Y1155090D01*
X1139190Y1157630D01*
Y1160170D01*
X1136650D01*
X1134110Y1157630D01*
X1131570Y1160170D01*
X1129030D01*
Y1157630D01*
X1131570Y1155090D01*
X1129030Y1152550D01*
Y1150010D01*
X1154430D02*
X1156970D01*
X1159510Y1152550D01*
X1162050Y1150010D01*
X1164590D01*
Y1152550D01*
X1162050Y1155090D01*
X1164590Y1157630D01*
Y1160170D01*
X1162050D01*
X1159510Y1157630D01*
X1156970Y1160170D01*
X1154430D01*
Y1157630D01*
X1156970Y1155090D01*
X1154430Y1152550D01*
Y1150010D01*
X1179830D02*
X1182370D01*
X1184910Y1152550D01*
X1187450Y1150010D01*
X1189990D01*
Y1152550D01*
X1187450Y1155090D01*
X1189990Y1157630D01*
Y1160170D01*
X1187450D01*
X1184910Y1157630D01*
X1182370Y1160170D01*
X1179830D01*
Y1157630D01*
X1182370Y1155090D01*
X1179830Y1152550D01*
Y1150010D01*
X1205230D02*
X1207770D01*
X1210310Y1152550D01*
X1212850Y1150010D01*
X1215390D01*
Y1152550D01*
X1212850Y1155090D01*
X1215390Y1157630D01*
Y1160170D01*
X1212850D01*
X1210310Y1157630D01*
X1207770Y1160170D01*
X1205230D01*
Y1157630D01*
X1207770Y1155090D01*
X1205230Y1152550D01*
Y1150010D01*
X1230630D02*
X1233170D01*
X1235710Y1152550D01*
X1238250Y1150010D01*
X1240790D01*
Y1152550D01*
X1238250Y1155090D01*
X1240790Y1157630D01*
Y1160170D01*
X1238250D01*
X1235710Y1157630D01*
X1233170Y1160170D01*
X1230630D01*
Y1157630D01*
X1233170Y1155090D01*
X1230630Y1152550D01*
Y1150010D01*
X1256030D02*
X1258570D01*
X1261110Y1152550D01*
X1263650Y1150010D01*
X1266190D01*
Y1152550D01*
X1263650Y1155090D01*
X1266190Y1157630D01*
Y1160170D01*
X1263650D01*
X1261110Y1157630D01*
X1258570Y1160170D01*
X1256030D01*
Y1157630D01*
X1258570Y1155090D01*
X1256030Y1152550D01*
Y1150010D01*
X1281430D02*
X1283970D01*
X1286510Y1152550D01*
X1289050Y1150010D01*
X1291590D01*
Y1152550D01*
X1289050Y1155090D01*
X1291590Y1157630D01*
Y1160170D01*
X1289050D01*
X1286510Y1157630D01*
X1283970Y1160170D01*
X1281430D01*
Y1157630D01*
X1283970Y1155090D01*
X1281430Y1152550D01*
Y1150010D01*
X671830Y1175410D02*
X674370D01*
X676910Y1177950D01*
X679450Y1175410D01*
X681990D01*
Y1177950D01*
X679450Y1180490D01*
X681990Y1183030D01*
Y1185570D01*
X679450D01*
X676910Y1183030D01*
X674370Y1185570D01*
X671830D01*
Y1183030D01*
X674370Y1180490D01*
X671830Y1177950D01*
Y1175410D01*
X697230D02*
X699770D01*
X702310Y1177950D01*
X704850Y1175410D01*
X707390D01*
Y1177950D01*
X704850Y1180490D01*
X707390Y1183030D01*
Y1185570D01*
X704850D01*
X702310Y1183030D01*
X699770Y1185570D01*
X697230D01*
Y1183030D01*
X699770Y1180490D01*
X697230Y1177950D01*
Y1175410D01*
X722630D02*
X725170D01*
X727710Y1177950D01*
X730250Y1175410D01*
X732790D01*
Y1177950D01*
X730250Y1180490D01*
X732790Y1183030D01*
Y1185570D01*
X730250D01*
X727710Y1183030D01*
X725170Y1185570D01*
X722630D01*
Y1183030D01*
X725170Y1180490D01*
X722630Y1177950D01*
Y1175410D01*
X748030D02*
X750570D01*
X753110Y1177950D01*
X755650Y1175410D01*
X758190D01*
Y1177950D01*
X755650Y1180490D01*
X758190Y1183030D01*
Y1185570D01*
X755650D01*
X753110Y1183030D01*
X750570Y1185570D01*
X748030D01*
Y1183030D01*
X750570Y1180490D01*
X748030Y1177950D01*
Y1175410D01*
X773430D02*
X775970D01*
X778510Y1177950D01*
X781050Y1175410D01*
X783590D01*
Y1177950D01*
X781050Y1180490D01*
X783590Y1183030D01*
Y1185570D01*
X781050D01*
X778510Y1183030D01*
X775970Y1185570D01*
X773430D01*
Y1183030D01*
X775970Y1180490D01*
X773430Y1177950D01*
Y1175410D01*
X798830D02*
X801370D01*
X803910Y1177950D01*
X806450Y1175410D01*
X808990D01*
Y1177950D01*
X806450Y1180490D01*
X808990Y1183030D01*
Y1185570D01*
X806450D01*
X803910Y1183030D01*
X801370Y1185570D01*
X798830D01*
Y1183030D01*
X801370Y1180490D01*
X798830Y1177950D01*
Y1175410D01*
X824230D02*
X826770D01*
X829310Y1177950D01*
X831850Y1175410D01*
X834390D01*
Y1177950D01*
X831850Y1180490D01*
X834390Y1183030D01*
Y1185570D01*
X831850D01*
X829310Y1183030D01*
X826770Y1185570D01*
X824230D01*
Y1183030D01*
X826770Y1180490D01*
X824230Y1177950D01*
Y1175410D01*
X849630D02*
X852170D01*
X854710Y1177950D01*
X857250Y1175410D01*
X859790D01*
Y1177950D01*
X857250Y1180490D01*
X859790Y1183030D01*
Y1185570D01*
X857250D01*
X854710Y1183030D01*
X852170Y1185570D01*
X849630D01*
Y1183030D01*
X852170Y1180490D01*
X849630Y1177950D01*
Y1175410D01*
X875030D02*
X877570D01*
X880110Y1177950D01*
X882650Y1175410D01*
X885190D01*
Y1177950D01*
X882650Y1180490D01*
X885190Y1183030D01*
Y1185570D01*
X882650D01*
X880110Y1183030D01*
X877570Y1185570D01*
X875030D01*
Y1183030D01*
X877570Y1180490D01*
X875030Y1177950D01*
Y1175410D01*
X900430D02*
X902970D01*
X905510Y1177950D01*
X908050Y1175410D01*
X910590D01*
Y1177950D01*
X908050Y1180490D01*
X910590Y1183030D01*
Y1185570D01*
X908050D01*
X905510Y1183030D01*
X902970Y1185570D01*
X900430D01*
Y1183030D01*
X902970Y1180490D01*
X900430Y1177950D01*
Y1175410D01*
X925830D02*
X928370D01*
X930910Y1177950D01*
X933450Y1175410D01*
X935990D01*
Y1177950D01*
X933450Y1180490D01*
X935990Y1183030D01*
Y1185570D01*
X933450D01*
X930910Y1183030D01*
X928370Y1185570D01*
X925830D01*
Y1183030D01*
X928370Y1180490D01*
X925830Y1177950D01*
Y1175410D01*
X951230D02*
X953770D01*
X956310Y1177950D01*
X958850Y1175410D01*
X961390D01*
Y1177950D01*
X958850Y1180490D01*
X961390Y1183030D01*
Y1185570D01*
X958850D01*
X956310Y1183030D01*
X953770Y1185570D01*
X951230D01*
Y1183030D01*
X953770Y1180490D01*
X951230Y1177950D01*
Y1175410D01*
X976630D02*
X979170D01*
X981710Y1177950D01*
X984250Y1175410D01*
X986790D01*
Y1177950D01*
X984250Y1180490D01*
X986790Y1183030D01*
Y1185570D01*
X984250D01*
X981710Y1183030D01*
X979170Y1185570D01*
X976630D01*
Y1183030D01*
X979170Y1180490D01*
X976630Y1177950D01*
Y1175410D01*
X1002030D02*
X1004570D01*
X1007110Y1177950D01*
X1009650Y1175410D01*
X1012190D01*
Y1177950D01*
X1009650Y1180490D01*
X1012190Y1183030D01*
Y1185570D01*
X1009650D01*
X1007110Y1183030D01*
X1004570Y1185570D01*
X1002030D01*
Y1183030D01*
X1004570Y1180490D01*
X1002030Y1177950D01*
Y1175410D01*
X1027430D02*
X1029970D01*
X1032510Y1177950D01*
X1035050Y1175410D01*
X1037590D01*
Y1177950D01*
X1035050Y1180490D01*
X1037590Y1183030D01*
Y1185570D01*
X1035050D01*
X1032510Y1183030D01*
X1029970Y1185570D01*
X1027430D01*
Y1183030D01*
X1029970Y1180490D01*
X1027430Y1177950D01*
Y1175410D01*
X1052830D02*
X1055370D01*
X1057910Y1177950D01*
X1060450Y1175410D01*
X1062990D01*
Y1177950D01*
X1060450Y1180490D01*
X1062990Y1183030D01*
Y1185570D01*
X1060450D01*
X1057910Y1183030D01*
X1055370Y1185570D01*
X1052830D01*
Y1183030D01*
X1055370Y1180490D01*
X1052830Y1177950D01*
Y1175410D01*
X1078230D02*
X1080770D01*
X1083310Y1177950D01*
X1085850Y1175410D01*
X1088390D01*
Y1177950D01*
X1085850Y1180490D01*
X1088390Y1183030D01*
Y1185570D01*
X1085850D01*
X1083310Y1183030D01*
X1080770Y1185570D01*
X1078230D01*
Y1183030D01*
X1080770Y1180490D01*
X1078230Y1177950D01*
Y1175410D01*
X1103630D02*
X1106170D01*
X1108710Y1177950D01*
X1111250Y1175410D01*
X1113790D01*
Y1177950D01*
X1111250Y1180490D01*
X1113790Y1183030D01*
Y1185570D01*
X1111250D01*
X1108710Y1183030D01*
X1106170Y1185570D01*
X1103630D01*
Y1183030D01*
X1106170Y1180490D01*
X1103630Y1177950D01*
Y1175410D01*
X1129030D02*
X1131570D01*
X1134110Y1177950D01*
X1136650Y1175410D01*
X1139190D01*
Y1177950D01*
X1136650Y1180490D01*
X1139190Y1183030D01*
Y1185570D01*
X1136650D01*
X1134110Y1183030D01*
X1131570Y1185570D01*
X1129030D01*
Y1183030D01*
X1131570Y1180490D01*
X1129030Y1177950D01*
Y1175410D01*
X1154430D02*
X1156970D01*
X1159510Y1177950D01*
X1162050Y1175410D01*
X1164590D01*
Y1177950D01*
X1162050Y1180490D01*
X1164590Y1183030D01*
Y1185570D01*
X1162050D01*
X1159510Y1183030D01*
X1156970Y1185570D01*
X1154430D01*
Y1183030D01*
X1156970Y1180490D01*
X1154430Y1177950D01*
Y1175410D01*
X1179830D02*
X1182370D01*
X1184910Y1177950D01*
X1187450Y1175410D01*
X1189990D01*
Y1177950D01*
X1187450Y1180490D01*
X1189990Y1183030D01*
Y1185570D01*
X1187450D01*
X1184910Y1183030D01*
X1182370Y1185570D01*
X1179830D01*
Y1183030D01*
X1182370Y1180490D01*
X1179830Y1177950D01*
Y1175410D01*
X1205230D02*
X1207770D01*
X1210310Y1177950D01*
X1212850Y1175410D01*
X1215390D01*
Y1177950D01*
X1212850Y1180490D01*
X1215390Y1183030D01*
Y1185570D01*
X1212850D01*
X1210310Y1183030D01*
X1207770Y1185570D01*
X1205230D01*
Y1183030D01*
X1207770Y1180490D01*
X1205230Y1177950D01*
Y1175410D01*
X1230630D02*
X1233170D01*
X1235710Y1177950D01*
X1238250Y1175410D01*
X1240790D01*
Y1177950D01*
X1238250Y1180490D01*
X1240790Y1183030D01*
Y1185570D01*
X1238250D01*
X1235710Y1183030D01*
X1233170Y1185570D01*
X1230630D01*
Y1183030D01*
X1233170Y1180490D01*
X1230630Y1177950D01*
Y1175410D01*
X1256030D02*
X1258570D01*
X1261110Y1177950D01*
X1263650Y1175410D01*
X1266190D01*
Y1177950D01*
X1263650Y1180490D01*
X1266190Y1183030D01*
Y1185570D01*
X1263650D01*
X1261110Y1183030D01*
X1258570Y1185570D01*
X1256030D01*
Y1183030D01*
X1258570Y1180490D01*
X1256030Y1177950D01*
Y1175410D01*
X1281430D02*
X1283970D01*
X1286510Y1177950D01*
X1289050Y1175410D01*
X1291590D01*
Y1177950D01*
X1289050Y1180490D01*
X1291590Y1183030D01*
Y1185570D01*
X1289050D01*
X1286510Y1183030D01*
X1283970Y1185570D01*
X1281430D01*
Y1183030D01*
X1283970Y1180490D01*
X1281430Y1177950D01*
Y1175410D01*
X646430Y1124610D02*
X648970D01*
X651510Y1127150D01*
X654050Y1124610D01*
X656590D01*
Y1127150D01*
X654050Y1129690D01*
X656590Y1132230D01*
Y1134770D01*
X654050D01*
X651510Y1132230D01*
X648970Y1134770D01*
X646430D01*
Y1132230D01*
X648970Y1129690D01*
X646430Y1127150D01*
Y1124610D01*
Y1099210D02*
X648970D01*
X651510Y1101750D01*
X654050Y1099210D01*
X656590D01*
Y1101750D01*
X654050Y1104290D01*
X656590Y1106830D01*
Y1109370D01*
X654050D01*
X651510Y1106830D01*
X648970Y1109370D01*
X646430D01*
Y1106830D01*
X648970Y1104290D01*
X646430Y1101750D01*
Y1099210D01*
X671830D02*
X674370D01*
X676910Y1101750D01*
X679450Y1099210D01*
X681990D01*
Y1101750D01*
X679450Y1104290D01*
X681990Y1106830D01*
Y1109370D01*
X679450D01*
X676910Y1106830D01*
X674370Y1109370D01*
X671830D01*
Y1106830D01*
X674370Y1104290D01*
X671830Y1101750D01*
Y1099210D01*
X697230D02*
X699770D01*
X702310Y1101750D01*
X704850Y1099210D01*
X707390D01*
Y1101750D01*
X704850Y1104290D01*
X707390Y1106830D01*
Y1109370D01*
X704850D01*
X702310Y1106830D01*
X699770Y1109370D01*
X697230D01*
Y1106830D01*
X699770Y1104290D01*
X697230Y1101750D01*
Y1099210D01*
X722630D02*
X725170D01*
X727710Y1101750D01*
X730250Y1099210D01*
X732790D01*
Y1101750D01*
X730250Y1104290D01*
X732790Y1106830D01*
Y1109370D01*
X730250D01*
X727710Y1106830D01*
X725170Y1109370D01*
X722630D01*
Y1106830D01*
X725170Y1104290D01*
X722630Y1101750D01*
Y1099210D01*
X748030D02*
X750570D01*
X753110Y1101750D01*
X755650Y1099210D01*
X758190D01*
Y1101750D01*
X755650Y1104290D01*
X758190Y1106830D01*
Y1109370D01*
X755650D01*
X753110Y1106830D01*
X750570Y1109370D01*
X748030D01*
Y1106830D01*
X750570Y1104290D01*
X748030Y1101750D01*
Y1099210D01*
X773430D02*
X775970D01*
X778510Y1101750D01*
X781050Y1099210D01*
X783590D01*
Y1101750D01*
X781050Y1104290D01*
X783590Y1106830D01*
Y1109370D01*
X781050D01*
X778510Y1106830D01*
X775970Y1109370D01*
X773430D01*
Y1106830D01*
X775970Y1104290D01*
X773430Y1101750D01*
Y1099210D01*
X798830D02*
X801370D01*
X803910Y1101750D01*
X806450Y1099210D01*
X808990D01*
Y1101750D01*
X806450Y1104290D01*
X808990Y1106830D01*
Y1109370D01*
X806450D01*
X803910Y1106830D01*
X801370Y1109370D01*
X798830D01*
Y1106830D01*
X801370Y1104290D01*
X798830Y1101750D01*
Y1099210D01*
X824230D02*
X826770D01*
X829310Y1101750D01*
X831850Y1099210D01*
X834390D01*
Y1101750D01*
X831850Y1104290D01*
X834390Y1106830D01*
Y1109370D01*
X831850D01*
X829310Y1106830D01*
X826770Y1109370D01*
X824230D01*
Y1106830D01*
X826770Y1104290D01*
X824230Y1101750D01*
Y1099210D01*
X849630D02*
X852170D01*
X854710Y1101750D01*
X857250Y1099210D01*
X859790D01*
Y1101750D01*
X857250Y1104290D01*
X859790Y1106830D01*
Y1109370D01*
X857250D01*
X854710Y1106830D01*
X852170Y1109370D01*
X849630D01*
Y1106830D01*
X852170Y1104290D01*
X849630Y1101750D01*
Y1099210D01*
X875030D02*
X877570D01*
X880110Y1101750D01*
X882650Y1099210D01*
X885190D01*
Y1101750D01*
X882650Y1104290D01*
X885190Y1106830D01*
Y1109370D01*
X882650D01*
X880110Y1106830D01*
X877570Y1109370D01*
X875030D01*
Y1106830D01*
X877570Y1104290D01*
X875030Y1101750D01*
Y1099210D01*
X900430D02*
X902970D01*
X905510Y1101750D01*
X908050Y1099210D01*
X910590D01*
Y1101750D01*
X908050Y1104290D01*
X910590Y1106830D01*
Y1109370D01*
X908050D01*
X905510Y1106830D01*
X902970Y1109370D01*
X900430D01*
Y1106830D01*
X902970Y1104290D01*
X900430Y1101750D01*
Y1099210D01*
X925830D02*
X928370D01*
X930910Y1101750D01*
X933450Y1099210D01*
X935990D01*
Y1101750D01*
X933450Y1104290D01*
X935990Y1106830D01*
Y1109370D01*
X933450D01*
X930910Y1106830D01*
X928370Y1109370D01*
X925830D01*
Y1106830D01*
X928370Y1104290D01*
X925830Y1101750D01*
Y1099210D01*
X951230D02*
X953770D01*
X956310Y1101750D01*
X958850Y1099210D01*
X961390D01*
Y1101750D01*
X958850Y1104290D01*
X961390Y1106830D01*
Y1109370D01*
X958850D01*
X956310Y1106830D01*
X953770Y1109370D01*
X951230D01*
Y1106830D01*
X953770Y1104290D01*
X951230Y1101750D01*
Y1099210D01*
X976630D02*
X979170D01*
X981710Y1101750D01*
X984250Y1099210D01*
X986790D01*
Y1101750D01*
X984250Y1104290D01*
X986790Y1106830D01*
Y1109370D01*
X984250D01*
X981710Y1106830D01*
X979170Y1109370D01*
X976630D01*
Y1106830D01*
X979170Y1104290D01*
X976630Y1101750D01*
Y1099210D01*
X1002030D02*
X1004570D01*
X1007110Y1101750D01*
X1009650Y1099210D01*
X1012190D01*
Y1101750D01*
X1009650Y1104290D01*
X1012190Y1106830D01*
Y1109370D01*
X1009650D01*
X1007110Y1106830D01*
X1004570Y1109370D01*
X1002030D01*
Y1106830D01*
X1004570Y1104290D01*
X1002030Y1101750D01*
Y1099210D01*
X1027430D02*
X1029970D01*
X1032510Y1101750D01*
X1035050Y1099210D01*
X1037590D01*
Y1101750D01*
X1035050Y1104290D01*
X1037590Y1106830D01*
Y1109370D01*
X1035050D01*
X1032510Y1106830D01*
X1029970Y1109370D01*
X1027430D01*
Y1106830D01*
X1029970Y1104290D01*
X1027430Y1101750D01*
Y1099210D01*
X1052830D02*
X1055370D01*
X1057910Y1101750D01*
X1060450Y1099210D01*
X1062990D01*
Y1101750D01*
X1060450Y1104290D01*
X1062990Y1106830D01*
Y1109370D01*
X1060450D01*
X1057910Y1106830D01*
X1055370Y1109370D01*
X1052830D01*
Y1106830D01*
X1055370Y1104290D01*
X1052830Y1101750D01*
Y1099210D01*
X1078230D02*
X1080770D01*
X1083310Y1101750D01*
X1085850Y1099210D01*
X1088390D01*
Y1101750D01*
X1085850Y1104290D01*
X1088390Y1106830D01*
Y1109370D01*
X1085850D01*
X1083310Y1106830D01*
X1080770Y1109370D01*
X1078230D01*
Y1106830D01*
X1080770Y1104290D01*
X1078230Y1101750D01*
Y1099210D01*
X1103630D02*
X1106170D01*
X1108710Y1101750D01*
X1111250Y1099210D01*
X1113790D01*
Y1101750D01*
X1111250Y1104290D01*
X1113790Y1106830D01*
Y1109370D01*
X1111250D01*
X1108710Y1106830D01*
X1106170Y1109370D01*
X1103630D01*
Y1106830D01*
X1106170Y1104290D01*
X1103630Y1101750D01*
Y1099210D01*
X1129030D02*
X1131570D01*
X1134110Y1101750D01*
X1136650Y1099210D01*
X1139190D01*
Y1101750D01*
X1136650Y1104290D01*
X1139190Y1106830D01*
Y1109370D01*
X1136650D01*
X1134110Y1106830D01*
X1131570Y1109370D01*
X1129030D01*
Y1106830D01*
X1131570Y1104290D01*
X1129030Y1101750D01*
Y1099210D01*
X1154430D02*
X1156970D01*
X1159510Y1101750D01*
X1162050Y1099210D01*
X1164590D01*
Y1101750D01*
X1162050Y1104290D01*
X1164590Y1106830D01*
Y1109370D01*
X1162050D01*
X1159510Y1106830D01*
X1156970Y1109370D01*
X1154430D01*
Y1106830D01*
X1156970Y1104290D01*
X1154430Y1101750D01*
Y1099210D01*
X1179830D02*
X1182370D01*
X1184910Y1101750D01*
X1187450Y1099210D01*
X1189990D01*
Y1101750D01*
X1187450Y1104290D01*
X1189990Y1106830D01*
Y1109370D01*
X1187450D01*
X1184910Y1106830D01*
X1182370Y1109370D01*
X1179830D01*
Y1106830D01*
X1182370Y1104290D01*
X1179830Y1101750D01*
Y1099210D01*
X1205230D02*
X1207770D01*
X1210310Y1101750D01*
X1212850Y1099210D01*
X1215390D01*
Y1101750D01*
X1212850Y1104290D01*
X1215390Y1106830D01*
Y1109370D01*
X1212850D01*
X1210310Y1106830D01*
X1207770Y1109370D01*
X1205230D01*
Y1106830D01*
X1207770Y1104290D01*
X1205230Y1101750D01*
Y1099210D01*
X1230630D02*
X1233170D01*
X1235710Y1101750D01*
X1238250Y1099210D01*
X1240790D01*
Y1101750D01*
X1238250Y1104290D01*
X1240790Y1106830D01*
Y1109370D01*
X1238250D01*
X1235710Y1106830D01*
X1233170Y1109370D01*
X1230630D01*
Y1106830D01*
X1233170Y1104290D01*
X1230630Y1101750D01*
Y1099210D01*
X1256030D02*
X1258570D01*
X1261110Y1101750D01*
X1263650Y1099210D01*
X1266190D01*
Y1101750D01*
X1263650Y1104290D01*
X1266190Y1106830D01*
Y1109370D01*
X1263650D01*
X1261110Y1106830D01*
X1258570Y1109370D01*
X1256030D01*
Y1106830D01*
X1258570Y1104290D01*
X1256030Y1101750D01*
Y1099210D01*
X1281430D02*
X1283970D01*
X1286510Y1101750D01*
X1289050Y1099210D01*
X1291590D01*
Y1101750D01*
X1289050Y1104290D01*
X1291590Y1106830D01*
Y1109370D01*
X1289050D01*
X1286510Y1106830D01*
X1283970Y1109370D01*
X1281430D01*
Y1106830D01*
X1283970Y1104290D01*
X1281430Y1101750D01*
Y1099210D01*
X671830Y1124610D02*
X674370D01*
X676910Y1127150D01*
X679450Y1124610D01*
X681990D01*
Y1127150D01*
X679450Y1129690D01*
X681990Y1132230D01*
Y1134770D01*
X679450D01*
X676910Y1132230D01*
X674370Y1134770D01*
X671830D01*
Y1132230D01*
X674370Y1129690D01*
X671830Y1127150D01*
Y1124610D01*
X697230D02*
X699770D01*
X702310Y1127150D01*
X704850Y1124610D01*
X707390D01*
Y1127150D01*
X704850Y1129690D01*
X707390Y1132230D01*
Y1134770D01*
X704850D01*
X702310Y1132230D01*
X699770Y1134770D01*
X697230D01*
Y1132230D01*
X699770Y1129690D01*
X697230Y1127150D01*
Y1124610D01*
X722630D02*
X725170D01*
X727710Y1127150D01*
X730250Y1124610D01*
X732790D01*
Y1127150D01*
X730250Y1129690D01*
X732790Y1132230D01*
Y1134770D01*
X730250D01*
X727710Y1132230D01*
X725170Y1134770D01*
X722630D01*
Y1132230D01*
X725170Y1129690D01*
X722630Y1127150D01*
Y1124610D01*
X748030D02*
X750570D01*
X753110Y1127150D01*
X755650Y1124610D01*
X758190D01*
Y1127150D01*
X755650Y1129690D01*
X758190Y1132230D01*
Y1134770D01*
X755650D01*
X753110Y1132230D01*
X750570Y1134770D01*
X748030D01*
Y1132230D01*
X750570Y1129690D01*
X748030Y1127150D01*
Y1124610D01*
X773430D02*
X775970D01*
X778510Y1127150D01*
X781050Y1124610D01*
X783590D01*
Y1127150D01*
X781050Y1129690D01*
X783590Y1132230D01*
Y1134770D01*
X781050D01*
X778510Y1132230D01*
X775970Y1134770D01*
X773430D01*
Y1132230D01*
X775970Y1129690D01*
X773430Y1127150D01*
Y1124610D01*
X798830D02*
X801370D01*
X803910Y1127150D01*
X806450Y1124610D01*
X808990D01*
Y1127150D01*
X806450Y1129690D01*
X808990Y1132230D01*
Y1134770D01*
X806450D01*
X803910Y1132230D01*
X801370Y1134770D01*
X798830D01*
Y1132230D01*
X801370Y1129690D01*
X798830Y1127150D01*
Y1124610D01*
X824230D02*
X826770D01*
X829310Y1127150D01*
X831850Y1124610D01*
X834390D01*
Y1127150D01*
X831850Y1129690D01*
X834390Y1132230D01*
Y1134770D01*
X831850D01*
X829310Y1132230D01*
X826770Y1134770D01*
X824230D01*
Y1132230D01*
X826770Y1129690D01*
X824230Y1127150D01*
Y1124610D01*
X849630D02*
X852170D01*
X854710Y1127150D01*
X857250Y1124610D01*
X859790D01*
Y1127150D01*
X857250Y1129690D01*
X859790Y1132230D01*
Y1134770D01*
X857250D01*
X854710Y1132230D01*
X852170Y1134770D01*
X849630D01*
Y1132230D01*
X852170Y1129690D01*
X849630Y1127150D01*
Y1124610D01*
X875030D02*
X877570D01*
X880110Y1127150D01*
X882650Y1124610D01*
X885190D01*
Y1127150D01*
X882650Y1129690D01*
X885190Y1132230D01*
Y1134770D01*
X882650D01*
X880110Y1132230D01*
X877570Y1134770D01*
X875030D01*
Y1132230D01*
X877570Y1129690D01*
X875030Y1127150D01*
Y1124610D01*
X900430D02*
X902970D01*
X905510Y1127150D01*
X908050Y1124610D01*
X910590D01*
Y1127150D01*
X908050Y1129690D01*
X910590Y1132230D01*
Y1134770D01*
X908050D01*
X905510Y1132230D01*
X902970Y1134770D01*
X900430D01*
Y1132230D01*
X902970Y1129690D01*
X900430Y1127150D01*
Y1124610D01*
X925830D02*
X928370D01*
X930910Y1127150D01*
X933450Y1124610D01*
X935990D01*
Y1127150D01*
X933450Y1129690D01*
X935990Y1132230D01*
Y1134770D01*
X933450D01*
X930910Y1132230D01*
X928370Y1134770D01*
X925830D01*
Y1132230D01*
X928370Y1129690D01*
X925830Y1127150D01*
Y1124610D01*
X951230D02*
X953770D01*
X956310Y1127150D01*
X958850Y1124610D01*
X961390D01*
Y1127150D01*
X958850Y1129690D01*
X961390Y1132230D01*
Y1134770D01*
X958850D01*
X956310Y1132230D01*
X953770Y1134770D01*
X951230D01*
Y1132230D01*
X953770Y1129690D01*
X951230Y1127150D01*
Y1124610D01*
X976630D02*
X979170D01*
X981710Y1127150D01*
X984250Y1124610D01*
X986790D01*
Y1127150D01*
X984250Y1129690D01*
X986790Y1132230D01*
Y1134770D01*
X984250D01*
X981710Y1132230D01*
X979170Y1134770D01*
X976630D01*
Y1132230D01*
X979170Y1129690D01*
X976630Y1127150D01*
Y1124610D01*
X1002030D02*
X1004570D01*
X1007110Y1127150D01*
X1009650Y1124610D01*
X1012190D01*
Y1127150D01*
X1009650Y1129690D01*
X1012190Y1132230D01*
Y1134770D01*
X1009650D01*
X1007110Y1132230D01*
X1004570Y1134770D01*
X1002030D01*
Y1132230D01*
X1004570Y1129690D01*
X1002030Y1127150D01*
Y1124610D01*
X1027430D02*
X1029970D01*
X1032510Y1127150D01*
X1035050Y1124610D01*
X1037590D01*
Y1127150D01*
X1035050Y1129690D01*
X1037590Y1132230D01*
Y1134770D01*
X1035050D01*
X1032510Y1132230D01*
X1029970Y1134770D01*
X1027430D01*
Y1132230D01*
X1029970Y1129690D01*
X1027430Y1127150D01*
Y1124610D01*
X1052830D02*
X1055370D01*
X1057910Y1127150D01*
X1060450Y1124610D01*
X1062990D01*
Y1127150D01*
X1060450Y1129690D01*
X1062990Y1132230D01*
Y1134770D01*
X1060450D01*
X1057910Y1132230D01*
X1055370Y1134770D01*
X1052830D01*
Y1132230D01*
X1055370Y1129690D01*
X1052830Y1127150D01*
Y1124610D01*
X1078230D02*
X1080770D01*
X1083310Y1127150D01*
X1085850Y1124610D01*
X1088390D01*
Y1127150D01*
X1085850Y1129690D01*
X1088390Y1132230D01*
Y1134770D01*
X1085850D01*
X1083310Y1132230D01*
X1080770Y1134770D01*
X1078230D01*
Y1132230D01*
X1080770Y1129690D01*
X1078230Y1127150D01*
Y1124610D01*
X1103630D02*
X1106170D01*
X1108710Y1127150D01*
X1111250Y1124610D01*
X1113790D01*
Y1127150D01*
X1111250Y1129690D01*
X1113790Y1132230D01*
Y1134770D01*
X1111250D01*
X1108710Y1132230D01*
X1106170Y1134770D01*
X1103630D01*
Y1132230D01*
X1106170Y1129690D01*
X1103630Y1127150D01*
Y1124610D01*
X1129030D02*
X1131570D01*
X1134110Y1127150D01*
X1136650Y1124610D01*
X1139190D01*
Y1127150D01*
X1136650Y1129690D01*
X1139190Y1132230D01*
Y1134770D01*
X1136650D01*
X1134110Y1132230D01*
X1131570Y1134770D01*
X1129030D01*
Y1132230D01*
X1131570Y1129690D01*
X1129030Y1127150D01*
Y1124610D01*
X1154430D02*
X1156970D01*
X1159510Y1127150D01*
X1162050Y1124610D01*
X1164590D01*
Y1127150D01*
X1162050Y1129690D01*
X1164590Y1132230D01*
Y1134770D01*
X1162050D01*
X1159510Y1132230D01*
X1156970Y1134770D01*
X1154430D01*
Y1132230D01*
X1156970Y1129690D01*
X1154430Y1127150D01*
Y1124610D01*
X1179830D02*
X1182370D01*
X1184910Y1127150D01*
X1187450Y1124610D01*
X1189990D01*
Y1127150D01*
X1187450Y1129690D01*
X1189990Y1132230D01*
Y1134770D01*
X1187450D01*
X1184910Y1132230D01*
X1182370Y1134770D01*
X1179830D01*
Y1132230D01*
X1182370Y1129690D01*
X1179830Y1127150D01*
Y1124610D01*
X1205230D02*
X1207770D01*
X1210310Y1127150D01*
X1212850Y1124610D01*
X1215390D01*
Y1127150D01*
X1212850Y1129690D01*
X1215390Y1132230D01*
Y1134770D01*
X1212850D01*
X1210310Y1132230D01*
X1207770Y1134770D01*
X1205230D01*
Y1132230D01*
X1207770Y1129690D01*
X1205230Y1127150D01*
Y1124610D01*
X1230630D02*
X1233170D01*
X1235710Y1127150D01*
X1238250Y1124610D01*
X1240790D01*
Y1127150D01*
X1238250Y1129690D01*
X1240790Y1132230D01*
Y1134770D01*
X1238250D01*
X1235710Y1132230D01*
X1233170Y1134770D01*
X1230630D01*
Y1132230D01*
X1233170Y1129690D01*
X1230630Y1127150D01*
Y1124610D01*
X1256030D02*
X1258570D01*
X1261110Y1127150D01*
X1263650Y1124610D01*
X1266190D01*
Y1127150D01*
X1263650Y1129690D01*
X1266190Y1132230D01*
Y1134770D01*
X1263650D01*
X1261110Y1132230D01*
X1258570Y1134770D01*
X1256030D01*
Y1132230D01*
X1258570Y1129690D01*
X1256030Y1127150D01*
Y1124610D01*
X1281430D02*
X1283970D01*
X1286510Y1127150D01*
X1289050Y1124610D01*
X1291590D01*
Y1127150D01*
X1289050Y1129690D01*
X1291590Y1132230D01*
Y1134770D01*
X1289050D01*
X1286510Y1132230D01*
X1283970Y1134770D01*
X1281430D01*
Y1132230D01*
X1283970Y1129690D01*
X1281430Y1127150D01*
Y1124610D01*
X1214120Y448310D02*
X1209040Y458470D01*
X1219200D01*
X1214120Y448310D01*
X916940Y378460D02*
X911860Y388620D01*
X922020D01*
X916940Y378460D01*
X1300480Y584200D02*
X1303020Y586740D01*
X1305560D01*
X1303020Y589280D01*
X1305560Y591820D01*
X1303020D01*
X1300480Y594360D01*
X1297940Y591820D01*
X1295400D01*
X1297940Y589280D01*
X1295400Y586740D01*
X1297940D01*
X1300480Y584200D01*
Y564200D02*
X1303020Y566740D01*
X1305560D01*
X1303020Y569280D01*
X1305560Y571820D01*
X1303020D01*
X1300480Y574360D01*
X1297940Y571820D01*
X1295400D01*
X1297940Y569280D01*
X1295400Y566740D01*
X1297940D01*
X1300480Y564200D01*
Y544200D02*
X1303020Y546740D01*
X1305560D01*
X1303020Y549280D01*
X1305560Y551820D01*
X1303020D01*
X1300480Y554360D01*
X1297940Y551820D01*
X1295400D01*
X1297940Y549280D01*
X1295400Y546740D01*
X1297940D01*
X1300480Y544200D01*
Y524200D02*
X1303020Y526740D01*
X1305560D01*
X1303020Y529280D01*
X1305560Y531820D01*
X1303020D01*
X1300480Y534360D01*
X1297940Y531820D01*
X1295400D01*
X1297940Y529280D01*
X1295400Y526740D01*
X1297940D01*
X1300480Y524200D01*
Y504200D02*
X1303020Y506740D01*
X1305560D01*
X1303020Y509280D01*
X1305560Y511820D01*
X1303020D01*
X1300480Y514360D01*
X1297940Y511820D01*
X1295400D01*
X1297940Y509280D01*
X1295400Y506740D01*
X1297940D01*
X1300480Y504200D01*
X1320480Y564200D02*
X1323020Y566740D01*
X1325560D01*
X1323020Y569280D01*
X1325560Y571820D01*
X1323020D01*
X1320480Y574360D01*
X1317940Y571820D01*
X1315400D01*
X1317940Y569280D01*
X1315400Y566740D01*
X1317940D01*
X1320480Y564200D01*
Y544200D02*
X1323020Y546740D01*
X1325560D01*
X1323020Y549280D01*
X1325560Y551820D01*
X1323020D01*
X1320480Y554360D01*
X1317940Y551820D01*
X1315400D01*
X1317940Y549280D01*
X1315400Y546740D01*
X1317940D01*
X1320480Y544200D01*
Y524200D02*
X1323020Y526740D01*
X1325560D01*
X1323020Y529280D01*
X1325560Y531820D01*
X1323020D01*
X1320480Y534360D01*
X1317940Y531820D01*
X1315400D01*
X1317940Y529280D01*
X1315400Y526740D01*
X1317940D01*
X1320480Y524200D01*
Y504200D02*
X1323020Y506740D01*
X1325560D01*
X1323020Y509280D01*
X1325560Y511820D01*
X1323020D01*
X1320480Y514360D01*
X1317940Y511820D01*
X1315400D01*
X1317940Y509280D01*
X1315400Y506740D01*
X1317940D01*
X1320480Y504200D01*
Y584200D02*
X1323020Y586740D01*
X1325560D01*
X1323020Y589280D01*
X1325560Y591820D01*
X1323020D01*
X1320480Y594360D01*
X1317940Y591820D01*
X1315400D01*
X1317940Y589280D01*
X1315400Y586740D01*
X1317940D01*
X1320480Y584200D01*
X626110Y414020D02*
X628650Y416560D01*
X631190D01*
X628650Y419100D01*
X631190Y421640D01*
X628650D01*
X626110Y424180D01*
X623570Y421640D01*
X621030D01*
X623570Y419100D01*
X621030Y416560D01*
X623570D01*
X626110Y414020D01*
Y434020D02*
X628650Y436560D01*
X631190D01*
X628650Y439100D01*
X631190Y441640D01*
X628650D01*
X626110Y444180D01*
X623570Y441640D01*
X621030D01*
X623570Y439100D01*
X621030Y436560D01*
X623570D01*
X626110Y434020D01*
Y454020D02*
X628650Y456560D01*
X631190D01*
X628650Y459100D01*
X631190Y461640D01*
X628650D01*
X626110Y464180D01*
X623570Y461640D01*
X621030D01*
X623570Y459100D01*
X621030Y456560D01*
X623570D01*
X626110Y454020D01*
Y474020D02*
X628650Y476560D01*
X631190D01*
X628650Y479100D01*
X631190Y481640D01*
X628650D01*
X626110Y484180D01*
X623570Y481640D01*
X621030D01*
X623570Y479100D01*
X621030Y476560D01*
X623570D01*
X626110Y474020D01*
Y494020D02*
X628650Y496560D01*
X631190D01*
X628650Y499100D01*
X631190Y501640D01*
X628650D01*
X626110Y504180D01*
X623570Y501640D01*
X621030D01*
X623570Y499100D01*
X621030Y496560D01*
X623570D01*
X626110Y494020D01*
X606110Y434020D02*
X608650Y436560D01*
X611190D01*
X608650Y439100D01*
X611190Y441640D01*
X608650D01*
X606110Y444180D01*
X603570Y441640D01*
X601030D01*
X603570Y439100D01*
X601030Y436560D01*
X603570D01*
X606110Y434020D01*
Y454020D02*
X608650Y456560D01*
X611190D01*
X608650Y459100D01*
X611190Y461640D01*
X608650D01*
X606110Y464180D01*
X603570Y461640D01*
X601030D01*
X603570Y459100D01*
X601030Y456560D01*
X603570D01*
X606110Y454020D01*
Y474020D02*
X608650Y476560D01*
X611190D01*
X608650Y479100D01*
X611190Y481640D01*
X608650D01*
X606110Y484180D01*
X603570Y481640D01*
X601030D01*
X603570Y479100D01*
X601030Y476560D01*
X603570D01*
X606110Y474020D01*
Y494020D02*
X608650Y496560D01*
X611190D01*
X608650Y499100D01*
X611190Y501640D01*
X608650D01*
X606110Y504180D01*
X603570Y501640D01*
X601030D01*
X603570Y499100D01*
X601030Y496560D01*
X603570D01*
X606110Y494020D01*
Y414020D02*
X608650Y416560D01*
X611190D01*
X608650Y419100D01*
X611190Y421640D01*
X608650D01*
X606110Y424180D01*
X603570Y421640D01*
X601030D01*
X603570Y419100D01*
X601030Y416560D01*
X603570D01*
X606110Y414020D01*
X624840Y833120D02*
X627380Y835660D01*
X629920D01*
X627380Y838200D01*
X629920Y840740D01*
X627380D01*
X624840Y843280D01*
X622300Y840740D01*
X619760D01*
X622300Y838200D01*
X619760Y835660D01*
X622300D01*
X624840Y833120D01*
Y853120D02*
X627380Y855660D01*
X629920D01*
X627380Y858200D01*
X629920Y860740D01*
X627380D01*
X624840Y863280D01*
X622300Y860740D01*
X619760D01*
X622300Y858200D01*
X619760Y855660D01*
X622300D01*
X624840Y853120D01*
Y873120D02*
X627380Y875660D01*
X629920D01*
X627380Y878200D01*
X629920Y880740D01*
X627380D01*
X624840Y883280D01*
X622300Y880740D01*
X619760D01*
X622300Y878200D01*
X619760Y875660D01*
X622300D01*
X624840Y873120D01*
Y893120D02*
X627380Y895660D01*
X629920D01*
X627380Y898200D01*
X629920Y900740D01*
X627380D01*
X624840Y903280D01*
X622300Y900740D01*
X619760D01*
X622300Y898200D01*
X619760Y895660D01*
X622300D01*
X624840Y893120D01*
Y913120D02*
X627380Y915660D01*
X629920D01*
X627380Y918200D01*
X629920Y920740D01*
X627380D01*
X624840Y923280D01*
X622300Y920740D01*
X619760D01*
X622300Y918200D01*
X619760Y915660D01*
X622300D01*
X624840Y913120D01*
X604840Y853120D02*
X607380Y855660D01*
X609920D01*
X607380Y858200D01*
X609920Y860740D01*
X607380D01*
X604840Y863280D01*
X602300Y860740D01*
X599760D01*
X602300Y858200D01*
X599760Y855660D01*
X602300D01*
X604840Y853120D01*
Y873120D02*
X607380Y875660D01*
X609920D01*
X607380Y878200D01*
X609920Y880740D01*
X607380D01*
X604840Y883280D01*
X602300Y880740D01*
X599760D01*
X602300Y878200D01*
X599760Y875660D01*
X602300D01*
X604840Y873120D01*
Y893120D02*
X607380Y895660D01*
X609920D01*
X607380Y898200D01*
X609920Y900740D01*
X607380D01*
X604840Y903280D01*
X602300Y900740D01*
X599760D01*
X602300Y898200D01*
X599760Y895660D01*
X602300D01*
X604840Y893120D01*
Y913120D02*
X607380Y915660D01*
X609920D01*
X607380Y918200D01*
X609920Y920740D01*
X607380D01*
X604840Y923280D01*
X602300Y920740D01*
X599760D01*
X602300Y918200D01*
X599760Y915660D01*
X602300D01*
X604840Y913120D01*
Y833120D02*
X607380Y835660D01*
X609920D01*
X607380Y838200D01*
X609920Y840740D01*
X607380D01*
X604840Y843280D01*
X602300Y840740D01*
X599760D01*
X602300Y838200D01*
X599760Y835660D01*
X602300D01*
X604840Y833120D01*
X1300480Y900430D02*
X1303020Y902970D01*
X1305560D01*
X1303020Y905510D01*
X1305560Y908050D01*
X1303020D01*
X1300480Y910590D01*
X1297940Y908050D01*
X1295400D01*
X1297940Y905510D01*
X1295400Y902970D01*
X1297940D01*
X1300480Y900430D01*
Y880430D02*
X1303020Y882970D01*
X1305560D01*
X1303020Y885510D01*
X1305560Y888050D01*
X1303020D01*
X1300480Y890590D01*
X1297940Y888050D01*
X1295400D01*
X1297940Y885510D01*
X1295400Y882970D01*
X1297940D01*
X1300480Y880430D01*
Y860430D02*
X1303020Y862970D01*
X1305560D01*
X1303020Y865510D01*
X1305560Y868050D01*
X1303020D01*
X1300480Y870590D01*
X1297940Y868050D01*
X1295400D01*
X1297940Y865510D01*
X1295400Y862970D01*
X1297940D01*
X1300480Y860430D01*
Y840430D02*
X1303020Y842970D01*
X1305560D01*
X1303020Y845510D01*
X1305560Y848050D01*
X1303020D01*
X1300480Y850590D01*
X1297940Y848050D01*
X1295400D01*
X1297940Y845510D01*
X1295400Y842970D01*
X1297940D01*
X1300480Y840430D01*
Y820430D02*
X1303020Y822970D01*
X1305560D01*
X1303020Y825510D01*
X1305560Y828050D01*
X1303020D01*
X1300480Y830590D01*
X1297940Y828050D01*
X1295400D01*
X1297940Y825510D01*
X1295400Y822970D01*
X1297940D01*
X1300480Y820430D01*
X1320480Y880430D02*
X1323020Y882970D01*
X1325560D01*
X1323020Y885510D01*
X1325560Y888050D01*
X1323020D01*
X1320480Y890590D01*
X1317940Y888050D01*
X1315400D01*
X1317940Y885510D01*
X1315400Y882970D01*
X1317940D01*
X1320480Y880430D01*
Y860430D02*
X1323020Y862970D01*
X1325560D01*
X1323020Y865510D01*
X1325560Y868050D01*
X1323020D01*
X1320480Y870590D01*
X1317940Y868050D01*
X1315400D01*
X1317940Y865510D01*
X1315400Y862970D01*
X1317940D01*
X1320480Y860430D01*
Y840430D02*
X1323020Y842970D01*
X1325560D01*
X1323020Y845510D01*
X1325560Y848050D01*
X1323020D01*
X1320480Y850590D01*
X1317940Y848050D01*
X1315400D01*
X1317940Y845510D01*
X1315400Y842970D01*
X1317940D01*
X1320480Y840430D01*
Y820430D02*
X1323020Y822970D01*
X1325560D01*
X1323020Y825510D01*
X1325560Y828050D01*
X1323020D01*
X1320480Y830590D01*
X1317940Y828050D01*
X1315400D01*
X1317940Y825510D01*
X1315400Y822970D01*
X1317940D01*
X1320480Y820430D01*
Y900430D02*
X1323020Y902970D01*
X1325560D01*
X1323020Y905510D01*
X1325560Y908050D01*
X1323020D01*
X1320480Y910590D01*
X1317940Y908050D01*
X1315400D01*
X1317940Y905510D01*
X1315400Y902970D01*
X1317940D01*
X1320480Y900430D01*
X1122630Y978660D02*
X1127710Y983740D01*
X1132790Y978660D01*
X1127710Y973580D01*
X1122630Y978660D01*
Y1060960D02*
X1127710Y1066040D01*
X1132790Y1060960D01*
X1127710Y1055880D01*
X1122630Y1060960D01*
X779820Y622610D02*
Y632770D01*
X789980D01*
Y622610D01*
X779820D01*
X781852Y624642D02*
Y630738D01*
X787948D01*
Y624642D01*
X781852D01*
X786130Y885190D02*
Y895350D01*
X796290D01*
Y885190D01*
X786130D01*
X788162Y887222D02*
Y893318D01*
X794258D01*
Y887222D01*
X788162D01*
X755650Y943610D02*
Y953770D01*
X765810D01*
Y943610D01*
X755650D01*
X757682Y945642D02*
Y951738D01*
X763778D01*
Y945642D01*
X757682D01*
X805180Y603250D02*
Y613410D01*
X815340D01*
Y603250D01*
X805180D01*
X807212Y605282D02*
Y611378D01*
X813308D01*
Y605282D01*
X807212D01*
X1286510Y462280D02*
Y472440D01*
X1296670D01*
Y462280D01*
X1286510D01*
X1288542Y464312D02*
Y470408D01*
X1294638D01*
Y464312D01*
X1288542D01*
X980440Y406400D02*
Y416560D01*
X990600D01*
Y406400D01*
X980440D01*
X982472Y408432D02*
Y414528D01*
X988568D01*
Y408432D01*
X982472D01*
X1178560Y427990D02*
Y438150D01*
X1188720D01*
Y427990D01*
X1178560D01*
X1180592Y430022D02*
Y436118D01*
X1186688D01*
Y430022D01*
X1180592D01*
X636750Y806450D02*
Y816610D01*
X646910D01*
Y806450D01*
X636750D01*
X638782Y808482D02*
Y814578D01*
X644878D01*
Y808482D01*
X638782D01*
X1296670Y1040130D02*
Y1050290D01*
X1306830D01*
Y1040130D01*
X1296670D01*
X1298702Y1042162D02*
Y1048258D01*
X1304798D01*
Y1042162D01*
X1298702D01*
X1254760Y417830D02*
Y427990D01*
X1264920D01*
Y417830D01*
X1254760D01*
X1256792Y419862D02*
Y425958D01*
X1262888D01*
Y419862D01*
X1256792D01*
X1259840Y439420D02*
Y449580D01*
X1270000D01*
Y439420D01*
X1259840D01*
X1261872Y441452D02*
Y447548D01*
X1267968D01*
Y441452D01*
X1261872D01*
X1215390Y1075690D02*
Y1085850D01*
X1225550D01*
Y1075690D01*
X1215390D01*
X1217422Y1077722D02*
Y1083818D01*
X1223518D01*
Y1077722D01*
X1217422D01*
X668020Y657860D02*
Y668020D01*
X678180D01*
Y657860D01*
X668020D01*
X670052Y659892D02*
Y665988D01*
X676148D01*
Y659892D01*
X670052D01*
X782560Y736710D02*
Y746870D01*
X792720D01*
Y736710D01*
X782560D01*
X784592Y738742D02*
Y744838D01*
X790688D01*
Y738742D01*
X784592D01*
X778550Y719130D02*
Y729290D01*
X788710D01*
Y719130D01*
X778550D01*
X780582Y721162D02*
Y727258D01*
X786678D01*
Y721162D01*
X780582D01*
X787440Y754690D02*
Y764850D01*
X797600D01*
Y754690D01*
X787440D01*
X789472Y756722D02*
Y762818D01*
X795568D01*
Y756722D01*
X789472D01*
X1186180Y675640D02*
Y685800D01*
X1196340D01*
Y675640D01*
X1186180D01*
X1188212Y677672D02*
Y683768D01*
X1194308D01*
Y677672D01*
X1188212D01*
X1186180Y769620D02*
Y779780D01*
X1196340D01*
Y769620D01*
X1186180D01*
X1188212Y771652D02*
Y777748D01*
X1194308D01*
Y771652D01*
X1188212D01*
X1151890Y586740D02*
Y596900D01*
X1162050D01*
Y586740D01*
X1151890D01*
X1153922Y588772D02*
Y594868D01*
X1160018D01*
Y588772D01*
X1153922D01*
X1170940Y537210D02*
Y547370D01*
X1181100D01*
Y537210D01*
X1170940D01*
X1172972Y539242D02*
Y545338D01*
X1179068D01*
Y539242D01*
X1172972D01*
X1154430Y770890D02*
Y781050D01*
X1164590D01*
Y770890D01*
X1154430D01*
X1156462Y772922D02*
Y779018D01*
X1162558D01*
Y772922D01*
X1156462D01*
X1135380Y781050D02*
Y791210D01*
X1145540D01*
Y781050D01*
X1135380D01*
X1137412Y783082D02*
Y789178D01*
X1143508D01*
Y783082D01*
X1137412D01*
X1184910Y572770D02*
Y582930D01*
X1195070D01*
Y572770D01*
X1184910D01*
X1186942Y574802D02*
Y580898D01*
X1193038D01*
Y574802D01*
X1186942D01*
X1270000Y492760D02*
Y502920D01*
X1280160D01*
Y492760D01*
X1270000D01*
X1272032Y494792D02*
Y500888D01*
X1278128D01*
Y494792D01*
X1272032D01*
X1270000Y509270D02*
Y519430D01*
X1280160D01*
Y509270D01*
X1270000D01*
X1272032Y511302D02*
Y517398D01*
X1278128D01*
Y511302D01*
X1272032D01*
X798830Y993140D02*
Y1003300D01*
X808990D01*
Y993140D01*
X798830D01*
X800862Y995172D02*
Y1001268D01*
X806958D01*
Y995172D01*
X800862D01*
X935355Y746125D02*
Y756285D01*
X945515D01*
Y746125D01*
X935355D01*
X937387Y748157D02*
Y754253D01*
X943483D01*
Y748157D01*
X937387D01*
X930910Y726440D02*
Y736600D01*
X941070D01*
Y726440D01*
X930910D01*
X932942Y728472D02*
Y734568D01*
X939038D01*
Y728472D01*
X932942D01*
X909320Y726440D02*
Y736600D01*
X919480D01*
Y726440D01*
X909320D01*
X911352Y728472D02*
Y734568D01*
X917448D01*
Y728472D01*
X911352D01*
X1076960Y881380D02*
Y891540D01*
X1087120D01*
Y881380D01*
X1076960D01*
X1078992Y883412D02*
Y889508D01*
X1085088D01*
Y883412D01*
X1078992D01*
X1216660Y570230D02*
Y580390D01*
X1226820D01*
Y570230D01*
X1216660D01*
X1218692Y572262D02*
Y578358D01*
X1224788D01*
Y572262D01*
X1218692D01*
X1225550Y782320D02*
Y792480D01*
X1235710D01*
Y782320D01*
X1225550D01*
X1227582Y784352D02*
Y790448D01*
X1233678D01*
Y784352D01*
X1227582D01*
X665480Y964130D02*
Y974290D01*
X675640D01*
Y964130D01*
X665480D01*
X667512Y966162D02*
Y972258D01*
X673608D01*
Y966162D01*
X667512D01*
X734060Y848360D02*
Y858520D01*
X744220D01*
Y848360D01*
X734060D01*
X736092Y850392D02*
Y856488D01*
X742188D01*
Y850392D01*
X736092D01*
X732790Y863600D02*
Y873760D01*
X742950D01*
Y863600D01*
X732790D01*
X734822Y865632D02*
Y871728D01*
X740918D01*
Y865632D01*
X734822D01*
X1069340Y661670D02*
Y671830D01*
X1079500D01*
Y661670D01*
X1069340D01*
X1071372Y663702D02*
Y669798D01*
X1077468D01*
Y663702D01*
X1071372D01*
X1054100Y648970D02*
Y659130D01*
X1064260D01*
Y648970D01*
X1054100D01*
X1056132Y651002D02*
Y657098D01*
X1062228D01*
Y651002D01*
X1056132D01*
X690880Y812800D02*
Y822960D01*
X701040D01*
Y812800D01*
X690880D01*
X692912Y814832D02*
Y820928D01*
X699008D01*
Y814832D01*
X692912D01*
X702310Y669290D02*
Y679450D01*
X712470D01*
Y669290D01*
X702310D01*
X704342Y671322D02*
Y677418D01*
X710438D01*
Y671322D01*
X704342D01*
X1156970Y665480D02*
Y675640D01*
X1167130D01*
Y665480D01*
X1156970D01*
X1159002Y667512D02*
Y673608D01*
X1165098D01*
Y667512D01*
X1159002D01*
X1137920Y659130D02*
Y669290D01*
X1148080D01*
Y659130D01*
X1137920D01*
X1139952Y661162D02*
Y667258D01*
X1146048D01*
Y661162D01*
X1139952D01*
X1116330Y659130D02*
Y669290D01*
X1126490D01*
Y659130D01*
X1116330D01*
X1118362Y661162D02*
Y667258D01*
X1124458D01*
Y661162D01*
X1118362D01*
X992505Y610235D02*
Y620395D01*
X1002665D01*
Y610235D01*
X992505D01*
X994537Y612267D02*
Y618363D01*
X1000633D01*
Y612267D01*
X994537D01*
X943610Y852170D02*
Y862330D01*
X953770D01*
Y852170D01*
X943610D01*
X945642Y854202D02*
Y860298D01*
X951738D01*
Y854202D01*
X945642D01*
X943610Y834390D02*
Y844550D01*
X953770D01*
Y834390D01*
X943610D01*
X945642Y836422D02*
Y842518D01*
X951738D01*
Y836422D01*
X945642D01*
X845820Y525780D02*
Y535940D01*
X855980D01*
Y525780D01*
X845820D01*
X847852Y527812D02*
Y533908D01*
X853948D01*
Y527812D01*
X847852D01*
X1029970Y896620D02*
Y906780D01*
X1040130D01*
Y896620D01*
X1029970D01*
X1032002Y898652D02*
Y904748D01*
X1038098D01*
Y898652D01*
X1032002D01*
X1054100Y886460D02*
Y896620D01*
X1064260D01*
Y886460D01*
X1054100D01*
X1056132Y888492D02*
Y894588D01*
X1062228D01*
Y888492D01*
X1056132D01*
X1249680Y654050D02*
Y664210D01*
X1259840D01*
Y654050D01*
X1249680D01*
X1251712Y656082D02*
Y662178D01*
X1257808D01*
Y656082D01*
X1251712D01*
X1258570Y632460D02*
Y642620D01*
X1268730D01*
Y632460D01*
X1258570D01*
X1260602Y634492D02*
Y640588D01*
X1266698D01*
Y634492D01*
X1260602D01*
X979170Y441960D02*
Y452120D01*
X989330D01*
Y441960D01*
X979170D01*
X981202Y443992D02*
Y450088D01*
X987298D01*
Y443992D01*
X981202D01*
X1092200Y736600D02*
Y746760D01*
X1102360D01*
Y736600D01*
X1092200D01*
X1094232Y738632D02*
Y744728D01*
X1100328D01*
Y738632D01*
X1094232D01*
X1031240Y504190D02*
Y514350D01*
X1041400D01*
Y504190D01*
X1031240D01*
X1033272Y506222D02*
Y512318D01*
X1039368D01*
Y506222D01*
X1033272D01*
X1028700Y541020D02*
Y551180D01*
X1038860D01*
Y541020D01*
X1028700D01*
X1030732Y543052D02*
Y549148D01*
X1036828D01*
Y543052D01*
X1030732D01*
X1130300Y617220D02*
Y627380D01*
X1140460D01*
Y617220D01*
X1130300D01*
X1132332Y619252D02*
Y625348D01*
X1138428D01*
Y619252D01*
X1132332D01*
X643890Y777240D02*
Y787400D01*
X654050D01*
Y777240D01*
X643890D01*
X645922Y779272D02*
Y785368D01*
X652018D01*
Y779272D01*
X645922D01*
X703580Y435610D02*
Y445770D01*
X713740D01*
Y435610D01*
X703580D01*
X705612Y437642D02*
Y443738D01*
X711708D01*
Y437642D01*
X705612D01*
X685800Y459740D02*
Y469900D01*
X695960D01*
Y459740D01*
X685800D01*
X687832Y461772D02*
Y467868D01*
X693928D01*
Y461772D01*
X687832D01*
X1123950Y1007110D02*
Y1017270D01*
X1134110D01*
Y1007110D01*
X1123950D01*
X1125982Y1009142D02*
Y1015238D01*
X1132078D01*
Y1009142D01*
X1125982D01*
X1146810Y998220D02*
Y1008380D01*
X1156970D01*
Y998220D01*
X1146810D01*
X1148842Y1000252D02*
Y1006348D01*
X1154938D01*
Y1000252D01*
X1148842D01*
X1106170Y723900D02*
Y734060D01*
X1116330D01*
Y723900D01*
X1106170D01*
X1108202Y725932D02*
Y732028D01*
X1114298D01*
Y725932D01*
X1108202D01*
X1129030Y1026160D02*
Y1036320D01*
X1139190D01*
Y1026160D01*
X1129030D01*
X1131062Y1028192D02*
Y1034288D01*
X1137158D01*
Y1028192D01*
X1131062D01*
X594360Y735330D02*
Y745490D01*
X604520D01*
Y735330D01*
X594360D01*
X596392Y737362D02*
Y743458D01*
X602488D01*
Y737362D01*
X596392D01*
X1155700Y1037590D02*
Y1047750D01*
X1165860D01*
Y1037590D01*
X1155700D01*
X1157732Y1039622D02*
Y1045718D01*
X1163828D01*
Y1039622D01*
X1157732D01*
X577850Y723900D02*
Y734060D01*
X588010D01*
Y723900D01*
X577850D01*
X579882Y725932D02*
Y732028D01*
X585978D01*
Y725932D01*
X579882D01*
X857250Y618490D02*
Y628650D01*
X867410D01*
Y618490D01*
X857250D01*
X859282Y620522D02*
Y626618D01*
X865378D01*
Y620522D01*
X859282D01*
X821690Y1052670D02*
Y1062830D01*
X831850D01*
Y1052670D01*
X821690D01*
X823722Y1054702D02*
Y1060798D01*
X829818D01*
Y1054702D01*
X823722D01*
X748030Y904240D02*
Y914400D01*
X758190D01*
Y904240D01*
X748030D01*
X750062Y906272D02*
Y912368D01*
X756158D01*
Y906272D01*
X750062D01*
X571500Y571500D02*
Y581660D01*
X581660D01*
Y571500D01*
X571500D01*
X573532Y573532D02*
Y579628D01*
X579628D01*
Y573532D01*
X573532D01*
X645160Y501650D02*
Y511810D01*
X655320D01*
Y501650D01*
X645160D01*
X647192Y503682D02*
Y509778D01*
X653288D01*
Y503682D01*
X647192D01*
X638810Y530860D02*
Y541020D01*
X648970D01*
Y530860D01*
X638810D01*
X640842Y532892D02*
Y538988D01*
X646938D01*
Y532892D01*
X640842D01*
X628650Y561340D02*
Y571500D01*
X638810D01*
Y561340D01*
X628650D01*
X630682Y563372D02*
Y569468D01*
X636778D01*
Y563372D01*
X630682D01*
X553720Y584200D02*
Y594360D01*
X563880D01*
Y584200D01*
X553720D01*
X555752Y586232D02*
Y592328D01*
X561848D01*
Y586232D01*
X555752D01*
X706120Y491490D02*
Y501650D01*
X716280D01*
Y491490D01*
X706120D01*
X708152Y493522D02*
Y499618D01*
X714248D01*
Y493522D01*
X708152D01*
X708660Y603250D02*
Y613410D01*
X718820D01*
Y603250D01*
X708660D01*
X710692Y605282D02*
Y611378D01*
X716788D01*
Y605282D01*
X710692D01*
X746800Y642930D02*
Y653090D01*
X756960D01*
Y642930D01*
X746800D01*
X748832Y644962D02*
Y651058D01*
X754928D01*
Y644962D01*
X748832D01*
X1113790Y546100D02*
Y556260D01*
X1123950D01*
Y546100D01*
X1113790D01*
X1115822Y548132D02*
Y554228D01*
X1121918D01*
Y548132D01*
X1115822D01*
X1082040Y530860D02*
Y541020D01*
X1092200D01*
Y530860D01*
X1082040D01*
X1084072Y532892D02*
Y538988D01*
X1090168D01*
Y532892D01*
X1084072D01*
X1094740Y593090D02*
Y603250D01*
X1104900D01*
Y593090D01*
X1094740D01*
X1096772Y595122D02*
Y601218D01*
X1102868D01*
Y595122D01*
X1096772D01*
X1096010Y485140D02*
Y495300D01*
X1106170D01*
Y485140D01*
X1096010D01*
X1098042Y487172D02*
Y493268D01*
X1104138D01*
Y487172D01*
X1098042D01*
X1127760Y523240D02*
Y533400D01*
X1137920D01*
Y523240D01*
X1127760D01*
X1129792Y525272D02*
Y531368D01*
X1135888D01*
Y525272D01*
X1129792D01*
X1173480Y450850D02*
Y461010D01*
X1183640D01*
Y450850D01*
X1173480D01*
X1175512Y452882D02*
Y458978D01*
X1181608D01*
Y452882D01*
X1175512D01*
X1019810Y835660D02*
Y845820D01*
X1029970D01*
Y835660D01*
X1019810D01*
X1021842Y837692D02*
Y843788D01*
X1027938D01*
Y837692D01*
X1021842D01*
X1004570Y902970D02*
Y913130D01*
X1014730D01*
Y902970D01*
X1004570D01*
X1006602Y905002D02*
Y911098D01*
X1012698D01*
Y905002D01*
X1006602D01*
X1012190Y953770D02*
Y963930D01*
X1022350D01*
Y953770D01*
X1012190D01*
X1014222Y955802D02*
Y961898D01*
X1020318D01*
Y955802D01*
X1014222D01*
X1002030Y1031240D02*
Y1041400D01*
X1012190D01*
Y1031240D01*
X1002030D01*
X1004062Y1033272D02*
Y1039368D01*
X1010158D01*
Y1033272D01*
X1004062D01*
X957580Y1031240D02*
Y1041400D01*
X967740D01*
Y1031240D01*
X957580D01*
X959612Y1033272D02*
Y1039368D01*
X965708D01*
Y1033272D01*
X959612D01*
X953770Y356870D02*
Y367030D01*
X963930D01*
Y356870D01*
X953770D01*
X955802Y358902D02*
Y364998D01*
X961898D01*
Y358902D01*
X955802D01*
X934720Y355600D02*
Y365760D01*
X944880D01*
Y355600D01*
X934720D01*
X936752Y357632D02*
Y363728D01*
X942848D01*
Y357632D01*
X936752D01*
X918210Y414020D02*
Y424180D01*
X928370D01*
Y414020D01*
X918210D01*
X920242Y416052D02*
Y422148D01*
X926338D01*
Y416052D01*
X920242D01*
X882650Y431800D02*
Y441960D01*
X892810D01*
Y431800D01*
X882650D01*
X884682Y433832D02*
Y439928D01*
X890778D01*
Y433832D01*
X884682D01*
X952500Y480060D02*
Y490220D01*
X962660D01*
Y480060D01*
X952500D01*
X954532Y482092D02*
Y488188D01*
X960628D01*
Y482092D01*
X954532D01*
X952500Y514350D02*
Y524510D01*
X962660D01*
Y514350D01*
X952500D01*
X954532Y516382D02*
Y522478D01*
X960628D01*
Y516382D01*
X954532D01*
X881380Y552450D02*
Y562610D01*
X891540D01*
Y552450D01*
X881380D01*
X883412Y554482D02*
Y560578D01*
X889508D01*
Y554482D01*
X883412D01*
X891540Y518160D02*
Y528320D01*
X901700D01*
Y518160D01*
X891540D01*
X893572Y520192D02*
Y526288D01*
X899668D01*
Y520192D01*
X893572D01*
X908304Y552450D02*
Y562610D01*
X918464D01*
Y552450D01*
X908304D01*
X910336Y554482D02*
Y560578D01*
X916432D01*
Y554482D01*
X910336D01*
X919480Y497840D02*
Y508000D01*
X929640D01*
Y497840D01*
X919480D01*
X921512Y499872D02*
Y505968D01*
X927608D01*
Y499872D01*
X921512D01*
X905320Y454660D02*
Y464820D01*
X915480D01*
Y454660D01*
X905320D01*
X907352Y456692D02*
Y462788D01*
X913447D01*
Y456692D01*
X907352D01*
X594360Y599440D02*
Y609600D01*
X604520D01*
Y599440D01*
X594360D01*
X596392Y601472D02*
Y607568D01*
X602488D01*
Y601472D01*
X596392D01*
X571500Y650240D02*
Y660400D01*
X581660D01*
Y650240D01*
X571500D01*
X573532Y652272D02*
Y658368D01*
X579628D01*
Y652272D01*
X573532D01*
X1121410Y433070D02*
Y443230D01*
X1131570D01*
Y433070D01*
X1121410D01*
X1123442Y435102D02*
Y441198D01*
X1129538D01*
Y435102D01*
X1123442D01*
X833120Y447167D02*
Y457327D01*
X843280D01*
Y447167D01*
X833120D01*
X835152Y449199D02*
Y455295D01*
X841248D01*
Y449199D01*
X835152D01*
X782320Y422910D02*
Y433070D01*
X792480D01*
Y422910D01*
X782320D01*
X784352Y424942D02*
Y431038D01*
X790448D01*
Y424942D01*
X784352D01*
X702200Y466090D02*
Y476250D01*
X712360D01*
Y466090D01*
X702200D01*
X704232Y468122D02*
Y474218D01*
X710328D01*
Y468122D01*
X704232D01*
X773430Y455930D02*
Y466090D01*
X783590D01*
Y455930D01*
X773430D01*
X775462Y457962D02*
Y464058D01*
X781558D01*
Y457962D01*
X775462D01*
X602742Y658622D02*
Y668782D01*
X612902D01*
Y658622D01*
X602742D01*
X604774Y660654D02*
Y666750D01*
X610870D01*
Y660654D01*
X604774D01*
X689610Y541020D02*
Y551180D01*
X699770D01*
Y541020D01*
X689610D01*
X691642Y543052D02*
Y549148D01*
X697738D01*
Y543052D01*
X691642D01*
X642620Y721360D02*
Y731520D01*
X652780D01*
Y721360D01*
X642620D01*
X644652Y723392D02*
Y729488D01*
X650748D01*
Y723392D01*
X644652D01*
X742950Y580390D02*
Y590550D01*
X753110D01*
Y580390D01*
X742950D01*
X744982Y582422D02*
Y588518D01*
X751078D01*
Y582422D01*
X744982D01*
X742950Y554990D02*
Y565150D01*
X753110D01*
Y554990D01*
X742950D01*
X744982Y557022D02*
Y563118D01*
X751078D01*
Y557022D01*
X744982D01*
X610870Y728980D02*
Y739140D01*
X621030D01*
Y728980D01*
X610870D01*
X612902Y731012D02*
Y737108D01*
X618998D01*
Y731012D01*
X612902D01*
X1068070Y358140D02*
Y368300D01*
X1078230D01*
Y358140D01*
X1068070D01*
X1070102Y360172D02*
Y366268D01*
X1076198D01*
Y360172D01*
X1070102D01*
X1051560Y359410D02*
Y369570D01*
X1061720D01*
Y359410D01*
X1051560D01*
X1053592Y361442D02*
Y367538D01*
X1059688D01*
Y361442D01*
X1053592D01*
X1087628Y426212D02*
Y436372D01*
X1097788D01*
Y426212D01*
X1087628D01*
X1089660Y428244D02*
Y434340D01*
X1095756D01*
Y428244D01*
X1089660D01*
X1243330Y458470D02*
Y468630D01*
X1253490D01*
Y458470D01*
X1243330D01*
X1245362Y460502D02*
Y466598D01*
X1251458D01*
Y460502D01*
X1245362D01*
X880110Y775970D02*
Y786130D01*
X890270D01*
Y775970D01*
X880110D01*
X882142Y778002D02*
Y784098D01*
X888238D01*
Y778002D01*
X882142D01*
X857250Y1023620D02*
Y1033780D01*
X867410D01*
Y1023620D01*
X857250D01*
X859282Y1025652D02*
Y1031748D01*
X865378D01*
Y1025652D01*
X859282D01*
X773470Y642930D02*
Y653090D01*
X783630D01*
Y642930D01*
X773470D01*
X775502Y644962D02*
Y651058D01*
X781598D01*
Y644962D01*
X775502D01*
X713910Y686110D02*
Y696270D01*
X724070D01*
Y686110D01*
X713910D01*
X715942Y688142D02*
Y694238D01*
X722038D01*
Y688142D01*
X715942D01*
X814110Y687380D02*
Y697540D01*
X824270D01*
Y687380D01*
X814110D01*
X816142Y689412D02*
Y695508D01*
X822238D01*
Y689412D01*
X816142D01*
X675680Y745800D02*
Y755960D01*
X685840D01*
Y745800D01*
X675680D01*
X677712Y747832D02*
Y753928D01*
X683808D01*
Y747832D01*
X677712D01*
X731560Y708970D02*
Y719130D01*
X741720D01*
Y708970D01*
X731560D01*
X733592Y711002D02*
Y717098D01*
X739688D01*
Y711002D01*
X733592D01*
X721400Y769930D02*
Y780090D01*
X731560D01*
Y769930D01*
X721400D01*
X723432Y771962D02*
Y778058D01*
X729528D01*
Y771962D01*
X723432D01*
X749340Y744530D02*
Y754690D01*
X759500D01*
Y744530D01*
X749340D01*
X751372Y746562D02*
Y752658D01*
X757468D01*
Y746562D01*
X751372D01*
X835700Y805490D02*
Y815650D01*
X845860D01*
Y805490D01*
X835700D01*
X837732Y807522D02*
Y813618D01*
X843828D01*
Y807522D01*
X837732D01*
X1089700Y708970D02*
Y719130D01*
X1099860D01*
Y708970D01*
X1089700D01*
X1091732Y711002D02*
Y717098D01*
X1097828D01*
Y711002D01*
X1091732D01*
X981830Y834270D02*
Y844430D01*
X991990D01*
Y834270D01*
X981830D01*
X983862Y836302D02*
Y842398D01*
X989958D01*
Y836302D01*
X983862D01*
X977900Y716280D02*
Y726440D01*
X988060D01*
Y716280D01*
X977900D01*
X979932Y718312D02*
Y724408D01*
X986028D01*
Y718312D01*
X979932D01*
X902850Y900550D02*
Y910710D01*
X913010D01*
Y900550D01*
X902850D01*
X904882Y902582D02*
Y908678D01*
X910978D01*
Y902582D01*
X904882D01*
X996830Y981830D02*
Y991990D01*
X1006990D01*
Y981830D01*
X996830D01*
X998862Y983862D02*
Y989958D01*
X1004958D01*
Y983862D01*
X998862D01*
X938410Y931030D02*
Y941190D01*
X948570D01*
Y931030D01*
X938410D01*
X940442Y933062D02*
Y939158D01*
X946538D01*
Y933062D01*
X940442D01*
X986670Y920870D02*
Y931030D01*
X996830D01*
Y920870D01*
X986670D01*
X988702Y922902D02*
Y928998D01*
X994798D01*
Y922902D01*
X988702D01*
X935870Y948810D02*
Y958970D01*
X946030D01*
Y948810D01*
X935870D01*
X937902Y950842D02*
Y956938D01*
X943998D01*
Y950842D01*
X937902D01*
X933330Y969130D02*
Y979290D01*
X943490D01*
Y969130D01*
X933330D01*
X935362Y971162D02*
Y977258D01*
X941458D01*
Y971162D01*
X935362D01*
X879990Y1012310D02*
Y1022470D01*
X890150D01*
Y1012310D01*
X879990D01*
X882022Y1014342D02*
Y1020438D01*
X888118D01*
Y1014342D01*
X882022D01*
X968890Y953890D02*
Y964050D01*
X979050D01*
Y953890D01*
X968890D01*
X970922Y955922D02*
Y962018D01*
X977018D01*
Y955922D01*
X970922D01*
X925710Y997070D02*
Y1007230D01*
X935870D01*
Y997070D01*
X925710D01*
X927742Y999102D02*
Y1005198D01*
X933838D01*
Y999102D01*
X927742D01*
X816490Y951350D02*
Y961510D01*
X826650D01*
Y951350D01*
X816490D01*
X818522Y953382D02*
Y959478D01*
X824618D01*
Y953382D01*
X818522D01*
X796170Y943730D02*
Y953890D01*
X806330D01*
Y943730D01*
X796170D01*
X798202Y945762D02*
Y951858D01*
X804298D01*
Y945762D01*
X798202D01*
X816610Y913130D02*
Y923290D01*
X826770D01*
Y913130D01*
X816610D01*
X818642Y915162D02*
Y921258D01*
X824738D01*
Y915162D01*
X818642D01*
X900670Y698890D02*
Y709050D01*
X910830D01*
Y698890D01*
X900670D01*
X902702Y700922D02*
Y707018D01*
X908798D01*
Y700922D01*
X902702D01*
X1004570Y716280D02*
Y726440D01*
X1014730D01*
Y716280D01*
X1004570D01*
X1006602Y718312D02*
Y724408D01*
X1012698D01*
Y718312D01*
X1006602D01*
X793790Y786440D02*
Y796600D01*
X803950D01*
Y786440D01*
X793790D01*
X795822Y788472D02*
Y794568D01*
X801918D01*
Y788472D01*
X795822D01*
X664090Y925950D02*
Y936110D01*
X674250D01*
Y925950D01*
X664090D01*
X666122Y927982D02*
Y934078D01*
X672218D01*
Y927982D01*
X666122D01*
X911860Y778510D02*
Y788670D01*
X922020D01*
Y778510D01*
X911860D01*
X913892Y780542D02*
Y786638D01*
X919988D01*
Y780542D01*
X913892D01*
X932180Y702310D02*
Y712470D01*
X942340D01*
Y702310D01*
X932180D01*
X934212Y704342D02*
Y710438D01*
X940308D01*
Y704342D01*
X934212D01*
X901740Y739450D02*
Y749610D01*
X911900D01*
Y739450D01*
X901740D01*
X903772Y741482D02*
Y747578D01*
X909868D01*
Y741482D01*
X903772D01*
X692150Y1008380D02*
Y1018540D01*
X702310D01*
Y1008380D01*
X692150D01*
X694182Y1010412D02*
Y1016508D01*
X700278D01*
Y1010412D01*
X694182D01*
X723900Y1003300D02*
Y1013460D01*
X734060D01*
Y1003300D01*
X723900D01*
X725932Y1005332D02*
Y1011428D01*
X732028D01*
Y1005332D01*
X725932D01*
X717860Y818190D02*
Y828350D01*
X728020D01*
Y818190D01*
X717860D01*
X719892Y820222D02*
Y826318D01*
X725988D01*
Y820222D01*
X719892D01*
X836930Y825500D02*
Y835660D01*
X847090D01*
Y825500D01*
X836930D01*
X838962Y827532D02*
Y833628D01*
X845058D01*
Y827532D01*
X838962D01*
X755650Y802950D02*
Y813110D01*
X765810D01*
Y802950D01*
X755650D01*
X757682Y804982D02*
Y811078D01*
X763778D01*
Y804982D01*
X757682D01*
X904240Y1042670D02*
Y1052830D01*
X914400D01*
Y1042670D01*
X904240D01*
X906272Y1044702D02*
Y1050798D01*
X912368D01*
Y1044702D01*
X906272D01*
X768350Y580390D02*
Y590550D01*
X778510D01*
Y580390D01*
X768350D01*
X770382Y582422D02*
Y588518D01*
X776478D01*
Y582422D01*
X770382D01*
X979170Y1017270D02*
Y1027430D01*
X989330D01*
Y1017270D01*
X979170D01*
X981202Y1019302D02*
Y1025398D01*
X987298D01*
Y1019302D01*
X981202D01*
X1219200Y542290D02*
Y552450D01*
X1229360D01*
Y542290D01*
X1219200D01*
X1221232Y544322D02*
Y550418D01*
X1227328D01*
Y544322D01*
X1221232D01*
X1238250Y473710D02*
Y483870D01*
X1248410D01*
Y473710D01*
X1238250D01*
X1240282Y475742D02*
Y481838D01*
X1246378D01*
Y475742D01*
X1240282D01*
X1324610Y1074270D02*
Y1084430D01*
X1334770D01*
Y1074270D01*
X1324610D01*
X1326642Y1076302D02*
Y1082398D01*
X1332738D01*
Y1076302D01*
X1326642D01*
X1174750Y877570D02*
Y887730D01*
X1184910D01*
Y877570D01*
X1174750D01*
X1176782Y879602D02*
Y885698D01*
X1182878D01*
Y879602D01*
X1176782D01*
X1146790Y888980D02*
Y899140D01*
X1156950D01*
Y888980D01*
X1146790D01*
X1148822Y891012D02*
Y897108D01*
X1154918D01*
Y891012D01*
X1148822D01*
X1196340Y889000D02*
Y899160D01*
X1206500D01*
Y889000D01*
X1196340D01*
X1198372Y891032D02*
Y897128D01*
X1204468D01*
Y891032D01*
X1198372D01*
X1215136Y908050D02*
Y918210D01*
X1225296D01*
Y908050D01*
X1215136D01*
X1217168Y910082D02*
Y916178D01*
X1223264D01*
Y910082D01*
X1217168D01*
X1193800Y914400D02*
Y924560D01*
X1203960D01*
Y914400D01*
X1193800D01*
X1195832Y916432D02*
Y922528D01*
X1201928D01*
Y916432D01*
X1195832D01*
X1300480Y975360D02*
Y985520D01*
X1310640D01*
Y975360D01*
X1300480D01*
X1302512Y977392D02*
Y983488D01*
X1308608D01*
Y977392D01*
X1302512D01*
X1117600Y900430D02*
Y910590D01*
X1127760D01*
Y900430D01*
X1117600D01*
X1119632Y902462D02*
Y908558D01*
X1125728D01*
Y902462D01*
X1119632D01*
X1263450Y611070D02*
Y621230D01*
X1273610D01*
Y611070D01*
X1263450D01*
X1265482Y613102D02*
Y619198D01*
X1271578D01*
Y613102D01*
X1265482D01*
X1174750Y861060D02*
Y871220D01*
X1184910D01*
Y861060D01*
X1174750D01*
X1176782Y863092D02*
Y869188D01*
X1182878D01*
Y863092D01*
X1176782D01*
X1164590Y835660D02*
Y845820D01*
X1174750D01*
Y835660D01*
X1164590D01*
X1166622Y837692D02*
Y843788D01*
X1172718D01*
Y837692D01*
X1166622D01*
X1179830Y806450D02*
Y816610D01*
X1189990D01*
Y806450D01*
X1179830D01*
X1181862Y808482D02*
Y814578D01*
X1187958D01*
Y808482D01*
X1181862D01*
X1177290Y825500D02*
Y835660D01*
X1187450D01*
Y825500D01*
X1177290D01*
X1179322Y827532D02*
Y833628D01*
X1185418D01*
Y827532D01*
X1179322D01*
X1191023Y796091D02*
Y806251D01*
X1201183D01*
Y796091D01*
X1191023D01*
X1193055Y798123D02*
Y804219D01*
X1199151D01*
Y798123D01*
X1193055D01*
X1206500Y769620D02*
Y779780D01*
X1216660D01*
Y769620D01*
X1206500D01*
X1208532Y771652D02*
Y777748D01*
X1214628D01*
Y771652D01*
X1208532D01*
X1333500Y969010D02*
Y979170D01*
X1343660D01*
Y969010D01*
X1333500D01*
X1335532Y971042D02*
Y977138D01*
X1341628D01*
Y971042D01*
X1335532D01*
X1164590Y901700D02*
Y911860D01*
X1174750D01*
Y901700D01*
X1164590D01*
X1166622Y903732D02*
Y909828D01*
X1172718D01*
Y903732D01*
X1166622D01*
X1064260Y965200D02*
Y975360D01*
X1074420D01*
Y965200D01*
X1064260D01*
X1066292Y967232D02*
Y973328D01*
X1072388D01*
Y967232D01*
X1066292D01*
X1226820Y734060D02*
Y744220D01*
X1236980D01*
Y734060D01*
X1226820D01*
X1228852Y736092D02*
Y742188D01*
X1234948D01*
Y736092D01*
X1228852D01*
X1148250Y629750D02*
Y639910D01*
X1158410D01*
Y629750D01*
X1148250D01*
X1150282Y631782D02*
Y637878D01*
X1156378D01*
Y631782D01*
X1150282D01*
X1129030Y589280D02*
Y599440D01*
X1139190D01*
Y589280D01*
X1129030D01*
X1131062Y591312D02*
Y597408D01*
X1137158D01*
Y591312D01*
X1131062D01*
X1140460Y948690D02*
Y958850D01*
X1150620D01*
Y948690D01*
X1140460D01*
X1142492Y950722D02*
Y956818D01*
X1148588D01*
Y950722D01*
X1142492D01*
X1247140Y1012190D02*
Y1022350D01*
X1257300D01*
Y1012190D01*
X1247140D01*
X1249172Y1014222D02*
Y1020318D01*
X1255268D01*
Y1014222D01*
X1249172D01*
X1233170Y1027430D02*
Y1037590D01*
X1243330D01*
Y1027430D01*
X1233170D01*
X1235202Y1029462D02*
Y1035558D01*
X1241298D01*
Y1029462D01*
X1235202D01*
X1242060Y1075690D02*
Y1085850D01*
X1252220D01*
Y1075690D01*
X1242060D01*
X1244092Y1077722D02*
Y1083818D01*
X1250188D01*
Y1077722D01*
X1244092D01*
X1162050Y1074420D02*
Y1084580D01*
X1172210D01*
Y1074420D01*
X1162050D01*
X1164082Y1076452D02*
Y1082548D01*
X1170178D01*
Y1076452D01*
X1164082D01*
X1106170Y746760D02*
Y756920D01*
X1116330D01*
Y746760D01*
X1106170D01*
X1108202Y748792D02*
Y754888D01*
X1114298D01*
Y748792D01*
X1108202D01*
D166*
X851028Y734790D02*
G03*
X851028Y734790I-3048J0D01*
G01*
X862028D02*
G03*
X862028Y734790I-3048J0D01*
G01*
Y723790D02*
G03*
X862028Y723790I-3048J0D01*
G01*
X851028D02*
G03*
X851028Y723790I-3048J0D01*
G01*
X883458Y946690D02*
G03*
X883458Y946690I-3048J0D01*
G01*
Y935690D02*
G03*
X883458Y935690I-3048J0D01*
G01*
X872458D02*
G03*
X872458Y935690I-3048J0D01*
G01*
Y946690D02*
G03*
X872458Y946690I-3048J0D01*
G01*
D176*
X1019810Y1014730D02*
G03*
X1019810Y1014730I-5080J0D01*
G01*
X1109980Y447040D02*
G03*
X1109980Y447040I-5080J0D01*
G01*
X1182370Y520700D02*
G03*
X1182370Y520700I-5080J0D01*
G01*
X599440Y646430D02*
G03*
X599440Y646430I-5080J0D01*
G01*
X774700Y892810D02*
G03*
X774700Y892810I-5080J0D01*
G01*
X702310Y596900D02*
G03*
X702310Y596900I-5080J0D01*
G01*
X1004570Y706120D02*
G03*
X1004570Y706120I-5080J0D01*
G01*
X842010Y1024890D02*
G03*
X842010Y1024890I-5080J0D01*
G01*
X695960Y647700D02*
G03*
X695960Y647700I-5080J0D01*
G01*
X961390Y720090D02*
G03*
X961390Y720090I-5080J0D01*
G01*
X791210Y963930D02*
G03*
X791210Y963930I-5080J0D01*
G01*
X886460Y646430D02*
G03*
X886460Y646430I-5080J0D01*
G01*
X679450Y847090D02*
G03*
X679450Y847090I-5080J0D01*
G01*
X1082040Y693420D02*
G03*
X1082040Y693420I-5080J0D01*
G01*
X852290Y857370D02*
G03*
X852290Y857370I-5080J0D01*
G01*
X1042670Y858520D02*
G03*
X1042670Y858520I-5080J0D01*
G01*
X704850Y930910D02*
G03*
X704850Y930910I-5080J0D01*
G01*
X840740Y669290D02*
G03*
X840740Y669290I-5080J0D01*
G01*
X915670Y820420D02*
G03*
X915670Y820420I-5080J0D01*
G01*
X1041400Y825500D02*
G03*
X1041400Y825500I-5080J0D01*
G01*
X701040Y797560D02*
G03*
X701040Y797560I-5080J0D01*
G01*
X892690Y842010D02*
G03*
X892690Y842010I-5080J0D01*
G01*
X825500Y529590D02*
G03*
X825500Y529590I-5080J0D01*
G01*
X1243330Y496570D02*
G03*
X1243330Y496570I-5080J0D01*
G01*
X1177290Y562610D02*
G03*
X1177290Y562610I-5080J0D01*
G01*
X853060Y734790D02*
G03*
X853060Y734790I-5080J0D01*
G01*
X864060D02*
G03*
X864060Y734790I-5080J0D01*
G01*
Y723790D02*
G03*
X864060Y723790I-5080J0D01*
G01*
X853060D02*
G03*
X853060Y723790I-5080J0D01*
G01*
X885490Y946690D02*
G03*
X885490Y946690I-5080J0D01*
G01*
Y935690D02*
G03*
X885490Y935690I-5080J0D01*
G01*
X874490D02*
G03*
X874490Y935690I-5080J0D01*
G01*
Y946690D02*
G03*
X874490Y946690I-5080J0D01*
G01*
M02*
