M48
;Layer_Color=9474304
;FILE_FORMAT=4:4
METRIC,LZ
;TYPE=PLATED
T1F00S00C0.2000
T2F00S00C0.5000
T3F00S00C0.5080
T4F00S00C0.7112
T5F00S00C0.7620
T6F00S00C0.8130
T7F00S00C0.9000
T8F00S00C1.0160
T9F00S00C4.2000
;TYPE=NON_PLATED
T10F00S00C1.6000
%
T01
X0084798Y0072379
Y0073479
X0085898
Y0072379
X0086941Y0093569
X0088041
Y0094669
X0086941
T02
X0065151Y0110429
Y0115509
T03
X0091694Y0038354
X0121412Y0045339
X0109601Y0039751
X0074549Y0045847
X0060452Y0069723
T04
X009398Y0036068
X0095885Y0036195
X0105664Y0036449
X0107315Y0036322
X0125984Y0042291
X0126492Y004445
X0124841Y0046355
X0124333Y0047879
X0127508Y0049784
Y0051435
X0129159Y0046736
X0122428Y0054737
X0122174Y0057531
X0126853Y0061615
X0126365Y0063754
X0125476Y0065913
X0119126Y0068072
Y007747
X0121158
X0123063Y007874
X012319Y0073914
X0115951Y0077597
X0114046Y0078613
X0111125Y0075184
Y0072898
X0109728Y0074168
X0109478Y0071405
X0107442Y0066675
X0105918Y0065405
X0112141Y0066421
X01143
X0116205Y0067056
X0115333Y0063483
X0113538Y006223
X0113411Y0059436
X0115697Y0059182
X0118999Y0057785
X0117602Y0054229
X0113284Y0052832
X0111887Y0055118
X0108712Y0053594
X0110109Y0049022
X01092708Y00431292
X0112649Y0043815
X0118364Y0043307
X0117856Y0045593
X0103632Y0050927
X0103378Y005461
X0095758Y0051943
Y0048514
X0092456Y0050292
X0089662Y0052324
X0088646Y0055753
X00913384
X008509Y0053086
X008382Y00452247
X0088773Y0043688
X00910399Y0045974
X0092329Y004191
X0098552Y0041148
X0098425Y0044704
X00997585Y00615315
X0100965Y0072136
X0098298
X0093599Y0073152
X009144
X0090682Y0074453
X00940435Y00751205
X0093726Y0070739
X0090575Y0070397
X0091694Y0078359
X0088519Y0078105
X0079887Y0079152
X0081919Y0069246
X0081026Y0060833
X0086233Y0062357
X0109982Y0059817
X0077343Y0058547
X0074803
Y0056007
X0069469Y005461
X0064389Y0053594
X0065024Y0050673
X007112Y0049657
X0070728Y0047117
X0069088Y0046482
X0070866Y0044069
X0077851Y0046101
X007874Y0042799
X007849Y0062769
X0077855Y0064801
X0075188
X0070739Y0067437
X0071899Y0069119
X0073664Y0071405
X0075442Y0074961
X0078764Y0074179
X0078363Y0072421
X0079252Y0075977
X0072648Y0077501
X0068076Y0075088
X006477Y0072644
X0061595Y0073406
X0059944Y0074041
X0058293Y0072898
X0057658Y0065532
X00607822Y00663702
X006731Y0066294
X0071374Y0060833
X0059944Y0060452
X0057658Y0057658
X005588Y0058928
X0063373Y0056642
X0064897Y0078232
X0064183Y0081153
X0069596Y0081788
X0072294Y0082327
X0073914Y0085344
X0073787Y0086868
X0075311Y0090932
X0076073Y0094869
X0079121Y0089027
X0076073Y0080803
X0066917Y0093103
X0067056Y0096921
X0069723Y0101346
X0072898Y0100838
X0080391Y0099822
X0080125Y0094881
X0082157Y0095643
X0082169Y0091821
X0090793Y0090563
X0094349Y0093611
X0094095Y0095389
X0093841Y0097421
X0093079Y0100215
X0088507Y0101739
X0086233Y010287
X0082677Y0105775
X0090932Y0104775
X0096266Y0103632
X0098425Y0102235
X0100711Y0103632
X0100191Y0098691
X0101727Y0095885
X0097397Y0095897
X0099175Y0092595
X0100965Y0090805
X0103505Y009017
X0105918Y0089154
X0108204Y0088646
X0112268Y0090551
X0115187Y0089406
X0116967Y0090678
X0117983Y0088265
Y0086614
X0116967Y0084074
X0118237Y0083058
X0118491Y0081153
X0114554Y0095377
X0115189Y010033
X0112903Y0101219
X0113411Y0103124
X0116078Y0104267
X0116713Y010795
X0106934Y0097028
X0102489Y0084074
X0098691Y0083935
X0094869Y0083947
Y0085725
X0084201Y0083058
X0084078Y0081057
X01196103Y00801171
X0120142Y0089408
X0119888Y0091948
X01220216Y0091313
X0125222Y0101727
X0123825Y0103251
X0124714Y0108077
X0122047
X0132969Y0107935
X0130175Y0104521
X0130556Y0098044
X0133858Y0097409
T05
X0123825Y0049657
X0117729Y005207
X0117221Y0056261
X011049Y0044704
X0107696Y0069342
X0099949Y0070612
X0095631Y0072009
X0088138Y0064643
X0083566Y0066929
X0082042Y0052959
X0069723Y005969
X0069088Y006477
X0059436Y0064643
X0069596Y0079756
X0067437Y0084709
X0069977Y0093091
X0076962Y0089281
X0078613Y0096393
X0083693Y0102489
X0084721Y0085737
X0088761Y0084201
X0091059Y0082042
X0103632Y008255
X0103759Y0085852
X0101473Y0101473
T06
X0073026Y0036227
Y0038227
X0075026
X0077026
X0079026
Y0036227
X0077026
X0075026
X0081026
Y0038227
X0120016
X0122016
X0124016
X0126016
X0128016
Y0036227
X0126016
X0124016
X0122016
X0120016
X0130048Y0050928
Y0052928
Y0054928
Y0056928
Y0058928
X0132048
Y0056928
Y0054928
Y0052928
Y0050928
X0062611Y004991
Y004791
Y004591
Y004391
Y004191
X0060611
Y004391
Y004591
Y004791
Y004991
X0060484Y008382
X0062484
Y008582
Y008782
Y008982
Y009182
X0060484
Y008982
Y008782
Y008582
X0130048Y0086551
Y0088551
Y0090551
X0132048
Y0088551
Y0086551
Y0084551
X0130048
Y0082551
X0132048
T07
X0065151Y0110429
Y0112969
Y0115509
Y0118049
X0067691
Y0115509
X0070231
X0072771
X0075311
X0077851
Y0118049
X0075311
X0072771
X0070231
Y0112969
Y0110429
X0067691
Y0112969
X0072771
Y0110429
X0075311
X0077851
Y0112969
X0075311
X0080391
Y0115509
X0082931
X0085471
X0088011
X0090551
X0093091
X0095631
X0098171
X0100711
X0103251
X0105791
X0108331
X0110871
X0113411
X0115951
X0118491
Y0118049
X0115951
X0113411
X0110871
X0108331
X0105791
X0103251
X0100711
X0098171
X0095631
X0093091
X0090551
X0088011
X0085471
X0082931
X0080391
Y0110429
X0082931
X0085471
X0088011
X0090551
X0093091
X0095631
X0098171
X0100711
X0103251
X0105791
X0108331
X0110871
X0113411
X0115951
X0118491
Y0112969
X0115951
X0113411
X0110871
X0108331
X0105791
X0103251
X0100711
X0098171
X0095631
X0093091
X0090551
X0088011
X0085471
X0082931
X0121031
Y0115509
X0123571
X0126111
X0128651
Y0118049
X0126111
X0123571
X0121031
Y0110429
X0123571
X0126111
X0128651
Y0112969
X0126111
X0123571
T08
X0056642Y0108839
Y0111379
X0059182
Y0108839
T09
X0056261Y0032319
X0136271
X0060071Y0118049
X0133731
T10
X0112771Y0097866
Y0106096
M30
