%FSLAX44Y44*%
%MOMM*%
G71*
G01*
G75*
G04 Layer_Color=8421504*
%ADD10R,1.2192X0.8128*%
%ADD11R,0.6500X0.2500*%
%ADD12R,0.1900X0.7500*%
%ADD13R,1.6500X4.4000*%
%ADD14R,0.8128X1.2192*%
%ADD15R,0.3048X0.8128*%
%ADD16R,0.8128X0.3048*%
%ADD17R,0.6500X0.8500*%
%ADD18R,0.9500X0.6500*%
%ADD19R,2.0066X0.8128*%
%ADD20R,0.3556X1.4224*%
%ADD21R,1.2192X2.0066*%
%ADD22R,2.0066X1.2192*%
%ADD23R,1.0160X1.1176*%
%ADD24O,1.0000X0.2500*%
%ADD25O,0.2500X1.0000*%
%ADD26R,2.4500X2.4500*%
%ADD27R,0.8000X0.9000*%
%ADD28R,2.1000X0.7000*%
%ADD29R,0.7112X0.9144*%
%ADD30R,0.8890X0.3048*%
%ADD31R,0.2000X0.9100*%
%ADD32R,0.4500X0.5000*%
%ADD33R,0.8300X0.6300*%
%ADD34R,1.1176X1.0160*%
%ADD35O,1.6500X0.3000*%
%ADD36R,1.3000X1.9000*%
%ADD37R,0.9144X0.7112*%
%ADD38O,2.1000X0.3000*%
%ADD39O,0.3000X2.1000*%
%ADD40R,1.4224X0.3556*%
%ADD41R,0.8500X0.6500*%
%ADD42R,0.6500X0.9500*%
%ADD43R,0.8128X2.0066*%
%ADD44C,0.5080*%
%ADD45C,0.2540*%
%ADD46C,0.0000*%
%ADD47R,1.9500X2.0000*%
%ADD48R,0.6500X0.8500*%
%ADD49R,2.0000X1.9500*%
%ADD50R,1.2700X1.2700*%
%ADD51C,1.2700*%
%ADD52C,1.0160*%
%ADD53R,2.7178X2.7178*%
%ADD54R,1.0668X1.0670*%
%ADD55C,1.0670*%
%ADD56R,1.0670X1.0670*%
%ADD57R,2.7178X2.7178*%
%ADD58C,4.2000*%
%ADD59C,0.5000*%
%ADD60C,1.1540*%
%ADD61R,1.0670X1.0670*%
%ADD62C,1.5240*%
%ADD63C,0.9652*%
%ADD64C,0.4540*%
%ADD65C,1.0160*%
%ADD66C,2.0320*%
%ADD67C,1.7780*%
%ADD68C,1.8290*%
%ADD69C,5.2160*%
%ADD70C,1.5160*%
%ADD71C,1.9160*%
G04:AMPARAMS|DCode=72|XSize=2.424mm|YSize=2.424mm|CornerRadius=0mm|HoleSize=0mm|Usage=FLASHONLY|Rotation=0.000|XOffset=0mm|YOffset=0mm|HoleType=Round|Shape=Relief|Width=0.254mm|Gap=0.254mm|Entries=4|*
%AMTHD72*
7,0,0,2.4240,1.9160,0.2540,45*
%
%ADD72THD72*%
G04:AMPARAMS|DCode=73|XSize=2.286mm|YSize=2.286mm|CornerRadius=0mm|HoleSize=0mm|Usage=FLASHONLY|Rotation=0.000|XOffset=0mm|YOffset=0mm|HoleType=Round|Shape=Relief|Width=0.254mm|Gap=0.254mm|Entries=4|*
%AMTHD73*
7,0,0,2.2860,1.7780,0.2540,45*
%
%ADD73THD73*%
%ADD74C,2.6160*%
%ADD75C,1.7272*%
%ADD76C,1.2160*%
G04:AMPARAMS|DCode=77|XSize=2.2352mm|YSize=2.2352mm|CornerRadius=0mm|HoleSize=0mm|Usage=FLASHONLY|Rotation=0.000|XOffset=0mm|YOffset=0mm|HoleType=Round|Shape=Relief|Width=0.254mm|Gap=0.254mm|Entries=4|*
%AMTHD77*
7,0,0,2.2352,1.7272,0.2540,45*
%
%ADD77THD77*%
G04:AMPARAMS|DCode=78|XSize=2.337mm|YSize=2.337mm|CornerRadius=0mm|HoleSize=0mm|Usage=FLASHONLY|Rotation=0.000|XOffset=0mm|YOffset=0mm|HoleType=Round|Shape=Relief|Width=0.254mm|Gap=0.254mm|Entries=4|*
%AMTHD78*
7,0,0,2.3370,1.8290,0.2540,45*
%
%ADD78THD78*%
%ADD79O,1.1000X0.8000*%
%ADD80R,1.1000X0.8000*%
%ADD81R,2.4000X1.2000*%
%ADD82R,1.7000X0.3500*%
%ADD83R,1.1176X1.1000*%
%ADD84R,1.1000X1.1000*%
%ADD85R,1.1176X1.1176*%
%ADD86R,1.1000X1.1176*%
%ADD87R,1.1000X1.1176*%
%ADD88R,1.1000X1.1000*%
%ADD89R,1.1176X1.1000*%
%ADD90R,1.1176X1.1000*%
D10*
X1087120Y486520D02*
D03*
Y468376D02*
D03*
X1056640Y576690D02*
D03*
Y558546D02*
D03*
X1080770Y631300D02*
D03*
Y613156D02*
D03*
X1163320Y490110D02*
D03*
Y508254D02*
D03*
X1202690Y509160D02*
D03*
Y527304D02*
D03*
X1231900Y485030D02*
D03*
Y503174D02*
D03*
X1268730Y485250D02*
D03*
Y467106D02*
D03*
X1247140Y434230D02*
D03*
Y452374D02*
D03*
X1268730Y434230D02*
D03*
Y452374D02*
D03*
X1109980Y463440D02*
D03*
Y481584D02*
D03*
X1087120Y418990D02*
D03*
Y437134D02*
D03*
X872490Y495410D02*
D03*
Y477266D02*
D03*
Y435500D02*
D03*
Y453644D02*
D03*
X792480Y423020D02*
D03*
Y404876D02*
D03*
Y391270D02*
D03*
Y373126D02*
D03*
X899160Y392320D02*
D03*
Y410464D02*
D03*
X872490Y532096D02*
D03*
Y513952D02*
D03*
X1357630Y703470D02*
D03*
Y721614D02*
D03*
X1249680Y699880D02*
D03*
Y681736D02*
D03*
X1360170Y671720D02*
D03*
Y689864D02*
D03*
X1277620Y659240D02*
D03*
Y641096D02*
D03*
Y599330D02*
D03*
Y617474D02*
D03*
X570230Y1021190D02*
D03*
Y1003046D02*
D03*
X1043940Y488840D02*
D03*
Y506984D02*
D03*
Y520590D02*
D03*
Y538734D02*
D03*
X951350Y942570D02*
D03*
Y924426D02*
D03*
X999610Y871230D02*
D03*
Y889374D02*
D03*
X886460Y1014840D02*
D03*
Y996696D02*
D03*
X866140Y852280D02*
D03*
Y834136D02*
D03*
X655320Y746870D02*
D03*
Y728726D02*
D03*
X596900Y984140D02*
D03*
Y1002284D02*
D03*
D11*
X1119150Y587730D02*
D03*
Y582730D02*
D03*
Y577730D02*
D03*
Y572730D02*
D03*
Y567730D02*
D03*
Y562730D02*
D03*
Y557730D02*
D03*
Y552730D02*
D03*
X1090650D02*
D03*
Y557730D02*
D03*
Y562730D02*
D03*
Y567730D02*
D03*
Y572730D02*
D03*
Y577730D02*
D03*
Y582730D02*
D03*
Y587730D02*
D03*
D12*
X1116850Y585230D02*
D03*
Y555230D02*
D03*
X1092950D02*
D03*
Y585230D02*
D03*
D13*
X1104900Y570230D02*
D03*
D14*
X1097170Y638810D02*
D03*
X1115314D02*
D03*
X1145650Y608330D02*
D03*
X1127506D02*
D03*
X1090820Y501650D02*
D03*
X1108964D02*
D03*
X1141840D02*
D03*
X1123696D02*
D03*
X1182480Y523240D02*
D03*
X1164336D02*
D03*
X1186070Y421640D02*
D03*
X1204214D02*
D03*
X801260Y514350D02*
D03*
X819404D02*
D03*
X833010D02*
D03*
X851154D02*
D03*
X857360Y488950D02*
D03*
X839216D02*
D03*
X791100D02*
D03*
X809244D02*
D03*
X834280Y467360D02*
D03*
X852424D02*
D03*
X866030Y408940D02*
D03*
X884174D02*
D03*
X855870Y345440D02*
D03*
X874014D02*
D03*
X805070Y346710D02*
D03*
X823214D02*
D03*
X805070Y326390D02*
D03*
X823214D02*
D03*
X856090D02*
D03*
X837946D02*
D03*
X887620Y374650D02*
D03*
X905764D02*
D03*
X1294020Y781050D02*
D03*
X1312164D02*
D03*
X1344930Y779780D02*
D03*
X1326786D02*
D03*
X1346310Y758190D02*
D03*
X1328166D02*
D03*
X1294240Y749300D02*
D03*
X1276096D02*
D03*
X1262490Y720090D02*
D03*
X1244346D02*
D03*
X1285350Y681990D02*
D03*
X1267206D02*
D03*
X1315830Y627380D02*
D03*
X1297686D02*
D03*
X1292750Y604520D02*
D03*
X1310894D02*
D03*
X1357740D02*
D03*
X1339596D02*
D03*
X1154320Y420370D02*
D03*
X1172464D02*
D03*
X998450Y1035170D02*
D03*
X980306D02*
D03*
X900540Y654050D02*
D03*
X882396D02*
D03*
X645270Y963930D02*
D03*
X627126D02*
D03*
D15*
X1189580Y478282D02*
D03*
X1183080D02*
D03*
X1176528D02*
D03*
X1169924D02*
D03*
Y438720D02*
D03*
X1176528D02*
D03*
X1183080D02*
D03*
X1189580D02*
D03*
X839216Y417322D02*
D03*
X832612D02*
D03*
X826060D02*
D03*
X819560D02*
D03*
Y377760D02*
D03*
X826060D02*
D03*
X832612D02*
D03*
X839216D02*
D03*
X1310894Y677418D02*
D03*
X1317498D02*
D03*
X1324050D02*
D03*
X1330550D02*
D03*
Y716980D02*
D03*
X1324050D02*
D03*
X1317498D02*
D03*
X1310894D02*
D03*
D16*
X1160018Y468376D02*
D03*
Y461772D02*
D03*
Y455220D02*
D03*
Y448720D02*
D03*
X1199580D02*
D03*
Y455220D02*
D03*
Y461772D02*
D03*
Y468376D02*
D03*
X849122Y387760D02*
D03*
Y394260D02*
D03*
Y400812D02*
D03*
Y407416D02*
D03*
X809560D02*
D03*
Y400812D02*
D03*
Y394260D02*
D03*
Y387760D02*
D03*
X1300988Y706980D02*
D03*
Y700480D02*
D03*
Y693928D02*
D03*
Y687324D02*
D03*
X1340550D02*
D03*
Y693928D02*
D03*
Y700480D02*
D03*
Y706980D02*
D03*
D17*
X909320Y518550D02*
D03*
D18*
Y484750D02*
D03*
D19*
X866140Y557530D02*
D03*
Y577690D02*
D03*
X944880Y895350D02*
D03*
Y875190D02*
D03*
D20*
X832358Y614220D02*
D03*
X825754D02*
D03*
X838910D02*
D03*
X845410D02*
D03*
Y556514D02*
D03*
X838910D02*
D03*
X832358D02*
D03*
X825754D02*
D03*
D21*
X864110Y608330D02*
D03*
X896112D02*
D03*
D22*
X951230Y554230D02*
D03*
Y586232D02*
D03*
D23*
X942340Y666496D02*
D03*
Y649360D02*
D03*
X935990Y763016D02*
D03*
Y745880D02*
D03*
X1063110Y888866D02*
D03*
Y871730D02*
D03*
X765810Y514740D02*
D03*
Y531876D02*
D03*
X1061720Y804300D02*
D03*
Y821436D02*
D03*
X1042670Y726830D02*
D03*
Y743966D02*
D03*
X792480Y710184D02*
D03*
Y727320D02*
D03*
D24*
X1070410Y953690D02*
D03*
Y948690D02*
D03*
Y943690D02*
D03*
Y938690D02*
D03*
Y933690D02*
D03*
Y928690D02*
D03*
X1030410D02*
D03*
Y933690D02*
D03*
Y938690D02*
D03*
Y943690D02*
D03*
Y948690D02*
D03*
Y953690D02*
D03*
D25*
X1062910Y921190D02*
D03*
X1057910D02*
D03*
X1052910D02*
D03*
X1047910D02*
D03*
X1042910D02*
D03*
X1037910D02*
D03*
Y961190D02*
D03*
X1042910D02*
D03*
X1047910D02*
D03*
X1052910D02*
D03*
X1057910D02*
D03*
X1062910D02*
D03*
D26*
X1050410Y941190D02*
D03*
D27*
X966470Y803750D02*
D03*
X956970Y783750D02*
D03*
X975970D02*
D03*
X888340Y710090D02*
D03*
X869340D02*
D03*
X878840Y730090D02*
D03*
X670560Y559910D02*
D03*
X661060Y539910D02*
D03*
X680060D02*
D03*
D28*
X1040130Y810090D02*
D03*
Y820590D02*
D03*
X867410Y952670D02*
D03*
Y942170D02*
D03*
X749300Y621200D02*
D03*
Y610700D02*
D03*
X867410Y927270D02*
D03*
Y916770D02*
D03*
X749300Y645330D02*
D03*
Y634830D02*
D03*
X913130Y745320D02*
D03*
Y755820D02*
D03*
X788670Y758360D02*
D03*
Y747860D02*
D03*
D29*
X1122426Y981710D02*
D03*
X1135530D02*
D03*
X1244346Y948690D02*
D03*
X1257450D02*
D03*
X1119886Y916940D02*
D03*
X1132990D02*
D03*
D30*
X909447Y680720D02*
D03*
X868426D02*
D03*
X909447Y670720D02*
D03*
Y685800D02*
D03*
Y690880D02*
D03*
Y675720D02*
D03*
X868426Y690880D02*
D03*
Y670720D02*
D03*
Y675720D02*
D03*
Y685800D02*
D03*
X666496Y518160D02*
D03*
Y508080D02*
D03*
Y503080D02*
D03*
Y523240D02*
D03*
X707517Y508080D02*
D03*
Y523240D02*
D03*
Y518160D02*
D03*
Y503080D02*
D03*
X666496Y513080D02*
D03*
X707517D02*
D03*
X962406Y765810D02*
D03*
Y755730D02*
D03*
Y750730D02*
D03*
Y770890D02*
D03*
X1003427Y755730D02*
D03*
Y770890D02*
D03*
Y765810D02*
D03*
Y750730D02*
D03*
X962406Y760730D02*
D03*
X1003427D02*
D03*
D31*
X919480Y835660D02*
D03*
X941190Y1002150D02*
D03*
X909320Y858520D02*
D03*
X905510Y986790D02*
D03*
D32*
X923420Y831910D02*
D03*
Y839410D02*
D03*
X915650Y835660D02*
D03*
X945130Y998400D02*
D03*
Y1005900D02*
D03*
X937360Y1002150D02*
D03*
X913260Y854770D02*
D03*
Y862270D02*
D03*
X905490Y858520D02*
D03*
X901570Y990540D02*
D03*
Y983040D02*
D03*
X909340Y986790D02*
D03*
D33*
X958850Y837920D02*
D03*
Y815620D02*
D03*
X932180Y962380D02*
D03*
Y940080D02*
D03*
D34*
X1209294Y989330D02*
D03*
X1226430D02*
D03*
X1226686Y948810D02*
D03*
X1209550D02*
D03*
X1226686Y913250D02*
D03*
X1209550D02*
D03*
X1209414Y877690D02*
D03*
X1226550D02*
D03*
X1152144Y927100D02*
D03*
X1169280D02*
D03*
X1226686Y971670D02*
D03*
X1209550D02*
D03*
X1209414Y852290D02*
D03*
X1226550D02*
D03*
X748420Y497840D02*
D03*
X765556D02*
D03*
X714130Y560070D02*
D03*
X731266D02*
D03*
D35*
X724330Y646150D02*
D03*
Y641150D02*
D03*
Y636150D02*
D03*
Y631150D02*
D03*
Y626150D02*
D03*
Y621150D02*
D03*
Y616150D02*
D03*
Y611150D02*
D03*
X682830Y646150D02*
D03*
Y641150D02*
D03*
Y636150D02*
D03*
Y631150D02*
D03*
Y626150D02*
D03*
Y621150D02*
D03*
Y616150D02*
D03*
Y611150D02*
D03*
X841170Y952220D02*
D03*
Y947220D02*
D03*
Y942220D02*
D03*
Y937220D02*
D03*
Y932220D02*
D03*
Y927220D02*
D03*
Y922220D02*
D03*
Y917220D02*
D03*
X799670Y952220D02*
D03*
Y947220D02*
D03*
Y942220D02*
D03*
Y937220D02*
D03*
Y932220D02*
D03*
Y927220D02*
D03*
Y922220D02*
D03*
Y917220D02*
D03*
X756080Y757910D02*
D03*
Y752910D02*
D03*
Y747910D02*
D03*
Y742910D02*
D03*
Y737910D02*
D03*
Y732910D02*
D03*
Y727910D02*
D03*
Y722910D02*
D03*
X714580Y757910D02*
D03*
Y752910D02*
D03*
Y747910D02*
D03*
Y742910D02*
D03*
Y737910D02*
D03*
Y732910D02*
D03*
Y727910D02*
D03*
Y722910D02*
D03*
D36*
X547810Y1143760D02*
D03*
X602810D02*
D03*
X547810Y1111760D02*
D03*
X602810D02*
D03*
D37*
X610870Y1079650D02*
D03*
Y1066546D02*
D03*
X580390Y1079350D02*
D03*
Y1092454D02*
D03*
D38*
X646070Y1047310D02*
D03*
Y1042310D02*
D03*
Y1037310D02*
D03*
Y1032310D02*
D03*
Y1027310D02*
D03*
Y1022310D02*
D03*
Y1017310D02*
D03*
Y1012310D02*
D03*
Y1007310D02*
D03*
Y1002310D02*
D03*
Y997310D02*
D03*
Y992310D02*
D03*
X728070D02*
D03*
Y997310D02*
D03*
Y1002310D02*
D03*
Y1007310D02*
D03*
Y1012310D02*
D03*
Y1017310D02*
D03*
Y1022310D02*
D03*
Y1027310D02*
D03*
Y1032310D02*
D03*
Y1037310D02*
D03*
Y1042310D02*
D03*
Y1047310D02*
D03*
D39*
X659570Y978810D02*
D03*
X664570D02*
D03*
X669570D02*
D03*
X674570D02*
D03*
X679570D02*
D03*
X684570D02*
D03*
X689570D02*
D03*
X694570D02*
D03*
X699570D02*
D03*
X704570D02*
D03*
X709570D02*
D03*
X714570D02*
D03*
Y1060810D02*
D03*
X709570D02*
D03*
X704570D02*
D03*
X699570D02*
D03*
X694570D02*
D03*
X689570D02*
D03*
X684570D02*
D03*
X679570D02*
D03*
X674570D02*
D03*
X669570D02*
D03*
X664570D02*
D03*
X659570D02*
D03*
D40*
X949150Y521208D02*
D03*
Y514604D02*
D03*
Y527760D02*
D03*
Y534260D02*
D03*
X1006856D02*
D03*
Y527760D02*
D03*
Y521208D02*
D03*
Y514604D02*
D03*
D41*
X1027040Y596900D02*
D03*
D42*
X1060840D02*
D03*
D43*
X998220Y554990D02*
D03*
X978060D02*
D03*
D47*
X909315Y497995D02*
D03*
D49*
X1047590Y596894D02*
D03*
D83*
X1172718Y451470D02*
D03*
D84*
X1186830Y451470D02*
D03*
D85*
X1172718Y465582D02*
D03*
X836422Y404622D02*
D03*
X1313688Y690118D02*
D03*
D86*
X1186830Y465582D02*
D03*
D87*
X822310Y404622D02*
D03*
X1327800Y690118D02*
D03*
D88*
X822310Y390510D02*
D03*
X1327800Y704230D02*
D03*
D89*
X836422Y390510D02*
D03*
D90*
X1313688Y704230D02*
D03*
M02*
