%FSLAX44Y44*%
%MOMM*%
G71*
G01*
G75*
G04 Layer_Color=16711935*
%ADD10R,6.0000X2.5000*%
%ADD11R,4.0000X6.9850*%
%ADD12R,2.5000X6.0000*%
%ADD13R,6.9850X4.0000*%
%ADD14C,1.0000*%
%ADD15C,0.2540*%
%ADD16C,5.0000*%
%ADD17C,1.0000*%
%ADD18C,1.8000*%
%ADD19C,4.0000*%
%ADD20C,1.2700*%
%ADD21R,1.0200X3.8000*%
%ADD22R,1.2192X0.8128*%
%ADD23R,0.3556X0.7620*%
%ADD24R,0.7620X0.3556*%
%ADD25R,2.7940X2.7940*%
%ADD26C,0.2730*%
%ADD27R,6.2032X2.7032*%
%ADD28R,4.2032X7.1882*%
%ADD29R,2.7032X6.2032*%
%ADD30R,7.1882X4.2032*%
%ADD31C,5.2032*%
%ADD32C,1.2032*%
%ADD33C,2.0032*%
%ADD34C,4.2032*%
%ADD35C,1.4732*%
%ADD36R,1.1200X3.9000*%
%ADD37R,1.4224X1.0160*%
%ADD38R,0.5588X0.9652*%
%ADD39R,0.9652X0.5588*%
%ADD40R,2.9972X2.9972*%
%ADD41R,0.0254X0.0254*%
%ADD42C,0.1524*%
%ADD43C,0.0762*%
%ADD44C,0.1270*%
D15*
X452033Y1355230D02*
X478645D01*
Y1292650D02*
Y1355230D01*
X460923Y1292650D02*
X478645D01*
X460923Y1280850D02*
Y1292650D01*
X410113Y1280850D02*
X460923D01*
X410113D02*
Y1289850D01*
X390443D02*
X410113D01*
X390443Y1280850D02*
Y1289850D01*
X339632Y1280850D02*
X390443D01*
X339632D02*
Y1292650D01*
X321910D02*
X339632D01*
X321910D02*
Y1355230D01*
X348522D01*
Y1350150D02*
Y1355230D01*
Y1350150D02*
X387578D01*
Y1355230D01*
X412977D01*
Y1350150D02*
Y1355230D01*
Y1350150D02*
X452033D01*
Y1355230D01*
D44*
X401343Y1322539D02*
Y1316735D01*
X401705Y1315646D01*
X402068Y1315284D01*
X402794Y1314921D01*
X403519D01*
X404245Y1315284D01*
X404608Y1315646D01*
X404970Y1316735D01*
Y1317460D01*
X399384Y1321088D02*
X398658Y1321451D01*
X397570Y1322539D01*
Y1314921D01*
M02*
