%FSLAX44Y44*%
%MOMM*%
G71*
G01*
G75*
%ADD10R,6.0000X2.5000*%
%ADD11R,4.0000X6.9850*%
%ADD12R,2.5000X6.0000*%
%ADD13R,6.9850X4.0000*%
%ADD14C,1.0000*%
%ADD15C,0.2540*%
%ADD16C,5.0000*%
%ADD17C,1.0000*%
%ADD18C,1.8000*%
%ADD19C,4.0000*%
%ADD20C,1.2700*%
%ADD21R,1.0200X3.8000*%
%ADD22R,1.2192X0.8128*%
%ADD23R,0.3556X0.7620*%
%ADD24R,0.7620X0.3556*%
%ADD25R,2.7940X2.7940*%
%ADD26C,0.2730*%
D10*
X414780Y3035240D02*
D03*
X411220Y3104760D02*
D03*
X206220Y2039760D02*
D03*
D11*
X158240Y3058100D02*
D03*
X667760Y3081900D02*
D03*
X462760Y2016900D02*
D03*
D12*
X754760Y2961780D02*
D03*
X604760D02*
D03*
X454760D02*
D03*
X304760D02*
D03*
X154760D02*
D03*
X75240Y2403220D02*
D03*
X225240D02*
D03*
X375240D02*
D03*
X525240D02*
D03*
X675240D02*
D03*
X754760Y2431780D02*
D03*
X604760D02*
D03*
X525240Y1873220D02*
D03*
X665240D02*
D03*
X754760Y1896780D02*
D03*
X604760D02*
D03*
X454760D02*
D03*
X304760D02*
D03*
X88240Y1758220D02*
D03*
X75240Y1338220D02*
D03*
X225240D02*
D03*
X375240D02*
D03*
X525240D02*
D03*
X675240D02*
D03*
X724760Y1361780D02*
D03*
X604760D02*
D03*
X454760D02*
D03*
X304760D02*
D03*
X174760D02*
D03*
X95240Y803220D02*
D03*
X225240D02*
D03*
X375240D02*
D03*
X525240D02*
D03*
X675240D02*
D03*
X754760Y826780D02*
D03*
X604760D02*
D03*
X454760D02*
D03*
X304760D02*
D03*
X154760D02*
D03*
X75240Y268220D02*
D03*
X225240D02*
D03*
X375240D02*
D03*
X525240D02*
D03*
X675240D02*
D03*
X714760Y291780D02*
D03*
X604760D02*
D03*
X454760D02*
D03*
X304760D02*
D03*
X184760D02*
D03*
D13*
X731900Y2705240D02*
D03*
X581900D02*
D03*
X431900D02*
D03*
X281900D02*
D03*
X131900D02*
D03*
X98100Y2659760D02*
D03*
X248100D02*
D03*
X398100D02*
D03*
X548100D02*
D03*
X698100D02*
D03*
X731900Y2175240D02*
D03*
X581900D02*
D03*
X548100Y2129760D02*
D03*
X688100D02*
D03*
X731900Y1640240D02*
D03*
X581900D02*
D03*
X431900D02*
D03*
X281900D02*
D03*
X111100Y2014760D02*
D03*
X98100Y1594760D02*
D03*
X248100D02*
D03*
X398100D02*
D03*
X548100D02*
D03*
X698100D02*
D03*
X701900Y1105240D02*
D03*
X581900D02*
D03*
X431900D02*
D03*
X281900D02*
D03*
X151900D02*
D03*
X118100Y1059760D02*
D03*
X248100D02*
D03*
X398100D02*
D03*
X548100D02*
D03*
X698100D02*
D03*
X731900Y570240D02*
D03*
X581900D02*
D03*
X431900D02*
D03*
X281900D02*
D03*
X131900D02*
D03*
X98100Y524760D02*
D03*
X248100D02*
D03*
X398100D02*
D03*
X548100D02*
D03*
X698100D02*
D03*
X691900Y35240D02*
D03*
X581900D02*
D03*
X431900D02*
D03*
X281900D02*
D03*
X161900D02*
D03*
D16*
X165000Y1746000D02*
D03*
D17*
X238052Y2138133D02*
D03*
Y2258029D02*
D03*
X366052Y2138133D02*
D03*
Y2258133D02*
D03*
Y2278889D02*
D03*
Y2158889D02*
D03*
X238052Y2278785D02*
D03*
Y2158889D02*
D03*
D18*
X172771Y2208128D02*
D03*
X177475Y2258907D02*
D03*
X402148Y2313484D02*
D03*
X427205Y2259001D02*
D03*
Y2155998D02*
D03*
X402148Y2103261D02*
D03*
X177475Y2156907D02*
D03*
D19*
X30000Y1100000D02*
D03*
X52000Y126500D02*
D03*
X768000D02*
D03*
X790000Y1100000D02*
D03*
Y2100000D02*
D03*
X768000Y3100000D02*
D03*
X52000D02*
D03*
X30000Y2100000D02*
D03*
M02*
