%FSLAX44Y44*%
%MOMM*%
G71*
G01*
G75*
G04 Layer_Color=128*
%ADD10R,2.5000X6.0000*%
%ADD11R,6.9850X4.0000*%
%ADD12C,1.0000*%
%ADD13C,16.0000*%
%ADD14C,4.0000*%
%ADD15C,1.2700*%
%ADD16R,1.2192X0.8128*%
%ADD17R,1.0200X3.8000*%
%ADD18R,0.3556X0.7620*%
%ADD19R,0.7620X0.3556*%
%ADD20R,2.7940X2.7940*%
%ADD21C,0.2540*%
%ADD22R,2.7032X6.2032*%
%ADD23R,7.1882X4.2032*%
%ADD24C,16.2032*%
%ADD25C,4.2032*%
%ADD26C,1.4732*%
%ADD27R,1.4224X1.0160*%
%ADD28R,1.1200X3.9000*%
%ADD29R,0.5588X0.9652*%
%ADD30R,0.9652X0.5588*%
%ADD31R,2.9972X2.9972*%
%ADD32R,0.0254X0.0254*%
G36*
X422970Y1467030D02*
X411000D01*
Y1479000D01*
X422970D01*
Y1467030D01*
D02*
G37*
G36*
X409000D02*
X397030D01*
Y1479000D01*
X409000D01*
Y1467030D01*
D02*
G37*
G36*
X422970Y1481000D02*
X411000D01*
Y1492970D01*
X422970D01*
Y1481000D01*
D02*
G37*
G36*
X409000D02*
X397030D01*
Y1492970D01*
X409000D01*
Y1481000D01*
D02*
G37*
D16*
X280000Y1419000D02*
D03*
Y1400856D02*
D03*
X360000Y1439000D02*
D03*
Y1420856D02*
D03*
X340000Y1429000D02*
D03*
Y1410856D02*
D03*
X320000Y1439000D02*
D03*
Y1420856D02*
D03*
X300000Y1429000D02*
D03*
Y1410856D02*
D03*
D17*
X360000Y1295350D02*
D03*
Y1244650D02*
D03*
X380000Y1295350D02*
D03*
Y1244650D02*
D03*
X400000Y1295350D02*
D03*
Y1244650D02*
D03*
X420000Y1295350D02*
D03*
Y1244650D02*
D03*
X440000Y1295350D02*
D03*
Y1244650D02*
D03*
D18*
X419750Y1460315D02*
D03*
X413250D02*
D03*
X406750D02*
D03*
X400250D02*
D03*
Y1499685D02*
D03*
X406750D02*
D03*
X413250D02*
D03*
X419750D02*
D03*
D19*
X390315Y1470250D02*
D03*
Y1476750D02*
D03*
Y1483250D02*
D03*
Y1489750D02*
D03*
X429685D02*
D03*
Y1483250D02*
D03*
Y1476750D02*
D03*
Y1470250D02*
D03*
D32*
X410000Y1480000D02*
D03*
M02*
