%FSLAX44Y44*%
%MOMM*%
G71*
G01*
G75*
%ADD10R,2.5000X6.0000*%
%ADD11R,6.9850X4.0000*%
%ADD12C,1.0000*%
%ADD13C,16.0000*%
%ADD14C,4.0000*%
%ADD15C,1.2700*%
%ADD16R,1.2192X0.8128*%
%ADD17R,1.0200X3.8000*%
%ADD18R,0.3556X0.7620*%
%ADD19R,0.7620X0.3556*%
%ADD20R,2.7940X2.7940*%
%ADD21C,0.2540*%
D21*
X651595Y401061D02*
X641438D01*
Y393444D01*
X646516Y395983D01*
X649056D01*
X651595Y393444D01*
Y388365D01*
X649056Y385826D01*
X643977D01*
X641438Y388365D01*
X656673Y398522D02*
X659212Y401061D01*
X664291D01*
X666830Y398522D01*
Y395983D01*
X664291Y393444D01*
X666830Y390904D01*
Y388365D01*
X664291Y385826D01*
X659212D01*
X656673Y388365D01*
Y390904D01*
X659212Y393444D01*
X656673Y395983D01*
Y398522D01*
X659212Y393444D02*
X664291D01*
X531707Y401061D02*
X521550D01*
Y393444D01*
X526628Y395983D01*
X529168D01*
X531707Y393444D01*
Y388365D01*
X529168Y385826D01*
X524089D01*
X521550Y388365D01*
X536785Y401061D02*
X546942D01*
Y398522D01*
X536785Y388365D01*
Y385826D01*
X381593Y401061D02*
X371436D01*
Y393444D01*
X376515Y395983D01*
X379054D01*
X381593Y393444D01*
Y388365D01*
X379054Y385826D01*
X373975D01*
X371436Y388365D01*
X396828Y401061D02*
X391750Y398522D01*
X386671Y393444D01*
Y388365D01*
X389210Y385826D01*
X394289D01*
X396828Y388365D01*
Y390904D01*
X394289Y393444D01*
X386671D01*
X231733Y401061D02*
X221576D01*
Y393444D01*
X226654Y395983D01*
X229194D01*
X231733Y393444D01*
Y388365D01*
X229194Y385826D01*
X224115D01*
X221576Y388365D01*
X246968Y401061D02*
X236811D01*
Y393444D01*
X241890Y395983D01*
X244429D01*
X246968Y393444D01*
Y388365D01*
X244429Y385826D01*
X239350D01*
X236811Y388365D01*
X81619Y401061D02*
X71462D01*
Y393444D01*
X76540Y395983D01*
X79080D01*
X81619Y393444D01*
Y388365D01*
X79080Y385826D01*
X74001D01*
X71462Y388365D01*
X94315Y385826D02*
Y401061D01*
X86697Y393444D01*
X96854D01*
X73237Y603753D02*
X63080D01*
Y596136D01*
X68158Y598675D01*
X70698D01*
X73237Y596136D01*
Y591057D01*
X70698Y588518D01*
X65619D01*
X63080Y591057D01*
X78315Y601214D02*
X80854Y603753D01*
X85933D01*
X88472Y601214D01*
Y598675D01*
X85933Y596136D01*
X83394D01*
X85933D01*
X88472Y593596D01*
Y591057D01*
X85933Y588518D01*
X80854D01*
X78315Y591057D01*
X223351Y603753D02*
X213194D01*
Y596136D01*
X218272Y598675D01*
X220812D01*
X223351Y596136D01*
Y591057D01*
X220812Y588518D01*
X215733D01*
X213194Y591057D01*
X238586Y588518D02*
X228429D01*
X238586Y598675D01*
Y601214D01*
X236047Y603753D01*
X230968D01*
X228429Y601214D01*
X373211Y603753D02*
X363054D01*
Y596136D01*
X368133Y598675D01*
X370672D01*
X373211Y596136D01*
Y591057D01*
X370672Y588518D01*
X365593D01*
X363054Y591057D01*
X378289Y588518D02*
X383368D01*
X380828D01*
Y603753D01*
X378289Y601214D01*
X523325Y603753D02*
X513168D01*
Y596136D01*
X518246Y598675D01*
X520786D01*
X523325Y596136D01*
Y591057D01*
X520786Y588518D01*
X515707D01*
X513168Y591057D01*
X528403Y601214D02*
X530942Y603753D01*
X536021D01*
X538560Y601214D01*
Y591057D01*
X536021Y588518D01*
X530942D01*
X528403Y591057D01*
Y601214D01*
X670646Y588518D02*
Y603753D01*
X663028Y596136D01*
X673185D01*
X678263Y591057D02*
X680802Y588518D01*
X685881D01*
X688420Y591057D01*
Y601214D01*
X685881Y603753D01*
X680802D01*
X678263Y601214D01*
Y598675D01*
X680802Y596136D01*
X688420D01*
X679028Y905764D02*
Y920999D01*
X671410Y913382D01*
X681567D01*
X686645Y918460D02*
X689184Y920999D01*
X694263D01*
X696802Y918460D01*
Y915921D01*
X694263Y913382D01*
X696802Y910842D01*
Y908303D01*
X694263Y905764D01*
X689184D01*
X686645Y908303D01*
Y910842D01*
X689184Y913382D01*
X686645Y915921D01*
Y918460D01*
X689184Y913382D02*
X694263D01*
X529168Y905764D02*
Y920999D01*
X521550Y913382D01*
X531707D01*
X536785Y920999D02*
X546942D01*
Y918460D01*
X536785Y908303D01*
Y905764D01*
X379054D02*
Y920999D01*
X371436Y913382D01*
X381593D01*
X396828Y920999D02*
X391750Y918460D01*
X386671Y913382D01*
Y908303D01*
X389210Y905764D01*
X394289D01*
X396828Y908303D01*
Y910842D01*
X394289Y913382D01*
X386671D01*
X229194Y905764D02*
Y920999D01*
X221576Y913382D01*
X231733D01*
X246968Y920999D02*
X236811D01*
Y913382D01*
X241890Y915921D01*
X244429D01*
X246968Y913382D01*
Y908303D01*
X244429Y905764D01*
X239350D01*
X236811Y908303D01*
X79080Y905764D02*
Y920999D01*
X71462Y913382D01*
X81619D01*
X94315Y905764D02*
Y920999D01*
X86697Y913382D01*
X96854D01*
X70698Y1108456D02*
Y1123691D01*
X63080Y1116074D01*
X73237D01*
X78315Y1121152D02*
X80854Y1123691D01*
X85933D01*
X88472Y1121152D01*
Y1118613D01*
X85933Y1116074D01*
X83394D01*
X85933D01*
X88472Y1113534D01*
Y1110995D01*
X85933Y1108456D01*
X80854D01*
X78315Y1110995D01*
X220812Y1108456D02*
Y1123691D01*
X213194Y1116074D01*
X223351D01*
X238586Y1108456D02*
X228429D01*
X238586Y1118613D01*
Y1121152D01*
X236047Y1123691D01*
X230968D01*
X228429Y1121152D01*
X370672Y1108456D02*
Y1123691D01*
X363054Y1116074D01*
X373211D01*
X378289Y1108456D02*
X383368D01*
X380828D01*
Y1123691D01*
X378289Y1121152D01*
X520786Y1108456D02*
Y1123691D01*
X513168Y1116074D01*
X523325D01*
X528403Y1121152D02*
X530942Y1123691D01*
X536021D01*
X538560Y1121152D01*
Y1110995D01*
X536021Y1108456D01*
X530942D01*
X528403Y1110995D01*
Y1121152D01*
X663028D02*
X665567Y1123691D01*
X670646D01*
X673185Y1121152D01*
Y1118613D01*
X670646Y1116074D01*
X668107D01*
X670646D01*
X673185Y1113534D01*
Y1110995D01*
X670646Y1108456D01*
X665567D01*
X663028Y1110995D01*
X678263D02*
X680802Y1108456D01*
X685881D01*
X688420Y1110995D01*
Y1121152D01*
X685881Y1123691D01*
X680802D01*
X678263Y1121152D01*
Y1118613D01*
X680802Y1116074D01*
X688420D01*
X641438Y1438398D02*
X643977Y1440937D01*
X649056D01*
X651595Y1438398D01*
Y1435859D01*
X649056Y1433320D01*
X646516D01*
X649056D01*
X651595Y1430780D01*
Y1428241D01*
X649056Y1425702D01*
X643977D01*
X641438Y1428241D01*
X656673Y1438398D02*
X659212Y1440937D01*
X664291D01*
X666830Y1438398D01*
Y1435859D01*
X664291Y1433320D01*
X666830Y1430780D01*
Y1428241D01*
X664291Y1425702D01*
X659212D01*
X656673Y1428241D01*
Y1430780D01*
X659212Y1433320D01*
X656673Y1435859D01*
Y1438398D01*
X659212Y1433320D02*
X664291D01*
X521550Y1438398D02*
X524089Y1440937D01*
X529168D01*
X531707Y1438398D01*
Y1435859D01*
X529168Y1433320D01*
X526628D01*
X529168D01*
X531707Y1430780D01*
Y1428241D01*
X529168Y1425702D01*
X524089D01*
X521550Y1428241D01*
X536785Y1440937D02*
X546942D01*
Y1438398D01*
X536785Y1428241D01*
Y1425702D01*
X371436Y1438398D02*
X373975Y1440937D01*
X379054D01*
X381593Y1438398D01*
Y1435859D01*
X379054Y1433320D01*
X376515D01*
X379054D01*
X381593Y1430780D01*
Y1428241D01*
X379054Y1425702D01*
X373975D01*
X371436Y1428241D01*
X396828Y1440937D02*
X391750Y1438398D01*
X386671Y1433320D01*
Y1428241D01*
X389210Y1425702D01*
X394289D01*
X396828Y1428241D01*
Y1430780D01*
X394289Y1433320D01*
X386671D01*
X221576Y1438398D02*
X224115Y1440937D01*
X229194D01*
X231733Y1438398D01*
Y1435859D01*
X229194Y1433320D01*
X226654D01*
X229194D01*
X231733Y1430780D01*
Y1428241D01*
X229194Y1425702D01*
X224115D01*
X221576Y1428241D01*
X246968Y1440937D02*
X236811D01*
Y1433320D01*
X241890Y1435859D01*
X244429D01*
X246968Y1433320D01*
Y1428241D01*
X244429Y1425702D01*
X239350D01*
X236811Y1428241D01*
X71462Y1438398D02*
X74001Y1440937D01*
X79080D01*
X81619Y1438398D01*
Y1435859D01*
X79080Y1433320D01*
X76540D01*
X79080D01*
X81619Y1430780D01*
Y1428241D01*
X79080Y1425702D01*
X74001D01*
X71462Y1428241D01*
X94315Y1425702D02*
Y1440937D01*
X86697Y1433320D01*
X96854D01*
X63080Y1641344D02*
X65619Y1643883D01*
X70698D01*
X73237Y1641344D01*
Y1638805D01*
X70698Y1636266D01*
X68158D01*
X70698D01*
X73237Y1633726D01*
Y1631187D01*
X70698Y1628648D01*
X65619D01*
X63080Y1631187D01*
X78315Y1641344D02*
X80854Y1643883D01*
X85933D01*
X88472Y1641344D01*
Y1638805D01*
X85933Y1636266D01*
X83394D01*
X85933D01*
X88472Y1633726D01*
Y1631187D01*
X85933Y1628648D01*
X80854D01*
X78315Y1631187D01*
X213194Y1641344D02*
X215733Y1643883D01*
X220812D01*
X223351Y1641344D01*
Y1638805D01*
X220812Y1636266D01*
X218272D01*
X220812D01*
X223351Y1633726D01*
Y1631187D01*
X220812Y1628648D01*
X215733D01*
X213194Y1631187D01*
X238586Y1628648D02*
X228429D01*
X238586Y1638805D01*
Y1641344D01*
X236047Y1643883D01*
X230968D01*
X228429Y1641344D01*
X363054D02*
X365593Y1643883D01*
X370672D01*
X373211Y1641344D01*
Y1638805D01*
X370672Y1636266D01*
X368133D01*
X370672D01*
X373211Y1633726D01*
Y1631187D01*
X370672Y1628648D01*
X365593D01*
X363054Y1631187D01*
X378289Y1628648D02*
X383368D01*
X380828D01*
Y1643883D01*
X378289Y1641344D01*
X513168D02*
X515707Y1643883D01*
X520786D01*
X523325Y1641344D01*
Y1638805D01*
X520786Y1636266D01*
X518246D01*
X520786D01*
X523325Y1633726D01*
Y1631187D01*
X520786Y1628648D01*
X515707D01*
X513168Y1631187D01*
X528403Y1641344D02*
X530942Y1643883D01*
X536021D01*
X538560Y1641344D01*
Y1631187D01*
X536021Y1628648D01*
X530942D01*
X528403Y1631187D01*
Y1641344D01*
X673185Y1628648D02*
X663028D01*
X673185Y1638805D01*
Y1641344D01*
X670646Y1643883D01*
X665567D01*
X663028Y1641344D01*
X678263Y1631187D02*
X680802Y1628648D01*
X685881D01*
X688420Y1631187D01*
Y1641344D01*
X685881Y1643883D01*
X680802D01*
X678263Y1641344D01*
Y1638805D01*
X680802Y1636266D01*
X688420D01*
X681567Y1945894D02*
X671410D01*
X681567Y1956051D01*
Y1958590D01*
X679028Y1961129D01*
X673949D01*
X671410Y1958590D01*
X686645D02*
X689184Y1961129D01*
X694263D01*
X696802Y1958590D01*
Y1956051D01*
X694263Y1953512D01*
X696802Y1950972D01*
Y1948433D01*
X694263Y1945894D01*
X689184D01*
X686645Y1948433D01*
Y1950972D01*
X689184Y1953512D01*
X686645Y1956051D01*
Y1958590D01*
X689184Y1953512D02*
X694263D01*
X531707Y1945894D02*
X521550D01*
X531707Y1956051D01*
Y1958590D01*
X529168Y1961129D01*
X524089D01*
X521550Y1958590D01*
X536785Y1961129D02*
X546942D01*
Y1958590D01*
X536785Y1948433D01*
Y1945894D01*
X381593D02*
X371436D01*
X381593Y1956051D01*
Y1958590D01*
X379054Y1961129D01*
X373975D01*
X371436Y1958590D01*
X396828Y1961129D02*
X391750Y1958590D01*
X386671Y1953512D01*
Y1948433D01*
X389210Y1945894D01*
X394289D01*
X396828Y1948433D01*
Y1950972D01*
X394289Y1953512D01*
X386671D01*
X231733Y1945894D02*
X221576D01*
X231733Y1956051D01*
Y1958590D01*
X229194Y1961129D01*
X224115D01*
X221576Y1958590D01*
X246968Y1961129D02*
X236811D01*
Y1953512D01*
X241890Y1956051D01*
X244429D01*
X246968Y1953512D01*
Y1948433D01*
X244429Y1945894D01*
X239350D01*
X236811Y1948433D01*
X81619Y1945894D02*
X71462D01*
X81619Y1956051D01*
Y1958590D01*
X79080Y1961129D01*
X74001D01*
X71462Y1958590D01*
X94315Y1945894D02*
Y1961129D01*
X86697Y1953512D01*
X96854D01*
X73237Y2148586D02*
X63080D01*
X73237Y2158743D01*
Y2161282D01*
X70698Y2163821D01*
X65619D01*
X63080Y2161282D01*
X78315D02*
X80854Y2163821D01*
X85933D01*
X88472Y2161282D01*
Y2158743D01*
X85933Y2156204D01*
X83394D01*
X85933D01*
X88472Y2153664D01*
Y2151125D01*
X85933Y2148586D01*
X80854D01*
X78315Y2151125D01*
X198157Y2155000D02*
X188000D01*
X198157Y2165157D01*
Y2167696D01*
X195618Y2170235D01*
X190539D01*
X188000Y2167696D01*
X213392Y2155000D02*
X203235D01*
X213392Y2165157D01*
Y2167696D01*
X210853Y2170235D01*
X205774D01*
X203235Y2167696D01*
X373211Y2148586D02*
X363054D01*
X373211Y2158743D01*
Y2161282D01*
X370672Y2163821D01*
X365593D01*
X363054Y2161282D01*
X378289Y2148586D02*
X383368D01*
X380828D01*
Y2163821D01*
X378289Y2161282D01*
X523325Y2148586D02*
X513168D01*
X523325Y2158743D01*
Y2161282D01*
X520786Y2163821D01*
X515707D01*
X513168Y2161282D01*
X528403D02*
X530942Y2163821D01*
X536021D01*
X538560Y2161282D01*
Y2151125D01*
X536021Y2148586D01*
X530942D01*
X528403Y2151125D01*
Y2161282D01*
X663028Y2148586D02*
X668107D01*
X665567D01*
Y2163821D01*
X663028Y2161282D01*
X675724Y2151125D02*
X678263Y2148586D01*
X683342D01*
X685881Y2151125D01*
Y2161282D01*
X683342Y2163821D01*
X678263D01*
X675724Y2161282D01*
Y2158743D01*
X678263Y2156204D01*
X685881D01*
X631532Y2465832D02*
X636610D01*
X634071D01*
Y2481067D01*
X631532Y2478528D01*
X644228D02*
X646767Y2481067D01*
X651846D01*
X654385Y2478528D01*
Y2475989D01*
X651846Y2473450D01*
X654385Y2470910D01*
Y2468371D01*
X651846Y2465832D01*
X646767D01*
X644228Y2468371D01*
Y2470910D01*
X646767Y2473450D01*
X644228Y2475989D01*
Y2478528D01*
X646767Y2473450D02*
X651846D01*
X521550Y2465832D02*
X526628D01*
X524089D01*
Y2481067D01*
X521550Y2478528D01*
X534246Y2481067D02*
X544403D01*
Y2478528D01*
X534246Y2468371D01*
Y2465832D01*
X445000Y2466000D02*
X450078D01*
X447539D01*
Y2481235D01*
X445000Y2478696D01*
X467853Y2481235D02*
X457696D01*
Y2473618D01*
X462774Y2476157D01*
X465313D01*
X467853Y2473618D01*
Y2468539D01*
X465313Y2466000D01*
X460235D01*
X457696Y2468539D01*
X71462Y2465832D02*
X76540D01*
X74001D01*
Y2481067D01*
X71462Y2478528D01*
X91776Y2465832D02*
Y2481067D01*
X84158Y2473450D01*
X94315D01*
X63080Y2668524D02*
X68158D01*
X65619D01*
Y2683759D01*
X63080Y2681220D01*
X75776D02*
X78315Y2683759D01*
X83394D01*
X85933Y2681220D01*
Y2678681D01*
X83394Y2676142D01*
X80854D01*
X83394D01*
X85933Y2673602D01*
Y2671063D01*
X83394Y2668524D01*
X78315D01*
X75776Y2671063D01*
X513168Y2668524D02*
X518246D01*
X515707D01*
Y2683759D01*
X513168Y2681220D01*
X536021Y2668524D02*
X525864D01*
X536021Y2678681D01*
Y2681220D01*
X533482Y2683759D01*
X528403D01*
X525864Y2681220D01*
X663028Y2668524D02*
X668107D01*
X665567D01*
Y2683759D01*
X663028Y2681220D01*
X675724Y2668524D02*
X680802D01*
X678263D01*
Y2683759D01*
X675724Y2681220D01*
X671410Y2985770D02*
X676488D01*
X673949D01*
Y3001005D01*
X671410Y2998466D01*
X684106D02*
X686645Y3001005D01*
X691724D01*
X694263Y2998466D01*
Y2988309D01*
X691724Y2985770D01*
X686645D01*
X684106Y2988309D01*
Y2998466D01*
X497000Y2984539D02*
X499539Y2982000D01*
X504618D01*
X507157Y2984539D01*
Y2994696D01*
X504618Y2997235D01*
X499539D01*
X497000Y2994696D01*
Y2992157D01*
X499539Y2989618D01*
X507157D01*
X338000Y2995696D02*
X340539Y2998235D01*
X345617D01*
X348157Y2995696D01*
Y2993157D01*
X345617Y2990617D01*
X348157Y2988078D01*
Y2985539D01*
X345617Y2983000D01*
X340539D01*
X338000Y2985539D01*
Y2988078D01*
X340539Y2990617D01*
X338000Y2993157D01*
Y2995696D01*
X340539Y2990617D02*
X345617D01*
X192000Y2998235D02*
X202157D01*
Y2995696D01*
X192000Y2985539D01*
Y2983000D01*
X55157Y2975235D02*
X50078Y2972696D01*
X45000Y2967617D01*
Y2962539D01*
X47539Y2960000D01*
X52618D01*
X55157Y2962539D01*
Y2965078D01*
X52618Y2967617D01*
X45000D01*
X52157Y3154235D02*
X42000D01*
Y3146617D01*
X47078Y3149157D01*
X49618D01*
X52157Y3146617D01*
Y3141539D01*
X49618Y3139000D01*
X44539D01*
X42000Y3141539D01*
X200618Y3140000D02*
Y3155235D01*
X193000Y3147617D01*
X203157D01*
X345000Y3150696D02*
X347539Y3153235D01*
X352617D01*
X355157Y3150696D01*
Y3148157D01*
X352617Y3145617D01*
X350078D01*
X352617D01*
X355157Y3143078D01*
Y3140539D01*
X352617Y3138000D01*
X347539D01*
X345000Y3140539D01*
X507157Y3138000D02*
X497000D01*
X507157Y3148157D01*
Y3150696D01*
X504618Y3153235D01*
X499539D01*
X497000Y3150696D01*
X648000Y3138000D02*
X653078D01*
X650539D01*
Y3153235D01*
X648000Y3150696D01*
X176618Y2465832D02*
X181696D01*
X179157D01*
Y2481067D01*
X176618Y2478528D01*
X199471Y2481067D02*
X194392Y2478528D01*
X189314Y2473450D01*
Y2468371D01*
X191853Y2465832D01*
X196932D01*
X199471Y2468371D01*
Y2470910D01*
X196932Y2473450D01*
X189314D01*
M02*
