%FSLAX44Y44*%
%MOMM*%
G71*
G01*
G75*
G04 Layer_Color=16711935*
%ADD10R,2.5000X6.0000*%
%ADD11R,6.9850X4.0000*%
%ADD12C,1.0000*%
%ADD13C,16.0000*%
%ADD14C,4.0000*%
%ADD15C,1.2700*%
%ADD16R,1.2192X0.8128*%
%ADD17R,1.0200X3.8000*%
%ADD18R,0.3556X0.7620*%
%ADD19R,0.7620X0.3556*%
%ADD20R,2.7940X2.7940*%
%ADD21C,0.2540*%
%ADD22R,2.7032X6.2032*%
%ADD23R,7.1882X4.2032*%
%ADD24C,16.2032*%
%ADD25C,4.2032*%
%ADD26C,1.4732*%
%ADD27R,1.4224X1.0160*%
%ADD28R,1.1200X3.9000*%
%ADD29R,0.5588X0.9652*%
%ADD30R,0.9652X0.5588*%
%ADD31R,2.9972X2.9972*%
%ADD32R,0.0254X0.0254*%
%ADD33C,0.1524*%
%ADD34C,0.0762*%
%ADD35C,0.1270*%
D21*
X452033Y1305230D02*
X478645D01*
Y1242650D02*
Y1305230D01*
X460923Y1242650D02*
X478645D01*
X460923Y1230850D02*
Y1242650D01*
X410113Y1230850D02*
X460923D01*
X410113D02*
Y1239850D01*
X390443D02*
X410113D01*
X390443Y1230850D02*
Y1239850D01*
X339632Y1230850D02*
X390443D01*
X339632D02*
Y1242650D01*
X321910D02*
X339632D01*
X321910D02*
Y1305230D01*
X348522D01*
Y1300150D02*
Y1305230D01*
Y1300150D02*
X387578D01*
Y1305230D01*
X412977D01*
Y1300150D02*
Y1305230D01*
Y1300150D02*
X452033D01*
Y1305230D01*
D35*
X401343Y1272539D02*
Y1266735D01*
X401705Y1265646D01*
X402068Y1265284D01*
X402794Y1264921D01*
X403519D01*
X404245Y1265284D01*
X404608Y1265646D01*
X404970Y1266735D01*
Y1267460D01*
X399384Y1271088D02*
X398658Y1271451D01*
X397570Y1272539D01*
Y1264921D01*
M02*
