%FSLAX44Y44*%
%MOMM*%
G71*
G01*
G75*
G04 Layer_Physical_Order=1*
G04 Layer_Color=255*
%ADD10R,2.5000X6.0000*%
%ADD11R,6.9850X4.0000*%
%ADD12C,1.0000*%
%ADD13C,16.0000*%
%ADD14C,4.0000*%
%ADD15C,1.2700*%
G36*
X810000Y3091834D02*
X808852Y3091291D01*
X807583Y3092332D01*
X803668Y3094425D01*
X799419Y3095714D01*
X795000Y3096149D01*
X790582Y3095714D01*
X786333Y3094425D01*
X782417Y3092332D01*
X778985Y3089515D01*
X776168Y3086083D01*
X774075Y3082167D01*
X772786Y3077919D01*
X772351Y3073500D01*
X772786Y3069081D01*
X774075Y3064832D01*
X776168Y3060917D01*
X778985Y3057485D01*
X782417Y3054668D01*
X786333Y3052575D01*
X790582Y3051286D01*
X795000Y3050851D01*
X799419Y3051286D01*
X803668Y3052575D01*
X807583Y3054668D01*
X808852Y3055709D01*
X810000Y3055166D01*
Y2246334D01*
X808852Y2245791D01*
X807583Y2246832D01*
X803668Y2248925D01*
X799419Y2250214D01*
X795000Y2250649D01*
X790582Y2250214D01*
X786333Y2248925D01*
X782417Y2246832D01*
X778985Y2244015D01*
X776168Y2240583D01*
X774075Y2236667D01*
X772786Y2232419D01*
X772351Y2228000D01*
X772786Y2223581D01*
X774075Y2219333D01*
X776168Y2215417D01*
X778985Y2211985D01*
X782417Y2209168D01*
X786333Y2207075D01*
X790582Y2205786D01*
X795000Y2205351D01*
X799419Y2205786D01*
X803668Y2207075D01*
X807583Y2209168D01*
X808852Y2210209D01*
X810000Y2209666D01*
Y1373334D01*
X808852Y1372791D01*
X807583Y1373832D01*
X803668Y1375925D01*
X799419Y1377214D01*
X795000Y1377649D01*
X790582Y1377214D01*
X786333Y1375925D01*
X782417Y1373832D01*
X778985Y1371015D01*
X776168Y1367583D01*
X774075Y1363667D01*
X772786Y1359419D01*
X772351Y1355000D01*
X772786Y1350581D01*
X774075Y1346333D01*
X776168Y1342417D01*
X778985Y1338985D01*
X782417Y1336168D01*
X786333Y1334075D01*
X790582Y1332786D01*
X795000Y1332351D01*
X799419Y1332786D01*
X803668Y1334075D01*
X807583Y1336168D01*
X808852Y1337209D01*
X810000Y1336666D01*
Y118334D01*
X808852Y117791D01*
X807583Y118832D01*
X803668Y120925D01*
X799419Y122214D01*
X795000Y122649D01*
X790582Y122214D01*
X786333Y120925D01*
X782417Y118832D01*
X778985Y116015D01*
X776168Y112583D01*
X774075Y108667D01*
X772786Y104418D01*
X772351Y100000D01*
X772786Y95581D01*
X774075Y91333D01*
X776168Y87417D01*
X778985Y83985D01*
X782417Y81168D01*
X786333Y79075D01*
X790582Y77786D01*
X795000Y77351D01*
X799419Y77786D01*
X803668Y79075D01*
X807583Y81168D01*
X808852Y82209D01*
X810000Y81666D01*
Y10000D01*
X10000D01*
Y81666D01*
X11148Y82209D01*
X12417Y81168D01*
X16333Y79075D01*
X20582Y77786D01*
X25000Y77351D01*
X29419Y77786D01*
X33668Y79075D01*
X37583Y81168D01*
X41015Y83985D01*
X43832Y87417D01*
X45925Y91333D01*
X47214Y95581D01*
X47649Y100000D01*
X47214Y104418D01*
X45925Y108667D01*
X43832Y112583D01*
X41015Y116015D01*
X37583Y118832D01*
X33668Y120925D01*
X29419Y122214D01*
X25000Y122649D01*
X20582Y122214D01*
X16333Y120925D01*
X12417Y118832D01*
X11148Y117791D01*
X10000Y118334D01*
Y1336666D01*
X11148Y1337209D01*
X12417Y1336168D01*
X16333Y1334075D01*
X20582Y1332786D01*
X25000Y1332351D01*
X29419Y1332786D01*
X33668Y1334075D01*
X37583Y1336168D01*
X41015Y1338985D01*
X41161Y1339162D01*
X41425Y1339128D01*
X42395Y1338781D01*
Y1287000D01*
X42654Y1285032D01*
X42877Y1284494D01*
X43414Y1283197D01*
X44622Y1281622D01*
X63395Y1262850D01*
Y1117020D01*
X63654Y1115052D01*
X63877Y1114514D01*
X64414Y1113217D01*
X65622Y1111642D01*
X73791Y1103473D01*
X73306Y1102300D01*
X60635D01*
Y1063210D01*
X34622Y1037198D01*
X33414Y1035622D01*
X32877Y1034325D01*
X32654Y1033788D01*
X32395Y1031820D01*
Y628020D01*
X32654Y626052D01*
X32877Y625514D01*
X33414Y624217D01*
X34622Y622642D01*
X73791Y583473D01*
X73306Y582300D01*
X60635D01*
Y537220D01*
X135565D01*
Y562315D01*
X210635D01*
Y537220D01*
X285565D01*
Y562315D01*
X360635D01*
Y537220D01*
X435565D01*
Y562315D01*
X510635D01*
Y537220D01*
X585565D01*
Y562315D01*
X660635D01*
Y537220D01*
X735565D01*
Y582300D01*
X660635D01*
Y577525D01*
X585565D01*
Y582300D01*
X510635D01*
Y577525D01*
X435565D01*
Y582300D01*
X360635D01*
Y577525D01*
X285565D01*
Y582300D01*
X210635D01*
Y577525D01*
X135565D01*
Y582300D01*
X96475D01*
X47605Y631170D01*
Y1028670D01*
X76155Y1057220D01*
X135565D01*
Y1082315D01*
X210635D01*
Y1057220D01*
X285565D01*
Y1082315D01*
X360635D01*
Y1057220D01*
X435565D01*
Y1082315D01*
X510635D01*
Y1057220D01*
X585565D01*
Y1082315D01*
X660635D01*
Y1057220D01*
X735565D01*
Y1102300D01*
X660635D01*
Y1097525D01*
X585565D01*
Y1102300D01*
X510635D01*
Y1097525D01*
X435565D01*
Y1102300D01*
X360635D01*
Y1097525D01*
X285565D01*
Y1102300D01*
X210635D01*
Y1097525D01*
X135565D01*
Y1102300D01*
X96475D01*
X78605Y1120170D01*
Y1266000D01*
X78346Y1267968D01*
X77901Y1269043D01*
X77586Y1269802D01*
X76378Y1271378D01*
X57605Y1290150D01*
Y1335850D01*
X59027Y1337272D01*
X60200Y1336785D01*
Y1310680D01*
X79245D01*
X124295Y1265630D01*
Y1157780D01*
X94435D01*
Y1112700D01*
X169365D01*
Y1157780D01*
X139505D01*
Y1268780D01*
X139246Y1270748D01*
X139023Y1271286D01*
X138486Y1272582D01*
X137278Y1274158D01*
X90280Y1321155D01*
Y1375760D01*
X62605D01*
Y1412850D01*
X76378Y1426622D01*
X77586Y1428197D01*
X77901Y1428957D01*
X78346Y1430032D01*
X78605Y1432000D01*
Y1449190D01*
X78346Y1451158D01*
X77966Y1452075D01*
X77586Y1452993D01*
X76378Y1454568D01*
X47605Y1483340D01*
Y1548670D01*
X76155Y1577220D01*
X135565D01*
Y1602315D01*
X210635D01*
Y1577220D01*
X285565D01*
Y1602315D01*
X360635D01*
Y1577220D01*
X420045D01*
X442395Y1554870D01*
Y1454692D01*
X442235Y1454483D01*
X441339Y1452321D01*
X441033Y1450000D01*
X441339Y1447679D01*
X442235Y1445517D01*
X443660Y1443660D01*
X445517Y1442235D01*
X447679Y1441339D01*
X450000Y1441033D01*
X452321Y1441339D01*
X454483Y1442235D01*
X456340Y1443660D01*
X457765Y1445517D01*
X458661Y1447679D01*
X458967Y1450000D01*
X458661Y1452321D01*
X457765Y1454483D01*
X457605Y1454692D01*
Y1558020D01*
X457346Y1559988D01*
X456966Y1560905D01*
X456586Y1561823D01*
X455378Y1563398D01*
X435565Y1583210D01*
Y1602315D01*
X510635D01*
Y1577220D01*
X585565D01*
Y1602315D01*
X660635D01*
Y1577220D01*
X735565D01*
Y1622300D01*
X660635D01*
Y1617525D01*
X585565D01*
Y1622300D01*
X510635D01*
Y1617525D01*
X435565D01*
Y1622300D01*
X360635D01*
Y1617525D01*
X285565D01*
Y1622300D01*
X210635D01*
Y1617525D01*
X135565D01*
Y1622300D01*
X96475D01*
X47605Y1671170D01*
Y2068670D01*
X76155Y2097220D01*
X135565D01*
Y2122315D01*
X210635D01*
Y2097220D01*
X285565D01*
Y2122315D01*
X360635D01*
Y2097220D01*
X435565D01*
Y2122315D01*
X510635D01*
Y2097220D01*
X585565D01*
Y2122315D01*
X660635D01*
Y2097220D01*
X735565D01*
Y2142300D01*
X660635D01*
Y2137525D01*
X585565D01*
Y2142300D01*
X510635D01*
Y2137525D01*
X435565D01*
Y2142300D01*
X421535D01*
X421049Y2143473D01*
X430275Y2152700D01*
X469365D01*
Y2197780D01*
X439505D01*
Y2340750D01*
X509027Y2410271D01*
X510200Y2409785D01*
Y2350680D01*
X529245D01*
X574295Y2305630D01*
Y2197780D01*
X544435D01*
Y2152700D01*
X619365D01*
Y2197780D01*
X589505D01*
Y2308780D01*
X589246Y2310748D01*
X588801Y2311823D01*
X588486Y2312583D01*
X587278Y2314158D01*
X540280Y2361155D01*
Y2415760D01*
X516175D01*
X515935Y2416339D01*
X516640Y2417395D01*
X542850D01*
X574622Y2385622D01*
X576198Y2384414D01*
X576957Y2384099D01*
X578032Y2383654D01*
X580000Y2383395D01*
X625000D01*
X626968Y2383654D01*
X627506Y2383877D01*
X628802Y2384414D01*
X630378Y2385622D01*
X659027Y2414272D01*
X660200Y2413786D01*
Y2350680D01*
X679245D01*
X709395Y2320530D01*
Y2197780D01*
X654435D01*
Y2152700D01*
X729365D01*
Y2197780D01*
X724605D01*
Y2323680D01*
X724346Y2325648D01*
X723966Y2326566D01*
X723586Y2327482D01*
X722378Y2329058D01*
X690280Y2361155D01*
Y2415760D01*
X678178D01*
X677930Y2417006D01*
X678483Y2417235D01*
X680340Y2418660D01*
X681765Y2420517D01*
X682661Y2422679D01*
X682967Y2425000D01*
X682661Y2427321D01*
X681765Y2429483D01*
X680340Y2431340D01*
X678483Y2432765D01*
X676321Y2433661D01*
X674000Y2433967D01*
X671679Y2433661D01*
X669517Y2432765D01*
X669308Y2432605D01*
X659000D01*
X657032Y2432346D01*
X655957Y2431901D01*
X655198Y2431586D01*
X653622Y2430378D01*
X621850Y2398605D01*
X620435D01*
X619800Y2399240D01*
X619800Y2399503D01*
X619800Y2399503D01*
X619800D01*
Y2430510D01*
X589720D01*
Y2399503D01*
X589720Y2399503D01*
X589720D01*
X589720Y2399240D01*
X589085Y2398605D01*
X583150D01*
X551378Y2430378D01*
X549803Y2431586D01*
X548506Y2432123D01*
X547968Y2432346D01*
X546000Y2432605D01*
X513000D01*
X511032Y2432346D01*
X510494Y2432123D01*
X509198Y2431586D01*
X507622Y2430378D01*
X426522Y2349278D01*
X425314Y2347702D01*
X424777Y2346406D01*
X424554Y2345868D01*
X424295Y2343900D01*
Y2197780D01*
X394435D01*
Y2152700D01*
X407105D01*
X407592Y2151527D01*
X398365Y2142300D01*
X360635D01*
Y2137525D01*
X285565D01*
Y2142300D01*
X210635D01*
Y2137525D01*
X135565D01*
Y2142300D01*
X121535D01*
X121048Y2143473D01*
X130275Y2152700D01*
X169365D01*
Y2197780D01*
X94435D01*
Y2152700D01*
X107106D01*
X107591Y2151527D01*
X98365Y2142300D01*
X60635D01*
Y2103210D01*
X34622Y2077198D01*
X33414Y2075623D01*
X32877Y2074326D01*
X32654Y2073788D01*
X32395Y2071820D01*
Y1668020D01*
X32654Y1666052D01*
X32877Y1665514D01*
X33414Y1664218D01*
X34622Y1662642D01*
X73791Y1623473D01*
X73306Y1622300D01*
X60635D01*
Y1583210D01*
X34622Y1557198D01*
X33414Y1555623D01*
X32877Y1554326D01*
X32654Y1553788D01*
X32395Y1551820D01*
Y1480190D01*
X32654Y1478222D01*
X32877Y1477684D01*
X33414Y1476387D01*
X34622Y1474812D01*
X63395Y1446040D01*
Y1435150D01*
X49622Y1421378D01*
X48414Y1419803D01*
X47877Y1418506D01*
X47654Y1417968D01*
X47395Y1416000D01*
Y1363150D01*
X46139Y1362963D01*
X45925Y1363667D01*
X43832Y1367583D01*
X41015Y1371015D01*
X37583Y1373832D01*
X33668Y1375925D01*
X29419Y1377214D01*
X25000Y1377649D01*
X20582Y1377214D01*
X16333Y1375925D01*
X12417Y1373832D01*
X11148Y1372791D01*
X10000Y1373334D01*
Y2209666D01*
X11148Y2210209D01*
X12417Y2209168D01*
X16333Y2207075D01*
X20582Y2205786D01*
X25000Y2205351D01*
X29419Y2205786D01*
X33668Y2207075D01*
X37583Y2209168D01*
X41015Y2211985D01*
X43832Y2215417D01*
X45925Y2219333D01*
X47214Y2223581D01*
X47649Y2228000D01*
X47214Y2232419D01*
X45925Y2236667D01*
X43832Y2240583D01*
X41015Y2244015D01*
X37583Y2246832D01*
X33668Y2248925D01*
X29419Y2250214D01*
X25000Y2250649D01*
X20582Y2250214D01*
X16333Y2248925D01*
X12417Y2246832D01*
X11148Y2245791D01*
X10000Y2246334D01*
Y3055166D01*
X11148Y3055709D01*
X12417Y3054668D01*
X16333Y3052575D01*
X20582Y3051286D01*
X25000Y3050851D01*
X29419Y3051286D01*
X33668Y3052575D01*
X37583Y3054668D01*
X41015Y3057485D01*
X43832Y3060917D01*
X45925Y3064832D01*
X47214Y3069081D01*
X47649Y3073500D01*
X47214Y3077919D01*
X45925Y3082167D01*
X43832Y3086083D01*
X41015Y3089515D01*
X37583Y3092332D01*
X33668Y3094425D01*
X29419Y3095714D01*
X25000Y3096149D01*
X20582Y3095714D01*
X16333Y3094425D01*
X12417Y3092332D01*
X11148Y3091291D01*
X10000Y3091834D01*
Y3190000D01*
X810000D01*
Y3091834D01*
D02*
G37*
%LPC*%
G36*
X603490Y904320D02*
X589720D01*
Y894625D01*
X469800D01*
Y904320D01*
X456030D01*
Y873050D01*
X469800D01*
Y879415D01*
X589720D01*
Y873050D01*
X603490D01*
Y904320D01*
D02*
G37*
G36*
X453490D02*
X439720D01*
Y894625D01*
X319800D01*
Y904320D01*
X306030D01*
Y873050D01*
X319800D01*
Y879415D01*
X439720D01*
Y873050D01*
X453490D01*
Y904320D01*
D02*
G37*
G36*
X303490D02*
X289720D01*
Y894625D01*
X169800D01*
Y904320D01*
X156030D01*
Y873050D01*
X169800D01*
Y879415D01*
X289720D01*
Y873050D01*
X303490D01*
Y904320D01*
D02*
G37*
G36*
X753490D02*
X739720D01*
Y894625D01*
X619800D01*
Y904320D01*
X606030D01*
Y873050D01*
X619800D01*
Y879415D01*
X739720D01*
Y873050D01*
X753490D01*
Y904320D01*
D02*
G37*
G36*
X540280Y1375760D02*
X510200D01*
Y1310680D01*
X529245D01*
X574295Y1265630D01*
Y1157780D01*
X544435D01*
Y1112700D01*
X619365D01*
Y1157780D01*
X589505D01*
Y1268780D01*
X589246Y1270748D01*
X588801Y1271823D01*
X588486Y1272582D01*
X587278Y1274158D01*
X540280Y1321155D01*
Y1375760D01*
D02*
G37*
G36*
X390280D02*
X360200D01*
Y1310680D01*
X379245D01*
X424295Y1265630D01*
Y1157780D01*
X394435D01*
Y1112700D01*
X469365D01*
Y1157780D01*
X439505D01*
Y1268780D01*
X439246Y1270748D01*
X438801Y1271823D01*
X438486Y1272582D01*
X437278Y1274158D01*
X390280Y1321155D01*
Y1375760D01*
D02*
G37*
G36*
X240280D02*
X210200D01*
Y1310680D01*
X229245D01*
X274295Y1265630D01*
Y1157780D01*
X244435D01*
Y1112700D01*
X319365D01*
Y1157780D01*
X289505D01*
Y1268780D01*
X289246Y1270748D01*
X289023Y1271286D01*
X288486Y1272582D01*
X287278Y1274158D01*
X240280Y1321155D01*
Y1375760D01*
D02*
G37*
G36*
X469800Y870510D02*
X456030D01*
Y839240D01*
X469800D01*
Y870510D01*
D02*
G37*
G36*
X453490D02*
X439720D01*
Y839240D01*
X453490D01*
Y870510D01*
D02*
G37*
G36*
X319800D02*
X306030D01*
Y839240D01*
X319800D01*
Y870510D01*
D02*
G37*
G36*
X603490D02*
X589720D01*
Y839240D01*
X603490D01*
Y870510D01*
D02*
G37*
G36*
X153490Y904320D02*
X139720D01*
Y873050D01*
X153490D01*
Y904320D01*
D02*
G37*
G36*
X753490Y870510D02*
X739720D01*
Y839240D01*
X753490D01*
Y870510D01*
D02*
G37*
G36*
X619800D02*
X606030D01*
Y839240D01*
X619800D01*
Y870510D01*
D02*
G37*
G36*
X723490Y1390510D02*
X709720D01*
Y1359240D01*
X723490D01*
Y1390510D01*
D02*
G37*
G36*
X619800D02*
X606030D01*
Y1359240D01*
X619800D01*
Y1390510D01*
D02*
G37*
G36*
X603490D02*
X589720D01*
Y1359240D01*
X603490D01*
Y1390510D01*
D02*
G37*
G36*
X739800D02*
X726030D01*
Y1359240D01*
X739800D01*
Y1390510D01*
D02*
G37*
G36*
X303490Y1424320D02*
X289720D01*
Y1414625D01*
X169800D01*
Y1424320D01*
X156030D01*
Y1393050D01*
X169800D01*
Y1399415D01*
X289720D01*
Y1393050D01*
X303490D01*
Y1424320D01*
D02*
G37*
G36*
X739800D02*
X726030D01*
Y1393050D01*
X739800D01*
Y1424320D01*
D02*
G37*
G36*
X153490D02*
X139720D01*
Y1393050D01*
X153490D01*
Y1424320D01*
D02*
G37*
G36*
X169800Y1390510D02*
X156030D01*
Y1359240D01*
X169800D01*
Y1390510D01*
D02*
G37*
G36*
X153490D02*
X139720D01*
Y1359240D01*
X153490D01*
Y1390510D01*
D02*
G37*
G36*
X690280Y1375760D02*
X660200D01*
Y1310680D01*
X679245D01*
X719395Y1270530D01*
Y1157780D01*
X664435D01*
Y1112700D01*
X739365D01*
Y1124016D01*
X739505Y1125080D01*
X739365Y1126144D01*
Y1157780D01*
X734605D01*
Y1273680D01*
X734346Y1275648D01*
X734123Y1276186D01*
X733586Y1277483D01*
X732378Y1279058D01*
X690280Y1321155D01*
Y1375760D01*
D02*
G37*
G36*
X303490Y1390510D02*
X289720D01*
Y1359240D01*
X303490D01*
Y1390510D01*
D02*
G37*
G36*
X469800D02*
X456030D01*
Y1359240D01*
X469800D01*
Y1390510D01*
D02*
G37*
G36*
X453490D02*
X439720D01*
Y1359240D01*
X453490D01*
Y1390510D01*
D02*
G37*
G36*
X319800D02*
X306030D01*
Y1359240D01*
X319800D01*
Y1390510D01*
D02*
G37*
G36*
X303490Y870510D02*
X289720D01*
Y839240D01*
X303490D01*
Y870510D01*
D02*
G37*
G36*
X453490Y350510D02*
X439720D01*
Y319240D01*
X453490D01*
Y350510D01*
D02*
G37*
G36*
X319800D02*
X306030D01*
Y319240D01*
X319800D01*
Y350510D01*
D02*
G37*
G36*
X303490D02*
X289720D01*
Y319240D01*
X303490D01*
Y350510D01*
D02*
G37*
G36*
X469800D02*
X456030D01*
Y319240D01*
X469800D01*
Y350510D01*
D02*
G37*
G36*
X723490D02*
X709720D01*
Y319240D01*
X723490D01*
Y350510D01*
D02*
G37*
G36*
X619800D02*
X606030D01*
Y319240D01*
X619800D01*
Y350510D01*
D02*
G37*
G36*
X603490D02*
X589720D01*
Y319240D01*
X603490D01*
Y350510D01*
D02*
G37*
G36*
X390280Y335760D02*
X360200D01*
Y270680D01*
X379245D01*
X424295Y225630D01*
Y117780D01*
X394435D01*
Y72700D01*
X469365D01*
Y117780D01*
X439505D01*
Y228780D01*
X439246Y230748D01*
X438801Y231823D01*
X438486Y232582D01*
X437278Y234158D01*
X390280Y281155D01*
Y335760D01*
D02*
G37*
G36*
X240280D02*
X210200D01*
Y270680D01*
X229245D01*
X274295Y225630D01*
Y117780D01*
X244435D01*
Y72700D01*
X319365D01*
Y117780D01*
X289505D01*
Y228780D01*
X289246Y230748D01*
X289023Y231286D01*
X288486Y232582D01*
X287278Y234158D01*
X240280Y281155D01*
Y335760D01*
D02*
G37*
G36*
X90280D02*
X60200D01*
Y270680D01*
X79245D01*
X124295Y225630D01*
Y117780D01*
X94435D01*
Y72700D01*
X169365D01*
Y117780D01*
X139505D01*
Y228780D01*
X139246Y230748D01*
X139023Y231286D01*
X138486Y232582D01*
X137278Y234158D01*
X90280Y281155D01*
Y335760D01*
D02*
G37*
G36*
X540280D02*
X510200D01*
Y270680D01*
X529245D01*
X574295Y225630D01*
Y117780D01*
X544435D01*
Y72700D01*
X619365D01*
Y117780D01*
X589505D01*
Y228780D01*
X589246Y230748D01*
X588801Y231823D01*
X588486Y232582D01*
X587278Y234158D01*
X540280Y281155D01*
Y335760D01*
D02*
G37*
G36*
X169800Y350510D02*
X156030D01*
Y319240D01*
X169800D01*
Y350510D01*
D02*
G37*
G36*
X153490D02*
X139720D01*
Y319240D01*
X153490D01*
Y350510D01*
D02*
G37*
G36*
X690280Y335760D02*
X660200D01*
Y270680D01*
X679245D01*
X724295Y225630D01*
Y117780D01*
X664435D01*
Y72700D01*
X739365D01*
Y84016D01*
X739505Y85080D01*
Y228780D01*
X739246Y230748D01*
X738801Y231823D01*
X738486Y232582D01*
X737278Y234158D01*
X690280Y281155D01*
Y335760D01*
D02*
G37*
G36*
X390280Y855760D02*
X360200D01*
Y790680D01*
X379245D01*
X424295Y745630D01*
Y637780D01*
X394435D01*
Y592700D01*
X469365D01*
Y637780D01*
X439505D01*
Y748780D01*
X439246Y750748D01*
X438801Y751823D01*
X438486Y752582D01*
X437278Y754158D01*
X390280Y801155D01*
Y855760D01*
D02*
G37*
G36*
X240280D02*
X210200D01*
Y790680D01*
X229245D01*
X274295Y745630D01*
Y637780D01*
X244435D01*
Y592700D01*
X319365D01*
Y637780D01*
X289505D01*
Y748780D01*
X289246Y750748D01*
X289023Y751286D01*
X288486Y752582D01*
X287278Y754158D01*
X240280Y801155D01*
Y855760D01*
D02*
G37*
G36*
X90280D02*
X60200D01*
Y790680D01*
X79245D01*
X124295Y745630D01*
Y637780D01*
X94435D01*
Y592700D01*
X169365D01*
Y637780D01*
X139505D01*
Y748780D01*
X139246Y750748D01*
X139023Y751286D01*
X138486Y752582D01*
X137278Y754158D01*
X90280Y801155D01*
Y855760D01*
D02*
G37*
G36*
X540280D02*
X510200D01*
Y790680D01*
X529245D01*
X574295Y745630D01*
Y637780D01*
X544435D01*
Y592700D01*
X619365D01*
Y637780D01*
X589505D01*
Y748780D01*
X589246Y750748D01*
X588801Y751823D01*
X588486Y752582D01*
X587278Y754158D01*
X540280Y801155D01*
Y855760D01*
D02*
G37*
G36*
X169800Y870510D02*
X156030D01*
Y839240D01*
X169800D01*
Y870510D01*
D02*
G37*
G36*
X153490D02*
X139720D01*
Y839240D01*
X153490D01*
Y870510D01*
D02*
G37*
G36*
X690280Y855760D02*
X660200D01*
Y790680D01*
X679245D01*
X724295Y745630D01*
Y637780D01*
X694435D01*
Y592700D01*
X769365D01*
Y637780D01*
X739505D01*
Y748780D01*
X739246Y750748D01*
X738801Y751823D01*
X738486Y752582D01*
X737278Y754158D01*
X690280Y801155D01*
Y855760D01*
D02*
G37*
G36*
X303490Y384320D02*
X289720D01*
Y374625D01*
X169800D01*
Y384320D01*
X156030D01*
Y353050D01*
X169800D01*
Y359415D01*
X289720D01*
Y353050D01*
X303490D01*
Y384320D01*
D02*
G37*
G36*
X153490D02*
X139720D01*
Y353050D01*
X153490D01*
Y384320D01*
D02*
G37*
G36*
X739800Y350510D02*
X726030D01*
Y319240D01*
X739800D01*
Y350510D01*
D02*
G37*
G36*
X453490Y384320D02*
X439720D01*
Y374625D01*
X319800D01*
Y384320D01*
X306030D01*
Y353050D01*
X319800D01*
Y359415D01*
X439720D01*
Y353050D01*
X453490D01*
Y384320D01*
D02*
G37*
G36*
X769800Y904320D02*
X756030D01*
Y871780D01*
Y839240D01*
X769800D01*
Y862105D01*
X770973Y862591D01*
X782395Y851170D01*
Y402870D01*
X754150Y374625D01*
X739800D01*
Y384320D01*
X726030D01*
Y353050D01*
X739800D01*
Y359415D01*
X757300D01*
X759268Y359674D01*
X759806Y359897D01*
X761103Y360434D01*
X762678Y361642D01*
X795378Y394342D01*
X796586Y395917D01*
X797123Y397214D01*
X797346Y397752D01*
X797605Y399720D01*
Y854320D01*
X797346Y856288D01*
X797123Y856826D01*
X796586Y858122D01*
X795378Y859698D01*
X769800Y885275D01*
Y904320D01*
D02*
G37*
G36*
X723490Y384320D02*
X709720D01*
Y374625D01*
X619800D01*
Y384320D01*
X606030D01*
Y353050D01*
X619800D01*
Y359415D01*
X709720D01*
Y353050D01*
X723490D01*
Y384320D01*
D02*
G37*
G36*
X603490D02*
X589720D01*
Y374625D01*
X469800D01*
Y384320D01*
X456030D01*
Y353050D01*
X469800D01*
Y359415D01*
X589720D01*
Y353050D01*
X603490D01*
Y384320D01*
D02*
G37*
G36*
X390280Y2935760D02*
X360200D01*
Y2870680D01*
X379245D01*
X424295Y2825630D01*
Y2717780D01*
X394435D01*
Y2672700D01*
X469365D01*
Y2717780D01*
X439505D01*
Y2828780D01*
X439246Y2830748D01*
X438801Y2831823D01*
X438486Y2832582D01*
X437278Y2834158D01*
X390280Y2881155D01*
Y2935760D01*
D02*
G37*
G36*
X240280D02*
X210200D01*
Y2870680D01*
X229245D01*
X274295Y2825630D01*
Y2717780D01*
X244435D01*
Y2672700D01*
X319365D01*
Y2717780D01*
X289505D01*
Y2828780D01*
X289246Y2830748D01*
X289023Y2831286D01*
X288486Y2832582D01*
X287278Y2834158D01*
X240280Y2881155D01*
Y2935760D01*
D02*
G37*
G36*
X90280D02*
X60200D01*
Y2870680D01*
X79245D01*
X124295Y2825630D01*
Y2717780D01*
X94435D01*
Y2672700D01*
X169365D01*
Y2717780D01*
X139505D01*
Y2828780D01*
X139246Y2830748D01*
X139023Y2831286D01*
X138486Y2832582D01*
X137278Y2834158D01*
X90280Y2881155D01*
Y2935760D01*
D02*
G37*
G36*
X540280D02*
X510200D01*
Y2870680D01*
X529245D01*
X574295Y2825630D01*
Y2717780D01*
X544435D01*
Y2672700D01*
X619365D01*
Y2717780D01*
X589505D01*
Y2828780D01*
X589246Y2830748D01*
X588801Y2831823D01*
X588486Y2832582D01*
X587278Y2834158D01*
X540280Y2881155D01*
Y2935760D01*
D02*
G37*
G36*
X169800Y2950510D02*
X156030D01*
Y2919240D01*
X169800D01*
Y2950510D01*
D02*
G37*
G36*
X153490D02*
X139720D01*
Y2919240D01*
X153490D01*
Y2950510D01*
D02*
G37*
G36*
X690280Y2935760D02*
X660200D01*
Y2870680D01*
X679245D01*
X724295Y2825630D01*
Y2717780D01*
X694435D01*
Y2672700D01*
X769365D01*
Y2717780D01*
X739505D01*
Y2828780D01*
X739246Y2830748D01*
X738801Y2831823D01*
X738486Y2832582D01*
X737278Y2834158D01*
X690280Y2881155D01*
Y2935760D01*
D02*
G37*
G36*
X713490Y2430510D02*
X699720D01*
Y2399240D01*
X713490D01*
Y2430510D01*
D02*
G37*
G36*
X360000Y2565640D02*
X351900Y2565242D01*
X343878Y2564052D01*
X336011Y2562081D01*
X328375Y2559349D01*
X321044Y2555882D01*
X314088Y2551712D01*
X307574Y2546881D01*
X301565Y2541435D01*
X296119Y2535426D01*
X291288Y2528912D01*
X287118Y2521956D01*
X283651Y2514625D01*
X280919Y2506989D01*
X278948Y2499122D01*
X277759Y2491100D01*
X277361Y2483000D01*
X277759Y2474900D01*
X278948Y2466878D01*
X280919Y2459011D01*
X283651Y2451375D01*
X287118Y2444044D01*
X291288Y2437088D01*
X296119Y2430574D01*
X301565Y2424565D01*
X307574Y2419119D01*
X314088Y2414288D01*
X321044Y2410118D01*
X328375Y2406651D01*
X336011Y2403919D01*
X343878Y2401948D01*
X351900Y2400758D01*
X360000Y2400361D01*
X368100Y2400758D01*
X376122Y2401948D01*
X383989Y2403919D01*
X391625Y2406651D01*
X398956Y2410118D01*
X405912Y2414288D01*
X412426Y2419119D01*
X418435Y2424565D01*
X423881Y2430574D01*
X428712Y2437088D01*
X432882Y2444044D01*
X436349Y2451375D01*
X438469Y2457299D01*
X439720Y2457082D01*
Y2440195D01*
X256522Y2256998D01*
X255314Y2255423D01*
X254777Y2254126D01*
X254554Y2253588D01*
X254295Y2251620D01*
Y2197780D01*
X199435D01*
Y2152700D01*
X274365D01*
Y2197780D01*
X269505D01*
Y2248470D01*
X438547Y2417511D01*
X439720Y2417025D01*
Y2399240D01*
X469800D01*
Y2464320D01*
X441443D01*
X440662Y2465321D01*
X441052Y2466878D01*
X442242Y2474900D01*
X442640Y2483000D01*
X442242Y2491100D01*
X441052Y2499122D01*
X439081Y2506989D01*
X436349Y2514625D01*
X432882Y2521956D01*
X428712Y2528912D01*
X423881Y2535426D01*
X418435Y2541435D01*
X412426Y2546881D01*
X405912Y2551712D01*
X398956Y2555882D01*
X391625Y2559349D01*
X383989Y2562081D01*
X376122Y2564052D01*
X368100Y2565242D01*
X360000Y2565640D01*
D02*
G37*
G36*
X274800Y2430510D02*
X261030D01*
Y2399240D01*
X274800D01*
Y2430510D01*
D02*
G37*
G36*
X729800D02*
X716030D01*
Y2399240D01*
X729800D01*
Y2430510D01*
D02*
G37*
G36*
X713490Y2464320D02*
X699720D01*
Y2454625D01*
X619800D01*
Y2464320D01*
X606030D01*
Y2433050D01*
X619800D01*
Y2439415D01*
X699720D01*
Y2433050D01*
X713490D01*
Y2464320D01*
D02*
G37*
G36*
X729800D02*
X716030D01*
Y2433050D01*
X729800D01*
Y2464320D01*
D02*
G37*
G36*
X274800D02*
X261030D01*
Y2433050D01*
X274800D01*
Y2464320D01*
D02*
G37*
G36*
X303490Y2984320D02*
X289720D01*
Y2974625D01*
X169800D01*
Y2984320D01*
X156030D01*
Y2953050D01*
X169800D01*
Y2959415D01*
X289720D01*
Y2953050D01*
X303490D01*
Y2984320D01*
D02*
G37*
G36*
X769800D02*
X756030D01*
Y2953050D01*
X769800D01*
Y2984320D01*
D02*
G37*
G36*
X153490D02*
X139720D01*
Y2953050D01*
X153490D01*
Y2984320D01*
D02*
G37*
G36*
X453490D02*
X439720D01*
Y2974625D01*
X319800D01*
Y2984320D01*
X306030D01*
Y2953050D01*
X319800D01*
Y2959415D01*
X439720D01*
Y2953050D01*
X453490D01*
Y2984320D01*
D02*
G37*
G36*
X735565Y3182300D02*
X660635D01*
Y3177525D01*
X585565D01*
Y3182300D01*
X510635D01*
Y3177525D01*
X435565D01*
Y3182300D01*
X360635D01*
Y3177525D01*
X285565D01*
Y3182300D01*
X210635D01*
Y3177525D01*
X135565D01*
Y3182300D01*
X60635D01*
Y3137220D01*
X135565D01*
Y3162315D01*
X210635D01*
Y3137220D01*
X285565D01*
Y3162315D01*
X360635D01*
Y3137220D01*
X435565D01*
Y3162315D01*
X510635D01*
Y3137220D01*
X585565D01*
Y3162315D01*
X660635D01*
Y3137220D01*
X690495D01*
Y3121900D01*
X690754Y3119932D01*
X690977Y3119395D01*
X691514Y3118098D01*
X692722Y3116523D01*
X782395Y3026850D01*
Y2673150D01*
X766770Y2657525D01*
X735565D01*
Y2662300D01*
X660635D01*
Y2657525D01*
X585565D01*
Y2662300D01*
X510635D01*
Y2617220D01*
X585565D01*
Y2642315D01*
X660635D01*
Y2617220D01*
X713395D01*
X783605Y2547010D01*
Y2432605D01*
X760420D01*
X760211Y2432765D01*
X758048Y2433661D01*
X755727Y2433967D01*
X753407Y2433661D01*
X751244Y2432765D01*
X749387Y2431340D01*
X747962Y2429483D01*
X747066Y2427321D01*
X746761Y2425000D01*
X747066Y2422679D01*
X747962Y2420517D01*
X749387Y2418660D01*
X751244Y2417235D01*
X753407Y2416339D01*
X755727Y2416033D01*
X758048Y2416339D01*
X760211Y2417235D01*
X760420Y2417395D01*
X787970D01*
X789938Y2417654D01*
X790476Y2417877D01*
X791773Y2418414D01*
X793348Y2419622D01*
X796588Y2422862D01*
X797796Y2424438D01*
X798333Y2425734D01*
X798556Y2426272D01*
X798815Y2428240D01*
Y2550160D01*
X798556Y2552128D01*
X798333Y2552666D01*
X797796Y2553963D01*
X796588Y2555538D01*
X735372Y2616754D01*
X735565Y2617220D01*
X735565D01*
X735565Y2617220D01*
Y2642315D01*
X769920D01*
X771888Y2642574D01*
X772426Y2642797D01*
X773723Y2643334D01*
X775298Y2644543D01*
X795378Y2664622D01*
X796586Y2666198D01*
X797123Y2667495D01*
X797346Y2668032D01*
X797605Y2670000D01*
Y3030000D01*
X797346Y3031968D01*
X796901Y3033043D01*
X796586Y3033802D01*
X795378Y3035378D01*
X705705Y3125050D01*
Y3137220D01*
X735565D01*
Y3182300D01*
D02*
G37*
G36*
X753490Y2984320D02*
X739720D01*
Y2974625D01*
X619800D01*
Y2984320D01*
X606030D01*
Y2953050D01*
X619800D01*
Y2959415D01*
X739720D01*
Y2953050D01*
X753490D01*
Y2984320D01*
D02*
G37*
G36*
X603490D02*
X589720D01*
Y2974625D01*
X469800D01*
Y2984320D01*
X456030D01*
Y2951780D01*
Y2919240D01*
X469800D01*
Y2942105D01*
X470973Y2942592D01*
X482395Y2931170D01*
Y2564320D01*
X482654Y2562352D01*
X482877Y2561814D01*
X483414Y2560518D01*
X484622Y2558942D01*
X589720Y2453845D01*
Y2433050D01*
X603490D01*
Y2464320D01*
X600755D01*
X497605Y2567470D01*
Y2934320D01*
X497346Y2936288D01*
X496966Y2937206D01*
X496586Y2938123D01*
X495378Y2939698D01*
X476834Y2958242D01*
X477320Y2959415D01*
X589720D01*
Y2953050D01*
X603490D01*
Y2984320D01*
D02*
G37*
G36*
X453490Y2950510D02*
X439720D01*
Y2919240D01*
X453490D01*
Y2950510D01*
D02*
G37*
G36*
X319800D02*
X306030D01*
Y2919240D01*
X319800D01*
Y2950510D01*
D02*
G37*
G36*
X303490D02*
X289720D01*
Y2919240D01*
X303490D01*
Y2950510D01*
D02*
G37*
G36*
X603490D02*
X589720D01*
Y2919240D01*
X603490D01*
Y2950510D01*
D02*
G37*
G36*
X769800D02*
X756030D01*
Y2919240D01*
X769800D01*
Y2950510D01*
D02*
G37*
G36*
X753490D02*
X739720D01*
Y2919240D01*
X753490D01*
Y2950510D01*
D02*
G37*
G36*
X619800D02*
X606030D01*
Y2919240D01*
X619800D01*
Y2950510D01*
D02*
G37*
G36*
X258490Y2464320D02*
X244720D01*
Y2435475D01*
X184830Y2375585D01*
X90280D01*
Y2381950D01*
X76510D01*
Y2350680D01*
X90280D01*
Y2360375D01*
X187980D01*
X189948Y2360634D01*
X190485Y2360857D01*
X191782Y2361394D01*
X193358Y2362602D01*
X243547Y2412791D01*
X244720Y2412305D01*
Y2399240D01*
X258490D01*
Y2431780D01*
Y2464320D01*
D02*
G37*
G36*
X169800Y1910510D02*
X156030D01*
Y1879240D01*
X169800D01*
Y1910510D01*
D02*
G37*
G36*
X153490D02*
X139720D01*
Y1879240D01*
X153490D01*
Y1910510D01*
D02*
G37*
G36*
X690280Y1895760D02*
X660200D01*
Y1830680D01*
X679245D01*
X724295Y1785630D01*
Y1677780D01*
X694435D01*
Y1632700D01*
X769365D01*
Y1677780D01*
X739505D01*
Y1788780D01*
X739246Y1790748D01*
X738801Y1791823D01*
X738486Y1792583D01*
X737278Y1794158D01*
X690280Y1841155D01*
Y1895760D01*
D02*
G37*
G36*
X303490Y1910510D02*
X289720D01*
Y1879240D01*
X303490D01*
Y1910510D01*
D02*
G37*
G36*
X469800D02*
X456030D01*
Y1879240D01*
X469800D01*
Y1910510D01*
D02*
G37*
G36*
X453490D02*
X439720D01*
Y1879240D01*
X453490D01*
Y1910510D01*
D02*
G37*
G36*
X319800D02*
X306030D01*
Y1879240D01*
X319800D01*
Y1910510D01*
D02*
G37*
G36*
X723490Y1424320D02*
X709720D01*
Y1414625D01*
X619800D01*
Y1424320D01*
X606030D01*
Y1393050D01*
X619800D01*
Y1399415D01*
X709720D01*
Y1393050D01*
X723490D01*
Y1424320D01*
D02*
G37*
G36*
X603490D02*
X589720D01*
Y1414625D01*
X469800D01*
Y1424320D01*
X456030D01*
Y1393050D01*
X469800D01*
Y1399415D01*
X589720D01*
Y1393050D01*
X603490D01*
Y1424320D01*
D02*
G37*
G36*
X453490D02*
X439720D01*
Y1414625D01*
X319800D01*
Y1424320D01*
X306030D01*
Y1393050D01*
X319800D01*
Y1399415D01*
X439720D01*
Y1393050D01*
X453490D01*
Y1424320D01*
D02*
G37*
G36*
X90280Y1895760D02*
X60200D01*
Y1830680D01*
X79245D01*
X124295Y1785630D01*
Y1677780D01*
X94435D01*
Y1632700D01*
X169365D01*
Y1677780D01*
X139505D01*
Y1788780D01*
X139246Y1790748D01*
X139023Y1791286D01*
X138486Y1792583D01*
X137278Y1794158D01*
X90280Y1841155D01*
Y1895760D01*
D02*
G37*
G36*
X540280D02*
X510200D01*
Y1830680D01*
X529245D01*
X574295Y1785630D01*
Y1677780D01*
X544435D01*
Y1632700D01*
X619365D01*
Y1677780D01*
X589505D01*
Y1788780D01*
X589246Y1790748D01*
X588801Y1791823D01*
X588486Y1792583D01*
X587278Y1794158D01*
X540280Y1841155D01*
Y1895760D01*
D02*
G37*
G36*
X390280D02*
X360200D01*
Y1830680D01*
X379245D01*
X424295Y1785630D01*
Y1677780D01*
X394435D01*
Y1632700D01*
X469365D01*
Y1677780D01*
X439505D01*
Y1788780D01*
X439246Y1790748D01*
X438801Y1791823D01*
X438486Y1792583D01*
X437278Y1794158D01*
X390280Y1841155D01*
Y1895760D01*
D02*
G37*
G36*
X240280D02*
X210200D01*
Y1830680D01*
X229245D01*
X274295Y1785630D01*
Y1677780D01*
X244435D01*
Y1632700D01*
X319365D01*
Y1677780D01*
X289505D01*
Y1788780D01*
X289246Y1790748D01*
X289023Y1791286D01*
X288486Y1792583D01*
X287278Y1794158D01*
X240280Y1841155D01*
Y1895760D01*
D02*
G37*
G36*
X753490Y1944320D02*
X739720D01*
Y1934625D01*
X619800D01*
Y1944320D01*
X606030D01*
Y1913050D01*
X619800D01*
Y1919415D01*
X739720D01*
Y1913050D01*
X753490D01*
Y1944320D01*
D02*
G37*
G36*
X603490D02*
X589720D01*
Y1934625D01*
X469800D01*
Y1944320D01*
X456030D01*
Y1913050D01*
X469800D01*
Y1919415D01*
X589720D01*
Y1913050D01*
X603490D01*
Y1944320D01*
D02*
G37*
G36*
X453490D02*
X439720D01*
Y1934625D01*
X319800D01*
Y1944320D01*
X306030D01*
Y1913050D01*
X319800D01*
Y1919415D01*
X439720D01*
Y1913050D01*
X453490D01*
Y1944320D01*
D02*
G37*
G36*
X73970Y2381950D02*
X60200D01*
Y2350680D01*
X73970D01*
Y2381950D01*
D02*
G37*
G36*
X135565Y2662300D02*
X60635D01*
Y2617220D01*
X90495D01*
Y2506220D01*
X90754Y2504252D01*
X90977Y2503714D01*
X91514Y2502417D01*
X92722Y2500842D01*
X139720Y2453845D01*
Y2399240D01*
X169800D01*
Y2464320D01*
X150755D01*
X105705Y2509370D01*
Y2617220D01*
X135565D01*
Y2662300D01*
D02*
G37*
G36*
X90280Y2415760D02*
X76510D01*
Y2384490D01*
X90280D01*
Y2415760D01*
D02*
G37*
G36*
X73970D02*
X60200D01*
Y2384490D01*
X73970D01*
Y2415760D01*
D02*
G37*
G36*
X753490Y1910510D02*
X739720D01*
Y1879240D01*
X753490D01*
Y1910510D01*
D02*
G37*
G36*
X619800D02*
X606030D01*
Y1879240D01*
X619800D01*
Y1910510D01*
D02*
G37*
G36*
X603490D02*
X589720D01*
Y1879240D01*
X603490D01*
Y1910510D01*
D02*
G37*
G36*
X769800D02*
X756030D01*
Y1879240D01*
X769800D01*
Y1910510D01*
D02*
G37*
G36*
X303490Y1944320D02*
X289720D01*
Y1934625D01*
X169800D01*
Y1944320D01*
X156030D01*
Y1913050D01*
X169800D01*
Y1919415D01*
X289720D01*
Y1913050D01*
X303490D01*
Y1944320D01*
D02*
G37*
G36*
X769800D02*
X756030D01*
Y1913050D01*
X769800D01*
Y1944320D01*
D02*
G37*
G36*
X153490D02*
X139720D01*
Y1913050D01*
X153490D01*
Y1944320D01*
D02*
G37*
%LPD*%
D10*
X675240Y2903220D02*
D03*
X525240D02*
D03*
X375240D02*
D03*
X225240D02*
D03*
X75240D02*
D03*
X154760Y2951780D02*
D03*
X304760D02*
D03*
X454760D02*
D03*
X604760D02*
D03*
X754760D02*
D03*
X675240Y2383220D02*
D03*
X525240D02*
D03*
X75240D02*
D03*
X154760Y2431780D02*
D03*
X454760D02*
D03*
X259760D02*
D03*
X604760D02*
D03*
X714760D02*
D03*
X675240Y1863220D02*
D03*
X525240D02*
D03*
X375240D02*
D03*
X225240D02*
D03*
X75240D02*
D03*
X154760Y1911780D02*
D03*
X304760D02*
D03*
X454760D02*
D03*
X604760D02*
D03*
X754760D02*
D03*
X675240Y1343220D02*
D03*
X525240D02*
D03*
X375240D02*
D03*
X225240D02*
D03*
X75240D02*
D03*
X154760Y1391780D02*
D03*
X304760D02*
D03*
X454760D02*
D03*
X604760D02*
D03*
X724760D02*
D03*
X675240Y823220D02*
D03*
X525240D02*
D03*
X375240D02*
D03*
X225240D02*
D03*
X75240D02*
D03*
X154760Y871780D02*
D03*
X304760D02*
D03*
X454760D02*
D03*
X604760D02*
D03*
X754760D02*
D03*
X675240Y303220D02*
D03*
X525240D02*
D03*
X375240D02*
D03*
X225240D02*
D03*
X75240D02*
D03*
X154760Y351780D02*
D03*
X304760D02*
D03*
X454760D02*
D03*
X604760D02*
D03*
X724760D02*
D03*
D11*
X698100Y3159760D02*
D03*
X548100D02*
D03*
X398100D02*
D03*
X248100D02*
D03*
X98100D02*
D03*
X131900Y2695240D02*
D03*
X281900D02*
D03*
X431900D02*
D03*
X581900D02*
D03*
X731900D02*
D03*
X698100Y2639760D02*
D03*
X548100D02*
D03*
X98100D02*
D03*
X131900Y2175240D02*
D03*
X431900D02*
D03*
X236900D02*
D03*
X581900D02*
D03*
X691900D02*
D03*
X698100Y2119760D02*
D03*
X548100D02*
D03*
X398100D02*
D03*
X248100D02*
D03*
X98100D02*
D03*
X131900Y1655240D02*
D03*
X281900D02*
D03*
X431900D02*
D03*
X581900D02*
D03*
X731900D02*
D03*
X698100Y1599760D02*
D03*
X548100D02*
D03*
X398100D02*
D03*
X248100D02*
D03*
X98100D02*
D03*
X131900Y1135240D02*
D03*
X281900D02*
D03*
X431900D02*
D03*
X581900D02*
D03*
X701900D02*
D03*
X698100Y1079760D02*
D03*
X548100D02*
D03*
X398100D02*
D03*
X248100D02*
D03*
X98100D02*
D03*
X131900Y615240D02*
D03*
X281900D02*
D03*
X431900D02*
D03*
X581900D02*
D03*
X731900D02*
D03*
X698100Y559760D02*
D03*
X548100D02*
D03*
X398100D02*
D03*
X248100D02*
D03*
X98100D02*
D03*
X131900Y95240D02*
D03*
X281900D02*
D03*
X431900D02*
D03*
X581900D02*
D03*
X701900D02*
D03*
D12*
X672700Y1327980D02*
X727000Y1273680D01*
Y1129980D02*
Y1273680D01*
Y1129980D02*
X731900Y1125080D01*
X672700Y2367980D02*
X717000Y2323680D01*
Y2165080D02*
Y2323680D01*
X450000Y1450000D02*
Y1558020D01*
X398100Y1609920D02*
X450000Y1558020D01*
Y1380000D02*
X457300Y1387300D01*
Y1407020D01*
X261900Y2251620D02*
X457300Y2447020D01*
X261900Y2165080D02*
Y2251620D01*
X398100Y2131280D02*
X431900Y2165080D01*
X790000Y2670000D02*
Y3030000D01*
X698100Y3121900D02*
X790000Y3030000D01*
X698100Y3121900D02*
Y3169920D01*
X769920Y2649920D02*
X790000Y2670000D01*
X698100Y2649920D02*
X769920D01*
X490000Y2564320D02*
X607300Y2447020D01*
X457300Y2967020D02*
X490000Y2934320D01*
Y2564320D02*
Y2934320D01*
X695960Y2645410D02*
Y2649920D01*
X731900Y2685080D02*
Y2828780D01*
X40000Y2071820D02*
X98100Y2129920D01*
X40000Y1668020D02*
Y2071820D01*
Y1668020D02*
X98100Y1609920D01*
X40000Y1551820D02*
X98100Y1609920D01*
X40000Y1480190D02*
Y1551820D01*
Y1031820D02*
X98100Y1089920D01*
X40000Y628020D02*
Y1031820D01*
Y628020D02*
X98100Y569920D01*
X757300Y887020D02*
X790000Y854320D01*
Y399720D02*
Y854320D01*
X757300Y367020D02*
X790000Y399720D01*
X791210Y2428240D02*
Y2550160D01*
X695960Y2645410D02*
X791210Y2550160D01*
X548100Y2649920D02*
X695960D01*
X98100Y2131280D02*
X131900Y2165080D01*
X98100Y2129920D02*
Y2131280D01*
Y3169920D02*
X698100D01*
X607300Y2967020D02*
X757300D01*
X457300D02*
X607300D01*
X307300D02*
X457300D01*
X157300D02*
X307300D01*
X72700Y2887980D02*
X131900Y2828780D01*
Y2685080D02*
Y2828780D01*
X222700Y2887980D02*
X281900Y2828780D01*
Y2685080D02*
Y2828780D01*
X372700Y2887980D02*
X431900Y2828780D01*
Y2685080D02*
Y2828780D01*
X522700Y2887980D02*
X581900Y2828780D01*
Y2685080D02*
Y2828780D01*
X672700Y2887980D02*
X731900Y2828780D01*
X522700Y2367980D02*
X581900Y2308780D01*
Y2165080D02*
Y2308780D01*
X607300Y2447020D02*
X717000D01*
X98100Y2506220D02*
X157300Y2447020D01*
X98100Y2506220D02*
Y2649920D01*
Y2129920D02*
X698100D01*
X607300Y1927020D02*
X757300D01*
X457300D02*
X607300D01*
X307300D02*
X457300D01*
X157300D02*
X307300D01*
X672700Y1847980D02*
X731900Y1788780D01*
Y1645080D02*
Y1788780D01*
X522700Y1847980D02*
X581900Y1788780D01*
Y1645080D02*
Y1788780D01*
X372700Y1847980D02*
X431900Y1788780D01*
Y1645080D02*
Y1788780D01*
X222700Y1847980D02*
X281900Y1788780D01*
Y1645080D02*
Y1788780D01*
X72700Y1847980D02*
X131900Y1788780D01*
Y1645080D02*
Y1788780D01*
X398100Y1609920D02*
X698100D01*
X98100D02*
X398100D01*
X607300Y1407020D02*
X727000D01*
X457300D02*
X607300D01*
X307300D02*
X457300D01*
X157300D02*
X307300D01*
X522700Y1327980D02*
X581900Y1268780D01*
Y1125080D02*
Y1268780D01*
X372700Y1327980D02*
X431900Y1268780D01*
Y1125080D02*
Y1268780D01*
X222700Y1327980D02*
X281900Y1268780D01*
Y1125080D02*
Y1268780D01*
X72700Y1327980D02*
X131900Y1268780D01*
Y1125080D02*
Y1268780D01*
X98100Y1089920D02*
X698100D01*
X607300Y887020D02*
X757300D01*
X457300D02*
X607300D01*
X307300D02*
X457300D01*
X157300D02*
X307300D01*
X672700Y807980D02*
X731900Y748780D01*
Y605080D02*
Y748780D01*
X522700Y807980D02*
X581900Y748780D01*
Y605080D02*
Y748780D01*
X372700Y807980D02*
X431900Y748780D01*
Y605080D02*
Y748780D01*
X222700Y807980D02*
X281900Y748780D01*
Y605080D02*
Y748780D01*
X72700Y807980D02*
X131900Y748780D01*
Y605080D02*
Y748780D01*
X157300Y367020D02*
X757300D01*
X98100Y569920D02*
X698100D01*
X672700Y287980D02*
X731900Y228780D01*
Y85080D02*
Y228780D01*
X522700Y287980D02*
X581900Y228780D01*
Y85080D02*
Y228780D01*
X372700Y287980D02*
X431900Y228780D01*
Y85080D02*
Y228780D01*
X222700Y287980D02*
X281900Y228780D01*
Y85080D02*
Y228780D01*
X72700Y287980D02*
X131900Y228780D01*
Y85080D02*
Y228780D01*
X72700Y2367980D02*
X187980D01*
X267000Y2447000D01*
X71000Y1117020D02*
X98100Y1089920D01*
X40000Y1480190D02*
X71000Y1449190D01*
Y1117020D02*
Y1266000D01*
X50000Y1339000D02*
X55000Y1344000D01*
X50000Y1287000D02*
Y1339000D01*
Y1287000D02*
X71000Y1266000D01*
X431900Y2165080D02*
Y2343900D01*
X513000Y2425000D01*
X787970D02*
X791210Y2428240D01*
X513000Y2425000D02*
X546000D01*
X580000Y2391000D01*
X625000D01*
X659000Y2425000D01*
X674000D01*
X755727D02*
X787970D01*
X55000Y1344000D02*
Y1416000D01*
X71000Y1432000D01*
Y1449190D01*
D13*
X360000Y2483000D02*
D03*
D14*
X795000Y100000D02*
D03*
Y1355000D02*
D03*
Y2228000D02*
D03*
Y3073500D02*
D03*
X25000Y100000D02*
D03*
Y1355000D02*
D03*
Y2228000D02*
D03*
Y3073500D02*
D03*
D15*
X450000Y1450000D02*
D03*
Y1380000D02*
D03*
X674000Y2425000D02*
D03*
X755727D02*
D03*
M02*
