%FSLAX44Y44*%
%MOMM*%
G71*
G01*
G75*
G04 Layer_Color=8421504*
%ADD10R,2.5000X6.0000*%
%ADD11R,6.9850X4.0000*%
%ADD12C,1.0000*%
%ADD13C,16.0000*%
%ADD14C,4.0000*%
%ADD15C,1.2700*%
%ADD16R,1.2192X0.8128*%
%ADD17R,1.0200X3.8000*%
%ADD18R,0.3556X0.7620*%
%ADD19R,0.7620X0.3556*%
%ADD20R,2.7940X2.7940*%
%ADD21C,0.2540*%
D10*
X675240Y2903220D02*
D03*
X525240D02*
D03*
X375240D02*
D03*
X225240D02*
D03*
X75240D02*
D03*
X154760Y2951780D02*
D03*
X304760D02*
D03*
X454760D02*
D03*
X604760D02*
D03*
X754760D02*
D03*
X675240Y2383220D02*
D03*
X525240D02*
D03*
X75240D02*
D03*
X154760Y2431780D02*
D03*
X454760D02*
D03*
X259760D02*
D03*
X604760D02*
D03*
X714760D02*
D03*
X675240Y1863220D02*
D03*
X525240D02*
D03*
X375240D02*
D03*
X225240D02*
D03*
X75240D02*
D03*
X154760Y1911780D02*
D03*
X304760D02*
D03*
X454760D02*
D03*
X604760D02*
D03*
X754760D02*
D03*
X675240Y1343220D02*
D03*
X525240D02*
D03*
X375240D02*
D03*
X225240D02*
D03*
X75240D02*
D03*
X154760Y1391780D02*
D03*
X304760D02*
D03*
X454760D02*
D03*
X604760D02*
D03*
X724760D02*
D03*
X675240Y823220D02*
D03*
X525240D02*
D03*
X375240D02*
D03*
X225240D02*
D03*
X75240D02*
D03*
X154760Y871780D02*
D03*
X304760D02*
D03*
X454760D02*
D03*
X604760D02*
D03*
X754760D02*
D03*
X675240Y303220D02*
D03*
X525240D02*
D03*
X375240D02*
D03*
X225240D02*
D03*
X75240D02*
D03*
X154760Y351780D02*
D03*
X304760D02*
D03*
X454760D02*
D03*
X604760D02*
D03*
X724760D02*
D03*
D11*
X698100Y3159760D02*
D03*
X548100D02*
D03*
X398100D02*
D03*
X248100D02*
D03*
X98100D02*
D03*
X131900Y2695240D02*
D03*
X281900D02*
D03*
X431900D02*
D03*
X581900D02*
D03*
X731900D02*
D03*
X698100Y2639760D02*
D03*
X548100D02*
D03*
X98100D02*
D03*
X131900Y2175240D02*
D03*
X431900D02*
D03*
X236900D02*
D03*
X581900D02*
D03*
X691900D02*
D03*
X698100Y2119760D02*
D03*
X548100D02*
D03*
X398100D02*
D03*
X248100D02*
D03*
X98100D02*
D03*
X131900Y1655240D02*
D03*
X281900D02*
D03*
X431900D02*
D03*
X581900D02*
D03*
X731900D02*
D03*
X698100Y1599760D02*
D03*
X548100D02*
D03*
X398100D02*
D03*
X248100D02*
D03*
X98100D02*
D03*
X131900Y1135240D02*
D03*
X281900D02*
D03*
X431900D02*
D03*
X581900D02*
D03*
X701900D02*
D03*
X698100Y1079760D02*
D03*
X548100D02*
D03*
X398100D02*
D03*
X248100D02*
D03*
X98100D02*
D03*
X131900Y615240D02*
D03*
X281900D02*
D03*
X431900D02*
D03*
X581900D02*
D03*
X731900D02*
D03*
X698100Y559760D02*
D03*
X548100D02*
D03*
X398100D02*
D03*
X248100D02*
D03*
X98100D02*
D03*
X131900Y95240D02*
D03*
X281900D02*
D03*
X431900D02*
D03*
X581900D02*
D03*
X701900D02*
D03*
M02*
