%FSLAX44Y44*%
%MOMM*%
G71*
G01*
G75*
G04 Layer_Physical_Order=2*
G04 Layer_Color=16711680*
%ADD10R,2.5000X6.0000*%
%ADD11R,6.9850X4.0000*%
%ADD12R,6.0000X2.5000*%
%ADD13R,4.0000X6.9850*%
%ADD14C,1.0000*%
%ADD15C,0.2540*%
%ADD16C,4.0000*%
%ADD17C,1.2700*%
%ADD18R,1.2192X0.8128*%
%ADD19R,1.0200X3.8000*%
%ADD20R,0.3556X0.7620*%
%ADD21R,0.7620X0.3556*%
%ADD22R,2.7940X2.7940*%
G36*
X935000Y740000D02*
Y200000D01*
X740000Y5000D01*
X200000D01*
X5000Y200000D01*
Y740000D01*
X200000Y935000D01*
X203341D01*
X203389Y934883D01*
D01*
X203827Y933827D01*
D01*
X10000Y740000D01*
X203827Y933827D01*
Y933827D01*
X204635Y934635D01*
D01*
X205000Y935000D01*
D01*
X205000Y935000D01*
X740000D01*
X935000Y740000D01*
D02*
G37*
%LPC*%
G36*
X348730Y430604D02*
X341364D01*
Y425270D01*
X348730D01*
Y430604D01*
D02*
G37*
G36*
X493233Y57610D02*
X471979D01*
Y36356D01*
X475128Y36666D01*
X479377Y37955D01*
X483293Y40048D01*
X486725Y42865D01*
X489542Y46297D01*
X491635Y50213D01*
X492923Y54461D01*
X493233Y57610D01*
D02*
G37*
G36*
X469440D02*
X448186D01*
X448496Y54461D01*
X449785Y50213D01*
X451878Y46297D01*
X454694Y42865D01*
X458126Y40048D01*
X462042Y37955D01*
X466291Y36666D01*
X469440Y36356D01*
Y57610D01*
D02*
G37*
G36*
X881440Y469610D02*
X860186D01*
X860496Y466461D01*
X861785Y462212D01*
X863877Y458297D01*
X866694Y454865D01*
X870126Y452048D01*
X874042Y449955D01*
X878291Y448666D01*
X881440Y448356D01*
Y469610D01*
D02*
G37*
G36*
X471979Y81404D02*
Y60150D01*
X493233D01*
X492923Y63299D01*
X491635Y67547D01*
X489542Y71463D01*
X486725Y74895D01*
X483293Y77712D01*
X479377Y79805D01*
X475128Y81094D01*
X471979Y81404D01*
D02*
G37*
G36*
X516270Y418800D02*
Y411270D01*
X523800D01*
X523661Y412321D01*
X522765Y414483D01*
X521340Y416340D01*
X519483Y417765D01*
X517321Y418661D01*
X516270Y418800D01*
D02*
G37*
G36*
X513730D02*
X512679Y418661D01*
X510517Y417765D01*
X508660Y416340D01*
X507235Y414483D01*
X506339Y412321D01*
X506305Y412060D01*
X499622Y405378D01*
X498414Y403802D01*
X497877Y402505D01*
X497654Y401968D01*
X497395Y400000D01*
Y381890D01*
X497360D01*
Y361620D01*
X512640D01*
Y381890D01*
X512605D01*
Y396850D01*
X517060Y401305D01*
X517321Y401339D01*
X519483Y402235D01*
X521340Y403660D01*
X522765Y405517D01*
X523661Y407679D01*
X523800Y408730D01*
X515000D01*
Y410000D01*
X513730D01*
Y418800D01*
D02*
G37*
G36*
X512640Y359080D02*
X497360D01*
Y338810D01*
X497395D01*
Y331190D01*
X497360D01*
Y310920D01*
X512640D01*
Y331190D01*
X512605D01*
Y338810D01*
X512640D01*
Y359080D01*
D02*
G37*
G36*
X525000Y398967D02*
X522679Y398661D01*
X520517Y397765D01*
X518660Y396340D01*
X517235Y394483D01*
X516339Y392321D01*
X516033Y390000D01*
X516339Y387679D01*
X517235Y385517D01*
X517395Y385308D01*
Y381890D01*
X517360D01*
Y338810D01*
X517395D01*
Y331190D01*
X517360D01*
Y288110D01*
X532640D01*
Y331190D01*
X532605D01*
Y338810D01*
X532640D01*
Y381890D01*
X532605D01*
Y385308D01*
X532765Y385517D01*
X533661Y387679D01*
X533967Y390000D01*
X533661Y392321D01*
X532765Y394483D01*
X531340Y396340D01*
X529483Y397765D01*
X527321Y398661D01*
X525000Y398967D01*
D02*
G37*
G36*
X470106Y506190D02*
X375305D01*
X373818Y505894D01*
X372558Y505052D01*
X357347Y489841D01*
X356505Y488581D01*
X356209Y487094D01*
Y435703D01*
X351270Y430764D01*
Y424000D01*
X350000D01*
Y422730D01*
X341364D01*
Y418262D01*
X337347Y414245D01*
X336505Y412985D01*
X336209Y411498D01*
Y400214D01*
X336505Y398727D01*
X337347Y397467D01*
X422045Y312769D01*
Y284863D01*
X422341Y283377D01*
X423183Y282117D01*
X431367Y273933D01*
X432627Y273091D01*
X434114Y272795D01*
X481518D01*
X483005Y273091D01*
X484265Y273933D01*
X496657Y286325D01*
X497499Y287585D01*
X497603Y288110D01*
X503730D01*
Y308380D01*
X497360D01*
Y307504D01*
X493813Y303957D01*
X492640Y304443D01*
Y331190D01*
X488885D01*
Y338810D01*
X492640D01*
Y381890D01*
X489223D01*
Y448318D01*
X500052Y459147D01*
X500894Y460407D01*
X500943Y460654D01*
X501190Y461894D01*
Y488106D01*
X500943Y489346D01*
X500894Y489593D01*
X500052Y490853D01*
X495378Y495527D01*
X494118Y496369D01*
X492631Y496665D01*
X484068D01*
Y501035D01*
X476031D01*
X475927Y501560D01*
X475085Y502820D01*
X472853Y505052D01*
X471593Y505894D01*
X470106Y506190D01*
D02*
G37*
G36*
X512640Y308380D02*
X506270D01*
Y288110D01*
X512640D01*
Y308380D01*
D02*
G37*
G36*
X905234Y469610D02*
X883979D01*
Y448356D01*
X887128Y448666D01*
X891377Y449955D01*
X895293Y452048D01*
X898725Y454865D01*
X901542Y458297D01*
X903634Y462212D01*
X904923Y466461D01*
X905234Y469610D01*
D02*
G37*
G36*
X469440Y881610D02*
X448186D01*
X448496Y878461D01*
X449785Y874212D01*
X451878Y870297D01*
X454694Y866865D01*
X458126Y864048D01*
X462042Y861955D01*
X466291Y860666D01*
X469440Y860356D01*
Y881610D01*
D02*
G37*
G36*
X883979Y493404D02*
Y472150D01*
X905234D01*
X904923Y475299D01*
X903634Y479547D01*
X901542Y483463D01*
X898725Y486895D01*
X895293Y489712D01*
X891377Y491805D01*
X887128Y493094D01*
X883979Y493404D01*
D02*
G37*
G36*
X493233Y881610D02*
X471979D01*
Y860356D01*
X475128Y860666D01*
X479377Y861955D01*
X483293Y864048D01*
X486725Y866865D01*
X489542Y870297D01*
X491635Y874212D01*
X492923Y878461D01*
X493233Y881610D01*
D02*
G37*
G36*
X471979Y905404D02*
Y884150D01*
X493233D01*
X492923Y887299D01*
X491635Y891547D01*
X489542Y895463D01*
X486725Y898895D01*
X483293Y901712D01*
X479377Y903805D01*
X475128Y905094D01*
X471979Y905404D01*
D02*
G37*
G36*
X469440D02*
X466291Y905094D01*
X462042Y903805D01*
X458126Y901712D01*
X454694Y898895D01*
X451878Y895463D01*
X449785Y891547D01*
X448496Y887299D01*
X448186Y884150D01*
X469440D01*
Y905404D01*
D02*
G37*
G36*
X881440Y493404D02*
X878291Y493094D01*
X874042Y491805D01*
X870126Y489712D01*
X866694Y486895D01*
X863877Y483463D01*
X861785Y479547D01*
X860496Y475299D01*
X860186Y472150D01*
X881440D01*
Y493404D01*
D02*
G37*
G36*
X81234Y469610D02*
X59980D01*
Y448356D01*
X63128Y448666D01*
X67377Y449955D01*
X71293Y452048D01*
X74725Y454865D01*
X77542Y458297D01*
X79635Y462212D01*
X80923Y466461D01*
X81234Y469610D01*
D02*
G37*
G36*
X57440D02*
X36186D01*
X36496Y466461D01*
X37785Y462212D01*
X39878Y458297D01*
X42694Y454865D01*
X46126Y452048D01*
X50042Y449955D01*
X54291Y448666D01*
X57440Y448356D01*
Y469610D01*
D02*
G37*
G36*
X469440Y81404D02*
X466291Y81094D01*
X462042Y79805D01*
X458126Y77712D01*
X454694Y74895D01*
X451878Y71463D01*
X449785Y67547D01*
X448496Y63299D01*
X448186Y60150D01*
X469440D01*
Y81404D01*
D02*
G37*
G36*
X59980Y493404D02*
Y472150D01*
X81234D01*
X80923Y475299D01*
X79635Y479547D01*
X77542Y483463D01*
X74725Y486895D01*
X71293Y489712D01*
X67377Y491805D01*
X63128Y493094D01*
X59980Y493404D01*
D02*
G37*
G36*
X57440D02*
X54291Y493094D01*
X50042Y491805D01*
X46126Y489712D01*
X42694Y486895D01*
X39878Y483463D01*
X37785Y479547D01*
X36496Y475299D01*
X36186Y472150D01*
X57440D01*
Y493404D01*
D02*
G37*
%LPD*%
G36*
X481453Y414300D02*
Y381890D01*
X477360D01*
Y338810D01*
X481115D01*
Y331190D01*
X477360D01*
Y298016D01*
X473813Y294469D01*
X472640Y294955D01*
Y331190D01*
X468885D01*
Y338810D01*
X472640D01*
Y381890D01*
X457360D01*
Y338810D01*
X461115D01*
Y331190D01*
X457360D01*
Y298015D01*
X453813Y294469D01*
X452640Y294955D01*
Y331190D01*
X448885D01*
Y338810D01*
X452640D01*
Y381890D01*
X448885D01*
Y383391D01*
X480280Y414786D01*
X481453Y414300D01*
D02*
G37*
G36*
X421364Y445367D02*
Y440858D01*
X419809Y439303D01*
X418636Y439789D01*
Y440604D01*
X401364D01*
Y427885D01*
X398636D01*
Y432460D01*
X391270D01*
Y425856D01*
X388730D01*
Y432460D01*
X385613D01*
X385127Y433633D01*
X388890Y437396D01*
X398636D01*
Y446115D01*
X420452D01*
X421364Y445367D01*
D02*
G37*
G36*
X455932Y491510D02*
X453490D01*
Y489068D01*
X443965D01*
Y480432D01*
Y473932D01*
Y467432D01*
Y460932D01*
X453490D01*
Y458490D01*
X455932D01*
Y456491D01*
X453326Y453885D01*
X441157D01*
X440421Y454621D01*
X439161Y455463D01*
X437674Y455759D01*
X422326D01*
X420839Y455463D01*
X419579Y454621D01*
X418843Y453885D01*
X396000D01*
X394513Y453589D01*
X393253Y452747D01*
X391110Y450604D01*
X381364D01*
Y440858D01*
X379809Y439303D01*
X378636Y439789D01*
Y440604D01*
X363979D01*
Y485485D01*
X376914Y498420D01*
X455932D01*
Y491510D01*
D02*
G37*
G36*
X427125Y407381D02*
Y320336D01*
X425952Y319850D01*
X347723Y398079D01*
X348209Y399252D01*
X358636D01*
Y401971D01*
X360000D01*
X361487Y402267D01*
X362747Y403109D01*
X368890Y409252D01*
X378636D01*
Y411971D01*
X401364D01*
Y409252D01*
X418636D01*
Y411971D01*
X422535D01*
X427125Y407381D01*
D02*
G37*
G36*
X474953Y432800D02*
Y420447D01*
X442253Y387747D01*
X441411Y386487D01*
X441239Y385619D01*
X439975Y385744D01*
Y399481D01*
X473780Y433286D01*
X474953Y432800D01*
D02*
G37*
G36*
X468453Y445389D02*
Y438947D01*
X436068Y406562D01*
X434895Y407048D01*
Y408990D01*
X434599Y410477D01*
X433757Y411737D01*
X427415Y418079D01*
X427901Y419252D01*
X428730D01*
Y425856D01*
Y432460D01*
X425613D01*
X425127Y433633D01*
X428890Y437396D01*
X438636D01*
Y441035D01*
X460831D01*
X462318Y441331D01*
X463578Y442173D01*
X467280Y445875D01*
X468453Y445389D01*
D02*
G37*
%LPC*%
G36*
X438636Y432460D02*
X431270D01*
Y427126D01*
X438636D01*
Y432460D01*
D02*
G37*
G36*
Y424586D02*
X431270D01*
Y419252D01*
X438636D01*
Y424586D01*
D02*
G37*
%LPD*%
D14*
X505000Y309650D02*
Y360350D01*
X525000Y309650D02*
Y360350D01*
Y390000D01*
X505000Y360350D02*
Y400000D01*
X515000Y410000D01*
D15*
X370000Y434000D02*
X380000D01*
X390000Y444000D01*
X410000Y434000D02*
X420000D01*
X430000Y444000D01*
X460831Y444920D02*
X465838Y449927D01*
Y454403D01*
X466750Y455315D01*
X428144Y424000D02*
X430000Y425856D01*
X350000Y405856D02*
X360000D01*
X370000Y415856D01*
X410000D01*
X390000Y444000D02*
X396000Y450000D01*
X454935D02*
X460250Y455315D01*
X430000Y444000D02*
X430920Y444920D01*
X396000Y450000D02*
X420452D01*
X422326Y451874D01*
X437674D01*
X439548Y450000D01*
X454935D01*
X430920Y444920D02*
X460831D01*
X445000Y309650D02*
Y360350D01*
X478838Y454403D02*
X479750Y455315D01*
X445000Y360350D02*
Y385000D01*
X478838Y418838D01*
Y454403D01*
X465000Y309650D02*
Y360350D01*
Y300162D02*
Y309650D01*
X451678Y286840D02*
X465000Y300162D01*
X438322Y286840D02*
X451678D01*
X436090Y289072D02*
X438322Y286840D01*
X472338Y454403D02*
X473250Y455315D01*
X485000Y309650D02*
Y360350D01*
X436218Y281760D02*
X466598D01*
X431010Y286968D02*
X436218Y281760D01*
X485000Y300162D02*
Y309650D01*
X466598Y281760D02*
X485000Y300162D01*
Y360350D02*
X485338Y360688D01*
Y449927D01*
X497305Y461894D01*
Y488106D01*
X492631Y492780D02*
X497305Y488106D01*
X481655Y492780D02*
X492631D01*
X479750Y494685D02*
X481655Y492780D01*
X350000Y421404D02*
Y424000D01*
X340094Y411498D02*
X350000Y421404D01*
X340094Y400214D02*
Y411498D01*
Y400214D02*
X425930Y314378D01*
Y284863D02*
Y314378D01*
Y284863D02*
X434114Y276680D01*
X493910Y289072D02*
Y298560D01*
X434114Y276680D02*
X481518D01*
X493910Y289072D01*
Y298560D02*
X505000Y309650D01*
X350000Y424000D02*
X360094Y434094D01*
X470106Y502305D02*
X472338Y500073D01*
Y495597D02*
Y500073D01*
Y495597D02*
X473250Y494685D01*
X350000Y424000D02*
X428144D01*
X436090Y289072D02*
Y401090D01*
X472338Y437338D01*
Y454403D01*
X410000Y415856D02*
X424144D01*
X431010Y408990D01*
Y286968D02*
Y408990D01*
X360094Y434094D02*
Y487094D01*
X375305Y502305D01*
X470106D01*
D16*
X58710Y470880D02*
D03*
X470709Y882880D02*
D03*
X882710Y470880D02*
D03*
X470709Y58880D02*
D03*
D17*
X525000Y390000D02*
D03*
X515000Y410000D02*
D03*
D18*
X350000Y424000D02*
D03*
Y405856D02*
D03*
X370000Y434000D02*
D03*
Y415856D02*
D03*
X390000Y444000D02*
D03*
Y425856D02*
D03*
X410000Y434000D02*
D03*
Y415856D02*
D03*
X430000Y444000D02*
D03*
Y425856D02*
D03*
D19*
X445000Y360350D02*
D03*
Y309650D02*
D03*
X465000Y360350D02*
D03*
Y309650D02*
D03*
X485000Y360350D02*
D03*
Y309650D02*
D03*
X505000Y360350D02*
D03*
Y309650D02*
D03*
X525000Y360350D02*
D03*
Y309650D02*
D03*
D20*
X479750Y455315D02*
D03*
X473250D02*
D03*
X466750D02*
D03*
X460250D02*
D03*
Y494685D02*
D03*
X466750D02*
D03*
X473250D02*
D03*
X479750D02*
D03*
D21*
X450315Y465250D02*
D03*
Y471750D02*
D03*
Y478250D02*
D03*
Y484750D02*
D03*
X489685D02*
D03*
Y478250D02*
D03*
Y471750D02*
D03*
Y465250D02*
D03*
D22*
X470000Y475000D02*
D03*
M02*
