M48
;Layer_Color=9474304
;FILE_FORMAT=4:4
METRIC,LZ
;TYPE=PLATED
T1F00S00C0.7112
T2F00S00C0.9000
T3F00S00C3.0000
T4F00S00C3.1750
%
T01
X0013462Y0057531
X0016637
X0020066Y0057658
X0023622
X0023876Y0062992
X0019812Y0063119
X0016764Y0063246
X0013335Y0063119
X0013589Y0067437
X001651Y006731
X0019812Y0067437
X0023876Y006731
X0031242Y0067564
Y0063246
X0031369Y0058039
X0035306Y0057912
X0038481Y0058039
X0041783Y0058166
X0041656Y0063246
X0038481
X0035052Y0062992
Y0067564
X0038608
X0041656Y0067691
X0051308Y0067818
X0055245
X0058547Y0067564
X0061722
X0061976Y0064008
X0058674Y0063881
X0055372Y0063754
X0051308Y00635
X0051562Y0058166
X0055372Y0058293
X0058547Y005842
X0062103
X0069088Y0058166
Y0062103
X00688937Y00674515
X0072517Y0067564
X0075683Y0067437
X007874
X0078613Y006223
X0075819
X007239
Y0058039
X0076073
X0079121
T02
X0013081Y008382
Y008636
X0015621
Y008382
X0018161
X0020701
X0023241
X0025781
X0028321
X0030861
Y008636
X0028321
X0025781
X0023241
X0020701
X0018161
Y00889
X0015621
X0013081
X0020701
X0023241
X0025781
X0028321
X0030861
X0033401
Y008636
Y008382
X0035941
X0038481
X0041021
X0043561
X0046101
X0048641
X0051181
X0053721
X0056261
X0058801
X0061341
X0063881
X0066421
X0068961
X0071501
Y008636
X0068961
X0066421
X0063881
X0061341
X0058801
X0056261
X0053721
X0051181
X0048641
X0046101
X0043561
X0041021
X0038481
X0035941
Y00889
X0038481
X0041021
X0043561
X0046101
X0048641
X0051181
X0053721
X0056261
X0058801
X0061341
X0063881
X0066421
X0068961
X0071501
X0074041
Y008636
Y008382
X0076581
Y008636
Y00889
Y009144
X0074041
X0071501
X0068961
X0066421
X0063881
X0061341
X0058801
X0056261
X0053721
X0051181
X0048641
X0046101
X0043561
X0041021
X0038481
X0035941
X0033401
X0030861
X0028321
X0025781
X0023241
X0020701
X0018161
X0015621
X0013081
T03
X0086797Y0025022
X0003881Y0023879
Y00588265
X0086797Y00599695
T04
X0004191Y000508
X0084201
X0081661Y0090805
X0008001
M30
