%FSLAX44Y44*%
%MOMM*%
G71*
G01*
G75*
G04 Layer_Color=8388736*
%ADD10R,5.0000X1.5000*%
%ADD11R,3.0000X5.0000*%
%ADD12C,0.2540*%
%ADD13C,1.2700*%
%ADD14C,2.5400*%
%ADD15C,6.3500*%
%ADD16C,5.0800*%
%ADD17C,1.5000*%
%ADD18C,1.2700*%
%ADD19C,1.0160*%
%ADD20C,4.1910*%
%ADD21C,4.0160*%
%ADD22C,1.9160*%
G04:AMPARAMS|DCode=23|XSize=2.424mm|YSize=2.424mm|CornerRadius=0mm|HoleSize=0mm|Usage=FLASHONLY|Rotation=0.000|XOffset=0mm|YOffset=0mm|HoleType=Round|Shape=Relief|Width=0.254mm|Gap=0.254mm|Entries=4|*
%AMTHD23*
7,0,0,2.4240,1.9160,0.2540,45*
%
%ADD23THD23*%
G04:AMPARAMS|DCode=24|XSize=2.2352mm|YSize=2.2352mm|CornerRadius=0mm|HoleSize=0mm|Usage=FLASHONLY|Rotation=0.000|XOffset=0mm|YOffset=0mm|HoleType=Round|Shape=Relief|Width=0.254mm|Gap=0.254mm|Entries=4|*
%AMTHD24*
7,0,0,2.2352,1.7272,0.2540,45*
%
%ADD24THD24*%
%ADD25C,1.7272*%
%ADD26R,5.2032X1.7032*%
%ADD27R,3.2032X5.2032*%
%ADD28C,6.5532*%
%ADD29C,5.2832*%
%ADD30C,1.7032*%
%ADD31C,1.4732*%
D26*
X349380Y812780D02*
D03*
X189380D02*
D03*
X722480D02*
D03*
X562480D02*
D03*
D27*
X419380Y779780D02*
D03*
X119380D02*
D03*
X792480D02*
D03*
X492480D02*
D03*
D28*
X80010Y908050D02*
D03*
X842010Y50800D02*
D03*
X41910D02*
D03*
X816610Y908050D02*
D03*
D29*
X38810Y238790D02*
D03*
Y588265D02*
D03*
X867970Y250220D02*
D03*
Y599695D02*
D03*
D30*
X130810Y863600D02*
D03*
Y838200D02*
D03*
X156210D02*
D03*
X181610D02*
D03*
X207010D02*
D03*
X232410D02*
D03*
X257810D02*
D03*
X283210D02*
D03*
X308610D02*
D03*
X334010D02*
D03*
X359410D02*
D03*
X384810D02*
D03*
X410210D02*
D03*
X435610D02*
D03*
X461010D02*
D03*
X486410D02*
D03*
X511810D02*
D03*
X537210D02*
D03*
X562610D02*
D03*
X588010D02*
D03*
X613410D02*
D03*
X638810D02*
D03*
X664210D02*
D03*
X689610D02*
D03*
X715010D02*
D03*
X740410D02*
D03*
X765810D02*
D03*
X156210Y863600D02*
D03*
X181610D02*
D03*
X207010D02*
D03*
X232410D02*
D03*
X257810D02*
D03*
X283210D02*
D03*
X308610D02*
D03*
X334010D02*
D03*
X359410D02*
D03*
X384810D02*
D03*
X410210D02*
D03*
X435610D02*
D03*
X461010D02*
D03*
X486410D02*
D03*
X511810D02*
D03*
X537210D02*
D03*
X562610D02*
D03*
X588010D02*
D03*
X613410D02*
D03*
X638810D02*
D03*
X664210D02*
D03*
X689610D02*
D03*
X715010D02*
D03*
X740410D02*
D03*
X765810D02*
D03*
X130810Y914400D02*
D03*
Y889000D02*
D03*
X156210D02*
D03*
X181610D02*
D03*
X207010D02*
D03*
X232410D02*
D03*
X257810D02*
D03*
X283210D02*
D03*
X308610D02*
D03*
X334010D02*
D03*
X359410D02*
D03*
X384810D02*
D03*
X410210D02*
D03*
X435610D02*
D03*
X461010D02*
D03*
X486410D02*
D03*
X511810D02*
D03*
X537210D02*
D03*
X562610D02*
D03*
X588010D02*
D03*
X613410D02*
D03*
X638810D02*
D03*
X664210D02*
D03*
X689610D02*
D03*
X715010D02*
D03*
X740410D02*
D03*
X765810D02*
D03*
X156210Y914400D02*
D03*
X181610D02*
D03*
X207010D02*
D03*
X232410D02*
D03*
X257810D02*
D03*
X283210D02*
D03*
X308610D02*
D03*
X334010D02*
D03*
X359410D02*
D03*
X384810D02*
D03*
X410210D02*
D03*
X435610D02*
D03*
X461010D02*
D03*
X486410D02*
D03*
X511810D02*
D03*
X537210D02*
D03*
X562610D02*
D03*
X588010D02*
D03*
X613410D02*
D03*
X638810D02*
D03*
X664210D02*
D03*
X689610D02*
D03*
X715010D02*
D03*
X740410D02*
D03*
X765810D02*
D03*
D31*
X787400Y674370D02*
D03*
X786130Y622300D02*
D03*
X791210Y580390D02*
D03*
X756830Y674370D02*
D03*
X758190Y622300D02*
D03*
X760730Y580390D02*
D03*
X552450Y678180D02*
D03*
X553720Y637540D02*
D03*
Y582930D02*
D03*
X513080Y678180D02*
D03*
Y635000D02*
D03*
X515620Y581660D02*
D03*
X416560Y676910D02*
D03*
Y632460D02*
D03*
X417830Y581660D02*
D03*
X386080Y675640D02*
D03*
X384810Y632460D02*
D03*
Y580390D02*
D03*
X166370Y575310D02*
D03*
X167640Y632460D02*
D03*
X165100Y673100D02*
D03*
X133350Y631190D02*
D03*
X134620Y575310D02*
D03*
X135890Y674370D02*
D03*
X200660Y576580D02*
D03*
X198120Y631190D02*
D03*
Y674370D02*
D03*
X236220Y576580D02*
D03*
X238760Y629920D02*
D03*
Y673100D02*
D03*
X313690Y580390D02*
D03*
X312420Y632460D02*
D03*
Y675640D02*
D03*
X353060Y579120D02*
D03*
X350520Y629920D02*
D03*
Y675640D02*
D03*
X585470Y584200D02*
D03*
X586740Y638810D02*
D03*
X585470Y675640D02*
D03*
X621030Y584200D02*
D03*
X619760Y640080D02*
D03*
X617220Y675640D02*
D03*
X690880Y581660D02*
D03*
Y621030D02*
D03*
X688937Y674515D02*
D03*
X723900Y580390D02*
D03*
Y622300D02*
D03*
X725170Y675640D02*
D03*
M02*
