%FSLAX44Y44*%
%MOMM*%
G71*
G01*
G75*
G04 Layer_Physical_Order=3*
G04 Layer_Color=128*
%ADD10R,5.0000X1.5000*%
%ADD11R,3.0000X5.0000*%
%ADD12C,0.2540*%
%ADD13C,1.2700*%
%ADD14C,2.5400*%
%ADD15C,6.3500*%
%ADD16C,5.0800*%
%ADD17C,1.5000*%
%ADD18C,1.2700*%
%ADD19C,1.0160*%
%ADD20C,4.1910*%
%ADD21C,4.0160*%
%ADD22C,1.9160*%
G04:AMPARAMS|DCode=23|XSize=2.424mm|YSize=2.424mm|CornerRadius=0mm|HoleSize=0mm|Usage=FLASHONLY|Rotation=0.000|XOffset=0mm|YOffset=0mm|HoleType=Round|Shape=Relief|Width=0.254mm|Gap=0.254mm|Entries=4|*
%AMTHD23*
7,0,0,2.4240,1.9160,0.2540,45*
%
%ADD23THD23*%
G04:AMPARAMS|DCode=24|XSize=2.2352mm|YSize=2.2352mm|CornerRadius=0mm|HoleSize=0mm|Usage=FLASHONLY|Rotation=0.000|XOffset=0mm|YOffset=0mm|HoleType=Round|Shape=Relief|Width=0.254mm|Gap=0.254mm|Entries=4|*
%AMTHD24*
7,0,0,2.2352,1.7272,0.2540,45*
%
%ADD24THD24*%
%ADD25C,1.7272*%
D19*
X895510Y964590D02*
X905510Y954590D01*
Y502390D02*
Y954590D01*
X822510Y502390D02*
X905510D01*
X819840Y502089D02*
X822510Y502390D01*
X817303Y501202D02*
X819840Y502089D01*
X815028Y499772D02*
X817303Y501202D01*
X813128Y497872D02*
X815028Y499772D01*
X811698Y495597D02*
X813128Y497872D01*
X810811Y493060D02*
X811698Y495597D01*
X810510Y490390D02*
X810811Y493060D01*
X810510Y395790D02*
Y490390D01*
Y395790D02*
X810811Y393120D01*
X811698Y390583D01*
X813128Y388308D01*
X815028Y386408D01*
X817303Y384978D01*
X819840Y384091D01*
X822510Y383790D01*
X905510D01*
Y15690D02*
Y383790D01*
X895510Y5690D02*
X905510Y15690D01*
X567710Y5690D02*
X895510D01*
X567710D02*
Y22890D01*
X567409Y25560D02*
X567710Y22890D01*
X566522Y28097D02*
X567409Y25560D01*
X565092Y30372D02*
X566522Y28097D01*
X563192Y32272D02*
X565092Y30372D01*
X560917Y33702D02*
X563192Y32272D01*
X558380Y34589D02*
X560917Y33702D01*
X555710Y34890D02*
X558380Y34589D01*
X376510Y34890D02*
X555710D01*
X373840Y34589D02*
X376510Y34890D01*
X371303Y33702D02*
X373840Y34589D01*
X369028Y32272D02*
X371303Y33702D01*
X367128Y30372D02*
X369028Y32272D01*
X365698Y28097D02*
X367128Y30372D01*
X364811Y25560D02*
X365698Y28097D01*
X364510Y22890D02*
X364811Y25560D01*
X364510Y5690D02*
Y22890D01*
X13810Y5690D02*
X364510D01*
X3810Y15690D02*
X13810Y5690D01*
X3810Y15690D02*
Y383790D01*
X11010D01*
X13680Y384091D01*
X16217Y384978D01*
X18492Y386408D01*
X20392Y388308D01*
X21822Y390583D01*
X22709Y393120D01*
X23010Y395790D01*
Y502390D01*
X22709Y505060D02*
X23010Y502390D01*
X21822Y507597D02*
X22709Y505060D01*
X20392Y509872D02*
X21822Y507597D01*
X18492Y511772D02*
X20392Y509872D01*
X16217Y513202D02*
X18492Y511772D01*
X13680Y514089D02*
X16217Y513202D01*
X11010Y514390D02*
X13680Y514089D01*
X3810Y514390D02*
X11010D01*
X3810D02*
Y954590D01*
X13810Y964590D01*
X364510D01*
Y947390D02*
Y964590D01*
Y947390D02*
X364811Y944720D01*
X365698Y942183D01*
X367128Y939908D01*
X369028Y938008D01*
X371303Y936579D01*
X373840Y935691D01*
X376510Y935390D01*
X555710D01*
X558380Y935691D01*
X560917Y936579D01*
X563192Y938008D01*
X565092Y939908D01*
X566522Y942183D01*
X567409Y944720D01*
X567710Y947390D01*
Y964590D01*
X895510D01*
D20*
X80010Y908050D02*
D03*
X842010Y50800D02*
D03*
X41910D02*
D03*
X816610Y908050D02*
D03*
D21*
X38810Y238790D02*
D03*
Y588265D02*
D03*
X867970Y250220D02*
D03*
Y599695D02*
D03*
D22*
X130810Y863600D02*
D03*
Y838200D02*
D03*
X156210D02*
D03*
X181610D02*
D03*
X207010D02*
D03*
X232410D02*
D03*
X257810D02*
D03*
X283210D02*
D03*
X308610D02*
D03*
X334010D02*
D03*
X359410D02*
D03*
X384810D02*
D03*
X410210D02*
D03*
X435610D02*
D03*
X461010D02*
D03*
X486410D02*
D03*
X511810D02*
D03*
X537210D02*
D03*
X562610D02*
D03*
X588010D02*
D03*
X613410D02*
D03*
X638810D02*
D03*
X664210D02*
D03*
X689610D02*
D03*
X715010D02*
D03*
X740410D02*
D03*
X765810D02*
D03*
X156210Y863600D02*
D03*
X181610D02*
D03*
X207010D02*
D03*
X232410D02*
D03*
X257810D02*
D03*
X283210D02*
D03*
X308610D02*
D03*
X334010D02*
D03*
X359410D02*
D03*
X384810D02*
D03*
X410210D02*
D03*
X435610D02*
D03*
X461010D02*
D03*
X486410D02*
D03*
X511810D02*
D03*
X537210D02*
D03*
X562610D02*
D03*
X588010D02*
D03*
X613410D02*
D03*
X638810D02*
D03*
X664210D02*
D03*
X689610D02*
D03*
X715010D02*
D03*
X740410D02*
D03*
X765810D02*
D03*
X130810Y914400D02*
D03*
Y889000D02*
D03*
X156210D02*
D03*
X181610D02*
D03*
X207010D02*
D03*
X232410D02*
D03*
X257810D02*
D03*
X283210D02*
D03*
X308610D02*
D03*
X334010D02*
D03*
X359410D02*
D03*
X384810D02*
D03*
X410210D02*
D03*
X435610D02*
D03*
X461010D02*
D03*
X486410D02*
D03*
X511810D02*
D03*
X537210D02*
D03*
X562610D02*
D03*
X588010D02*
D03*
X613410D02*
D03*
X638810D02*
D03*
X664210D02*
D03*
X715010D02*
D03*
X740410D02*
D03*
X765810D02*
D03*
X156210Y914400D02*
D03*
X181610D02*
D03*
X207010D02*
D03*
X232410D02*
D03*
X257810D02*
D03*
X283210D02*
D03*
X308610D02*
D03*
X334010D02*
D03*
X359410D02*
D03*
X384810D02*
D03*
X410210D02*
D03*
X435610D02*
D03*
X461010D02*
D03*
X486410D02*
D03*
X511810D02*
D03*
X537210D02*
D03*
X562610D02*
D03*
X588010D02*
D03*
X613410D02*
D03*
X638810D02*
D03*
X664210D02*
D03*
X715010D02*
D03*
X740410D02*
D03*
X765810D02*
D03*
D23*
X689610Y889000D02*
D03*
Y914400D02*
D03*
D24*
X552450Y678180D02*
D03*
X553720Y637540D02*
D03*
Y582930D02*
D03*
X513080Y678180D02*
D03*
Y635000D02*
D03*
X515620Y581660D02*
D03*
X416560Y676910D02*
D03*
Y632460D02*
D03*
X417830Y581660D02*
D03*
X386080Y675640D02*
D03*
X384810Y632460D02*
D03*
Y580390D02*
D03*
X166370Y575310D02*
D03*
X167640Y632460D02*
D03*
X165100Y673100D02*
D03*
X133350Y631190D02*
D03*
X134620Y575310D02*
D03*
X135890Y674370D02*
D03*
X690880Y581660D02*
D03*
Y621030D02*
D03*
X688937Y674515D02*
D03*
X723900Y580390D02*
D03*
Y622300D02*
D03*
X725170Y675640D02*
D03*
D25*
X787400Y674370D02*
D03*
X786130Y622300D02*
D03*
X791210Y580390D02*
D03*
X756830Y674370D02*
D03*
X758190Y622300D02*
D03*
X760730Y580390D02*
D03*
X200660Y576580D02*
D03*
X198120Y631190D02*
D03*
Y674370D02*
D03*
X236220Y576580D02*
D03*
X238760Y629920D02*
D03*
Y673100D02*
D03*
X313690Y580390D02*
D03*
X312420Y632460D02*
D03*
Y675640D02*
D03*
X353060Y579120D02*
D03*
X350520Y629920D02*
D03*
Y675640D02*
D03*
X585470Y584200D02*
D03*
X586740Y638810D02*
D03*
X585470Y675640D02*
D03*
X621030Y584200D02*
D03*
X619760Y640080D02*
D03*
X617220Y675640D02*
D03*
M02*
