%FSLAX44Y44*%
%MOMM*%
G71*
G01*
G75*
G04 Layer_Physical_Order=1*
G04 Layer_Color=255*
%ADD10R,5.0000X1.5000*%
%ADD11R,3.0000X5.0000*%
%ADD12C,0.2540*%
%ADD13C,1.2700*%
%ADD14C,2.5400*%
%ADD15C,6.3500*%
%ADD16C,5.0800*%
%ADD17C,1.5000*%
%ADD18C,1.2700*%
G36*
X430530Y807320D02*
X420650D01*
Y779780D01*
Y752240D01*
X430530D01*
Y562610D01*
X429260Y561340D01*
X427990Y562610D01*
X296810D01*
X295914Y563510D01*
X297180Y815340D01*
X321840D01*
Y814050D01*
X376920D01*
Y815340D01*
X430530D01*
Y807320D01*
D02*
G37*
G36*
X256540Y560070D02*
X255270Y558800D01*
X254000Y560070D01*
X122820D01*
X121924Y560970D01*
X122886Y752240D01*
X136920D01*
Y778510D01*
X119380D01*
Y781050D01*
X136920D01*
Y807320D01*
X124063D01*
X123167Y808220D01*
X123190Y812800D01*
X161840D01*
Y802740D01*
X188110D01*
Y812780D01*
X190650D01*
Y802740D01*
X216920D01*
Y812800D01*
X256540D01*
Y560070D01*
D02*
G37*
G36*
X803273Y807320D02*
X793750D01*
Y779780D01*
Y752240D01*
X803273D01*
Y565335D01*
X802003Y564065D01*
X800733Y565335D01*
X669553D01*
X668657Y566235D01*
X669923Y818065D01*
X694940D01*
Y814050D01*
X750020D01*
Y818065D01*
X803273D01*
Y807320D01*
D02*
G37*
G36*
X632460Y566420D02*
X631190Y565150D01*
X629920Y566420D01*
X498740D01*
X497845Y567320D01*
X498774Y752240D01*
X510020D01*
Y778510D01*
X492480D01*
Y781050D01*
X510020D01*
Y807320D01*
X499951D01*
X499055Y808220D01*
X499110Y819150D01*
X534940D01*
Y814050D01*
X590020D01*
Y819150D01*
X632460D01*
Y566420D01*
D02*
G37*
%LPC*%
G36*
X766990Y621030D02*
X759460D01*
Y613501D01*
X760511Y613639D01*
X762673Y614535D01*
X764530Y615960D01*
X765955Y617817D01*
X766851Y619979D01*
X766990Y621030D01*
D02*
G37*
G36*
X723900Y631267D02*
X721579Y630961D01*
X719417Y630065D01*
X717560Y628640D01*
X716135Y626783D01*
X715239Y624621D01*
X714933Y622300D01*
X715239Y619979D01*
X716135Y617817D01*
X717560Y615960D01*
X719417Y614535D01*
X721579Y613639D01*
X723900Y613333D01*
X726221Y613639D01*
X728383Y614535D01*
X730240Y615960D01*
X731665Y617817D01*
X732561Y619979D01*
X732867Y622300D01*
X732561Y624621D01*
X731665Y626783D01*
X730240Y628640D01*
X728383Y630065D01*
X726221Y630961D01*
X723900Y631267D01*
D02*
G37*
G36*
X756920Y621030D02*
X749390D01*
X749529Y619979D01*
X750425Y617817D01*
X751850Y615960D01*
X753707Y614535D01*
X755869Y613639D01*
X756920Y613501D01*
Y621030D01*
D02*
G37*
G36*
X784860D02*
X777330D01*
X777469Y619979D01*
X778365Y617817D01*
X779790Y615960D01*
X781647Y614535D01*
X783809Y613639D01*
X784860Y613501D01*
Y621030D01*
D02*
G37*
G36*
X349250Y628650D02*
X341721D01*
X341859Y627599D01*
X342755Y625437D01*
X344180Y623580D01*
X346037Y622155D01*
X348199Y621259D01*
X349250Y621120D01*
Y628650D01*
D02*
G37*
G36*
X359319D02*
X351790D01*
Y621120D01*
X352841Y621259D01*
X355003Y622155D01*
X356860Y623580D01*
X358285Y625437D01*
X359181Y627599D01*
X359319Y628650D01*
D02*
G37*
G36*
X794930Y621030D02*
X787400D01*
Y613501D01*
X788451Y613639D01*
X790613Y614535D01*
X792470Y615960D01*
X793895Y617817D01*
X794791Y619979D01*
X794930Y621030D01*
D02*
G37*
G36*
X238760Y638887D02*
X236439Y638581D01*
X234277Y637685D01*
X232420Y636260D01*
X230995Y634403D01*
X230099Y632241D01*
X229793Y629920D01*
X230099Y627599D01*
X230995Y625437D01*
X232420Y623580D01*
X234277Y622155D01*
X236439Y621259D01*
X238760Y620953D01*
X241081Y621259D01*
X243243Y622155D01*
X245100Y623580D01*
X246525Y625437D01*
X247421Y627599D01*
X247727Y629920D01*
X247421Y632241D01*
X246525Y634403D01*
X245100Y636260D01*
X243243Y637685D01*
X241081Y638581D01*
X238760Y638887D01*
D02*
G37*
G36*
X792480Y589189D02*
Y581660D01*
X800010D01*
X799871Y582711D01*
X798975Y584873D01*
X797550Y586730D01*
X795693Y588155D01*
X793531Y589051D01*
X792480Y589189D01*
D02*
G37*
G36*
X514350Y590460D02*
X513299Y590321D01*
X511137Y589425D01*
X509280Y588000D01*
X507855Y586143D01*
X506959Y583981D01*
X506820Y582930D01*
X514350D01*
Y590460D01*
D02*
G37*
G36*
X762000Y589189D02*
Y581660D01*
X769529D01*
X769391Y582711D01*
X768495Y584873D01*
X767070Y586730D01*
X765213Y588155D01*
X763051Y589051D01*
X762000Y589189D01*
D02*
G37*
G36*
X789940D02*
X788889Y589051D01*
X786727Y588155D01*
X784870Y586730D01*
X783445Y584873D01*
X782549Y582711D01*
X782411Y581660D01*
X789940D01*
Y589189D01*
D02*
G37*
G36*
X554990Y591730D02*
Y584200D01*
X562519D01*
X562381Y585251D01*
X561485Y587413D01*
X560060Y589270D01*
X558203Y590695D01*
X556041Y591591D01*
X554990Y591730D01*
D02*
G37*
G36*
X690880Y629997D02*
X688559Y629691D01*
X686397Y628795D01*
X684540Y627370D01*
X683115Y625513D01*
X682219Y623351D01*
X681913Y621030D01*
X682219Y618709D01*
X683115Y616547D01*
X684540Y614690D01*
X686397Y613265D01*
X688559Y612369D01*
X690880Y612063D01*
X693201Y612369D01*
X695363Y613265D01*
X697220Y614690D01*
X698645Y616547D01*
X699541Y618709D01*
X699847Y621030D01*
X699541Y623351D01*
X698645Y625513D01*
X697220Y627370D01*
X695363Y628795D01*
X693201Y629691D01*
X690880Y629997D01*
D02*
G37*
G36*
X516890Y590460D02*
Y582930D01*
X524420D01*
X524281Y583981D01*
X523385Y586143D01*
X521960Y588000D01*
X520103Y589425D01*
X517941Y590321D01*
X516890Y590460D01*
D02*
G37*
G36*
X552450Y591730D02*
X551399Y591591D01*
X549237Y590695D01*
X547380Y589270D01*
X545955Y587413D01*
X545059Y585251D01*
X544921Y584200D01*
X552450D01*
Y591730D01*
D02*
G37*
G36*
X176439Y631190D02*
X168910D01*
Y623661D01*
X169961Y623799D01*
X172123Y624695D01*
X173980Y626120D01*
X175405Y627977D01*
X176301Y630139D01*
X176439Y631190D01*
D02*
G37*
G36*
X311150D02*
X303620D01*
X303759Y630139D01*
X304655Y627977D01*
X306080Y626120D01*
X307937Y624695D01*
X310099Y623799D01*
X311150Y623661D01*
Y631190D01*
D02*
G37*
G36*
X787400Y631100D02*
Y623570D01*
X794930D01*
X794791Y624621D01*
X793895Y626783D01*
X792470Y628640D01*
X790613Y630065D01*
X788451Y630961D01*
X787400Y631100D01*
D02*
G37*
G36*
X166370Y631190D02*
X158841D01*
X158979Y630139D01*
X159875Y627977D01*
X161300Y626120D01*
X163157Y624695D01*
X165319Y623799D01*
X166370Y623661D01*
Y631190D01*
D02*
G37*
G36*
X521880Y633730D02*
X514350D01*
Y626200D01*
X515401Y626339D01*
X517563Y627235D01*
X519420Y628660D01*
X520845Y630517D01*
X521741Y632679D01*
X521880Y633730D01*
D02*
G37*
G36*
X552450Y636270D02*
X544921D01*
X545059Y635219D01*
X545955Y633057D01*
X547380Y631200D01*
X549237Y629775D01*
X551399Y628879D01*
X552450Y628741D01*
Y636270D01*
D02*
G37*
G36*
X321219Y631190D02*
X313690D01*
Y623661D01*
X314741Y623799D01*
X316903Y624695D01*
X318760Y626120D01*
X320185Y627977D01*
X321081Y630139D01*
X321219Y631190D01*
D02*
G37*
G36*
X511810Y633730D02*
X504281D01*
X504419Y632679D01*
X505315Y630517D01*
X506740Y628660D01*
X508597Y627235D01*
X510759Y626339D01*
X511810Y626200D01*
Y633730D01*
D02*
G37*
G36*
X142149Y629920D02*
X134620D01*
Y622391D01*
X135671Y622529D01*
X137833Y623425D01*
X139690Y624850D01*
X141115Y626707D01*
X142011Y628869D01*
X142149Y629920D01*
D02*
G37*
G36*
X384810Y641427D02*
X382489Y641121D01*
X380327Y640225D01*
X378470Y638800D01*
X377045Y636943D01*
X376149Y634781D01*
X375843Y632460D01*
X376149Y630139D01*
X377045Y627977D01*
X378470Y626120D01*
X380327Y624695D01*
X382489Y623799D01*
X384810Y623493D01*
X387131Y623799D01*
X389293Y624695D01*
X391150Y626120D01*
X392575Y627977D01*
X393471Y630139D01*
X393777Y632460D01*
X393471Y634781D01*
X392575Y636943D01*
X391150Y638800D01*
X389293Y640225D01*
X387131Y641121D01*
X384810Y641427D01*
D02*
G37*
G36*
X198120Y640157D02*
X195799Y639851D01*
X193637Y638955D01*
X191780Y637530D01*
X190355Y635673D01*
X189459Y633511D01*
X189153Y631190D01*
X189459Y628869D01*
X190355Y626707D01*
X191780Y624850D01*
X193637Y623425D01*
X195799Y622529D01*
X198120Y622223D01*
X200441Y622529D01*
X202603Y623425D01*
X204460Y624850D01*
X205885Y626707D01*
X206781Y628869D01*
X207087Y631190D01*
X206781Y633511D01*
X205885Y635673D01*
X204460Y637530D01*
X202603Y638955D01*
X200441Y639851D01*
X198120Y640157D01*
D02*
G37*
G36*
X132080Y629920D02*
X124551D01*
X124689Y628869D01*
X125585Y626707D01*
X127010Y624850D01*
X128867Y623425D01*
X131029Y622529D01*
X132080Y622391D01*
Y629920D01*
D02*
G37*
G36*
X759460Y631100D02*
Y623570D01*
X766990D01*
X766851Y624621D01*
X765955Y626783D01*
X764530Y628640D01*
X762673Y630065D01*
X760511Y630961D01*
X759460Y631100D01*
D02*
G37*
G36*
X784860D02*
X783809Y630961D01*
X781647Y630065D01*
X779790Y628640D01*
X778365Y626783D01*
X777469Y624621D01*
X777330Y623570D01*
X784860D01*
Y631100D01*
D02*
G37*
G36*
X416560Y641427D02*
X414239Y641121D01*
X412077Y640225D01*
X410220Y638800D01*
X408795Y636943D01*
X407899Y634781D01*
X407593Y632460D01*
X407899Y630139D01*
X408795Y627977D01*
X410220Y626120D01*
X412077Y624695D01*
X414239Y623799D01*
X416560Y623493D01*
X418881Y623799D01*
X421043Y624695D01*
X422900Y626120D01*
X424325Y627977D01*
X425221Y630139D01*
X425527Y632460D01*
X425221Y634781D01*
X424325Y636943D01*
X422900Y638800D01*
X421043Y640225D01*
X418881Y641121D01*
X416560Y641427D01*
D02*
G37*
G36*
X756920Y631100D02*
X755869Y630961D01*
X753707Y630065D01*
X751850Y628640D01*
X750425Y626783D01*
X749529Y624621D01*
X749390Y623570D01*
X756920D01*
Y631100D01*
D02*
G37*
G36*
X759460Y589189D02*
X758409Y589051D01*
X756247Y588155D01*
X754390Y586730D01*
X752965Y584873D01*
X752069Y582711D01*
X751930Y581660D01*
X759460D01*
Y589189D01*
D02*
G37*
G36*
X312420Y579120D02*
X304890D01*
X305029Y578069D01*
X305925Y575907D01*
X307350Y574050D01*
X309207Y572625D01*
X311369Y571729D01*
X312420Y571590D01*
Y579120D01*
D02*
G37*
G36*
X322490D02*
X314960D01*
Y571590D01*
X316011Y571729D01*
X318173Y572625D01*
X320030Y574050D01*
X321455Y575907D01*
X322351Y578069D01*
X322490Y579120D01*
D02*
G37*
G36*
X384810Y589357D02*
X382489Y589051D01*
X380327Y588155D01*
X378470Y586730D01*
X377045Y584873D01*
X376149Y582711D01*
X375843Y580390D01*
X376149Y578069D01*
X377045Y575907D01*
X378470Y574050D01*
X380327Y572625D01*
X382489Y571729D01*
X384810Y571423D01*
X387131Y571729D01*
X389293Y572625D01*
X391150Y574050D01*
X392575Y575907D01*
X393471Y578069D01*
X393777Y580390D01*
X393471Y582711D01*
X392575Y584873D01*
X391150Y586730D01*
X389293Y588155D01*
X387131Y589051D01*
X384810Y589357D01*
D02*
G37*
G36*
X723900D02*
X721579Y589051D01*
X719417Y588155D01*
X717560Y586730D01*
X716135Y584873D01*
X715239Y582711D01*
X714933Y580390D01*
X715239Y578069D01*
X716135Y575907D01*
X717560Y574050D01*
X719417Y572625D01*
X721579Y571729D01*
X723900Y571423D01*
X726221Y571729D01*
X728383Y572625D01*
X730240Y574050D01*
X731665Y575907D01*
X732561Y578069D01*
X732867Y580390D01*
X732561Y582711D01*
X731665Y584873D01*
X730240Y586730D01*
X728383Y588155D01*
X726221Y589051D01*
X723900Y589357D01*
D02*
G37*
G36*
X789940Y579120D02*
X782411D01*
X782549Y578069D01*
X783445Y575907D01*
X784870Y574050D01*
X786727Y572625D01*
X788889Y571729D01*
X789940Y571590D01*
Y579120D01*
D02*
G37*
G36*
X800010D02*
X792480D01*
Y571590D01*
X793531Y571729D01*
X795693Y572625D01*
X797550Y574050D01*
X798975Y575907D01*
X799871Y578069D01*
X800010Y579120D01*
D02*
G37*
G36*
X759460D02*
X751930D01*
X752069Y578069D01*
X752965Y575907D01*
X754390Y574050D01*
X756247Y572625D01*
X758409Y571729D01*
X759460Y571590D01*
Y579120D01*
D02*
G37*
G36*
X769529D02*
X762000D01*
Y571590D01*
X763051Y571729D01*
X765213Y572625D01*
X767070Y574050D01*
X768495Y575907D01*
X769391Y578069D01*
X769529Y579120D01*
D02*
G37*
G36*
X165100Y574040D02*
X157570D01*
X157709Y572989D01*
X158605Y570827D01*
X160030Y568970D01*
X161887Y567545D01*
X164049Y566649D01*
X165100Y566511D01*
Y574040D01*
D02*
G37*
G36*
X175170D02*
X167640D01*
Y566511D01*
X168691Y566649D01*
X170853Y567545D01*
X172710Y568970D01*
X174135Y570827D01*
X175031Y572989D01*
X175170Y574040D01*
D02*
G37*
G36*
X133350D02*
X125821D01*
X125959Y572989D01*
X126855Y570827D01*
X128280Y568970D01*
X130137Y567545D01*
X132299Y566649D01*
X133350Y566511D01*
Y574040D01*
D02*
G37*
G36*
X143420D02*
X135890D01*
Y566511D01*
X136941Y566649D01*
X139103Y567545D01*
X140960Y568970D01*
X142385Y570827D01*
X143281Y572989D01*
X143420Y574040D01*
D02*
G37*
G36*
X351790Y577850D02*
X344260D01*
X344399Y576799D01*
X345295Y574637D01*
X346720Y572780D01*
X348577Y571355D01*
X350739Y570459D01*
X351790Y570321D01*
Y577850D01*
D02*
G37*
G36*
X361860D02*
X354330D01*
Y570321D01*
X355381Y570459D01*
X357543Y571355D01*
X359400Y572780D01*
X360825Y574637D01*
X361721Y576799D01*
X361860Y577850D01*
D02*
G37*
G36*
X200660Y585547D02*
X198339Y585241D01*
X196177Y584345D01*
X194320Y582920D01*
X192895Y581063D01*
X191999Y578901D01*
X191693Y576580D01*
X191999Y574259D01*
X192895Y572097D01*
X194320Y570240D01*
X196177Y568815D01*
X198339Y567919D01*
X200660Y567613D01*
X202981Y567919D01*
X205143Y568815D01*
X207000Y570240D01*
X208425Y572097D01*
X209321Y574259D01*
X209627Y576580D01*
X209321Y578901D01*
X208425Y581063D01*
X207000Y582920D01*
X205143Y584345D01*
X202981Y585241D01*
X200660Y585547D01*
D02*
G37*
G36*
X236220D02*
X233899Y585241D01*
X231737Y584345D01*
X229880Y582920D01*
X228455Y581063D01*
X227559Y578901D01*
X227253Y576580D01*
X227559Y574259D01*
X228455Y572097D01*
X229880Y570240D01*
X231737Y568815D01*
X233899Y567919D01*
X236220Y567613D01*
X238541Y567919D01*
X240703Y568815D01*
X242560Y570240D01*
X243985Y572097D01*
X244881Y574259D01*
X245187Y576580D01*
X244881Y578901D01*
X243985Y581063D01*
X242560Y582920D01*
X240703Y584345D01*
X238541Y585241D01*
X236220Y585547D01*
D02*
G37*
G36*
X165100Y584109D02*
X164049Y583971D01*
X161887Y583075D01*
X160030Y581650D01*
X158605Y579793D01*
X157709Y577631D01*
X157570Y576580D01*
X165100D01*
Y584109D01*
D02*
G37*
G36*
X167640D02*
Y576580D01*
X175170D01*
X175031Y577631D01*
X174135Y579793D01*
X172710Y581650D01*
X170853Y583075D01*
X168691Y583971D01*
X167640Y584109D01*
D02*
G37*
G36*
X133350D02*
X132299Y583971D01*
X130137Y583075D01*
X128280Y581650D01*
X126855Y579793D01*
X125959Y577631D01*
X125821Y576580D01*
X133350D01*
Y584109D01*
D02*
G37*
G36*
X135890D02*
Y576580D01*
X143420D01*
X143281Y577631D01*
X142385Y579793D01*
X140960Y581650D01*
X139103Y583075D01*
X136941Y583971D01*
X135890Y584109D01*
D02*
G37*
G36*
X312420Y589189D02*
X311369Y589051D01*
X309207Y588155D01*
X307350Y586730D01*
X305925Y584873D01*
X305029Y582711D01*
X304890Y581660D01*
X312420D01*
Y589189D01*
D02*
G37*
G36*
X314960D02*
Y581660D01*
X322490D01*
X322351Y582711D01*
X321455Y584873D01*
X320030Y586730D01*
X318173Y588155D01*
X316011Y589051D01*
X314960Y589189D01*
D02*
G37*
G36*
X351790Y587920D02*
X350739Y587781D01*
X348577Y586885D01*
X346720Y585460D01*
X345295Y583603D01*
X344399Y581441D01*
X344260Y580390D01*
X351790D01*
Y587920D01*
D02*
G37*
G36*
X354330D02*
Y580390D01*
X361860D01*
X361721Y581441D01*
X360825Y583603D01*
X359400Y585460D01*
X357543Y586885D01*
X355381Y587781D01*
X354330Y587920D01*
D02*
G37*
G36*
X514350Y580390D02*
X506820D01*
X506959Y579339D01*
X507855Y577177D01*
X509280Y575320D01*
X511137Y573895D01*
X513299Y572999D01*
X514350Y572860D01*
Y580390D01*
D02*
G37*
G36*
X524420D02*
X516890D01*
Y572860D01*
X517941Y572999D01*
X520103Y573895D01*
X521960Y575320D01*
X523385Y577177D01*
X524281Y579339D01*
X524420Y580390D01*
D02*
G37*
G36*
X417830Y590627D02*
X415509Y590321D01*
X413347Y589425D01*
X411490Y588000D01*
X410065Y586143D01*
X409169Y583981D01*
X408863Y581660D01*
X409169Y579339D01*
X410065Y577177D01*
X411490Y575320D01*
X413347Y573895D01*
X415509Y572999D01*
X417830Y572693D01*
X420151Y572999D01*
X422313Y573895D01*
X424170Y575320D01*
X425595Y577177D01*
X426491Y579339D01*
X426797Y581660D01*
X426491Y583981D01*
X425595Y586143D01*
X424170Y588000D01*
X422313Y589425D01*
X420151Y590321D01*
X417830Y590627D01*
D02*
G37*
G36*
X690880D02*
X688559Y590321D01*
X686397Y589425D01*
X684540Y588000D01*
X683115Y586143D01*
X682219Y583981D01*
X681913Y581660D01*
X682219Y579339D01*
X683115Y577177D01*
X684540Y575320D01*
X686397Y573895D01*
X688559Y572999D01*
X690880Y572693D01*
X693201Y572999D01*
X695363Y573895D01*
X697220Y575320D01*
X698645Y577177D01*
X699541Y579339D01*
X699847Y581660D01*
X699541Y583981D01*
X698645Y586143D01*
X697220Y588000D01*
X695363Y589425D01*
X693201Y590321D01*
X690880Y590627D01*
D02*
G37*
G36*
X585470Y593167D02*
X583149Y592861D01*
X580987Y591965D01*
X579130Y590540D01*
X577705Y588683D01*
X576809Y586521D01*
X576503Y584200D01*
X576809Y581879D01*
X577705Y579717D01*
X579130Y577860D01*
X580987Y576435D01*
X583149Y575539D01*
X585470Y575233D01*
X587791Y575539D01*
X589953Y576435D01*
X591810Y577860D01*
X593235Y579717D01*
X594131Y581879D01*
X594437Y584200D01*
X594131Y586521D01*
X593235Y588683D01*
X591810Y590540D01*
X589953Y591965D01*
X587791Y592861D01*
X585470Y593167D01*
D02*
G37*
G36*
X621030D02*
X618709Y592861D01*
X616547Y591965D01*
X614690Y590540D01*
X613265Y588683D01*
X612369Y586521D01*
X612063Y584200D01*
X612369Y581879D01*
X613265Y579717D01*
X614690Y577860D01*
X616547Y576435D01*
X618709Y575539D01*
X621030Y575233D01*
X623351Y575539D01*
X625513Y576435D01*
X627370Y577860D01*
X628795Y579717D01*
X629691Y581879D01*
X629997Y584200D01*
X629691Y586521D01*
X628795Y588683D01*
X627370Y590540D01*
X625513Y591965D01*
X623351Y592861D01*
X621030Y593167D01*
D02*
G37*
G36*
X552450Y581660D02*
X544921D01*
X545059Y580609D01*
X545955Y578447D01*
X547380Y576590D01*
X549237Y575165D01*
X551399Y574269D01*
X552450Y574131D01*
Y581660D01*
D02*
G37*
G36*
X562519D02*
X554990D01*
Y574131D01*
X556041Y574269D01*
X558203Y575165D01*
X560060Y576590D01*
X561485Y578447D01*
X562381Y580609D01*
X562519Y581660D01*
D02*
G37*
G36*
X755559Y683169D02*
X754509Y683031D01*
X752346Y682135D01*
X750489Y680710D01*
X749064Y678853D01*
X748168Y676691D01*
X748030Y675640D01*
X755559D01*
Y683169D01*
D02*
G37*
G36*
X758100D02*
Y675640D01*
X765629D01*
X765491Y676691D01*
X764595Y678853D01*
X763170Y680710D01*
X761313Y682135D01*
X759150Y683031D01*
X758100Y683169D01*
D02*
G37*
G36*
X134620D02*
X133569Y683031D01*
X131407Y682135D01*
X129550Y680710D01*
X128125Y678853D01*
X127229Y676691D01*
X127091Y675640D01*
X134620D01*
Y683169D01*
D02*
G37*
G36*
X137160D02*
Y675640D01*
X144690D01*
X144551Y676691D01*
X143655Y678853D01*
X142230Y680710D01*
X140373Y682135D01*
X138211Y683031D01*
X137160Y683169D01*
D02*
G37*
G36*
X311150Y684439D02*
X310099Y684301D01*
X307937Y683405D01*
X306080Y681980D01*
X304655Y680123D01*
X303759Y677961D01*
X303620Y676910D01*
X311150D01*
Y684439D01*
D02*
G37*
G36*
X313690D02*
Y676910D01*
X321219D01*
X321081Y677961D01*
X320185Y680123D01*
X318760Y681980D01*
X316903Y683405D01*
X314741Y684301D01*
X313690Y684439D01*
D02*
G37*
G36*
X786130Y683169D02*
X785079Y683031D01*
X782917Y682135D01*
X781060Y680710D01*
X779635Y678853D01*
X778739Y676691D01*
X778600Y675640D01*
X786130D01*
Y683169D01*
D02*
G37*
G36*
X788670D02*
Y675640D01*
X796199D01*
X796061Y676691D01*
X795165Y678853D01*
X793740Y680710D01*
X791883Y682135D01*
X789721Y683031D01*
X788670Y683169D01*
D02*
G37*
G36*
X511810Y676910D02*
X504281D01*
X504419Y675859D01*
X505315Y673697D01*
X506740Y671840D01*
X508597Y670415D01*
X510759Y669519D01*
X511810Y669380D01*
Y676910D01*
D02*
G37*
G36*
X521880D02*
X514350D01*
Y669380D01*
X515401Y669519D01*
X517563Y670415D01*
X519420Y671840D01*
X520845Y673697D01*
X521741Y675859D01*
X521880Y676910D01*
D02*
G37*
G36*
X359319Y674370D02*
X351790D01*
Y666841D01*
X352841Y666979D01*
X355003Y667875D01*
X356860Y669300D01*
X358285Y671157D01*
X359181Y673319D01*
X359319Y674370D01*
D02*
G37*
G36*
X416560Y685877D02*
X414239Y685571D01*
X412077Y684675D01*
X410220Y683250D01*
X408795Y681393D01*
X407899Y679231D01*
X407593Y676910D01*
X407899Y674589D01*
X408795Y672427D01*
X410220Y670570D01*
X412077Y669145D01*
X414239Y668249D01*
X416560Y667943D01*
X418881Y668249D01*
X421043Y669145D01*
X422900Y670570D01*
X424325Y672427D01*
X425221Y674589D01*
X425527Y676910D01*
X425221Y679231D01*
X424325Y681393D01*
X422900Y683250D01*
X421043Y684675D01*
X418881Y685571D01*
X416560Y685877D01*
D02*
G37*
G36*
X163830Y681899D02*
X162779Y681761D01*
X160617Y680865D01*
X158760Y679440D01*
X157335Y677583D01*
X156439Y675421D01*
X156300Y674370D01*
X163830D01*
Y681899D01*
D02*
G37*
G36*
X166370D02*
Y674370D01*
X173899D01*
X173761Y675421D01*
X172865Y677583D01*
X171440Y679440D01*
X169583Y680865D01*
X167421Y681761D01*
X166370Y681899D01*
D02*
G37*
G36*
X551180Y676910D02*
X543651D01*
X543789Y675859D01*
X544685Y673697D01*
X546110Y671840D01*
X547967Y670415D01*
X550129Y669519D01*
X551180Y669380D01*
Y676910D01*
D02*
G37*
G36*
X561250D02*
X553720D01*
Y669380D01*
X554771Y669519D01*
X556933Y670415D01*
X558790Y671840D01*
X560215Y673697D01*
X561111Y675859D01*
X561250Y676910D01*
D02*
G37*
G36*
X348110Y811510D02*
X321840D01*
Y802740D01*
X348110D01*
Y811510D01*
D02*
G37*
G36*
X376920D02*
X350650D01*
Y802740D01*
X376920D01*
Y811510D01*
D02*
G37*
G36*
X418110Y807320D02*
X401840D01*
Y781050D01*
X418110D01*
Y807320D01*
D02*
G37*
G36*
X791210D02*
X774940D01*
Y781050D01*
X791210D01*
Y807320D01*
D02*
G37*
G36*
X721210Y811510D02*
X694940D01*
Y802740D01*
X721210D01*
Y811510D01*
D02*
G37*
G36*
X750020D02*
X723750D01*
Y802740D01*
X750020D01*
Y811510D01*
D02*
G37*
G36*
X561210D02*
X534940D01*
Y802740D01*
X561210D01*
Y811510D01*
D02*
G37*
G36*
X590020D02*
X563750D01*
Y802740D01*
X590020D01*
Y811510D01*
D02*
G37*
G36*
X511810Y686980D02*
X510759Y686841D01*
X508597Y685945D01*
X506740Y684520D01*
X505315Y682663D01*
X504419Y680501D01*
X504281Y679450D01*
X511810D01*
Y686980D01*
D02*
G37*
G36*
X514350D02*
Y679450D01*
X521880D01*
X521741Y680501D01*
X520845Y682663D01*
X519420Y684520D01*
X517563Y685945D01*
X515401Y686841D01*
X514350Y686980D01*
D02*
G37*
G36*
X349250Y684439D02*
X348199Y684301D01*
X346037Y683405D01*
X344180Y681980D01*
X342755Y680123D01*
X341859Y677961D01*
X341721Y676910D01*
X349250D01*
Y684439D01*
D02*
G37*
G36*
X351790D02*
Y676910D01*
X359319D01*
X359181Y677961D01*
X358285Y680123D01*
X356860Y681980D01*
X355003Y683405D01*
X352841Y684301D01*
X351790Y684439D01*
D02*
G37*
G36*
X418110Y778510D02*
X401840D01*
Y752240D01*
X418110D01*
Y778510D01*
D02*
G37*
G36*
X791210D02*
X774940D01*
Y752240D01*
X791210D01*
Y778510D01*
D02*
G37*
G36*
X551180Y686980D02*
X550129Y686841D01*
X547967Y685945D01*
X546110Y684520D01*
X544685Y682663D01*
X543789Y680501D01*
X543651Y679450D01*
X551180D01*
Y686980D01*
D02*
G37*
G36*
X553720D02*
Y679450D01*
X561250D01*
X561111Y680501D01*
X560215Y682663D01*
X558790Y684520D01*
X556933Y685945D01*
X554771Y686841D01*
X553720Y686980D01*
D02*
G37*
G36*
X349250Y674370D02*
X341721D01*
X341859Y673319D01*
X342755Y671157D01*
X344180Y669300D01*
X346037Y667875D01*
X348199Y666979D01*
X349250Y666841D01*
Y674370D01*
D02*
G37*
G36*
X313690Y641260D02*
Y633730D01*
X321219D01*
X321081Y634781D01*
X320185Y636943D01*
X318760Y638800D01*
X316903Y640225D01*
X314741Y641121D01*
X313690Y641260D01*
D02*
G37*
G36*
X511810Y643800D02*
X510759Y643661D01*
X508597Y642765D01*
X506740Y641340D01*
X505315Y639483D01*
X504419Y637321D01*
X504281Y636270D01*
X511810D01*
Y643800D01*
D02*
G37*
G36*
X168910Y641260D02*
Y633730D01*
X176439D01*
X176301Y634781D01*
X175405Y636943D01*
X173980Y638800D01*
X172123Y640225D01*
X169961Y641121D01*
X168910Y641260D01*
D02*
G37*
G36*
X311150D02*
X310099Y641121D01*
X307937Y640225D01*
X306080Y638800D01*
X304655Y636943D01*
X303759Y634781D01*
X303620Y633730D01*
X311150D01*
Y641260D01*
D02*
G37*
G36*
X554990Y646339D02*
Y638810D01*
X562519D01*
X562381Y639861D01*
X561485Y642023D01*
X560060Y643880D01*
X558203Y645305D01*
X556041Y646201D01*
X554990Y646339D01*
D02*
G37*
G36*
X238760Y682067D02*
X236439Y681761D01*
X234277Y680865D01*
X232420Y679440D01*
X230995Y677583D01*
X230099Y675421D01*
X229793Y673100D01*
X230099Y670779D01*
X230995Y668617D01*
X232420Y666760D01*
X234277Y665335D01*
X236439Y664439D01*
X238760Y664133D01*
X241081Y664439D01*
X243243Y665335D01*
X245100Y666760D01*
X246525Y668617D01*
X247421Y670779D01*
X247727Y673100D01*
X247421Y675421D01*
X246525Y677583D01*
X245100Y679440D01*
X243243Y680865D01*
X241081Y681761D01*
X238760Y682067D01*
D02*
G37*
G36*
X514350Y643800D02*
Y636270D01*
X521880D01*
X521741Y637321D01*
X520845Y639483D01*
X519420Y641340D01*
X517563Y642765D01*
X515401Y643661D01*
X514350Y643800D01*
D02*
G37*
G36*
X552450Y646339D02*
X551399Y646201D01*
X549237Y645305D01*
X547380Y643880D01*
X545955Y642023D01*
X545059Y639861D01*
X544921Y638810D01*
X552450D01*
Y646339D01*
D02*
G37*
G36*
X619760Y649047D02*
X617439Y648741D01*
X615277Y647845D01*
X613420Y646420D01*
X611995Y644563D01*
X611099Y642401D01*
X610793Y640080D01*
X611099Y637759D01*
X611995Y635597D01*
X613420Y633740D01*
X615277Y632315D01*
X617439Y631419D01*
X619760Y631113D01*
X622081Y631419D01*
X624243Y632315D01*
X626100Y633740D01*
X627525Y635597D01*
X628421Y637759D01*
X628727Y640080D01*
X628421Y642401D01*
X627525Y644563D01*
X626100Y646420D01*
X624243Y647845D01*
X622081Y648741D01*
X619760Y649047D01*
D02*
G37*
G36*
X349250Y638719D02*
X348199Y638581D01*
X346037Y637685D01*
X344180Y636260D01*
X342755Y634403D01*
X341859Y632241D01*
X341721Y631190D01*
X349250D01*
Y638719D01*
D02*
G37*
G36*
X562519Y636270D02*
X554990D01*
Y628741D01*
X556041Y628879D01*
X558203Y629775D01*
X560060Y631200D01*
X561485Y633057D01*
X562381Y635219D01*
X562519Y636270D01*
D02*
G37*
G36*
X586740Y647777D02*
X584419Y647471D01*
X582257Y646575D01*
X580400Y645150D01*
X578975Y643293D01*
X578079Y641131D01*
X577773Y638810D01*
X578079Y636489D01*
X578975Y634327D01*
X580400Y632470D01*
X582257Y631045D01*
X584419Y630149D01*
X586740Y629843D01*
X589061Y630149D01*
X591223Y631045D01*
X593080Y632470D01*
X594505Y634327D01*
X595401Y636489D01*
X595707Y638810D01*
X595401Y641131D01*
X594505Y643293D01*
X593080Y645150D01*
X591223Y646575D01*
X589061Y647471D01*
X586740Y647777D01*
D02*
G37*
G36*
X134620Y639990D02*
Y632460D01*
X142149D01*
X142011Y633511D01*
X141115Y635673D01*
X139690Y637530D01*
X137833Y638955D01*
X135671Y639851D01*
X134620Y639990D01*
D02*
G37*
G36*
X166370Y641260D02*
X165319Y641121D01*
X163157Y640225D01*
X161300Y638800D01*
X159875Y636943D01*
X158979Y634781D01*
X158841Y633730D01*
X166370D01*
Y641260D01*
D02*
G37*
G36*
X351790Y638719D02*
Y631190D01*
X359319D01*
X359181Y632241D01*
X358285Y634403D01*
X356860Y636260D01*
X355003Y637685D01*
X352841Y638581D01*
X351790Y638719D01*
D02*
G37*
G36*
X132080Y639990D02*
X131029Y639851D01*
X128867Y638955D01*
X127010Y637530D01*
X125585Y635673D01*
X124689Y633511D01*
X124551Y632460D01*
X132080D01*
Y639990D01*
D02*
G37*
G36*
X386080Y684607D02*
X383759Y684301D01*
X381597Y683405D01*
X379740Y681980D01*
X378315Y680123D01*
X377419Y677961D01*
X377113Y675640D01*
X377419Y673319D01*
X378315Y671157D01*
X379740Y669300D01*
X381597Y667875D01*
X383759Y666979D01*
X386080Y666673D01*
X388401Y666979D01*
X390563Y667875D01*
X392420Y669300D01*
X393845Y671157D01*
X394741Y673319D01*
X395047Y675640D01*
X394741Y677961D01*
X393845Y680123D01*
X392420Y681980D01*
X390563Y683405D01*
X388401Y684301D01*
X386080Y684607D01*
D02*
G37*
G36*
X585470D02*
X583149Y684301D01*
X580987Y683405D01*
X579130Y681980D01*
X577705Y680123D01*
X576809Y677961D01*
X576503Y675640D01*
X576809Y673319D01*
X577705Y671157D01*
X579130Y669300D01*
X580987Y667875D01*
X583149Y666979D01*
X585470Y666673D01*
X587791Y666979D01*
X589953Y667875D01*
X591810Y669300D01*
X593235Y671157D01*
X594131Y673319D01*
X594437Y675640D01*
X594131Y677961D01*
X593235Y680123D01*
X591810Y681980D01*
X589953Y683405D01*
X587791Y684301D01*
X585470Y684607D01*
D02*
G37*
G36*
X786130Y673100D02*
X778600D01*
X778739Y672049D01*
X779635Y669887D01*
X781060Y668030D01*
X782917Y666605D01*
X785079Y665709D01*
X786130Y665571D01*
Y673100D01*
D02*
G37*
G36*
X796199D02*
X788670D01*
Y665571D01*
X789721Y665709D01*
X791883Y666605D01*
X793740Y668030D01*
X795165Y669887D01*
X796061Y672049D01*
X796199Y673100D01*
D02*
G37*
G36*
X311150Y674370D02*
X303620D01*
X303759Y673319D01*
X304655Y671157D01*
X306080Y669300D01*
X307937Y667875D01*
X310099Y666979D01*
X311150Y666841D01*
Y674370D01*
D02*
G37*
G36*
X321219D02*
X313690D01*
Y666841D01*
X314741Y666979D01*
X316903Y667875D01*
X318760Y669300D01*
X320185Y671157D01*
X321081Y673319D01*
X321219Y674370D01*
D02*
G37*
G36*
X617220Y684607D02*
X614899Y684301D01*
X612737Y683405D01*
X610880Y681980D01*
X609455Y680123D01*
X608559Y677961D01*
X608253Y675640D01*
X608559Y673319D01*
X609455Y671157D01*
X610880Y669300D01*
X612737Y667875D01*
X614899Y666979D01*
X617220Y666673D01*
X619541Y666979D01*
X621703Y667875D01*
X623560Y669300D01*
X624985Y671157D01*
X625881Y673319D01*
X626187Y675640D01*
X625881Y677961D01*
X624985Y680123D01*
X623560Y681980D01*
X621703Y683405D01*
X619541Y684301D01*
X617220Y684607D01*
D02*
G37*
G36*
X725170D02*
X722849Y684301D01*
X720687Y683405D01*
X718830Y681980D01*
X717405Y680123D01*
X716509Y677961D01*
X716203Y675640D01*
X716509Y673319D01*
X717405Y671157D01*
X718830Y669300D01*
X720687Y667875D01*
X722849Y666979D01*
X725170Y666673D01*
X727491Y666979D01*
X729653Y667875D01*
X731510Y669300D01*
X732935Y671157D01*
X733831Y673319D01*
X734137Y675640D01*
X733831Y677961D01*
X732935Y680123D01*
X731510Y681980D01*
X729653Y683405D01*
X727491Y684301D01*
X725170Y684607D01*
D02*
G37*
G36*
X198120Y683337D02*
X195799Y683031D01*
X193637Y682135D01*
X191780Y680710D01*
X190355Y678853D01*
X189459Y676691D01*
X189153Y674370D01*
X189459Y672049D01*
X190355Y669887D01*
X191780Y668030D01*
X193637Y666605D01*
X195799Y665709D01*
X198120Y665403D01*
X200441Y665709D01*
X202603Y666605D01*
X204460Y668030D01*
X205885Y669887D01*
X206781Y672049D01*
X207087Y674370D01*
X206781Y676691D01*
X205885Y678853D01*
X204460Y680710D01*
X202603Y682135D01*
X200441Y683031D01*
X198120Y683337D01*
D02*
G37*
G36*
X688937Y683482D02*
X686616Y683177D01*
X684453Y682281D01*
X682596Y680856D01*
X681171Y678999D01*
X680275Y676836D01*
X679970Y674515D01*
X680275Y672195D01*
X681171Y670032D01*
X682596Y668175D01*
X684453Y666750D01*
X686616Y665854D01*
X688937Y665549D01*
X691257Y665854D01*
X693420Y666750D01*
X695277Y668175D01*
X696702Y670032D01*
X697598Y672195D01*
X697903Y674515D01*
X697598Y676836D01*
X696702Y678999D01*
X695277Y680856D01*
X693420Y682281D01*
X691257Y683177D01*
X688937Y683482D01*
D02*
G37*
G36*
X163830Y671830D02*
X156300D01*
X156439Y670779D01*
X157335Y668617D01*
X158760Y666760D01*
X160617Y665335D01*
X162779Y664439D01*
X163830Y664301D01*
Y671830D01*
D02*
G37*
G36*
X173899D02*
X166370D01*
Y664301D01*
X167421Y664439D01*
X169583Y665335D01*
X171440Y666760D01*
X172865Y668617D01*
X173761Y670779D01*
X173899Y671830D01*
D02*
G37*
G36*
X755559Y673100D02*
X748030D01*
X748168Y672049D01*
X749064Y669887D01*
X750489Y668030D01*
X752346Y666605D01*
X754509Y665709D01*
X755559Y665571D01*
Y673100D01*
D02*
G37*
G36*
X765629D02*
X758100D01*
Y665571D01*
X759150Y665709D01*
X761313Y666605D01*
X763170Y668030D01*
X764595Y669887D01*
X765491Y672049D01*
X765629Y673100D01*
D02*
G37*
G36*
X134620D02*
X127091D01*
X127229Y672049D01*
X128125Y669887D01*
X129550Y668030D01*
X131407Y666605D01*
X133569Y665709D01*
X134620Y665571D01*
Y673100D01*
D02*
G37*
G36*
X144690D02*
X137160D01*
Y665571D01*
X138211Y665709D01*
X140373Y666605D01*
X142230Y668030D01*
X143655Y669887D01*
X144551Y672049D01*
X144690Y673100D01*
D02*
G37*
%LPD*%
D10*
X349380Y812780D02*
D03*
X189380D02*
D03*
X722480D02*
D03*
X562480D02*
D03*
D11*
X419380Y779780D02*
D03*
X119380D02*
D03*
X792480D02*
D03*
X492480D02*
D03*
D12*
X532525Y925710D02*
X798950D01*
X521215Y914400D02*
X532525Y925710D01*
X798950D02*
X816610Y908050D01*
X80010D02*
X97670Y925710D01*
X160895D01*
X167520Y912495D02*
Y919085D01*
Y912495D02*
X176925Y903090D01*
X192920Y909715D02*
Y916305D01*
X202325Y925710D01*
X269120Y912495D02*
Y919085D01*
Y912495D02*
X278525Y903090D01*
X294520Y909715D02*
Y916305D01*
X303925Y925710D01*
X160895D02*
X167520Y919085D01*
X176925Y903090D02*
X186295D01*
X192920Y909715D01*
X202325Y925710D02*
X262495D01*
X269120Y919085D01*
X278525Y903090D02*
X287895D01*
X294520Y909715D01*
X303925Y925710D02*
X465695D01*
X477005Y914400D01*
X486410D01*
X511810D02*
X521215D01*
X867970Y583490D02*
Y599695D01*
X38810Y53900D02*
X41910Y50800D01*
D13*
X511810Y889000D02*
Y914400D01*
X486410Y889000D02*
Y914400D01*
Y863600D02*
Y889000D01*
D14*
X867970Y250220D02*
Y302970D01*
X792480Y378460D02*
X867970Y302970D01*
X792480Y378460D02*
Y508000D01*
X867970Y583490D01*
X816610Y908050D02*
X870510Y854150D01*
X867970Y599695D02*
X870510Y854150D01*
X842010Y210290D02*
X867970Y250220D01*
X842010Y50800D02*
Y210290D01*
X41910Y50800D02*
X842010D01*
X38810Y53900D02*
Y238790D01*
Y588265D01*
Y866850D02*
X80010Y908050D01*
X38810Y588265D02*
Y866850D01*
D15*
X80010Y908050D02*
D03*
X842010Y50800D02*
D03*
X41910D02*
D03*
X816610Y908050D02*
D03*
D16*
X38810Y238790D02*
D03*
Y588265D02*
D03*
X867970Y250220D02*
D03*
Y599695D02*
D03*
D17*
X130810Y863600D02*
D03*
Y838200D02*
D03*
X156210D02*
D03*
X181610D02*
D03*
X207010D02*
D03*
X232410D02*
D03*
X257810D02*
D03*
X283210D02*
D03*
X308610D02*
D03*
X334010D02*
D03*
X359410D02*
D03*
X384810D02*
D03*
X410210D02*
D03*
X435610D02*
D03*
X461010D02*
D03*
X486410D02*
D03*
X511810D02*
D03*
X537210D02*
D03*
X562610D02*
D03*
X588010D02*
D03*
X613410D02*
D03*
X638810D02*
D03*
X664210D02*
D03*
X689610D02*
D03*
X715010D02*
D03*
X740410D02*
D03*
X765810D02*
D03*
X156210Y863600D02*
D03*
X181610D02*
D03*
X207010D02*
D03*
X232410D02*
D03*
X257810D02*
D03*
X283210D02*
D03*
X308610D02*
D03*
X334010D02*
D03*
X359410D02*
D03*
X384810D02*
D03*
X410210D02*
D03*
X435610D02*
D03*
X461010D02*
D03*
X486410D02*
D03*
X511810D02*
D03*
X537210D02*
D03*
X562610D02*
D03*
X588010D02*
D03*
X613410D02*
D03*
X638810D02*
D03*
X664210D02*
D03*
X689610D02*
D03*
X715010D02*
D03*
X740410D02*
D03*
X765810D02*
D03*
X130810Y914400D02*
D03*
Y889000D02*
D03*
X156210D02*
D03*
X181610D02*
D03*
X207010D02*
D03*
X232410D02*
D03*
X257810D02*
D03*
X283210D02*
D03*
X308610D02*
D03*
X334010D02*
D03*
X359410D02*
D03*
X384810D02*
D03*
X410210D02*
D03*
X435610D02*
D03*
X461010D02*
D03*
X486410D02*
D03*
X511810D02*
D03*
X537210D02*
D03*
X562610D02*
D03*
X588010D02*
D03*
X613410D02*
D03*
X638810D02*
D03*
X664210D02*
D03*
X689610D02*
D03*
X715010D02*
D03*
X740410D02*
D03*
X765810D02*
D03*
X156210Y914400D02*
D03*
X181610D02*
D03*
X207010D02*
D03*
X232410D02*
D03*
X257810D02*
D03*
X283210D02*
D03*
X308610D02*
D03*
X334010D02*
D03*
X359410D02*
D03*
X384810D02*
D03*
X410210D02*
D03*
X435610D02*
D03*
X461010D02*
D03*
X486410D02*
D03*
X511810D02*
D03*
X537210D02*
D03*
X562610D02*
D03*
X588010D02*
D03*
X613410D02*
D03*
X638810D02*
D03*
X664210D02*
D03*
X689610D02*
D03*
X715010D02*
D03*
X740410D02*
D03*
X765810D02*
D03*
D18*
X787400Y674370D02*
D03*
X786130Y622300D02*
D03*
X791210Y580390D02*
D03*
X756830Y674370D02*
D03*
X758190Y622300D02*
D03*
X760730Y580390D02*
D03*
X552450Y678180D02*
D03*
X553720Y637540D02*
D03*
Y582930D02*
D03*
X513080Y678180D02*
D03*
Y635000D02*
D03*
X515620Y581660D02*
D03*
X416560Y676910D02*
D03*
Y632460D02*
D03*
X417830Y581660D02*
D03*
X386080Y675640D02*
D03*
X384810Y632460D02*
D03*
Y580390D02*
D03*
X166370Y575310D02*
D03*
X167640Y632460D02*
D03*
X165100Y673100D02*
D03*
X133350Y631190D02*
D03*
X134620Y575310D02*
D03*
X135890Y674370D02*
D03*
X200660Y576580D02*
D03*
X198120Y631190D02*
D03*
Y674370D02*
D03*
X236220Y576580D02*
D03*
X238760Y629920D02*
D03*
Y673100D02*
D03*
X313690Y580390D02*
D03*
X312420Y632460D02*
D03*
Y675640D02*
D03*
X353060Y579120D02*
D03*
X350520Y629920D02*
D03*
Y675640D02*
D03*
X585470Y584200D02*
D03*
X586740Y638810D02*
D03*
X585470Y675640D02*
D03*
X621030Y584200D02*
D03*
X619760Y640080D02*
D03*
X617220Y675640D02*
D03*
X690880Y581660D02*
D03*
Y621030D02*
D03*
X688937Y674515D02*
D03*
X723900Y580390D02*
D03*
Y622300D02*
D03*
X725170Y675640D02*
D03*
M02*
