%FSLAX44Y44*%
%MOMM*%
G71*
G01*
G75*
G04 Layer_Physical_Order=2*
G04 Layer_Color=16711680*
%ADD10R,2.5000X6.0000*%
%ADD11R,6.9850X4.0000*%
%ADD12C,1.0000*%
%ADD13C,4.0000*%
%ADD14C,1.2700*%
%ADD15R,1.0200X3.8000*%
%ADD16R,1.2192X0.8128*%
%ADD17R,0.3556X0.7620*%
%ADD18R,0.7620X0.3556*%
%ADD19R,2.7940X2.7940*%
%ADD20C,0.2540*%
G36*
X810000Y3091833D02*
X808852Y3091290D01*
X807583Y3092332D01*
X803667Y3094424D01*
X799419Y3095713D01*
X796270Y3096023D01*
Y3073499D01*
Y3050975D01*
X799419Y3051285D01*
X803667Y3052574D01*
X807583Y3054667D01*
X808852Y3055709D01*
X810000Y3055166D01*
Y2286333D01*
X808852Y2285790D01*
X807583Y2286831D01*
X803667Y2288924D01*
X799419Y2290213D01*
X796270Y2290523D01*
Y2267999D01*
Y2245475D01*
X799419Y2245785D01*
X803667Y2247074D01*
X807583Y2249167D01*
X808852Y2250208D01*
X810000Y2249665D01*
Y1413333D01*
X808852Y1412790D01*
X807583Y1413831D01*
X803667Y1415924D01*
X799419Y1417213D01*
X796270Y1417523D01*
Y1394999D01*
Y1372475D01*
X799419Y1372785D01*
X803667Y1374074D01*
X807583Y1376167D01*
X808852Y1377208D01*
X810000Y1376665D01*
Y118333D01*
X808852Y117790D01*
X807583Y118831D01*
X803667Y120924D01*
X799419Y122213D01*
X796270Y122523D01*
Y99999D01*
Y77475D01*
X799419Y77785D01*
X803667Y79074D01*
X807583Y81167D01*
X808852Y82208D01*
X810000Y81665D01*
Y10000D01*
X10000D01*
Y81665D01*
X11148Y82208D01*
X12417Y81167D01*
X16333Y79074D01*
X20581Y77785D01*
X23730Y77475D01*
Y99999D01*
Y122523D01*
X20581Y122213D01*
X16333Y120924D01*
X12417Y118831D01*
X11148Y117790D01*
X10000Y118333D01*
Y1376665D01*
X11148Y1377208D01*
X12417Y1376167D01*
X16333Y1374074D01*
X20581Y1372785D01*
X23730Y1372475D01*
Y1394999D01*
Y1417523D01*
X20581Y1417213D01*
X16333Y1415924D01*
X12417Y1413831D01*
X11148Y1412790D01*
X10000Y1413333D01*
Y2249665D01*
X11148Y2250208D01*
X12417Y2249167D01*
X16333Y2247074D01*
X20581Y2245785D01*
X23730Y2245475D01*
Y2267999D01*
Y2290523D01*
X20581Y2290213D01*
X16333Y2288924D01*
X12417Y2286831D01*
X11148Y2285790D01*
X10000Y2286333D01*
Y3055166D01*
X11148Y3055709D01*
X12417Y3054667D01*
X16333Y3052574D01*
X20581Y3051285D01*
X23730Y3050975D01*
Y3073499D01*
Y3096023D01*
X20581Y3095713D01*
X16333Y3094424D01*
X12417Y3092332D01*
X11148Y3091290D01*
X10000Y3091833D01*
Y3190000D01*
X810000D01*
Y3091833D01*
D02*
G37*
%LPC*%
G36*
X793730Y1393729D02*
X772476D01*
X772786Y1390580D01*
X774075Y1386332D01*
X776168Y1382416D01*
X778985Y1378984D01*
X782417Y1376167D01*
X786333Y1374074D01*
X790581Y1372785D01*
X793730Y1372475D01*
Y1393729D01*
D02*
G37*
G36*
X47524D02*
X26270D01*
Y1372475D01*
X29419Y1372785D01*
X33667Y1374074D01*
X37583Y1376167D01*
X41015Y1378984D01*
X43832Y1382416D01*
X45925Y1386332D01*
X47214Y1390580D01*
X47524Y1393729D01*
D02*
G37*
G36*
X410106Y1511190D02*
X362757D01*
X361270Y1510894D01*
X360010Y1510052D01*
X287347Y1437389D01*
X286505Y1436129D01*
X286209Y1434642D01*
Y1430703D01*
X281270Y1425764D01*
Y1419000D01*
X280000D01*
Y1417730D01*
X271364D01*
Y1415670D01*
X267347Y1411653D01*
X266505Y1410393D01*
X266209Y1408906D01*
Y1395214D01*
X266505Y1393727D01*
X267347Y1392467D01*
X331035Y1328779D01*
Y1213330D01*
X331331Y1211843D01*
X332173Y1210583D01*
X342003Y1200753D01*
X343263Y1199911D01*
X344750Y1199615D01*
X400500D01*
X401987Y1199911D01*
X403247Y1200753D01*
X423302Y1220808D01*
X424144Y1222068D01*
X424351Y1223110D01*
X428195D01*
Y1243380D01*
X412915D01*
Y1223110D01*
X412957D01*
X413443Y1221937D01*
X398891Y1207385D01*
X389288D01*
X388802Y1208558D01*
X403302Y1223058D01*
X403336Y1223110D01*
X408195D01*
Y1266190D01*
X404440D01*
Y1273810D01*
X408195D01*
Y1316890D01*
X404440D01*
Y1401762D01*
X440052Y1437374D01*
X440894Y1438634D01*
X440943Y1438881D01*
X441131Y1439826D01*
X442395Y1439702D01*
Y1423150D01*
X415177Y1395933D01*
X413969Y1394358D01*
X413432Y1393061D01*
X413209Y1392523D01*
X412950Y1390555D01*
Y1316890D01*
X412915D01*
Y1296620D01*
X428195D01*
Y1316890D01*
X428160D01*
Y1387405D01*
X455378Y1414622D01*
X456586Y1416198D01*
X456901Y1416957D01*
X457346Y1418032D01*
X457605Y1420000D01*
Y1465308D01*
X457765Y1465517D01*
X458661Y1467679D01*
X458800Y1468730D01*
X450000D01*
Y1470000D01*
X448730D01*
Y1478799D01*
X447679Y1478661D01*
X445517Y1477765D01*
X443660Y1476340D01*
X442392Y1474689D01*
X441190Y1475097D01*
Y1493106D01*
X440894Y1494593D01*
X440052Y1495853D01*
X434385Y1501520D01*
X433125Y1502362D01*
X431638Y1502658D01*
X424068D01*
Y1506035D01*
X416031D01*
X415927Y1506560D01*
X415085Y1507820D01*
X412853Y1510052D01*
X411593Y1510894D01*
X410106Y1511190D01*
D02*
G37*
G36*
X278730Y1425604D02*
X271364D01*
Y1420270D01*
X278730D01*
Y1425604D01*
D02*
G37*
G36*
X793730Y1417523D02*
X790581Y1417213D01*
X786333Y1415924D01*
X782417Y1413831D01*
X778985Y1411014D01*
X776168Y1407582D01*
X774075Y1403667D01*
X772786Y1399418D01*
X772476Y1396269D01*
X793730D01*
Y1417523D01*
D02*
G37*
G36*
X26270D02*
Y1396269D01*
X47524D01*
X47214Y1399418D01*
X45925Y1403667D01*
X43832Y1407582D01*
X41015Y1411014D01*
X37583Y1413831D01*
X33667Y1415924D01*
X29419Y1417213D01*
X26270Y1417523D01*
D02*
G37*
G36*
Y122523D02*
Y101269D01*
X47524D01*
X47214Y104418D01*
X45925Y108667D01*
X43832Y112582D01*
X41015Y116014D01*
X37583Y118831D01*
X33667Y120924D01*
X29419Y122213D01*
X26270Y122523D01*
D02*
G37*
G36*
X793730Y98729D02*
X772476D01*
X772786Y95581D01*
X774075Y91332D01*
X776168Y87416D01*
X778985Y83984D01*
X782417Y81167D01*
X786333Y79074D01*
X790581Y77785D01*
X793730Y77475D01*
Y98729D01*
D02*
G37*
G36*
X47524D02*
X26270D01*
Y77475D01*
X29419Y77785D01*
X33667Y79074D01*
X37583Y81167D01*
X41015Y83984D01*
X43832Y87416D01*
X45925Y91332D01*
X47214Y95581D01*
X47524Y98729D01*
D02*
G37*
G36*
X428195Y1294080D02*
X412915D01*
Y1273810D01*
X412950D01*
Y1266190D01*
X412915D01*
Y1245920D01*
X428195D01*
Y1266190D01*
X428160D01*
Y1273810D01*
X428195D01*
Y1294080D01*
D02*
G37*
G36*
X454000Y1355217D02*
X451679Y1354911D01*
X449517Y1354015D01*
X447660Y1352590D01*
X446235Y1350733D01*
X445339Y1348571D01*
X445033Y1346250D01*
X445339Y1343929D01*
X446235Y1341767D01*
X446395Y1341558D01*
Y1316890D01*
X432915D01*
Y1273810D01*
X432950D01*
Y1266190D01*
X432915D01*
Y1223110D01*
X448195D01*
Y1266190D01*
X448160D01*
Y1273810D01*
X448195D01*
Y1292235D01*
X459378Y1303417D01*
X460586Y1304992D01*
X461123Y1306289D01*
X461346Y1306827D01*
X461605Y1308795D01*
Y1341558D01*
X461765Y1341767D01*
X462661Y1343929D01*
X462967Y1346250D01*
X462661Y1348571D01*
X461765Y1350733D01*
X460340Y1352590D01*
X458483Y1354015D01*
X456321Y1354911D01*
X454000Y1355217D01*
D02*
G37*
G36*
X793730Y122523D02*
X790581Y122213D01*
X786333Y120924D01*
X782417Y118831D01*
X778985Y116014D01*
X776168Y112582D01*
X774075Y108667D01*
X772786Y104418D01*
X772476Y101269D01*
X793730D01*
Y122523D01*
D02*
G37*
G36*
Y2290523D02*
X790581Y2290213D01*
X786333Y2288924D01*
X782417Y2286831D01*
X778985Y2284014D01*
X776168Y2280582D01*
X774075Y2276667D01*
X772786Y2272418D01*
X772476Y2269269D01*
X793730D01*
Y2290523D01*
D02*
G37*
G36*
X26270D02*
Y2269269D01*
X47524D01*
X47214Y2272418D01*
X45925Y2276667D01*
X43832Y2280582D01*
X41015Y2284014D01*
X37583Y2286831D01*
X33667Y2288924D01*
X29419Y2290213D01*
X26270Y2290523D01*
D02*
G37*
G36*
X793730Y2266729D02*
X772476D01*
X772786Y2263580D01*
X774075Y2259332D01*
X776168Y2255416D01*
X778985Y2251984D01*
X782417Y2249167D01*
X786333Y2247074D01*
X790581Y2245785D01*
X793730Y2245475D01*
Y2266729D01*
D02*
G37*
G36*
X47524Y3072229D02*
X26270D01*
Y3050975D01*
X29419Y3051285D01*
X33667Y3052574D01*
X37583Y3054667D01*
X41015Y3057484D01*
X43832Y3060916D01*
X45925Y3064832D01*
X47214Y3069081D01*
X47524Y3072229D01*
D02*
G37*
G36*
X793730Y3096023D02*
X790581Y3095713D01*
X786333Y3094424D01*
X782417Y3092332D01*
X778985Y3089515D01*
X776168Y3086082D01*
X774075Y3082167D01*
X772786Y3077918D01*
X772476Y3074769D01*
X793730D01*
Y3096023D01*
D02*
G37*
G36*
X26270D02*
Y3074769D01*
X47524D01*
X47214Y3077918D01*
X45925Y3082167D01*
X43832Y3086082D01*
X41015Y3089515D01*
X37583Y3092332D01*
X33667Y3094424D01*
X29419Y3095713D01*
X26270Y3096023D01*
D02*
G37*
G36*
X793730Y3072229D02*
X772476D01*
X772786Y3069081D01*
X774075Y3064832D01*
X776168Y3060916D01*
X778985Y3057484D01*
X782417Y3054667D01*
X786333Y3052574D01*
X790581Y3051285D01*
X793730Y3050975D01*
Y3072229D01*
D02*
G37*
G36*
X451270Y1478799D02*
Y1471270D01*
X458800D01*
X458661Y1472321D01*
X457765Y1474483D01*
X456340Y1476340D01*
X454483Y1477765D01*
X452321Y1478661D01*
X451270Y1478799D01*
D02*
G37*
G36*
X47524Y2266729D02*
X26270D01*
Y2245475D01*
X29419Y2245785D01*
X33667Y2247074D01*
X37583Y2249167D01*
X41015Y2251984D01*
X43832Y2255416D01*
X45925Y2259332D01*
X47214Y2263580D01*
X47524Y2266729D01*
D02*
G37*
%LPD*%
G36*
X396670Y1399517D02*
Y1316890D01*
X392915D01*
Y1273810D01*
X396670D01*
Y1266190D01*
X392915D01*
Y1223659D01*
X383141Y1213885D01*
X350859D01*
X343885Y1220859D01*
Y1224679D01*
X345058Y1225165D01*
X351130Y1219093D01*
X352390Y1218251D01*
X353877Y1217955D01*
X367233D01*
X368720Y1218251D01*
X369980Y1219093D01*
X373997Y1223110D01*
X388195D01*
Y1266190D01*
X384440D01*
Y1273810D01*
X388195D01*
Y1316890D01*
X372915D01*
Y1273810D01*
X376670D01*
Y1266190D01*
X372915D01*
Y1233016D01*
X369368Y1229469D01*
X368195Y1229955D01*
Y1266190D01*
X364440D01*
Y1273810D01*
X368195D01*
Y1316890D01*
X364440D01*
Y1368946D01*
X395497Y1400003D01*
X396670Y1399517D01*
D02*
G37*
G36*
X433420Y1441730D02*
X424808Y1433118D01*
X423635Y1433604D01*
Y1453965D01*
X424068D01*
Y1463490D01*
X426510D01*
Y1465932D01*
X433420D01*
Y1441730D01*
D02*
G37*
G36*
X409365Y1451301D02*
Y1434859D01*
X345058Y1370552D01*
X343885Y1371038D01*
Y1404252D01*
X348636D01*
Y1415115D01*
X351364D01*
Y1414252D01*
X358730D01*
Y1420856D01*
Y1427460D01*
X351364D01*
Y1422885D01*
X348636D01*
Y1432142D01*
X350191Y1433697D01*
X351364Y1433211D01*
Y1432396D01*
X368636D01*
Y1435115D01*
X389911D01*
X391398Y1435411D01*
X392658Y1436253D01*
X408192Y1451787D01*
X409365Y1451301D01*
D02*
G37*
G36*
X331364Y1404252D02*
X336115D01*
Y1336346D01*
X334942Y1335860D01*
X277723Y1393079D01*
X278209Y1394252D01*
X288636D01*
Y1396971D01*
X290000D01*
X291487Y1397267D01*
X292747Y1398109D01*
X298890Y1404252D01*
X308636D01*
Y1406971D01*
X331364D01*
Y1404252D01*
D02*
G37*
G36*
X356670Y1369517D02*
Y1316890D01*
X352915D01*
Y1273810D01*
X356670D01*
Y1266190D01*
X352915D01*
Y1229955D01*
X351742Y1229469D01*
X350135Y1231076D01*
Y1364641D01*
X355497Y1370003D01*
X356670Y1369517D01*
D02*
G37*
G36*
X395932Y1496510D02*
X393490D01*
Y1494068D01*
X383965D01*
Y1485432D01*
Y1478932D01*
Y1472432D01*
Y1465932D01*
X393490D01*
Y1463490D01*
X395932D01*
Y1461491D01*
X388358Y1453917D01*
X350033D01*
X348546Y1453622D01*
X347286Y1452779D01*
X337391Y1442885D01*
X328636D01*
Y1445604D01*
X311364D01*
Y1435858D01*
X309809Y1434303D01*
X308636Y1434789D01*
Y1435604D01*
X298209D01*
X297723Y1436777D01*
X364366Y1503420D01*
X395932D01*
Y1496510D01*
D02*
G37*
%LPC*%
G36*
X368636Y1427460D02*
X361270D01*
Y1422126D01*
X368636D01*
Y1427460D01*
D02*
G37*
G36*
Y1419586D02*
X361270D01*
Y1414252D01*
X368636D01*
Y1419586D01*
D02*
G37*
%LPD*%
D12*
X420555Y1390555D02*
X450000Y1420000D01*
Y1466115D01*
X420555Y1244650D02*
Y1390555D01*
X454000Y1308795D02*
Y1346250D01*
X440555Y1295350D02*
X454000Y1308795D01*
X440555Y1244650D02*
Y1295350D01*
D13*
X25000Y3073499D02*
D03*
Y2267999D02*
D03*
Y1394999D02*
D03*
Y99999D02*
D03*
X795000Y3073499D02*
D03*
Y2267999D02*
D03*
Y1394999D02*
D03*
Y99999D02*
D03*
D14*
X450000Y1470000D02*
D03*
X454000Y1346250D02*
D03*
D15*
X440555Y1244650D02*
D03*
Y1295350D02*
D03*
X420555Y1244650D02*
D03*
Y1295350D02*
D03*
X400555Y1244650D02*
D03*
Y1295350D02*
D03*
X380555Y1244650D02*
D03*
Y1295350D02*
D03*
X360555Y1244650D02*
D03*
Y1295350D02*
D03*
D16*
X320000Y1439000D02*
D03*
Y1420856D02*
D03*
X280000Y1419000D02*
D03*
Y1400856D02*
D03*
X300000Y1429000D02*
D03*
Y1410856D02*
D03*
X340000Y1429000D02*
D03*
Y1410856D02*
D03*
X360000Y1439000D02*
D03*
Y1420856D02*
D03*
D17*
X419750Y1460315D02*
D03*
X413250D02*
D03*
X406750D02*
D03*
X400250D02*
D03*
Y1499685D02*
D03*
X406750D02*
D03*
X413250D02*
D03*
X419750D02*
D03*
D18*
X390315Y1470250D02*
D03*
Y1476750D02*
D03*
Y1483250D02*
D03*
Y1489750D02*
D03*
X429685D02*
D03*
Y1483250D02*
D03*
Y1476750D02*
D03*
Y1470250D02*
D03*
D19*
X410000Y1480000D02*
D03*
D20*
X353877Y1221840D02*
X367233D01*
X346250Y1229467D02*
X353877Y1221840D01*
X349250Y1210000D02*
X384750D01*
X340000Y1219250D02*
X349250Y1210000D01*
X344750Y1203500D02*
X400500D01*
X334920Y1213330D02*
X344750Y1203500D01*
X340000Y1219250D02*
Y1410856D01*
X334920Y1213330D02*
Y1330388D01*
X346250Y1229467D02*
Y1366250D01*
X419750Y1499685D02*
X420662Y1498773D01*
X437305Y1440121D02*
Y1493106D01*
X400555Y1403371D02*
X437305Y1440121D01*
X420662Y1498773D02*
X431638D01*
X437305Y1493106D01*
X280000Y1419000D02*
X358144D01*
X412338Y1500597D02*
X413250Y1499685D01*
X362757Y1507305D02*
X410106D01*
X290094Y1434642D02*
X362757Y1507305D01*
X412338Y1500597D02*
Y1505073D01*
X410106Y1507305D02*
X412338Y1505073D01*
X290094Y1429094D02*
Y1434642D01*
X280000Y1419000D02*
X290094Y1429094D01*
X280000Y1418812D02*
Y1419000D01*
X270094Y1408906D02*
X280000Y1418812D01*
X270094Y1395214D02*
Y1408906D01*
Y1395214D02*
X334920Y1330388D01*
X419750Y1429750D02*
Y1460315D01*
X360555Y1370555D02*
X419750Y1429750D01*
X389967Y1450033D02*
X400250Y1460315D01*
X350033Y1450033D02*
X389967D01*
X339000Y1439000D02*
X350033Y1450033D01*
X360000Y1439000D02*
X389911D01*
X320000D02*
X339000D01*
X350000D02*
X360000D01*
X340000Y1429000D02*
X350000Y1439000D01*
X300000Y1410856D02*
X340000D01*
X290000Y1400856D02*
X300000Y1410856D01*
X280000Y1400856D02*
X290000D01*
X358144Y1419000D02*
X360000Y1420856D01*
X310000Y1429000D02*
X320000Y1439000D01*
X300000Y1429000D02*
X310000D01*
X420555Y1223555D02*
Y1244650D01*
X400500Y1203500D02*
X420555Y1223555D01*
X384750Y1210000D02*
X400555Y1225805D01*
X367233Y1221840D02*
X377750Y1232357D01*
X360555Y1295350D02*
Y1370555D01*
Y1244650D02*
Y1295350D01*
X380555Y1244650D02*
Y1295350D01*
X400555Y1225805D02*
Y1403371D01*
X346250Y1366250D02*
X413250Y1433250D01*
Y1460315D01*
X389911Y1439000D02*
X406750Y1455839D01*
Y1460315D01*
M02*
