%FSLAX44Y44*%
%MOMM*%
G71*
G01*
G75*
G04 Layer_Color=255*
%ADD10R,2.5000X6.0000*%
%ADD11R,6.9850X4.0000*%
%ADD12R,6.0000X2.5000*%
%ADD13R,4.0000X6.9850*%
%ADD14C,0.2540*%
%ADD15C,1.0000*%
%ADD16C,4.0000*%
%ADD17C,1.8000*%
%ADD18C,1.0000*%
%ADD19C,1.2700*%
%ADD20R,1.0200X3.8000*%
%ADD21R,1.2192X0.8128*%
%ADD22R,0.3556X0.7620*%
%ADD23R,0.7620X0.3556*%
%ADD24R,2.7940X2.7940*%
D16*
X30000Y2100000D02*
D03*
X91000Y3100000D02*
D03*
X729000D02*
D03*
X790000Y2100000D02*
D03*
Y1100000D02*
D03*
X729000Y126500D02*
D03*
X91000D02*
D03*
X30000Y1100000D02*
D03*
D17*
X392796Y2206906D02*
D03*
X417856Y2259643D02*
D03*
X642526Y2205997D02*
D03*
X647232Y2154997D02*
D03*
X642526Y2103997D02*
D03*
X417856Y2049420D02*
D03*
X392760Y2103903D02*
D03*
D18*
X451951Y2105875D02*
D03*
Y2225875D02*
D03*
X581951Y2105875D02*
D03*
Y2225873D02*
D03*
Y2205119D02*
D03*
Y2085119D02*
D03*
X451951Y2205119D02*
D03*
Y2085119D02*
D03*
D20*
X440000Y1294650D02*
D03*
Y1345350D02*
D03*
X420000Y1294650D02*
D03*
Y1345350D02*
D03*
X400000Y1294650D02*
D03*
Y1345350D02*
D03*
X380000Y1294650D02*
D03*
Y1345350D02*
D03*
X360000Y1294650D02*
D03*
Y1345350D02*
D03*
D21*
Y1420856D02*
D03*
Y1439000D02*
D03*
X340000Y1410856D02*
D03*
Y1429000D02*
D03*
X300000Y1410856D02*
D03*
Y1429000D02*
D03*
X280000Y1400856D02*
D03*
Y1419000D02*
D03*
X320000Y1420856D02*
D03*
Y1439000D02*
D03*
D22*
X419750Y1460315D02*
D03*
X413250D02*
D03*
X406750D02*
D03*
X400250D02*
D03*
Y1499685D02*
D03*
X406750D02*
D03*
X413250D02*
D03*
X419750D02*
D03*
D23*
X390315Y1470250D02*
D03*
Y1476750D02*
D03*
Y1483250D02*
D03*
Y1489750D02*
D03*
X429685D02*
D03*
Y1483250D02*
D03*
Y1476750D02*
D03*
Y1470250D02*
D03*
D24*
X410000Y1480000D02*
D03*
M02*
