%FSLAX44Y44*%
%MOMM*%
G71*
G01*
G75*
G04 Layer_Color=8388736*
%ADD10R,2.5000X6.0000*%
%ADD11R,6.9850X4.0000*%
%ADD12R,6.0000X2.5000*%
%ADD13R,4.0000X6.9850*%
%ADD14C,0.2540*%
%ADD15C,1.0000*%
%ADD16C,4.0000*%
%ADD17C,1.8000*%
%ADD18C,1.0000*%
%ADD19C,1.2700*%
%ADD20R,1.0200X3.8000*%
%ADD21R,1.2192X0.8128*%
%ADD22R,0.3556X0.7620*%
%ADD23R,0.7620X0.3556*%
%ADD24R,2.7940X2.7940*%
%ADD25R,2.7032X6.2032*%
%ADD26R,7.1882X4.2032*%
%ADD27R,6.2032X2.7032*%
%ADD28R,4.2032X7.1882*%
%ADD29C,4.2032*%
%ADD30C,2.0032*%
%ADD31C,1.2032*%
%ADD32C,1.4732*%
D25*
X525240Y2874220D02*
D03*
X375240D02*
D03*
X225240D02*
D03*
X154760Y2916780D02*
D03*
X304760D02*
D03*
X454760D02*
D03*
X604760D02*
D03*
X754760D02*
D03*
X675240Y2354220D02*
D03*
X525240D02*
D03*
X375240D02*
D03*
X225240D02*
D03*
X75240D02*
D03*
X154760Y2316780D02*
D03*
X304760D02*
D03*
X225240Y1758220D02*
D03*
X75240D02*
D03*
X154760Y1796780D02*
D03*
X304760D02*
D03*
X454760D02*
D03*
X604760D02*
D03*
X754760D02*
D03*
X675240Y1238220D02*
D03*
X525240D02*
D03*
X375240D02*
D03*
X225240D02*
D03*
X75240D02*
D03*
X154760Y1276780D02*
D03*
X304760D02*
D03*
X454760D02*
D03*
X604760D02*
D03*
X734760D02*
D03*
X675240Y718220D02*
D03*
X525240D02*
D03*
X375240D02*
D03*
X225240D02*
D03*
X75240D02*
D03*
X154760Y756780D02*
D03*
X304760D02*
D03*
X454760D02*
D03*
X604760D02*
D03*
X754760D02*
D03*
X675240Y198220D02*
D03*
X525240D02*
D03*
X375240D02*
D03*
X225240D02*
D03*
X75240D02*
D03*
D26*
X548100Y3130760D02*
D03*
X398100D02*
D03*
X248100D02*
D03*
X131900Y2660240D02*
D03*
X281900D02*
D03*
X431900D02*
D03*
X581900D02*
D03*
X731900D02*
D03*
X698100Y2610760D02*
D03*
X548100D02*
D03*
X398100D02*
D03*
X248100D02*
D03*
X98100D02*
D03*
X131900Y2060240D02*
D03*
X281900D02*
D03*
X248100Y2014760D02*
D03*
X98100D02*
D03*
X131900Y1540240D02*
D03*
X281900D02*
D03*
X431900D02*
D03*
X581900D02*
D03*
X731900D02*
D03*
X698100Y1494760D02*
D03*
X548100D02*
D03*
X398100D02*
D03*
X248100D02*
D03*
X98100D02*
D03*
X131900Y1020240D02*
D03*
X281900D02*
D03*
X431900D02*
D03*
X581900D02*
D03*
X711900D02*
D03*
X698100Y974760D02*
D03*
X548100D02*
D03*
X398100D02*
D03*
X248100D02*
D03*
X98100D02*
D03*
X131900Y500240D02*
D03*
X281900D02*
D03*
X431900D02*
D03*
X581900D02*
D03*
X731900D02*
D03*
X698100Y454760D02*
D03*
X548100D02*
D03*
X398100D02*
D03*
X248100D02*
D03*
X98100D02*
D03*
D27*
X458220Y1962760D02*
D03*
X405780Y57240D02*
D03*
X738780D02*
D03*
D28*
X714760Y1939900D02*
D03*
X149240Y80100D02*
D03*
X482240D02*
D03*
D29*
X30000Y2100000D02*
D03*
X91000Y3100000D02*
D03*
X729000D02*
D03*
X790000Y2100000D02*
D03*
Y1100000D02*
D03*
X729000Y126500D02*
D03*
X91000D02*
D03*
X30000Y1100000D02*
D03*
D30*
X392796Y2206906D02*
D03*
X417856Y2259643D02*
D03*
X642526Y2205997D02*
D03*
X647232Y2154997D02*
D03*
X642526Y2103997D02*
D03*
X417856Y2049420D02*
D03*
X392760Y2103903D02*
D03*
D31*
X451951Y2105875D02*
D03*
Y2225875D02*
D03*
X581951Y2105875D02*
D03*
Y2225873D02*
D03*
Y2205119D02*
D03*
Y2085119D02*
D03*
X451951Y2205119D02*
D03*
Y2085119D02*
D03*
D32*
X460000Y1350000D02*
D03*
X450000Y1430000D02*
D03*
M02*
