%FSLAX44Y44*%
%MOMM*%
G71*
G01*
G75*
%ADD10R,2.5000X6.0000*%
%ADD11R,6.9850X4.0000*%
%ADD12R,6.0000X2.5000*%
%ADD13R,4.0000X6.9850*%
%ADD14C,0.2540*%
%ADD15C,1.0000*%
%ADD16C,4.0000*%
%ADD17C,1.8000*%
%ADD18C,1.0000*%
%ADD19C,1.2700*%
%ADD20R,1.0200X3.8000*%
%ADD21R,1.2192X0.8128*%
%ADD22R,0.3556X0.7620*%
%ADD23R,0.7620X0.3556*%
%ADD24R,2.7940X2.7940*%
D14*
X497928Y3134160D02*
X503006D01*
X500467D01*
Y3149395D01*
X497928Y3146856D01*
X352891Y3134160D02*
X342734D01*
X352891Y3144317D01*
Y3146856D01*
X350352Y3149395D01*
X345273D01*
X342734Y3146856D01*
X192874D02*
X195413Y3149395D01*
X200492D01*
X203031Y3146856D01*
Y3144317D01*
X200492Y3141778D01*
X197952D01*
X200492D01*
X203031Y3139239D01*
Y3136699D01*
X200492Y3134160D01*
X195413D01*
X192874Y3136699D01*
X58760Y2925372D02*
Y2940607D01*
X51142Y2932990D01*
X61299D01*
X205157Y2941235D02*
X195000D01*
Y2933618D01*
X200078Y2936157D01*
X202617D01*
X205157Y2933618D01*
Y2928539D01*
X202617Y2926000D01*
X197539D01*
X195000Y2928539D01*
X356157Y2940235D02*
X351078Y2937696D01*
X346000Y2932617D01*
Y2927539D01*
X348539Y2925000D01*
X353618D01*
X356157Y2927539D01*
Y2930078D01*
X353618Y2932617D01*
X346000D01*
X495000Y2940235D02*
X505157D01*
Y2937696D01*
X495000Y2927539D01*
Y2925000D01*
X675000Y2938696D02*
X677539Y2941235D01*
X682617D01*
X685157Y2938696D01*
Y2936157D01*
X682617Y2933618D01*
X685157Y2931078D01*
Y2928539D01*
X682617Y2926000D01*
X677539D01*
X675000Y2928539D01*
Y2931078D01*
X677539Y2933618D01*
X675000Y2936157D01*
Y2938696D01*
X677539Y2933618D02*
X682617D01*
X668000Y2642539D02*
X670539Y2640000D01*
X675618D01*
X678157Y2642539D01*
Y2652696D01*
X675618Y2655235D01*
X670539D01*
X668000Y2652696D01*
Y2650157D01*
X670539Y2647617D01*
X678157D01*
X487000Y2640000D02*
X492078D01*
X489539D01*
Y2655235D01*
X487000Y2652696D01*
X499696D02*
X502235Y2655235D01*
X507313D01*
X509853Y2652696D01*
Y2642539D01*
X507313Y2640000D01*
X502235D01*
X499696Y2642539D01*
Y2652696D01*
X335000Y2640000D02*
X340078D01*
X337539D01*
Y2655235D01*
X335000Y2652696D01*
X347696Y2640000D02*
X352774D01*
X350235D01*
Y2655235D01*
X347696Y2652696D01*
X183000Y2640000D02*
X188078D01*
X185539D01*
Y2655235D01*
X183000Y2652696D01*
X205853Y2640000D02*
X195696D01*
X205853Y2650157D01*
Y2652696D01*
X203313Y2655235D01*
X198235D01*
X195696Y2652696D01*
X29000Y2588000D02*
X34078D01*
X31539D01*
Y2603235D01*
X29000Y2600696D01*
X41696D02*
X44235Y2603235D01*
X49313D01*
X51853Y2600696D01*
Y2598157D01*
X49313Y2595617D01*
X46774D01*
X49313D01*
X51853Y2593078D01*
Y2590539D01*
X49313Y2588000D01*
X44235D01*
X41696Y2590539D01*
X29000Y2365000D02*
X34078D01*
X31539D01*
Y2380235D01*
X29000Y2377696D01*
X49313Y2365000D02*
Y2380235D01*
X41696Y2372617D01*
X51853D01*
X182000Y2365000D02*
X187078D01*
X184539D01*
Y2380235D01*
X182000Y2377696D01*
X204853Y2380235D02*
X194696D01*
Y2372617D01*
X199774Y2375157D01*
X202313D01*
X204853Y2372617D01*
Y2367539D01*
X202313Y2365000D01*
X197235D01*
X194696Y2367539D01*
X434428Y1985064D02*
X439506D01*
X436967D01*
Y2000299D01*
X434428Y1997760D01*
X457281Y2000299D02*
X452202Y1997760D01*
X447124Y1992682D01*
Y1987603D01*
X449663Y1985064D01*
X454742D01*
X457281Y1987603D01*
Y1990143D01*
X454742Y1992682D01*
X447124D01*
X180000Y2042000D02*
X185078D01*
X182539D01*
Y2057235D01*
X180000Y2054696D01*
X192696Y2057235D02*
X202853D01*
Y2054696D01*
X192696Y2044539D01*
Y2042000D01*
X38000Y2044000D02*
X43078D01*
X40539D01*
Y2059235D01*
X38000Y2056696D01*
X50696D02*
X53235Y2059235D01*
X58313D01*
X60853Y2056696D01*
Y2054157D01*
X58313Y2051617D01*
X60853Y2049078D01*
Y2046539D01*
X58313Y2044000D01*
X53235D01*
X50696Y2046539D01*
Y2049078D01*
X53235Y2051617D01*
X50696Y2054157D01*
Y2056696D01*
X53235Y2051617D02*
X58313D01*
X29000Y1830000D02*
X34078D01*
X31539D01*
Y1845235D01*
X29000Y1842696D01*
X41696Y1832539D02*
X44235Y1830000D01*
X49313D01*
X51853Y1832539D01*
Y1842696D01*
X49313Y1845235D01*
X44235D01*
X41696Y1842696D01*
Y1840157D01*
X44235Y1837617D01*
X51853D01*
X175157Y1831000D02*
X165000D01*
X175157Y1841157D01*
Y1843696D01*
X172617Y1846235D01*
X167539D01*
X165000Y1843696D01*
X180235D02*
X182774Y1846235D01*
X187853D01*
X190392Y1843696D01*
Y1833539D01*
X187853Y1831000D01*
X182774D01*
X180235Y1833539D01*
Y1843696D01*
X381593Y1830886D02*
X371436D01*
X381593Y1841043D01*
Y1843582D01*
X379054Y1846121D01*
X373975D01*
X371436Y1843582D01*
X386671Y1830886D02*
X391749D01*
X389210D01*
Y1846121D01*
X386671Y1843582D01*
X531707Y1830886D02*
X521550D01*
X531707Y1841043D01*
Y1843582D01*
X529168Y1846121D01*
X524089D01*
X521550Y1843582D01*
X546942Y1830886D02*
X536785D01*
X546942Y1841043D01*
Y1843582D01*
X544403Y1846121D01*
X539324D01*
X536785Y1843582D01*
X681567Y1830886D02*
X671410D01*
X681567Y1841043D01*
Y1843582D01*
X679028Y1846121D01*
X673949D01*
X671410Y1843582D01*
X686645D02*
X689184Y1846121D01*
X694263D01*
X696802Y1843582D01*
Y1841043D01*
X694263Y1838504D01*
X691723D01*
X694263D01*
X696802Y1835965D01*
Y1833425D01*
X694263Y1830886D01*
X689184D01*
X686645Y1833425D01*
X641157Y1523000D02*
X631000D01*
X641157Y1533157D01*
Y1535696D01*
X638618Y1538235D01*
X633539D01*
X631000Y1535696D01*
X653853Y1523000D02*
Y1538235D01*
X646235Y1530618D01*
X656392D01*
X488157Y1522000D02*
X478000D01*
X488157Y1532157D01*
Y1534696D01*
X485617Y1537235D01*
X480539D01*
X478000Y1534696D01*
X503392Y1537235D02*
X493235D01*
Y1529617D01*
X498313Y1532157D01*
X500853D01*
X503392Y1529617D01*
Y1524539D01*
X500853Y1522000D01*
X495774D01*
X493235Y1524539D01*
X339157Y1523000D02*
X329000D01*
X339157Y1533157D01*
Y1535696D01*
X336618Y1538235D01*
X331539D01*
X329000Y1535696D01*
X354392Y1538235D02*
X349313Y1535696D01*
X344235Y1530618D01*
Y1525539D01*
X346774Y1523000D01*
X351853D01*
X354392Y1525539D01*
Y1528078D01*
X351853Y1530618D01*
X344235D01*
X196157Y1525000D02*
X186000D01*
X196157Y1535157D01*
Y1537696D01*
X193617Y1540235D01*
X188539D01*
X186000Y1537696D01*
X201235Y1540235D02*
X211392D01*
Y1537696D01*
X201235Y1527539D01*
Y1525000D01*
X25157Y1474000D02*
X15000D01*
X25157Y1484157D01*
Y1486696D01*
X22617Y1489235D01*
X17539D01*
X15000Y1486696D01*
X30235D02*
X32774Y1489235D01*
X37853D01*
X40392Y1486696D01*
Y1484157D01*
X37853Y1481617D01*
X40392Y1479078D01*
Y1476539D01*
X37853Y1474000D01*
X32774D01*
X30235Y1476539D01*
Y1479078D01*
X32774Y1481617D01*
X30235Y1484157D01*
Y1486696D01*
X32774Y1481617D02*
X37853D01*
X20157Y1310000D02*
X10000D01*
X20157Y1320157D01*
Y1322696D01*
X17617Y1325235D01*
X12539D01*
X10000Y1322696D01*
X25235Y1312539D02*
X27774Y1310000D01*
X32853D01*
X35392Y1312539D01*
Y1322696D01*
X32853Y1325235D01*
X27774D01*
X25235Y1322696D01*
Y1320157D01*
X27774Y1317617D01*
X35392D01*
X179000Y1313696D02*
X181539Y1316235D01*
X186618D01*
X189157Y1313696D01*
Y1311157D01*
X186618Y1308618D01*
X184078D01*
X186618D01*
X189157Y1306078D01*
Y1303539D01*
X186618Y1301000D01*
X181539D01*
X179000Y1303539D01*
X194235Y1313696D02*
X196774Y1316235D01*
X201853D01*
X204392Y1313696D01*
Y1303539D01*
X201853Y1301000D01*
X196774D01*
X194235Y1303539D01*
Y1313696D01*
X333000Y1314696D02*
X335539Y1317235D01*
X340617D01*
X343157Y1314696D01*
Y1312157D01*
X340617Y1309617D01*
X338078D01*
X340617D01*
X343157Y1307078D01*
Y1304539D01*
X340617Y1302000D01*
X335539D01*
X333000Y1304539D01*
X348235Y1302000D02*
X353313D01*
X350774D01*
Y1317235D01*
X348235Y1314696D01*
X472000Y1315696D02*
X474539Y1318235D01*
X479618D01*
X482157Y1315696D01*
Y1313157D01*
X479618Y1310618D01*
X477078D01*
X479618D01*
X482157Y1308078D01*
Y1305539D01*
X479618Y1303000D01*
X474539D01*
X472000Y1305539D01*
X497392Y1303000D02*
X487235D01*
X497392Y1313157D01*
Y1315696D01*
X494853Y1318235D01*
X489774D01*
X487235Y1315696D01*
X603000Y1355696D02*
X605539Y1358235D01*
X610617D01*
X613157Y1355696D01*
Y1353157D01*
X610617Y1350618D01*
X608078D01*
X610617D01*
X613157Y1348078D01*
Y1345539D01*
X610617Y1343000D01*
X605539D01*
X603000Y1345539D01*
X618235Y1355696D02*
X620774Y1358235D01*
X625853D01*
X628392Y1355696D01*
Y1353157D01*
X625853Y1350618D01*
X623313D01*
X625853D01*
X628392Y1348078D01*
Y1345539D01*
X625853Y1343000D01*
X620774D01*
X618235Y1345539D01*
X631000Y1017696D02*
X633539Y1020235D01*
X638618D01*
X641157Y1017696D01*
Y1015157D01*
X638618Y1012617D01*
X636078D01*
X638618D01*
X641157Y1010078D01*
Y1007539D01*
X638618Y1005000D01*
X633539D01*
X631000Y1007539D01*
X653853Y1005000D02*
Y1020235D01*
X646235Y1012617D01*
X656392D01*
X479000Y1015696D02*
X481539Y1018235D01*
X486618D01*
X489157Y1015696D01*
Y1013157D01*
X486618Y1010618D01*
X484078D01*
X486618D01*
X489157Y1008078D01*
Y1005539D01*
X486618Y1003000D01*
X481539D01*
X479000Y1005539D01*
X504392Y1018235D02*
X494235D01*
Y1010618D01*
X499313Y1013157D01*
X501853D01*
X504392Y1010618D01*
Y1005539D01*
X501853Y1003000D01*
X496774D01*
X494235Y1005539D01*
X332000Y1017696D02*
X334539Y1020235D01*
X339618D01*
X342157Y1017696D01*
Y1015157D01*
X339618Y1012617D01*
X337078D01*
X339618D01*
X342157Y1010078D01*
Y1007539D01*
X339618Y1005000D01*
X334539D01*
X332000Y1007539D01*
X357392Y1020235D02*
X352313Y1017696D01*
X347235Y1012617D01*
Y1007539D01*
X349774Y1005000D01*
X354853D01*
X357392Y1007539D01*
Y1010078D01*
X354853Y1012617D01*
X347235D01*
X181000Y1015696D02*
X183539Y1018235D01*
X188617D01*
X191157Y1015696D01*
Y1013157D01*
X188617Y1010618D01*
X186078D01*
X188617D01*
X191157Y1008078D01*
Y1005539D01*
X188617Y1003000D01*
X183539D01*
X181000Y1005539D01*
X196235Y1018235D02*
X206392D01*
Y1015696D01*
X196235Y1005539D01*
Y1003000D01*
X40000Y1016696D02*
X42539Y1019235D01*
X47618D01*
X50157Y1016696D01*
Y1014157D01*
X47618Y1011618D01*
X45078D01*
X47618D01*
X50157Y1009078D01*
Y1006539D01*
X47618Y1004000D01*
X42539D01*
X40000Y1006539D01*
X55235Y1016696D02*
X57774Y1019235D01*
X62853D01*
X65392Y1016696D01*
Y1014157D01*
X62853Y1011618D01*
X65392Y1009078D01*
Y1006539D01*
X62853Y1004000D01*
X57774D01*
X55235Y1006539D01*
Y1009078D01*
X57774Y1011618D01*
X55235Y1014157D01*
Y1016696D01*
X57774Y1011618D02*
X62853D01*
X67000Y786696D02*
X69539Y789235D01*
X74618D01*
X77157Y786696D01*
Y784157D01*
X74618Y781618D01*
X72078D01*
X74618D01*
X77157Y779078D01*
Y776539D01*
X74618Y774000D01*
X69539D01*
X67000Y776539D01*
X82235D02*
X84774Y774000D01*
X89853D01*
X92392Y776539D01*
Y786696D01*
X89853Y789235D01*
X84774D01*
X82235Y786696D01*
Y784157D01*
X84774Y781618D01*
X92392D01*
X227617Y773000D02*
Y788235D01*
X220000Y780618D01*
X230157D01*
X235235Y785696D02*
X237774Y788235D01*
X242853D01*
X245392Y785696D01*
Y775539D01*
X242853Y773000D01*
X237774D01*
X235235Y775539D01*
Y785696D01*
X376618Y773000D02*
Y788235D01*
X369000Y780618D01*
X379157D01*
X384235Y773000D02*
X389313D01*
X386774D01*
Y788235D01*
X384235Y785696D01*
X527617Y774000D02*
Y789235D01*
X520000Y781618D01*
X530157D01*
X545392Y774000D02*
X535235D01*
X545392Y784157D01*
Y786696D01*
X542853Y789235D01*
X537774D01*
X535235Y786696D01*
X681618Y777000D02*
Y792235D01*
X674000Y784617D01*
X684157D01*
X689235Y789696D02*
X691774Y792235D01*
X696853D01*
X699392Y789696D01*
Y787157D01*
X696853Y784617D01*
X694313D01*
X696853D01*
X699392Y782078D01*
Y779539D01*
X696853Y777000D01*
X691774D01*
X689235Y779539D01*
X650618Y483000D02*
Y498235D01*
X643000Y490617D01*
X653157D01*
X665853Y483000D02*
Y498235D01*
X658235Y490617D01*
X668392D01*
X500617Y484000D02*
Y499235D01*
X493000Y491618D01*
X503157D01*
X518392Y499235D02*
X508235D01*
Y491618D01*
X513313Y494157D01*
X515853D01*
X518392Y491618D01*
Y486539D01*
X515853Y484000D01*
X510774D01*
X508235Y486539D01*
X351618Y485000D02*
Y500235D01*
X344000Y492617D01*
X354157D01*
X369392Y500235D02*
X364313Y497696D01*
X359235Y492617D01*
Y487539D01*
X361774Y485000D01*
X366853D01*
X369392Y487539D01*
Y490078D01*
X366853Y492617D01*
X359235D01*
X198617Y484000D02*
Y499235D01*
X191000Y491618D01*
X201157D01*
X206235Y499235D02*
X216392D01*
Y496696D01*
X206235Y486539D01*
Y484000D01*
X47618D02*
Y499235D01*
X40000Y491618D01*
X50157D01*
X55235Y496696D02*
X57774Y499235D01*
X62853D01*
X65392Y496696D01*
Y494157D01*
X62853Y491618D01*
X65392Y489078D01*
Y486539D01*
X62853Y484000D01*
X57774D01*
X55235Y486539D01*
Y489078D01*
X57774Y491618D01*
X55235Y494157D01*
Y496696D01*
X57774Y491618D02*
X62853D01*
X138262Y150676D02*
Y165911D01*
X130644Y158294D01*
X140801D01*
X145879Y153215D02*
X148418Y150676D01*
X153497D01*
X156036Y153215D01*
Y163372D01*
X153497Y165911D01*
X148418D01*
X145879Y163372D01*
Y160833D01*
X148418Y158294D01*
X156036D01*
X473795Y165911D02*
X463638D01*
Y158294D01*
X468716Y160833D01*
X471256D01*
X473795Y158294D01*
Y153215D01*
X471256Y150676D01*
X466177D01*
X463638Y153215D01*
X478873Y163372D02*
X481412Y165911D01*
X486491D01*
X489030Y163372D01*
Y153215D01*
X486491Y150676D01*
X481412D01*
X478873Y153215D01*
Y163372D01*
M02*
